<?xml version="1.0" encoding="UTF-8"?>
<svg xmlns="http://www.w3.org/2000/svg" width="321.5" height="160.0" viewBox="0 0 321.5 160.0">
  <polyline points="316.516,124.492 316.497,123.819 316.478,123.146 316.460,122.473 316.441,121.800 316.422,121.127 316.404,120.454 316.385,119.781 316.366,119.108 316.348,118.472 316.329,117.837 316.310,117.201 316.292,116.565 316.273,115.930 316.254,115.294 316.236,114.659 316.217,114.023 316.180,113.369 316.142,112.714 316.105,112.060 316.068,111.406 316.030,110.752 315.993,110.097 315.956,109.443 315.918,108.789 315.395,108.265 314.871,107.742 314.348,107.218 313.825,106.695 313.862,106.190 313.899,105.686 313.937,105.181 313.974,104.676 314.011,104.171 314.049,103.667 314.086,103.162 314.123,102.657 313.357,102.601 312.590,102.545 311.824,102.489 311.057,102.433 310.291,102.377 309.525,102.321 308.758,102.265 307.992,102.208 307.225,102.339 306.459,102.470 305.692,102.601 304.926,102.732 304.159,102.863 303.393,102.994 302.627,103.124 301.860,103.255 300.776,102.171 299.692,101.087 298.607,100.003 297.523,98.918 296.813,98.900 296.102,98.881 295.392,98.862 294.682,98.844 293.971,98.825 293.261,98.806 292.550,98.787 291.840,98.769 291.036,97.965 290.232,97.161 289.429,96.357 288.625,95.553 287.484,94.413 286.344,93.273 285.204,92.132 284.063,90.992 282.886,90.955 281.708,90.917 280.530,90.880 279.353,90.843 278.175,90.805 276.997,90.768 275.819,90.730 274.642,90.693 273.782,90.656 272.922,90.618 272.062,90.581 271.202,90.543 270.342,90.506 269.482,90.469 268.622,90.431 267.762,90.394 266.529,90.357 265.295,90.319 264.061,90.282 262.827,90.244 261.593,90.207 260.360,90.170 259.126,90.132 257.892,90.095 256.453,89.945 255.013,89.796 253.574,89.646 252.134,89.497 250.695,89.347 249.255,89.198 247.816,89.048 246.376,88.898 245.591,88.768 244.806,88.637 244.021,88.506 243.236,88.375 242.451,88.244 241.666,88.113 240.880,87.982 240.095,87.852 238.544,87.665 236.992,87.478 235.441,87.291 233.889,87.104 232.337,86.917 230.786,86.730 229.234,86.543 227.683,86.356 226.729,86.225 225.776,86.094 224.822,85.964 223.869,85.833 222.916,85.702 221.962,85.571 221.009,85.440 220.055,85.309 218.952,85.048 217.850,84.786 216.747,84.524 215.644,84.262 214.541,84.001 213.438,83.739 212.335,83.477 211.232,83.216 210.260,82.991 209.288,82.767 208.316,82.543 207.344,82.318 206.371,82.094 205.399,81.870 204.427,81.645 203.455,81.421 202.184,81.066 200.913,80.711 199.642,80.355 198.370,80.000 197.099,79.645 195.828,79.290 194.557,78.935 193.286,78.579 192.407,78.280 191.528,77.981 190.650,77.682 189.771,77.383 188.893,77.084 188.014,76.785 187.135,76.486 186.257,76.187 185.733,76.093 185.210,76.000 184.686,75.906 184.163,75.813 183.640,75.719 183.116,75.626 182.593,75.532 182.069,75.439 180.723,75.028 179.377,74.616 178.031,74.205 176.685,73.794 175.339,73.383 173.994,72.971 172.648,72.560 171.302,72.149 170.554,71.775 169.806,71.401 169.058,71.027 168.311,70.653 167.563,70.279 166.815,69.905 166.067,69.532 165.320,69.158 163.992,68.634 162.665,68.111 161.338,67.587 160.010,67.064 158.683,66.541 157.356,66.017 156.029,65.494 154.701,64.970 154.159,64.709 153.617,64.447 153.075,64.185 152.533,63.923 151.991,63.662 151.449,63.400 150.907,63.138 150.364,62.877 149.355,62.409 148.345,61.942 147.336,61.474 146.327,61.007 145.317,60.540 144.308,60.072 143.298,59.605 142.289,59.138 141.672,58.689 141.055,58.240 140.438,57.792 139.821,57.343 139.204,56.894 138.587,56.446 137.970,55.997 137.353,55.548 136.699,55.212 136.045,54.876 135.391,54.539 134.736,54.203 134.082,53.866 133.428,53.530 132.773,53.193 132.119,52.857 131.540,52.408 130.960,51.959 130.381,51.511 129.801,51.062 129.222,50.613 128.642,50.165 128.063,49.716 127.483,49.267 126.773,48.781 126.062,48.295 125.352,47.809 124.642,47.323 123.931,46.837 123.221,46.351 122.510,45.865 121.800,45.379 121.351,45.061 120.903,44.743 120.454,44.426 120.005,44.108 119.557,43.790 119.108,43.472 118.659,43.154 118.211,42.837 117.837,42.500 117.463,42.164 117.089,41.827 116.715,41.491 116.341,41.154 115.968,40.818 115.594,40.481 115.220,40.145 114.771,39.733 114.322,39.322 113.874,38.911 113.425,38.500 112.977,38.088 112.528,37.677 102.059,47.286 101.610,46.874 101.068,46.444 100.526,46.015 99.984,45.585 99.442,45.155 98.900,44.725 98.358,44.295 97.815,43.865 97.273,43.435 96.825,43.061 96.376,42.687 95.927,42.313 95.479,41.939 95.030,41.565 94.581,41.191 94.133,40.818 93.684,40.444 93.254,40.032 92.824,39.621 92.394,39.210 91.964,38.799 91.534,38.387 91.104,37.976 90.674,37.565 90.244,37.154 89.964,36.798 89.684,36.443 89.403,36.088 89.123,35.733 88.842,35.378 88.562,35.022 88.281,34.667 88.001,34.312 87.721,33.733 87.440,33.153 87.160,32.574 86.879,31.994 86.599,31.415 86.319,30.835 86.038,30.256 85.758,29.676 85.421,29.246 85.085,28.816 84.748,28.386 84.412,27.956 84.075,27.526 83.739,27.096 83.402,26.666 83.066,26.236 82.748,25.919 82.430,25.601 82.112,25.283 81.795,24.965 81.477,24.647 81.159,24.330 80.841,24.012 80.524,23.694 79.925,23.283 79.327,22.871 78.729,22.460 78.131,22.049 77.532,21.638 76.934,21.226 76.336,20.815 75.738,20.404 75.289,20.142 74.841,19.880 74.392,19.619 73.943,19.357 73.495,19.095 73.046,18.834 72.597,18.572 72.149,18.310 71.550,18.030 70.952,17.749 70.354,17.469 69.756,17.188 69.158,16.908 68.559,16.628 67.961,16.347 67.363,16.067 66.877,15.861 66.391,15.656 65.905,15.450 65.419,15.244 64.933,15.039 64.447,14.833 63.961,14.627 63.475,14.422 62.970,14.235 62.465,14.048 61.960,13.861 61.456,13.674 60.951,13.487 60.446,13.300 59.941,13.113 59.437,12.926 58.689,12.795 57.941,12.665 57.193,12.534 56.446,12.403 55.698,12.272 54.950,12.141 54.202,12.010 53.455,11.879 52.595,11.823 51.735,11.767 50.875,11.711 50.015,11.655 49.155,11.599 48.295,11.543 47.435,11.487 46.575,11.431 45.697,11.393 44.818,11.356 43.939,11.319 43.061,11.281 42.182,11.244 41.304,11.206 40.425,11.169 39.546,11.132 38.612,11.169 37.677,11.206 36.742,11.244 35.808,11.281 34.873,11.319 33.938,11.356 33.004,11.393 32.069,11.431 31.545,11.506 31.022,11.580 30.499,11.655 29.975,11.730 29.452,11.805 28.928,11.879 28.405,11.954 27.881,12.029 27.507,12.160 27.134,12.291 26.760,12.422 26.386,12.552 26.012,12.683 25.638,12.814 25.264,12.945 24.890,13.076 24.666,13.151 24.442,13.225 24.217,13.300 23.993,13.375 23.769,13.450 23.544,13.524 23.320,13.599 23.096,13.674 22.741,13.637 22.385,13.599 22.030,13.562 21.675,13.525 21.320,13.487 20.965,13.450 20.609,13.412 20.254,13.375 19.843,12.646 19.432,11.917 19.020,11.188 18.609,10.459 18.198,9.730 17.787,9.001 17.375,8.271 16.964,7.542 16.665,7.262 16.366,6.982 16.067,6.701 15.768,6.421 15.469,6.140 15.169,5.860 14.870,5.580 14.571,5.299 14.235,5.262 13.898,5.224 13.562,5.187 13.225,5.150 12.889,5.112 12.552,5.075 12.216,5.037 11.879,5.000 11.412,5.150 10.945,5.299 10.477,5.449 10.010,5.598 9.543,5.748 9.075,5.897 8.608,6.047 8.141,6.196 7.860,6.570 7.580,6.944 7.299,7.318 7.019,7.692 6.739,8.066 6.458,8.440 6.178,8.814 5.897,9.187 5.823,9.711 5.748,10.234 5.673,10.758 5.598,11.281 5.523,11.805 5.449,12.328 5.374,12.851 5.299,13.375 5.262,14.010 5.224,14.646 5.187,15.282 5.150,15.917 5.112,16.553 5.075,17.188 5.037,17.824 5.000,18.460 5.056,18.871 5.112,19.282 5.168,19.693 5.224,20.105 5.280,20.516 5.336,20.927 5.393,21.339 5.449,21.750 5.505,22.385 5.561,23.021 5.617,23.657 5.673,24.292 5.729,24.928 5.785,25.563 5.841,26.199 5.897,26.835 5.916,27.620 5.935,28.405 5.953,29.190 5.972,29.975 5.991,30.760 6.009,31.545 6.028,32.331 6.047,33.116 6.252,33.733 6.458,34.349 6.664,34.966 6.869,35.583 7.075,36.200 7.281,36.817 7.486,37.434 7.692,38.051 8.234,38.350 8.776,38.649 9.318,38.948 9.860,39.247 10.403,39.546 10.945,39.846 11.487,40.145 12.029,40.444 12.253,40.425 12.478,40.406 12.702,40.388 12.926,40.369 13.151,40.350 13.375,40.332 13.599,40.313 13.824,40.294 14.422,40.014 15.020,39.733 15.618,39.453 16.216,39.172 16.815,38.892 17.413,38.612 18.011,38.331 18.609,38.051 18.927,37.770 19.245,37.490 19.563,37.210 19.880,36.929 20.198,36.649 20.516,36.368 20.834,36.088 21.152,35.808 21.507,35.621 21.862,35.434 22.217,35.247 22.572,35.060 22.927,34.873 23.283,34.686 23.638,34.499 23.993,34.312 24.629,34.106 25.264,33.901 25.900,33.695 26.535,33.490 27.171,33.284 27.807,33.078 28.442,32.873 29.078,32.667 29.657,32.592 30.237,32.517 30.816,32.443 31.396,32.368 31.975,32.293 32.555,32.218 33.134,32.144 33.714,32.069 34.032,32.050 34.349,32.031 34.667,32.013 34.985,31.994 35.303,31.975 35.621,31.957 35.938,31.938 36.256,31.919 36.967,31.957 37.677,31.994 38.387,32.031 39.098,32.069 39.808,32.106 40.518,32.143 41.229,32.181 41.939,32.218 42.369,32.256 42.799,32.293 43.229,32.330 43.659,32.368 44.089,32.405 44.519,32.443 44.949,32.480 45.379,32.517 45.865,32.667 46.351,32.816 46.837,32.966 47.323,33.116 47.809,33.265 48.295,33.415 48.781,33.564 49.267,33.714 49.679,33.639 50.090,33.564 50.501,33.489 50.912,33.415 51.324,33.340 51.735,33.265 52.146,33.190 52.557,33.116 53.006,33.003 53.455,32.891 53.903,32.779 54.352,32.667 54.801,32.555 55.249,32.443 55.698,32.330 56.147,32.218 56.390,32.349 56.633,32.480 56.876,32.611 57.119,32.742 57.362,32.873 57.605,33.003 57.848,33.134 58.091,33.265 58.334,33.658 58.577,34.050 58.820,34.443 59.063,34.835 59.306,35.228 59.549,35.621 59.792,36.013 60.035,36.406 60.259,36.836 60.484,37.266 60.708,37.696 60.932,38.126 61.157,38.555 61.381,38.985 61.605,39.415 61.830,39.845 62.203,40.350 62.577,40.855 62.951,41.360 63.325,41.864 63.699,42.369 64.073,42.874 64.447,43.379 64.821,43.883 65.138,44.388 65.456,44.893 65.774,45.397 66.092,45.902 66.410,46.407 66.727,46.912 67.045,47.416 67.363,47.921 67.849,48.575 68.335,49.230 68.821,49.884 69.307,50.538 69.793,51.193 70.279,51.847 70.765,52.501 71.251,53.155 71.644,53.623 72.036,54.090 72.429,54.557 72.822,55.025 73.214,55.492 73.607,55.960 73.999,56.427 74.392,56.894 74.953,57.511 75.514,58.128 76.074,58.745 76.635,59.362 77.196,59.979 77.757,60.596 78.318,61.213 78.878,61.829 79.308,62.241 79.738,62.652 80.168,63.063 80.598,63.475 81.028,63.886 81.458,64.297 81.888,64.708 82.318,65.120 82.692,65.437 83.066,65.755 83.440,66.073 83.814,66.391 84.188,66.709 84.561,67.026 84.935,67.344 85.309,67.662 85.870,68.129 86.431,68.597 86.992,69.064 87.552,69.531 88.113,69.999 88.674,70.466 89.235,70.933 89.796,71.401 90.263,71.719 90.730,72.036 91.198,72.354 91.665,72.672 92.132,72.990 92.600,73.308 93.067,73.625 93.534,73.943 94.002,74.298 94.469,74.653 94.937,75.009 95.404,75.364 95.871,75.719 96.339,76.074 96.806,76.429 97.273,76.785 97.703,77.121 98.133,77.458 98.563,77.794 98.993,78.131 99.423,78.467 99.853,78.804 100.283,79.140 100.713,79.477 101.106,79.757 101.498,80.037 101.891,80.318 102.283,80.598 102.676,80.879 103.068,81.159 103.461,81.439 103.854,81.720 104.452,82.075 105.050,82.430 105.648,82.785 106.246,83.141 106.845,83.496 107.443,83.851 108.041,84.206 108.639,84.561 109.237,84.860 109.836,85.159 110.434,85.459 111.032,85.758 111.630,86.057 112.228,86.356 112.827,86.655 113.425,86.954 113.948,87.234 114.472,87.515 114.995,87.795 115.519,88.076 116.042,88.356 116.565,88.637 117.089,88.917 117.612,89.197 118.341,89.646 119.070,90.095 119.799,90.543 120.529,90.992 121.258,91.441 121.987,91.889 122.716,92.338 123.445,92.787 123.931,93.048 124.417,93.310 124.903,93.572 125.389,93.833 125.875,94.095 126.361,94.357 126.847,94.619 127.333,94.880 128.081,95.161 128.829,95.441 129.576,95.722 130.324,96.002 131.072,96.282 131.820,96.563 132.567,96.843 133.315,97.124 133.783,97.348 134.250,97.572 134.717,97.797 135.185,98.021 135.652,98.245 136.119,98.470 136.587,98.694 137.054,98.918 138.101,99.386 139.148,99.853 140.195,100.320 141.241,100.788 142.288,101.255 143.335,101.722 144.382,102.190 145.429,102.657 145.915,102.844 146.401,103.031 146.887,103.218 147.373,103.405 147.859,103.592 148.345,103.779 148.831,103.966 149.317,104.153 150.532,104.582 151.747,105.012 152.963,105.442 154.178,105.872 155.393,106.302 156.608,106.732 157.823,107.162 159.038,107.592 159.188,107.611 159.337,107.630 159.487,107.648 159.636,107.667 159.786,107.686 159.935,107.704 160.085,107.723 160.234,107.742 160.646,107.910 161.057,108.078 161.468,108.247 161.880,108.415 162.291,108.583 162.702,108.751 163.113,108.919 163.525,109.088 164.366,109.256 165.207,109.424 166.048,109.592 166.890,109.761 167.731,109.929 168.572,110.097 169.413,110.265 170.254,110.434 171.376,110.752 172.498,111.069 173.619,111.387 174.741,111.705 175.863,112.023 176.984,112.340 178.106,112.658 179.228,112.976 179.900,113.163 180.573,113.350 181.246,113.537 181.919,113.724 182.592,113.911 183.265,114.098 183.938,114.285 184.611,114.472 185.135,114.528 185.658,114.584 186.182,114.640 186.705,114.696 187.229,114.752 187.752,114.808 188.275,114.864 188.799,114.920 189.509,115.032 190.220,115.145 190.930,115.257 191.640,115.369 192.351,115.481 193.061,115.593 193.771,115.705 194.482,115.818 195.304,116.154 196.127,116.491 196.949,116.827 197.772,117.163 198.594,117.500 199.417,117.836 200.239,118.173 201.062,118.509 201.361,118.771 201.660,119.033 201.959,119.295 202.258,119.556 202.558,119.818 202.857,120.080 203.156,120.341 203.455,120.603 203.492,121.052 203.530,121.500 203.567,121.949 203.604,122.398 203.642,122.846 203.679,123.295 203.716,123.744 203.754,124.192 203.511,124.903 203.268,125.613 203.025,126.324 202.782,127.034 202.539,127.744 202.295,128.455 202.052,129.165 201.809,129.875 201.510,130.511 201.211,131.147 200.912,131.782 200.613,132.418 200.314,133.053 200.015,133.689 199.716,134.325 199.417,134.960 199.155,135.241 198.893,135.521 198.631,135.801 198.370,136.082 198.108,136.362 197.846,136.643 197.585,136.923 197.323,137.203 197.080,137.858 196.837,138.512 196.594,139.166 196.351,139.821 196.108,140.475 195.865,141.129 195.622,141.783 195.379,142.438 195.360,142.774 195.341,143.111 195.323,143.447 195.304,143.784 195.285,144.120 195.267,144.457 195.248,144.793 195.229,145.130 195.454,145.709 195.678,146.289 195.902,146.868 196.127,147.448 196.351,148.027 196.575,148.607 196.800,149.186 197.024,149.766 197.192,149.915 197.360,150.065 197.529,150.214 197.697,150.364 197.865,150.513 198.033,150.663 198.202,150.813 198.370,150.962 199.192,151.355 200.015,151.747 200.838,152.140 201.660,152.532 202.483,152.925 203.305,153.318 204.128,153.710 204.950,154.103 205.567,154.215 206.184,154.327 206.801,154.439 207.418,154.551 208.035,154.664 208.652,154.776 209.269,154.888 209.885,155.000 210.353,154.925 210.820,154.850 211.287,154.776 211.755,154.701 212.222,154.626 212.689,154.551 213.157,154.476 213.624,154.401 214.092,153.934 214.559,153.467 215.026,152.999 215.494,152.532 215.961,152.065 216.428,151.597 216.896,151.130 217.363,150.663 217.625,150.121 217.886,149.578 218.148,149.036 218.410,148.494 218.672,147.952 218.933,147.410 219.195,146.868 219.457,146.326 219.625,145.989 219.793,145.653 219.961,145.316 220.130,144.980 220.298,144.643 220.466,144.307 220.634,143.970 220.803,143.634 220.971,143.185 221.139,142.736 221.307,142.288 221.476,141.839 221.644,141.391 221.812,140.942 221.980,140.493 222.149,140.045 222.410,139.558 222.672,139.072 222.934,138.586 223.195,138.100 223.457,137.614 223.719,137.128 223.981,136.642 224.242,136.156 224.448,135.782 224.654,135.408 224.859,135.035 225.065,134.661 225.271,134.287 225.476,133.913 225.682,133.539 225.887,133.165 226.074,132.660 226.261,132.156 226.448,131.651 226.635,131.146 226.822,130.641 227.009,130.137 227.196,129.632 227.383,129.127 227.645,128.716 227.906,128.305 228.168,127.893 228.430,127.482 228.691,127.071 228.953,126.660 229.215,126.248 229.477,125.837 229.757,125.426 230.037,125.015 230.318,124.603 230.598,124.192 230.879,123.781 231.159,123.370 231.440,122.958 231.720,122.547 231.963,122.304 232.206,122.061 232.449,121.818 232.692,121.575 232.935,121.332 233.178,121.089 233.421,120.846 233.664,120.603 233.907,120.528 234.150,120.453 234.393,120.378 234.636,120.304 234.879,120.229 235.122,120.154 235.365,120.079 235.608,120.004 236.300,119.967 236.992,119.930 237.683,119.892 238.375,119.855 239.067,119.818 239.758,119.780 240.450,119.743 241.142,119.706 241.871,120.435 242.600,121.164 243.329,121.893 244.058,122.622 244.937,123.500 245.815,124.379 246.694,125.258 247.572,126.136 248.507,126.155 249.442,126.174 250.376,126.192 251.311,126.211 252.246,126.230 253.181,126.248 254.115,126.267 255.050,126.286 255.798,126.304 256.545,126.323 257.293,126.342 258.041,126.360 258.789,126.379 259.537,126.398 260.284,126.416 261.032,126.435 261.668,126.454 262.303,126.472 262.939,126.491 263.574,126.510 264.210,126.528 264.846,126.547 265.481,126.566 266.117,126.584 266.921,126.641 267.724,126.697 268.528,126.753 269.332,126.809 270.136,126.865 270.940,126.921 271.744,126.977 272.547,127.033 273.220,127.052 273.893,127.071 274.566,127.089 275.239,127.108 275.912,127.127 276.585,127.145 277.258,127.164 277.931,127.183 278.810,127.220 279.689,127.257 280.567,127.295 281.446,127.332 282.324,127.369 283.203,127.407 284.082,127.444 284.960,127.481 285.633,127.556 286.306,127.631 286.979,127.706 287.652,127.781 288.325,127.855 288.998,127.930 289.671,128.005 290.344,128.080 291.017,128.155 291.690,128.229 292.363,128.304 293.036,128.379 293.709,128.454 294.382,128.529 295.055,128.604 295.728,128.678 296.270,128.772 296.812,128.865 297.354,128.959 297.896,129.052 298.439,129.146 298.981,129.239 299.523,129.333 300.065,129.426 300.626,129.557 301.187,129.688 301.747,129.819 302.308,129.950 302.869,130.081 303.430,130.211 303.991,130.342 304.552,130.473 305.019,130.529 305.486,130.585 305.954,130.641 306.421,130.698 306.888,130.754 307.356,130.810 307.823,130.866 308.290,130.922 308.515,131.146 308.739,131.371 308.963,131.595 316.516,124.492" fill="none" stroke="black" stroke-width="1"/>
</svg>
