<?xml version="1.0" encoding="UTF-8"?>
<svg xmlns="http://www.w3.org/2000/svg" width="203.7" height="160.0" viewBox="0 0 203.7 160.0">
  <polyline points="198.727,120.544 198.710,120.164 198.692,119.783 198.675,119.403 198.658,119.022 198.640,118.642 198.623,118.261 198.606,117.881 198.589,117.500 198.554,117.033 198.519,116.566 198.485,116.099 198.450,115.632 198.416,115.165 198.381,114.698 198.346,114.231 198.312,113.764 197.897,113.349 197.481,112.934 197.066,112.519 196.651,112.103 196.634,111.567 196.617,111.031 196.599,110.495 196.582,109.959 196.565,109.422 196.548,108.886 196.530,108.350 196.513,107.814 196.565,107.174 196.617,106.534 196.669,105.894 196.721,105.254 196.772,104.614 196.824,103.974 196.876,103.334 196.928,102.694 196.894,102.227 196.859,101.760 196.824,101.293 196.790,100.826 196.755,100.359 196.720,99.892 196.686,99.425 196.651,98.958 196.669,98.542 196.686,98.127 196.703,97.712 196.720,97.297 196.738,96.882 196.755,96.467 196.772,96.052 196.790,95.637 196.167,95.619 195.544,95.602 194.921,95.585 194.299,95.567 193.676,95.550 193.053,95.533 192.431,95.516 191.808,95.498 191.341,95.481 190.874,95.464 190.407,95.447 189.940,95.429 189.473,95.412 189.006,95.395 188.539,95.377 188.072,95.360 187.363,95.325 186.653,95.291 185.944,95.256 185.235,95.222 184.526,95.187 183.817,95.152 183.108,95.118 182.398,95.083 181.880,94.564 181.361,94.045 180.842,93.526 180.323,93.008 179.631,92.921 178.939,92.835 178.247,92.748 177.555,92.662 176.863,92.575 176.171,92.489 175.480,92.402 174.788,92.316 174.027,92.281 173.266,92.246 172.505,92.212 171.743,92.177 170.982,92.143 170.221,92.108 169.460,92.073 168.699,92.039 167.921,91.935 167.142,91.831 166.364,91.727 165.586,91.624 164.807,91.520 164.029,91.416 163.251,91.312 162.472,91.208 161.573,91.122 160.673,91.035 159.774,90.949 158.874,90.862 157.975,90.776 157.076,90.690 156.176,90.603 155.277,90.517 154.585,90.413 153.893,90.309 153.201,90.205 152.509,90.101 151.817,89.998 151.125,89.894 150.433,89.790 149.742,89.686 148.410,89.410 147.078,89.133 145.746,88.856 144.414,88.579 143.082,88.303 141.750,88.026 140.418,87.749 139.087,87.472 138.239,87.299 137.392,87.126 136.544,86.953 135.696,86.780 134.849,86.607 134.001,86.434 133.154,86.261 132.306,86.089 131.234,85.743 130.161,85.397 129.089,85.051 128.017,84.705 126.944,84.359 125.872,84.013 124.799,83.667 123.727,83.321 123.052,83.148 122.378,82.975 121.703,82.802 121.029,82.629 120.354,82.456 119.679,82.283 119.005,82.110 118.330,81.937 117.829,81.799 117.327,81.660 116.825,81.522 116.324,81.384 115.822,81.245 115.320,81.107 114.819,80.969 114.317,80.830 113.556,80.571 112.795,80.311 112.034,80.052 111.273,79.792 110.512,79.533 109.751,79.273 108.990,79.014 108.229,78.755 107.571,78.461 106.914,78.166 106.257,77.872 105.600,77.578 104.942,77.284 104.285,76.990 103.628,76.696 102.970,76.402 102.555,76.212 102.140,76.022 101.725,75.831 101.310,75.641 100.895,75.451 100.480,75.261 100.065,75.070 99.649,74.880 99.027,74.551 98.404,74.223 97.781,73.894 97.159,73.565 96.536,73.237 95.913,72.908 95.291,72.580 94.668,72.251 94.339,72.061 94.011,71.870 93.682,71.680 93.353,71.490 93.025,71.300 92.696,71.109 92.367,70.919 92.039,70.729 91.624,70.487 91.208,70.244 90.793,70.002 90.378,69.760 89.963,69.518 89.548,69.276 89.133,69.034 88.718,68.791 88.233,68.480 87.749,68.169 87.265,67.857 86.780,67.546 86.296,67.235 85.812,66.923 85.327,66.612 84.843,66.301 84.653,66.128 84.463,65.955 84.272,65.782 84.082,65.609 83.892,65.436 83.701,65.263 83.511,65.090 83.321,64.917 82.854,64.485 82.387,64.052 81.920,63.620 81.453,63.187 80.986,62.755 80.519,62.322 80.052,61.890 79.585,61.458 79.100,61.112 78.616,60.766 78.132,60.420 77.648,60.074 77.163,59.728 76.679,59.382 76.195,59.036 75.710,58.690 75.382,58.379 75.053,58.067 74.724,57.756 74.396,57.445 74.067,57.133 73.738,56.822 73.410,56.511 73.081,56.199 72.683,55.905 72.285,55.611 71.888,55.317 71.490,55.023 71.092,54.729 70.694,54.435 70.296,54.141 69.898,53.847 69.553,53.518 69.207,53.190 68.861,52.861 68.515,52.532 68.169,52.204 67.823,51.875 67.477,51.546 67.131,51.218 66.716,50.699 66.301,50.180 65.886,49.661 65.470,49.142 65.055,48.623 64.640,48.104 64.225,47.585 63.810,47.066 63.464,46.496 63.118,45.925 62.772,45.354 62.426,44.783 62.080,44.212 61.734,43.642 61.388,43.071 61.042,42.500 60.904,42.292 60.766,42.085 60.627,41.877 60.489,41.670 60.350,41.462 60.212,41.255 60.074,41.047 59.935,40.839 59.780,40.597 59.624,40.355 59.468,40.113 59.313,39.871 59.157,39.629 59.001,39.387 58.846,39.144 58.690,38.902 58.534,38.574 58.379,38.245 58.223,37.916 58.067,37.588 57.912,37.259 57.756,36.930 57.600,36.602 57.445,36.273 57.341,36.048 57.237,35.823 57.133,35.598 57.029,35.374 56.926,35.149 56.822,34.924 56.718,34.699 56.614,34.474 56.372,34.145 56.130,33.817 55.888,33.488 55.646,33.160 55.404,32.831 55.161,32.502 54.919,32.174 54.677,31.845 54.608,31.620 54.539,31.395 54.470,31.170 54.400,30.946 54.331,30.721 54.262,30.496 54.193,30.271 54.124,30.046 53.951,29.596 53.778,29.147 53.605,28.697 53.432,28.247 53.259,27.797 53.086,27.348 52.913,26.898 52.740,26.448 52.671,26.033 52.601,25.618 52.532,25.203 52.463,24.788 52.394,24.373 52.325,23.958 52.255,23.542 52.186,23.127 52.134,22.643 52.083,22.159 52.031,21.674 51.979,21.190 51.927,20.706 51.875,20.221 51.823,19.737 51.771,19.253 51.719,18.838 51.667,18.422 51.616,18.007 51.564,17.592 51.512,17.177 51.460,16.762 51.408,16.347 51.356,15.932 51.304,15.603 51.252,15.274 51.200,14.946 51.148,14.617 51.097,14.288 51.045,13.960 50.993,13.631 50.941,13.303 50.872,12.905 50.803,12.507 50.733,12.109 50.664,11.711 50.595,11.313 50.526,10.916 50.457,10.518 50.387,10.120 50.024,9.705 49.661,9.290 49.298,8.875 48.934,8.459 48.571,8.044 48.208,7.629 47.845,7.214 47.482,6.799 47.309,6.609 47.136,6.418 46.963,6.228 46.790,6.038 46.617,5.848 46.444,5.657 46.271,5.467 46.098,5.277 45.804,5.242 45.510,5.208 45.216,5.173 44.922,5.138 44.628,5.104 44.333,5.069 44.039,5.035 43.745,5.000 43.590,5.259 43.434,5.519 43.278,5.778 43.123,6.038 42.967,6.297 42.811,6.557 42.656,6.816 42.500,7.076 42.431,7.214 42.362,7.352 42.292,7.491 42.223,7.629 42.154,7.768 42.085,7.906 42.016,8.044 41.946,8.183 41.739,8.459 41.531,8.736 41.324,9.013 41.116,9.290 40.909,9.566 40.701,9.843 40.494,10.120 40.286,10.397 40.078,10.570 39.871,10.743 39.663,10.916 39.456,11.089 39.248,11.262 39.041,11.434 38.833,11.607 38.625,11.780 38.418,11.867 38.210,11.953 38.003,12.040 37.795,12.126 37.588,12.213 37.380,12.299 37.172,12.386 36.965,12.472 36.636,12.524 36.308,12.576 35.979,12.628 35.650,12.680 35.322,12.732 34.993,12.784 34.664,12.836 34.336,12.887 33.973,12.922 33.609,12.957 33.246,12.991 32.883,13.026 32.520,13.060 32.156,13.095 31.793,13.130 31.430,13.164 31.119,13.233 30.807,13.303 30.496,13.372 30.184,13.441 29.873,13.510 29.562,13.579 29.250,13.648 28.939,13.718 28.213,13.994 27.486,14.271 26.760,14.548 26.033,14.825 25.307,15.101 24.580,15.378 23.854,15.655 23.127,15.932 22.799,16.035 22.470,16.139 22.141,16.243 21.813,16.347 21.484,16.451 21.155,16.554 20.827,16.658 20.498,16.762 19.962,16.970 19.426,17.177 18.890,17.385 18.353,17.592 17.817,17.800 17.281,18.007 16.745,18.215 16.208,18.422 15.811,18.578 15.413,18.734 15.015,18.889 14.617,19.045 14.219,19.201 13.821,19.357 13.424,19.512 13.026,19.668 12.559,19.910 12.092,20.152 11.625,20.394 11.158,20.636 10.691,20.879 10.224,21.121 9.757,21.363 9.290,21.605 8.926,21.865 8.563,22.124 8.200,22.383 7.837,22.643 7.473,22.902 7.110,23.162 6.747,23.421 6.384,23.681 6.245,23.940 6.107,24.200 5.969,24.459 5.830,24.719 5.692,24.978 5.554,25.238 5.415,25.497 5.277,25.756 5.242,25.964 5.208,26.172 5.173,26.379 5.138,26.587 5.104,26.794 5.069,27.002 5.035,27.209 5.000,27.417 5.017,27.780 5.035,28.143 5.052,28.507 5.069,28.870 5.086,29.233 5.104,29.596 5.121,29.960 5.138,30.323 5.277,30.444 5.415,30.565 5.554,30.686 5.692,30.807 5.830,30.928 5.969,31.049 6.107,31.170 6.245,31.291 6.522,31.516 6.799,31.741 7.076,31.966 7.352,32.191 7.629,32.416 7.906,32.641 8.183,32.866 8.459,33.090 8.736,33.229 9.013,33.367 9.290,33.505 9.566,33.644 9.843,33.782 10.120,33.921 10.397,34.059 10.673,34.197 10.933,34.353 11.192,34.509 11.452,34.664 11.711,34.820 11.971,34.976 12.230,35.131 12.490,35.287 12.749,35.443 12.922,35.460 13.095,35.477 13.268,35.495 13.441,35.512 13.614,35.529 13.787,35.547 13.960,35.564 14.133,35.581 14.600,35.443 15.067,35.304 15.534,35.166 16.001,35.028 16.468,34.889 16.935,34.751 17.402,34.613 17.869,34.474 18.198,34.249 18.526,34.024 18.855,33.800 19.184,33.575 19.512,33.350 19.841,33.125 20.170,32.900 20.498,32.675 20.861,32.433 21.225,32.191 21.588,31.949 21.951,31.707 22.314,31.464 22.678,31.222 23.041,30.980 23.404,30.738 23.629,30.600 23.854,30.461 24.079,30.323 24.304,30.184 24.528,30.046 24.753,29.908 24.978,29.769 25.203,29.631 25.480,29.441 25.756,29.250 26.033,29.060 26.310,28.870 26.587,28.680 26.863,28.489 27.140,28.299 27.417,28.109 27.815,27.901 28.213,27.694 28.610,27.486 29.008,27.279 29.406,27.071 29.804,26.863 30.202,26.656 30.600,26.448 30.824,26.379 31.049,26.310 31.274,26.241 31.499,26.172 31.724,26.102 31.949,26.033 32.174,25.964 32.399,25.895 32.710,25.878 33.021,25.860 33.333,25.843 33.644,25.826 33.955,25.808 34.267,25.791 34.578,25.774 34.889,25.756 35.062,25.929 35.235,26.102 35.408,26.275 35.581,26.448 36.031,26.621 36.481,26.794 36.930,26.967 37.380,27.140 37.830,27.313 38.280,27.486 38.729,27.659 39.179,27.832 39.663,28.213 40.148,28.593 40.632,28.974 41.116,29.354 41.601,29.735 42.085,30.115 42.569,30.496 43.054,30.876 43.313,31.326 43.572,31.776 43.832,32.226 44.091,32.675 44.351,33.125 44.610,33.575 44.870,34.024 45.129,34.474 45.285,34.768 45.440,35.062 45.596,35.356 45.752,35.650 45.908,35.944 46.063,36.238 46.219,36.532 46.375,36.827 46.599,37.276 46.824,37.726 47.049,38.176 47.274,38.625 47.499,39.075 47.724,39.525 47.949,39.975 48.173,40.424 48.398,40.753 48.623,41.082 48.848,41.410 49.073,41.739 49.298,42.068 49.523,42.396 49.747,42.725 49.972,43.053 50.163,43.365 50.353,43.676 50.543,43.988 50.733,44.299 50.924,44.610 51.114,44.922 51.304,45.233 51.494,45.544 51.737,45.907 51.979,46.271 52.221,46.634 52.463,46.997 52.705,47.360 52.947,47.724 53.190,48.087 53.432,48.450 53.708,48.813 53.985,49.177 54.262,49.540 54.539,49.903 54.815,50.266 55.092,50.630 55.369,50.993 55.646,51.356 55.957,51.806 56.268,52.255 56.580,52.705 56.891,53.155 57.202,53.605 57.514,54.054 57.825,54.504 58.137,54.954 58.379,55.352 58.621,55.749 58.863,56.147 59.105,56.545 59.347,56.943 59.589,57.341 59.832,57.739 60.074,58.136 60.454,58.638 60.835,59.140 61.215,59.641 61.596,60.143 61.976,60.645 62.357,61.146 62.738,61.648 63.118,62.149 63.343,62.409 63.568,62.668 63.793,62.928 64.018,63.187 64.242,63.447 64.467,63.706 64.692,63.966 64.917,64.225 65.228,64.606 65.540,64.986 65.851,65.367 66.162,65.747 66.474,66.128 66.785,66.508 67.096,66.889 67.408,67.269 67.615,67.598 67.823,67.927 68.030,68.255 68.238,68.584 68.446,68.913 68.653,69.241 68.861,69.570 69.068,69.898 69.777,70.625 70.487,71.351 71.196,72.078 71.905,72.804 72.614,73.531 73.323,74.257 74.033,74.984 74.742,75.710 75.070,76.056 75.399,76.402 75.728,76.748 76.056,77.094 76.385,77.440 76.714,77.786 77.042,78.132 77.371,78.478 77.717,78.841 78.063,79.204 78.409,79.568 78.755,79.931 79.101,80.294 79.446,80.657 79.792,81.020 80.138,81.384 80.502,81.695 80.865,82.006 81.228,82.318 81.591,82.629 81.955,82.940 82.318,83.252 82.681,83.563 83.044,83.874 83.425,84.220 83.805,84.566 84.186,84.912 84.566,85.258 84.947,85.604 85.327,85.950 85.708,86.296 86.089,86.642 86.538,87.023 86.988,87.403 87.438,87.784 87.887,88.164 88.337,88.545 88.787,88.925 89.237,89.306 89.686,89.686 90.084,89.998 90.482,90.309 90.880,90.620 91.278,90.932 91.675,91.243 92.073,91.554 92.471,91.866 92.869,92.177 93.198,92.402 93.526,92.627 93.855,92.852 94.184,93.077 94.512,93.301 94.841,93.526 95.169,93.751 95.498,93.976 95.844,94.235 96.190,94.495 96.536,94.754 96.882,95.014 97.228,95.273 97.574,95.533 97.920,95.792 98.266,96.052 98.767,96.363 99.269,96.674 99.771,96.986 100.272,97.297 100.774,97.608 101.275,97.920 101.777,98.231 102.279,98.542 102.607,98.715 102.936,98.888 103.265,99.061 103.593,99.234 103.922,99.407 104.250,99.580 104.579,99.753 104.908,99.926 105.202,100.047 105.496,100.168 105.790,100.289 106.084,100.410 106.378,100.532 106.672,100.653 106.966,100.774 107.260,100.895 107.658,101.189 108.056,101.483 108.454,101.777 108.851,102.071 109.249,102.365 109.647,102.659 110.045,102.953 110.443,103.247 110.858,103.507 111.273,103.766 111.688,104.026 112.103,104.285 112.518,104.544 112.934,104.804 113.349,105.063 113.764,105.323 114.231,105.565 114.698,105.807 115.165,106.049 115.632,106.291 116.099,106.534 116.566,106.776 117.033,107.018 117.500,107.260 117.984,107.433 118.469,107.606 118.953,107.779 119.437,107.952 119.922,108.125 120.406,108.298 120.890,108.471 121.375,108.644 122.015,108.869 122.654,109.094 123.294,109.318 123.934,109.543 124.574,109.768 125.214,109.993 125.854,110.218 126.494,110.443 126.996,110.564 127.498,110.685 127.999,110.806 128.501,110.927 129.003,111.048 129.504,111.169 130.006,111.290 130.507,111.411 130.922,111.498 131.338,111.584 131.753,111.671 132.168,111.757 132.583,111.844 132.998,111.930 133.413,112.017 133.828,112.103 134.555,112.294 135.281,112.484 136.008,112.674 136.734,112.864 137.461,113.055 138.187,113.245 138.914,113.435 139.640,113.625 139.917,113.746 140.194,113.868 140.470,113.989 140.747,114.110 141.024,114.231 141.301,114.352 141.577,114.473 141.854,114.594 142.062,114.905 142.269,115.217 142.477,115.528 142.684,115.839 142.892,116.151 143.100,116.462 143.307,116.773 143.515,117.085 143.601,117.362 143.688,117.638 143.774,117.915 143.861,118.192 143.947,118.469 144.034,118.745 144.120,119.022 144.207,119.299 144.103,119.887 143.999,120.475 143.895,121.063 143.791,121.651 143.688,122.239 143.584,122.827 143.480,123.416 143.376,124.004 143.307,124.350 143.238,124.696 143.169,125.041 143.100,125.387 143.030,125.733 142.961,126.079 142.892,126.425 142.823,126.771 142.719,127.013 142.615,127.255 142.511,127.498 142.408,127.740 142.304,127.982 142.200,128.224 142.096,128.466 141.993,128.708 141.837,129.124 141.681,129.539 141.526,129.954 141.370,130.369 141.214,130.784 141.059,131.199 140.903,131.614 140.747,132.029 140.643,132.306 140.540,132.583 140.436,132.860 140.332,133.136 140.228,133.413 140.125,133.690 140.021,133.967 139.917,134.243 139.744,134.641 139.571,135.039 139.398,135.437 139.225,135.835 139.052,136.233 138.879,136.630 138.706,137.028 138.533,137.426 138.360,137.928 138.187,138.429 138.014,138.931 137.841,139.433 137.668,139.934 137.495,140.436 137.322,140.937 137.149,141.439 137.098,141.785 137.046,142.131 136.994,142.477 136.942,142.823 136.890,143.169 136.838,143.515 136.786,143.861 136.734,144.207 136.648,144.622 136.561,145.037 136.475,145.452 136.388,145.867 136.302,146.282 136.215,146.697 136.129,147.112 136.042,147.528 136.112,147.804 136.181,148.081 136.250,148.358 136.319,148.635 136.388,148.911 136.457,149.188 136.527,149.465 136.596,149.742 136.717,150.209 136.838,150.676 136.959,151.143 137.080,151.610 137.201,152.077 137.322,152.544 137.443,153.011 137.564,153.478 137.841,153.616 138.118,153.755 138.395,153.893 138.671,154.031 138.948,154.170 139.225,154.308 139.502,154.446 139.778,154.585 140.073,154.637 140.367,154.689 140.661,154.740 140.955,154.792 141.249,154.844 141.543,154.896 141.837,154.948 142.131,155.000 142.442,154.983 142.754,154.965 143.065,154.948 143.376,154.931 143.688,154.914 143.999,154.896 144.310,154.879 144.622,154.862 144.898,154.810 145.175,154.758 145.452,154.706 145.729,154.654 146.005,154.602 146.282,154.550 146.559,154.498 146.836,154.447 147.026,154.308 147.216,154.170 147.406,154.031 147.597,153.893 147.787,153.755 147.977,153.616 148.168,153.478 148.358,153.340 148.462,153.011 148.565,152.682 148.669,152.354 148.773,152.025 148.877,151.696 148.981,151.368 149.084,151.039 149.188,150.710 149.430,150.243 149.672,149.776 149.915,149.309 150.157,148.842 150.399,148.375 150.641,147.908 150.883,147.441 151.125,146.974 151.246,146.646 151.367,146.317 151.489,145.988 151.610,145.660 151.731,145.331 151.852,145.002 151.973,144.674 152.094,144.345 152.232,143.999 152.371,143.653 152.509,143.307 152.647,142.961 152.786,142.615 152.924,142.269 153.063,141.923 153.201,141.578 153.357,141.232 153.512,140.886 153.668,140.540 153.824,140.194 153.979,139.848 154.135,139.502 154.291,139.156 154.446,138.810 154.602,138.429 154.758,138.049 154.913,137.668 155.069,137.288 155.225,136.907 155.380,136.527 155.536,136.146 155.692,135.766 155.813,135.402 155.934,135.039 156.055,134.676 156.176,134.313 156.297,133.950 156.418,133.586 156.539,133.223 156.660,132.860 156.799,132.479 156.937,132.099 157.076,131.718 157.214,131.338 157.352,130.957 157.491,130.577 157.629,130.196 157.767,129.816 157.940,129.400 158.113,128.985 158.286,128.570 158.459,128.155 158.632,127.740 158.805,127.325 158.978,126.910 159.151,126.495 159.290,126.287 159.428,126.079 159.566,125.872 159.705,125.664 159.843,125.457 159.981,125.249 160.120,125.042 160.258,124.834 160.500,124.609 160.742,124.384 160.985,124.159 161.227,123.935 161.469,123.710 161.711,123.485 161.953,123.260 162.195,123.035 162.524,122.879 162.853,122.724 163.181,122.568 163.510,122.412 163.839,122.257 164.167,122.101 164.496,121.945 164.825,121.790 165.516,121.686 166.208,121.582 166.900,121.478 167.592,121.375 168.284,121.271 168.976,121.167 169.668,121.063 170.360,120.959 170.636,120.942 170.913,120.925 171.190,120.908 171.467,120.890 171.743,120.873 172.020,120.856 172.297,120.839 172.574,120.821 172.954,120.856 173.335,120.890 173.715,120.925 174.096,120.960 174.476,120.994 174.857,121.029 175.237,121.064 175.618,121.098 175.981,121.461 176.344,121.825 176.708,122.188 177.071,122.551 177.676,122.534 178.282,122.517 178.887,122.499 179.492,122.482 180.098,122.465 180.703,122.447 181.309,122.430 181.914,122.413 182.398,122.897 182.883,123.381 183.367,123.866 183.851,124.350 184.266,124.333 184.682,124.316 185.097,124.298 185.512,124.281 185.927,124.264 186.342,124.246 186.757,124.229 187.172,124.212 187.553,124.592 187.933,124.973 188.314,125.353 188.694,125.734 189.006,125.717 189.317,125.699 189.629,125.682 189.940,125.665 190.251,125.648 190.563,125.630 190.874,125.613 191.185,125.596 191.479,125.613 191.773,125.630 192.067,125.648 192.361,125.665 192.656,125.682 192.950,125.699 193.244,125.717 198.727,120.544" fill="none" stroke="black" stroke-width="1"/>
</svg>
