<?xml version="1.0" encoding="UTF-8"?>
<svg xmlns="http://www.w3.org/2000/svg" width="284.4" height="160.0" viewBox="0 0 284.4 160.0">
  <polyline points="205.359,116.438 205.359,116.438 205.359,116.438 205.359,116.438 205.359,116.438 206.117,116.320 206.876,116.202 207.634,116.084 208.393,115.966 209.151,115.848 209.909,115.730 210.668,115.612 211.426,115.494 212.657,115.283 213.887,115.073 215.117,114.862 216.348,114.651 217.578,114.441 218.808,114.230 220.039,114.019 221.269,113.809 222.255,113.632 223.241,113.455 224.227,113.278 225.213,113.101 226.199,112.924 227.185,112.747 228.171,112.570 229.157,112.393 230.336,112.258 231.516,112.123 232.696,111.988 233.876,111.854 235.055,111.719 236.235,111.584 237.415,111.449 238.595,111.314 240.010,111.112 241.426,110.910 242.842,110.707 244.258,110.505 245.673,110.303 247.089,110.101 248.505,109.899 249.920,109.696 251.058,109.570 252.196,109.443 253.333,109.317 254.471,109.191 255.609,109.064 256.746,108.938 257.884,108.811 259.022,108.685 259.864,108.626 260.707,108.567 261.550,108.508 262.392,108.449 263.235,108.390 264.078,108.331 264.920,108.272 265.763,108.213 266.328,108.264 266.892,108.315 267.457,108.365 268.022,108.416 268.586,108.466 269.151,108.517 269.715,108.567 270.280,108.618 270.971,108.879 271.662,109.140 272.353,109.401 273.044,109.663 273.735,109.924 274.426,110.185 275.117,110.446 275.808,110.708 276.111,110.758 276.415,110.809 276.718,110.859 277.022,110.910 277.325,110.960 277.628,111.011 277.932,111.061 278.235,111.112 278.370,111.129 278.505,111.146 278.639,111.162 278.774,111.179 278.909,111.196 279.044,111.213 279.179,111.230 279.314,111.247 279.322,110.572 279.331,109.898 279.340,109.224 279.348,108.550 279.357,107.876 279.365,107.202 279.374,106.527 279.383,105.853 278.683,105.154 277.984,104.454 277.284,103.755 276.585,103.056 275.919,102.390 275.253,101.724 274.588,101.058 273.922,100.393 273.897,99.794 273.871,99.196 273.846,98.598 273.821,97.999 273.795,97.401 273.770,96.803 273.745,96.204 273.719,95.606 273.728,95.210 273.737,94.814 273.745,94.418 273.754,94.022 273.762,93.626 273.771,93.230 273.780,92.834 273.788,92.438 273.089,92.387 272.389,92.336 271.690,92.286 270.991,92.235 270.291,92.185 269.592,92.134 268.892,92.084 268.193,92.033 267.047,92.067 265.901,92.101 264.755,92.134 263.609,92.168 262.463,92.202 261.316,92.235 260.170,92.269 259.024,92.303 257.996,92.269 256.968,92.235 255.940,92.202 254.912,92.168 253.884,92.134 252.856,92.101 251.828,92.067 250.800,92.033 249.746,92.025 248.693,92.016 247.640,92.008 246.586,91.999 245.533,91.991 244.479,91.983 243.426,91.974 242.373,91.966 240.847,91.991 239.322,92.016 237.797,92.042 236.272,92.067 234.746,92.092 233.221,92.118 231.696,92.143 230.171,92.168 229.311,92.151 228.451,92.134 227.592,92.118 226.732,92.101 225.873,92.084 225.013,92.067 224.154,92.050 223.294,92.033 222.114,92.059 220.935,92.084 219.755,92.109 218.575,92.134 217.395,92.160 216.215,92.185 215.036,92.210 213.856,92.236 213.089,92.261 212.322,92.286 211.555,92.311 210.789,92.337 210.022,92.362 209.255,92.387 208.488,92.413 207.721,92.438 206.600,92.446 205.480,92.455 204.359,92.463 203.238,92.471 202.117,92.480 200.996,92.488 199.876,92.497 198.755,92.505 198.334,92.564 197.912,92.623 197.491,92.682 197.069,92.741 196.648,92.800 196.227,92.859 195.805,92.918 195.384,92.977 193.800,93.087 192.216,93.196 190.631,93.306 189.047,93.415 187.463,93.525 185.879,93.634 184.294,93.744 182.710,93.853 182.314,93.896 181.918,93.938 181.522,93.980 181.126,94.022 180.730,94.064 180.334,94.106 179.938,94.148 179.541,94.190 178.480,94.199 177.418,94.207 176.356,94.216 175.294,94.224 174.233,94.233 173.171,94.241 172.109,94.249 171.047,94.258 170.474,94.275 169.901,94.291 169.328,94.308 168.755,94.325 168.182,94.342 167.609,94.359 167.036,94.376 166.463,94.393 165.527,94.418 164.592,94.443 163.657,94.468 162.721,94.494 161.786,94.519 160.851,94.544 159.915,94.570 158.980,94.595 158.019,94.603 157.058,94.612 156.098,94.620 155.137,94.628 154.176,94.637 153.216,94.645 152.255,94.654 151.294,94.662 150.469,93.836 149.643,93.010 148.817,92.185 147.991,91.359 147.148,91.283 146.306,91.207 145.463,91.131 144.620,91.055 143.778,90.980 142.935,90.904 142.092,90.828 141.249,90.752 140.466,90.676 139.682,90.600 138.898,90.524 138.115,90.449 137.331,90.373 136.547,90.297 135.764,90.221 134.980,90.145 133.876,89.977 132.772,89.808 131.668,89.640 130.564,89.471 129.460,89.303 128.356,89.134 127.252,88.966 126.148,88.797 125.618,88.671 125.087,88.544 124.556,88.418 124.025,88.291 123.494,88.165 122.963,88.039 122.432,87.912 121.901,87.786 121.143,87.642 120.384,87.499 119.626,87.356 118.868,87.213 118.109,87.069 117.351,86.926 116.592,86.783 115.834,86.640 114.983,86.446 114.132,86.252 113.280,86.058 112.429,85.864 111.578,85.671 110.727,85.477 109.876,85.283 109.025,85.089 108.435,84.954 107.845,84.819 107.255,84.685 106.665,84.550 106.075,84.415 105.486,84.280 104.896,84.145 104.306,84.010 103.345,83.749 102.384,83.488 101.424,83.227 100.463,82.966 101.657,80.547 100.696,80.286 99.736,80.025 98.775,79.764 98.109,79.477 97.443,79.191 96.778,78.904 96.112,78.618 95.446,78.331 94.780,78.045 94.115,77.758 93.449,77.472 92.817,77.210 92.185,76.949 91.553,76.688 90.921,76.427 90.289,76.165 89.657,75.904 89.025,75.643 88.393,75.382 87.668,75.003 86.943,74.623 86.219,74.244 85.494,73.865 84.769,73.486 84.045,73.106 83.320,72.727 82.595,72.348 81.980,71.969 81.365,71.590 80.750,71.210 80.134,70.831 79.519,70.452 78.904,70.073 78.289,69.694 77.674,69.314 77.278,69.028 76.882,68.741 76.486,68.455 76.090,68.168 75.694,67.882 75.297,67.595 74.901,67.309 74.505,67.022 74.059,66.677 73.612,66.331 73.165,65.986 72.719,65.640 72.272,65.295 71.826,64.949 71.379,64.604 70.932,64.258 70.519,63.946 70.107,63.635 69.694,63.323 69.281,63.011 68.868,62.699 68.455,62.387 68.042,62.076 67.629,61.764 67.073,61.342 66.517,60.921 65.960,60.500 65.404,60.078 64.848,59.657 64.292,59.236 63.736,58.814 63.180,58.393 62.952,58.022 62.725,57.651 62.497,57.281 62.269,56.910 62.042,56.539 61.814,56.168 61.587,55.798 61.359,55.427 61.039,54.963 60.719,54.500 60.399,54.036 60.078,53.573 59.758,53.109 59.438,52.646 59.118,52.182 58.798,51.719 58.511,51.272 58.225,50.826 57.938,50.379 57.651,49.932 57.365,49.486 57.078,49.039 56.792,48.593 56.505,48.146 56.101,47.607 55.696,47.067 55.292,46.528 54.887,45.989 54.483,45.449 54.078,44.910 53.674,44.371 53.269,43.831 52.781,43.123 52.292,42.416 51.803,41.708 51.314,41.000 50.826,40.292 50.337,39.584 49.848,38.876 49.359,38.168 48.896,37.511 48.432,36.854 47.969,36.197 47.505,35.539 47.042,34.882 46.578,34.225 46.115,33.567 45.652,32.910 45.239,32.227 44.826,31.545 44.413,30.862 44.000,30.180 43.587,29.497 43.174,28.815 42.761,28.132 42.348,27.449 41.986,26.826 41.623,26.202 41.261,25.579 40.899,24.955 40.536,24.331 40.174,23.708 39.812,23.084 39.449,22.461 39.146,22.090 38.843,21.719 38.539,21.348 38.236,20.977 37.932,20.607 37.629,20.236 37.326,19.865 37.022,19.494 36.466,18.879 35.910,18.264 35.354,17.649 34.798,17.034 34.241,16.418 33.685,15.803 33.129,15.188 32.573,14.573 32.093,14.059 31.612,13.545 31.132,13.031 30.652,12.517 30.171,12.003 29.691,11.489 29.211,10.975 28.730,10.461 28.343,10.216 27.955,9.972 27.567,9.728 27.180,9.483 26.792,9.239 26.404,8.994 26.017,8.750 25.629,8.506 25.191,8.219 24.753,7.933 24.315,7.646 23.876,7.360 23.438,7.073 23.000,6.787 22.562,6.500 22.124,6.213 21.525,6.079 20.927,5.944 20.329,5.809 19.730,5.674 19.132,5.539 18.534,5.404 17.935,5.270 17.337,5.135 16.916,5.118 16.494,5.101 16.073,5.084 15.652,5.067 15.230,5.051 14.809,5.034 14.388,5.017 13.966,5.000 13.494,5.076 13.022,5.152 12.551,5.228 12.079,5.303 11.607,5.379 11.135,5.455 10.663,5.531 10.191,5.607 9.845,5.851 9.500,6.096 9.154,6.340 8.809,6.584 8.463,6.829 8.118,7.073 7.772,7.317 7.427,7.562 7.208,7.958 6.989,8.354 6.770,8.750 6.551,9.146 6.331,9.542 6.112,9.938 5.893,10.334 5.674,10.730 5.590,11.076 5.506,11.421 5.421,11.767 5.337,12.112 5.253,12.458 5.169,12.803 5.084,13.149 5.000,13.494 5.059,13.874 5.118,14.253 5.177,14.632 5.236,15.011 5.295,15.390 5.354,15.770 5.413,16.149 5.472,16.528 5.733,16.815 5.994,17.101 6.256,17.388 6.517,17.674 6.778,17.961 7.039,18.247 7.301,18.534 7.562,18.820 7.806,18.980 8.051,19.140 8.295,19.301 8.539,19.461 8.784,19.621 9.028,19.781 9.272,19.941 9.517,20.101 9.862,20.160 10.208,20.219 10.553,20.278 10.899,20.337 11.244,20.396 11.590,20.455 11.935,20.514 12.281,20.573 12.635,20.607 12.989,20.640 13.343,20.674 13.697,20.708 14.051,20.742 14.404,20.775 14.758,20.809 15.112,20.843 15.357,21.121 15.601,21.399 15.845,21.677 16.090,21.955 16.334,22.233 16.579,22.511 16.823,22.789 17.067,23.067 17.270,23.489 17.472,23.910 17.674,24.331 17.876,24.753 18.079,25.174 18.281,25.595 18.483,26.017 18.685,26.438 18.845,26.800 19.006,27.163 19.166,27.525 19.326,27.888 19.486,28.250 19.646,28.612 19.806,28.975 19.966,29.337 20.303,29.969 20.640,30.601 20.977,31.233 21.315,31.865 21.652,32.497 21.989,33.129 22.326,33.761 22.663,34.393 22.991,34.966 23.320,35.539 23.649,36.112 23.977,36.685 24.306,37.258 24.635,37.831 24.963,38.404 25.292,38.977 25.646,39.559 26.000,40.140 26.354,40.722 26.708,41.303 27.062,41.885 27.416,42.466 27.770,43.048 28.123,43.629 28.385,44.126 28.646,44.623 28.907,45.121 29.168,45.618 29.430,46.115 29.691,46.612 29.952,47.109 30.213,47.607 30.652,48.247 31.090,48.888 31.528,49.528 31.966,50.168 32.404,50.809 32.843,51.449 33.281,52.090 33.719,52.730 34.098,53.413 34.477,54.095 34.857,54.778 35.236,55.461 35.615,56.143 35.994,56.826 36.373,57.508 36.753,58.191 37.098,58.713 37.444,59.236 37.789,59.758 38.135,60.281 38.480,60.803 38.826,61.326 39.171,61.848 39.517,62.371 39.795,62.817 40.073,63.264 40.351,63.710 40.629,64.157 40.907,64.604 41.185,65.050 41.463,65.497 41.741,65.944 42.154,66.517 42.567,67.090 42.980,67.663 43.393,68.236 43.806,68.809 44.219,69.382 44.632,69.955 45.045,70.528 45.306,70.924 45.567,71.320 45.828,71.716 46.090,72.112 46.351,72.508 46.612,72.904 46.873,73.300 47.135,73.696 47.404,74.168 47.674,74.640 47.944,75.112 48.213,75.584 48.483,76.056 48.753,76.528 49.022,77.000 49.292,77.472 49.570,77.817 49.848,78.163 50.126,78.508 50.404,78.854 50.682,79.199 50.960,79.545 51.239,79.890 51.517,80.236 51.854,80.649 52.191,81.062 52.528,81.474 52.865,81.887 53.202,82.300 53.539,82.713 53.876,83.126 54.213,83.539 54.567,83.960 54.921,84.382 55.275,84.803 55.629,85.224 55.983,85.646 56.337,86.067 56.691,86.488 57.045,86.910 57.407,87.289 57.769,87.668 58.132,88.047 58.494,88.427 58.857,88.806 59.219,89.185 59.581,89.564 59.944,89.944 60.239,90.230 60.534,90.517 60.828,90.803 61.123,91.090 61.418,91.376 61.713,91.663 62.008,91.949 62.303,92.236 62.581,92.463 62.859,92.691 63.137,92.918 63.416,93.146 63.694,93.373 63.972,93.601 64.250,93.828 64.528,94.056 64.857,94.224 65.185,94.393 65.514,94.561 65.842,94.730 66.171,94.899 66.500,95.067 66.828,95.236 67.157,95.404 67.503,95.531 67.848,95.657 68.194,95.783 68.539,95.910 68.885,96.036 69.230,96.163 69.576,96.289 69.921,96.415 70.292,96.533 70.663,96.651 71.033,96.769 71.404,96.887 71.775,97.005 72.146,97.123 72.517,97.241 72.887,97.359 73.477,97.536 74.067,97.713 74.657,97.890 75.247,98.067 75.837,98.244 76.427,98.421 77.017,98.598 77.606,98.775 78.062,98.868 78.517,98.960 78.972,99.053 79.427,99.146 79.882,99.238 80.337,99.331 80.792,99.424 81.247,99.517 81.845,99.710 82.444,99.904 83.042,100.098 83.640,100.292 84.238,100.486 84.837,100.679 85.435,100.873 86.033,101.067 86.514,101.185 86.994,101.303 87.474,101.421 87.955,101.539 88.435,101.657 88.915,101.775 89.396,101.893 89.876,102.011 90.205,102.061 90.533,102.112 90.862,102.163 91.191,102.213 91.519,102.264 91.848,102.314 92.177,102.365 92.505,102.415 93.104,102.575 93.702,102.736 94.300,102.896 94.899,103.056 95.497,103.216 96.095,103.376 96.693,103.536 97.292,103.696 97.915,103.840 98.539,103.983 99.163,104.126 99.786,104.269 100.410,104.413 101.033,104.556 101.657,104.699 102.281,104.842 102.634,104.893 102.988,104.943 103.342,104.994 103.696,105.044 104.050,105.095 104.404,105.146 104.758,105.196 105.112,105.247 105.567,105.390 106.022,105.533 106.477,105.676 106.932,105.820 107.387,105.963 107.842,106.106 108.297,106.249 108.752,106.393 109.241,106.544 109.730,106.696 110.219,106.848 110.707,106.999 111.196,107.151 111.685,107.303 112.174,107.455 112.663,107.606 113.261,107.749 113.859,107.893 114.457,108.036 115.056,108.179 115.654,108.323 116.252,108.466 116.851,108.609 117.449,108.752 118.157,108.921 118.865,109.089 119.573,109.258 120.280,109.426 120.988,109.595 121.696,109.764 122.404,109.932 123.112,110.101 123.702,110.235 124.292,110.370 124.882,110.505 125.471,110.640 126.061,110.775 126.651,110.910 127.241,111.044 127.831,111.179 128.438,111.331 129.045,111.483 129.651,111.634 130.258,111.786 130.865,111.938 131.471,112.089 132.078,112.241 132.685,112.393 133.081,112.511 133.477,112.629 133.873,112.747 134.269,112.865 134.665,112.983 135.061,113.101 135.457,113.219 135.853,113.337 136.292,113.446 136.730,113.556 137.168,113.665 137.606,113.775 138.044,113.884 138.483,113.994 138.921,114.103 139.359,114.213 139.612,114.280 139.865,114.348 140.117,114.415 140.370,114.483 140.623,114.550 140.876,114.618 141.129,114.685 141.382,114.753 141.778,114.828 142.174,114.904 142.570,114.980 142.966,115.056 143.362,115.132 143.758,115.208 144.154,115.284 144.550,115.360 144.980,115.469 145.410,115.579 145.839,115.688 146.269,115.798 146.699,115.907 147.129,116.017 147.558,116.126 147.988,116.236 148.367,116.379 148.747,116.522 149.126,116.666 149.505,116.809 149.884,116.952 150.264,117.095 150.643,117.239 151.022,117.382 151.519,117.525 152.016,117.669 152.514,117.812 153.011,117.955 153.508,118.098 154.005,118.242 154.502,118.385 154.999,118.528 155.690,118.553 156.381,118.579 157.072,118.604 157.764,118.629 158.455,118.655 159.146,118.680 159.837,118.705 160.528,118.730 160.898,118.848 161.269,118.966 161.640,119.084 162.011,119.202 162.381,119.320 162.752,119.438 163.123,119.556 163.494,119.674 163.570,120.045 163.646,120.416 163.721,120.787 163.797,121.157 163.873,121.528 163.949,121.899 164.025,122.270 164.101,122.641 163.932,122.851 163.764,123.062 163.595,123.273 163.427,123.483 163.258,123.694 163.090,123.905 162.921,124.115 162.752,124.326 162.508,124.663 162.264,125.000 162.019,125.337 161.775,125.674 161.531,126.011 161.286,126.348 161.042,126.685 160.797,127.023 160.646,127.318 160.494,127.612 160.342,127.907 160.191,128.202 160.039,128.497 159.887,128.792 159.736,129.087 159.584,129.382 159.314,129.744 159.045,130.107 158.775,130.469 158.505,130.832 158.236,131.194 157.966,131.556 157.696,131.919 157.427,132.281 157.174,132.643 156.921,133.006 156.668,133.368 156.415,133.730 156.163,134.093 155.910,134.455 155.657,134.817 155.404,135.180 155.295,135.500 155.185,135.820 155.076,136.141 154.966,136.461 154.856,136.781 154.747,137.101 154.637,137.421 154.528,137.742 154.410,138.332 154.292,138.921 154.174,139.511 154.056,140.101 153.938,140.691 153.820,141.281 153.702,141.871 153.584,142.461 153.626,142.857 153.668,143.253 153.710,143.649 153.753,144.045 153.795,144.441 153.837,144.837 153.879,145.233 153.921,145.629 154.022,146.000 154.123,146.371 154.224,146.742 154.325,147.112 154.427,147.483 154.528,147.854 154.629,148.225 154.730,148.596 154.999,148.857 155.269,149.118 155.539,149.379 155.808,149.640 156.078,149.902 156.348,150.163 156.617,150.424 156.887,150.685 157.300,150.862 157.713,151.039 158.126,151.216 158.539,151.393 158.952,151.570 159.365,151.747 159.778,151.924 160.190,152.101 160.915,152.826 161.640,153.551 162.365,154.275 163.089,155.000 163.587,154.865 164.084,154.730 164.581,154.596 165.078,154.461 165.575,154.326 166.072,154.191 166.570,154.056 167.067,153.921 167.648,153.424 168.230,152.927 168.811,152.430 169.393,151.933 169.974,151.435 170.556,150.938 171.137,150.441 171.719,149.944 172.148,149.522 172.578,149.101 173.008,148.680 173.438,148.258 173.867,147.837 174.297,147.416 174.727,146.994 175.157,146.573 175.679,146.034 176.202,145.494 176.724,144.955 177.247,144.416 177.769,143.876 178.292,143.337 178.814,142.798 179.336,142.258 179.758,141.761 180.179,141.264 180.600,140.767 181.022,140.270 181.443,139.773 181.865,139.275 182.286,138.778 182.707,138.281 183.103,137.927 183.499,137.573 183.895,137.219 184.292,136.865 184.688,136.511 185.084,136.157 185.480,135.803 185.876,135.450 186.365,134.935 186.853,134.421 187.342,133.907 187.831,133.393 188.320,132.879 188.808,132.365 189.297,131.851 189.786,131.337 190.232,130.958 190.679,130.579 191.126,130.200 191.572,129.820 192.019,129.441 192.466,129.062 192.912,128.683 193.359,128.303 193.654,127.983 193.949,127.663 194.244,127.343 194.539,127.023 194.834,126.702 195.129,126.382 195.423,126.062 195.718,125.742 195.988,125.455 196.258,125.169 196.527,124.882 196.797,124.596 197.067,124.309 197.336,124.023 197.606,123.736 197.876,123.450 198.145,123.171 198.415,122.893 198.685,122.615 198.954,122.337 199.224,122.059 199.494,121.781 199.763,121.503 200.033,121.225 200.336,120.989 200.640,120.753 200.943,120.517 201.246,120.281 201.550,120.045 201.853,119.809 202.157,119.573 205.359,116.438" fill="none" stroke="black" stroke-width="1"/>
</svg>
