<?xml version="1.0" encoding="UTF-8"?>
<svg xmlns="http://www.w3.org/2000/svg" width="209.8" height="160.0" viewBox="0 0 209.8 160.0">
  <polyline points="83.604,36.838 83.507,36.741 83.411,36.645 83.315,36.549 83.219,36.453 83.214,36.370 83.209,36.287 83.205,36.205 83.200,36.122 83.196,36.040 83.191,35.957 83.186,35.875 83.182,35.792 83.191,35.691 83.200,35.591 83.209,35.490 83.219,35.389 83.228,35.288 83.237,35.187 83.246,35.086 83.255,34.985 83.264,34.894 83.274,34.802 83.283,34.710 83.292,34.619 83.301,34.527 83.310,34.435 83.320,34.343 83.329,34.252 83.315,34.137 83.301,34.022 83.287,33.908 83.274,33.793 83.260,33.679 83.246,33.564 83.232,33.449 83.219,33.335 113.846,63.889 144.326,94.296 174.660,124.556 204.847,154.670 204.737,154.684 204.627,154.697 204.517,154.711 204.407,154.725 204.297,154.739 204.187,154.752 204.077,154.766 203.967,154.780 203.756,154.803 203.545,154.826 203.334,154.849 203.123,154.872 202.912,154.895 202.702,154.917 202.491,154.940 202.280,154.963 202.106,154.968 201.931,154.972 201.757,154.977 201.583,154.982 201.409,154.986 201.234,154.991 201.060,154.995 200.886,155.000 200.725,154.995 200.565,154.991 200.405,154.986 200.244,154.982 200.084,154.977 199.923,154.972 199.763,154.968 199.602,154.963 199.359,154.959 199.116,154.954 198.873,154.950 198.630,154.945 198.387,154.940 198.144,154.936 197.901,154.931 197.658,154.927 197.479,154.913 197.301,154.899 197.122,154.885 196.943,154.872 196.764,154.858 196.585,154.844 196.406,154.830 196.228,154.817 196.040,154.798 195.852,154.780 195.664,154.762 195.476,154.743 195.288,154.725 195.100,154.707 194.912,154.688 194.724,154.670 194.545,154.665 194.366,154.661 194.187,154.656 194.009,154.652 193.830,154.647 193.651,154.642 193.472,154.638 193.293,154.633 193.069,154.610 192.844,154.587 192.619,154.564 192.395,154.542 192.170,154.519 191.945,154.496 191.721,154.473 191.496,154.450 191.294,154.436 191.093,154.422 190.891,154.409 190.689,154.395 190.487,154.381 190.286,154.367 190.084,154.354 189.882,154.340 189.712,154.317 189.543,154.294 189.373,154.271 189.204,154.248 189.034,154.225 188.864,154.202 188.695,154.179 188.525,154.156 188.360,154.138 188.195,154.120 188.030,154.101 187.865,154.083 187.700,154.065 187.535,154.046 187.370,154.028 187.205,154.010 186.952,153.982 186.700,153.955 186.448,153.927 186.196,153.900 185.944,153.872 185.692,153.845 185.439,153.817 185.187,153.790 184.995,153.758 184.802,153.725 184.609,153.693 184.417,153.661 184.224,153.629 184.032,153.597 183.839,153.565 183.647,153.533 183.399,153.487 183.151,153.441 182.904,153.395 182.656,153.349 182.409,153.304 182.161,153.258 181.914,153.212 181.666,153.166 181.492,153.134 181.318,153.102 181.143,153.070 180.969,153.038 180.795,153.006 180.621,152.974 180.446,152.941 180.272,152.909 180.084,152.873 179.896,152.836 179.708,152.799 179.520,152.763 179.332,152.726 179.144,152.689 178.956,152.653 178.768,152.616 178.622,152.584 178.475,152.552 178.328,152.520 178.181,152.488 178.035,152.455 177.888,152.423 177.741,152.391 177.595,152.359 177.374,152.313 177.154,152.267 176.934,152.222 176.714,152.176 176.494,152.130 176.274,152.084 176.054,152.038 175.834,151.992 175.673,151.956 175.513,151.919 175.353,151.882 175.192,151.846 175.032,151.809 174.871,151.772 174.711,151.736 174.550,151.699 174.119,151.566 173.688,151.433 173.257,151.300 172.826,151.167 172.395,151.034 171.964,150.901 171.533,150.768 171.102,150.635 171.029,150.612 170.956,150.589 170.882,150.566 170.809,150.544 170.736,150.521 170.662,150.498 170.589,150.475 170.515,150.452 170.327,150.397 170.139,150.342 169.952,150.287 169.764,150.232 169.576,150.177 169.388,150.122 169.200,150.067 169.012,150.012 168.888,149.980 168.764,149.947 168.640,149.915 168.516,149.883 168.393,149.851 168.269,149.819 168.145,149.787 168.021,149.755 167.797,149.691 167.572,149.627 167.347,149.562 167.123,149.498 166.898,149.434 166.673,149.370 166.449,149.306 44.980,26.934 44.912,26.911 44.843,26.888 44.774,26.865 44.705,26.843 44.637,26.820 44.568,26.797 44.499,26.774 44.430,26.751 44.302,26.714 44.173,26.677 44.045,26.641 43.917,26.604 43.788,26.567 43.660,26.531 43.532,26.494 43.403,26.457 43.261,26.402 43.119,26.347 42.977,26.292 42.835,26.237 42.693,26.182 42.550,26.127 42.408,26.072 42.266,26.017 42.202,25.994 42.138,25.971 42.074,25.948 42.009,25.926 41.945,25.903 41.881,25.880 41.817,25.857 41.753,25.834 41.583,25.756 41.413,25.678 41.244,25.600 41.074,25.522 40.904,25.444 40.735,25.366 40.565,25.288 40.396,25.210 40.212,25.160 40.029,25.109 39.845,25.059 39.662,25.009 39.479,24.958 39.295,24.908 39.112,24.857 38.928,24.807 38.727,24.720 38.525,24.633 38.323,24.546 38.121,24.458 37.920,24.371 37.718,24.284 37.516,24.197 37.314,24.110 37.168,24.055 37.021,24.000 36.874,23.945 36.728,23.890 36.581,23.835 36.434,23.780 36.287,23.725 36.141,23.670 36.003,23.592 35.866,23.514 35.728,23.436 35.591,23.358 35.453,23.280 35.315,23.202 35.178,23.124 35.040,23.046 34.875,22.950 34.710,22.854 34.545,22.757 34.380,22.661 34.215,22.565 34.050,22.469 33.885,22.372 33.720,22.276 33.486,22.166 33.252,22.056 33.018,21.946 32.785,21.836 32.551,21.726 32.317,21.616 32.083,21.506 31.849,21.396 31.753,21.318 31.657,21.240 31.560,21.162 31.464,21.084 31.368,21.006 31.272,20.928 31.175,20.850 31.079,20.772 31.029,20.735 30.978,20.699 30.928,20.662 30.877,20.625 30.827,20.589 30.776,20.552 30.726,20.515 30.676,20.479 30.630,20.447 30.584,20.414 30.538,20.382 30.492,20.350 30.446,20.318 30.400,20.286 30.355,20.254 30.309,20.222 30.277,20.199 30.245,20.176 30.212,20.153 30.180,20.130 30.148,20.107 30.116,20.084 30.084,20.061 30.052,20.039 29.947,19.956 29.841,19.873 29.736,19.791 29.630,19.708 29.525,19.626 29.419,19.543 29.314,19.461 29.208,19.378 29.094,19.305 28.979,19.232 28.864,19.158 28.750,19.085 28.635,19.012 28.521,18.938 28.406,18.865 28.291,18.791 28.145,18.704 27.998,18.617 27.851,18.530 27.704,18.443 27.558,18.356 27.411,18.269 27.264,18.182 27.118,18.095 26.998,18.003 26.879,17.911 26.760,17.819 26.641,17.728 26.522,17.636 26.402,17.544 26.283,17.453 26.164,17.361 26.054,17.265 25.944,17.168 25.834,17.072 25.724,16.976 25.614,16.880 25.504,16.783 25.394,16.687 25.284,16.591 25.187,16.476 25.091,16.361 24.995,16.247 24.899,16.132 24.802,16.018 24.706,15.903 24.610,15.788 24.513,15.674 24.417,15.564 24.321,15.454 24.225,15.344 24.128,15.234 24.032,15.123 23.936,15.013 23.839,14.903 23.743,14.793 23.615,14.642 23.486,14.491 23.358,14.339 23.230,14.188 23.101,14.037 22.973,13.886 22.844,13.734 22.716,13.583 22.684,13.542 22.652,13.500 22.620,13.459 22.588,13.418 22.556,13.377 22.524,13.335 22.491,13.294 22.459,13.253 22.363,13.138 22.267,13.024 22.171,12.909 22.074,12.794 21.978,12.680 21.882,12.565 21.785,12.450 21.689,12.336 21.611,12.221 21.533,12.107 21.455,11.992 21.377,11.877 21.299,11.763 21.221,11.648 21.143,11.534 21.066,11.419 20.983,11.300 20.900,11.180 20.818,11.061 20.735,10.942 20.653,10.823 20.570,10.704 20.488,10.584 20.405,10.465 20.332,10.332 20.259,10.199 20.185,10.066 20.112,9.933 20.039,9.800 19.965,9.667 19.892,9.534 19.818,9.402 19.745,9.282 19.672,9.163 19.598,9.044 19.525,8.925 19.452,8.805 19.378,8.686 19.305,8.567 19.232,8.448 19.167,8.374 19.103,8.301 19.039,8.228 18.975,8.154 18.911,8.081 18.846,8.008 18.782,7.934 18.718,7.861 18.668,7.824 18.617,7.788 18.567,7.751 18.516,7.714 18.466,7.678 18.415,7.641 18.365,7.604 18.315,7.568 18.108,7.471 17.902,7.375 17.696,7.279 17.489,7.182 17.283,7.086 17.077,6.990 16.870,6.894 16.664,6.797 16.595,6.765 16.526,6.733 16.458,6.701 16.389,6.669 16.320,6.637 16.251,6.605 16.183,6.573 16.114,6.541 15.990,6.481 15.866,6.421 15.742,6.362 15.619,6.302 15.495,6.243 15.371,6.183 15.247,6.123 15.123,6.064 15.013,6.013 14.903,5.963 14.793,5.912 14.683,5.862 14.573,5.812 14.463,5.761 14.353,5.711 14.243,5.660 14.161,5.633 14.078,5.605 13.996,5.578 13.913,5.550 13.831,5.523 13.748,5.495 13.665,5.468 13.583,5.440 13.404,5.390 13.225,5.339 13.047,5.289 12.868,5.238 12.689,5.188 12.510,5.138 12.331,5.087 12.152,5.037 11.992,5.032 11.832,5.028 11.671,5.023 11.511,5.018 11.350,5.014 11.190,5.009 11.029,5.005 10.869,5.000 10.768,5.009 10.667,5.018 10.566,5.028 10.465,5.037 10.364,5.046 10.263,5.055 10.163,5.064 10.062,5.073 9.892,5.087 9.722,5.101 9.553,5.115 9.383,5.128 9.214,5.142 9.044,5.156 8.874,5.170 8.705,5.183 8.590,5.206 8.475,5.229 8.361,5.252 8.246,5.275 8.131,5.298 8.017,5.321 7.902,5.344 7.788,5.367 7.687,5.394 7.586,5.422 7.485,5.449 7.384,5.477 7.283,5.504 7.182,5.532 7.082,5.559 6.981,5.587 6.912,5.605 6.843,5.624 6.774,5.642 6.706,5.660 6.637,5.679 6.568,5.697 6.499,5.715 6.430,5.734 6.343,5.757 6.256,5.779 6.169,5.802 6.082,5.825 5.995,5.848 5.908,5.871 5.821,5.894 5.734,5.917 5.688,5.954 5.642,5.990 5.596,6.027 5.550,6.064 5.504,6.100 5.458,6.137 5.413,6.174 5.367,6.210 5.321,6.357 5.275,6.504 5.229,6.651 5.183,6.797 5.138,6.944 5.092,7.091 5.046,7.237 5.000,7.384 5.014,7.444 5.028,7.503 5.041,7.563 5.055,7.623 5.069,7.682 5.083,7.742 5.096,7.801 5.110,7.861 5.174,7.930 5.238,7.999 5.303,8.067 5.367,8.136 5.431,8.205 5.495,8.274 5.559,8.342 5.624,8.411 5.665,8.425 5.706,8.439 5.747,8.452 5.789,8.466 5.830,8.480 5.871,8.494 5.912,8.507 5.954,8.521 6.201,8.530 6.449,8.540 6.696,8.549 6.944,8.558 7.192,8.567 7.439,8.576 7.687,8.585 7.934,8.595 7.989,8.650 8.044,8.705 8.099,8.760 8.154,8.815 8.269,8.929 8.384,9.044 8.498,9.159 8.613,9.273 8.746,9.406 8.879,9.539 9.012,9.672 9.145,9.805 9.282,9.943 9.420,10.080 9.557,10.218 9.695,10.355 9.828,10.364 9.961,10.374 10.094,10.383 10.227,10.392 10.360,10.401 10.493,10.410 10.626,10.419 10.759,10.429 10.887,10.451 11.015,10.474 11.144,10.497 11.272,10.520 11.401,10.543 11.529,10.566 11.657,10.589 11.786,10.612 11.900,10.644 12.015,10.676 12.130,10.708 12.244,10.740 12.359,10.772 12.473,10.804 12.588,10.837 12.703,10.869 12.904,10.947 13.106,11.025 13.308,11.102 13.510,11.180 13.711,11.258 13.913,11.336 14.115,11.414 14.317,11.492 14.362,11.529 14.408,11.566 14.454,11.602 14.500,11.639 14.546,11.676 14.592,11.712 14.637,11.749 16.444,10.025 16.568,10.144 16.692,10.263 16.815,10.383 16.939,10.502 17.063,10.621 17.187,10.740 17.310,10.860 17.434,10.979 17.489,11.066 17.544,11.153 17.599,11.240 17.654,11.327 17.709,11.414 17.764,11.501 17.819,11.589 17.874,11.676 17.920,11.767 17.966,11.859 18.012,11.951 18.058,12.042 18.104,12.134 18.150,12.226 18.195,12.318 18.241,12.409 18.296,12.524 18.351,12.638 18.406,12.753 18.461,12.868 18.516,12.982 18.571,13.097 18.626,13.212 18.681,13.326 18.741,13.418 18.801,13.510 18.860,13.601 18.920,13.693 18.979,13.785 19.039,13.876 19.099,13.968 19.158,14.060 19.213,14.147 19.268,14.234 19.323,14.321 19.378,14.408 19.433,14.495 19.488,14.582 19.543,14.670 19.598,14.757 19.681,14.876 19.763,14.995 19.846,15.114 19.928,15.234 20.011,15.353 20.094,15.472 20.176,15.591 20.259,15.710 20.277,15.729 20.295,15.747 20.314,15.765 20.332,15.784 20.350,15.802 20.369,15.820 20.387,15.839 20.405,15.857 20.506,15.981 20.607,16.105 20.708,16.228 20.809,16.352 20.910,16.476 21.011,16.600 21.111,16.724 21.212,16.847 21.267,16.898 21.322,16.948 21.377,16.999 21.432,17.049 21.487,17.100 21.542,17.150 21.597,17.200 21.652,17.251 21.689,17.278 21.726,17.306 21.762,17.333 21.799,17.361 21.836,17.388 21.872,17.416 21.909,17.443 21.946,17.471 22.033,17.563 22.120,17.654 22.207,17.746 22.294,17.838 22.381,17.929 22.469,18.021 22.556,18.113 22.643,18.205 22.702,18.264 22.762,18.324 22.822,18.383 22.881,18.443 22.941,18.503 23.000,18.562 23.060,18.622 23.120,18.681 23.202,18.773 23.285,18.865 23.367,18.956 23.450,19.048 23.532,19.140 23.615,19.232 23.697,19.323 23.780,19.415 23.839,19.470 23.899,19.525 23.959,19.580 24.018,19.635 24.078,19.690 24.137,19.745 24.197,19.800 24.257,19.855 24.353,19.956 24.449,20.057 24.545,20.158 24.642,20.259 24.738,20.359 24.834,20.460 24.931,20.561 25.027,20.662 25.100,20.722 25.174,20.781 25.247,20.841 25.320,20.900 25.394,20.960 25.467,21.020 25.540,21.079 25.614,21.139 25.683,21.199 25.751,21.258 25.820,21.318 25.889,21.377 25.958,21.437 26.026,21.497 26.095,21.556 26.164,21.616 26.256,21.707 26.347,21.799 26.439,21.891 26.531,21.983 26.622,22.074 26.714,22.166 26.806,22.258 26.898,22.349 26.998,22.423 27.099,22.496 27.200,22.569 27.301,22.643 27.402,22.716 27.503,22.789 27.604,22.863 27.704,22.936 27.778,22.991 27.851,23.046 27.925,23.101 27.998,23.156 28.071,23.211 28.145,23.266 28.218,23.321 28.291,23.376 28.360,23.418 28.429,23.459 28.498,23.500 28.566,23.541 28.635,23.583 28.704,23.624 28.773,23.665 28.842,23.706 28.933,23.752 29.025,23.798 29.117,23.844 29.208,23.890 29.300,23.936 29.392,23.982 29.483,24.027 29.575,24.073 29.662,24.119 29.749,24.165 29.836,24.211 29.924,24.257 30.011,24.302 30.098,24.348 30.185,24.394 30.272,24.440 30.391,24.532 30.510,24.623 30.630,24.715 30.749,24.807 30.868,24.899 30.987,24.990 31.106,25.082 31.226,25.174 31.340,25.233 31.455,25.293 31.570,25.352 31.684,25.412 31.799,25.472 31.913,25.531 32.028,25.591 32.143,25.650 32.202,25.692 32.262,25.733 32.321,25.774 32.381,25.816 32.441,25.857 32.500,25.898 32.560,25.939 32.620,25.981 32.702,26.045 32.785,26.109 32.867,26.173 32.950,26.237 33.032,26.302 33.115,26.366 33.197,26.430 33.280,26.494 33.399,26.572 33.518,26.650 33.637,26.728 33.757,26.806 33.876,26.884 33.995,26.962 34.114,27.040 34.233,27.118 34.325,27.173 34.417,27.228 34.509,27.283 34.600,27.338 34.692,27.393 34.784,27.448 34.875,27.503 34.967,27.558 35.017,27.585 35.068,27.613 35.118,27.640 35.169,27.668 35.219,27.695 35.270,27.723 35.320,27.750 35.370,27.778 35.481,27.856 35.591,27.934 35.701,28.012 35.811,28.090 35.921,28.168 36.031,28.246 36.141,28.323 36.251,28.401 36.388,28.466 36.526,28.530 36.663,28.594 36.801,28.658 36.939,28.722 37.076,28.787 37.214,28.851 37.351,28.915 37.475,28.984 37.599,29.052 37.723,29.121 37.846,29.190 37.970,29.259 38.094,29.328 38.218,29.396 38.341,29.465 38.383,29.483 38.424,29.502 38.465,29.520 38.507,29.538 38.548,29.557 38.589,29.575 38.630,29.593 38.672,29.612 38.823,29.685 38.974,29.759 39.126,29.832 39.277,29.905 39.428,29.979 39.579,30.052 39.731,30.125 39.882,30.199 40.033,30.258 40.185,30.318 40.336,30.378 40.487,30.437 40.639,30.497 40.790,30.556 40.941,30.616 41.092,30.676 41.198,30.708 41.303,30.740 41.409,30.772 41.514,30.804 41.620,30.836 41.725,30.868 41.831,30.900 41.936,30.932 42.032,30.983 42.129,31.033 42.225,31.084 42.321,31.134 42.417,31.184 42.514,31.235 42.610,31.285 42.706,31.336 42.830,31.386 42.954,31.437 43.078,31.487 43.201,31.537 43.325,31.588 43.449,31.638 43.573,31.689 43.697,31.739 43.756,31.767 43.816,31.794 43.875,31.822 43.935,31.849 43.995,31.877 44.054,31.904 44.114,31.932 44.173,31.959 44.284,32.010 44.394,32.060 44.504,32.111 44.614,32.161 44.724,32.211 44.834,32.262 44.944,32.312 45.054,32.363 45.155,32.418 45.256,32.473 45.356,32.528 45.457,32.583 45.558,32.638 45.659,32.693 45.760,32.748 45.861,32.803 45.966,32.844 46.072,32.885 46.177,32.927 46.283,32.968 46.388,33.009 46.493,33.051 46.599,33.092 46.704,33.133 46.746,33.151 46.787,33.170 46.828,33.188 46.869,33.206 46.911,33.225 46.952,33.243 46.993,33.261 47.034,33.280 47.112,33.303 47.190,33.326 47.268,33.349 47.346,33.371 47.424,33.394 47.502,33.417 47.580,33.440 47.658,33.463 47.754,33.509 47.851,33.555 47.947,33.601 48.043,33.647 48.139,33.692 48.236,33.738 48.332,33.784 48.428,33.830 48.561,33.885 48.694,33.940 48.827,33.995 48.960,34.050 49.093,34.105 49.226,34.160 49.359,34.215 49.492,34.270 49.588,34.316 49.685,34.362 49.781,34.408 49.877,34.453 49.973,34.499 50.070,34.545 50.166,34.591 50.262,34.637 50.331,34.674 50.400,34.710 50.469,34.747 50.537,34.784 50.606,34.820 50.675,34.857 50.744,34.894 50.812,34.930 50.927,34.976 51.042,35.022 51.156,35.068 51.271,35.114 51.386,35.160 51.500,35.205 51.615,35.251 51.729,35.297 51.807,35.338 51.885,35.380 51.963,35.421 52.041,35.462 52.119,35.503 52.197,35.545 52.275,35.586 52.353,35.627 52.426,35.664 52.500,35.701 52.573,35.737 52.646,35.774 52.720,35.811 52.793,35.847 52.866,35.884 52.940,35.921 53.050,36.017 53.160,36.113 53.270,36.209 53.380,36.306 53.490,36.402 53.600,36.498 53.710,36.595 53.820,36.691 53.843,36.810 53.866,36.929 53.889,37.049 53.912,37.168 53.935,37.287 53.958,37.406 53.981,37.525 54.004,37.645 53.953,37.741 53.903,37.837 53.852,37.933 53.802,38.030 53.751,38.126 53.701,38.222 53.651,38.319 53.600,38.415 53.568,38.525 53.536,38.635 53.504,38.745 53.472,38.855 53.440,38.965 53.408,39.075 53.376,39.185 53.343,39.295 53.330,39.373 53.316,39.451 53.302,39.529 53.288,39.607 53.275,39.685 53.261,39.763 53.247,39.841 53.233,39.919 53.238,40.042 53.243,40.166 53.247,40.290 53.252,40.414 53.256,40.538 53.261,40.661 53.266,40.785 53.270,40.909 53.316,40.987 53.362,41.065 53.408,41.143 53.454,41.221 53.499,41.299 53.545,41.377 53.591,41.455 53.637,41.533 53.738,41.656 53.839,41.780 53.940,41.904 54.041,42.028 54.141,42.152 54.242,42.275 54.343,42.399 54.444,42.523 54.504,42.555 54.563,42.587 54.623,42.619 54.682,42.651 54.742,42.683 54.802,42.715 54.861,42.748 54.921,42.780 54.980,42.812 55.040,42.844 55.100,42.876 55.159,42.908 55.219,42.940 55.278,42.972 55.338,43.004 55.398,43.036 55.576,43.105 55.755,43.174 55.934,43.243 56.113,43.311 56.292,43.380 56.471,43.449 56.649,43.518 56.828,43.586 57.057,43.605 57.287,43.623 57.516,43.642 57.745,43.660 57.974,43.678 58.204,43.697 58.433,43.715 58.662,43.733 58.781,43.729 58.901,43.724 59.020,43.719 59.139,43.715 59.258,43.710 59.377,43.706 59.497,43.701 59.616,43.696 59.671,43.641 59.726,43.586 59.781,43.531 59.836,43.476 59.891,43.421 59.946,43.366 60.001,43.311 60.056,43.256 60.102,43.178 60.148,43.100 60.193,43.022 60.239,42.945 60.285,42.867 60.331,42.789 60.377,42.711 60.423,42.633 60.491,42.532 60.560,42.431 60.629,42.330 60.698,42.229 60.767,42.128 60.835,42.028 60.904,41.927 60.973,41.826 61.023,41.780 61.074,41.734 61.124,41.688 61.175,41.642 61.225,41.597 61.276,41.551 61.326,41.505 61.376,41.459 61.454,41.331 61.532,41.202 61.610,41.074 61.688,40.946 61.766,40.817 61.844,40.689 61.922,40.560 62.000,40.432 62.041,40.372 62.082,40.313 62.124,40.253 62.165,40.194 62.206,40.134 62.248,40.074 62.289,40.015 62.330,39.955 62.394,39.900 62.458,39.845 62.523,39.790 62.587,39.735 62.651,39.680 62.715,39.625 62.779,39.570 62.844,39.515 62.954,39.419 63.064,39.322 63.174,39.226 63.284,39.130 63.394,39.034 63.504,38.937 63.614,38.841 63.724,38.745 63.802,38.681 63.880,38.616 63.958,38.552 64.036,38.488 64.114,38.424 64.192,38.360 64.269,38.295 64.347,38.231 64.435,38.176 64.522,38.121 64.609,38.066 64.696,38.011 64.783,37.956 64.870,37.901 64.957,37.846 65.044,37.791 65.104,37.773 65.164,37.754 65.223,37.736 65.283,37.718 65.342,37.699 65.402,37.681 65.462,37.663 65.521,37.644 65.659,37.608 65.796,37.571 65.934,37.534 66.071,37.498 66.209,37.461 66.346,37.424 66.484,37.388 66.622,37.351 66.690,37.346 66.759,37.342 66.828,37.337 66.897,37.333 66.965,37.328 67.034,37.323 67.103,37.319 67.172,37.314 67.282,37.424 67.392,37.534 67.502,37.644 67.612,37.754 67.731,37.750 67.850,37.745 67.969,37.741 68.089,37.736 68.208,37.731 68.327,37.727 68.446,37.722 68.566,37.718 68.698,37.708 68.831,37.699 68.964,37.690 69.097,37.681 69.230,37.672 69.363,37.663 69.496,37.653 69.629,37.644 69.771,37.658 69.913,37.672 70.056,37.686 70.198,37.699 70.340,37.713 70.482,37.727 70.624,37.740 70.766,37.754 70.996,37.750 71.225,37.745 71.454,37.740 71.683,37.736 71.913,37.731 72.142,37.727 72.371,37.722 72.600,37.717 72.825,37.713 73.050,37.708 73.274,37.704 73.499,37.699 73.724,37.695 73.948,37.690 74.173,37.685 74.398,37.681 74.508,37.685 74.618,37.690 74.728,37.695 74.838,37.699 74.948,37.704 75.058,37.708 75.168,37.713 75.278,37.717 75.411,37.850 75.544,37.983 75.677,38.116 75.810,38.249 75.929,38.245 76.048,38.240 76.167,38.236 76.287,38.231 76.406,38.226 76.525,38.222 76.644,38.217 76.763,38.213 76.988,38.208 77.213,38.203 77.437,38.199 77.662,38.194 77.887,38.190 78.111,38.185 78.336,38.180 78.561,38.176 78.666,38.167 78.772,38.157 78.877,38.148 78.982,38.139 79.088,38.130 79.193,38.121 79.299,38.112 79.404,38.102 79.578,38.070 79.753,38.038 79.927,38.006 80.101,37.974 80.275,37.942 80.450,37.910 80.624,37.878 80.798,37.846 80.881,37.841 80.963,37.837 81.046,37.832 81.128,37.827 81.211,37.823 81.293,37.818 81.376,37.814 81.458,37.809 81.555,37.800 81.651,37.791 81.747,37.782 81.843,37.772 81.940,37.763 82.036,37.754 82.132,37.745 82.229,37.736 82.279,37.745 82.329,37.754 82.380,37.763 82.430,37.772 82.481,37.782 82.531,37.791 82.582,37.800 83.604,36.838" fill="none" stroke="black" stroke-width="1"/>
</svg>
