<?xml version="1.0" encoding="UTF-8"?>
<svg xmlns="http://www.w3.org/2000/svg" width="178.1" height="160.0" viewBox="0 0 178.1 160.0">
  <polyline points="50.680,36.470 50.765,36.475 50.851,36.480 50.936,36.484 51.021,36.489 51.106,36.494 51.192,36.499 51.277,36.503 51.362,36.508 51.485,36.499 51.609,36.489 51.732,36.480 51.855,36.470 51.978,36.461 52.101,36.451 52.224,36.442 52.347,36.432 52.419,36.437 52.490,36.442 52.561,36.447 52.632,36.451 52.703,36.456 52.774,36.461 52.845,36.466 52.916,36.470 52.954,36.432 52.992,36.394 53.030,36.357 53.067,36.319 53.105,36.281 53.143,36.243 53.181,36.205 53.219,36.167 53.214,36.077 53.210,35.987 53.205,35.897 53.200,35.807 53.195,35.717 53.191,35.627 53.186,35.537 53.181,35.447 83.410,65.591 113.469,95.565 143.357,125.368 173.075,155.000 173.080,154.943 173.084,154.886 173.089,154.829 173.094,154.773 173.099,154.716 173.103,154.659 173.108,154.602 173.113,154.545 173.075,154.436 173.037,154.327 172.999,154.218 172.961,154.110 172.923,154.001 172.886,153.892 172.848,153.783 172.810,153.674 172.644,153.688 172.478,153.702 172.312,153.716 172.147,153.731 171.981,153.745 171.815,153.759 171.649,153.773 171.484,153.787 171.299,153.603 171.114,153.418 170.929,153.233 170.745,153.049 170.555,152.859 170.366,152.670 170.176,152.480 169.987,152.291 169.807,152.111 169.627,151.931 169.447,151.751 169.267,151.571 169.077,151.552 168.888,151.533 168.698,151.514 168.509,151.495 168.319,151.476 168.130,151.457 167.940,151.438 167.751,151.419 167.557,151.400 167.363,151.381 167.168,151.362 166.974,151.343 166.780,151.324 166.586,151.305 166.392,151.286 166.197,151.268 165.998,151.239 165.800,151.211 165.601,151.182 165.402,151.154 165.203,151.125 165.004,151.097 164.805,151.069 164.606,151.040 164.450,151.012 164.293,150.983 164.137,150.955 163.981,150.927 163.824,150.898 163.668,150.870 163.512,150.841 163.355,150.813 163.213,150.775 40.961,32.719 40.818,32.681 40.676,32.643 40.534,32.605 40.392,32.567 40.250,32.529 40.108,32.491 39.885,32.439 39.663,32.387 39.440,32.335 39.218,32.283 38.995,32.231 38.772,32.179 38.550,32.127 38.327,32.075 38.190,32.032 38.052,31.989 37.915,31.947 37.778,31.904 37.640,31.861 37.503,31.819 37.365,31.776 37.228,31.734 37.129,31.696 37.029,31.658 36.930,31.620 36.830,31.582 36.731,31.544 36.631,31.506 36.532,31.468 36.432,31.430 36.319,31.393 36.205,31.355 36.091,31.317 35.978,31.279 35.864,31.241 35.750,31.203 35.637,31.165 35.523,31.127 35.357,31.042 35.191,30.957 35.026,30.872 34.860,30.786 34.694,30.701 34.528,30.616 34.362,30.531 34.197,30.445 34.102,30.388 34.007,30.332 33.912,30.275 33.818,30.218 33.723,30.161 33.628,30.104 33.534,30.047 33.439,29.991 33.273,29.891 33.107,29.792 32.941,29.692 32.776,29.593 32.610,29.493 32.444,29.394 32.278,29.294 32.113,29.195 31.999,29.114 31.885,29.034 31.772,28.953 31.658,28.873 31.544,28.792 31.430,28.712 31.317,28.631 31.203,28.551 31.118,28.465 31.033,28.380 30.947,28.295 30.862,28.210 30.777,28.124 30.692,28.039 30.606,27.954 30.521,27.869 30.431,27.774 30.341,27.679 30.251,27.584 30.161,27.490 30.071,27.395 29.981,27.300 29.891,27.205 29.801,27.111 29.668,26.959 29.536,26.808 29.403,26.656 29.271,26.504 29.138,26.353 29.005,26.201 28.873,26.050 28.740,25.898 28.693,25.808 28.645,25.718 28.598,25.628 28.551,25.538 28.503,25.448 28.456,25.358 28.408,25.268 28.361,25.178 28.266,25.041 28.172,24.903 28.077,24.766 27.982,24.629 27.887,24.491 27.793,24.354 27.698,24.217 27.603,24.079 27.532,23.928 27.461,23.776 27.390,23.624 27.319,23.473 27.248,23.321 27.177,23.170 27.106,23.018 27.035,22.867 26.964,22.762 26.893,22.658 26.822,22.554 26.751,22.450 26.680,22.346 26.609,22.241 26.538,22.137 26.466,22.033 26.429,21.938 26.391,21.843 26.353,21.749 26.315,21.654 26.277,21.559 26.239,21.465 26.201,21.370 26.163,21.275 26.135,21.190 26.106,21.105 26.078,21.019 26.050,20.934 26.021,20.849 25.993,20.764 25.964,20.678 25.936,20.593 25.917,20.489 25.898,20.385 25.879,20.280 25.860,20.176 25.841,20.072 25.822,19.968 25.803,19.864 25.784,19.759 25.756,19.641 25.728,19.523 25.699,19.404 25.671,19.286 25.642,19.167 25.614,19.049 25.585,18.930 25.557,18.812 25.514,18.656 25.472,18.499 25.429,18.343 25.387,18.187 25.344,18.031 25.301,17.874 25.259,17.718 25.216,17.562 25.192,17.453 25.169,17.344 25.145,17.235 25.121,17.126 25.098,17.017 25.074,16.908 25.050,16.799 25.027,16.690 25.003,16.591 24.979,16.491 24.955,16.392 24.932,16.292 24.908,16.193 24.884,16.093 24.861,15.994 24.837,15.894 24.813,15.823 24.790,15.752 24.766,15.681 24.742,15.610 24.719,15.539 24.695,15.468 24.671,15.397 24.648,15.326 24.586,15.184 24.524,15.042 24.463,14.900 24.401,14.757 24.340,14.615 24.278,14.473 24.217,14.331 24.155,14.189 24.103,14.071 24.051,13.952 23.999,13.834 23.947,13.715 23.894,13.597 23.842,13.479 23.790,13.360 23.738,13.242 23.681,13.161 23.624,13.081 23.568,13.000 23.511,12.920 23.454,12.839 23.397,12.759 23.340,12.678 23.283,12.598 23.212,12.479 23.141,12.361 23.070,12.242 22.999,12.124 22.928,12.005 22.857,11.887 22.786,11.769 22.715,11.650 22.649,11.574 22.582,11.499 22.516,11.423 22.450,11.347 22.383,11.271 22.317,11.196 22.251,11.120 22.185,11.044 22.057,10.935 21.929,10.826 21.801,10.717 21.673,10.608 21.545,10.499 21.417,10.390 21.289,10.281 21.161,10.172 21.100,10.116 21.038,10.059 20.977,10.002 20.915,9.945 20.854,9.888 20.792,9.831 20.730,9.775 20.669,9.718 20.593,9.666 20.517,9.613 20.441,9.561 20.366,9.509 20.290,9.457 20.214,9.405 20.138,9.353 20.063,9.301 19.977,9.254 19.892,9.206 19.807,9.159 19.721,9.111 19.636,9.064 19.551,9.017 19.466,8.969 19.380,8.922 19.309,8.879 19.238,8.837 19.167,8.794 19.096,8.751 19.025,8.709 18.954,8.666 18.883,8.624 18.812,8.581 18.689,8.534 18.566,8.486 18.443,8.439 18.319,8.391 18.196,8.344 18.073,8.297 17.950,8.249 17.827,8.202 17.727,8.183 17.628,8.164 17.528,8.145 17.429,8.126 17.329,8.107 17.230,8.088 17.131,8.069 17.031,8.050 16.932,8.041 16.832,8.031 16.733,8.022 16.633,8.013 16.534,8.003 16.434,7.994 16.335,7.984 16.235,7.975 9.282,5.000 9.282,5.000 9.282,5.000 9.282,5.000 9.116,5.028 8.950,5.057 8.785,5.085 8.619,5.114 8.453,5.142 8.287,5.171 8.121,5.199 7.956,5.227 7.866,5.261 7.776,5.294 7.686,5.327 7.596,5.360 7.506,5.393 7.416,5.426 7.326,5.459 7.236,5.493 7.141,5.549 7.046,5.606 6.951,5.663 6.857,5.720 6.762,5.777 6.667,5.834 6.573,5.890 6.478,5.947 6.378,5.999 6.279,6.052 6.179,6.104 6.080,6.156 5.980,6.208 5.881,6.260 5.782,6.312 5.682,6.364 5.611,6.445 5.540,6.525 5.469,6.606 5.398,6.686 5.327,6.767 5.256,6.847 5.185,6.928 5.114,7.008 5.099,7.070 5.085,7.131 5.071,7.193 5.057,7.255 5.043,7.316 5.028,7.378 5.014,7.439 5.000,7.501 5.028,7.638 5.057,7.776 5.085,7.913 5.114,8.050 5.142,8.188 5.171,8.325 5.199,8.462 5.227,8.600 5.251,8.642 5.275,8.685 5.298,8.728 5.322,8.770 5.346,8.813 5.369,8.856 5.393,8.898 5.417,8.941 5.469,8.998 5.521,9.055 5.573,9.111 5.625,9.168 5.677,9.225 5.729,9.282 5.782,9.339 5.834,9.396 5.900,9.429 5.966,9.462 6.033,9.495 6.099,9.528 6.165,9.561 6.232,9.595 6.298,9.628 6.364,9.661 6.440,9.675 6.516,9.689 6.592,9.703 6.667,9.718 6.743,9.732 6.819,9.746 6.895,9.760 6.970,9.775 7.046,9.779 7.122,9.784 7.198,9.789 7.274,9.793 7.349,9.798 7.425,9.803 7.501,9.808 7.577,9.812 7.653,9.817 7.728,9.822 7.804,9.827 7.880,9.831 7.956,9.836 8.031,9.841 8.107,9.846 8.183,9.850 8.240,9.907 8.297,9.964 8.354,10.021 8.410,10.078 8.500,10.082 8.590,10.087 8.680,10.092 8.770,10.097 8.860,10.101 8.950,10.106 9.040,10.111 9.130,10.116 9.263,10.125 9.396,10.135 9.528,10.144 9.661,10.153 9.793,10.163 9.926,10.172 10.059,10.182 10.191,10.191 10.210,10.210 10.229,10.229 10.248,10.248 10.267,10.267 10.433,10.329 10.599,10.390 10.764,10.452 10.930,10.513 11.096,10.575 11.262,10.637 11.428,10.698 11.593,10.760 11.622,10.779 11.650,10.798 11.679,10.817 11.707,10.836 11.735,10.855 11.764,10.873 11.792,10.892 11.821,10.911 11.892,10.959 11.963,11.006 12.034,11.053 12.105,11.101 12.176,11.148 12.247,11.196 12.318,11.243 12.389,11.290 12.474,11.418 12.560,11.546 12.645,11.674 12.730,11.802 12.815,11.930 12.901,12.058 12.986,12.185 13.071,12.313 13.114,12.370 13.156,12.427 13.199,12.484 13.242,12.541 13.284,12.598 13.327,12.654 13.370,12.711 13.412,12.768 13.479,12.943 13.545,13.119 13.611,13.294 13.678,13.469 13.744,13.644 13.810,13.820 13.876,13.995 13.943,14.170 13.962,14.260 13.981,14.350 14.000,14.440 14.019,14.530 14.037,14.620 14.056,14.710 14.075,14.800 14.094,14.890 14.113,14.966 14.132,15.042 14.151,15.117 14.170,15.193 14.189,15.269 14.208,15.345 14.227,15.421 14.246,15.496 14.274,15.615 14.303,15.733 14.331,15.852 14.360,15.970 14.388,16.088 14.416,16.207 14.445,16.325 14.473,16.444 14.521,16.600 14.568,16.756 14.615,16.913 14.663,17.069 14.710,17.225 14.757,17.382 14.805,17.538 14.852,17.694 14.890,17.765 14.928,17.836 14.966,17.907 15.004,17.978 15.042,18.049 15.080,18.121 15.117,18.192 15.155,18.263 15.207,18.372 15.260,18.480 15.312,18.589 15.364,18.698 15.416,18.807 15.468,18.916 15.520,19.025 15.572,19.134 15.629,19.248 15.686,19.362 15.743,19.475 15.800,19.589 15.856,19.703 15.913,19.816 15.970,19.930 16.027,20.044 16.098,20.219 16.169,20.394 16.240,20.569 16.311,20.745 16.382,20.920 16.453,21.095 16.524,21.270 16.595,21.446 16.657,21.602 16.718,21.758 16.780,21.915 16.842,22.071 16.903,22.227 16.965,22.383 17.026,22.540 17.088,22.696 17.140,22.786 17.192,22.876 17.244,22.966 17.296,23.056 17.348,23.146 17.400,23.236 17.453,23.326 17.505,23.416 17.566,23.525 17.628,23.634 17.689,23.743 17.751,23.852 17.813,23.961 17.874,24.070 17.936,24.179 17.997,24.288 18.054,24.397 18.111,24.506 18.168,24.614 18.225,24.723 18.282,24.832 18.338,24.941 18.395,25.050 18.452,25.159 18.476,25.197 18.499,25.235 18.523,25.273 18.547,25.311 18.570,25.349 18.594,25.387 18.618,25.424 18.641,25.462 18.698,25.567 18.755,25.671 18.812,25.775 18.869,25.879 18.926,25.983 18.983,26.088 19.039,26.192 19.096,26.296 19.181,26.414 19.267,26.533 19.352,26.651 19.437,26.770 19.523,26.888 19.608,27.006 19.693,27.125 19.778,27.243 19.854,27.324 19.930,27.404 20.006,27.485 20.081,27.565 20.157,27.646 20.233,27.726 20.309,27.807 20.385,27.887 20.489,28.011 20.593,28.134 20.697,28.257 20.801,28.380 20.906,28.503 21.010,28.626 21.114,28.750 21.218,28.873 21.280,28.930 21.341,28.986 21.403,29.043 21.465,29.100 21.526,29.157 21.588,29.214 21.649,29.271 21.711,29.327 21.801,29.436 21.891,29.545 21.981,29.654 22.071,29.763 22.161,29.872 22.251,29.981 22.341,30.090 22.431,30.199 22.511,30.298 22.592,30.398 22.672,30.497 22.753,30.597 22.833,30.696 22.914,30.796 22.994,30.895 23.075,30.995 23.165,31.080 23.255,31.165 23.345,31.250 23.435,31.336 23.525,31.421 23.615,31.506 23.705,31.592 23.795,31.677 23.861,31.734 23.928,31.790 23.994,31.847 24.060,31.904 24.127,31.961 24.193,32.018 24.259,32.075 24.325,32.131 24.397,32.174 24.468,32.217 24.539,32.259 24.610,32.302 24.681,32.345 24.752,32.387 24.823,32.430 24.894,32.473 24.984,32.544 25.074,32.615 25.164,32.686 25.254,32.757 25.344,32.828 25.434,32.899 25.524,32.970 25.614,33.041 25.690,33.079 25.765,33.117 25.841,33.155 25.917,33.193 25.993,33.230 26.069,33.268 26.144,33.306 26.220,33.344 26.329,33.401 26.438,33.458 26.547,33.515 26.656,33.571 26.765,33.628 26.874,33.685 26.983,33.742 27.092,33.799 27.182,33.822 27.272,33.846 27.362,33.870 27.452,33.894 27.542,33.917 27.632,33.941 27.722,33.965 27.812,33.988 27.930,34.064 28.048,34.140 28.167,34.216 28.285,34.291 28.404,34.367 28.522,34.443 28.641,34.519 28.759,34.595 28.816,34.618 28.873,34.642 28.929,34.666 28.986,34.689 29.043,34.713 29.100,34.737 29.157,34.760 29.214,34.784 29.271,34.865 29.327,34.945 29.384,35.026 29.441,35.106 29.498,35.187 29.555,35.267 29.612,35.348 29.668,35.428 29.631,35.518 29.593,35.608 29.555,35.698 29.517,35.788 29.479,35.878 29.441,35.968 29.403,36.058 29.365,36.148 29.280,36.229 29.195,36.309 29.109,36.390 29.024,36.470 28.939,36.551 28.854,36.631 28.768,36.712 28.683,36.792 28.617,36.868 28.551,36.944 28.484,37.020 28.418,37.096 28.352,37.171 28.285,37.247 28.219,37.323 28.153,37.399 28.105,37.460 28.058,37.522 28.011,37.583 27.963,37.645 27.916,37.707 27.868,37.768 27.821,37.830 27.774,37.891 27.726,37.967 27.679,38.043 27.632,38.119 27.584,38.194 27.537,38.270 27.490,38.346 27.442,38.422 27.395,38.498 27.385,38.569 27.376,38.640 27.366,38.711 27.357,38.782 27.347,38.853 27.338,38.924 27.329,38.995 27.319,39.066 27.329,39.170 27.338,39.274 27.347,39.379 27.357,39.483 27.366,39.587 27.376,39.691 27.385,39.795 27.395,39.900 27.414,39.966 27.433,40.032 27.452,40.099 27.471,40.165 27.490,40.231 27.508,40.298 27.527,40.364 27.546,40.430 27.570,40.549 27.594,40.667 27.617,40.785 27.641,40.904 27.665,41.022 27.688,41.141 27.712,41.259 27.736,41.377 27.755,41.453 27.774,41.529 27.793,41.605 27.812,41.681 27.831,41.756 27.850,41.832 27.868,41.908 27.887,41.984 27.954,42.093 28.020,42.202 28.086,42.311 28.153,42.420 28.219,42.528 28.285,42.637 28.352,42.746 28.418,42.855 28.461,42.903 28.503,42.950 28.546,42.997 28.588,43.045 28.631,43.092 28.674,43.140 28.716,43.187 28.759,43.234 28.882,43.196 29.005,43.158 29.128,43.121 29.252,43.083 29.375,43.045 29.498,43.007 29.621,42.969 29.744,42.931 29.796,42.907 29.848,42.884 29.900,42.860 29.953,42.836 30.005,42.813 30.057,42.789 30.109,42.765 30.161,42.742 30.275,42.680 30.388,42.618 30.502,42.557 30.616,42.495 30.729,42.434 30.843,42.372 30.957,42.311 31.070,42.249 31.175,42.159 31.279,42.069 31.383,41.979 31.487,41.889 31.591,41.799 31.696,41.709 31.800,41.619 31.904,41.529 31.942,41.491 31.980,41.453 32.018,41.415 32.056,41.377 32.094,41.340 32.131,41.302 32.169,41.264 32.207,41.226 32.269,41.169 32.330,41.112 32.392,41.055 32.454,40.999 32.515,40.942 32.577,40.885 32.638,40.828 32.700,40.771 32.752,40.724 32.804,40.676 32.856,40.629 32.908,40.582 32.960,40.534 33.012,40.487 33.065,40.440 33.117,40.392 33.197,40.326 33.278,40.260 33.358,40.193 33.439,40.127 33.519,40.061 33.600,39.994 33.680,39.928 33.761,39.862 33.879,39.776 33.998,39.691 34.116,39.606 34.235,39.521 34.353,39.435 34.471,39.350 34.590,39.265 34.708,39.180 34.808,39.104 34.907,39.028 35.007,38.952 35.106,38.876 35.206,38.801 35.305,38.725 35.404,38.649 35.504,38.573 35.561,38.516 35.618,38.460 35.674,38.403 35.731,38.346 35.788,38.289 35.845,38.232 35.902,38.175 35.959,38.119 36.053,38.043 36.148,37.967 36.243,37.891 36.338,37.815 36.432,37.740 36.527,37.664 36.622,37.588 36.717,37.512 36.835,37.418 36.953,37.323 37.072,37.228 37.190,37.133 37.309,37.039 37.427,36.944 37.545,36.849 37.664,36.754 37.782,36.674 37.901,36.593 38.019,36.513 38.138,36.432 38.256,36.352 38.374,36.271 38.493,36.191 38.611,36.110 38.715,36.039 38.820,35.968 38.924,35.897 39.028,35.826 39.132,35.755 39.236,35.684 39.341,35.613 39.445,35.542 39.521,35.495 39.596,35.447 39.672,35.400 39.748,35.352 39.824,35.305 39.900,35.258 39.975,35.210 40.051,35.163 40.151,35.082 40.250,35.002 40.350,34.921 40.449,34.841 40.548,34.760 40.648,34.680 40.747,34.599 40.847,34.519 40.908,34.471 40.970,34.424 41.032,34.377 41.093,34.329 41.155,34.282 41.216,34.235 41.278,34.187 41.339,34.140 41.434,34.102 41.529,34.064 41.624,34.026 41.718,33.988 41.813,33.950 41.908,33.912 42.003,33.875 42.097,33.837 42.126,33.832 42.154,33.827 42.183,33.822 42.211,33.818 42.239,33.813 42.268,33.808 42.296,33.804 42.325,33.799 42.434,33.794 42.543,33.789 42.652,33.785 42.761,33.780 42.869,33.775 42.978,33.770 43.087,33.766 43.196,33.761 43.286,33.766 43.376,33.770 43.466,33.775 43.556,33.780 43.646,33.785 43.736,33.789 43.826,33.794 43.916,33.799 43.987,33.799 44.058,33.799 44.129,33.870 44.200,33.941 50.680,36.470" fill="none" stroke="black" stroke-width="1"/>
</svg>
