<?xml version="1.0" encoding="UTF-8"?>
<svg xmlns="http://www.w3.org/2000/svg" width="166.3" height="160.0" viewBox="0 0 166.3 160.0">
  <polyline points="161.266,110.070 161.266,110.070 161.266,110.070 161.266,110.070 161.266,110.070 161.252,109.728 161.239,109.387 161.225,109.046 161.212,108.704 161.199,108.363 161.185,108.021 161.172,107.680 161.158,107.339 161.145,106.796 161.132,106.254 161.118,105.712 161.105,105.170 161.091,104.627 161.078,104.085 161.064,103.543 161.051,103.001 161.064,102.499 161.078,101.997 161.091,101.495 161.105,100.993 161.118,100.491 161.132,99.989 161.145,99.486 161.158,98.984 161.152,98.509 161.145,98.034 161.139,97.559 161.132,97.083 161.126,96.608 161.119,96.133 161.113,95.657 161.106,95.182 161.126,94.580 161.146,93.977 161.166,93.375 161.186,92.772 161.206,92.170 161.226,91.567 161.247,90.965 161.267,90.362 161.260,89.880 161.253,89.399 161.247,88.917 161.240,88.435 161.234,87.953 161.227,87.471 161.221,86.989 161.214,86.507 161.221,86.165 161.227,85.824 161.234,85.483 161.240,85.141 161.247,84.800 161.253,84.458 161.260,84.117 161.267,83.776 160.262,83.889 159.258,84.003 158.254,84.117 157.250,84.231 156.246,84.345 155.242,84.458 154.238,84.572 153.234,84.686 152.384,84.739 151.533,84.793 150.683,84.847 149.833,84.900 148.983,84.954 148.133,85.007 147.283,85.061 146.433,85.114 145.121,85.094 143.809,85.074 142.496,85.054 141.184,85.034 139.872,85.014 138.560,84.994 137.248,84.974 135.936,84.954 134.999,84.934 134.062,84.913 133.125,84.893 132.188,84.873 131.250,84.853 130.313,84.833 129.376,84.813 128.439,84.793 127.033,84.726 125.627,84.659 124.222,84.592 122.816,84.525 121.410,84.458 120.004,84.391 118.599,84.324 117.193,84.257 116.196,84.264 115.198,84.271 114.201,84.277 113.203,84.284 112.206,84.291 111.209,84.297 110.211,84.304 109.214,84.311 108.270,84.324 107.326,84.337 106.382,84.351 105.438,84.364 104.494,84.378 103.551,84.391 102.607,84.404 101.663,84.418 100.485,84.391 99.307,84.364 98.128,84.337 96.950,84.311 95.772,84.284 94.594,84.257 93.416,84.230 92.238,84.204 91.220,84.117 90.203,84.030 89.185,83.943 88.168,83.856 87.150,83.769 86.133,83.681 85.115,83.594 84.098,83.507 83.127,83.407 82.156,83.307 81.186,83.206 80.215,83.106 79.245,83.005 78.274,82.905 77.303,82.805 76.333,82.704 75.542,82.537 74.752,82.370 73.962,82.202 73.172,82.035 72.382,81.868 71.592,81.700 70.802,81.533 70.012,81.366 69.290,81.098 68.567,80.830 67.844,80.562 67.121,80.295 66.398,80.027 65.675,79.759 64.952,79.491 64.229,79.224 63.747,79.050 63.265,78.875 62.783,78.701 62.301,78.527 61.819,78.353 61.337,78.179 60.855,78.005 60.373,77.831 59.684,77.557 58.994,77.282 58.305,77.008 57.615,76.733 56.926,76.459 56.236,76.184 55.547,75.910 54.857,75.636 54.656,75.542 54.456,75.448 54.255,75.354 54.054,75.261 53.853,75.167 53.652,75.073 53.451,74.980 53.251,74.886 52.662,74.611 52.072,74.337 51.483,74.062 50.894,73.788 50.305,73.514 49.716,73.239 49.127,72.965 48.538,72.690 47.567,72.108 46.597,71.525 45.626,70.943 44.655,70.361 43.685,69.778 42.714,69.196 41.744,68.614 40.773,68.031 40.318,67.609 39.863,67.188 39.407,66.766 38.952,66.344 38.497,65.923 38.042,65.501 37.587,65.079 37.131,64.657 36.770,64.269 36.408,63.881 36.047,63.493 35.685,63.104 35.324,62.716 34.962,62.328 34.601,61.940 34.240,61.551 33.824,61.029 33.409,60.507 32.994,59.985 32.579,59.463 32.164,58.941 31.749,58.418 31.334,57.896 30.919,57.374 30.611,56.778 30.303,56.183 29.995,55.587 29.688,54.991 29.380,54.395 29.072,53.800 28.764,53.204 28.456,52.608 28.282,52.119 28.108,51.631 27.934,51.142 27.760,50.653 27.586,50.165 27.412,49.676 27.238,49.187 27.063,48.699 26.809,47.996 26.555,47.293 26.300,46.590 26.046,45.887 25.792,45.184 25.537,44.481 25.283,43.779 25.029,43.076 24.881,42.493 24.734,41.911 24.587,41.329 24.439,40.746 24.292,40.164 24.145,39.581 23.998,38.999 23.850,38.417 23.683,37.935 23.516,37.453 23.348,36.971 23.181,36.489 23.014,36.007 22.846,35.525 22.679,35.043 22.512,34.561 22.438,34.126 22.364,33.691 22.291,33.256 22.217,32.820 22.143,32.385 22.070,31.950 21.996,31.515 21.923,31.080 21.842,30.591 21.762,30.103 21.682,29.614 21.601,29.125 21.521,28.637 21.441,28.148 21.360,27.659 21.280,27.171 21.260,26.883 21.240,26.595 21.220,26.307 21.200,26.019 21.179,25.731 21.159,25.444 21.139,25.156 21.119,24.868 21.066,24.426 21.012,23.984 20.959,23.543 20.905,23.101 20.851,22.659 20.798,22.217 20.744,21.775 20.691,21.333 20.530,20.604 20.369,19.874 20.209,19.145 20.048,18.415 19.887,17.685 19.727,16.956 19.566,16.226 19.406,15.496 19.285,14.974 19.165,14.452 19.044,13.930 18.924,13.408 18.803,12.886 18.683,12.363 18.562,11.841 18.442,11.319 18.341,11.078 18.241,10.837 18.140,10.596 18.040,10.355 17.940,10.114 17.839,9.873 17.739,9.632 17.638,9.391 17.377,9.037 17.116,8.682 16.855,8.327 16.594,7.972 16.333,7.617 16.072,7.263 15.811,6.908 15.550,6.553 15.242,6.412 14.934,6.272 14.626,6.131 14.318,5.991 14.010,5.850 13.702,5.710 13.394,5.569 13.086,5.428 12.558,5.375 12.029,5.321 11.500,5.268 10.971,5.214 10.442,5.161 9.913,5.107 9.385,5.054 8.856,5.000 8.708,5.074 8.561,5.147 8.414,5.221 8.267,5.295 8.119,5.368 7.972,5.442 7.825,5.515 7.678,5.589 7.497,5.710 7.316,5.830 7.135,5.951 6.955,6.071 6.774,6.192 6.593,6.312 6.412,6.432 6.232,6.553 6.145,6.834 6.058,7.115 5.971,7.396 5.884,7.678 5.797,7.959 5.710,8.240 5.623,8.521 5.535,8.802 5.475,9.177 5.415,9.552 5.355,9.927 5.294,10.302 5.234,10.677 5.174,11.051 5.114,11.426 5.054,11.801 5.047,12.283 5.040,12.765 5.033,13.247 5.027,13.729 5.020,14.211 5.013,14.693 5.007,15.175 5.000,15.657 5.033,16.172 5.067,16.688 5.100,17.203 5.134,17.719 5.167,18.234 5.201,18.750 5.234,19.265 5.268,19.780 5.321,20.256 5.375,20.731 5.428,21.206 5.482,21.682 5.536,22.157 5.589,22.632 5.643,23.107 5.696,23.583 5.783,23.971 5.870,24.359 5.957,24.747 6.044,25.136 6.131,25.524 6.218,25.912 6.305,26.300 6.392,26.689 6.473,27.231 6.553,27.773 6.633,28.315 6.714,28.858 6.794,29.400 6.874,29.942 6.955,30.484 7.035,31.026 7.129,31.401 7.222,31.776 7.316,32.151 7.410,32.526 7.504,32.901 7.597,33.276 7.691,33.650 7.785,34.025 7.858,34.293 7.932,34.561 8.006,34.829 8.079,35.096 8.153,35.364 8.227,35.632 8.300,35.900 8.374,36.167 8.508,36.596 8.642,37.024 8.775,37.453 8.909,37.881 9.043,38.310 9.177,38.738 9.311,39.166 9.445,39.595 9.532,39.883 9.619,40.170 9.706,40.458 9.793,40.746 9.880,41.034 9.967,41.322 10.054,41.610 10.141,41.898 10.342,42.507 10.543,43.116 10.743,43.725 10.944,44.334 11.145,44.943 11.346,45.552 11.547,46.162 11.748,46.771 11.861,47.099 11.975,47.427 12.089,47.755 12.203,48.083 12.317,48.411 12.430,48.739 12.544,49.067 12.658,49.395 12.993,50.131 13.327,50.868 13.662,51.604 13.997,52.340 14.331,53.077 14.666,53.813 15.001,54.549 15.336,55.286 15.570,55.989 15.804,56.691 16.038,57.394 16.273,58.097 16.507,58.800 16.741,59.503 16.976,60.206 17.210,60.909 17.444,61.337 17.678,61.765 17.913,62.194 18.147,62.622 18.381,63.051 18.616,63.479 18.850,63.908 19.084,64.336 19.272,64.704 19.459,65.072 19.647,65.440 19.834,65.809 20.021,66.177 20.209,66.545 20.396,66.913 20.584,67.281 20.865,67.696 21.146,68.111 21.427,68.526 21.708,68.941 21.989,69.357 22.271,69.772 22.552,70.187 22.833,70.602 23.208,71.077 23.583,71.552 23.957,72.027 24.332,72.503 24.707,72.978 25.082,73.453 25.457,73.929 25.832,74.404 26.120,74.772 26.407,75.140 26.695,75.508 26.983,75.877 27.271,76.245 27.559,76.613 27.847,76.981 28.135,77.349 28.483,77.764 28.831,78.179 29.179,78.594 29.527,79.009 29.875,79.424 30.223,79.839 30.571,80.254 30.919,80.669 31.241,80.977 31.562,81.285 31.883,81.593 32.205,81.901 32.526,82.209 32.847,82.517 33.168,82.825 33.490,83.133 34.032,83.688 34.574,84.244 35.116,84.800 35.659,85.355 36.201,85.911 36.743,86.466 37.285,87.022 37.828,87.578 38.383,88.040 38.939,88.501 39.494,88.963 40.050,89.425 40.606,89.887 41.161,90.349 41.717,90.811 42.272,91.273 42.614,91.427 42.955,91.581 43.297,91.735 43.638,91.889 43.979,92.043 44.321,92.197 44.662,92.351 45.004,92.505 45.412,92.705 45.820,92.906 46.229,93.107 46.637,93.308 47.045,93.509 47.454,93.709 47.862,93.910 48.270,94.111 48.752,94.372 49.234,94.633 49.716,94.894 50.198,95.155 50.680,95.416 51.162,95.677 51.644,95.939 52.126,96.200 52.461,96.441 52.795,96.682 53.130,96.923 53.465,97.164 53.800,97.405 54.134,97.646 54.469,97.887 54.804,98.128 55.192,98.322 55.580,98.516 55.968,98.710 56.357,98.904 56.745,99.098 57.133,99.292 57.521,99.486 57.910,99.681 58.198,99.814 58.485,99.948 58.773,100.082 59.061,100.216 59.349,100.350 59.637,100.484 59.925,100.618 60.212,100.752 60.581,100.959 60.949,101.167 61.317,101.374 61.685,101.582 62.053,101.789 62.421,101.997 62.790,102.204 63.158,102.412 63.533,102.566 63.908,102.720 64.282,102.874 64.657,103.028 65.032,103.182 65.407,103.335 65.782,103.489 66.157,103.643 66.759,103.851 67.362,104.058 67.964,104.266 68.567,104.473 69.169,104.681 69.772,104.889 70.374,105.096 70.976,105.304 71.278,105.384 71.579,105.464 71.880,105.544 72.181,105.625 72.483,105.705 72.784,105.785 73.085,105.866 73.386,105.946 73.875,106.100 74.364,106.254 74.852,106.408 75.341,106.562 75.830,106.716 76.318,106.870 76.807,107.024 77.296,107.178 77.691,107.278 78.086,107.378 78.480,107.479 78.875,107.579 79.270,107.680 79.665,107.780 80.060,107.880 80.455,107.981 80.897,108.128 81.339,108.275 81.781,108.423 82.222,108.570 82.664,108.717 83.106,108.864 83.548,109.012 83.990,109.159 84.519,109.313 85.047,109.467 85.576,109.621 86.105,109.775 86.634,109.929 87.163,110.083 87.691,110.237 88.220,110.391 88.555,110.444 88.890,110.498 89.224,110.551 89.559,110.605 89.894,110.658 90.229,110.712 90.563,110.766 90.898,110.819 91.333,110.940 91.768,111.060 92.203,111.181 92.638,111.301 93.073,111.422 93.509,111.542 93.944,111.663 94.379,111.783 94.774,111.951 95.169,112.118 95.564,112.285 95.959,112.453 96.354,112.620 96.749,112.787 97.143,112.955 97.538,113.122 97.860,113.269 98.181,113.417 98.502,113.564 98.824,113.711 99.145,113.858 99.466,114.006 99.788,114.153 100.109,114.300 100.323,114.367 100.537,114.434 100.752,114.501 100.966,114.568 101.180,114.635 101.394,114.702 101.608,114.769 101.823,114.836 101.977,114.909 102.131,114.983 102.284,115.057 102.438,115.130 102.592,115.204 102.746,115.278 102.900,115.351 103.054,115.425 103.168,115.733 103.282,116.041 103.396,116.349 103.510,116.657 103.623,116.965 103.737,117.273 103.851,117.580 103.965,117.888 103.898,118.083 103.831,118.277 103.764,118.471 103.697,118.665 103.630,118.859 103.563,119.053 103.496,119.247 103.429,119.441 103.289,119.709 103.148,119.977 103.007,120.245 102.867,120.512 102.726,120.780 102.586,121.048 102.445,121.316 102.305,121.584 102.131,121.791 101.956,121.999 101.782,122.206 101.608,122.414 101.434,122.621 101.260,122.829 101.086,123.036 100.912,123.244 100.725,123.545 100.537,123.846 100.350,124.147 100.162,124.449 99.975,124.750 99.788,125.051 99.600,125.352 99.413,125.653 99.225,125.915 99.038,126.176 98.850,126.437 98.663,126.698 98.476,126.959 98.288,127.220 98.101,127.481 97.913,127.742 97.679,128.030 97.445,128.318 97.210,128.606 96.976,128.893 96.742,129.181 96.508,129.469 96.273,129.757 96.039,130.045 95.952,130.299 95.865,130.554 95.778,130.808 95.691,131.062 95.604,131.317 95.517,131.571 95.430,131.825 95.343,132.080 95.209,132.348 95.075,132.615 94.941,132.883 94.807,133.151 94.673,133.419 94.540,133.686 94.406,133.954 94.272,134.222 94.111,134.577 93.950,134.931 93.790,135.286 93.629,135.641 93.468,135.996 93.308,136.351 93.147,136.705 92.986,137.060 92.833,137.388 92.679,137.716 92.525,138.044 92.371,138.372 92.217,138.700 92.063,139.028 91.909,139.356 91.755,139.684 91.621,139.932 91.487,140.180 91.353,140.427 91.219,140.675 91.085,140.923 90.952,141.170 90.818,141.418 90.684,141.666 90.751,142.107 90.818,142.549 90.885,142.991 90.952,143.433 91.018,143.875 91.085,144.316 91.152,144.758 91.219,145.200 91.313,145.454 91.407,145.709 91.500,145.963 91.594,146.218 91.688,146.472 91.782,146.726 91.875,146.981 91.969,147.235 92.076,147.563 92.183,147.891 92.290,148.219 92.397,148.547 92.505,148.875 92.612,149.203 92.719,149.531 92.826,149.859 92.940,150.140 93.053,150.421 93.167,150.703 93.281,150.984 93.395,151.265 93.509,151.546 93.622,151.827 93.736,152.108 93.850,152.296 93.964,152.483 94.078,152.671 94.191,152.858 94.305,153.046 94.419,153.233 94.533,153.420 94.647,153.608 94.961,153.735 95.276,153.862 95.591,153.989 95.905,154.117 96.220,154.244 96.534,154.371 96.849,154.498 97.164,154.625 97.445,154.672 97.726,154.719 98.007,154.766 98.288,154.813 98.569,154.859 98.851,154.906 99.132,154.953 99.413,155.000 99.835,154.973 100.256,154.947 100.678,154.920 101.100,154.893 101.521,154.866 101.943,154.840 102.365,154.813 102.787,154.786 103.228,154.525 103.670,154.264 104.112,154.003 104.554,153.742 104.996,153.481 105.437,153.220 105.879,152.959 106.321,152.698 106.850,152.162 107.379,151.627 107.908,151.091 108.436,150.556 108.965,150.020 109.494,149.484 110.023,148.949 110.552,148.413 110.826,147.965 111.101,147.516 111.375,147.068 111.650,146.619 111.924,146.171 112.198,145.722 112.473,145.274 112.747,144.825 113.176,144.357 113.604,143.888 114.033,143.420 114.461,142.951 114.889,142.482 115.318,142.014 115.746,141.545 116.175,141.077 116.610,140.622 117.045,140.166 117.480,139.711 117.915,139.256 118.350,138.801 118.785,138.346 119.220,137.890 119.656,137.435 119.930,137.121 120.205,136.806 120.479,136.491 120.753,136.177 121.028,135.862 121.302,135.547 121.577,135.233 121.851,134.918 122.159,134.630 122.467,134.343 122.775,134.055 123.083,133.767 123.391,133.479 123.699,133.191 124.007,132.903 124.315,132.615 124.629,132.254 124.944,131.893 125.259,131.531 125.573,131.170 125.888,130.808 126.202,130.447 126.517,130.085 126.832,129.724 127.160,129.302 127.488,128.880 127.816,128.458 128.144,128.037 128.472,127.615 128.800,127.193 129.128,126.772 129.456,126.350 129.784,126.002 130.112,125.654 130.440,125.306 130.768,124.957 131.096,124.609 131.424,124.261 131.752,123.913 132.080,123.565 132.548,123.030 133.017,122.494 133.485,121.959 133.954,121.423 134.423,120.887 134.891,120.352 135.360,119.816 135.828,119.281 136.197,118.899 136.565,118.518 136.933,118.136 137.301,117.755 137.669,117.373 138.037,116.992 138.406,116.610 138.774,116.228 139.390,115.633 140.005,115.037 140.621,114.441 141.237,113.845 141.853,113.250 142.469,112.654 143.085,112.058 143.701,111.462 143.881,111.248 144.062,111.034 144.243,110.820 144.424,110.605 144.604,110.391 144.785,110.177 144.966,109.963 145.147,109.749 145.461,109.454 145.776,109.160 146.090,108.865 146.405,108.570 146.720,108.276 147.034,107.981 147.349,107.687 147.663,107.392 148.032,107.279 148.400,107.165 148.768,107.051 149.136,106.937 149.504,106.823 149.873,106.710 150.241,106.596 150.609,106.482 150.796,106.495 150.984,106.509 151.171,106.522 151.359,106.536 151.546,106.549 151.733,106.562 151.921,106.576 152.108,106.589 152.396,106.710 152.684,106.830 152.972,106.951 153.260,107.071 153.548,107.192 153.835,107.312 154.123,107.433 154.411,107.553 154.605,107.647 154.799,107.741 154.993,107.834 155.188,107.928 155.382,108.022 155.576,108.116 155.770,108.209 155.964,108.303 156.279,108.437 156.593,108.571 156.908,108.705 157.223,108.839 157.537,108.972 157.852,109.106 158.166,109.240 158.481,109.374 158.588,109.461 158.695,109.548 158.803,109.635 158.910,109.722 159.017,109.809 159.124,109.896 159.231,109.983 159.338,110.071 159.579,110.071 159.820,108.979 154.365,109.220 154.365,109.461 143.453,102.915 143.694,102.915 143.935,101.823 138.479,102.064 161.266,110.070" fill="none" stroke="black" stroke-width="1"/>
</svg>
