<?xml version="1.0" encoding="UTF-8"?>
<svg xmlns="http://www.w3.org/2000/svg" width="274.6" height="160.0" viewBox="0 0 274.6 160.0">
  <polyline points="269.370,140.313 269.319,139.871 269.268,139.429 269.217,138.987 269.166,138.545 269.115,138.103 269.064,137.661 269.013,137.219 268.962,136.777 269.013,136.199 269.064,135.621 269.115,135.043 269.166,134.465 269.217,133.887 269.268,133.309 269.319,132.731 269.370,132.153 269.336,131.813 269.302,131.473 269.268,131.133 269.234,130.793 269.200,130.453 269.166,130.113 269.132,129.773 269.098,129.433 269.115,129.042 269.132,128.651 269.149,128.260 269.166,127.869 269.182,127.478 269.199,127.087 269.216,126.697 269.233,126.306 269.250,125.830 269.267,125.354 269.284,124.878 269.301,124.402 269.318,123.926 269.335,123.450 269.352,122.974 269.369,122.498 269.352,122.039 269.335,121.580 269.318,121.121 269.301,120.662 269.284,120.203 269.267,119.744 269.250,119.285 269.233,118.826 269.199,118.316 269.165,117.806 269.131,117.296 269.097,116.786 269.063,116.276 269.029,115.766 268.995,115.256 268.961,114.746 268.995,114.321 269.029,113.896 269.063,113.471 269.097,113.046 269.131,112.621 269.165,112.196 269.199,111.771 269.233,111.346 269.284,111.057 269.335,110.768 269.386,110.479 269.437,110.190 269.488,109.901 269.539,109.612 269.590,109.323 269.641,109.034 269.556,108.779 269.472,108.524 269.387,108.269 269.302,108.014 269.217,107.760 269.132,107.505 269.047,107.250 268.962,106.995 268.520,106.961 268.078,106.926 267.636,106.892 267.194,106.858 266.752,106.824 266.310,106.790 265.868,106.756 265.426,106.722 264.780,106.688 264.134,106.654 263.488,106.620 262.842,106.586 262.196,106.552 261.550,106.518 260.904,106.484 260.258,106.450 259.595,105.787 258.932,105.124 258.269,104.461 257.606,103.798 256.892,103.764 256.178,103.730 255.464,103.696 254.751,103.662 254.037,103.628 253.323,103.594 252.609,103.560 251.895,103.526 251.113,103.407 250.331,103.288 249.549,103.169 248.767,103.050 247.985,102.931 247.203,102.812 246.421,102.693 245.639,102.574 245.027,102.540 244.415,102.506 243.803,102.472 243.191,102.438 242.579,102.404 241.967,102.370 241.355,102.336 240.743,102.302 240.012,102.200 239.281,102.098 238.550,101.996 237.819,101.894 237.088,101.792 236.358,101.690 235.627,101.588 234.896,101.486 234.012,101.384 233.128,101.282 232.244,101.180 231.360,101.078 230.476,100.976 229.592,100.874 228.708,100.772 227.824,100.670 227.246,100.500 226.668,100.330 226.090,100.160 225.512,99.990 224.934,99.820 224.356,99.650 223.778,99.480 223.200,99.310 222.690,99.225 222.180,99.140 221.670,99.055 221.160,98.970 220.650,98.885 220.140,98.800 219.630,98.715 219.120,98.630 218.559,98.562 217.998,98.494 217.438,98.426 216.877,98.358 216.316,98.290 215.755,98.222 215.194,98.154 214.633,98.086 213.868,97.967 213.103,97.848 212.338,97.729 211.573,97.610 210.808,97.491 210.043,97.372 209.278,97.253 208.513,97.134 207.901,97.049 207.289,96.964 206.677,96.879 206.065,96.794 205.453,96.709 204.841,96.624 204.229,96.539 203.617,96.454 203.056,96.369 202.495,96.284 201.934,96.199 201.373,96.114 200.812,96.029 200.251,95.944 199.690,95.859 199.129,95.774 198.484,95.621 197.838,95.468 197.192,95.315 196.546,95.162 195.900,95.009 195.254,94.856 194.608,94.703 193.962,94.550 193.333,94.414 192.704,94.278 192.075,94.142 191.446,94.006 190.817,93.870 190.188,93.734 189.559,93.598 188.930,93.462 188.454,93.326 187.978,93.190 187.502,93.054 187.026,92.918 186.550,92.782 186.074,92.646 185.598,92.510 185.122,92.374 184.544,92.187 183.966,92.000 183.388,91.813 182.810,91.626 182.232,91.439 181.654,91.252 181.076,91.065 180.498,90.878 180.057,90.759 179.615,90.640 179.173,90.521 178.731,90.402 178.289,90.283 177.847,90.164 177.405,90.045 176.963,89.926 176.521,89.841 176.079,89.756 175.637,89.671 175.195,89.586 174.753,89.501 174.311,89.416 173.869,89.331 173.427,89.246 172.764,89.144 172.101,89.042 171.438,88.940 170.775,88.838 170.112,88.736 169.449,88.634 168.786,88.532 168.123,88.430 167.562,88.294 167.001,88.158 166.440,88.022 165.879,87.886 165.318,87.750 164.757,87.614 164.196,87.478 163.635,87.342 163.125,87.138 162.615,86.934 162.105,86.730 161.595,86.526 161.086,86.322 160.576,86.118 160.066,85.914 159.556,85.710 159.114,85.574 158.672,85.438 158.230,85.302 157.788,85.166 157.346,85.030 156.904,84.894 156.462,84.758 156.020,84.622 155.646,84.537 155.272,84.452 154.898,84.367 154.524,84.282 154.150,84.197 153.776,84.112 153.402,84.027 153.028,83.942 152.212,83.670 151.396,83.398 150.580,83.126 149.764,82.854 148.948,82.582 148.132,82.311 147.316,82.039 146.500,81.767 145.854,81.546 145.208,81.325 144.562,81.104 143.916,80.883 143.270,80.662 142.625,80.441 141.979,80.220 141.333,79.999 140.874,79.812 140.415,79.625 139.956,79.438 139.497,79.251 139.038,79.064 138.579,78.877 138.120,78.690 137.661,78.503 136.930,78.282 136.199,78.061 135.468,77.840 134.737,77.619 134.006,77.398 133.275,77.177 132.544,76.956 131.813,76.735 131.371,76.565 130.929,76.395 130.487,76.225 130.045,76.055 129.603,75.885 129.161,75.715 128.719,75.545 128.277,75.375 127.665,75.137 127.053,74.899 126.441,74.661 125.829,74.423 125.217,74.185 124.605,73.947 123.994,73.709 123.382,73.471 122.719,73.199 122.056,72.927 121.393,72.655 120.730,72.383 120.067,72.111 119.404,71.839 118.741,71.567 118.078,71.295 117.432,71.023 116.786,70.751 116.140,70.479 115.494,70.207 114.848,69.935 114.202,69.663 113.556,69.391 112.910,69.119 112.502,68.949 112.094,68.779 111.686,68.609 111.278,68.439 110.870,68.269 110.462,68.099 110.054,67.929 109.646,67.759 109.153,67.572 108.660,67.385 108.167,67.198 107.674,67.011 107.181,66.824 106.688,66.637 106.195,66.450 105.702,66.263 105.295,66.093 104.887,65.923 104.479,65.753 104.071,65.583 103.663,65.413 103.255,65.243 102.847,65.073 102.439,64.903 102.031,64.733 101.623,64.563 101.215,64.393 100.807,64.223 100.399,64.053 99.991,63.883 99.583,63.713 99.175,63.544 98.682,63.340 98.189,63.136 97.696,62.932 97.203,62.728 96.710,62.524 96.217,62.320 95.724,62.116 95.231,61.912 94.585,61.623 93.939,61.334 93.293,61.045 92.647,60.756 92.001,60.467 88.704,62.831 88.058,62.542 87.412,62.253 86.885,62.049 86.358,61.845 85.831,61.641 85.304,61.437 84.777,61.233 84.250,61.029 83.723,60.825 83.196,60.621 82.635,60.315 82.074,60.009 81.513,59.703 80.952,59.397 80.391,59.091 79.830,58.785 79.269,58.479 78.708,58.173 78.368,57.986 78.028,57.799 77.688,57.612 77.348,57.425 77.008,57.238 76.668,57.051 76.328,56.864 75.988,56.677 75.444,56.456 74.900,56.235 74.356,56.014 73.812,55.793 73.268,55.572 72.724,55.351 72.180,55.130 71.636,54.909 71.194,54.637 70.752,54.365 70.311,54.093 69.869,53.821 69.427,53.549 68.985,53.277 68.543,53.005 68.101,52.733 67.642,52.495 67.183,52.257 66.724,52.019 66.265,51.782 65.806,51.544 65.347,51.306 64.888,51.068 64.429,50.830 63.970,50.524 63.511,50.218 63.052,49.912 62.593,49.606 62.134,49.300 61.675,48.994 61.216,48.688 60.757,48.382 60.281,48.161 59.805,47.940 59.329,47.719 58.853,47.498 58.377,47.277 57.901,47.056 57.425,46.835 56.949,46.614 56.626,46.342 56.303,46.070 55.980,45.798 55.657,45.526 55.334,45.254 55.011,44.982 54.688,44.710 54.365,44.438 54.093,44.217 53.821,43.996 53.549,43.775 53.277,43.554 53.005,43.333 52.733,43.112 52.461,42.891 52.189,42.670 51.816,42.415 51.442,42.160 51.068,41.905 50.694,41.650 50.320,41.395 49.946,41.140 49.572,40.885 49.198,40.630 48.705,40.307 48.212,39.984 47.719,39.661 47.226,39.338 46.733,39.015 46.240,38.692 45.747,38.369 45.254,38.046 44.846,37.791 44.438,37.536 44.030,37.281 43.622,37.026 43.214,36.771 42.806,36.516 42.398,36.261 41.990,36.006 41.667,35.802 41.344,35.598 41.021,35.394 40.698,35.190 40.375,34.986 40.052,34.782 39.729,34.578 39.406,34.374 39.066,34.068 38.726,33.762 38.386,33.456 38.046,33.150 37.706,32.845 37.366,32.539 37.026,32.233 36.686,31.927 36.261,31.519 35.836,31.111 35.411,30.703 34.986,30.295 34.561,29.887 34.136,29.479 33.711,29.071 33.286,28.663 32.964,28.357 32.641,28.051 32.318,27.745 31.995,27.439 31.672,27.133 31.349,26.827 31.026,26.521 30.703,26.215 30.516,25.977 30.329,25.739 30.142,25.501 29.955,25.263 29.768,25.025 29.581,24.787 29.394,24.549 29.207,24.311 29.003,23.937 28.799,23.563 28.595,23.189 28.391,22.815 28.187,22.441 27.983,22.067 27.779,21.693 27.575,21.319 27.371,20.962 27.167,20.605 26.963,20.248 26.759,19.891 26.555,19.534 26.351,19.177 26.147,18.820 25.943,18.463 25.807,18.140 25.671,17.817 25.535,17.494 25.399,17.171 25.263,16.848 25.127,16.525 24.991,16.202 24.855,15.879 24.685,15.556 24.515,15.233 24.345,14.910 24.175,14.587 24.005,14.265 23.835,13.942 23.665,13.619 23.495,13.296 23.342,12.956 23.189,12.616 23.036,12.276 22.883,11.936 22.730,11.596 22.577,11.256 22.424,10.916 22.271,10.576 22.084,10.236 21.897,9.896 21.710,9.556 21.523,9.216 21.336,8.876 21.149,8.536 20.962,8.196 20.775,7.856 20.503,7.584 20.231,7.312 19.959,7.040 19.687,6.768 19.415,6.496 19.143,6.224 18.871,5.952 18.599,5.680 18.361,5.612 18.123,5.544 17.885,5.476 17.647,5.408 17.409,5.340 17.171,5.272 16.933,5.204 16.695,5.136 16.423,5.119 16.151,5.102 15.879,5.085 15.607,5.068 15.335,5.051 15.063,5.034 14.791,5.017 14.519,5.000 14.163,5.085 13.806,5.170 13.449,5.255 13.092,5.340 12.735,5.425 12.378,5.510 12.021,5.595 11.664,5.680 11.256,5.884 10.848,6.088 10.440,6.292 10.032,6.496 9.624,6.700 9.216,6.904 8.808,7.108 8.400,7.312 8.179,7.533 7.958,7.754 7.737,7.975 7.516,8.196 7.295,8.417 7.074,8.638 6.853,8.859 6.632,9.080 6.513,9.369 6.394,9.658 6.275,9.947 6.156,10.236 6.037,10.525 5.918,10.814 5.799,11.103 5.680,11.392 5.629,11.613 5.578,11.834 5.527,12.055 5.476,12.276 5.425,12.497 5.374,12.718 5.323,12.939 5.272,13.160 5.238,13.636 5.204,14.112 5.170,14.587 5.136,15.063 5.102,15.539 5.068,16.015 5.034,16.491 5.000,16.967 5.051,17.409 5.102,17.851 5.153,18.293 5.204,18.735 5.255,19.177 5.306,19.619 5.357,20.061 5.408,20.503 5.459,20.945 5.510,21.387 5.561,21.829 5.612,22.271 5.663,22.713 5.714,23.155 5.765,23.597 5.816,24.039 5.969,24.464 6.122,24.889 6.275,25.314 6.428,25.739 6.581,26.164 6.734,26.589 6.887,27.014 7.040,27.439 7.210,27.796 7.380,28.153 7.550,28.510 7.720,28.867 7.890,29.224 8.060,29.581 8.230,29.938 8.400,30.295 8.570,30.822 8.740,31.349 8.910,31.876 9.080,32.403 9.250,32.930 9.420,33.456 9.590,33.983 9.760,34.510 9.964,34.918 10.168,35.326 10.372,35.734 10.576,36.142 10.780,36.550 10.984,36.958 11.188,37.366 11.392,37.774 11.664,38.148 11.936,38.522 12.208,38.896 12.480,39.270 12.752,39.644 13.024,40.018 13.296,40.392 13.568,40.766 13.823,41.106 14.078,41.446 14.332,41.786 14.587,42.126 14.842,42.466 15.097,42.806 15.352,43.146 15.607,43.486 16.015,43.928 16.423,44.370 16.831,44.812 17.239,45.254 17.647,45.696 18.055,46.138 18.463,46.580 18.871,47.022 19.041,47.226 19.211,47.430 19.381,47.634 19.551,47.838 19.721,48.042 19.891,48.246 20.061,48.450 20.231,48.654 20.571,48.960 20.911,49.266 21.251,49.572 21.591,49.878 21.931,50.184 22.271,50.490 22.611,50.796 22.951,51.102 23.325,51.340 23.699,51.578 24.073,51.816 24.447,52.053 24.821,52.291 25.195,52.529 25.569,52.767 25.943,53.005 26.232,53.243 26.521,53.481 26.810,53.719 27.099,53.957 27.388,54.195 27.677,54.433 27.966,54.671 28.255,54.909 28.595,55.249 28.935,55.589 29.275,55.929 29.615,56.269 29.955,56.609 30.295,56.949 30.635,57.289 30.975,57.629 31.366,57.867 31.757,58.105 32.148,58.343 32.539,58.581 32.930,58.819 33.320,59.057 33.711,59.295 34.102,59.533 34.459,59.754 34.816,59.975 35.173,60.196 35.530,60.417 35.887,60.638 36.244,60.859 36.601,61.080 36.958,61.301 37.315,61.522 37.672,61.743 38.029,61.964 38.386,62.185 38.743,62.406 39.100,62.627 39.457,62.848 39.814,63.069 40.239,63.188 40.664,63.307 41.089,63.426 41.514,63.545 41.939,63.664 42.364,63.783 42.789,63.902 43.214,64.021 43.639,64.259 44.064,64.497 44.489,64.735 44.914,64.973 45.339,65.211 45.764,65.449 46.189,65.687 46.614,65.925 46.886,66.061 47.158,66.197 47.430,66.333 47.702,66.469 47.974,66.605 48.246,66.741 48.518,66.877 48.790,67.013 49.045,67.149 49.300,67.285 49.555,67.421 49.810,67.557 50.065,67.693 50.320,67.829 50.575,67.965 50.830,68.101 51.238,68.373 51.646,68.645 52.053,68.917 52.461,69.189 52.869,69.461 53.277,69.733 53.685,70.005 54.093,70.277 54.280,70.362 54.467,70.447 54.654,70.531 54.841,70.616 55.028,70.701 55.215,70.786 55.402,70.871 55.589,70.956 55.861,71.109 56.133,71.262 56.405,71.415 56.677,71.568 56.949,71.721 57.221,71.874 57.493,72.027 57.765,72.180 58.088,72.316 58.411,72.452 58.734,72.588 59.057,72.724 59.380,72.860 59.703,72.996 60.026,73.132 60.349,73.268 60.655,73.387 60.961,73.506 61.267,73.625 61.573,73.744 61.879,73.863 62.185,73.982 62.491,74.101 62.797,74.220 63.154,74.356 63.511,74.492 63.868,74.628 64.225,74.764 64.582,74.900 64.939,75.036 65.296,75.172 65.653,75.308 65.908,75.427 66.163,75.546 66.418,75.665 66.673,75.784 66.928,75.903 67.183,76.022 67.438,76.141 67.693,76.260 67.880,76.396 68.067,76.532 68.254,76.668 68.441,76.804 68.628,76.940 68.815,77.076 69.002,77.212 69.189,77.348 69.461,77.433 69.733,77.518 70.005,77.603 70.277,77.688 70.549,77.773 70.820,77.858 71.092,77.943 71.364,78.028 71.840,78.283 72.316,78.538 72.792,78.793 73.268,79.048 73.744,79.303 74.220,79.558 74.696,79.813 75.172,80.068 75.614,80.340 76.056,80.612 76.498,80.884 76.940,81.156 77.382,81.428 77.824,81.700 78.266,81.972 78.708,82.244 79.235,82.516 79.762,82.788 80.289,83.060 80.816,83.332 81.343,83.604 81.870,83.876 82.397,84.148 82.924,84.420 83.213,84.505 83.502,84.590 83.791,84.675 84.080,84.760 84.369,84.845 84.658,84.930 84.947,85.015 85.236,85.100 85.712,85.287 86.188,85.474 86.664,85.661 87.140,85.848 87.616,86.035 88.092,86.222 88.568,86.409 89.044,86.596 89.366,86.766 89.689,86.936 90.012,87.106 90.335,87.276 90.658,87.446 90.981,87.616 91.304,87.786 91.627,87.956 92.018,88.194 92.409,88.432 92.800,88.669 93.191,88.907 93.582,89.145 93.973,89.383 94.364,89.621 94.755,89.859 95.027,89.944 95.299,90.029 95.571,90.114 95.843,90.199 96.115,90.284 96.387,90.369 96.659,90.454 96.931,90.539 97.356,90.743 97.781,90.947 98.206,91.151 98.631,91.355 99.056,91.559 99.481,91.763 99.906,91.967 100.331,92.171 100.688,92.273 101.045,92.375 101.402,92.477 101.759,92.579 102.116,92.681 102.473,92.783 102.830,92.885 103.187,92.987 103.493,93.123 103.799,93.259 104.105,93.395 104.411,93.531 104.717,93.667 105.023,93.803 105.329,93.939 105.635,94.075 105.958,94.194 106.281,94.313 106.604,94.432 106.927,94.551 107.250,94.670 107.573,94.789 107.896,94.908 108.218,95.027 108.660,95.214 109.102,95.401 109.544,95.588 109.986,95.775 110.428,95.962 110.870,96.149 111.312,96.336 111.754,96.523 112.247,96.710 112.740,96.897 113.233,97.084 113.726,97.271 114.219,97.458 114.712,97.645 115.205,97.832 115.698,98.019 115.936,98.138 116.174,98.257 116.412,98.376 116.650,98.495 116.888,98.614 117.126,98.733 117.364,98.852 117.602,98.971 118.265,99.158 118.928,99.345 119.591,99.532 120.254,99.719 120.917,99.906 121.580,100.093 122.243,100.280 122.906,100.467 123.263,100.688 123.620,100.909 123.977,101.130 124.334,101.351 124.691,101.572 125.048,101.793 125.405,102.014 125.762,102.235 126.187,102.371 126.612,102.507 127.036,102.643 127.461,102.779 127.886,102.915 128.311,103.051 128.736,103.187 129.161,103.323 129.637,103.493 130.113,103.663 130.589,103.833 131.065,104.003 131.541,104.173 132.017,104.343 132.493,104.513 132.969,104.683 133.326,104.819 133.683,104.955 134.040,105.091 134.397,105.227 134.754,105.363 135.111,105.499 135.468,105.635 135.825,105.771 135.995,105.839 136.165,105.906 136.335,105.974 136.505,106.042 136.675,106.110 136.845,106.178 137.015,106.246 137.185,106.314 137.967,106.603 138.749,106.892 139.531,107.181 140.313,107.470 141.095,107.759 141.877,108.048 142.659,108.337 143.441,108.626 143.764,108.711 144.087,108.796 144.410,108.881 144.733,108.966 145.056,109.051 145.379,109.136 145.701,109.221 146.024,109.306 146.636,109.544 147.248,109.782 147.860,110.020 148.472,110.258 149.084,110.496 149.696,110.734 150.308,110.972 150.920,111.210 151.430,111.380 151.940,111.550 152.450,111.720 152.960,111.890 153.470,112.060 153.980,112.230 154.490,112.400 155.000,112.570 155.442,112.859 155.884,113.148 156.326,113.437 156.768,113.726 157.210,114.015 157.652,114.304 158.094,114.593 158.536,114.882 158.842,115.205 159.148,115.528 159.454,115.851 159.760,116.174 160.066,116.497 160.372,116.820 160.678,117.143 160.984,117.466 161.035,117.704 161.086,117.942 161.137,118.180 161.188,118.418 161.239,118.656 161.290,118.894 161.341,119.132 161.392,119.370 161.409,119.863 161.426,120.356 161.443,120.849 161.460,121.342 161.477,121.835 161.494,122.328 161.511,122.821 161.527,123.314 161.375,123.671 161.222,124.028 161.069,124.385 160.916,124.742 160.763,125.099 160.610,125.456 160.457,125.813 160.304,126.170 160.134,126.612 159.964,127.053 159.794,127.495 159.624,127.937 159.454,128.379 159.284,128.821 159.114,129.263 158.944,129.705 158.740,130.011 158.536,130.317 158.332,130.623 158.128,130.929 157.924,131.235 157.720,131.541 157.516,131.847 157.312,132.153 157.142,132.374 156.972,132.595 156.802,132.816 156.632,133.037 156.462,133.258 156.292,133.479 156.122,133.700 155.952,133.921 155.731,134.312 155.510,134.703 155.289,135.094 155.068,135.485 154.847,135.876 154.626,136.267 154.405,136.658 154.184,137.049 154.031,137.423 153.878,137.797 153.725,138.171 153.572,138.545 153.419,138.919 153.266,139.293 153.113,139.667 152.960,140.041 152.858,140.551 152.756,141.061 152.654,141.571 152.552,142.081 152.450,142.591 152.348,143.101 152.246,143.611 152.144,144.121 152.314,144.444 152.484,144.767 152.654,145.090 152.824,145.413 152.994,145.736 153.164,146.058 153.334,146.381 153.504,146.704 153.895,147.095 154.286,147.486 154.677,147.877 155.068,148.268 155.459,148.659 155.850,149.050 156.241,149.441 156.632,149.832 157.057,149.951 157.482,150.070 157.907,150.189 158.332,150.308 158.757,150.427 159.182,150.546 159.607,150.665 160.032,150.784 160.882,150.903 161.731,151.022 162.581,151.141 163.431,151.260 164.281,151.379 165.131,151.498 165.981,151.617 166.831,151.736 167.069,151.974 167.307,152.212 167.545,152.450 167.783,152.688 168.361,153.266 168.939,153.844 169.517,154.422 170.095,155.000 170.520,154.966 170.945,154.932 171.370,154.898 171.795,154.864 172.220,154.830 172.645,154.796 173.070,154.762 173.495,154.728 173.835,154.626 174.175,154.524 174.515,154.422 174.855,154.320 175.195,154.218 175.535,154.116 175.875,154.014 176.215,153.912 176.317,153.827 176.419,153.742 176.521,153.657 176.623,153.572 176.725,153.487 176.827,153.402 176.929,153.317 177.031,153.232 177.388,152.807 177.745,152.382 178.102,151.957 178.459,151.532 178.816,151.107 179.173,150.682 179.530,150.257 179.887,149.832 180.091,149.407 180.295,148.982 180.498,148.557 180.702,148.132 180.906,147.707 181.110,147.282 181.314,146.857 181.518,146.432 181.603,146.211 181.688,145.990 181.773,145.769 181.858,145.548 181.943,145.327 182.028,145.106 182.113,144.885 182.198,144.664 182.453,144.222 182.708,143.781 182.963,143.339 183.218,142.897 183.473,142.455 183.728,142.013 183.983,141.571 184.238,141.129 184.425,140.772 184.612,140.415 184.799,140.058 184.986,139.701 185.173,139.344 185.360,138.987 185.547,138.630 185.734,138.273 186.040,137.984 186.346,137.695 186.652,137.406 186.958,137.117 187.264,136.828 187.570,136.539 187.876,136.250 188.182,135.961 188.352,135.740 188.522,135.519 188.692,135.298 188.862,135.077 189.032,134.856 189.202,134.635 189.372,134.414 189.542,134.193 189.950,133.972 190.358,133.751 190.766,133.530 191.174,133.309 191.582,133.088 191.990,132.867 192.398,132.646 192.806,132.425 193.350,132.153 193.894,131.881 194.438,131.609 194.982,131.337 195.526,131.065 196.070,130.793 196.614,130.521 197.157,130.249 197.344,130.198 197.531,130.147 197.718,130.096 197.905,130.045 198.092,129.994 198.279,129.943 198.466,129.892 198.653,129.841 199.265,129.739 199.877,129.637 200.489,129.535 201.101,129.433 201.713,129.331 202.325,129.229 202.937,129.127 203.549,129.025 203.991,129.008 204.433,128.991 204.875,128.974 205.317,128.957 205.759,128.940 206.201,128.923 206.643,128.906 207.085,128.889 207.374,128.906 207.663,128.923 207.952,128.940 208.241,128.957 208.530,128.974 208.819,128.991 209.108,129.008 209.397,129.025 209.771,129.144 210.145,129.263 210.519,129.382 210.893,129.501 211.267,129.620 211.641,129.739 212.015,129.858 212.389,129.977 212.933,130.130 213.477,130.283 214.021,130.436 214.565,130.589 215.109,130.742 215.653,130.895 216.196,131.048 216.740,131.201 217.029,131.269 217.318,131.337 217.607,131.405 217.896,131.473 218.185,131.541 218.474,131.609 218.763,131.677 219.052,131.745 219.511,131.847 219.970,131.949 220.429,132.051 220.888,132.153 221.347,132.255 221.806,132.357 222.265,132.459 222.724,132.561 223.166,132.663 223.608,132.765 224.050,132.867 224.492,132.969 224.934,133.071 225.376,133.173 225.818,133.275 226.260,133.377 226.634,133.496 227.008,133.615 227.382,133.734 227.756,133.853 228.130,133.972 228.504,134.091 228.878,134.210 229.252,134.329 229.813,134.448 230.374,134.567 230.935,134.686 231.496,134.805 232.057,134.924 232.618,135.043 233.179,135.162 233.740,135.281 234.335,135.451 234.929,135.621 235.524,135.791 236.119,135.961 236.714,136.131 237.309,136.301 237.904,136.471 238.499,136.641 238.907,136.760 239.315,136.879 239.723,136.998 240.131,137.117 240.539,137.236 240.947,137.355 241.355,137.474 241.763,137.593 242.035,137.644 242.307,137.695 242.579,137.746 242.851,137.797 243.123,137.848 243.395,137.899 243.667,137.950 243.939,138.001 244.398,138.103 244.857,138.205 245.316,138.307 245.775,138.409 246.234,138.511 246.693,138.613 247.152,138.715 247.611,138.817 248.121,138.953 248.631,139.089 249.141,139.225 249.651,139.361 250.161,139.497 250.671,139.633 251.181,139.769 251.691,139.905 251.997,139.922 252.303,139.939 252.609,139.955 252.915,139.972 253.221,139.989 253.526,140.006 253.832,140.023 254.138,140.040 254.597,140.091 255.056,140.142 255.515,140.193 255.974,140.244 256.433,140.295 256.892,140.346 257.351,140.397 257.810,140.448 258.354,140.618 258.898,140.788 259.442,140.958 259.986,141.128 260.530,141.298 261.074,141.468 261.618,141.638 262.162,141.808 262.502,141.944 262.842,142.080 263.182,142.216 263.522,142.352 263.862,142.488 264.202,142.624 264.542,142.760 264.882,142.896 265.035,142.981 265.188,143.066 265.341,143.151 265.494,143.236 265.647,143.321 265.800,143.406 265.953,143.491 269.370,140.313" fill="none" stroke="black" stroke-width="1"/>
</svg>
