<?xml version="1.0" encoding="UTF-8"?>
<svg xmlns="http://www.w3.org/2000/svg" width="387.3" height="160.0" viewBox="0 0 387.3 160.0">
  <polyline points="381.565,81.281 381.583,80.800 381.601,80.320 381.618,79.840 381.636,79.359 381.654,78.879 381.672,78.399 381.689,77.919 381.707,77.438 381.743,76.869 381.778,76.300 381.814,75.730 381.850,75.161 381.885,74.592 381.921,74.023 381.956,73.453 381.992,72.884 382.027,72.386 382.063,71.888 382.099,71.390 382.134,70.892 382.170,70.394 382.205,69.896 382.241,69.397 382.276,68.899 382.241,68.312 382.205,67.725 382.170,67.138 382.134,66.551 382.099,65.964 382.063,65.377 382.027,64.790 381.992,64.203 381.974,63.687 381.956,63.171 381.938,62.655 381.921,62.139 381.903,61.624 381.885,61.108 381.867,60.592 381.850,60.076 381.832,59.453 381.814,58.831 381.796,58.208 381.778,57.585 381.761,56.963 381.743,56.340 381.725,55.717 381.707,55.095 381.654,54.579 381.601,54.063 381.547,53.547 381.494,53.031 381.441,52.515 381.387,51.999 381.334,51.484 381.280,50.968 381.245,50.825 381.209,50.683 381.174,50.541 381.138,50.398 381.103,50.256 381.067,50.114 381.031,49.971 380.996,49.829 380.053,49.918 379.110,50.007 378.167,50.096 377.225,50.185 376.282,50.274 375.339,50.363 374.396,50.452 373.453,50.541 372.404,50.736 371.354,50.932 370.305,51.128 369.255,51.323 368.205,51.519 367.156,51.715 366.106,51.911 365.057,52.106 363.972,52.284 362.886,52.462 361.801,52.640 360.716,52.818 359.631,52.996 358.546,53.174 357.461,53.351 356.375,53.529 355.379,53.672 354.383,53.814 353.387,53.956 352.391,54.099 351.394,54.241 350.398,54.383 349.402,54.526 348.406,54.668 347.232,54.953 346.058,55.237 344.884,55.522 343.709,55.806 342.535,56.091 341.361,56.376 340.187,56.660 339.013,56.945 338.017,57.158 337.021,57.372 336.024,57.585 335.028,57.799 334.032,58.012 333.036,58.226 332.040,58.439 331.043,58.653 330.172,58.795 329.300,58.937 328.428,59.080 327.557,59.222 326.685,59.364 325.813,59.507 324.942,59.649 324.070,59.791 322.914,60.022 321.757,60.254 320.601,60.485 319.445,60.716 318.288,60.948 317.132,61.179 315.976,61.410 314.820,61.641 313.877,61.873 312.934,62.104 311.991,62.335 311.048,62.566 310.105,62.798 309.163,63.029 308.220,63.260 307.277,63.491 306.316,63.687 305.356,63.883 304.395,64.078 303.434,64.274 302.474,64.470 301.513,64.666 300.552,64.861 299.592,65.057 298.827,65.217 298.062,65.377 297.297,65.537 296.532,65.697 295.767,65.857 295.002,66.018 294.237,66.178 293.472,66.338 292.512,66.569 291.551,66.800 290.590,67.031 289.630,67.263 288.669,67.494 287.709,67.725 286.748,67.957 285.787,68.188 284.791,68.383 283.795,68.579 282.799,68.775 281.802,68.971 280.806,69.166 279.810,69.362 278.814,69.558 277.818,69.753 276.928,69.949 276.039,70.145 275.149,70.340 274.260,70.536 273.370,70.732 272.481,70.927 271.591,71.123 270.702,71.319 269.510,71.514 268.318,71.710 267.126,71.906 265.934,72.101 264.742,72.297 263.551,72.493 262.359,72.689 261.167,72.884 260.295,73.044 259.423,73.204 258.552,73.365 257.680,73.525 256.808,73.685 255.937,73.845 255.065,74.005 254.193,74.165 252.610,74.450 251.027,74.734 249.444,75.019 247.860,75.304 246.277,75.588 244.694,75.873 243.111,76.157 241.527,76.442 240.851,76.531 240.175,76.620 239.499,76.709 238.823,76.798 238.147,76.887 237.471,76.976 236.795,77.065 236.119,77.154 234.803,77.349 233.487,77.545 232.170,77.741 230.854,77.936 229.537,78.132 228.221,78.328 226.905,78.523 225.588,78.719 224.681,78.808 223.774,78.897 222.866,78.986 221.959,79.075 221.052,79.164 220.145,79.253 219.237,79.342 218.330,79.431 217.601,79.466 216.871,79.502 216.142,79.537 215.413,79.573 214.683,79.609 213.954,79.644 213.225,79.680 212.495,79.715 211.766,79.840 211.036,79.964 210.307,80.089 209.578,80.213 208.848,80.338 208.119,80.463 207.390,80.587 206.660,80.712 205.682,80.889 204.703,81.067 203.725,81.245 202.747,81.423 201.768,81.601 200.790,81.779 199.811,81.957 198.833,82.135 198.175,82.277 197.517,82.419 196.858,82.562 196.200,82.704 195.542,82.846 194.884,82.989 194.226,83.131 193.567,83.273 192.802,83.398 192.037,83.522 191.272,83.647 190.508,83.771 189.743,83.896 188.978,84.020 188.213,84.145 187.448,84.269 186.185,84.394 184.922,84.519 183.659,84.643 182.396,84.768 181.133,84.892 179.869,85.017 178.606,85.141 177.343,85.266 176.401,85.301 175.458,85.337 174.515,85.372 173.572,85.408 172.629,85.444 171.686,85.479 170.744,85.515 169.801,85.550 168.911,85.515 168.022,85.479 167.132,85.444 166.243,85.408 165.353,85.372 164.464,85.337 163.574,85.301 162.685,85.266 161.760,85.301 160.835,85.337 159.910,85.372 158.985,85.408 158.060,85.444 157.135,85.479 156.210,85.515 155.285,85.550 154.377,85.568 153.470,85.586 152.563,85.604 151.656,85.622 150.748,85.639 149.841,85.657 148.934,85.675 148.027,85.693 147.173,85.710 146.319,85.728 145.465,85.746 144.611,85.764 143.757,85.782 142.903,85.799 142.049,85.817 141.195,85.835 140.181,85.799 139.167,85.764 138.153,85.728 137.139,85.693 136.125,85.657 135.111,85.621 134.098,85.586 133.084,85.550 131.856,85.461 130.629,85.372 129.401,85.283 128.174,85.194 126.946,85.106 125.719,85.017 124.491,84.928 123.264,84.839 122.534,84.732 121.805,84.625 121.076,84.518 120.346,84.412 119.617,84.305 118.888,84.198 118.158,84.092 117.429,83.985 116.326,83.843 115.223,83.700 114.120,83.558 113.017,83.416 111.914,83.273 110.811,83.131 109.708,82.989 108.605,82.846 107.965,82.704 107.324,82.562 106.684,82.419 106.044,82.277 105.403,82.135 104.763,81.992 104.122,81.850 103.482,81.708 102.913,81.530 102.343,81.352 101.774,81.174 101.205,80.996 100.636,80.818 100.066,80.640 99.497,80.462 98.928,80.285 98.305,80.053 97.683,79.822 97.060,79.591 96.437,79.359 95.815,79.128 95.192,78.897 94.569,78.666 93.947,78.434 93.306,78.203 92.666,77.972 92.026,77.741 91.385,77.509 90.745,77.278 90.104,77.047 89.464,76.816 88.823,76.584 87.632,75.944 86.440,75.304 85.248,74.663 84.056,74.023 82.864,73.382 81.672,72.742 80.480,72.101 79.288,71.461 78.559,70.945 77.830,70.429 77.100,69.913 76.371,69.397 75.642,68.882 74.912,68.366 74.183,67.850 73.453,67.334 73.062,67.049 72.671,66.765 72.279,66.480 71.888,66.195 71.497,65.911 71.105,65.626 70.714,65.341 70.322,65.057 69.682,64.505 69.042,63.954 68.401,63.402 67.761,62.851 67.120,62.300 66.480,61.748 65.840,61.197 65.199,60.645 64.541,60.094 63.883,59.542 63.225,58.991 62.566,58.439 61.908,57.888 61.250,57.336 60.592,56.785 59.934,56.233 59.649,55.966 59.364,55.700 59.080,55.433 58.795,55.166 58.510,54.899 58.226,54.632 57.941,54.365 57.656,54.099 57.158,53.672 56.660,53.245 56.162,52.818 55.664,52.391 55.166,51.964 54.668,51.537 54.170,51.110 53.672,50.683 53.263,50.238 52.853,49.794 52.444,49.349 52.035,48.904 51.626,48.459 51.217,48.015 50.808,47.570 50.398,47.125 49.936,46.627 49.473,46.129 49.011,45.631 48.548,45.133 48.086,44.635 47.623,44.137 47.161,43.638 46.698,43.140 46.449,42.696 46.200,42.251 45.951,41.806 45.702,41.361 45.453,40.917 45.204,40.472 44.955,40.027 44.706,39.582 44.475,39.280 44.243,38.978 44.012,38.675 43.781,38.373 43.550,38.070 43.318,37.768 43.087,37.466 42.856,37.163 42.482,36.736 42.109,36.309 41.735,35.882 41.361,35.455 40.988,35.028 40.614,34.601 40.241,34.175 39.867,33.748 39.529,33.321 39.191,32.894 38.853,32.467 38.515,32.040 38.177,31.613 37.839,31.186 37.501,30.759 37.163,30.332 36.736,29.834 36.309,29.336 35.882,28.838 35.455,28.340 35.028,27.842 34.601,27.343 34.175,26.845 33.748,26.347 33.249,25.689 32.751,25.031 32.253,24.373 31.755,23.714 31.257,23.056 30.759,22.398 30.261,21.740 29.763,21.082 29.532,20.726 29.300,20.370 29.069,20.014 28.838,19.658 28.606,19.303 28.375,18.947 28.144,18.591 27.913,18.235 27.575,17.702 27.237,17.168 26.899,16.634 26.561,16.101 26.223,15.567 25.885,15.033 25.547,14.500 25.209,13.966 25.066,13.610 24.924,13.254 24.782,12.898 24.639,12.543 24.497,12.187 24.355,11.831 24.212,11.475 24.070,11.120 23.839,10.657 23.608,10.194 23.376,9.732 23.145,9.269 22.914,8.807 22.683,8.344 22.451,7.882 22.220,7.419 21.918,7.241 21.615,7.064 21.313,6.886 21.010,6.708 20.708,6.530 20.406,6.352 20.103,6.174 19.801,5.996 19.552,5.872 19.303,5.747 19.054,5.623 18.805,5.498 18.555,5.374 18.306,5.249 18.057,5.125 17.808,5.000 17.559,14.891 17.061,14.393 16.563,13.895 16.065,13.397 15.674,13.414 15.282,13.432 14.891,13.450 14.500,13.468 14.108,13.486 13.717,13.503 13.076,5.125 12.685,5.142 11.956,5.623 11.226,6.103 10.497,6.583 9.768,7.064 9.038,7.544 8.309,8.024 7.579,8.505 6.850,8.985 6.797,9.038 6.743,9.092 6.690,9.145 6.637,9.198 6.583,9.252 6.530,9.305 6.477,9.358 6.423,9.412 6.299,9.714 6.174,10.017 6.050,10.319 5.925,10.621 5.801,10.924 5.676,11.226 5.551,11.529 5.427,11.831 5.374,12.294 5.320,12.756 5.267,13.219 5.213,13.681 5.160,14.144 5.107,14.606 5.053,15.069 5.000,15.531 5.107,15.940 5.213,16.350 5.320,16.759 5.427,17.168 5.534,17.577 5.640,17.986 5.747,18.395 5.854,18.805 6.067,19.107 6.281,19.409 6.494,19.712 6.708,20.014 6.921,20.317 7.135,20.619 7.348,20.921 7.562,21.224 7.882,21.491 8.202,21.758 8.522,22.024 8.842,22.291 9.163,22.558 9.483,22.825 9.803,23.092 10.123,23.359 10.515,23.572 10.906,23.786 11.297,23.999 11.689,24.212 12.080,24.426 12.472,24.639 12.863,24.853 13.254,25.066 13.681,25.280 14.108,25.493 14.535,25.707 14.962,25.920 15.389,26.134 15.816,26.347 16.243,26.561 16.670,26.774 16.794,26.881 16.919,26.988 17.043,27.094 17.168,27.201 17.292,27.308 17.417,27.415 17.542,27.521 17.666,27.628 17.826,28.055 17.986,28.482 18.146,28.909 18.306,29.336 18.467,29.763 18.627,30.190 18.787,30.617 18.947,31.044 19.000,31.684 19.054,32.324 19.107,32.965 19.160,33.605 19.214,34.246 19.267,34.886 19.320,35.526 19.374,36.167 19.445,36.629 19.516,37.092 19.587,37.554 19.658,38.017 19.730,38.480 19.801,38.942 19.872,39.405 19.943,39.867 20.121,40.330 20.299,40.792 20.477,41.255 20.655,41.717 20.833,42.180 21.010,42.642 21.188,43.105 21.366,43.567 21.669,44.048 21.971,44.528 22.274,45.008 22.576,45.489 22.878,45.969 23.181,46.449 23.483,46.929 23.786,47.410 24.195,47.961 24.604,48.513 25.013,49.064 25.422,49.616 25.831,50.167 26.241,50.719 26.650,51.270 27.059,51.822 27.379,52.355 27.699,52.889 28.019,53.423 28.340,53.956 28.660,54.490 28.980,55.024 29.300,55.557 29.621,56.091 29.781,56.216 29.941,56.340 30.101,56.465 30.261,56.589 30.421,56.714 30.581,56.838 30.741,56.963 30.901,57.087 31.204,57.461 31.506,57.834 31.809,58.208 32.111,58.582 32.413,58.955 32.716,59.329 33.018,59.702 33.321,60.076 33.819,60.734 34.317,61.392 34.815,62.050 35.313,62.709 35.811,63.367 36.309,64.025 36.807,64.683 37.306,65.341 37.786,65.946 38.266,66.551 38.746,67.156 39.227,67.761 39.707,68.366 40.187,68.970 40.668,69.575 41.148,70.180 41.522,70.483 41.895,70.785 42.269,71.087 42.642,71.390 43.016,71.692 43.389,71.995 43.763,72.297 44.137,72.600 44.653,73.311 45.168,74.023 45.684,74.734 46.200,75.446 46.716,76.157 47.232,76.869 47.748,77.581 48.264,78.292 49.029,78.986 49.794,79.680 50.559,80.373 51.324,81.067 52.088,81.761 52.853,82.455 53.618,83.149 54.383,83.842 54.899,84.198 55.415,84.554 55.931,84.910 56.447,85.266 56.963,85.621 57.479,85.977 57.995,86.333 58.510,86.689 59.062,87.044 59.613,87.400 60.165,87.756 60.716,88.112 61.268,88.468 61.819,88.823 62.371,89.179 62.922,89.535 63.420,89.962 63.918,90.389 64.416,90.816 64.915,91.243 65.413,91.670 65.911,92.097 66.409,92.524 66.907,92.951 67.530,93.306 68.152,93.662 68.775,94.018 69.398,94.374 70.020,94.729 70.643,95.085 71.265,95.441 71.888,95.797 72.368,96.117 72.849,96.437 73.329,96.757 73.809,97.078 74.290,97.398 74.770,97.718 75.250,98.038 75.731,98.358 76.300,98.590 76.869,98.821 77.438,99.052 78.008,99.284 78.577,99.515 79.146,99.746 79.715,99.977 80.285,100.209 81.032,100.404 81.779,100.600 82.526,100.796 83.273,100.991 84.020,101.187 84.768,101.383 85.515,101.578 86.262,101.774 86.760,101.916 87.258,102.059 87.756,102.201 88.254,102.343 88.752,102.486 89.250,102.628 89.749,102.770 90.247,102.913 90.780,103.090 91.314,103.268 91.848,103.446 92.381,103.624 92.915,103.802 93.449,103.980 93.982,104.158 94.516,104.336 95.014,104.407 95.512,104.478 96.010,104.549 96.508,104.620 97.007,104.692 97.505,104.763 98.003,104.834 98.501,104.905 99.266,105.030 100.031,105.154 100.796,105.279 101.561,105.403 102.326,105.528 103.091,105.652 103.855,105.777 104.620,105.901 105.634,106.026 106.648,106.150 107.662,106.275 108.676,106.399 109.690,106.524 110.704,106.648 111.718,106.773 112.732,106.897 113.444,106.933 114.156,106.969 114.867,107.004 115.579,107.040 116.290,107.075 117.002,107.111 117.713,107.147 118.425,107.182 119.030,107.218 119.635,107.253 120.239,107.289 120.844,107.324 121.449,107.360 122.054,107.396 122.659,107.431 123.264,107.467 124.118,107.520 124.971,107.574 125.825,107.627 126.679,107.680 127.533,107.734 128.387,107.787 129.241,107.840 130.095,107.894 130.895,107.929 131.696,107.965 132.496,108.000 133.297,108.036 134.097,108.072 134.898,108.107 135.698,108.143 136.499,108.178 137.228,108.214 137.958,108.250 138.687,108.285 139.416,108.321 140.146,108.356 140.875,108.392 141.604,108.427 142.334,108.463 142.761,108.890 143.188,109.317 143.615,109.744 144.042,110.171 144.789,110.224 145.536,110.278 146.283,110.331 147.030,110.384 147.777,110.438 148.525,110.491 149.272,110.544 150.019,110.598 150.535,110.633 151.051,110.669 151.567,110.704 152.082,110.740 152.598,110.776 153.114,110.811 153.630,110.847 154.146,110.882 154.858,110.918 155.569,110.954 156.281,110.989 156.992,111.025 157.704,111.060 158.415,111.096 159.127,111.131 159.839,111.167 160.337,111.203 160.835,111.238 161.333,111.274 161.831,111.309 162.329,111.345 162.827,111.381 163.325,111.416 163.823,111.452 164.446,111.523 165.069,111.594 165.691,111.665 166.314,111.736 166.937,111.808 167.559,111.879 168.182,111.950 168.804,112.021 169.249,112.074 169.694,112.128 170.139,112.181 170.583,112.234 171.028,112.288 171.473,112.341 171.918,112.395 172.362,112.448 172.985,112.484 173.608,112.519 174.230,112.555 174.853,112.590 175.475,112.626 176.098,112.661 176.721,112.697 177.343,112.733 177.948,112.804 178.553,112.875 179.158,112.946 179.763,113.017 180.367,113.088 180.972,113.160 181.577,113.231 182.182,113.302 182.573,113.391 182.965,113.480 183.356,113.569 183.747,113.658 184.139,113.747 184.530,113.836 184.922,113.924 185.313,114.013 185.562,114.138 185.811,114.262 186.060,114.387 186.309,114.512 186.558,114.636 186.807,114.761 187.056,114.885 187.305,115.010 187.679,115.259 188.052,115.508 188.426,115.757 188.800,116.006 189.173,116.255 189.547,116.504 189.920,116.753 190.294,117.002 190.596,117.393 190.899,117.785 191.201,118.176 191.504,118.568 191.806,118.959 192.108,119.350 192.411,119.742 192.713,120.133 192.909,120.756 193.105,121.378 193.300,122.001 193.496,122.624 193.692,123.246 193.887,123.869 194.083,124.491 194.279,125.114 194.261,125.737 194.243,126.359 194.225,126.982 194.208,127.605 194.190,128.227 194.172,128.850 194.154,129.472 194.136,130.095 193.959,130.807 193.781,131.518 193.603,132.230 193.425,132.941 193.247,133.653 193.069,134.364 192.891,135.076 192.713,135.788 192.624,136.072 192.535,136.357 192.447,136.642 192.358,136.926 192.269,137.211 192.180,137.495 192.091,137.780 192.002,138.065 191.717,138.616 191.433,139.168 191.148,139.719 190.863,140.271 190.579,140.822 190.294,141.373 190.010,141.925 189.725,142.476 189.654,143.081 189.583,143.686 189.512,144.291 189.440,144.896 189.369,145.501 189.298,146.105 189.227,146.710 189.156,147.315 189.138,147.671 189.120,148.027 189.103,148.382 189.085,148.738 189.067,149.094 189.049,149.450 189.031,149.806 189.014,150.161 189.156,150.410 189.298,150.660 189.440,150.909 189.583,151.158 189.725,151.407 189.867,151.656 190.009,151.905 190.152,152.154 190.757,152.456 191.361,152.759 191.966,153.061 192.571,153.364 193.176,153.666 193.781,153.968 194.386,154.271 194.990,154.573 195.702,154.627 196.414,154.680 197.125,154.733 197.837,154.787 198.548,154.840 199.260,154.893 199.971,154.947 200.683,155.000 201.270,154.982 201.857,154.964 202.444,154.947 203.031,154.929 203.618,154.911 204.205,154.893 204.792,154.876 205.379,154.858 205.984,154.751 206.589,154.644 207.194,154.538 207.799,154.431 208.404,154.324 209.008,154.218 209.613,154.111 210.218,154.004 210.503,153.791 210.787,153.577 211.072,153.364 211.357,153.150 211.641,152.937 211.926,152.723 212.211,152.510 212.495,152.296 212.726,151.709 212.958,151.122 213.189,150.535 213.420,149.948 213.651,149.361 213.883,148.774 214.114,148.187 214.345,147.600 214.879,146.799 215.413,145.999 215.946,145.198 216.480,144.398 217.014,143.597 217.547,142.797 218.081,141.996 218.615,141.196 218.864,140.573 219.113,139.951 219.362,139.328 219.611,138.705 219.860,138.083 220.109,137.460 220.358,136.837 220.607,136.215 220.732,135.841 220.856,135.468 220.981,135.094 221.105,134.720 221.230,134.347 221.354,133.973 221.479,133.600 221.603,133.226 222.012,132.497 222.421,131.767 222.830,131.038 223.240,130.309 223.649,129.579 224.058,128.850 224.467,128.121 224.876,127.391 225.392,126.769 225.908,126.146 226.424,125.523 226.940,124.901 227.456,124.278 227.972,123.655 228.487,123.033 229.003,122.410 229.501,121.699 230.000,120.987 230.498,120.275 230.996,119.564 231.494,118.852 231.992,118.141 232.490,117.429 232.988,116.718 233.504,116.113 234.020,115.508 234.536,114.903 235.052,114.298 235.568,113.693 236.084,113.089 236.599,112.484 237.115,111.879 237.578,111.434 238.040,110.989 238.503,110.545 238.965,110.100 239.428,109.655 239.890,109.211 240.353,108.766 240.816,108.321 241.580,107.841 242.345,107.360 243.110,106.880 243.875,106.400 244.640,105.919 245.405,105.439 246.170,104.959 246.935,104.479 247.789,104.016 248.643,103.554 249.497,103.091 250.351,102.628 251.204,102.166 252.058,101.703 252.912,101.241 253.766,100.778 254.353,100.458 254.940,100.138 255.527,99.818 256.114,99.498 256.701,99.177 257.288,98.857 257.875,98.537 258.463,98.217 259.121,97.932 259.779,97.647 260.437,97.363 261.095,97.078 261.754,96.794 262.412,96.509 263.070,96.224 263.728,95.940 264.600,95.691 265.472,95.442 266.343,95.193 267.215,94.943 268.087,94.694 268.958,94.445 269.830,94.196 270.702,93.947 271.502,93.769 272.303,93.591 273.103,93.414 273.904,93.236 274.704,93.058 275.505,92.880 276.305,92.702 277.106,92.524 278.440,92.204 279.774,91.884 281.108,91.563 282.443,91.243 283.777,90.923 285.111,90.603 286.445,90.283 287.779,89.962 288.989,89.731 290.199,89.500 291.408,89.269 292.618,89.037 293.828,88.806 295.037,88.575 296.247,88.344 297.457,88.112 298.435,88.006 299.414,87.899 300.392,87.792 301.370,87.685 302.349,87.579 303.327,87.472 304.306,87.365 305.284,87.258 306.031,87.223 306.778,87.187 307.526,87.152 308.273,87.116 309.020,87.081 309.767,87.045 310.514,87.009 311.261,86.974 312.062,86.938 312.862,86.903 313.663,86.867 314.463,86.831 315.264,86.796 316.064,86.760 316.865,86.725 317.666,86.689 318.591,86.582 319.516,86.476 320.441,86.369 321.366,86.262 322.291,86.155 323.216,86.049 324.141,85.942 325.066,85.835 325.831,85.764 326.596,85.693 327.361,85.622 328.126,85.551 328.891,85.480 329.656,85.408 330.420,85.337 331.185,85.266 332.182,85.248 333.178,85.231 334.174,85.213 335.170,85.195 336.166,85.177 337.163,85.159 338.159,85.142 339.155,85.124 339.707,85.088 340.258,85.053 340.809,85.017 341.361,84.981 341.912,84.946 342.464,84.910 343.015,84.875 343.567,84.839 344.278,84.804 344.990,84.768 345.702,84.732 346.413,84.697 347.125,84.661 347.836,84.626 348.548,84.590 349.259,84.554 351.003,84.466 352.746,84.377 354.489,84.288 356.233,84.199 357.976,84.110 359.720,84.021 361.463,83.932 363.206,83.843 364.078,83.825 364.950,83.807 365.821,83.790 366.693,83.772 367.565,83.754 368.436,83.736 369.308,83.718 370.180,83.701 370.607,83.683 371.034,83.665 371.461,83.647 371.887,83.629 372.314,83.612 372.741,83.594 373.168,83.576 373.595,83.558 373.987,83.950 374.378,84.341 374.769,84.732 375.161,85.124 375.552,85.053 375.943,84.981 376.335,84.910 376.726,84.839 377.117,84.768 377.509,84.697 377.900,84.626 381.565,81.281" fill="none" stroke="black" stroke-width="1"/>
</svg>
