<?xml version="1.0" encoding="UTF-8"?>
<svg xmlns="http://www.w3.org/2000/svg" width="123.1" height="160.0" viewBox="0 0 123.1 160.0">
  <polyline points="118.060,134.431 117.150,133.521 116.241,132.612 116.276,131.702 116.311,130.793 116.346,129.883 116.381,128.974 116.416,127.854 116.451,126.735 116.486,125.616 116.521,124.496 116.486,123.377 116.451,122.257 116.416,121.138 116.381,120.019 116.416,118.794 116.451,117.570 116.486,116.346 116.521,115.121 116.555,114.177 116.590,113.232 116.625,112.288 116.660,111.343 116.625,109.769 116.590,108.195 116.555,106.621 116.521,105.047 115.506,104.942 114.492,104.837 113.477,104.732 112.463,104.627 110.609,104.942 108.755,105.257 106.901,105.571 105.047,105.886 103.158,106.096 101.269,106.306 99.380,106.516 97.491,106.726 95.532,107.076 93.573,107.425 91.614,107.775 89.655,108.125 87.871,108.440 86.087,108.755 84.303,109.070 82.519,109.384 80.805,109.664 79.090,109.944 77.376,110.224 75.662,110.504 74.823,110.644 73.983,110.784 73.144,110.924 72.304,111.063 71.674,110.469 71.045,109.874 70.415,109.279 69.785,108.685 69.121,107.215 68.456,105.746 67.792,104.277 67.127,102.808 65.972,100.534 64.818,98.260 63.664,95.986 62.509,93.713 61.775,91.964 61.040,90.215 60.305,88.465 59.571,86.716 58.626,84.967 57.682,83.218 56.737,81.469 55.793,79.720 55.198,78.356 54.604,76.992 55.828,73.808 55.233,72.444 54.569,71.010 53.904,69.576 53.239,68.141 52.575,66.707 51.980,65.168 51.385,63.629 50.791,62.090 50.196,60.550 49.111,58.556 48.027,56.562 46.943,54.569 45.858,52.575 45.299,51.525 44.739,50.476 44.179,49.426 43.619,48.377 42.885,47.118 42.150,45.858 41.416,44.599 40.681,43.340 39.806,41.975 38.932,40.611 38.057,39.247 37.183,37.882 36.553,36.763 35.924,35.644 35.294,34.524 34.664,33.405 34.174,32.250 33.685,31.096 33.195,29.942 32.705,28.787 31.831,27.388 30.956,25.989 30.082,24.590 29.207,23.190 28.228,21.546 27.248,19.902 26.269,18.258 25.289,16.614 24.275,15.040 23.260,13.465 22.246,11.891 21.231,10.317 19.937,8.988 18.643,7.659 17.348,6.329 16.054,5.000 15.459,5.035 14.865,5.070 14.270,5.105 13.675,5.140 12.661,5.560 11.646,5.979 10.632,6.399 9.618,6.819 8.848,7.414 8.078,8.008 7.309,8.603 6.539,9.198 6.154,10.002 5.770,10.807 5.385,11.611 5.000,12.416 5.280,13.396 5.560,14.375 5.840,15.354 6.119,16.334 6.889,17.628 7.659,18.923 8.428,20.217 9.198,21.511 9.827,22.631 10.457,23.750 11.087,24.869 11.716,25.989 12.416,27.423 13.116,28.857 13.815,30.292 14.515,31.726 15.459,33.510 16.404,35.294 17.348,37.078 18.293,38.862 19.342,40.681 20.392,42.500 21.441,44.319 22.491,46.138 23.680,48.272 24.869,50.406 26.059,52.540 27.248,54.674 28.542,57.332 29.837,59.991 31.131,62.649 32.425,65.308 33.580,67.407 34.734,69.506 35.889,71.604 37.043,73.703 37.778,74.508 38.512,75.312 39.247,76.117 39.981,76.922 40.051,77.831 40.121,78.741 40.191,79.650 40.261,80.560 41.031,82.029 41.800,83.498 42.570,84.967 43.340,86.437 44.599,88.955 45.858,91.474 47.118,93.993 48.377,96.511 49.741,98.925 51.105,101.339 52.470,103.752 53.834,106.166 54.499,107.425 55.163,108.685 55.828,109.944 56.493,111.203 57.052,112.393 57.612,113.582 58.172,114.771 58.731,115.961 59.186,116.905 59.641,117.850 60.096,118.794 60.550,119.739 61.775,120.194 62.999,120.648 64.223,121.103 65.448,121.558 66.497,122.222 67.547,122.887 68.596,123.552 69.646,124.216 70.590,124.916 71.535,125.616 72.479,126.315 73.423,127.015 74.473,127.819 75.522,128.624 76.572,129.429 77.621,130.233 77.971,130.828 78.321,131.423 78.671,132.017 79.021,132.612 78.356,133.871 77.691,135.131 77.027,136.390 76.362,137.649 75.312,139.188 74.263,140.728 73.214,142.267 72.164,143.806 71.604,144.576 71.045,145.345 70.485,146.115 69.925,146.884 70.310,147.899 70.695,148.913 71.080,149.928 71.465,150.942 71.849,151.782 72.234,152.621 72.619,153.461 73.004,154.300 74.018,154.475 75.033,154.650 76.047,154.825 77.062,155.000 78.531,154.965 80.000,154.930 81.469,154.895 82.938,154.860 83.813,154.825 84.687,154.790 85.562,154.755 86.437,154.720 87.206,153.636 87.976,152.551 88.745,151.467 89.515,150.382 90.704,148.878 91.894,147.374 93.083,145.870 94.272,144.366 94.797,143.456 95.322,142.547 95.847,141.637 96.371,140.728 97.176,139.853 97.980,138.979 98.785,138.104 99.590,137.229 100.674,136.145 101.758,135.061 102.843,133.976 103.927,132.892 104.627,132.157 105.326,131.423 106.026,130.688 106.726,129.953 107.740,130.233 108.755,130.513 109.769,130.793 110.784,131.073 111.658,131.458 112.533,131.842 113.407,132.227 114.282,132.612 115.226,133.067 116.171,133.521 117.115,133.976 118.060,134.431" fill="none" stroke="black" stroke-width="1"/>
</svg>
