<?xml version="1.0" encoding="UTF-8"?>
<svg xmlns="http://www.w3.org/2000/svg" width="290.3" height="160.0" viewBox="0 0 290.3 160.0">
  <polyline points="285.280,113.726 284.726,113.172 284.172,112.618 283.618,112.064 283.064,111.510 283.047,111.025 283.029,110.540 283.012,110.055 282.995,109.570 282.978,109.086 282.960,108.601 282.943,108.116 282.926,107.631 282.978,107.164 283.030,106.697 283.082,106.229 283.133,105.762 283.185,105.294 283.237,104.827 283.289,104.359 283.341,103.892 283.306,103.494 283.272,103.095 283.237,102.697 283.203,102.299 283.168,101.901 283.133,101.503 283.099,101.104 283.064,100.706 283.047,100.239 283.029,99.771 283.012,99.304 282.995,98.836 282.978,98.369 282.960,97.902 282.943,97.434 282.926,96.967 282.978,96.603 283.030,96.239 283.082,95.876 283.133,95.512 283.185,95.149 283.237,94.785 283.289,94.422 283.341,94.058 283.358,93.729 283.376,93.400 283.393,93.071 283.410,92.742 283.427,92.413 283.445,92.084 283.462,91.755 283.479,91.426 282.873,91.323 282.267,91.219 281.661,91.115 281.055,91.011 280.450,90.907 279.844,90.803 279.238,90.699 278.632,90.595 278.130,90.630 277.628,90.665 277.125,90.699 276.623,90.734 276.121,90.769 275.619,90.803 275.117,90.838 274.615,90.872 274.113,90.907 273.611,90.942 273.109,90.976 272.607,91.011 272.105,91.046 271.603,91.080 271.101,91.115 270.598,91.150 269.629,90.180 268.659,89.210 267.690,88.241 266.720,87.271 265.508,87.289 264.297,87.306 263.085,87.323 261.873,87.341 260.661,87.358 259.449,87.375 258.237,87.393 257.025,87.410 255.865,87.323 254.705,87.237 253.545,87.150 252.385,87.064 251.225,86.977 250.065,86.891 248.905,86.804 247.745,86.717 246.464,85.436 245.183,84.155 243.902,82.874 242.621,81.593 241.426,81.679 240.231,81.766 239.037,81.852 237.842,81.939 236.648,82.026 235.453,82.112 234.258,82.199 233.064,82.285 232.008,82.251 230.952,82.216 229.896,82.181 228.840,82.147 227.783,82.112 226.727,82.077 225.671,82.043 224.615,82.008 224.061,81.454 223.507,80.900 222.953,80.346 222.399,79.792 221.412,79.844 220.425,79.896 219.439,79.948 218.452,80.000 217.465,80.052 216.478,80.104 215.491,80.156 214.504,80.208 213.569,80.329 212.635,80.450 211.700,80.571 210.765,80.692 209.830,80.814 208.895,80.935 207.960,81.056 207.025,81.177 206.211,81.246 205.398,81.316 204.584,81.385 203.770,81.454 202.957,81.523 202.143,81.593 201.329,81.662 200.515,81.731 199.598,81.766 198.680,81.800 197.763,81.835 196.845,81.870 195.928,81.904 195.010,81.939 194.092,81.974 193.175,82.008 192.690,82.026 192.205,82.043 191.720,82.060 191.236,82.077 190.751,82.095 190.266,82.112 189.781,82.129 189.297,82.147 188.275,82.181 187.254,82.216 186.232,82.251 185.211,82.285 184.189,82.320 183.168,82.355 182.146,82.389 181.125,82.424 180.000,81.298 178.874,80.173 177.749,79.048 176.624,77.922 175.602,77.957 174.581,77.992 173.559,78.026 172.538,78.061 171.516,78.096 170.495,78.130 169.473,78.165 168.452,78.199 167.759,77.507 167.067,76.814 166.374,76.122 165.682,75.429 164.660,75.256 163.639,75.083 162.617,74.910 161.596,74.737 160.574,74.564 159.553,74.391 158.531,74.217 157.510,74.044 156.835,73.958 156.160,73.871 155.484,73.785 154.809,73.698 154.134,73.612 153.459,73.525 152.784,73.438 152.108,73.352 151.035,73.161 149.962,72.971 148.888,72.781 147.815,72.590 146.741,72.400 145.668,72.209 144.594,72.019 143.521,71.828 142.742,71.655 141.963,71.482 141.184,71.309 140.405,71.136 139.626,70.963 138.847,70.790 138.067,70.616 137.288,70.443 136.665,70.253 136.042,70.062 135.419,69.872 134.795,69.681 134.172,69.491 133.549,69.301 132.926,69.110 132.302,68.920 131.523,68.729 130.744,68.539 129.965,68.348 129.186,68.158 128.407,67.967 127.628,67.777 126.849,67.587 126.070,67.396 125.221,67.240 124.373,67.085 123.525,66.929 122.676,66.773 121.828,66.617 104.706,82.735 103.857,82.580 103.009,82.424 102.247,82.199 101.485,81.974 100.724,81.748 99.962,81.523 99.200,81.298 98.438,81.073 97.676,80.848 96.915,80.623 96.395,80.415 95.876,80.208 95.357,80.000 94.837,79.792 94.318,79.584 93.798,79.377 93.279,79.169 92.760,78.961 92.102,78.598 91.444,78.234 90.786,77.870 90.128,77.507 89.470,77.143 88.812,76.780 88.154,76.416 87.496,76.053 86.994,75.845 86.492,75.637 85.990,75.429 85.488,75.221 84.986,75.014 84.484,74.806 83.982,74.598 83.480,74.390 83.012,74.148 82.545,73.906 82.077,73.663 81.610,73.421 81.143,73.179 80.675,72.936 80.208,72.694 79.740,72.451 79.325,72.088 78.909,71.724 78.494,71.361 78.078,70.997 77.663,70.634 77.247,70.270 76.832,69.906 76.416,69.543 76.053,69.214 75.689,68.885 75.325,68.556 74.962,68.227 74.598,67.898 74.235,67.569 73.871,67.240 73.508,66.911 72.953,66.530 72.399,66.149 71.845,65.769 71.291,65.388 70.737,65.007 70.183,64.626 69.629,64.245 69.075,63.864 68.573,63.431 68.071,62.999 67.569,62.566 67.067,62.133 66.565,61.700 66.063,61.267 65.561,60.834 65.059,60.402 64.557,59.899 64.055,59.397 63.553,58.895 63.050,58.393 62.548,57.891 62.046,57.389 61.544,56.887 61.042,56.385 60.696,55.866 60.350,55.346 60.003,54.827 59.657,54.307 59.311,53.788 58.965,53.269 58.618,52.749 58.272,52.230 57.995,51.728 57.718,51.226 57.441,50.724 57.164,50.222 56.887,49.719 56.610,49.217 56.333,48.715 56.056,48.213 55.779,47.780 55.502,47.348 55.225,46.915 54.948,46.482 54.671,46.049 54.394,45.616 54.117,45.183 53.840,44.751 53.303,43.833 52.767,42.915 52.230,41.998 51.693,41.080 51.156,40.163 50.620,39.245 50.083,38.328 49.546,37.410 48.975,36.717 48.404,36.025 47.832,35.332 47.261,34.640 46.690,33.947 46.118,33.255 45.547,32.562 44.976,31.870 44.612,31.264 44.249,30.658 43.885,30.052 43.521,29.446 43.158,28.840 42.794,28.234 42.431,27.628 42.067,27.022 41.669,26.572 41.271,26.122 40.873,25.672 40.474,25.222 40.076,24.771 39.678,24.321 39.280,23.871 38.882,23.421 38.674,23.023 38.466,22.625 38.258,22.226 38.051,21.828 37.843,21.430 37.635,21.032 37.427,20.634 37.219,20.235 36.960,19.889 36.700,19.543 36.440,19.197 36.181,18.850 35.921,18.504 35.661,18.158 35.402,17.812 35.142,17.465 34.830,17.154 34.519,16.842 34.207,16.530 33.895,16.219 33.584,15.907 33.272,15.596 32.960,15.284 32.649,14.972 32.216,14.488 31.783,14.003 31.350,13.518 30.918,13.033 30.485,12.548 30.052,12.064 29.619,11.579 29.186,11.094 28.857,10.765 28.528,10.436 28.199,10.107 27.870,9.778 27.542,9.449 27.213,9.120 26.884,8.792 26.555,8.463 26.174,8.238 25.793,8.012 25.412,7.787 25.031,7.562 24.650,7.337 24.269,7.112 23.888,6.887 23.508,6.662 23.248,6.524 22.988,6.385 22.729,6.247 22.469,6.108 22.209,5.970 21.949,5.831 21.690,5.693 21.430,5.554 20.963,5.485 20.495,5.416 20.028,5.346 19.560,5.277 19.093,5.208 18.625,5.139 18.158,5.069 17.690,5.000 17.084,17.915 15.873,16.704 14.661,15.492 13.449,14.280 13.051,14.366 12.652,14.453 12.254,14.539 11.856,14.626 11.458,14.713 11.060,14.799 10.661,14.886 10.263,14.972 9.917,15.111 9.571,15.249 9.224,15.388 8.878,15.526 8.532,15.665 8.186,15.803 7.839,15.942 7.493,16.080 7.199,16.461 6.904,16.842 6.610,17.223 6.316,17.604 6.021,17.985 5.727,18.366 5.433,18.747 5.139,19.127 5.121,19.508 5.104,19.889 5.087,20.270 5.069,20.651 5.052,21.032 5.035,21.413 5.017,21.794 5.000,22.174 5.104,22.607 5.208,23.040 5.312,23.473 5.416,23.906 5.519,24.339 5.623,24.771 5.727,25.204 5.831,25.637 5.970,25.862 6.108,26.087 6.247,26.312 6.385,26.537 6.524,26.762 6.662,26.987 6.801,27.213 6.939,27.438 7.458,27.749 7.978,28.061 8.497,28.373 9.017,28.684 9.536,28.996 10.055,29.307 10.575,29.619 11.094,29.931 11.354,30.190 11.614,30.450 11.873,30.710 12.133,30.969 12.410,30.952 12.687,30.935 12.964,30.918 13.241,30.900 13.518,30.883 13.795,30.866 14.072,30.848 14.349,30.831 14.713,31.246 15.076,31.662 15.440,32.078 15.803,32.493 16.167,32.909 16.530,33.324 16.894,33.740 17.258,34.155 17.483,34.588 17.708,35.021 17.933,35.454 18.158,35.886 18.383,36.319 18.608,36.752 18.833,37.185 19.058,37.618 19.127,37.808 19.197,37.999 19.266,38.189 19.335,38.379 19.404,38.570 19.474,38.760 19.543,38.951 19.612,39.141 19.768,39.557 19.924,39.972 20.080,40.388 20.235,40.803 20.391,41.219 20.547,41.634 20.703,42.050 20.859,42.465 21.032,42.742 21.205,43.019 21.378,43.296 21.551,43.573 21.724,43.850 21.897,44.127 22.071,44.404 22.244,44.681 22.382,45.010 22.521,45.339 22.659,45.668 22.798,45.997 22.936,46.326 23.075,46.655 23.213,46.984 23.352,47.313 23.456,47.486 23.559,47.659 23.663,47.832 23.767,48.005 23.871,48.179 23.975,48.352 24.079,48.525 24.183,48.698 24.529,49.183 24.875,49.667 25.222,50.152 25.568,50.637 25.914,51.122 26.260,51.607 26.607,52.091 26.953,52.576 27.143,52.922 27.334,53.269 27.524,53.615 27.715,53.961 27.905,54.307 28.095,54.654 28.286,55.000 28.476,55.346 28.771,55.866 29.065,56.385 29.359,56.904 29.654,57.424 29.948,57.943 30.242,58.462 30.537,58.982 30.831,59.501 31.056,59.899 31.281,60.298 31.506,60.696 31.731,61.094 31.956,61.492 32.181,61.890 32.406,62.289 32.631,62.687 32.926,63.172 33.220,63.656 33.514,64.141 33.809,64.626 34.103,65.111 34.397,65.595 34.692,66.080 34.986,66.565 35.315,67.136 35.644,67.708 35.973,68.279 36.302,68.850 36.631,69.422 36.960,69.993 37.289,70.564 37.618,71.136 37.981,71.672 38.345,72.209 38.708,72.746 39.072,73.282 39.435,73.819 39.799,74.356 40.163,74.893 40.526,75.429 40.665,75.620 40.803,75.810 40.942,76.001 41.080,76.191 41.219,76.381 41.357,76.572 41.496,76.762 41.634,76.953 42.084,77.645 42.535,78.338 42.985,79.030 43.435,79.723 43.885,80.415 44.335,81.108 44.785,81.800 45.235,82.493 45.408,82.770 45.582,83.047 45.755,83.324 45.928,83.601 46.101,83.878 46.274,84.155 46.447,84.432 46.620,84.709 46.915,85.159 47.209,85.609 47.503,86.059 47.798,86.510 48.092,86.960 48.386,87.410 48.681,87.860 48.975,88.310 49.390,88.916 49.806,89.522 50.221,90.128 50.637,90.734 51.053,91.340 51.468,91.946 51.884,92.552 52.299,93.158 52.524,93.469 52.749,93.781 52.974,94.093 53.199,94.404 53.424,94.716 53.649,95.028 53.875,95.339 54.100,95.651 54.567,96.239 55.035,96.828 55.502,97.417 55.969,98.005 56.437,98.594 56.904,99.183 57.372,99.771 57.839,100.360 58.168,100.672 58.497,100.983 58.826,101.295 59.155,101.606 59.484,101.918 59.813,102.230 60.142,102.541 60.471,102.853 60.938,103.199 61.406,103.546 61.873,103.892 62.341,104.238 62.808,104.584 63.275,104.931 63.743,105.277 64.210,105.623 64.764,105.952 65.318,106.281 65.872,106.610 66.426,106.939 66.980,107.268 67.534,107.597 68.088,107.926 68.643,108.255 69.197,108.410 69.751,108.566 70.305,108.722 70.859,108.878 71.413,109.034 71.967,109.190 72.521,109.345 73.075,109.501 73.992,99.304 74.477,99.425 74.962,99.546 75.447,99.667 75.931,99.789 76.416,99.910 76.901,100.031 77.386,100.152 78.130,100.343 78.875,100.533 79.619,100.724 80.363,100.914 81.108,101.104 81.852,101.295 82.597,101.485 83.341,101.676 84.103,101.814 84.865,101.953 85.627,102.091 86.388,102.230 87.150,102.368 87.912,102.507 88.674,102.645 89.435,102.784 89.764,102.957 90.093,103.130 90.422,103.303 90.751,103.476 91.080,103.649 91.409,103.823 91.738,103.996 92.067,104.169 92.708,104.307 93.348,104.446 93.989,104.584 94.629,104.723 95.270,104.861 95.911,105.000 96.551,105.138 97.192,105.277 97.867,105.485 98.542,105.692 99.217,105.900 99.893,106.108 100.568,106.316 101.243,106.523 101.918,106.731 102.593,106.939 103.165,107.060 103.736,107.181 104.307,107.302 104.879,107.424 105.450,107.545 106.021,107.666 106.593,107.787 107.164,107.908 107.787,108.116 108.411,108.324 109.034,108.532 109.657,108.739 110.280,108.947 110.904,109.155 111.527,109.363 112.150,109.570 112.600,109.640 113.050,109.709 113.501,109.778 113.951,109.848 114.401,109.917 114.851,109.986 115.301,110.056 115.751,110.125 116.236,110.246 116.721,110.367 117.206,110.488 117.690,110.610 118.175,110.731 118.660,110.852 119.145,110.973 119.629,111.094 120.253,111.268 120.876,111.441 121.499,111.614 122.122,111.787 122.746,111.960 123.369,112.133 123.992,112.306 124.615,112.479 125.118,112.601 125.620,112.722 126.122,112.843 126.624,112.964 127.126,113.085 127.628,113.207 128.130,113.328 128.632,113.449 128.996,113.536 129.359,113.622 129.723,113.709 130.086,113.795 130.450,113.882 130.814,113.968 131.177,114.055 131.541,114.142 132.077,114.280 132.614,114.419 133.151,114.557 133.687,114.696 134.224,114.834 134.761,114.973 135.298,115.111 135.834,115.250 136.163,115.336 136.492,115.423 136.821,115.509 137.150,115.596 137.479,115.682 137.808,115.769 138.137,115.856 138.466,115.942 139.089,116.098 139.712,116.254 140.336,116.410 140.959,116.565 141.582,116.721 142.205,116.877 142.829,117.033 143.452,117.189 144.335,117.362 145.218,117.535 146.101,117.708 146.984,117.881 147.867,118.054 148.750,118.227 149.633,118.401 150.516,118.574 151.174,118.678 151.831,118.781 152.489,118.885 153.147,118.989 153.805,119.093 154.463,119.197 155.121,119.301 155.779,119.405 156.385,119.543 156.991,119.682 157.597,119.820 158.203,119.959 158.809,120.097 159.415,120.236 160.021,120.374 160.626,120.513 161.094,120.651 161.561,120.790 162.029,120.928 162.496,121.067 162.964,121.205 163.431,121.344 163.899,121.482 164.366,121.621 164.591,121.759 164.816,121.898 165.041,122.036 165.266,122.175 165.491,122.313 165.716,122.452 165.942,122.590 166.167,122.729 166.288,122.971 166.409,123.213 166.530,123.456 166.651,123.698 166.773,123.941 166.894,124.183 167.015,124.425 167.136,124.668 166.963,125.066 166.790,125.464 166.617,125.862 166.444,126.260 166.271,126.659 166.097,127.057 165.924,127.455 165.751,127.853 165.561,128.044 165.370,128.234 165.180,128.425 164.989,128.615 164.799,128.805 164.608,128.996 164.418,129.186 164.228,129.377 163.968,129.740 163.708,130.104 163.448,130.468 163.189,130.831 162.929,131.195 162.669,131.558 162.410,131.922 162.150,132.285 161.925,132.666 161.700,133.047 161.475,133.428 161.250,133.809 161.025,134.190 160.800,134.571 160.575,134.952 160.349,135.332 160.072,135.800 159.795,136.267 159.518,136.735 159.241,137.202 158.964,137.670 158.687,138.137 158.410,138.605 158.133,139.072 158.064,139.401 157.995,139.730 157.926,140.059 157.856,140.388 157.787,140.717 157.718,141.046 157.649,141.375 157.579,141.704 157.527,142.050 157.475,142.396 157.424,142.742 157.372,143.089 157.320,143.435 157.268,143.781 157.216,144.127 157.164,144.474 157.147,144.907 157.129,145.339 157.112,145.772 157.095,146.205 157.078,146.638 157.060,147.071 157.043,147.503 157.026,147.936 157.147,148.161 157.268,148.386 157.389,148.612 157.511,148.837 157.632,149.062 157.753,149.287 157.874,149.512 157.995,149.737 158.393,150.083 158.792,150.429 159.190,150.776 159.588,151.122 159.986,151.468 160.384,151.814 160.783,152.161 161.181,152.507 161.735,152.732 162.289,152.957 162.843,153.182 163.397,153.407 163.951,153.632 164.505,153.857 165.059,154.082 165.613,154.307 165.786,154.481 165.959,154.654 166.132,154.827 166.306,155.000 166.756,154.983 167.206,154.965 167.656,154.948 168.106,154.931 168.556,154.914 169.006,154.896 169.457,154.879 169.907,154.862 170.547,154.654 171.188,154.446 171.828,154.239 172.469,154.031 173.110,153.823 173.750,153.615 174.391,153.408 175.031,153.200 175.343,152.940 175.655,152.680 175.966,152.421 176.278,152.161 176.589,151.901 176.901,151.642 177.213,151.382 177.524,151.122 177.957,150.637 178.390,150.153 178.823,149.668 179.256,149.183 179.688,148.698 180.121,148.214 180.554,147.729 180.987,147.244 181.368,146.829 181.749,146.413 182.130,145.998 182.511,145.582 182.891,145.167 183.272,144.751 183.653,144.336 184.034,143.920 184.415,143.574 184.796,143.228 185.177,142.881 185.558,142.535 185.938,142.189 186.319,141.842 186.700,141.496 187.081,141.150 187.427,140.838 187.774,140.527 188.120,140.215 188.466,139.903 188.812,139.592 189.159,139.280 189.505,138.969 189.851,138.657 190.353,138.224 190.855,137.791 191.357,137.358 191.860,136.926 192.362,136.493 192.864,136.060 193.366,135.627 193.868,135.194 194.456,134.675 195.045,134.156 195.634,133.636 196.222,133.117 196.811,132.597 197.400,132.078 197.988,131.559 198.577,131.039 198.819,130.797 199.062,130.554 199.304,130.312 199.546,130.070 199.789,129.827 200.031,129.585 200.274,129.342 200.516,129.100 200.793,128.875 201.070,128.650 201.347,128.425 201.624,128.200 201.901,127.975 202.178,127.750 202.455,127.525 202.732,127.300 203.200,126.832 203.667,126.365 204.134,125.897 204.602,125.430 205.069,124.962 205.537,124.495 206.004,124.027 206.472,123.560 206.801,123.214 207.130,122.867 207.459,122.521 207.787,122.175 208.116,121.829 208.445,121.482 208.774,121.136 209.103,120.790 209.432,120.634 209.761,120.478 210.090,120.322 210.419,120.167 210.748,120.011 211.077,119.855 211.406,119.699 211.735,119.543 212.237,119.439 212.739,119.336 213.241,119.232 213.743,119.128 214.245,119.024 214.747,118.920 215.249,118.816 215.751,118.713 216.669,118.591 217.587,118.470 218.504,118.349 219.422,118.228 220.339,118.107 221.257,117.985 222.175,117.864 223.092,117.743 223.681,117.622 224.269,117.501 224.858,117.379 225.447,117.258 226.035,117.137 226.624,117.016 227.213,116.895 227.801,116.774 228.269,116.687 228.736,116.600 229.204,116.514 229.671,116.427 230.139,116.341 230.606,116.254 231.073,116.168 231.541,116.081 232.026,116.012 232.510,115.942 232.995,115.873 233.480,115.804 233.965,115.734 234.449,115.665 234.934,115.596 235.419,115.527 236.008,115.457 236.596,115.388 237.185,115.319 237.774,115.249 238.362,115.180 238.951,115.111 239.539,115.042 240.128,114.972 240.803,114.886 241.479,114.799 242.154,114.713 242.829,114.626 243.504,114.539 244.179,114.453 244.855,114.366 245.530,114.280 245.980,114.193 246.430,114.107 246.880,114.020 247.330,113.933 247.780,113.847 248.231,113.760 248.681,113.674 249.131,113.587 249.650,113.501 250.170,113.414 250.689,113.327 251.208,113.241 251.728,113.154 252.247,113.068 252.767,112.981 253.286,112.895 254.117,112.756 254.948,112.618 255.779,112.479 256.610,112.341 257.441,112.202 258.272,112.064 259.103,111.925 259.934,111.787 260.506,111.735 261.077,111.683 261.648,111.631 262.220,111.579 262.791,111.527 263.362,111.475 263.933,111.423 264.505,111.371 265.093,111.319 265.682,111.267 266.271,111.215 266.859,111.163 267.448,111.112 268.037,111.060 268.625,111.008 269.214,110.956 269.664,110.973 270.114,110.990 270.564,111.008 271.015,111.025 271.465,111.042 271.915,111.059 272.365,111.077 272.815,111.094 273.438,111.267 274.062,111.440 274.685,111.613 275.308,111.786 275.931,111.960 276.555,112.133 277.178,112.306 277.801,112.479 277.922,112.531 278.044,112.583 278.165,112.635 278.286,112.687 278.407,112.739 278.528,112.790 278.650,112.842 278.771,112.894 279.082,112.981 279.394,113.067 279.706,113.154 280.017,113.241 280.329,113.327 280.641,113.414 280.952,113.500 281.264,113.587 281.472,113.639 281.679,113.691 281.887,113.743 282.095,113.795 282.303,113.847 282.510,113.898 282.718,113.950 282.926,114.002 283.134,114.054 283.341,114.106 283.549,114.158 283.757,114.210 283.965,114.262 284.172,114.314 284.380,114.366 285.280,113.726" fill="none" stroke="black" stroke-width="1"/>
</svg>
