<?xml version="1.0" encoding="UTF-8"?>
<svg xmlns="http://www.w3.org/2000/svg" width="162.7" height="160.0" viewBox="0 0 162.7 160.0">
  <polyline points="18.672,13.583 18.671,13.540 18.669,13.497 18.668,13.455 18.667,13.412 18.666,13.369 18.664,13.327 18.663,13.284 18.662,13.241 27.785,22.333 36.846,31.363 45.844,40.329 54.779,49.233 63.649,58.069 72.451,66.837 81.186,75.538 89.852,84.171 89.850,84.132 89.847,84.093 89.845,84.054 89.842,84.015 89.840,83.976 89.837,83.937 89.835,83.899 89.832,83.860 89.831,83.825 89.830,83.789 89.829,83.754 89.827,83.719 89.826,83.684 89.825,83.649 89.824,83.614 89.822,83.579 89.821,83.546 89.820,83.513 89.819,83.481 89.817,83.448 89.816,83.415 89.815,83.383 89.814,83.350 89.812,83.318 89.814,83.280 89.815,83.242 89.816,83.205 89.817,83.167 89.819,83.129 89.820,83.092 89.821,83.054 89.822,83.016 89.824,82.990 89.825,82.964 89.826,82.937 89.827,82.911 89.829,82.885 89.830,82.858 89.831,82.832 89.832,82.806 89.836,82.781 89.840,82.755 89.844,82.730 89.847,82.705 89.851,82.680 89.855,82.655 89.859,82.630 89.862,82.605 89.841,82.584 89.820,82.562 89.799,82.541 89.777,82.520 89.773,82.486 89.770,82.452 89.766,82.418 89.762,82.384 89.758,82.350 89.755,82.316 89.751,82.282 89.747,82.249 89.709,82.242 89.672,82.236 89.634,82.230 89.596,82.223 89.559,82.217 89.521,82.211 89.484,82.205 89.446,82.198 89.408,82.201 89.371,82.203 89.333,82.206 89.295,82.208 89.258,82.211 89.220,82.213 89.182,82.216 89.145,82.218 89.090,82.222 89.034,82.226 88.979,82.230 88.924,82.233 88.869,82.237 88.814,82.241 88.758,82.245 88.703,82.249 88.635,82.251 88.568,82.254 88.500,82.256 88.432,82.259 88.364,82.261 88.297,82.264 88.229,82.266 88.161,82.269 88.116,82.270 88.071,82.271 88.026,82.272 87.980,82.274 87.935,82.275 87.890,82.276 87.845,82.277 87.800,82.279 87.749,82.280 87.699,82.281 87.649,82.282 87.599,82.284 87.549,82.285 87.499,82.286 87.448,82.287 87.398,82.289 87.340,82.291 87.283,82.294 87.225,82.296 87.167,82.299 87.110,82.301 87.052,82.304 86.994,82.306 86.936,82.309 86.855,82.311 86.773,82.314 86.692,82.316 86.610,82.319 86.529,82.321 86.447,82.324 86.365,82.326 86.284,82.329 86.227,82.328 86.171,82.326 86.115,82.325 86.058,82.324 86.002,82.323 85.945,82.321 85.889,82.320 85.832,82.319 96.042,92.470 106.134,102.503 116.108,112.418 125.965,122.215 125.874,122.217 125.784,122.218 125.694,122.219 125.603,122.220 125.513,122.222 125.423,122.223 125.332,122.224 125.242,122.225 125.173,122.227 125.104,122.228 125.035,122.229 124.966,122.230 124.897,122.232 124.828,122.233 124.759,122.234 124.690,122.235 133.144,130.622 141.464,138.874 149.647,146.990 157.695,154.970 157.629,154.971 157.562,154.972 157.496,154.974 157.429,154.975 157.363,154.976 157.296,154.977 157.230,154.979 157.163,154.980 157.084,154.982 157.005,154.985 156.926,154.987 156.847,154.990 156.768,154.992 156.689,154.995 156.610,154.997 156.531,155.000 156.469,154.939 156.408,154.877 156.346,154.816 156.285,154.754 156.231,154.753 156.177,154.752 156.123,154.750 156.069,154.749 156.015,154.748 155.961,154.747 155.907,154.745 155.853,154.744 155.784,154.747 155.715,154.749 155.646,154.752 155.577,154.754 155.508,154.757 155.439,154.759 155.370,154.762 155.301,154.764 155.252,154.770 155.203,154.777 155.154,154.783 155.105,154.789 155.056,154.795 155.008,154.802 154.959,154.808 154.910,154.814 154.854,154.817 154.799,154.819 154.744,154.822 154.689,154.824 154.634,154.827 154.578,154.829 154.523,154.832 154.468,154.834 154.428,154.831 154.388,154.827 154.348,154.823 154.307,154.819 154.267,154.816 154.227,154.812 154.187,154.808 154.147,154.804 154.132,154.802 154.117,154.799 154.102,154.797 154.087,154.794 154.072,154.792 154.056,154.789 154.041,154.787 154.026,154.784 153.982,154.770 153.938,154.757 153.895,154.743 153.851,154.729 153.807,154.715 153.763,154.701 153.719,154.688 153.675,154.674 153.666,154.662 153.657,154.651 153.649,154.640 153.640,154.629 153.631,154.617 153.622,154.606 153.614,154.595 153.605,154.583 8.080,10.600 8.059,10.539 8.038,10.477 8.016,10.416 7.995,10.354 7.974,10.293 7.952,10.231 7.931,10.170 7.924,10.114 7.916,10.059 7.909,10.004 7.901,9.949 7.893,9.894 7.886,9.838 7.878,9.783 7.871,9.728 7.861,9.682 7.851,9.635 7.841,9.589 7.831,9.542 7.821,9.496 7.811,9.449 7.801,9.403 7.791,9.357 7.786,9.335 7.781,9.314 7.776,9.293 7.771,9.271 7.766,9.250 7.760,9.229 7.755,9.207 7.750,9.186 7.743,9.153 7.735,9.121 7.728,9.088 7.720,9.055 7.713,9.023 7.705,8.990 7.698,8.958 7.690,8.925 7.685,8.896 7.680,8.867 7.675,8.838 7.670,8.809 7.665,8.781 7.660,8.752 7.655,8.723 7.650,8.694 7.644,8.651 7.638,8.609 7.631,8.566 7.625,8.523 7.619,8.481 7.612,8.438 7.606,8.395 7.600,8.353 7.595,8.316 7.590,8.280 7.585,8.244 7.580,8.207 7.575,8.171 7.570,8.134 7.565,8.098 7.560,8.062 7.542,7.986 7.525,7.911 7.507,7.836 7.489,7.760 7.472,7.685 7.454,7.610 7.437,7.535 7.419,7.459 7.409,7.413 7.399,7.366 7.389,7.320 7.379,7.274 7.369,7.227 7.359,7.181 7.349,7.134 7.339,7.088 7.323,7.043 7.306,6.998 7.290,6.952 7.274,6.907 7.257,6.862 7.241,6.817 7.225,6.772 7.208,6.727 7.195,6.681 7.181,6.636 7.167,6.591 7.153,6.546 7.139,6.501 7.126,6.456 7.112,6.410 7.098,6.365 7.082,6.314 7.065,6.262 7.049,6.211 7.033,6.159 7.016,6.108 7.000,6.057 6.984,6.005 6.967,5.954 6.950,5.918 6.932,5.883 6.915,5.848 6.897,5.813 6.880,5.778 6.862,5.743 6.845,5.708 6.827,5.673 6.808,5.640 6.789,5.607 6.770,5.575 6.752,5.542 6.733,5.509 6.714,5.477 6.695,5.444 6.676,5.412 6.663,5.390 6.649,5.369 6.635,5.348 6.621,5.326 6.607,5.305 6.594,5.284 6.580,5.262 6.566,5.241 6.553,5.226 6.541,5.211 6.528,5.196 6.516,5.181 6.503,5.166 6.491,5.151 6.478,5.136 6.466,5.120 6.427,5.108 6.388,5.095 6.349,5.083 6.310,5.070 6.271,5.058 6.232,5.045 6.193,5.033 6.154,5.020 6.115,5.018 6.077,5.015 6.038,5.013 5.999,5.010 5.960,5.008 5.921,5.005 5.882,5.003 5.843,5.000 5.806,5.011 5.768,5.023 5.730,5.034 5.693,5.045 5.655,5.056 5.617,5.068 5.580,5.079 5.542,5.090 5.522,5.099 5.502,5.108 5.482,5.117 5.462,5.125 5.442,5.134 5.422,5.143 5.402,5.152 5.381,5.161 5.360,5.177 5.339,5.193 5.317,5.210 5.296,5.226 5.275,5.242 5.253,5.258 5.232,5.275 5.211,5.291 5.189,5.315 5.168,5.339 5.147,5.363 5.125,5.386 5.104,5.410 5.083,5.434 5.061,5.458 5.040,5.482 5.035,5.502 5.030,5.522 5.025,5.542 5.020,5.562 5.015,5.582 5.010,5.602 5.005,5.622 5.000,5.642 5.014,5.656 5.028,5.670 5.041,5.684 5.055,5.698 5.077,5.725 5.098,5.753 5.119,5.780 5.141,5.808 5.162,5.836 5.183,5.863 5.205,5.891 5.226,5.918 5.235,5.926 5.243,5.934 5.252,5.941 5.261,5.949 5.270,5.956 5.279,5.964 5.287,5.971 5.296,5.979 5.317,6.000 5.339,6.021 5.360,6.043 5.381,6.064 5.403,6.085 5.424,6.107 5.445,6.128 5.467,6.149 5.478,6.166 5.489,6.182 5.501,6.198 5.512,6.215 5.523,6.231 5.535,6.247 5.546,6.264 5.557,6.280 5.575,6.297 5.592,6.315 5.610,6.333 5.627,6.350 5.645,6.368 5.663,6.385 5.680,6.403 5.698,6.420 5.716,6.443 5.735,6.466 5.754,6.488 5.773,6.511 5.792,6.533 5.811,6.556 5.829,6.578 5.848,6.601 5.863,6.624 5.878,6.646 5.893,6.669 5.908,6.691 5.924,6.714 5.939,6.737 5.954,6.759 5.969,6.782 5.979,6.802 5.989,6.822 5.999,6.842 6.009,6.862 6.019,6.882 6.029,6.902 6.039,6.922 6.049,6.942 6.062,6.970 6.074,6.998 6.087,7.025 6.099,7.053 6.112,7.080 6.124,7.108 6.137,7.136 6.149,7.163 6.167,7.203 6.185,7.244 6.202,7.284 6.220,7.324 6.237,7.364 6.255,7.404 6.272,7.444 6.290,7.484 6.302,7.522 6.315,7.560 6.328,7.597 6.340,7.635 6.353,7.673 6.365,7.710 6.378,7.748 6.390,7.786 6.397,7.808 6.403,7.831 6.409,7.853 6.415,7.876 6.422,7.899 6.428,7.921 6.434,7.944 6.440,7.966 6.448,7.989 6.456,8.011 6.463,8.034 6.471,8.057 6.478,8.079 6.486,8.102 6.493,8.124 6.501,8.147 6.507,8.195 6.513,8.242 6.520,8.290 6.526,8.338 6.532,8.385 6.538,8.433 6.545,8.481 6.551,8.528 6.553,8.564 6.556,8.599 6.558,8.634 6.561,8.669 6.563,8.704 6.566,8.739 6.568,8.774 6.571,8.809 6.576,8.832 6.581,8.855 6.586,8.877 6.591,8.900 6.596,8.922 6.601,8.945 6.606,8.968 6.611,8.990 6.617,9.023 6.624,9.055 6.630,9.088 6.636,9.121 6.642,9.153 6.649,9.186 6.655,9.219 6.661,9.251 6.660,9.284 6.659,9.316 6.658,9.349 6.656,9.382 6.655,9.414 6.654,9.447 6.653,9.480 6.651,9.512 6.653,9.550 6.654,9.587 6.655,9.625 6.656,9.663 6.658,9.700 6.659,9.738 6.660,9.776 6.661,9.813 6.664,9.840 6.666,9.866 6.669,9.892 6.671,9.919 6.674,9.945 6.676,9.971 6.679,9.998 6.681,10.024 6.684,10.049 6.686,10.074 6.689,10.099 6.691,10.124 6.694,10.150 6.696,10.175 6.699,10.200 6.701,10.225 6.704,10.255 6.706,10.285 6.709,10.315 6.712,10.345 6.714,10.375 6.717,10.406 6.719,10.436 6.722,10.466 6.774,10.518 6.827,10.571 6.880,10.624 6.932,10.677 6.931,10.708 6.930,10.739 6.929,10.771 6.927,10.802 6.926,10.833 6.925,10.865 6.924,10.896 6.922,10.928 6.920,11.008 6.917,11.088 6.915,11.168 6.912,11.249 6.910,11.329 6.907,11.409 6.905,11.490 6.902,11.570 6.905,11.595 6.907,11.620 6.910,11.645 6.912,11.670 6.915,11.695 6.917,11.721 6.920,11.746 6.922,11.771 6.942,11.791 6.962,11.811 6.983,11.831 7.003,11.851 7.023,11.871 7.043,11.891 7.063,11.911 7.083,11.931 7.094,11.964 7.106,11.997 7.117,12.029 7.128,12.062 7.139,12.094 7.151,12.127 7.162,12.160 7.173,12.192 7.177,12.202 7.181,12.212 7.185,12.222 7.188,12.232 7.192,12.243 7.196,12.253 7.200,12.263 7.203,12.273 7.205,12.286 7.206,12.300 7.207,12.314 7.208,12.328 7.210,12.342 7.211,12.355 7.212,12.369 7.213,12.383 7.249,12.418 7.284,12.453 7.319,12.488 7.354,12.524 7.351,12.536 7.349,12.549 7.346,12.561 7.344,12.574 7.341,12.586 7.339,12.599 7.336,12.611 7.334,12.624 7.323,12.642 7.311,12.659 7.300,12.677 7.289,12.694 7.277,12.712 7.266,12.729 7.255,12.747 7.244,12.765 7.232,12.825 7.221,12.885 7.210,12.945 7.198,13.005 7.187,13.066 7.176,13.126 7.164,13.186 7.153,13.246 7.157,13.288 7.161,13.329 7.164,13.371 7.168,13.412 7.172,13.453 7.176,13.495 7.180,13.536 7.183,13.578 7.190,13.609 7.196,13.640 7.202,13.672 7.208,13.703 7.215,13.734 7.221,13.766 7.227,13.797 7.233,13.829 7.250,13.849 7.266,13.869 7.282,13.889 7.299,13.909 7.315,13.929 7.331,13.949 7.348,13.969 7.364,13.989 7.430,14.007 7.497,14.024 7.563,14.042 7.630,14.059 7.696,14.077 7.763,14.095 7.830,14.112 7.896,14.130 7.944,14.177 7.991,14.225 8.039,14.273 8.087,14.320 8.133,14.310 8.180,14.300 8.226,14.290 8.272,14.280 8.319,14.270 8.365,14.260 8.412,14.250 8.458,14.240 8.492,14.202 8.526,14.165 8.560,14.127 8.594,14.090 8.628,14.052 8.661,14.014 8.695,13.977 8.729,13.939 8.743,13.890 8.757,13.841 8.771,13.792 8.784,13.743 8.798,13.694 8.812,13.645 8.826,13.596 8.840,13.547 8.857,13.510 8.875,13.472 8.892,13.435 8.910,13.397 8.927,13.359 8.945,13.322 8.963,13.284 8.980,13.246 9.015,13.239 9.050,13.231 9.086,13.224 9.121,13.216 9.156,13.209 9.191,13.201 9.226,13.194 9.261,13.186 9.352,13.189 9.442,13.191 9.532,13.194 9.623,13.196 9.713,13.199 9.803,13.201 9.894,13.204 9.984,13.206 10.038,13.209 10.092,13.211 10.146,13.214 10.200,13.216 10.254,13.219 10.308,13.221 10.362,13.224 10.416,13.226 10.472,13.228 10.529,13.229 10.585,13.230 10.641,13.231 10.698,13.233 10.754,13.234 10.811,13.235 10.867,13.236 10.921,13.290 10.975,13.344 11.029,13.398 11.083,13.452 11.137,13.453 11.191,13.455 11.245,13.456 11.299,13.457 11.353,13.458 11.407,13.460 11.461,13.461 11.515,13.462 11.590,13.461 11.665,13.460 11.741,13.458 11.816,13.457 11.891,13.456 11.966,13.455 12.042,13.453 12.117,13.452 12.165,13.451 12.212,13.450 12.260,13.448 12.308,13.447 12.355,13.446 12.403,13.445 12.451,13.443 12.498,13.442 12.578,13.446 12.657,13.450 12.736,13.453 12.815,13.457 12.894,13.461 12.973,13.465 13.052,13.468 13.131,13.472 13.177,13.475 13.224,13.477 13.270,13.480 13.317,13.482 13.363,13.485 13.409,13.487 13.456,13.490 13.502,13.492 13.578,13.494 13.653,13.495 13.728,13.496 13.803,13.497 13.879,13.499 13.954,13.500 14.029,13.501 14.105,13.502 14.170,13.504 14.235,13.505 14.300,13.506 14.366,13.507 14.431,13.509 14.496,13.510 14.561,13.511 14.627,13.512 14.677,13.515 14.727,13.517 14.777,13.520 14.827,13.522 14.878,13.525 14.928,13.527 14.978,13.530 15.028,13.532 15.085,13.539 15.141,13.545 15.198,13.551 15.254,13.558 15.310,13.564 15.367,13.570 15.423,13.576 15.480,13.583 15.528,13.585 15.575,13.588 15.623,13.590 15.671,13.593 15.718,13.595 15.766,13.598 15.814,13.600 15.861,13.603 15.911,13.653 15.962,13.703 16.012,13.753 16.062,13.803 16.111,13.802 16.160,13.801 16.209,13.800 16.258,13.798 16.307,13.797 16.356,13.796 16.405,13.795 16.454,13.793 16.500,13.792 16.546,13.791 16.593,13.790 16.639,13.788 16.686,13.787 16.732,13.786 16.779,13.785 16.825,13.783 16.881,13.782 16.938,13.781 16.994,13.780 17.051,13.778 17.107,13.777 17.164,13.776 17.220,13.775 17.277,13.773 17.352,13.771 17.427,13.768 17.503,13.766 17.578,13.763 17.653,13.761 17.728,13.758 17.804,13.756 17.879,13.753 17.922,13.755 17.964,13.756 18.007,13.757 18.050,13.758 18.092,13.760 18.135,13.761 18.178,13.762 18.220,13.763 18.243,13.786 18.265,13.808 18.288,13.831 18.311,13.854 18.319,13.856 18.328,13.859 18.337,13.861 18.346,13.864 18.354,13.866 18.363,13.869 18.372,13.871 18.672,13.583" fill="none" stroke="black" stroke-width="1"/>
</svg>
