<?xml version="1.0" encoding="UTF-8"?>
<svg xmlns="http://www.w3.org/2000/svg" width="332.0" height="160.0" viewBox="0 0 332.0 160.0">
  <polyline points="325.056,91.057 324.542,90.543 324.028,90.028 323.513,89.514 322.999,89.000 322.956,88.507 322.913,88.014 322.870,87.521 322.828,87.028 322.785,86.535 322.742,86.043 322.699,85.550 322.656,85.057 322.720,84.693 322.784,84.328 322.849,83.964 322.913,83.600 322.977,83.236 323.042,82.871 323.106,82.507 323.170,82.143 322.677,81.650 322.185,81.157 321.692,80.664 321.199,80.171 320.363,80.107 319.527,80.043 318.692,79.978 317.856,79.914 317.020,79.850 316.185,79.786 315.349,79.721 314.513,79.657 313.720,79.786 312.927,79.914 312.135,80.043 311.342,80.171 310.549,80.300 309.756,80.428 308.963,80.557 308.170,80.686 306.756,80.921 305.342,81.157 303.927,81.393 302.513,81.628 301.099,81.864 299.685,82.100 298.270,82.336 296.856,82.571 295.463,82.678 294.070,82.786 292.677,82.893 291.285,83.000 289.892,83.107 288.499,83.214 287.106,83.321 285.713,83.428 284.149,83.514 282.585,83.600 281.020,83.686 279.456,83.771 277.892,83.857 276.327,83.943 274.763,84.028 273.199,84.114 271.378,84.307 269.556,84.500 267.735,84.693 265.913,84.886 264.092,85.078 262.270,85.271 260.449,85.464 258.628,85.657 256.999,85.871 255.370,86.086 253.742,86.300 252.113,86.514 250.485,86.728 248.856,86.943 247.228,87.157 245.599,87.371 243.949,87.607 242.299,87.843 240.649,88.078 238.999,88.314 237.349,88.550 235.699,88.786 234.049,89.021 232.399,89.257 230.835,89.471 229.270,89.686 227.706,89.900 226.142,90.114 224.578,90.328 223.013,90.543 221.449,90.757 219.885,90.971 218.556,91.121 217.228,91.271 215.899,91.421 214.571,91.571 213.242,91.721 211.913,91.871 210.585,92.021 209.256,92.171 207.756,92.407 206.256,92.643 204.756,92.878 203.256,93.114 201.756,93.350 200.256,93.586 198.756,93.821 197.256,94.057 195.799,94.186 194.342,94.314 192.885,94.443 191.428,94.571 189.971,94.700 188.513,94.828 187.056,94.957 185.599,95.086 184.206,95.257 182.813,95.428 181.421,95.600 180.028,95.771 178.635,95.943 177.242,96.114 175.849,96.286 174.456,96.457 173.492,96.586 172.528,96.714 171.563,96.843 170.599,96.971 169.635,97.100 168.671,97.228 167.706,97.357 166.742,97.486 165.649,97.593 164.556,97.700 163.464,97.807 162.371,97.914 161.278,98.021 160.185,98.129 159.092,98.236 157.999,98.343 156.414,98.493 154.828,98.643 153.242,98.793 151.656,98.943 150.071,99.093 148.485,99.243 146.899,99.393 145.314,99.543 144.714,99.564 144.114,99.586 143.514,99.607 142.914,99.629 142.314,99.650 141.714,99.671 141.114,99.693 140.514,99.714 139.485,99.757 138.456,99.800 137.428,99.843 136.399,99.886 135.371,99.929 134.342,99.971 133.314,100.014 132.285,100.057 131.621,99.971 130.956,99.886 130.292,99.800 129.628,99.714 128.964,99.629 128.299,99.543 127.635,99.457 126.971,99.371 126.242,99.264 125.514,99.157 124.785,99.050 124.056,98.943 123.328,98.836 122.599,98.728 121.871,98.621 121.142,98.514 120.842,98.386 120.542,98.257 120.242,98.128 119.942,98.000 119.642,97.871 119.342,97.743 119.042,97.614 118.742,97.486 118.056,96.971 117.371,96.457 116.685,95.943 115.999,95.428 119.343,90.885 118.657,90.371 117.971,89.857 117.285,89.343 116.878,88.935 116.471,88.528 116.064,88.121 115.657,87.714 115.250,87.307 114.843,86.900 114.435,86.493 114.028,86.086 113.578,85.678 113.128,85.271 112.678,84.864 112.228,84.457 111.778,84.050 111.328,83.643 110.878,83.236 110.428,82.828 109.957,82.571 109.485,82.314 109.014,82.057 108.543,81.800 108.071,81.543 107.600,81.286 107.128,81.028 106.657,80.771 105.950,80.750 105.243,80.728 104.535,80.707 103.828,80.686 103.121,80.664 102.414,80.643 101.707,80.621 101.000,80.600 100.143,80.728 99.285,80.857 98.428,80.986 97.571,81.114 96.714,81.243 95.857,81.371 95.000,81.500 94.143,81.628 93.221,81.693 92.300,81.757 91.378,81.821 90.457,81.886 89.535,81.950 88.614,82.014 87.693,82.078 86.771,82.143 86.300,82.036 85.828,81.928 85.357,81.821 84.885,81.714 84.414,81.607 83.943,81.500 83.471,81.393 83.000,81.286 82.207,80.964 81.414,80.643 80.621,80.321 79.828,80.000 79.036,79.678 78.243,79.357 77.450,79.036 76.657,78.714 75.950,78.414 75.243,78.114 74.536,77.814 73.828,77.514 73.121,77.214 72.414,76.914 71.707,76.614 71.000,76.314 69.800,75.586 68.600,74.857 67.400,74.128 66.200,73.400 65.000,72.671 63.800,71.943 62.600,71.214 61.400,70.486 61.014,70.186 60.628,69.886 60.243,69.586 59.857,69.286 59.471,68.986 59.086,68.686 58.700,68.386 58.314,68.086 57.843,67.550 57.371,67.014 56.900,66.478 56.428,65.943 55.957,65.407 55.486,64.871 55.014,64.336 54.543,63.800 53.986,63.243 53.428,62.686 52.871,62.128 52.314,61.571 51.757,61.014 51.200,60.457 50.643,59.900 50.086,59.343 49.421,58.357 48.757,57.371 48.093,56.386 47.428,55.400 46.764,54.414 46.100,53.428 45.436,52.443 44.771,51.457 44.343,50.728 43.914,50.000 43.486,49.271 43.057,48.543 42.628,47.814 42.200,47.086 41.771,46.357 41.343,45.628 41.043,44.836 40.743,44.043 40.443,43.250 40.143,42.457 39.843,41.664 39.543,40.871 39.243,40.078 38.943,39.286 38.686,38.814 38.428,38.343 38.171,37.871 37.914,37.400 37.657,36.928 37.400,36.457 37.143,35.986 36.886,35.514 36.500,34.786 36.114,34.057 35.728,33.328 35.343,32.600 34.957,31.871 34.571,31.143 34.186,30.414 33.800,29.686 33.671,29.429 33.543,29.171 33.414,28.914 33.286,28.657 33.157,28.400 33.028,28.143 32.900,27.886 32.771,27.629 32.343,26.836 31.914,26.043 31.486,25.250 31.057,24.457 30.628,23.664 30.200,22.871 29.771,22.079 29.343,21.286 29.171,21.007 29.000,20.729 28.828,20.450 28.657,20.171 28.486,19.893 28.314,19.614 28.143,19.336 27.971,19.057 27.671,18.371 27.371,17.686 27.071,17.000 26.771,16.314 26.471,15.629 26.171,14.943 25.871,14.257 25.571,13.571 25.078,12.886 24.586,12.200 24.093,11.514 23.600,10.829 23.107,10.143 22.614,9.457 22.121,8.771 21.628,8.086 21.007,7.700 20.386,7.314 19.764,6.929 19.143,6.543 18.521,6.157 17.900,5.771 17.278,5.386 16.657,5.000 16.228,5.021 15.800,5.043 15.371,5.064 14.943,5.086 14.514,5.107 14.086,5.129 13.657,5.150 13.229,5.171 12.436,5.279 11.643,5.386 10.850,5.493 10.057,5.600 9.264,5.707 8.471,5.814 7.679,5.921 6.886,6.029 6.736,6.200 6.586,6.371 6.436,6.543 6.286,6.714 6.136,6.886 5.986,7.057 5.836,7.229 5.686,7.400 5.600,8.064 5.514,8.729 5.429,9.393 5.343,10.057 5.257,10.721 5.171,11.386 5.086,12.050 5.000,12.714 5.150,13.186 5.300,13.657 5.450,14.129 5.600,14.600 5.750,15.071 5.900,15.543 6.050,16.014 6.200,16.486 6.350,16.979 6.500,17.471 6.650,17.964 6.800,18.457 6.950,18.950 7.100,19.443 7.250,19.936 7.400,20.429 7.571,21.114 7.743,21.800 7.914,22.486 8.086,23.171 8.257,23.857 8.429,24.543 8.600,25.229 8.771,25.914 8.943,26.386 9.114,26.857 9.286,27.329 9.457,27.800 9.629,28.271 9.800,28.743 9.971,29.214 10.143,29.686 10.314,30.221 10.486,30.757 10.657,31.293 10.829,31.829 11.000,32.364 11.171,32.900 11.343,33.436 11.514,33.971 11.771,34.529 12.029,35.086 12.286,35.643 12.543,36.200 12.800,36.757 13.057,37.314 13.314,37.871 13.571,38.429 13.829,39.136 14.086,39.843 14.343,40.550 14.600,41.257 14.857,41.964 15.114,42.671 15.371,43.378 15.629,44.086 15.736,44.386 15.843,44.686 15.950,44.986 16.057,45.286 16.164,45.586 16.271,45.886 16.379,46.186 16.486,46.486 16.786,47.171 17.086,47.857 17.386,48.543 17.686,49.228 17.986,49.914 18.286,50.600 18.586,51.286 18.886,51.971 19.121,52.614 19.357,53.257 19.593,53.900 19.829,54.543 20.064,55.186 20.300,55.828 20.536,56.471 20.771,57.114 21.029,57.650 21.286,58.186 21.543,58.721 21.800,59.257 22.057,59.793 22.314,60.328 22.571,60.864 22.829,61.400 23.429,62.321 24.029,63.243 24.629,64.164 25.229,65.086 25.829,66.007 26.429,66.928 27.029,67.850 27.629,68.771 27.779,68.986 27.929,69.200 28.079,69.414 28.229,69.628 28.379,69.843 28.529,70.057 28.679,70.271 28.829,70.486 29.171,70.978 29.514,71.471 29.857,71.964 30.200,72.457 30.543,72.950 30.886,73.443 31.229,73.936 31.571,74.428 32.300,74.986 33.029,75.543 33.757,76.100 34.486,76.657 35.214,77.214 35.943,77.771 36.671,78.328 37.400,78.886 38.021,79.271 38.643,79.657 39.264,80.043 39.886,80.428 40.507,80.814 41.129,81.200 41.750,81.586 42.371,81.971 42.779,82.250 43.186,82.528 43.593,82.807 44.000,83.086 44.407,83.364 44.814,83.643 45.221,83.921 45.629,84.200 46.400,84.628 47.171,85.057 47.943,85.486 48.714,85.914 49.486,86.343 50.257,86.771 51.028,87.200 51.800,87.628 52.893,87.993 53.986,88.357 55.078,88.721 56.171,89.086 57.264,89.450 58.357,89.814 59.450,90.178 60.543,90.543 61.078,90.693 61.614,90.843 62.150,90.993 62.686,91.143 63.221,91.293 63.757,91.443 64.293,91.593 64.828,91.743 65.643,92.064 66.457,92.386 67.271,92.707 68.086,93.028 68.900,93.350 69.714,93.671 70.528,93.993 71.343,94.314 73.164,94.893 74.986,95.471 76.807,96.050 78.628,96.628 80.450,97.207 82.271,97.785 84.093,98.364 85.914,98.943 86.214,99.028 86.514,99.114 86.814,99.200 87.114,99.286 87.414,99.371 87.714,99.457 88.014,99.543 88.314,99.628 89.064,99.886 89.814,100.143 90.564,100.400 91.314,100.657 92.064,100.914 92.814,101.171 93.564,101.428 94.314,101.685 95.214,101.921 96.114,102.157 97.014,102.393 97.914,102.628 98.814,102.864 99.714,103.100 100.614,103.335 101.514,103.571 102.093,103.785 102.671,104.000 103.250,104.214 103.828,104.428 104.407,104.643 104.985,104.857 105.564,105.071 106.143,105.285 107.064,105.543 107.985,105.800 108.907,106.057 109.828,106.314 110.750,106.571 111.671,106.828 112.593,107.085 113.514,107.343 114.564,107.557 115.614,107.771 116.664,107.985 117.714,108.200 118.764,108.414 119.814,108.628 120.864,108.843 121.914,109.057 122.771,109.228 123.628,109.400 124.485,109.571 125.343,109.743 126.200,109.914 127.057,110.085 127.914,110.257 128.771,110.428 129.564,110.685 130.357,110.943 131.150,111.200 131.943,111.457 132.735,111.714 133.528,111.971 134.321,112.228 135.114,112.485 136.143,112.785 137.171,113.085 138.200,113.385 139.228,113.685 140.257,113.985 141.285,114.285 142.314,114.585 143.343,114.885 144.028,115.057 144.714,115.228 145.400,115.400 146.085,115.571 146.771,115.743 147.457,115.914 148.143,116.085 148.828,116.257 150.414,116.685 152.000,117.114 153.585,117.543 155.171,117.971 156.757,118.400 158.342,118.828 159.928,119.257 161.514,119.685 161.900,119.793 162.285,119.900 162.671,120.007 163.057,120.114 163.442,120.221 163.828,120.329 164.214,120.436 164.600,120.543 164.964,120.843 165.328,121.143 165.692,121.443 166.057,121.743 166.421,122.043 166.785,122.343 167.150,122.643 167.514,122.943 168.135,123.564 168.757,124.186 169.378,124.807 170.000,125.429 169.635,125.943 169.271,126.457 168.907,126.972 168.542,127.486 168.178,128.000 167.814,128.514 167.450,129.029 167.085,129.543 166.571,129.886 166.057,130.229 165.542,130.571 165.028,130.914 164.514,131.257 164.000,131.600 163.485,131.943 162.971,132.286 162.607,132.543 162.242,132.800 161.878,133.057 161.514,133.314 161.150,133.571 160.785,133.829 160.421,134.086 160.057,134.343 159.842,134.707 159.628,135.071 159.414,135.436 159.200,135.800 158.985,136.164 158.771,136.529 158.557,136.893 158.342,137.257 158.107,137.643 157.871,138.029 157.635,138.414 157.400,138.800 157.164,139.186 156.928,139.571 156.692,139.957 156.457,140.343 156.392,140.986 156.328,141.629 156.264,142.271 156.200,142.914 156.135,143.557 156.071,144.200 156.007,144.843 155.942,145.486 156.435,145.979 156.928,146.471 157.421,146.964 157.914,147.457 158.128,147.800 158.342,148.143 158.557,148.486 158.771,148.829 158.985,149.171 159.200,149.514 159.414,149.857 159.628,150.200 160.228,150.629 160.828,151.057 161.428,151.486 162.028,151.914 162.628,152.343 163.228,152.771 163.828,153.200 164.428,153.629 165.692,153.800 166.957,153.971 168.221,154.143 169.485,154.314 170.750,154.486 172.014,154.657 173.278,154.829 174.542,155.000 175.100,154.850 175.657,154.700 176.214,154.550 176.771,154.400 177.328,154.250 177.885,154.100 178.442,153.950 179.000,153.800 179.492,153.457 179.985,153.114 180.478,152.771 180.971,152.429 181.464,152.086 181.957,151.743 182.450,151.400 182.942,151.057 183.671,149.964 184.400,148.871 185.128,147.779 185.857,146.686 186.585,145.593 187.314,144.500 188.042,143.407 188.771,142.314 189.457,141.650 190.142,140.986 190.828,140.321 191.514,139.657 192.199,138.993 192.885,138.329 193.571,137.664 194.257,137.000 194.942,136.400 195.628,135.800 196.314,135.200 196.999,134.600 197.685,134.000 198.371,133.400 199.057,132.800 199.742,132.200 200.278,131.643 200.814,131.086 201.349,130.529 201.885,129.971 202.421,129.414 202.957,128.857 203.492,128.300 204.028,127.743 204.607,126.736 205.185,125.729 205.764,124.721 206.342,123.714 206.921,122.707 207.499,121.700 208.078,120.693 208.657,119.686 209.664,118.914 210.671,118.143 211.678,117.372 212.685,116.600 213.692,115.829 214.699,115.057 215.707,114.286 216.714,113.514 217.314,112.979 217.914,112.443 218.514,111.907 219.114,111.372 219.714,110.836 220.314,110.300 220.914,109.764 221.514,109.229 222.392,108.736 223.271,108.243 224.149,107.750 225.028,107.257 225.907,106.764 226.785,106.272 227.664,105.779 228.542,105.286 229.421,104.943 230.299,104.600 231.178,104.257 232.057,103.914 232.935,103.572 233.814,103.229 234.692,102.886 235.571,102.543 236.921,102.114 238.271,101.686 239.621,101.257 240.971,100.829 242.321,100.400 243.671,99.972 245.021,99.543 246.371,99.114 247.121,98.857 247.871,98.600 248.621,98.343 249.371,98.086 250.121,97.829 250.871,97.572 251.621,97.314 252.371,97.057 253.314,96.907 254.256,96.757 255.199,96.607 256.142,96.457 257.085,96.307 258.028,96.157 258.971,96.007 259.914,95.857 260.985,95.686 262.056,95.514 263.128,95.343 264.199,95.172 265.271,95.000 266.342,94.829 267.414,94.657 268.485,94.486 269.514,94.336 270.542,94.186 271.571,94.036 272.599,93.886 273.628,93.736 274.656,93.586 275.685,93.436 276.714,93.286 277.335,93.136 277.956,92.986 278.578,92.836 279.199,92.686 279.821,92.536 280.442,92.386 281.064,92.236 281.685,92.086 282.114,92.022 282.542,91.957 282.971,91.893 283.399,91.829 283.828,91.764 284.256,91.700 284.685,91.636 285.114,91.572 286.228,91.400 287.342,91.229 288.456,91.057 289.571,90.886 290.685,90.714 291.799,90.543 292.913,90.372 294.028,90.200 294.992,90.072 295.956,89.943 296.921,89.814 297.885,89.686 298.849,89.557 299.813,89.429 300.778,89.300 301.742,89.172 303.285,88.936 304.828,88.700 306.371,88.464 307.913,88.229 309.456,87.993 310.999,87.757 312.542,87.522 314.085,87.286 315.178,87.200 316.271,87.114 317.363,87.029 318.456,86.943 319.549,86.857 320.642,86.772 321.735,86.686 322.828,86.600 323.663,86.600 324.499,86.600 325.335,87.436 326.171,87.436 327.006,87.436 325.056,91.057" fill="none" stroke="black" stroke-width="1"/>
</svg>
