<?xml version="1.0" encoding="UTF-8"?>
<svg xmlns="http://www.w3.org/2000/svg" width="191.9" height="160.0" viewBox="0 0 191.9 160.0">
  <polyline points="183.937,133.596 183.944,133.341 183.950,133.085 183.956,132.829 183.962,132.574 183.956,132.355 183.950,132.137 183.944,131.919 183.937,131.700 183.956,131.357 183.975,131.014 183.994,130.671 184.012,130.328 183.994,130.004 183.975,129.680 183.956,129.356 183.937,129.031 183.956,128.769 183.975,128.507 183.994,128.245 184.012,127.984 184.019,127.528 184.025,127.073 184.031,126.618 184.037,126.162 183.663,125.788 183.289,125.414 183.301,125.252 183.314,125.090 183.326,124.928 183.339,124.766 182.827,124.734 182.316,124.703 181.804,124.672 181.293,124.641 180.794,124.628 180.295,124.616 179.796,124.603 179.297,124.591 178.512,124.547 177.726,124.504 176.940,124.460 176.154,124.416 175.518,124.348 174.882,124.279 174.246,124.211 173.610,124.142 173.298,124.123 172.986,124.104 172.674,124.086 172.362,124.067 171.807,124.023 171.252,123.980 170.697,123.936 170.142,123.892 169.356,123.780 168.571,123.668 167.785,123.556 166.999,123.443 166.207,123.319 165.415,123.194 164.623,123.069 163.831,122.945 163.039,122.782 162.247,122.620 161.455,122.458 160.663,122.296 160.058,122.140 159.453,121.984 158.848,121.828 158.243,121.672 157.594,121.572 156.946,121.473 156.297,121.373 155.649,121.273 154.963,121.086 154.277,120.899 153.591,120.712 152.905,120.525 152.031,120.282 151.158,120.038 150.285,119.795 149.412,119.552 149.250,119.502 149.088,119.452 148.926,119.402 148.764,119.352 148.383,119.259 148.003,119.165 147.622,119.072 147.242,118.978 146.918,118.866 146.593,118.754 146.269,118.641 145.945,118.529 145.521,118.404 145.097,118.280 144.672,118.155 144.248,118.030 143.724,117.868 143.201,117.706 142.677,117.544 142.153,117.382 141.710,117.232 141.267,117.082 140.825,116.933 140.382,116.783 139.265,116.402 138.149,116.022 137.033,115.642 135.916,115.261 135.156,114.818 134.395,114.376 133.634,113.933 132.873,113.490 132.411,113.340 131.950,113.191 131.488,113.041 131.027,112.891 130.553,112.692 130.079,112.492 129.605,112.293 129.131,112.093 128.514,111.781 127.896,111.469 127.279,111.158 126.661,110.846 126.032,110.553 125.402,110.259 124.772,109.966 124.142,109.673 123.500,109.312 122.857,108.950 122.215,108.588 121.572,108.226 121.105,107.996 120.637,107.765 120.169,107.534 119.702,107.303 119.203,107.041 118.704,106.780 118.205,106.518 117.706,106.256 117.219,105.994 116.733,105.732 116.247,105.470 115.760,105.208 115.242,104.921 114.725,104.634 114.207,104.347 113.690,104.060 113.471,103.923 113.253,103.786 113.035,103.649 112.816,103.512 112.380,103.250 111.943,102.988 111.507,102.726 111.070,102.464 110.721,102.221 110.372,101.977 110.022,101.734 109.673,101.491 109.405,101.316 109.137,101.142 108.869,100.967 108.601,100.792 108.164,100.549 107.727,100.306 107.291,100.063 106.854,99.820 106.555,99.651 106.256,99.483 105.956,99.314 105.657,99.146 105.227,98.878 104.796,98.610 104.366,98.342 103.936,98.073 103.368,97.712 102.801,97.350 102.233,96.988 101.666,96.627 101.223,96.365 100.780,96.103 100.337,95.841 99.894,95.579 99.402,95.180 98.909,94.781 98.416,94.381 97.924,93.982 97.450,93.627 96.976,93.271 96.502,92.916 96.028,92.560 95.566,92.224 95.105,91.887 94.643,91.550 94.182,91.213 93.795,90.920 93.408,90.627 93.022,90.334 92.635,90.041 92.217,89.710 91.799,89.380 91.382,89.049 90.964,88.719 90.583,88.407 90.203,88.095 89.823,87.783 89.442,87.471 89.055,87.153 88.669,86.835 88.282,86.517 87.895,86.199 87.471,85.887 87.047,85.575 86.623,85.264 86.199,84.952 85.856,84.646 85.513,84.341 85.170,84.035 84.827,83.729 84.415,83.399 84.004,83.068 83.592,82.738 83.181,82.407 82.713,81.989 82.245,81.572 81.777,81.154 81.310,80.736 81.029,80.518 80.748,80.299 80.468,80.081 80.187,79.863 80.013,79.694 79.838,79.526 79.663,79.358 79.489,79.189 79.002,78.828 78.516,78.466 78.029,78.104 77.543,77.742 77.063,77.343 76.582,76.944 76.102,76.545 75.622,76.146 75.067,75.616 74.512,75.086 73.957,74.556 73.402,74.025 73.046,73.714 72.691,73.402 72.335,73.090 71.980,72.778 71.568,72.460 71.157,72.142 70.745,71.824 70.333,71.506 69.797,71.032 69.261,70.558 68.724,70.084 68.188,69.610 67.689,69.136 67.190,68.662 66.691,68.188 66.192,67.714 65.681,67.203 65.170,66.691 64.658,66.180 64.147,65.669 63.742,65.282 63.336,64.895 62.931,64.509 62.525,64.122 62.226,63.835 61.927,63.548 61.627,63.261 61.328,62.974 60.860,62.507 60.393,62.039 59.925,61.571 59.457,61.103 58.952,60.486 58.447,59.869 57.942,59.251 57.436,58.634 57.000,58.185 56.563,57.736 56.127,57.287 55.690,56.838 54.767,55.859 53.844,54.879 52.921,53.900 51.998,52.921 51.886,52.765 51.774,52.609 51.661,52.453 51.549,52.298 51.131,51.742 50.713,51.187 50.296,50.632 49.878,50.077 49.104,49.217 48.331,48.356 47.558,47.495 46.784,46.635 46.292,46.049 45.799,45.462 45.306,44.876 44.814,44.290 44.402,43.766 43.991,43.242 43.579,42.718 43.167,42.194 42.725,41.602 42.282,41.009 41.839,40.417 41.396,39.825 41.003,39.257 40.610,38.690 40.217,38.122 39.825,37.554 39.525,37.062 39.226,36.569 38.927,36.076 38.627,35.584 38.290,34.798 37.954,34.012 37.617,33.226 37.280,32.441 37.099,31.543 36.918,30.644 36.738,29.746 36.557,28.848 36.257,28.038 35.958,27.227 35.659,26.416 35.359,25.605 35.047,24.957 34.736,24.308 34.424,23.660 34.112,23.011 33.688,21.845 33.264,20.679 32.840,19.512 32.416,18.346 32.272,17.922 32.129,17.498 31.985,17.074 31.842,16.650 31.686,16.176 31.530,15.702 31.374,15.228 31.218,14.754 31.062,14.361 30.906,13.968 30.750,13.575 30.595,13.182 30.301,12.633 30.008,12.085 29.715,11.536 29.422,10.987 29.247,10.575 29.073,10.164 28.898,9.752 28.724,9.341 28.499,8.935 28.275,8.530 28.050,8.124 27.826,7.719 27.576,7.357 27.327,6.996 27.077,6.634 26.828,6.272 26.547,5.985 26.266,5.698 25.986,5.412 25.705,5.125 25.325,5.094 24.944,5.062 24.564,5.031 24.183,5.000 24.015,5.162 23.847,5.324 23.678,5.486 23.510,5.649 23.429,5.861 23.348,6.073 23.267,6.285 23.186,6.497 23.123,6.883 23.061,7.270 22.999,7.657 22.936,8.043 22.899,8.511 22.861,8.979 22.824,9.447 22.786,9.914 22.855,10.351 22.924,10.787 22.992,11.224 23.061,11.661 23.080,12.066 23.098,12.471 23.117,12.877 23.136,13.282 23.148,13.812 23.161,14.342 23.173,14.872 23.186,15.402 23.173,15.671 23.161,15.939 23.148,16.207 23.136,16.475 23.023,16.787 22.911,17.099 22.799,17.411 22.687,17.722 22.425,17.997 22.163,18.271 21.901,18.546 21.639,18.820 21.308,18.964 20.978,19.107 20.647,19.250 20.317,19.394 19.943,19.593 19.568,19.793 19.194,19.993 18.820,20.192 18.539,20.273 18.259,20.354 17.978,20.435 17.697,20.516 17.286,20.566 16.874,20.616 16.463,20.666 16.051,20.716 15.515,20.772 14.978,20.828 14.442,20.884 13.906,20.940 13.295,21.009 12.683,21.078 12.072,21.146 11.461,21.215 11.180,21.365 10.900,21.514 10.619,21.664 10.338,21.814 10.058,22.194 9.777,22.574 9.497,22.955 9.216,23.335 9.060,23.628 8.904,23.922 8.748,24.215 8.592,24.508 8.474,25.013 8.355,25.518 8.237,26.023 8.118,26.528 8.037,26.815 7.956,27.102 7.875,27.389 7.794,27.676 7.663,28.125 7.532,28.574 7.401,29.023 7.270,29.472 7.133,29.965 6.996,30.457 6.858,30.950 6.721,31.443 6.684,32.073 6.646,32.702 6.609,33.332 6.572,33.962 6.491,34.442 6.409,34.923 6.328,35.403 6.247,35.883 6.172,36.232 6.098,36.582 6.023,36.931 5.948,37.280 5.873,37.816 5.798,38.353 5.723,38.889 5.649,39.425 5.586,40.068 5.524,40.710 5.461,41.353 5.399,41.995 5.343,42.662 5.287,43.329 5.231,43.997 5.175,44.664 5.162,45.737 5.150,46.809 5.137,47.882 5.125,48.955 5.094,49.616 5.062,50.277 5.031,50.938 5.000,51.599 5.012,52.210 5.025,52.821 5.037,53.433 5.050,54.044 5.044,54.555 5.037,55.067 5.031,55.578 5.025,56.089 5.044,56.632 5.062,57.174 5.081,57.717 5.100,58.260 5.125,58.858 5.150,59.457 5.175,60.056 5.200,60.654 5.256,61.403 5.312,62.151 5.368,62.900 5.424,63.648 5.530,64.259 5.636,64.870 5.742,65.481 5.848,66.093 5.998,66.785 6.148,67.477 6.297,68.169 6.447,68.862 6.584,69.442 6.721,70.022 6.858,70.602 6.996,71.182 7.195,71.587 7.395,71.992 7.594,72.398 7.794,72.803 7.956,73.165 8.118,73.527 8.280,73.888 8.443,74.250 8.648,74.668 8.854,75.086 9.060,75.504 9.266,75.921 9.465,75.934 9.665,75.946 9.864,75.959 10.064,75.971 10.351,75.890 10.638,75.809 10.925,75.728 11.212,75.647 11.536,75.154 11.860,74.662 12.184,74.169 12.509,73.676 12.534,73.246 12.559,72.816 12.584,72.385 12.609,71.955 12.577,71.163 12.546,70.371 12.515,69.579 12.484,68.787 12.365,67.964 12.247,67.140 12.128,66.317 12.010,65.494 11.947,64.914 11.885,64.334 11.823,63.754 11.760,63.174 11.748,62.014 11.735,60.854 11.723,59.694 11.710,58.534 11.704,57.892 11.698,57.249 11.692,56.607 11.686,55.965 11.667,55.484 11.648,55.004 11.629,54.524 11.611,54.044 11.586,53.221 11.561,52.397 11.536,51.574 11.511,50.751 11.505,50.202 11.498,49.653 11.492,49.104 11.486,48.556 11.517,47.944 11.548,47.333 11.580,46.722 11.611,46.111 11.636,45.624 11.661,45.138 11.686,44.652 11.710,44.165 11.735,43.149 11.760,42.132 11.785,41.115 11.810,40.099 11.923,39.207 12.035,38.315 12.147,37.423 12.259,36.532 12.284,36.182 12.309,35.833 12.334,35.484 12.359,35.135 12.484,34.617 12.609,34.099 12.733,33.582 12.858,33.064 13.089,32.615 13.320,32.166 13.550,31.717 13.781,31.268 14.099,30.919 14.417,30.570 14.735,30.220 15.053,29.871 15.222,29.778 15.390,29.684 15.558,29.590 15.727,29.497 16.089,29.428 16.450,29.360 16.812,29.291 17.174,29.222 17.454,29.198 17.735,29.173 18.016,29.148 18.296,29.123 18.745,29.160 19.194,29.198 19.643,29.235 20.092,29.272 20.460,29.397 20.828,29.522 21.196,29.647 21.564,29.771 21.970,30.033 22.375,30.295 22.780,30.557 23.186,30.819 23.391,30.975 23.597,31.131 23.803,31.287 24.009,31.443 24.358,31.754 24.707,32.066 25.057,32.378 25.406,32.690 25.605,32.933 25.805,33.176 26.005,33.420 26.204,33.663 26.410,33.894 26.616,34.124 26.822,34.355 27.027,34.586 27.352,34.898 27.676,35.210 28.000,35.521 28.324,35.833 28.599,36.182 28.873,36.532 29.148,36.881 29.422,37.230 29.958,37.848 30.495,38.465 31.031,39.082 31.567,39.700 32.116,40.373 32.665,41.047 33.214,41.720 33.763,42.394 34.174,42.874 34.586,43.354 34.998,43.835 35.409,44.315 36.002,45.051 36.594,45.787 37.187,46.523 37.779,47.258 37.916,47.414 38.053,47.570 38.191,47.726 38.328,47.882 38.652,48.262 38.976,48.643 39.301,49.023 39.625,49.404 39.962,49.522 40.299,49.641 40.635,49.759 40.972,49.878 41.190,50.015 41.409,50.152 41.627,50.289 41.845,50.427 42.020,50.601 42.194,50.776 42.369,50.950 42.544,51.125 42.725,51.325 42.905,51.524 43.086,51.724 43.267,51.923 43.542,52.279 43.816,52.634 44.090,52.990 44.365,53.345 44.608,53.682 44.851,54.019 45.094,54.356 45.338,54.692 45.568,54.992 45.799,55.291 46.030,55.590 46.261,55.890 46.616,56.326 46.972,56.763 47.327,57.199 47.683,57.636 48.038,58.060 48.394,58.484 48.749,58.908 49.104,59.332 49.466,59.812 49.828,60.293 50.190,60.773 50.551,61.253 50.838,61.696 51.125,62.139 51.412,62.581 51.699,63.024 52.023,63.498 52.347,63.972 52.672,64.446 52.996,64.920 53.189,65.095 53.383,65.269 53.576,65.444 53.769,65.619 54.044,65.737 54.318,65.856 54.593,65.974 54.867,66.093 55.266,66.336 55.665,66.579 56.064,66.822 56.464,67.066 56.782,67.384 57.100,67.702 57.418,68.020 57.736,68.338 58.141,68.706 58.547,69.074 58.952,69.442 59.357,69.810 59.551,70.040 59.744,70.271 59.937,70.502 60.131,70.733 60.436,71.076 60.742,71.419 61.047,71.762 61.353,72.105 61.478,72.323 61.602,72.541 61.727,72.759 61.852,72.978 62.083,73.327 62.313,73.676 62.544,74.025 62.775,74.375 62.900,74.668 63.024,74.961 63.149,75.254 63.274,75.547 63.430,75.878 63.586,76.208 63.742,76.539 63.897,76.869 64.116,77.106 64.334,77.343 64.552,77.580 64.771,77.817 65.263,78.060 65.756,78.304 66.249,78.547 66.741,78.790 67.009,78.952 67.278,79.114 67.546,79.277 67.814,79.439 68.294,79.751 68.774,80.062 69.255,80.374 69.735,80.686 69.916,80.804 70.097,80.923 70.277,81.041 70.458,81.160 70.826,81.478 71.194,81.796 71.562,82.114 71.930,82.432 72.535,83.037 73.140,83.642 73.745,84.247 74.350,84.852 74.680,85.363 75.011,85.875 75.341,86.386 75.672,86.898 75.809,87.209 75.946,87.521 76.084,87.833 76.221,88.145 76.333,88.157 76.445,88.170 76.558,88.182 76.670,88.195 77.268,88.382 77.867,88.569 78.466,88.756 79.065,88.943 79.439,89.174 79.813,89.405 80.187,89.635 80.561,89.866 81.004,90.197 81.447,90.527 81.890,90.858 82.332,91.188 82.682,91.438 83.031,91.687 83.380,91.937 83.729,92.186 83.948,92.354 84.166,92.523 84.384,92.691 84.603,92.860 84.908,93.072 85.214,93.284 85.519,93.496 85.825,93.708 86.149,94.101 86.474,94.494 86.798,94.886 87.122,95.279 87.353,95.541 87.584,95.803 87.814,96.065 88.045,96.327 88.145,96.489 88.245,96.651 88.344,96.814 88.444,96.976 88.625,97.337 88.806,97.699 88.987,98.061 89.168,98.423 89.823,98.790 90.477,99.158 91.132,99.526 91.787,99.894 91.999,99.969 92.211,100.044 92.423,100.119 92.635,100.194 92.959,100.331 93.284,100.468 93.608,100.605 93.932,100.743 94.163,100.855 94.394,100.967 94.625,101.079 94.855,101.192 95.142,101.379 95.429,101.566 95.716,101.753 96.003,101.940 96.053,101.984 96.103,102.027 96.153,102.071 96.202,102.115 96.602,102.389 97.001,102.663 97.400,102.938 97.799,103.212 98.011,103.437 98.223,103.661 98.435,103.886 98.647,104.110 98.847,104.360 99.046,104.609 99.246,104.859 99.445,105.108 99.657,105.351 99.870,105.595 100.082,105.838 100.294,106.081 100.524,106.343 100.755,106.605 100.986,106.867 101.217,107.129 101.429,107.621 101.641,108.114 101.853,108.607 102.065,109.099 102.196,109.237 102.327,109.374 102.458,109.511 102.589,109.648 103.144,109.798 103.699,109.948 104.254,110.097 104.809,110.247 104.909,110.266 105.008,110.284 105.108,110.303 105.208,110.322 105.470,110.440 105.732,110.559 105.994,110.677 106.256,110.796 106.605,110.977 106.954,111.157 107.303,111.338 107.653,111.519 107.896,111.681 108.139,111.843 108.382,112.006 108.626,112.168 108.919,112.367 109.212,112.567 109.505,112.766 109.798,112.966 110.129,113.234 110.459,113.502 110.790,113.771 111.120,114.039 111.370,114.251 111.619,114.463 111.869,114.675 112.118,114.887 112.330,115.155 112.542,115.423 112.754,115.691 112.966,115.960 113.141,116.296 113.315,116.633 113.490,116.970 113.665,117.307 113.839,117.444 114.014,117.581 114.188,117.718 114.363,117.855 114.912,118.061 115.461,118.267 116.010,118.473 116.558,118.679 116.839,118.772 117.120,118.866 117.400,118.959 117.681,119.053 118.305,119.259 118.928,119.464 119.552,119.670 120.176,119.876 120.562,120.082 120.949,120.288 121.336,120.494 121.722,120.699 122.065,120.905 122.408,121.111 122.751,121.317 123.094,121.523 123.406,121.741 123.718,121.959 124.030,122.177 124.341,122.396 124.516,122.589 124.691,122.782 124.865,122.976 125.040,123.169 125.233,123.387 125.427,123.606 125.620,123.824 125.813,124.042 125.944,124.217 126.075,124.391 126.206,124.566 126.337,124.741 126.499,125.009 126.661,125.277 126.824,125.545 126.986,125.813 127.092,126.019 127.198,126.225 127.304,126.431 127.410,126.636 127.740,126.718 128.071,126.799 128.401,126.880 128.732,126.961 129.131,127.154 129.530,127.347 129.929,127.541 130.329,127.734 130.572,127.865 130.815,127.996 131.058,128.127 131.301,128.258 131.613,128.408 131.925,128.557 132.237,128.707 132.549,128.857 133.048,129.200 133.547,129.543 134.045,129.886 134.544,130.229 134.838,130.466 135.131,130.703 135.424,130.940 135.717,131.177 136.004,131.407 136.291,131.638 136.577,131.869 136.864,132.100 137.164,132.424 137.463,132.748 137.762,133.073 138.062,133.397 138.024,133.659 137.987,133.921 137.949,134.183 137.912,134.445 137.719,134.731 137.525,135.018 137.332,135.305 137.139,135.592 136.977,135.823 136.814,136.054 136.652,136.284 136.490,136.515 136.234,136.758 135.979,137.001 135.723,137.245 135.467,137.488 135.087,137.949 134.706,138.411 134.326,138.872 133.946,139.334 133.671,139.658 133.397,139.983 133.122,140.307 132.848,140.631 132.536,141.055 132.224,141.479 131.913,141.903 131.601,142.327 131.345,142.670 131.089,143.013 130.834,143.356 130.578,143.699 130.154,144.080 129.730,144.460 129.306,144.841 128.882,145.221 128.557,145.714 128.233,146.207 127.909,146.699 127.584,147.192 127.410,147.498 127.235,147.803 127.061,148.109 126.886,148.414 126.668,148.701 126.449,148.988 126.231,149.275 126.013,149.562 125.894,149.892 125.776,150.223 125.657,150.553 125.539,150.884 125.576,151.327 125.614,151.769 125.651,152.212 125.689,152.655 125.751,152.936 125.813,153.216 125.876,153.497 125.938,153.778 126.113,154.008 126.287,154.239 126.462,154.470 126.637,154.701 127.142,154.775 127.647,154.850 128.152,154.925 128.657,155.000 128.950,154.994 129.243,154.987 129.536,154.981 129.830,154.975 130.597,154.956 131.364,154.938 132.131,154.919 132.898,154.900 133.035,154.894 133.172,154.888 133.310,154.881 133.447,154.875 133.640,154.844 133.833,154.813 134.027,154.782 134.220,154.750 134.501,154.538 134.781,154.326 135.062,154.114 135.343,153.902 135.761,153.435 136.178,152.967 136.596,152.499 137.014,152.031 137.569,151.458 138.124,150.884 138.679,150.310 139.234,149.736 139.552,149.375 139.870,149.013 140.188,148.651 140.506,148.289 140.831,147.678 141.155,147.067 141.479,146.456 141.804,145.845 142.165,145.371 142.527,144.897 142.889,144.423 143.251,143.949 143.718,143.369 144.186,142.789 144.654,142.209 145.121,141.629 145.464,141.280 145.807,140.930 146.150,140.581 146.494,140.232 146.911,139.714 147.329,139.197 147.747,138.679 148.165,138.161 148.302,138.024 148.439,137.887 148.576,137.750 148.714,137.613 148.901,137.444 149.088,137.276 149.275,137.107 149.462,136.939 149.768,136.596 150.073,136.253 150.379,135.910 150.684,135.567 150.996,135.249 151.308,134.931 151.620,134.613 151.932,134.295 152.237,134.164 152.543,134.033 152.848,133.902 153.154,133.771 153.485,133.652 153.815,133.534 154.146,133.415 154.476,133.297 154.888,133.253 155.299,133.210 155.711,133.166 156.123,133.122 156.659,133.166 157.195,133.210 157.732,133.253 158.268,133.297 158.854,133.322 159.440,133.347 160.027,133.372 160.613,133.397 161.611,133.453 162.609,133.509 163.606,133.565 164.604,133.621 165.303,133.665 166.001,133.709 166.700,133.752 167.398,133.796 167.741,133.827 168.084,133.858 168.427,133.889 168.770,133.921 169.918,133.952 171.065,133.983 172.213,134.014 173.360,134.045 173.841,134.064 174.321,134.083 174.801,134.101 175.281,134.120 175.799,134.145 176.316,134.170 176.834,134.195 177.352,134.220 178.356,134.232 179.360,134.245 180.364,134.257 181.368,134.270 181.711,134.307 182.054,134.345 182.397,134.382 182.740,134.420 182.873,134.397 183.133,134.354 183.304,134.352 183.189,134.345 184.006,132.301 184.006,132.710 181.963,132.710 182.780,130.667 186.867,128.215 183.937,133.596" fill="none" stroke="black" stroke-width="1"/>
</svg>
