<?xml version="1.0" encoding="UTF-8"?>
<svg xmlns="http://www.w3.org/2000/svg" width="262.1" height="160.0" viewBox="0 0 262.1 160.0">
  <polyline points="257.057,82.599 257.040,82.148 257.023,81.698 257.005,81.248 256.988,80.797 256.971,80.347 256.953,79.897 256.936,79.446 256.919,78.996 256.902,78.701 256.884,78.407 256.867,78.113 256.850,77.818 256.832,77.524 256.815,77.229 256.798,76.935 256.780,76.640 256.798,76.242 256.815,75.843 256.832,75.445 256.850,75.047 256.867,74.648 256.884,74.250 256.902,73.852 256.919,73.453 256.642,73.176 256.365,72.899 256.087,72.622 255.810,72.345 255.793,71.946 255.776,71.548 255.758,71.149 255.741,70.751 255.724,70.353 255.706,69.954 255.689,69.556 255.672,69.158 255.014,68.499 254.355,67.841 253.697,67.183 253.039,66.525 253.074,66.248 253.108,65.970 253.143,65.693 253.177,65.416 253.212,65.139 253.247,64.862 253.281,64.585 253.316,64.308 253.195,64.117 253.074,63.927 252.952,63.736 252.831,63.545 252.710,63.355 252.589,63.164 252.467,62.974 252.346,62.783 251.532,63.078 250.718,63.372 249.904,63.667 249.090,63.961 248.276,64.256 247.461,64.550 246.647,64.845 245.833,65.139 245.452,65.364 245.071,65.589 244.690,65.815 244.309,66.040 243.928,66.265 243.547,66.490 243.166,66.715 242.785,66.940 242.421,67.148 242.057,67.356 241.694,67.564 241.330,67.772 240.966,67.980 240.602,68.188 240.239,68.395 239.875,68.603 239.407,68.863 238.939,69.123 238.472,69.383 238.004,69.643 237.536,69.902 237.069,70.162 236.601,70.422 236.133,70.682 235.579,70.942 235.025,71.201 234.471,71.461 233.916,71.721 233.362,71.981 232.808,72.241 232.253,72.501 231.699,72.760 230.989,73.020 230.279,73.280 229.569,73.540 228.859,73.800 228.148,74.059 227.438,74.319 226.728,74.579 226.018,74.839 225.100,75.220 224.182,75.601 223.264,75.982 222.346,76.363 221.428,76.744 220.510,77.125 219.592,77.506 218.674,77.887 217.929,78.182 217.184,78.476 216.439,78.771 215.694,79.065 214.950,79.360 214.205,79.654 213.460,79.949 212.715,80.243 211.815,80.538 210.914,80.832 210.013,81.126 209.112,81.421 208.212,81.715 207.311,82.010 206.410,82.304 205.510,82.599 204.851,82.876 204.193,83.153 203.535,83.430 202.877,83.707 202.219,83.984 201.560,84.262 200.902,84.539 200.244,84.816 199.447,85.128 198.650,85.439 197.854,85.751 197.057,86.063 196.260,86.375 195.463,86.687 194.667,86.998 193.870,87.310 192.831,87.657 191.791,88.003 190.752,88.349 189.713,88.696 188.673,89.042 187.634,89.389 186.595,89.735 185.556,90.081 185.088,90.255 184.620,90.428 184.153,90.601 183.685,90.774 183.217,90.948 182.750,91.121 182.282,91.294 181.814,91.467 181.243,91.692 180.671,91.918 180.100,92.143 179.528,92.368 178.956,92.593 178.385,92.818 177.813,93.043 177.242,93.269 176.306,93.615 175.371,93.961 174.435,94.308 173.500,94.654 172.565,95.001 171.629,95.347 170.694,95.694 169.759,96.040 168.598,96.352 167.438,96.664 166.277,96.975 165.117,97.287 163.956,97.599 162.796,97.911 161.635,98.222 160.475,98.534 159.972,98.673 159.470,98.811 158.968,98.950 158.465,99.088 157.963,99.227 157.461,99.366 156.958,99.504 156.456,99.643 155.954,99.833 155.452,100.024 154.949,100.214 154.447,100.405 153.945,100.595 153.442,100.786 152.940,100.976 152.438,101.167 151.554,101.479 150.671,101.791 149.787,102.102 148.904,102.414 148.021,102.726 147.137,103.038 146.254,103.349 145.371,103.661 144.903,103.800 144.435,103.938 143.968,104.077 143.500,104.216 143.032,104.354 142.565,104.493 142.097,104.631 141.629,104.770 140.832,104.995 140.036,105.220 139.239,105.445 138.442,105.671 137.645,105.896 136.849,106.121 136.052,106.346 135.255,106.571 134.753,106.675 134.250,106.779 133.748,106.883 133.246,106.987 132.743,107.091 132.241,107.195 131.739,107.299 131.237,107.403 130.890,107.455 130.544,107.507 130.197,107.558 129.851,107.610 129.504,107.662 129.158,107.714 128.812,107.766 128.465,107.818 128.084,107.801 127.703,107.784 127.322,107.766 126.941,107.749 126.560,107.732 126.179,107.714 125.798,107.697 125.417,107.680 124.672,107.281 123.927,106.883 123.182,106.484 122.437,106.086 121.693,105.688 120.948,105.289 120.203,104.891 119.458,104.493 119.008,104.215 118.557,103.938 118.107,103.661 117.657,103.384 117.206,103.107 116.756,102.830 116.306,102.553 115.855,102.275 115.526,102.033 115.197,101.790 114.868,101.548 114.539,101.305 114.210,101.063 113.881,100.820 113.552,100.578 113.223,100.335 112.807,100.093 112.391,99.850 111.975,99.608 111.560,99.365 111.144,99.123 110.728,98.881 110.313,98.638 109.897,98.396 109.395,97.997 108.892,97.599 108.390,97.200 107.888,96.802 107.385,96.404 106.883,96.005 106.381,95.607 105.878,95.208 105.549,94.966 105.220,94.723 104.891,94.481 104.562,94.238 104.233,93.996 103.904,93.753 103.575,93.511 103.246,93.268 102.761,92.818 102.276,92.368 101.791,91.917 101.306,91.467 100.821,91.017 100.336,90.566 99.851,90.116 99.366,89.666 98.967,89.354 98.569,89.042 98.170,88.730 97.772,88.419 97.374,88.107 96.975,87.795 96.577,87.483 96.179,87.171 95.919,86.946 95.659,86.721 95.399,86.496 95.139,86.271 94.879,86.046 94.620,85.820 94.360,85.595 94.100,85.370 93.650,84.972 93.199,84.573 92.749,84.175 92.299,83.776 91.848,83.378 91.398,82.980 90.948,82.581 90.497,82.183 90.030,81.785 89.562,81.386 89.094,80.988 88.627,80.589 88.159,80.191 87.691,79.793 87.223,79.394 86.756,78.996 86.323,78.511 85.890,78.026 85.457,77.541 85.024,77.056 84.591,76.571 84.158,76.086 83.725,75.601 83.292,75.116 82.772,74.631 82.252,74.146 81.733,73.661 81.213,73.176 80.693,72.691 80.174,72.206 79.654,71.721 79.135,71.236 78.823,70.924 78.511,70.612 78.199,70.301 77.887,69.989 77.576,69.677 77.264,69.365 76.952,69.053 76.640,68.742 76.311,68.395 75.982,68.049 75.653,67.702 75.324,67.356 74.995,67.010 74.666,66.663 74.337,66.317 74.007,65.970 73.886,65.832 73.765,65.693 73.644,65.555 73.522,65.416 73.401,65.277 73.280,65.139 73.159,65.000 73.037,64.862 76.536,60.878 76.294,60.636 76.051,60.393 75.809,60.151 75.566,59.908 75.324,59.666 75.081,59.423 74.839,59.181 74.406,58.765 73.973,58.349 73.540,57.933 73.107,57.518 72.674,57.102 72.241,56.686 71.808,56.271 71.375,55.855 71.201,55.664 71.028,55.474 70.855,55.283 70.682,55.093 70.509,54.902 70.335,54.712 70.162,54.521 69.989,54.331 69.521,53.898 69.054,53.465 68.586,53.032 68.118,52.599 67.651,52.165 67.183,51.732 66.715,51.299 66.248,50.866 65.797,50.451 65.347,50.035 64.897,49.619 64.446,49.204 63.996,48.788 63.545,48.372 63.095,47.956 62.645,47.541 62.385,47.246 62.125,46.952 61.865,46.657 61.606,46.363 61.346,46.068 61.086,45.774 60.826,45.480 60.566,45.185 60.151,44.804 59.735,44.423 59.319,44.042 58.903,43.661 58.488,43.280 58.072,42.899 57.656,42.518 57.241,42.137 56.877,41.773 56.513,41.409 56.149,41.045 55.786,40.682 55.422,40.318 55.058,39.954 54.694,39.590 54.331,39.227 53.967,38.897 53.603,38.568 53.239,38.239 52.876,37.910 52.512,37.581 52.148,37.252 51.784,36.923 51.421,36.594 51.109,36.195 50.797,35.797 50.485,35.399 50.174,35.000 49.862,34.602 49.550,34.203 49.238,33.805 48.926,33.407 48.511,33.095 48.095,32.783 47.679,32.471 47.264,32.160 46.848,31.848 46.432,31.536 46.016,31.224 45.601,30.912 45.272,30.497 44.943,30.081 44.613,29.665 44.284,29.250 43.955,28.834 43.626,28.418 43.297,28.002 42.968,27.587 42.570,27.206 42.171,26.825 41.773,26.444 41.374,26.063 40.976,25.681 40.578,25.300 40.179,24.919 39.781,24.538 39.400,24.175 39.019,23.811 38.638,23.447 38.257,23.083 37.876,22.720 37.494,22.356 37.113,21.992 36.732,21.628 36.351,21.265 35.970,20.901 35.589,20.537 35.208,20.173 34.827,19.810 34.446,19.446 34.065,19.082 33.684,18.718 33.424,18.337 33.164,17.956 32.904,17.575 32.645,17.194 32.385,16.813 32.125,16.432 31.865,16.051 31.605,15.670 31.328,15.358 31.051,15.046 30.774,14.734 30.497,14.423 30.220,14.111 29.942,13.799 29.665,13.487 29.388,13.176 29.076,12.777 28.765,12.379 28.453,11.980 28.141,11.582 27.829,11.184 27.517,10.785 27.206,10.387 26.894,9.988 26.548,9.694 26.201,9.400 25.855,9.105 25.508,8.811 25.162,8.516 24.815,8.222 24.469,7.927 24.123,7.633 23.534,7.408 22.945,7.182 22.356,6.957 21.767,6.732 21.178,6.507 20.589,6.282 20.000,6.057 19.411,5.831 19.099,5.762 18.788,5.693 18.476,5.624 18.164,5.554 17.852,5.485 17.541,5.416 17.229,5.346 16.917,5.277 16.415,5.242 15.912,5.208 15.410,5.173 14.908,5.139 14.405,5.104 13.903,5.069 13.401,5.035 12.898,5.000 12.431,5.121 11.963,5.242 11.495,5.364 11.028,5.485 10.560,5.606 10.092,5.727 9.625,5.849 9.157,5.970 8.880,6.212 8.603,6.455 8.326,6.697 8.049,6.940 7.771,7.182 7.494,7.425 7.217,7.667 6.940,7.910 6.767,8.256 6.594,8.603 6.420,8.949 6.247,9.296 6.074,9.642 5.901,9.988 5.727,10.335 5.554,10.681 5.485,11.114 5.416,11.547 5.346,11.980 5.277,12.413 5.208,12.846 5.139,13.280 5.069,13.713 5.000,14.146 5.035,14.509 5.069,14.873 5.104,15.237 5.139,15.601 5.173,15.964 5.208,16.328 5.242,16.692 5.277,17.056 5.364,17.281 5.450,17.506 5.537,17.731 5.624,17.956 5.710,18.181 5.797,18.407 5.883,18.632 5.970,18.857 6.264,19.221 6.559,19.584 6.853,19.948 7.148,20.312 7.442,20.676 7.737,21.039 8.031,21.403 8.326,21.767 8.516,21.905 8.707,22.044 8.897,22.183 9.088,22.321 9.278,22.460 9.469,22.598 9.659,22.737 9.850,22.875 10.300,23.049 10.751,23.222 11.201,23.395 11.651,23.568 12.102,23.741 12.552,23.915 13.002,24.088 13.453,24.261 13.834,24.330 14.215,24.400 14.596,24.469 14.977,24.538 15.358,24.608 15.739,24.677 16.120,24.746 16.501,24.815 16.830,25.144 17.159,25.474 17.489,25.803 17.818,26.132 18.199,26.166 18.580,26.201 18.961,26.236 19.342,26.270 19.723,26.305 20.104,26.340 20.485,26.374 20.866,26.409 21.161,26.738 21.455,27.067 21.750,27.396 22.044,27.725 22.338,28.054 22.633,28.384 22.927,28.713 23.222,29.042 23.464,29.388 23.707,29.735 23.949,30.081 24.192,30.427 24.434,30.774 24.677,31.120 24.919,31.467 25.162,31.813 25.422,32.090 25.681,32.367 25.941,32.645 26.201,32.922 26.461,33.199 26.721,33.476 26.981,33.753 27.240,34.030 27.500,34.429 27.760,34.827 28.020,35.225 28.280,35.624 28.539,36.022 28.799,36.421 29.059,36.819 29.319,37.217 29.579,37.546 29.839,37.876 30.098,38.205 30.358,38.534 30.618,38.863 30.878,39.192 31.138,39.521 31.397,39.850 31.588,40.075 31.778,40.301 31.969,40.526 32.160,40.751 32.350,40.976 32.541,41.201 32.731,41.426 32.922,41.652 33.285,42.223 33.649,42.795 34.013,43.366 34.377,43.938 34.740,44.510 35.104,45.081 35.468,45.653 35.832,46.224 36.022,46.415 36.213,46.605 36.403,46.796 36.594,46.986 36.784,47.177 36.975,47.368 37.165,47.558 37.356,47.749 37.650,48.164 37.945,48.580 38.239,48.996 38.534,49.411 38.828,49.827 39.123,50.243 39.417,50.659 39.712,51.074 40.023,51.473 40.335,51.871 40.647,52.269 40.959,52.668 41.270,53.066 41.582,53.465 41.894,53.863 42.206,54.261 42.518,54.556 42.829,54.850 43.141,55.145 43.453,55.439 43.765,55.734 44.077,56.028 44.388,56.323 44.700,56.617 44.925,56.929 45.150,57.241 45.376,57.552 45.601,57.864 45.826,58.176 46.051,58.488 46.276,58.799 46.501,59.111 46.813,59.510 47.125,59.908 47.437,60.306 47.749,60.705 48.060,61.103 48.372,61.502 48.684,61.900 48.996,62.298 49.307,62.593 49.619,62.887 49.931,63.182 50.243,63.476 50.555,63.771 50.866,64.065 51.178,64.360 51.490,64.654 51.715,64.897 51.940,65.139 52.165,65.382 52.391,65.624 52.616,65.867 52.841,66.109 53.066,66.352 53.291,66.594 53.586,66.958 53.880,67.322 54.175,67.685 54.469,68.049 54.764,68.413 55.058,68.776 55.353,69.140 55.647,69.504 55.872,69.764 56.097,70.024 56.323,70.283 56.548,70.543 56.773,70.803 56.998,71.063 57.223,71.323 57.448,71.583 57.933,72.102 58.418,72.622 58.903,73.141 59.388,73.661 59.873,74.181 60.358,74.700 60.843,75.220 61.328,75.740 61.554,75.982 61.779,76.225 62.004,76.467 62.229,76.710 62.454,76.952 62.679,77.195 62.905,77.437 63.130,77.680 63.615,78.147 64.100,78.615 64.585,79.083 65.070,79.550 65.555,80.018 66.040,80.486 66.525,80.953 67.010,81.421 67.356,81.750 67.703,82.079 68.049,82.408 68.395,82.737 68.742,83.066 69.088,83.396 69.435,83.725 69.781,84.054 70.197,84.435 70.613,84.816 71.028,85.197 71.444,85.578 71.860,85.959 72.275,86.340 72.691,86.721 73.107,87.102 73.349,87.431 73.592,87.760 73.834,88.090 74.077,88.419 74.319,88.748 74.562,89.077 74.804,89.406 75.047,89.735 75.324,89.960 75.601,90.185 75.878,90.411 76.155,90.636 76.432,90.861 76.710,91.086 76.987,91.311 77.264,91.536 77.714,91.918 78.165,92.299 78.615,92.680 79.065,93.061 79.516,93.442 79.966,93.823 80.416,94.204 80.867,94.585 81.109,94.810 81.352,95.035 81.594,95.261 81.837,95.486 82.079,95.711 82.322,95.936 82.564,96.161 82.807,96.386 83.049,96.785 83.292,97.183 83.534,97.582 83.777,97.980 84.019,98.378 84.262,98.777 84.504,99.175 84.747,99.573 85.041,99.833 85.335,100.093 85.630,100.353 85.924,100.613 86.219,100.873 86.513,101.132 86.808,101.392 87.102,101.652 87.397,101.964 87.691,102.276 87.986,102.587 88.280,102.899 88.575,103.211 88.869,103.523 89.163,103.834 89.458,104.146 89.891,104.458 90.324,104.770 90.757,105.082 91.190,105.393 91.623,105.705 92.056,106.017 92.489,106.329 92.922,106.641 93.199,106.900 93.476,107.160 93.754,107.420 94.031,107.680 94.308,107.940 94.585,108.199 94.862,108.459 95.139,108.719 95.676,109.169 96.213,109.620 96.750,110.070 97.287,110.520 97.824,110.971 98.361,111.421 98.898,111.871 99.435,112.322 99.712,112.478 99.989,112.634 100.266,112.790 100.543,112.945 100.821,113.101 101.098,113.257 101.375,113.413 101.652,113.569 102.068,113.777 102.483,113.985 102.899,114.193 103.315,114.400 103.731,114.608 104.146,114.816 104.562,115.024 104.978,115.232 105.826,115.422 106.675,115.613 107.524,115.803 108.373,115.994 109.221,116.184 110.070,116.375 110.919,116.566 111.768,116.756 112.183,116.808 112.599,116.860 113.015,116.912 113.430,116.964 113.846,117.016 114.262,117.068 114.678,117.120 115.093,117.172 115.717,117.224 116.340,117.275 116.964,117.327 117.587,117.379 118.211,117.431 118.835,117.483 119.458,117.535 120.082,117.587 120.549,117.604 121.017,117.622 121.485,117.639 121.952,117.656 122.420,117.674 122.888,117.691 123.355,117.708 123.823,117.726 124.533,117.795 125.243,117.864 125.954,117.933 126.664,118.003 127.374,118.072 128.084,118.141 128.794,118.210 129.504,118.280 130.180,118.366 130.855,118.453 131.531,118.539 132.207,118.626 132.882,118.713 133.558,118.799 134.233,118.886 134.909,118.972 135.324,119.024 135.740,119.076 136.156,119.128 136.571,119.180 136.987,119.232 137.403,119.284 137.819,119.336 138.234,119.388 138.615,119.526 138.996,119.665 139.377,119.804 139.759,119.942 140.140,120.081 140.521,120.219 140.902,120.358 141.283,120.496 141.664,120.808 142.045,121.120 142.426,121.432 142.807,121.744 143.188,122.055 143.569,122.367 143.950,122.679 144.331,122.991 144.227,123.406 144.123,123.822 144.020,124.238 143.916,124.654 143.812,125.069 143.708,125.485 143.604,125.901 143.500,126.316 143.223,126.749 142.946,127.182 142.668,127.615 142.391,128.048 142.114,128.482 141.837,128.915 141.560,129.348 141.283,129.781 141.110,130.283 140.936,130.785 140.763,131.288 140.590,131.790 140.417,132.292 140.244,132.794 140.070,133.297 139.897,133.799 139.759,134.094 139.620,134.388 139.481,134.682 139.343,134.977 139.204,135.271 139.066,135.566 138.927,135.860 138.789,136.155 138.581,136.726 138.373,137.298 138.165,137.870 137.957,138.441 137.749,139.013 137.541,139.584 137.334,140.156 137.126,140.728 137.022,141.247 136.918,141.767 136.814,142.286 136.710,142.806 136.606,143.326 136.502,143.845 136.398,144.365 136.294,144.885 136.381,145.439 136.467,145.993 136.554,146.547 136.641,147.102 136.727,147.656 136.814,148.210 136.900,148.765 136.987,149.319 137.212,149.856 137.437,150.393 137.663,150.930 137.888,151.467 138.113,152.004 138.338,152.541 138.563,153.078 138.788,153.614 138.996,153.736 139.204,153.857 139.412,153.978 139.620,154.099 139.828,154.221 140.036,154.342 140.243,154.463 140.451,154.584 141.006,154.636 141.560,154.688 142.114,154.740 142.668,154.792 143.223,154.844 143.777,154.896 144.331,154.948 144.885,155.000 145.284,154.931 145.682,154.861 146.081,154.792 146.479,154.723 146.877,154.654 147.276,154.584 147.674,154.515 148.073,154.446 148.436,154.359 148.800,154.273 149.164,154.186 149.528,154.100 149.891,154.013 150.255,153.926 150.619,153.840 150.983,153.753 151.121,153.494 151.260,153.234 151.398,152.974 151.537,152.714 151.675,152.454 151.814,152.194 151.952,151.935 152.091,151.675 152.264,151.121 152.437,150.566 152.611,150.012 152.784,149.458 152.957,148.903 153.130,148.349 153.304,147.795 153.477,147.241 153.650,146.877 153.823,146.513 153.996,146.149 154.170,145.786 154.343,145.422 154.516,145.058 154.689,144.694 154.862,144.331 155.088,143.672 155.313,143.014 155.538,142.356 155.763,141.698 155.988,141.040 156.213,140.381 156.439,139.723 156.664,139.065 156.958,138.441 157.253,137.818 157.547,137.194 157.842,136.571 158.136,135.947 158.431,135.324 158.725,134.700 159.020,134.077 159.193,133.609 159.366,133.141 159.539,132.673 159.712,132.206 159.886,131.738 160.059,131.270 160.232,130.803 160.405,130.335 160.613,129.954 160.821,129.573 161.029,129.192 161.237,128.811 161.444,128.430 161.652,128.049 161.860,127.668 162.068,127.287 162.276,126.836 162.484,126.386 162.692,125.936 162.899,125.485 163.107,125.035 163.315,124.585 163.523,124.134 163.731,123.684 164.025,123.233 164.320,122.783 164.614,122.333 164.909,121.882 165.203,121.432 165.498,120.982 165.792,120.531 166.087,120.081 166.416,119.839 166.745,119.596 167.074,119.354 167.403,119.111 167.732,118.869 168.061,118.626 168.390,118.384 168.719,118.141 169.239,117.951 169.759,117.760 170.278,117.569 170.798,117.379 171.318,117.188 171.837,116.998 172.357,116.807 172.876,116.617 173.691,116.392 174.505,116.166 175.319,115.941 176.133,115.716 176.947,115.491 177.761,115.266 178.575,115.041 179.389,114.815 180.117,114.452 180.844,114.088 181.572,113.724 182.299,113.360 183.027,112.997 183.754,112.633 184.482,112.269 185.209,111.905 185.781,111.750 186.352,111.594 186.924,111.438 187.495,111.282 188.067,111.126 188.639,110.970 189.210,110.814 189.782,110.658 190.180,110.468 190.579,110.277 190.977,110.087 191.375,109.896 191.774,109.706 192.172,109.515 192.571,109.325 192.969,109.134 193.575,108.909 194.181,108.684 194.788,108.459 195.394,108.233 196.000,108.008 196.606,107.783 197.213,107.558 197.819,107.333 198.096,107.246 198.373,107.159 198.650,107.073 198.927,106.986 199.205,106.900 199.482,106.813 199.759,106.726 200.036,106.640 200.608,106.397 201.179,106.155 201.751,105.912 202.322,105.670 202.894,105.427 203.466,105.185 204.037,104.942 204.609,104.700 205.388,104.423 206.168,104.146 206.947,103.868 207.727,103.591 208.506,103.314 209.285,103.037 210.065,102.760 210.844,102.483 211.295,102.310 211.745,102.136 212.195,101.963 212.646,101.790 213.096,101.617 213.546,101.444 213.997,101.270 214.447,101.097 214.846,100.959 215.244,100.820 215.642,100.681 216.041,100.543 216.439,100.404 216.838,100.266 217.236,100.127 217.634,99.989 218.119,99.746 218.604,99.504 219.089,99.261 219.574,99.019 220.059,98.776 220.544,98.534 221.029,98.291 221.514,98.049 221.965,97.823 222.415,97.598 222.865,97.373 223.316,97.148 223.766,96.923 224.216,96.698 224.667,96.472 225.117,96.247 225.637,96.039 226.156,95.831 226.676,95.624 227.196,95.416 227.715,95.208 228.235,95.000 228.754,94.792 229.274,94.584 229.603,94.411 229.932,94.238 230.261,94.065 230.591,93.891 230.920,93.718 231.249,93.545 231.578,93.372 231.907,93.199 232.236,93.077 232.565,92.956 232.894,92.835 233.223,92.714 233.552,92.592 233.882,92.471 234.211,92.350 234.540,92.229 234.852,92.038 235.163,91.848 235.475,91.657 235.787,91.467 236.099,91.276 236.410,91.085 236.722,90.895 237.034,90.704 237.259,90.583 237.484,90.462 237.710,90.341 237.935,90.219 238.160,90.098 238.385,89.977 238.610,89.856 238.835,89.734 239.061,89.648 239.286,89.561 239.511,89.475 239.736,89.388 239.961,89.301 240.186,89.215 240.412,89.128 240.637,89.042 241.260,88.816 241.884,88.591 242.507,88.366 243.131,88.141 243.755,87.916 244.378,87.691 245.002,87.465 245.625,87.240 245.850,87.171 246.076,87.102 246.301,87.032 246.526,86.963 246.751,86.894 246.976,86.825 247.201,86.755 247.427,86.686 247.877,86.513 248.327,86.340 248.778,86.167 249.228,85.993 249.678,85.820 250.129,85.647 250.579,85.474 251.029,85.300 251.272,85.231 251.514,85.162 251.757,85.093 251.999,85.023 252.242,84.954 252.484,84.885 252.727,84.816 252.969,84.746 253.316,84.642 253.662,84.538 254.009,84.434 254.355,84.331 254.702,84.227 255.048,84.123 255.394,84.019 257.057,82.599" fill="none" stroke="black" stroke-width="1"/>
</svg>
