<?xml version="1.0" encoding="UTF-8"?>
<svg xmlns="http://www.w3.org/2000/svg" width="208.7" height="160.0" viewBox="0 0 208.7 160.0">
  <polyline points="180.060,113.425 180.383,113.246 180.706,113.066 181.029,112.887 181.352,112.707 181.676,112.528 181.999,112.348 182.322,112.169 182.645,111.989 182.968,111.899 183.291,111.809 183.614,111.720 183.937,111.630 184.261,111.540 184.584,111.450 184.907,111.360 185.230,111.271 185.750,111.360 186.271,111.450 186.792,111.540 187.312,111.630 187.833,111.720 188.353,111.809 188.874,111.899 189.395,111.989 189.969,112.169 190.543,112.348 191.118,112.528 191.692,112.707 192.267,112.887 192.841,113.066 193.416,113.246 193.990,113.425 194.403,113.515 194.816,113.605 195.229,113.694 195.642,113.784 196.054,113.874 196.467,113.964 196.880,114.054 197.293,114.143 197.796,114.251 198.298,114.359 198.801,114.467 199.304,114.574 199.806,114.682 200.309,114.790 200.811,114.897 201.314,115.005 201.817,115.508 202.319,116.010 202.822,116.513 203.325,117.016 203.414,117.105 203.504,117.195 203.594,117.285 203.684,117.375 203.666,117.070 203.648,116.764 203.630,116.459 203.612,116.154 203.594,115.849 203.576,115.544 203.558,115.239 203.540,114.933 203.558,114.718 203.576,114.503 203.594,114.287 203.612,114.072 203.630,113.856 203.648,113.641 203.666,113.425 203.684,113.210 203.217,112.743 202.750,112.277 202.284,111.810 201.817,111.343 201.799,110.948 201.781,110.553 201.763,110.158 201.745,109.763 201.727,109.368 201.709,108.974 201.691,108.579 201.673,108.184 201.457,107.986 201.242,107.789 201.027,107.591 200.811,107.394 200.596,107.196 200.380,106.999 200.165,106.801 199.950,106.604 199.232,106.694 198.513,106.784 197.795,106.873 197.077,106.963 196.359,107.053 195.641,107.143 194.923,107.232 194.205,107.322 193.523,106.640 192.841,105.958 192.159,105.276 191.477,104.593 190.723,104.558 189.969,104.522 189.215,104.486 188.461,104.450 187.707,104.414 186.953,104.378 186.199,104.342 185.445,104.306 184.547,104.270 183.650,104.234 182.752,104.198 181.855,104.163 180.957,104.127 180.060,104.091 179.162,104.055 178.265,104.019 177.421,104.037 176.577,104.055 175.733,104.073 174.890,104.091 174.046,104.109 173.202,104.127 172.359,104.145 171.515,104.163 171.066,104.145 170.617,104.127 170.169,104.109 169.720,104.091 169.271,104.073 168.822,104.055 168.373,104.037 167.925,104.019 167.027,103.893 166.130,103.768 165.232,103.642 164.334,103.516 163.437,103.391 162.539,103.265 161.642,103.139 160.744,103.014 160.116,102.942 159.488,102.870 158.859,102.798 158.231,102.726 157.603,102.655 156.974,102.583 156.346,102.511 155.718,102.439 155.036,102.332 154.354,102.224 153.671,102.116 152.989,102.008 152.307,101.901 151.625,101.793 150.943,101.685 150.261,101.578 149.561,101.380 148.861,101.183 148.160,100.985 147.460,100.788 146.760,100.590 146.060,100.393 145.360,100.195 144.660,99.998 144.103,99.890 143.547,99.782 142.990,99.675 142.434,99.567 141.878,99.459 141.321,99.352 140.765,99.244 140.208,99.136 139.436,98.975 138.664,98.813 137.892,98.651 137.120,98.490 136.349,98.328 135.577,98.167 134.805,98.005 134.033,97.844 133.692,97.754 133.351,97.664 133.010,97.574 132.669,97.485 132.327,97.395 131.986,97.305 131.645,97.215 131.304,97.126 130.604,96.964 129.904,96.803 129.204,96.641 128.504,96.479 127.804,96.318 127.104,96.156 126.404,95.995 125.703,95.833 125.021,95.492 124.339,95.151 123.657,94.810 122.975,94.469 122.293,94.128 121.611,93.787 120.928,93.446 120.246,93.105 119.762,92.871 119.277,92.638 118.792,92.405 118.308,92.171 117.823,91.938 117.338,91.704 116.854,91.471 116.369,91.238 115.920,91.022 115.471,90.807 115.023,90.591 114.574,90.376 114.125,90.161 113.676,89.945 113.227,89.730 112.779,89.514 112.491,89.371 112.204,89.227 111.917,89.084 111.630,88.940 111.343,88.796 112.563,87.145 112.276,87.001 111.989,86.857 111.630,86.660 111.271,86.462 110.912,86.265 110.553,86.068 110.194,85.870 109.835,85.673 109.476,85.475 109.117,85.278 108.542,84.972 107.968,84.667 107.394,84.362 106.819,84.057 106.245,83.752 105.670,83.447 105.096,83.141 104.521,82.836 104.073,82.585 103.624,82.334 103.175,82.082 102.726,81.831 102.277,81.580 101.829,81.328 101.380,81.077 100.931,80.826 100.482,80.592 100.034,80.359 99.585,80.126 99.136,79.892 98.687,79.659 98.238,79.426 97.790,79.192 97.341,78.959 96.874,78.546 96.407,78.133 95.941,77.720 95.474,77.307 95.007,76.894 94.540,76.482 94.074,76.069 93.607,75.656 93.104,75.189 92.602,74.722 92.099,74.256 91.596,73.789 91.094,73.322 90.591,72.855 90.089,72.389 89.586,71.922 89.065,71.473 88.545,71.024 88.024,70.576 87.504,70.127 86.983,69.678 86.462,69.229 85.942,68.781 85.421,68.332 85.188,68.080 84.955,67.829 84.721,67.578 84.488,67.326 84.254,67.075 84.021,66.824 83.788,66.573 83.554,66.321 83.231,65.890 82.908,65.460 82.585,65.029 82.262,64.598 81.939,64.167 81.616,63.736 81.293,63.305 80.969,62.875 80.790,62.587 80.610,62.300 80.431,62.013 80.251,61.726 80.072,61.438 79.892,61.151 79.713,60.864 79.533,60.577 79.264,60.182 78.995,59.787 78.725,59.392 78.456,58.997 78.187,58.602 77.918,58.207 77.648,57.812 77.379,57.417 77.200,57.076 77.020,56.735 76.841,56.394 76.661,56.053 76.482,55.712 76.302,55.371 76.123,55.030 75.943,54.689 75.692,54.348 75.440,54.007 75.189,53.666 74.938,53.325 74.686,52.983 74.435,52.642 74.184,52.301 73.933,51.960 73.681,51.583 73.430,51.206 73.179,50.829 72.927,50.452 72.676,50.075 72.425,49.698 72.173,49.321 71.922,48.944 71.725,48.621 71.527,48.298 71.330,47.975 71.132,47.652 70.935,47.329 70.737,47.006 70.540,46.683 70.342,46.359 70.163,45.965 69.983,45.570 69.804,45.175 69.624,44.780 69.445,44.385 69.265,43.990 69.086,43.595 68.906,43.200 68.852,42.859 68.798,42.518 68.745,42.177 68.691,41.836 68.637,41.495 68.583,41.154 68.529,40.813 68.475,40.472 68.242,39.987 68.009,39.502 67.775,39.017 67.542,38.533 67.309,38.048 67.075,37.563 66.842,37.079 66.608,36.594 66.393,36.091 66.178,35.589 65.962,35.086 65.747,34.584 65.531,34.081 65.316,33.578 65.101,33.076 64.885,32.573 64.759,32.232 64.634,31.891 64.508,31.550 64.382,31.209 64.257,30.868 64.131,30.527 64.006,30.185 63.880,29.844 63.808,29.503 63.736,29.162 63.664,28.821 63.593,28.480 63.521,28.139 63.449,27.798 63.377,27.457 63.305,27.116 63.090,26.488 62.875,25.859 62.659,25.231 62.444,24.603 62.228,23.974 62.013,23.346 61.798,22.718 61.582,22.089 61.403,21.623 61.223,21.156 61.044,20.689 60.864,20.223 60.685,19.756 60.505,19.289 60.326,18.822 60.146,18.356 59.859,17.997 59.572,17.638 59.284,17.279 58.997,16.920 58.710,16.561 58.423,16.202 58.135,15.842 57.848,15.483 57.435,15.089 57.023,14.694 56.610,14.299 56.197,13.904 55.784,13.509 55.371,13.114 54.958,12.719 54.545,12.324 54.096,12.073 53.648,11.821 53.199,11.570 52.750,11.319 52.301,11.067 51.853,10.816 51.404,10.565 50.955,10.314 50.758,10.134 50.560,9.954 50.363,9.775 50.165,9.595 49.968,9.416 49.770,9.236 49.573,9.057 49.375,8.877 49.070,8.698 48.765,8.518 48.460,8.339 48.155,8.159 47.849,7.980 47.544,7.800 47.239,7.621 46.934,7.441 46.611,7.298 46.288,7.154 45.965,7.011 45.641,6.867 45.318,6.723 44.995,6.580 44.672,6.436 44.349,6.292 43.864,6.203 43.380,6.113 42.895,6.023 42.410,5.933 41.926,5.844 41.441,5.754 40.956,5.664 40.472,5.574 40.023,5.539 39.574,5.503 39.125,5.467 38.676,5.431 38.228,5.395 37.779,5.359 37.330,5.323 36.881,5.287 36.361,5.251 35.840,5.215 35.320,5.180 34.799,5.144 34.278,5.108 33.758,5.072 33.237,5.036 32.717,5.000 32.268,5.018 31.819,5.036 31.370,5.054 30.922,5.072 30.473,5.090 30.024,5.108 29.575,5.126 29.126,5.144 28.193,5.305 27.259,5.467 26.326,5.628 25.393,5.790 24.459,5.951 23.526,6.113 22.592,6.275 21.659,6.436 21.282,6.580 20.905,6.723 20.528,6.867 20.151,7.011 19.774,7.154 19.397,7.298 19.020,7.441 18.643,7.585 18.104,7.800 17.566,8.016 17.027,8.231 16.489,8.447 15.950,8.662 15.412,8.877 14.873,9.093 14.335,9.308 14.119,9.434 13.904,9.560 13.688,9.685 13.473,9.811 13.258,9.937 13.042,10.062 12.827,10.188 12.611,10.314 12.432,10.421 12.252,10.529 12.073,10.637 11.893,10.744 11.714,10.852 11.534,10.960 11.355,11.068 11.175,11.175 10.870,11.355 10.565,11.534 10.260,11.714 9.955,11.893 9.649,12.073 9.344,12.252 9.039,12.432 8.734,12.611 8.483,12.898 8.231,13.186 7.980,13.473 7.729,13.760 7.477,14.047 7.226,14.335 6.975,14.622 6.723,14.909 6.580,15.196 6.436,15.483 6.292,15.771 6.149,16.058 6.005,16.345 5.862,16.632 5.718,16.920 5.574,17.207 5.539,17.422 5.503,17.638 5.467,17.853 5.431,18.068 5.395,18.284 5.359,18.499 5.323,18.715 5.287,18.930 5.251,19.235 5.215,19.540 5.180,19.846 5.144,20.151 5.108,20.456 5.072,20.761 5.036,21.066 5.000,21.371 5.090,21.748 5.180,22.125 5.269,22.502 5.359,22.879 5.449,23.256 5.539,23.633 5.628,24.010 5.718,24.387 5.987,24.746 6.257,25.105 6.526,25.464 6.795,25.823 7.064,26.182 7.334,26.541 7.603,26.900 7.872,27.259 8.177,27.421 8.483,27.583 8.788,27.744 9.093,27.906 9.398,28.067 9.703,28.229 10.008,28.390 10.314,28.552 10.673,28.678 11.032,28.803 11.391,28.929 11.750,29.055 12.109,29.180 12.468,29.306 12.827,29.432 13.186,29.557 13.383,29.575 13.581,29.593 13.778,29.611 13.976,29.629 14.173,29.647 14.371,29.665 14.568,29.683 14.765,29.701 15.268,29.629 15.771,29.557 16.273,29.485 16.776,29.414 17.279,29.342 17.781,29.270 18.284,29.198 18.787,29.126 19.217,28.965 19.648,28.803 20.079,28.642 20.510,28.480 20.941,28.319 21.371,28.157 21.802,27.995 22.233,27.834 22.664,27.672 23.095,27.511 23.526,27.349 23.956,27.188 24.387,27.026 24.818,26.864 25.249,26.703 25.680,26.541 25.967,26.470 26.254,26.398 26.541,26.326 26.829,26.254 27.116,26.182 27.403,26.111 27.690,26.039 27.978,25.967 28.390,25.913 28.803,25.859 29.216,25.805 29.629,25.752 30.042,25.698 30.455,25.644 30.868,25.590 31.281,25.536 31.783,25.518 32.286,25.500 32.788,25.482 33.291,25.464 33.794,25.446 34.296,25.428 34.799,25.410 35.302,25.392 35.445,25.410 35.589,25.428 35.732,25.446 35.876,25.464 36.020,25.482 36.163,25.500 36.307,25.518 36.450,25.536 36.720,25.680 36.989,25.823 37.258,25.967 37.528,26.111 37.797,26.254 38.066,26.398 38.335,26.541 38.605,26.685 38.982,26.990 39.359,27.295 39.736,27.600 40.113,27.906 40.489,28.211 40.866,28.516 41.243,28.821 41.620,29.126 41.800,29.539 41.979,29.952 42.159,30.365 42.338,30.778 42.518,31.191 42.697,31.604 42.877,32.016 43.057,32.429 43.146,32.806 43.236,33.183 43.326,33.560 43.416,33.937 43.505,34.314 43.595,34.691 43.685,35.068 43.775,35.445 43.882,35.858 43.990,36.271 44.098,36.684 44.205,37.097 44.313,37.510 44.421,37.922 44.528,38.335 44.636,38.748 44.762,39.233 44.888,39.718 45.013,40.202 45.139,40.687 45.264,41.172 45.390,41.656 45.516,42.141 45.641,42.626 45.785,43.056 45.929,43.487 46.072,43.918 46.216,44.349 46.359,44.780 46.503,45.211 46.647,45.641 46.790,46.072 47.006,46.377 47.221,46.683 47.437,46.988 47.652,47.293 47.867,47.598 48.083,47.903 48.298,48.208 48.514,48.514 48.657,48.962 48.801,49.411 48.944,49.860 49.088,50.309 49.232,50.757 49.375,51.206 49.519,51.655 49.663,52.104 49.806,52.319 49.950,52.535 50.093,52.750 50.237,52.965 50.381,53.181 50.524,53.396 50.668,53.612 50.811,53.827 50.973,54.150 51.135,54.473 51.296,54.797 51.458,55.120 51.619,55.443 51.781,55.766 51.942,56.089 52.104,56.412 52.283,56.699 52.463,56.987 52.642,57.274 52.822,57.561 53.001,57.848 53.181,58.135 53.360,58.423 53.540,58.710 53.827,59.230 54.114,59.751 54.402,60.272 54.689,60.792 54.976,61.313 55.263,61.833 55.551,62.354 55.838,62.875 56.089,63.269 56.340,63.664 56.592,64.059 56.843,64.454 57.094,64.849 57.346,65.244 57.597,65.639 57.848,66.034 58.064,66.375 58.279,66.716 58.494,67.057 58.710,67.398 58.925,67.739 59.141,68.080 59.356,68.421 59.572,68.763 59.787,69.068 60.002,69.373 60.218,69.678 60.433,69.983 60.649,70.288 60.864,70.594 61.079,70.899 61.295,71.204 61.528,71.473 61.762,71.742 61.995,72.012 62.228,72.281 62.462,72.550 62.695,72.819 62.928,73.089 63.162,73.358 63.467,73.825 63.772,74.291 64.077,74.758 64.382,75.225 64.688,75.692 64.993,76.158 65.298,76.625 65.603,77.092 65.998,77.505 66.393,77.918 66.788,78.331 67.183,78.743 67.578,79.156 67.973,79.569 68.368,79.982 68.763,80.395 69.050,80.664 69.337,80.933 69.624,81.203 69.911,81.472 70.199,81.741 70.486,82.011 70.773,82.280 71.060,82.549 71.419,82.962 71.778,83.375 72.137,83.788 72.496,84.201 72.855,84.613 73.214,85.026 73.573,85.439 73.933,85.852 74.202,86.121 74.471,86.391 74.740,86.660 75.010,86.929 75.279,87.198 75.548,87.468 75.817,87.737 76.087,88.006 76.266,88.132 76.446,88.258 76.625,88.383 76.805,88.509 76.984,88.634 77.164,88.760 77.343,88.886 77.523,89.011 77.702,89.299 77.882,89.586 78.061,89.873 78.241,90.160 78.420,90.448 78.600,90.735 78.779,91.022 78.959,91.309 79.174,91.453 79.390,91.596 79.605,91.740 79.821,91.884 80.036,92.027 80.251,92.171 80.467,92.314 80.682,92.458 81.077,92.763 81.472,93.068 81.867,93.374 82.262,93.679 82.657,93.984 83.052,94.289 83.447,94.594 83.842,94.899 84.021,95.007 84.201,95.115 84.380,95.223 84.560,95.330 84.739,95.438 84.919,95.546 85.098,95.653 85.278,95.761 85.457,95.851 85.637,95.941 85.816,96.030 85.996,96.120 86.175,96.210 86.355,96.300 86.534,96.389 86.714,96.479 87.145,96.713 87.575,96.946 88.006,97.179 88.437,97.413 88.868,97.646 89.299,97.879 89.730,98.113 90.160,98.346 90.501,98.526 90.843,98.705 91.184,98.885 91.525,99.064 91.866,99.244 92.207,99.423 92.548,99.603 92.889,99.782 93.266,99.926 93.643,100.069 94.020,100.213 94.397,100.357 94.774,100.500 95.151,100.644 95.528,100.787 95.905,100.931 96.246,101.111 96.587,101.290 96.928,101.470 97.269,101.649 97.610,101.829 97.951,102.008 98.292,102.188 98.633,102.367 99.010,102.529 99.387,102.690 99.764,102.852 100.141,103.013 100.518,103.175 100.895,103.337 101.272,103.498 101.649,103.660 101.972,103.767 102.295,103.875 102.619,103.983 102.942,104.090 103.265,104.198 103.588,104.306 103.911,104.414 104.234,104.521 104.665,104.701 105.096,104.880 105.527,105.060 105.957,105.239 106.388,105.419 106.819,105.598 107.250,105.778 107.681,105.957 108.022,106.029 108.363,106.101 108.704,106.173 109.045,106.245 109.386,106.316 109.727,106.388 110.068,106.460 110.409,106.532 110.714,106.622 111.020,106.711 111.325,106.801 111.630,106.891 111.935,106.981 112.240,107.070 112.546,107.160 112.851,107.250 113.120,107.322 113.389,107.393 113.658,107.465 113.928,107.537 114.197,107.609 114.466,107.681 114.736,107.752 115.005,107.824 115.400,107.932 115.795,108.040 116.190,108.147 116.585,108.255 116.979,108.363 117.374,108.470 117.769,108.578 118.164,108.686 118.703,108.811 119.241,108.937 119.780,109.063 120.318,109.188 120.857,109.314 121.395,109.440 121.934,109.565 122.473,109.691 122.670,109.888 122.867,110.086 123.065,110.283 123.262,110.481 123.478,110.589 123.693,110.696 123.909,110.804 124.124,110.912 124.339,111.019 124.555,111.127 124.770,111.235 124.986,111.342 125.219,111.432 125.452,111.522 125.686,111.612 125.919,111.702 126.153,111.791 126.386,111.881 126.619,111.971 126.853,112.061 127.212,112.240 127.571,112.420 127.930,112.599 128.289,112.779 128.648,112.958 129.007,113.138 129.366,113.317 129.725,113.497 130.066,113.676 130.407,113.856 130.748,114.035 131.089,114.215 131.430,114.394 131.771,114.574 132.112,114.753 132.453,114.933 132.651,115.202 132.848,115.472 133.046,115.741 133.243,116.010 133.441,116.279 133.638,116.549 133.836,116.818 134.033,117.087 134.410,117.464 134.787,117.841 135.164,118.218 135.541,118.595 135.487,118.810 135.433,119.026 135.379,119.241 135.325,119.457 135.271,119.672 135.218,119.888 135.164,120.103 135.110,120.318 134.984,120.588 134.858,120.857 134.733,121.126 134.607,121.395 134.481,121.665 134.356,121.934 134.230,122.203 134.104,122.472 133.853,122.993 133.602,123.514 133.351,124.034 133.099,124.555 132.848,125.075 132.597,125.596 132.345,126.117 132.094,126.637 131.968,126.817 131.843,126.996 131.717,127.176 131.591,127.355 131.466,127.535 131.340,127.714 131.214,127.894 131.089,128.073 130.766,128.486 130.442,128.899 130.119,129.312 129.796,129.725 129.473,130.138 129.150,130.551 128.827,130.963 128.504,131.376 128.396,131.592 128.288,131.807 128.181,132.023 128.073,132.238 127.965,132.453 127.858,132.669 127.750,132.884 127.642,133.100 127.463,133.459 127.283,133.818 127.104,134.177 126.924,134.536 126.745,134.895 126.565,135.254 126.386,135.613 126.206,135.972 126.170,136.151 126.134,136.331 126.098,136.510 126.063,136.690 126.027,136.869 125.991,137.049 125.955,137.228 125.919,137.408 125.829,137.875 125.739,138.341 125.650,138.808 125.560,139.275 125.470,139.742 125.380,140.208 125.290,140.675 125.201,141.142 125.236,141.393 125.272,141.644 125.308,141.896 125.344,142.147 125.380,142.398 125.416,142.650 125.452,142.901 125.488,143.152 125.613,143.745 125.739,144.337 125.865,144.929 125.990,145.522 126.116,146.114 126.242,146.707 126.367,147.299 126.493,147.891 126.601,148.035 126.708,148.179 126.816,148.322 126.924,148.466 127.031,148.609 127.139,148.753 127.247,148.897 127.355,149.040 127.678,149.561 128.001,150.081 128.324,150.602 128.647,151.123 128.970,151.643 129.293,152.164 129.616,152.684 129.939,153.205 130.245,153.241 130.550,153.277 130.855,153.313 131.160,153.348 131.465,153.384 131.770,153.420 132.076,153.456 132.381,153.492 132.758,153.869 133.135,154.246 133.512,154.623 133.889,155.000 134.517,154.731 135.145,154.461 135.774,154.192 136.402,153.923 137.030,153.654 137.658,153.384 138.287,153.115 138.915,152.846 139.077,152.559 139.238,152.271 139.400,151.984 139.561,151.697 139.723,151.410 139.884,151.123 140.046,150.835 140.208,150.548 140.351,150.387 140.495,150.225 140.638,150.063 140.782,149.902 140.926,149.740 141.069,149.579 141.213,149.417 141.356,149.256 141.913,148.807 142.469,148.358 143.026,147.909 143.582,147.461 144.139,147.012 144.695,146.563 145.252,146.114 145.808,145.665 146.096,145.270 146.383,144.876 146.670,144.481 146.957,144.086 147.244,143.691 147.532,143.296 147.819,142.901 148.106,142.506 148.339,142.219 148.573,141.932 148.806,141.644 149.040,141.357 149.273,141.070 149.506,140.783 149.740,140.495 149.973,140.208 150.296,139.885 150.619,139.562 150.942,139.239 151.265,138.916 151.589,138.593 151.912,138.269 152.235,137.946 152.558,137.623 152.845,137.336 153.132,137.049 153.420,136.762 153.707,136.474 153.994,136.187 154.281,135.900 154.568,135.613 154.856,135.326 155.143,135.002 155.430,134.679 155.717,134.356 156.005,134.033 156.292,133.710 156.579,133.387 156.866,133.064 157.153,132.741 157.423,132.435 157.692,132.130 157.961,131.825 158.231,131.520 158.500,131.215 158.769,130.910 159.038,130.604 159.308,130.299 159.667,129.940 160.026,129.581 160.385,129.222 160.744,128.863 161.103,128.504 161.462,128.145 161.821,127.786 162.180,127.427 162.664,127.032 163.149,126.637 163.634,126.242 164.118,125.847 164.603,125.452 165.088,125.057 165.573,124.663 166.057,124.268 166.291,124.070 166.524,123.873 166.757,123.675 166.991,123.478 167.224,123.280 167.457,123.083 167.691,122.885 167.924,122.688 168.140,122.508 168.355,122.329 168.570,122.149 168.786,121.970 169.001,121.790 169.217,121.611 169.432,121.431 169.647,121.252 170.006,120.929 170.366,120.606 170.725,120.282 171.084,119.959 171.443,119.636 171.802,119.313 172.161,118.990 172.520,118.667 172.753,118.469 172.986,118.272 173.220,118.074 173.453,117.877 173.686,117.679 173.920,117.482 174.153,117.285 174.387,117.087 174.530,117.015 174.674,116.944 174.817,116.872 174.961,116.800 175.105,116.728 175.248,116.656 175.392,116.585 175.535,116.513 175.715,116.405 175.894,116.297 176.074,116.190 176.254,116.082 176.433,115.974 176.613,115.867 176.792,115.759 176.972,115.651 177.259,115.472 177.546,115.292 177.833,115.113 178.120,114.933 178.408,114.754 178.695,114.574 178.982,114.395 180.060,113.425" fill="none" stroke="black" stroke-width="1"/>
</svg>
