<?xml version="1.0" encoding="UTF-8"?>
<svg xmlns="http://www.w3.org/2000/svg" width="152.7" height="160.0" viewBox="0 0 152.7 160.0">
  <polyline points="147.531,134.908 147.540,134.663 147.549,134.418 147.557,134.172 147.566,133.927 147.575,133.681 147.584,133.436 147.592,133.190 147.601,132.945 147.619,132.761 147.636,132.577 147.654,132.393 147.671,132.209 147.689,132.025 147.706,131.840 147.724,131.656 147.741,131.472 147.706,131.253 147.671,131.034 147.636,130.815 147.601,130.596 147.566,130.377 147.531,130.157 147.496,129.938 147.461,129.719 147.470,129.404 147.479,129.088 147.487,128.772 147.496,128.457 147.505,128.141 147.514,127.826 147.522,127.510 147.531,127.195 147.540,127.089 147.549,126.984 147.558,126.879 147.566,126.774 147.575,126.669 147.584,126.563 147.593,126.458 147.601,126.353 147.435,126.187 147.268,126.020 147.102,125.853 146.935,125.687 146.655,125.669 146.374,125.652 146.094,125.634 145.813,125.617 145.533,125.599 145.252,125.582 144.972,125.564 144.691,125.547 144.235,125.538 143.780,125.529 143.324,125.520 142.868,125.512 142.412,125.503 141.956,125.494 141.500,125.485 141.045,125.476 140.598,125.433 140.151,125.389 139.704,125.345 139.256,125.301 138.809,125.257 138.362,125.213 137.915,125.170 137.468,125.126 137.091,125.108 136.714,125.091 136.337,125.073 135.961,125.056 135.584,125.038 135.207,125.021 134.830,125.003 134.453,124.986 134.234,124.968 134.015,124.951 133.795,124.933 133.576,124.916 133.357,124.898 133.138,124.880 132.919,124.863 132.700,124.845 132.130,124.810 131.560,124.775 130.990,124.740 130.421,124.705 129.851,124.670 129.281,124.635 128.711,124.600 128.141,124.565 127.861,124.495 127.580,124.425 127.300,124.355 127.019,124.285 126.739,124.214 126.458,124.144 126.178,124.074 125.897,124.004 125.389,123.951 124.881,123.899 124.372,123.846 123.864,123.794 123.355,123.741 122.847,123.688 122.339,123.636 121.830,123.583 121.383,123.496 120.936,123.408 120.489,123.320 120.042,123.233 119.595,123.145 119.148,123.057 118.701,122.970 118.254,122.882 117.938,122.829 117.623,122.777 117.307,122.724 116.991,122.672 116.676,122.619 116.360,122.566 116.045,122.514 115.729,122.461 115.265,122.400 114.800,122.339 114.335,122.277 113.871,122.216 113.406,122.154 112.942,122.093 112.477,122.032 112.012,121.970 111.679,121.909 111.346,121.848 111.013,121.786 110.680,121.725 110.347,121.664 110.014,121.602 109.681,121.541 109.348,121.480 108.848,121.357 108.348,121.234 107.849,121.111 107.349,120.989 106.849,120.866 106.350,120.743 105.850,120.620 105.350,120.498 104.956,120.419 104.562,120.340 104.167,120.261 103.773,120.182 103.378,120.103 102.984,120.024 102.589,119.945 102.195,119.867 101.800,119.735 101.406,119.604 101.011,119.472 100.617,119.341 100.223,119.209 99.828,119.078 99.434,118.946 99.039,118.815 98.504,118.674 97.970,118.534 97.435,118.394 96.900,118.254 96.366,118.113 95.831,117.973 95.296,117.833 94.761,117.693 94.332,117.579 93.902,117.465 93.473,117.351 93.043,117.237 92.614,117.123 92.184,117.009 91.755,116.895 91.325,116.781 90.834,116.641 90.343,116.501 89.853,116.360 89.362,116.220 88.871,116.080 88.380,115.940 87.889,115.799 87.398,115.659 86.977,115.492 86.557,115.326 86.136,115.159 85.715,114.993 85.294,114.826 84.874,114.660 84.453,114.493 84.032,114.327 83.436,114.064 82.840,113.801 82.244,113.538 81.648,113.275 81.052,113.012 80.456,112.749 79.860,112.486 79.264,112.223 78.703,112.039 78.142,111.855 77.581,111.671 77.020,111.487 76.459,111.302 75.898,111.118 75.336,110.934 74.775,110.750 74.162,110.478 73.548,110.207 72.935,109.935 72.321,109.663 71.707,109.392 71.094,109.120 70.480,108.848 69.867,108.576 69.691,108.471 69.516,108.366 69.341,108.261 69.165,108.156 68.990,108.050 68.815,107.945 68.639,107.840 68.464,107.735 68.175,107.603 67.886,107.472 67.596,107.340 67.307,107.209 67.018,107.077 66.729,106.946 66.439,106.814 66.150,106.683 65.834,106.534 65.519,106.385 65.203,106.236 64.888,106.087 64.572,105.938 64.257,105.789 63.941,105.640 63.625,105.491 63.380,105.350 63.135,105.210 62.889,105.070 62.644,104.930 62.398,104.789 62.153,104.649 61.907,104.509 61.662,104.369 61.232,104.106 60.803,103.843 60.373,103.580 59.944,103.317 59.514,103.054 59.085,102.791 58.655,102.528 58.226,102.265 58.085,102.177 57.945,102.090 57.805,102.002 57.665,101.914 57.524,101.827 57.384,101.739 57.244,101.651 57.104,101.564 56.762,101.380 56.420,101.196 56.078,101.011 55.736,100.827 55.394,100.643 55.053,100.459 54.711,100.275 54.369,100.091 54.062,99.924 53.755,99.758 53.448,99.591 53.142,99.425 52.835,99.258 52.528,99.092 52.221,98.925 51.914,98.759 51.722,98.636 51.529,98.513 51.336,98.390 51.143,98.268 50.950,98.145 50.757,98.022 50.564,97.900 50.372,97.777 50.038,97.593 49.705,97.409 49.372,97.225 49.039,97.041 48.706,96.856 48.373,96.672 48.040,96.488 47.707,96.304 47.347,96.103 46.988,95.901 46.629,95.699 46.269,95.498 45.910,95.296 45.550,95.095 45.191,94.893 44.832,94.691 44.604,94.551 44.376,94.411 44.148,94.271 43.920,94.130 43.692,93.990 43.464,93.850 43.236,93.710 43.008,93.569 42.658,93.289 42.307,93.008 41.956,92.728 41.606,92.447 41.255,92.167 40.905,91.886 40.554,91.606 40.203,91.325 39.993,91.115 39.783,90.905 39.572,90.694 39.362,90.484 39.151,90.273 38.941,90.063 38.731,89.853 38.520,89.642 38.327,89.502 38.135,89.362 37.942,89.221 37.749,89.081 37.556,88.941 37.363,88.801 37.170,88.660 36.978,88.520 36.793,88.354 36.609,88.187 36.425,88.021 36.241,87.854 36.057,87.687 35.873,87.521 35.689,87.354 35.505,87.188 35.294,86.907 35.084,86.627 34.874,86.346 34.663,86.066 34.453,85.785 34.243,85.505 34.032,85.224 33.822,84.944 33.603,84.611 33.384,84.278 33.164,83.944 32.945,83.611 32.726,83.278 32.507,82.945 32.288,82.612 32.069,82.279 31.928,82.034 31.788,81.788 31.648,81.543 31.508,81.297 31.367,81.052 31.227,80.806 31.087,80.561 30.947,80.315 30.710,79.921 30.473,79.527 30.237,79.132 30.000,78.738 29.763,78.343 29.527,77.949 29.290,77.554 29.053,77.160 28.790,76.643 28.527,76.125 28.264,75.608 28.001,75.091 27.738,74.574 27.475,74.057 27.212,73.540 26.949,73.022 26.906,72.803 26.862,72.584 26.818,72.365 26.774,72.146 26.730,71.927 26.686,71.707 26.643,71.488 26.599,71.269 26.494,70.761 26.388,70.252 26.283,69.744 26.178,69.236 26.073,68.727 25.968,68.219 25.863,67.710 25.757,67.202 25.600,66.755 25.442,66.308 25.284,65.861 25.126,65.414 24.968,64.967 24.811,64.520 24.653,64.073 24.495,63.625 24.372,63.196 24.250,62.766 24.127,62.337 24.004,61.907 23.881,61.478 23.759,61.048 23.636,60.619 23.513,60.189 23.408,59.795 23.303,59.400 23.198,59.006 23.093,58.611 22.987,58.217 22.882,57.823 22.777,57.428 22.672,57.034 22.593,56.639 22.514,56.245 22.435,55.850 22.356,55.456 22.277,55.061 22.198,54.667 22.120,54.272 22.041,53.878 21.900,53.229 21.760,52.581 21.620,51.932 21.480,51.283 21.339,50.635 21.199,49.986 21.059,49.337 20.919,48.689 20.840,48.382 20.761,48.075 20.682,47.768 20.603,47.461 20.524,47.155 20.445,46.848 20.366,46.541 20.287,46.234 20.244,45.945 20.200,45.656 20.156,45.366 20.112,45.077 20.068,44.788 20.025,44.499 19.981,44.209 19.937,43.920 19.823,43.543 19.709,43.166 19.595,42.789 19.481,42.412 19.367,42.035 19.253,41.658 19.139,41.282 19.025,40.905 18.973,40.598 18.920,40.291 18.867,39.984 18.815,39.677 18.762,39.371 18.710,39.064 18.657,38.757 18.604,38.450 18.578,38.161 18.552,37.872 18.526,37.582 18.499,37.293 18.473,37.004 18.447,36.715 18.420,36.425 18.394,36.136 18.359,35.856 18.324,35.575 18.289,35.294 18.254,35.014 18.219,34.733 18.184,34.453 18.149,34.172 18.114,33.892 18.052,33.568 17.991,33.243 17.930,32.919 17.868,32.595 17.807,32.270 17.745,31.946 17.684,31.622 17.623,31.297 17.605,31.122 17.588,30.947 17.570,30.771 17.553,30.596 17.535,30.421 17.518,30.245 17.500,30.070 17.482,29.895 17.430,29.579 17.377,29.264 17.325,28.948 17.272,28.633 17.219,28.317 17.167,28.001 17.114,27.686 17.062,27.370 17.035,27.134 17.009,26.897 16.983,26.660 16.957,26.424 16.930,26.187 16.904,25.950 16.878,25.714 16.851,25.477 16.834,25.266 16.816,25.056 16.799,24.846 16.781,24.635 16.764,24.425 16.746,24.215 16.729,24.004 16.711,23.794 16.632,23.399 16.553,23.005 16.474,22.610 16.395,22.216 16.317,21.822 16.238,21.427 16.159,21.033 16.080,20.638 16.089,20.445 16.097,20.252 16.106,20.060 16.115,19.867 16.124,19.674 16.133,19.481 16.141,19.288 16.150,19.095 16.124,18.692 16.097,18.289 16.071,17.886 16.045,17.482 16.019,17.079 15.992,16.676 15.966,16.273 15.940,15.870 15.922,15.642 15.905,15.414 15.887,15.186 15.870,14.958 15.852,14.730 15.834,14.502 15.817,14.274 15.799,14.046 15.764,13.748 15.729,13.450 15.694,13.152 15.659,12.854 15.624,12.556 15.589,12.258 15.554,11.960 15.519,11.662 15.466,11.469 15.414,11.276 15.361,11.083 15.309,10.891 15.256,10.698 15.203,10.505 15.151,10.312 15.098,10.119 15.037,9.891 14.975,9.663 14.914,9.435 14.853,9.208 14.791,8.980 14.730,8.752 14.669,8.524 14.607,8.296 14.563,8.147 14.520,7.998 14.476,7.849 14.432,7.700 14.388,7.551 14.344,7.402 14.300,7.253 14.257,7.104 14.204,6.981 14.151,6.858 14.099,6.736 14.046,6.613 13.994,6.490 13.941,6.367 13.888,6.245 13.836,6.122 13.722,5.991 13.608,5.859 13.494,5.728 13.380,5.596 13.266,5.465 13.152,5.333 13.038,5.202 12.924,5.070 12.828,5.061 12.731,5.053 12.635,5.044 12.539,5.035 12.442,5.026 12.346,5.018 12.249,5.009 12.153,5.000 11.837,5.079 11.522,5.158 11.206,5.237 10.891,5.316 10.575,5.394 10.259,5.473 9.944,5.552 9.628,5.631 9.558,5.684 9.488,5.736 9.418,5.789 9.348,5.842 9.278,5.894 9.208,5.947 9.137,5.999 9.067,6.052 8.945,6.175 8.822,6.297 8.699,6.420 8.576,6.543 8.454,6.665 8.331,6.788 8.208,6.911 8.086,7.034 7.928,7.270 7.770,7.507 7.612,7.744 7.454,7.980 7.297,8.217 7.139,8.454 6.981,8.690 6.823,8.927 6.815,8.971 6.806,9.015 6.797,9.059 6.788,9.102 6.779,9.146 6.771,9.190 6.762,9.234 6.753,9.278 6.665,9.435 6.578,9.593 6.490,9.751 6.403,9.909 6.315,10.067 6.227,10.224 6.140,10.382 6.052,10.540 5.999,10.715 5.947,10.891 5.894,11.066 5.842,11.241 5.789,11.417 5.736,11.592 5.684,11.767 5.631,11.942 5.605,12.153 5.579,12.363 5.552,12.574 5.526,12.784 5.500,12.994 5.473,13.205 5.447,13.415 5.421,13.626 5.403,13.739 5.386,13.853 5.368,13.967 5.351,14.081 5.333,14.195 5.316,14.309 5.298,14.423 5.280,14.537 5.245,14.765 5.210,14.993 5.175,15.221 5.140,15.449 5.105,15.677 5.070,15.905 5.035,16.133 5.000,16.360 5.105,16.580 5.210,16.799 5.316,17.018 5.421,17.237 5.526,17.456 5.631,17.675 5.736,17.894 5.842,18.114 5.920,18.184 5.999,18.254 6.078,18.324 6.157,18.394 6.236,18.464 6.315,18.534 6.394,18.604 6.473,18.675 6.613,18.780 6.753,18.885 6.893,18.990 7.034,19.095 7.174,19.201 7.314,19.306 7.454,19.411 7.595,19.516 7.621,19.586 7.647,19.656 7.674,19.726 7.700,19.797 7.726,19.867 7.752,19.937 7.779,20.007 7.805,20.077 7.814,20.279 7.823,20.480 7.831,20.682 7.840,20.884 7.849,21.085 7.858,21.287 7.866,21.488 7.875,21.690 7.831,21.883 7.788,22.076 7.744,22.269 7.700,22.461 7.656,22.654 7.612,22.847 7.568,23.040 7.525,23.233 7.489,23.645 7.454,24.057 7.419,24.469 7.384,24.881 7.349,25.293 7.314,25.705 7.279,26.117 7.244,26.529 7.227,26.608 7.209,26.687 7.191,26.765 7.174,26.844 7.156,26.923 7.139,27.002 7.121,27.081 7.104,27.160 7.113,27.423 7.121,27.686 7.130,27.949 7.139,28.212 7.148,28.475 7.156,28.738 7.165,29.001 7.174,29.264 7.156,29.649 7.139,30.035 7.121,30.421 7.104,30.806 7.086,31.192 7.069,31.578 7.051,31.963 7.034,32.349 7.209,32.525 7.384,32.700 7.560,32.875 7.735,33.050 8.042,33.357 8.349,33.664 8.655,33.971 8.962,34.278 8.988,34.611 9.015,34.944 9.041,35.277 9.067,35.610 9.094,35.943 9.120,36.276 9.146,36.609 9.173,36.942 9.243,37.512 9.313,38.082 9.383,38.652 9.453,39.222 9.523,39.791 9.593,40.361 9.663,40.931 9.734,41.501 9.751,41.790 9.769,42.079 9.786,42.368 9.804,42.658 9.821,42.947 9.839,43.236 9.856,43.526 9.874,43.815 9.918,44.157 9.961,44.499 10.005,44.840 10.049,45.182 10.093,45.524 10.137,45.866 10.181,46.208 10.224,46.550 10.277,46.760 10.330,46.970 10.382,47.181 10.435,47.391 10.487,47.602 10.540,47.812 10.593,48.022 10.645,48.233 10.707,48.461 10.768,48.689 10.829,48.916 10.891,49.144 10.952,49.372 11.013,49.600 11.075,49.828 11.136,50.056 11.180,50.231 11.224,50.407 11.268,50.582 11.311,50.757 11.355,50.933 11.399,51.108 11.443,51.283 11.487,51.459 11.592,51.792 11.697,52.125 11.802,52.458 11.907,52.791 12.013,53.124 12.118,53.457 12.223,53.790 12.328,54.123 12.354,54.255 12.381,54.386 12.407,54.518 12.433,54.649 12.460,54.781 12.486,54.912 12.512,55.044 12.539,55.175 12.617,55.403 12.696,55.631 12.775,55.859 12.854,56.087 12.933,56.315 13.012,56.543 13.091,56.771 13.170,56.999 13.240,57.314 13.310,57.630 13.380,57.945 13.450,58.261 13.520,58.576 13.590,58.892 13.661,59.207 13.731,59.523 13.836,59.839 13.941,60.154 14.046,60.470 14.151,60.785 14.257,61.101 14.362,61.416 14.467,61.732 14.572,62.048 14.607,62.179 14.642,62.311 14.677,62.442 14.712,62.574 14.748,62.705 14.783,62.837 14.818,62.968 14.853,63.099 14.940,63.319 15.028,63.538 15.116,63.757 15.203,63.976 15.291,64.195 15.379,64.414 15.466,64.634 15.554,64.853 15.598,65.002 15.642,65.151 15.685,65.300 15.729,65.449 15.773,65.598 15.817,65.747 15.861,65.896 15.905,66.045 15.975,66.404 16.045,66.764 16.115,67.123 16.185,67.482 16.255,67.842 16.325,68.201 16.396,68.561 16.466,68.920 16.492,69.034 16.518,69.148 16.545,69.262 16.571,69.376 16.597,69.490 16.623,69.604 16.650,69.718 16.676,69.832 16.737,70.051 16.799,70.270 16.860,70.489 16.921,70.708 16.983,70.927 17.044,71.146 17.106,71.366 17.167,71.585 17.255,71.804 17.342,72.023 17.430,72.242 17.518,72.461 17.605,72.680 17.693,72.900 17.781,73.119 17.868,73.338 17.903,73.399 17.938,73.461 17.973,73.522 18.008,73.583 18.043,73.645 18.079,73.706 18.114,73.767 18.149,73.829 18.236,74.048 18.324,74.267 18.412,74.486 18.499,74.705 18.587,74.925 18.675,75.144 18.762,75.363 18.850,75.582 18.911,75.748 18.973,75.915 19.034,76.082 19.095,76.248 19.157,76.415 19.218,76.581 19.279,76.748 19.341,76.914 19.411,77.098 19.481,77.283 19.551,77.467 19.621,77.651 19.691,77.835 19.762,78.019 19.832,78.203 19.902,78.387 19.954,78.492 20.007,78.597 20.060,78.703 20.112,78.808 20.165,78.913 20.217,79.018 20.270,79.123 20.323,79.229 20.384,79.334 20.445,79.439 20.507,79.544 20.568,79.649 20.629,79.754 20.691,79.860 20.752,79.965 20.813,80.070 20.945,80.333 21.076,80.596 21.208,80.859 21.339,81.122 21.471,81.385 21.602,81.648 21.734,81.911 21.865,82.174 21.962,82.367 22.058,82.559 22.155,82.752 22.251,82.945 22.347,83.138 22.444,83.331 22.540,83.524 22.637,83.717 22.584,83.848 22.532,83.980 22.479,84.111 22.426,84.243 22.374,84.374 22.321,84.505 22.269,84.637 22.216,84.768 22.093,84.900 21.971,85.031 21.848,85.163 21.725,85.294 21.602,85.426 21.480,85.557 21.357,85.689 21.234,85.820 21.138,86.013 21.041,86.206 20.945,86.399 20.849,86.592 20.752,86.785 20.656,86.977 20.559,87.170 20.463,87.363 20.340,87.600 20.217,87.836 20.095,88.073 19.972,88.310 19.849,88.547 19.726,88.783 19.604,89.020 19.481,89.257 19.411,89.414 19.341,89.572 19.271,89.730 19.201,89.888 19.130,90.045 19.060,90.203 18.990,90.361 18.920,90.519 19.025,90.712 19.130,90.905 19.236,91.097 19.341,91.290 19.446,91.483 19.551,91.676 19.656,91.869 19.762,92.062 19.867,92.079 19.972,92.097 20.077,92.114 20.182,92.132 20.287,92.149 20.393,92.167 20.498,92.184 20.603,92.202 20.919,92.246 21.234,92.289 21.550,92.333 21.865,92.377 22.181,92.421 22.496,92.465 22.812,92.509 23.128,92.552 23.259,92.614 23.391,92.675 23.522,92.736 23.654,92.798 23.785,92.859 23.917,92.921 24.048,92.982 24.179,93.043 24.267,93.070 24.355,93.096 24.442,93.122 24.530,93.149 24.618,93.175 24.705,93.201 24.793,93.227 24.881,93.254 25.065,93.368 25.249,93.482 25.433,93.596 25.617,93.710 25.801,93.824 25.985,93.937 26.169,94.051 26.353,94.165 26.581,94.297 26.809,94.428 27.037,94.560 27.265,94.691 27.493,94.823 27.721,94.954 27.949,95.086 28.177,95.217 28.370,95.366 28.562,95.515 28.755,95.664 28.948,95.813 29.141,95.962 29.334,96.111 29.527,96.260 29.719,96.409 29.904,96.523 30.088,96.637 30.272,96.751 30.456,96.865 30.640,96.979 30.824,97.093 31.008,97.207 31.192,97.321 31.324,97.417 31.455,97.514 31.587,97.610 31.718,97.707 31.850,97.803 31.981,97.900 32.113,97.996 32.244,98.092 32.393,98.215 32.542,98.338 32.691,98.461 32.840,98.583 32.989,98.706 33.138,98.829 33.287,98.952 33.436,99.074 33.647,99.179 33.857,99.285 34.067,99.390 34.278,99.495 34.488,99.600 34.698,99.705 34.909,99.811 35.119,99.916 35.330,100.056 35.540,100.196 35.750,100.336 35.961,100.477 36.171,100.617 36.381,100.757 36.592,100.898 36.802,101.038 37.048,101.196 37.293,101.353 37.539,101.511 37.784,101.669 38.029,101.827 38.275,101.984 38.520,102.142 38.766,102.300 38.862,102.379 38.959,102.458 39.055,102.537 39.151,102.616 39.248,102.694 39.344,102.773 39.441,102.852 39.537,102.931 39.721,103.063 39.905,103.194 40.089,103.326 40.273,103.457 40.458,103.589 40.642,103.720 40.826,103.852 41.010,103.983 41.194,104.132 41.378,104.281 41.562,104.430 41.746,104.579 41.930,104.728 42.114,104.877 42.298,105.026 42.482,105.175 42.859,105.403 43.236,105.631 43.613,105.859 43.990,106.087 44.367,106.315 44.744,106.543 45.121,106.771 45.498,106.998 45.778,107.200 46.059,107.402 46.339,107.603 46.620,107.805 46.900,108.007 47.181,108.208 47.461,108.410 47.742,108.611 47.996,108.813 48.250,109.015 48.504,109.216 48.759,109.418 49.013,109.619 49.267,109.821 49.521,110.023 49.776,110.224 49.986,110.329 50.196,110.435 50.407,110.540 50.617,110.645 50.827,110.750 51.038,110.855 51.248,110.961 51.459,111.066 51.722,111.232 51.985,111.399 52.247,111.565 52.510,111.732 52.773,111.899 53.036,112.065 53.299,112.232 53.562,112.398 53.817,112.591 54.071,112.784 54.325,112.977 54.579,113.170 54.833,113.362 55.088,113.555 55.342,113.748 55.596,113.941 55.798,114.055 55.999,114.169 56.201,114.283 56.402,114.397 56.604,114.511 56.806,114.625 57.007,114.739 57.209,114.853 57.454,114.993 57.700,115.133 57.945,115.273 58.191,115.414 58.436,115.554 58.682,115.694 58.927,115.834 59.172,115.975 59.549,116.220 59.926,116.466 60.303,116.711 60.680,116.956 61.057,117.202 61.434,117.447 61.811,117.693 62.188,117.938 62.425,118.096 62.661,118.254 62.898,118.412 63.135,118.569 63.371,118.727 63.608,118.885 63.845,119.043 64.081,119.200 64.160,119.244 64.239,119.288 64.318,119.332 64.397,119.376 64.476,119.420 64.555,119.463 64.634,119.507 64.712,119.551 65.019,119.744 65.326,119.937 65.633,120.130 65.940,120.322 66.246,120.515 66.553,120.708 66.860,120.901 67.167,121.094 67.526,121.313 67.886,121.532 68.245,121.751 68.604,121.970 68.964,122.190 69.323,122.409 69.683,122.628 70.042,122.847 70.226,122.970 70.410,123.092 70.594,123.215 70.778,123.338 70.962,123.461 71.146,123.583 71.331,123.706 71.515,123.829 71.830,123.995 72.146,124.162 72.461,124.328 72.777,124.495 73.092,124.661 73.408,124.828 73.724,124.995 74.039,125.161 74.337,125.345 74.635,125.529 74.933,125.713 75.231,125.897 75.529,126.082 75.827,126.266 76.125,126.450 76.423,126.634 76.888,126.888 77.353,127.142 77.817,127.396 78.282,127.651 78.746,127.905 79.211,128.159 79.676,128.413 80.140,128.667 80.298,128.764 80.456,128.860 80.613,128.957 80.771,129.053 80.929,129.150 81.087,129.246 81.245,129.342 81.402,129.439 81.613,129.544 81.823,129.649 82.034,129.754 82.244,129.860 82.454,129.965 82.665,130.070 82.875,130.175 83.085,130.280 83.305,130.368 83.524,130.456 83.743,130.543 83.962,130.631 84.181,130.719 84.400,130.806 84.619,130.894 84.839,130.982 85.119,131.113 85.400,131.245 85.680,131.376 85.961,131.508 86.241,131.639 86.522,131.771 86.802,131.902 87.083,132.034 87.372,132.130 87.661,132.226 87.950,132.323 88.240,132.419 88.529,132.516 88.818,132.612 89.108,132.708 89.397,132.805 89.555,132.875 89.712,132.945 89.870,133.015 90.028,133.085 90.186,133.156 90.343,133.226 90.501,133.296 90.659,133.366 90.896,133.462 91.132,133.559 91.369,133.655 91.606,133.752 91.842,133.848 92.079,133.944 92.316,134.041 92.552,134.137 92.737,134.216 92.921,134.295 93.105,134.374 93.289,134.453 93.473,134.532 93.657,134.611 93.841,134.690 94.025,134.768 94.174,134.909 94.323,135.049 94.472,135.189 94.621,135.329 94.770,135.470 94.919,135.610 95.068,135.750 95.217,135.890 95.103,136.188 94.989,136.487 94.875,136.785 94.761,137.083 94.647,137.381 94.534,137.679 94.420,137.977 94.306,138.275 94.174,138.546 94.043,138.818 93.911,139.090 93.780,139.362 93.648,139.633 93.517,139.905 93.385,140.177 93.254,140.449 93.219,140.563 93.184,140.677 93.149,140.791 93.114,140.904 93.078,141.018 93.043,141.132 93.008,141.246 92.973,141.360 92.912,141.579 92.851,141.799 92.789,142.018 92.728,142.237 92.667,142.456 92.605,142.675 92.544,142.894 92.482,143.113 92.421,143.368 92.360,143.622 92.298,143.876 92.237,144.130 92.176,144.384 92.114,144.639 92.053,144.893 91.992,145.147 91.921,145.349 91.851,145.550 91.781,145.752 91.711,145.954 91.641,146.155 91.571,146.357 91.501,146.558 91.431,146.760 91.369,147.023 91.308,147.286 91.246,147.549 91.185,147.812 91.124,148.075 91.062,148.338 91.001,148.601 90.940,148.864 90.922,148.960 90.905,149.057 90.887,149.153 90.870,149.249 90.852,149.346 90.835,149.442 90.817,149.539 90.799,149.635 90.835,149.863 90.870,150.091 90.905,150.319 90.940,150.547 90.975,150.775 91.010,151.003 91.045,151.231 91.080,151.458 91.159,151.625 91.238,151.792 91.317,151.958 91.395,152.125 91.474,152.291 91.553,152.458 91.632,152.624 91.711,152.791 91.878,152.922 92.044,153.054 92.211,153.185 92.377,153.317 92.544,153.448 92.710,153.580 92.877,153.711 93.043,153.843 93.263,153.852 93.482,153.860 93.701,153.869 93.920,153.878 94.139,153.887 94.358,153.895 94.577,153.904 94.797,153.913 95.051,154.167 95.305,154.421 95.559,154.676 95.813,154.930 96.287,154.939 96.760,154.947 97.233,154.956 97.707,154.965 98.180,154.974 98.654,154.982 99.127,154.991 99.600,155.000 99.898,154.947 100.196,154.895 100.494,154.842 100.792,154.790 101.090,154.737 101.388,154.684 101.686,154.632 101.984,154.579 102.098,154.378 102.212,154.176 102.326,153.974 102.440,153.773 102.554,153.571 102.668,153.370 102.782,153.168 102.896,152.966 103.054,152.730 103.212,152.493 103.369,152.256 103.527,152.020 103.685,151.783 103.843,151.546 104.001,151.310 104.158,151.073 104.307,150.898 104.456,150.722 104.605,150.547 104.754,150.372 104.904,150.196 105.053,150.021 105.202,149.846 105.351,149.670 105.508,149.372 105.666,149.074 105.824,148.776 105.982,148.478 106.139,148.180 106.297,147.882 106.455,147.584 106.613,147.286 106.700,147.155 106.788,147.023 106.876,146.892 106.963,146.760 107.051,146.629 107.139,146.497 107.226,146.366 107.314,146.234 107.516,146.050 107.717,145.866 107.919,145.682 108.121,145.498 108.322,145.314 108.524,145.130 108.725,144.946 108.927,144.762 109.076,144.569 109.225,144.376 109.374,144.183 109.523,143.990 109.672,143.797 109.821,143.605 109.970,143.412 110.119,143.219 110.207,143.061 110.294,142.903 110.382,142.745 110.470,142.588 110.557,142.430 110.645,142.272 110.733,142.114 110.820,141.957 110.952,141.729 111.083,141.501 111.215,141.273 111.346,141.045 111.478,140.817 111.609,140.589 111.741,140.361 111.872,140.133 112.030,139.967 112.188,139.800 112.346,139.634 112.503,139.467 112.661,139.301 112.819,139.134 112.977,138.967 113.135,138.801 113.292,138.678 113.450,138.555 113.608,138.433 113.766,138.310 113.923,138.187 114.081,138.065 114.239,137.942 114.397,137.819 114.528,137.705 114.660,137.591 114.791,137.477 114.923,137.363 115.054,137.249 115.186,137.135 115.317,137.021 115.449,136.907 115.580,136.697 115.712,136.487 115.843,136.276 115.975,136.066 116.106,135.856 116.238,135.645 116.369,135.435 116.501,135.224 116.579,135.102 116.658,134.979 116.737,134.856 116.816,134.734 116.895,134.611 116.974,134.488 117.053,134.365 117.132,134.243 117.351,134.129 117.570,134.015 117.789,133.901 118.008,133.787 118.227,133.673 118.447,133.559 118.666,133.445 118.885,133.331 119.051,133.287 119.218,133.243 119.385,133.200 119.551,133.156 119.718,133.112 119.884,133.068 120.051,133.024 120.217,132.980 120.656,133.086 121.094,133.191 121.532,133.296 121.970,133.401 122.409,133.506 122.847,133.612 123.285,133.717 123.724,133.822 123.943,133.848 124.162,133.875 124.381,133.901 124.600,133.927 124.819,133.953 125.038,133.980 125.258,134.006 125.477,134.032 125.670,134.225 125.862,134.418 126.055,134.611 126.248,134.804 126.765,134.786 127.283,134.769 127.800,134.751 128.317,134.734 128.834,134.716 129.351,134.699 129.868,134.681 130.386,134.664 130.727,135.005 131.069,135.347 131.411,135.689 131.753,136.031 132.034,136.075 132.314,136.119 132.595,136.163 132.875,136.206 133.156,136.250 133.436,136.294 133.717,136.338 133.997,136.382 134.479,136.399 134.961,136.417 135.443,136.434 135.926,136.452 136.408,136.469 136.890,136.487 137.372,136.504 137.854,136.522 137.959,136.531 138.064,136.539 138.170,136.548 138.275,136.557 138.380,136.566 138.485,136.575 138.590,136.583 138.696,136.592 138.906,136.618 139.116,136.645 139.327,136.671 139.537,136.697 139.747,136.724 139.958,136.750 140.168,136.776 140.379,136.803 140.720,136.838 141.062,136.873 141.404,136.908 141.746,136.943 142.088,136.978 142.430,137.013 142.772,137.048 143.113,137.083 143.149,137.118 143.184,137.153 143.219,137.188 143.254,137.223 143.534,137.188 143.815,137.153 144.095,137.118 144.376,137.083 144.656,137.048 144.937,137.013 145.217,136.978 147.531,134.908" fill="none" stroke="black" stroke-width="1"/>
</svg>
