<?xml version="1.0" encoding="UTF-8"?>
<svg xmlns="http://www.w3.org/2000/svg" width="200.7" height="160.0" viewBox="0 0 200.7 160.0">
  <polyline points="195.703,121.056 195.685,120.721 195.668,120.387 195.650,120.052 195.633,119.718 195.615,119.383 195.597,119.049 195.580,118.714 195.562,118.380 195.280,118.098 194.999,117.816 194.717,117.534 194.435,117.253 194.189,117.006 193.942,116.760 193.696,116.513 193.449,116.267 193.432,115.950 193.414,115.633 193.397,115.316 193.379,114.999 193.361,114.682 193.344,114.365 193.326,114.049 193.308,113.732 193.044,113.468 192.780,113.204 192.516,112.939 192.252,112.675 192.270,112.341 192.287,112.006 192.305,111.672 192.323,111.337 192.340,111.003 192.358,110.668 192.375,110.334 192.393,109.999 192.199,109.806 192.006,109.612 191.812,109.418 191.618,109.225 191.548,109.154 191.478,109.084 191.407,109.014 191.337,108.943 190.756,108.961 190.175,108.978 189.594,108.996 189.013,109.014 188.432,109.031 187.851,109.049 187.270,109.066 186.689,109.084 185.932,109.154 185.175,109.225 184.418,109.295 183.661,109.366 182.904,109.436 182.147,109.506 181.390,109.577 180.633,109.647 180.104,109.683 179.576,109.718 179.048,109.753 178.520,109.788 177.992,109.823 177.464,109.859 176.935,109.894 176.407,109.929 175.368,110.070 174.330,110.211 173.291,110.352 172.252,110.493 171.214,110.633 170.175,110.774 169.136,110.915 168.097,111.056 167.604,111.074 167.111,111.091 166.619,111.109 166.126,111.126 165.633,111.144 165.140,111.162 164.647,111.179 164.154,111.197 163.467,111.250 162.781,111.303 162.094,111.355 161.407,111.408 160.721,111.461 160.034,111.514 159.347,111.567 158.661,111.620 157.675,111.708 156.689,111.796 155.703,111.884 154.717,111.972 153.731,112.060 152.745,112.148 151.759,112.236 150.774,112.324 149.964,112.377 149.154,112.430 148.344,112.482 147.534,112.535 146.724,112.588 145.914,112.641 145.105,112.694 144.295,112.747 143.450,112.764 142.605,112.782 141.760,112.799 140.914,112.817 140.069,112.835 139.224,112.852 138.379,112.870 137.534,112.888 137.024,112.905 136.513,112.923 136.003,112.940 135.492,112.958 134.981,112.976 134.471,112.993 133.960,113.011 133.450,113.028 132.710,112.289 131.971,111.550 131.231,110.810 130.492,110.071 129.893,109.472 129.295,108.874 128.696,108.275 128.098,107.676 127.517,107.659 126.936,107.641 126.355,107.624 125.774,107.606 125.193,107.588 124.612,107.571 124.031,107.553 123.450,107.535 122.922,107.518 122.393,107.500 121.865,107.483 121.337,107.465 120.809,107.447 120.281,107.430 119.753,107.412 119.224,107.395 118.503,107.377 117.781,107.359 117.059,107.342 116.337,107.324 115.615,107.306 114.893,107.289 114.172,107.271 113.450,107.254 112.816,107.236 112.182,107.218 111.548,107.201 110.915,107.183 110.281,107.166 109.647,107.148 109.013,107.130 108.379,107.113 107.394,107.042 106.408,106.972 105.422,106.901 104.436,106.831 103.450,106.761 102.464,106.690 101.478,106.620 100.492,106.549 100.140,106.497 99.788,106.444 99.436,106.391 99.084,106.338 98.732,106.285 98.380,106.232 98.027,106.179 97.675,106.127 97.094,106.056 96.513,105.986 95.932,105.915 95.351,105.845 94.770,105.775 94.189,105.704 93.608,105.634 93.027,105.563 92.658,105.458 92.288,105.352 91.918,105.247 91.549,105.141 91.179,105.035 90.809,104.930 90.439,104.824 90.070,104.718 89.594,104.648 89.119,104.578 88.644,104.507 88.168,104.437 87.693,104.366 87.218,104.296 86.742,104.225 86.267,104.155 85.844,104.085 85.422,104.014 84.999,103.944 84.577,103.873 84.154,103.803 83.732,103.733 83.309,103.662 82.887,103.592 82.552,103.504 82.218,103.416 81.883,103.328 81.549,103.240 81.214,103.152 80.880,103.064 80.545,102.976 80.211,102.888 79.876,102.782 79.542,102.676 79.207,102.571 78.873,102.465 78.538,102.359 78.204,102.254 77.869,102.148 77.535,102.042 77.059,101.884 76.584,101.726 76.109,101.567 75.633,101.409 75.158,101.250 74.682,101.092 74.207,100.933 73.732,100.775 73.362,100.634 72.992,100.493 72.623,100.352 72.253,100.211 71.883,100.071 71.514,99.930 71.144,99.789 70.774,99.648 70.563,99.542 70.352,99.437 70.140,99.331 69.929,99.226 69.718,99.120 69.506,99.014 69.295,98.909 69.084,98.803 68.714,98.609 68.345,98.416 67.975,98.222 67.605,98.028 67.235,97.835 66.866,97.641 66.496,97.447 66.126,97.254 65.651,97.007 65.176,96.761 64.700,96.514 64.225,96.268 63.749,96.021 63.274,95.775 62.799,95.528 62.323,95.282 61.936,94.983 61.549,94.683 61.161,94.384 60.774,94.085 60.387,93.785 60.000,93.486 59.612,93.187 59.225,92.888 58.890,92.606 58.556,92.324 58.221,92.043 57.887,91.761 57.552,91.479 57.218,91.197 56.883,90.916 56.549,90.634 56.161,90.352 55.774,90.071 55.387,89.789 55.000,89.507 54.612,89.226 54.225,88.944 53.838,88.662 53.450,88.381 53.221,88.134 52.993,87.888 52.764,87.641 52.535,87.395 52.306,87.148 52.077,86.902 51.848,86.655 51.619,86.409 51.302,86.057 50.985,85.705 50.669,85.352 50.352,85.000 50.035,84.648 49.718,84.296 49.401,83.944 49.084,83.592 48.838,83.328 48.591,83.064 48.345,82.800 48.098,82.536 47.852,82.271 47.605,82.007 47.359,81.743 47.112,81.479 46.795,81.109 46.478,80.740 46.162,80.370 45.845,80.000 45.528,79.631 45.211,79.261 44.894,78.891 44.577,78.521 44.278,78.099 43.978,77.676 43.679,77.254 43.380,76.831 43.081,76.409 42.781,75.986 42.482,75.564 42.183,75.141 41.901,74.683 41.619,74.226 41.338,73.768 41.056,73.310 40.774,72.852 40.493,72.395 40.211,71.937 39.929,71.479 39.683,71.004 39.436,70.529 39.190,70.053 38.943,69.578 38.697,69.103 38.450,68.627 38.204,68.152 37.957,67.676 37.834,67.324 37.711,66.972 37.588,66.620 37.464,66.268 37.341,65.916 37.218,65.564 37.095,65.212 36.971,64.860 36.637,64.279 36.302,63.698 35.968,63.117 35.633,62.536 35.299,61.955 34.964,61.374 34.630,60.793 34.295,60.212 34.243,60.018 34.190,59.824 34.137,59.631 34.084,59.437 34.031,59.243 33.979,59.050 33.926,58.856 33.873,58.662 33.662,57.993 33.450,57.324 33.239,56.655 33.028,55.986 32.817,55.317 32.605,54.648 32.394,53.979 32.183,53.310 32.112,52.888 32.042,52.465 31.972,52.043 31.901,51.620 31.831,51.198 31.760,50.775 31.690,50.353 31.619,49.930 31.461,49.472 31.303,49.015 31.144,48.557 30.986,48.099 30.827,47.641 30.669,47.184 30.510,46.726 30.352,46.268 30.246,45.846 30.141,45.423 30.035,45.001 29.929,44.578 29.824,44.155 29.718,43.733 29.612,43.310 29.507,42.888 29.489,42.553 29.472,42.219 29.454,41.884 29.436,41.550 29.419,41.215 29.401,40.881 29.383,40.546 28.239,41.338 27.958,40.686 27.676,40.035 27.394,39.384 27.113,38.732 26.831,38.081 26.549,37.429 26.267,36.778 25.986,36.127 25.933,35.792 25.880,35.458 25.827,35.123 25.775,34.789 25.722,34.454 25.669,34.120 25.616,33.785 25.563,33.451 25.475,32.975 25.387,32.500 25.299,32.024 25.211,31.549 25.123,31.074 25.035,30.598 24.947,30.123 24.859,29.648 24.753,29.120 24.648,28.591 24.542,28.063 24.437,27.535 24.331,27.007 24.225,26.479 24.120,25.951 24.014,25.422 23.926,25.000 23.838,24.577 23.750,24.155 23.662,23.732 23.574,23.310 23.486,22.887 23.398,22.465 23.310,22.042 23.257,21.549 23.204,21.056 23.151,20.563 23.098,20.070 23.046,19.577 22.993,19.084 22.940,18.591 22.887,18.099 22.782,17.764 22.676,17.430 22.570,17.095 22.465,16.761 22.359,16.426 22.253,16.091 22.148,15.757 22.042,15.422 21.796,14.859 21.549,14.296 21.303,13.732 21.056,13.169 20.810,12.606 20.563,12.042 20.317,11.479 20.070,10.915 19.789,10.511 19.507,10.106 19.225,9.701 18.944,9.296 18.662,8.891 18.380,8.486 18.099,8.081 17.817,7.676 17.465,7.359 17.113,7.042 16.760,6.725 16.408,6.408 16.056,6.092 15.704,5.775 15.352,5.458 15.000,5.141 14.683,5.123 14.366,5.106 14.049,5.088 13.732,5.070 13.415,5.053 13.099,5.035 12.782,5.018 12.465,5.000 12.042,5.123 11.620,5.246 11.197,5.370 10.775,5.493 10.352,5.616 9.930,5.739 9.507,5.863 9.084,5.986 8.838,6.215 8.592,6.444 8.345,6.673 8.099,6.901 7.852,7.130 7.606,7.359 7.359,7.588 7.113,7.817 6.901,8.151 6.690,8.486 6.479,8.820 6.268,9.155 6.056,9.489 5.845,9.824 5.634,10.158 5.423,10.493 5.387,10.704 5.352,10.915 5.317,11.127 5.282,11.338 5.246,11.549 5.211,11.761 5.176,11.972 5.141,12.183 5.123,12.500 5.106,12.817 5.088,13.134 5.070,13.451 5.053,13.768 5.035,14.084 5.018,14.401 5.000,14.718 5.035,14.912 5.070,15.106 5.106,15.299 5.141,15.493 5.176,15.687 5.211,15.880 5.246,16.074 5.282,16.268 5.475,16.514 5.669,16.760 5.863,17.007 6.056,17.253 6.250,17.500 6.444,17.746 6.637,17.993 6.831,18.239 7.060,18.468 7.289,18.697 7.518,18.926 7.746,19.155 7.975,19.384 8.204,19.613 8.433,19.841 8.662,20.070 8.926,20.246 9.190,20.422 9.454,20.598 9.718,20.775 9.982,20.951 10.246,21.127 10.511,21.303 10.775,21.479 10.951,21.584 11.127,21.690 11.303,21.796 11.479,21.901 11.655,22.007 11.831,22.113 12.007,22.218 12.183,22.324 12.377,22.447 12.570,22.570 12.764,22.694 12.958,22.817 13.151,22.940 13.345,23.063 13.539,23.186 13.732,23.310 13.856,23.327 13.979,23.345 14.102,23.363 14.225,23.380 14.349,23.398 14.472,23.415 14.595,23.433 14.718,23.451 14.965,23.697 15.211,23.944 15.458,24.190 15.704,24.437 15.775,24.947 15.845,25.458 15.915,25.968 15.986,26.479 16.056,26.989 16.127,27.500 16.197,28.010 16.267,28.521 16.320,28.873 16.373,29.225 16.426,29.577 16.479,29.929 16.532,30.282 16.584,30.634 16.637,30.986 16.690,31.338 16.743,31.760 16.796,32.183 16.848,32.605 16.901,33.028 16.954,33.451 17.007,33.873 17.060,34.296 17.113,34.718 17.236,35.193 17.359,35.669 17.482,36.144 17.606,36.620 17.729,37.095 17.852,37.570 17.975,38.046 18.098,38.521 18.310,39.243 18.521,39.965 18.732,40.686 18.944,41.408 19.155,42.130 19.366,42.852 19.577,43.574 19.789,44.296 19.824,44.683 19.859,45.070 19.894,45.458 19.929,45.845 19.965,46.232 20.000,46.619 20.035,47.007 20.070,47.394 20.211,47.799 20.352,48.204 20.493,48.609 20.634,49.014 20.775,49.419 20.915,49.824 21.056,50.229 21.197,50.634 21.303,51.021 21.408,51.408 21.514,51.795 21.620,52.183 21.725,52.570 21.831,52.957 21.936,53.345 22.042,53.732 22.183,54.207 22.324,54.683 22.465,55.158 22.605,55.633 22.746,56.109 22.887,56.584 23.028,57.060 23.169,57.535 23.310,58.010 23.451,58.486 23.591,58.961 23.732,59.436 23.873,59.912 24.014,60.387 24.155,60.862 24.296,61.338 24.454,61.655 24.613,61.971 24.771,62.288 24.929,62.605 25.088,62.922 25.246,63.239 25.405,63.556 25.563,63.873 25.722,64.295 25.880,64.718 26.039,65.140 26.197,65.563 26.355,65.986 26.514,66.408 26.672,66.831 26.831,67.253 26.972,67.535 27.113,67.817 27.253,68.098 27.394,68.380 27.535,68.662 27.676,68.943 27.817,69.225 27.958,69.507 28.134,69.964 28.310,70.422 28.486,70.880 28.662,71.338 28.838,71.795 29.014,72.253 29.190,72.711 29.366,73.169 29.560,73.485 29.753,73.802 29.947,74.119 30.141,74.436 30.334,74.753 30.528,75.070 30.722,75.387 30.915,75.704 31.144,76.285 31.373,76.866 31.602,77.447 31.831,78.028 32.060,78.609 32.289,79.190 32.517,79.771 32.746,80.352 32.852,80.633 32.958,80.915 33.063,81.197 33.169,81.478 33.274,81.760 33.380,82.042 33.486,82.323 33.591,82.605 33.750,82.922 33.908,83.239 34.067,83.556 34.225,83.873 34.384,84.190 34.542,84.507 34.700,84.823 34.859,85.140 35.017,85.457 35.176,85.774 35.334,86.091 35.493,86.408 35.651,86.725 35.810,87.042 35.968,87.359 36.127,87.676 36.391,87.992 36.655,88.309 36.919,88.626 37.183,88.943 37.447,89.260 37.711,89.577 37.975,89.894 38.239,90.211 38.486,90.598 38.732,90.985 38.979,91.373 39.225,91.760 39.472,92.147 39.718,92.535 39.965,92.922 40.211,93.309 40.405,93.591 40.598,93.873 40.792,94.154 40.986,94.436 41.179,94.718 41.373,94.999 41.567,95.281 41.760,95.563 41.972,95.844 42.183,96.126 42.394,96.408 42.605,96.690 42.817,96.971 43.028,97.253 43.239,97.535 43.450,97.816 43.715,98.133 43.979,98.450 44.243,98.767 44.507,99.084 44.771,99.401 45.035,99.718 45.299,100.035 45.563,100.351 45.757,100.580 45.950,100.809 46.144,101.038 46.338,101.267 46.531,101.496 46.725,101.725 46.919,101.954 47.112,102.182 47.341,102.411 47.570,102.640 47.799,102.869 48.028,103.098 48.257,103.327 48.486,103.556 48.714,103.785 48.943,104.013 49.190,104.242 49.436,104.471 49.683,104.700 49.929,104.929 50.176,105.158 50.422,105.387 50.669,105.616 50.915,105.844 51.197,106.038 51.479,106.232 51.760,106.425 52.042,106.619 52.324,106.813 52.605,107.006 52.887,107.200 53.169,107.394 53.398,107.587 53.626,107.781 53.855,107.975 54.084,108.168 54.313,108.362 54.542,108.556 54.771,108.749 55.000,108.943 55.405,109.189 55.809,109.436 56.214,109.682 56.619,109.929 57.024,110.175 57.429,110.422 57.834,110.668 58.239,110.915 58.609,111.073 58.978,111.232 59.348,111.390 59.718,111.549 60.088,111.707 60.457,111.866 60.827,112.024 61.197,112.182 61.461,112.341 61.725,112.499 61.989,112.658 62.253,112.816 62.517,112.975 62.781,113.133 63.045,113.292 63.309,113.450 63.714,113.661 64.119,113.873 64.524,114.084 64.929,114.295 65.334,114.506 65.739,114.718 66.144,114.929 66.549,115.140 66.848,115.263 67.147,115.387 67.447,115.510 67.746,115.633 68.045,115.756 68.345,115.880 68.644,116.003 68.943,116.126 69.348,116.249 69.753,116.373 70.158,116.496 70.563,116.619 70.968,116.742 71.373,116.865 71.778,116.989 72.183,117.112 72.623,117.253 73.063,117.394 73.503,117.534 73.943,117.675 74.383,117.816 74.823,117.957 75.264,118.098 75.704,118.239 75.985,118.344 76.267,118.450 76.549,118.556 76.830,118.661 77.112,118.767 77.394,118.873 77.676,118.978 77.957,119.084 78.433,119.260 78.908,119.436 79.383,119.612 79.859,119.788 80.334,119.964 80.809,120.140 81.285,120.316 81.760,120.492 81.989,120.510 82.218,120.527 82.447,120.545 82.676,120.563 82.904,120.580 83.133,120.598 83.362,120.616 83.591,120.633 84.119,120.792 84.647,120.950 85.175,121.108 85.704,121.267 86.232,121.425 86.760,121.584 87.288,121.742 87.816,121.901 88.063,121.936 88.309,121.971 88.556,122.006 88.802,122.042 89.049,122.077 89.295,122.112 89.542,122.147 89.788,122.183 90.387,122.288 90.985,122.394 91.584,122.499 92.182,122.605 92.781,122.711 93.380,122.816 93.978,122.922 94.577,123.028 94.929,123.063 95.281,123.098 95.633,123.133 95.985,123.169 96.337,123.204 96.690,123.239 97.042,123.274 97.394,123.310 97.746,123.380 98.098,123.450 98.450,123.521 98.802,123.591 99.154,123.662 99.506,123.732 99.858,123.802 100.211,123.873 100.510,123.908 100.809,123.943 101.108,123.979 101.408,124.014 101.707,124.049 102.006,124.084 102.306,124.119 102.605,124.155 103.010,124.243 103.415,124.331 103.820,124.419 104.225,124.507 104.630,124.595 105.035,124.683 105.439,124.771 105.844,124.859 106.161,124.894 106.478,124.929 106.795,124.965 107.112,125.000 107.429,125.035 107.746,125.070 108.063,125.106 108.380,125.141 108.749,125.194 109.119,125.246 109.489,125.299 109.858,125.352 110.228,125.405 110.598,125.458 110.968,125.511 111.337,125.564 111.549,125.599 111.760,125.634 111.971,125.669 112.182,125.704 112.394,125.740 112.605,125.775 112.816,125.810 113.027,125.845 113.485,125.969 113.943,126.092 114.401,126.215 114.858,126.338 115.316,126.462 115.774,126.585 116.232,126.708 116.689,126.831 116.971,126.902 117.253,126.972 117.534,127.043 117.816,127.113 118.098,127.183 118.380,127.254 118.661,127.324 118.943,127.395 119.277,127.518 119.612,127.641 119.946,127.764 120.281,127.888 120.615,128.011 120.950,128.134 121.284,128.257 121.619,128.380 122.041,128.504 122.464,128.627 122.887,128.750 123.309,128.873 123.732,128.997 124.154,129.120 124.577,129.243 124.999,129.366 125.210,129.507 125.422,129.648 125.633,129.789 125.844,129.930 126.056,130.071 126.267,130.211 126.478,130.352 126.689,130.493 126.830,130.669 126.971,130.845 127.112,131.021 127.253,131.197 127.394,131.373 127.534,131.549 127.675,131.726 127.816,131.902 127.675,132.307 127.534,132.711 127.394,133.116 127.253,133.521 127.112,133.926 126.971,134.331 126.830,134.736 126.689,135.141 126.619,135.299 126.549,135.458 126.478,135.616 126.408,135.775 126.337,135.933 126.267,136.092 126.196,136.250 126.126,136.409 125.968,136.778 125.809,137.148 125.651,137.518 125.492,137.887 125.334,138.257 125.175,138.627 125.017,138.997 124.858,139.366 124.682,139.754 124.506,140.141 124.330,140.528 124.154,140.916 123.978,141.303 123.802,141.690 123.626,142.078 123.450,142.465 123.239,142.852 123.027,143.240 122.816,143.627 122.605,144.014 122.394,144.402 122.182,144.789 121.971,145.176 121.760,145.563 121.478,145.880 121.196,146.197 120.915,146.514 120.633,146.831 120.351,147.148 120.070,147.465 119.788,147.782 119.506,148.099 119.454,148.416 119.401,148.732 119.348,149.049 119.295,149.366 119.242,149.683 119.189,150.000 119.136,150.317 119.084,150.634 119.295,150.863 119.506,151.092 119.717,151.320 119.929,151.549 120.140,151.778 120.351,152.007 120.562,152.236 120.774,152.465 120.897,152.535 121.020,152.606 121.143,152.676 121.267,152.746 121.390,152.817 121.513,152.887 121.636,152.958 121.760,153.028 122.429,153.187 123.098,153.345 123.767,153.504 124.436,153.662 125.105,153.820 125.774,153.979 126.443,154.137 127.112,154.296 127.288,154.472 127.464,154.648 127.640,154.824 127.816,155.000 128.256,154.947 128.696,154.894 129.136,154.841 129.576,154.789 130.017,154.736 130.457,154.683 130.897,154.630 131.337,154.577 131.548,154.524 131.760,154.472 131.971,154.419 132.182,154.366 132.393,154.313 132.605,154.260 132.816,154.207 133.027,154.155 133.309,153.908 133.591,153.662 133.872,153.415 134.154,153.169 134.436,152.922 134.717,152.676 134.999,152.429 135.281,152.183 135.492,151.866 135.703,151.549 135.914,151.232 136.126,150.915 136.337,150.598 136.548,150.281 136.760,149.964 136.971,149.647 137.288,149.102 137.605,148.556 137.921,148.010 138.238,147.464 138.555,146.919 138.872,146.373 139.189,145.827 139.506,145.281 139.735,144.912 139.964,144.542 140.193,144.172 140.421,143.802 140.650,143.433 140.879,143.063 141.108,142.693 141.337,142.324 141.460,142.148 141.583,141.971 141.707,141.795 141.830,141.619 141.953,141.443 142.076,141.267 142.200,141.091 142.323,140.915 142.552,140.475 142.781,140.035 143.009,139.595 143.238,139.155 143.467,138.714 143.696,138.274 143.925,137.834 144.154,137.394 144.295,137.148 144.436,136.901 144.576,136.655 144.717,136.408 144.858,136.162 144.999,135.915 145.140,135.669 145.281,135.422 145.492,135.141 145.703,134.859 145.914,134.577 146.126,134.295 146.337,134.014 146.548,133.732 146.759,133.450 146.971,133.169 147.129,132.852 147.288,132.535 147.446,132.218 147.605,131.901 147.763,131.584 147.921,131.267 148.080,130.950 148.238,130.634 148.450,130.352 148.661,130.070 148.872,129.788 149.083,129.507 149.295,129.225 149.506,128.943 149.717,128.662 149.928,128.380 150.140,128.169 150.351,127.958 150.562,127.746 150.774,127.535 150.985,127.324 151.196,127.112 151.407,126.901 151.619,126.690 151.777,126.496 151.935,126.303 152.094,126.109 152.252,125.915 152.411,125.722 152.569,125.528 152.728,125.334 152.886,125.141 153.062,125.017 153.238,124.894 153.414,124.771 153.590,124.648 153.766,124.524 153.943,124.401 154.119,124.278 154.295,124.155 154.612,124.014 154.928,123.873 155.245,123.732 155.562,123.591 155.879,123.450 156.196,123.310 156.513,123.169 156.830,123.028 157.147,123.046 157.464,123.063 157.781,123.081 158.097,123.098 158.414,123.116 158.731,123.134 159.048,123.151 159.365,123.169 159.805,123.151 160.245,123.134 160.685,123.116 161.126,123.098 161.566,123.081 162.006,123.063 162.446,123.046 162.886,123.028 163.449,123.010 164.013,122.993 164.576,122.975 165.140,122.957 165.703,122.940 166.266,122.922 166.830,122.905 167.393,122.887 167.868,122.834 168.344,122.781 168.819,122.728 169.295,122.676 169.770,122.623 170.245,122.570 170.721,122.517 171.196,122.464 171.583,122.852 171.971,123.239 172.358,123.626 172.745,124.014 173.485,123.961 174.224,123.908 174.964,123.855 175.703,123.802 176.442,123.749 177.182,123.696 177.921,123.644 178.661,123.591 179.101,124.031 179.541,124.471 179.981,124.911 180.421,125.351 180.826,125.246 181.231,125.140 181.636,125.034 182.041,124.929 182.446,124.823 182.851,124.717 183.256,124.612 183.661,124.506 183.942,124.471 184.224,124.436 184.506,124.401 184.787,124.365 185.069,124.330 185.351,124.295 185.632,124.260 185.914,124.224 186.301,124.612 186.689,124.999 187.076,125.386 187.463,125.774 187.763,126.073 188.062,126.372 188.361,126.672 188.661,126.971 188.819,126.953 188.978,126.936 189.136,126.918 189.294,126.900 189.453,126.883 189.611,126.865 189.770,126.848 195.703,121.056" fill="none" stroke="black" stroke-width="1"/>
</svg>
