<?xml version="1.0" encoding="UTF-8"?>
<svg xmlns="http://www.w3.org/2000/svg" width="187.7" height="160.0" viewBox="0 0 187.7 160.0">
  <polyline points="62.298,36.021 62.289,35.916 62.279,35.812 62.270,35.708 62.260,35.603 62.251,35.499 62.241,35.395 62.232,35.290 62.222,35.186 62.113,35.077 62.004,34.968 61.895,34.859 61.786,34.750 61.781,34.688 61.777,34.627 61.772,34.565 61.767,34.503 61.762,34.442 61.758,34.380 61.753,34.319 61.748,34.257 92.117,64.579 122.391,94.805 152.571,124.937 182.656,154.975 182.527,154.978 182.398,154.981 182.270,154.984 182.141,154.987 182.013,154.991 181.884,154.994 181.756,154.997 181.627,155.000 181.439,154.983 181.252,154.966 181.064,154.950 180.876,154.933 180.689,154.916 180.501,154.899 180.313,154.883 180.125,154.866 179.983,154.851 179.840,154.836 179.698,154.821 179.556,154.806 179.413,154.790 179.271,154.775 179.128,154.760 178.986,154.745 178.813,154.720 178.640,154.695 178.468,154.670 178.295,154.645 178.122,154.620 177.950,154.594 177.777,154.569 177.605,154.544 177.455,154.511 177.306,154.477 177.157,154.444 177.008,154.410 176.859,154.376 176.710,154.343 176.560,154.309 176.411,154.276 176.173,154.237 175.935,154.199 175.697,154.160 175.459,154.122 175.221,154.083 174.983,154.045 174.745,154.006 174.507,153.968 174.311,153.926 174.115,153.884 173.919,153.842 173.723,153.800 173.527,153.758 173.331,153.716 173.134,153.674 172.938,153.632 172.616,153.559 172.295,153.485 171.973,153.411 171.651,153.337 171.329,153.264 171.007,153.190 170.686,153.116 170.364,153.042 170.154,153.005 169.945,152.969 169.735,152.932 169.526,152.895 169.316,152.858 169.107,152.821 168.897,152.784 168.688,152.747 168.396,152.650 168.104,152.553 167.813,152.456 167.521,152.358 167.230,152.261 166.938,152.164 166.646,152.067 166.355,151.970 166.098,151.891 165.842,151.812 165.585,151.733 165.329,151.655 165.072,151.576 164.816,151.497 164.559,151.418 164.303,151.339 164.057,151.262 163.810,151.185 163.564,151.108 163.318,151.031 163.071,150.954 162.825,150.877 162.578,150.800 162.332,150.723 162.184,150.672 162.037,150.622 161.889,150.572 161.742,150.521 161.594,150.471 161.447,150.421 161.299,150.371 161.152,150.320 160.994,150.253 160.837,150.186 160.679,150.119 160.522,150.052 160.364,149.985 160.207,149.918 160.049,149.851 159.892,149.784 159.618,149.682 159.345,149.579 159.072,149.477 158.799,149.375 158.526,149.273 158.252,149.171 157.979,149.068 157.706,148.966 157.570,148.912 157.434,148.859 157.299,148.805 157.163,148.752 157.027,148.698 156.891,148.644 156.756,148.591 156.620,148.537 156.424,148.433 156.228,148.329 156.032,148.225 155.835,148.121 155.639,148.017 155.443,147.913 155.247,147.810 155.051,147.706 155.028,147.689 155.004,147.672 154.981,147.655 154.957,147.639 154.934,147.622 154.910,147.605 154.887,147.588 154.863,147.572 154.709,147.484 154.555,147.397 154.401,147.310 154.246,147.223 154.092,147.136 153.938,147.049 153.784,146.961 153.630,146.874 153.507,146.795 153.385,146.717 153.263,146.638 153.140,146.559 153.018,146.480 152.895,146.402 152.773,146.323 152.651,146.244 152.527,146.170 152.403,146.097 152.279,146.023 152.155,145.949 152.031,145.875 151.907,145.802 151.783,145.728 151.659,145.654 151.511,145.557 151.364,145.460 151.216,145.362 151.069,145.265 150.921,145.168 150.774,145.071 150.626,144.974 30.007,23.343 29.878,23.248 29.749,23.152 29.620,23.057 29.491,22.961 29.362,22.866 29.233,22.770 29.104,22.674 28.975,22.579 28.905,22.500 28.834,22.421 28.764,22.343 28.693,22.264 28.623,22.185 28.553,22.106 28.482,22.027 28.412,21.949 28.271,21.828 28.130,21.707 27.989,21.587 27.849,21.466 27.708,21.345 27.567,21.225 27.426,21.104 27.285,20.983 27.188,20.859 27.091,20.735 26.994,20.611 26.897,20.487 26.799,20.363 26.702,20.239 26.605,20.115 26.508,19.991 26.426,19.885 26.343,19.780 26.261,19.674 26.179,19.569 26.097,19.463 26.015,19.357 25.933,19.252 25.851,19.146 25.753,19.011 25.656,18.875 25.559,18.739 25.462,18.603 25.365,18.467 25.267,18.332 25.170,18.196 25.073,18.060 25.008,17.933 24.942,17.805 24.877,17.678 24.811,17.551 24.746,17.423 24.681,17.296 24.615,17.168 24.550,17.041 24.483,16.912 24.416,16.783 24.349,16.654 24.282,16.525 24.215,16.396 24.148,16.267 24.081,16.138 24.014,16.009 23.962,15.854 23.910,15.700 23.858,15.546 23.806,15.392 23.754,15.238 23.702,15.083 23.650,14.929 23.598,14.775 23.554,14.639 23.511,14.503 23.467,14.368 23.424,14.232 23.380,14.096 23.337,13.960 23.293,13.825 23.249,13.689 23.189,13.531 23.129,13.374 23.068,13.216 23.008,13.059 22.948,12.901 22.887,12.744 22.827,12.586 22.767,12.428 22.700,12.283 22.633,12.137 22.566,11.991 22.498,11.845 22.431,11.699 22.364,11.554 22.297,11.408 22.230,11.262 22.136,11.108 22.043,10.954 21.949,10.799 21.855,10.645 21.761,10.491 21.667,10.337 21.573,10.182 21.479,10.028 21.416,9.966 21.352,9.904 21.288,9.842 21.225,9.780 21.161,9.718 21.097,9.656 21.034,9.594 20.970,9.532 20.884,9.468 20.799,9.405 20.713,9.341 20.628,9.277 20.542,9.214 20.457,9.150 20.371,9.086 20.286,9.023 20.172,8.941 20.058,8.858 19.944,8.776 19.830,8.694 19.716,8.612 19.602,8.530 19.488,8.448 19.374,8.366 19.264,8.300 19.153,8.235 19.042,8.170 18.932,8.104 18.821,8.039 18.710,7.973 18.600,7.908 18.489,7.843 18.310,7.772 18.131,7.702 17.951,7.631 17.772,7.561 17.593,7.491 17.413,7.420 17.234,7.350 17.054,7.279 16.929,7.239 16.803,7.199 16.677,7.159 16.552,7.119 16.426,7.078 16.300,7.038 16.175,6.998 16.049,6.958 15.975,6.934 15.901,6.911 15.828,6.887 15.754,6.864 15.680,6.840 15.606,6.817 15.533,6.793 15.459,6.770 15.352,6.730 15.244,6.690 15.137,6.649 15.030,6.609 14.923,6.569 14.815,6.529 14.708,6.488 14.601,6.448 14.446,6.430 14.292,6.411 14.138,6.393 13.984,6.374 13.830,6.356 13.675,6.338 13.521,6.319 13.367,6.301 13.233,6.291 13.099,6.281 12.965,6.270 12.831,6.260 12.697,6.250 12.563,6.240 12.428,6.230 12.294,6.220 12.123,12.261 11.781,11.919 11.440,11.577 11.098,11.235 10.828,11.037 10.630,10.840 10.432,10.642 10.234,10.444 10.048,6.197 9.961,6.173 9.874,6.150 9.787,6.126 9.700,6.103 9.613,6.079 9.525,6.056 9.438,6.032 9.370,5.960 9.301,5.888 9.232,5.816 9.163,5.744 9.095,5.672 9.026,5.600 8.957,5.528 8.889,5.456 8.808,5.414 8.728,5.372 8.647,5.330 8.567,5.288 8.486,5.246 8.406,5.204 8.325,5.163 8.245,5.121 8.102,5.106 7.960,5.091 7.818,5.075 7.675,5.060 7.533,5.045 7.390,5.030 7.248,5.015 7.105,5.000 7.006,5.015 6.907,5.030 6.809,5.045 6.710,5.060 6.611,5.075 6.512,5.091 6.413,5.106 6.314,5.121 6.229,5.178 6.143,5.235 6.058,5.292 5.972,5.349 5.887,5.406 5.801,5.463 5.716,5.520 5.630,5.577 5.595,5.689 5.560,5.801 5.525,5.913 5.489,6.026 5.454,6.138 5.419,6.250 5.384,6.363 5.349,6.475 5.323,6.577 5.298,6.679 5.273,6.782 5.248,6.884 5.223,6.986 5.198,7.088 5.173,7.191 5.147,7.293 5.137,7.407 5.127,7.521 5.117,7.635 5.107,7.749 5.097,7.863 5.087,7.977 5.077,8.091 5.067,8.205 5.059,8.334 5.050,8.463 5.042,8.592 5.034,8.721 5.025,8.850 5.017,8.979 5.008,9.108 5.000,9.237 5.122,9.360 5.245,9.482 5.367,9.604 5.489,9.727 5.493,9.836 5.496,9.944 5.499,10.053 5.503,10.162 5.506,10.271 5.510,10.380 5.513,10.489 5.516,10.598 5.525,10.667 5.533,10.736 5.541,10.804 5.550,10.873 5.558,10.942 5.567,11.010 5.575,11.079 5.583,11.148 5.587,11.240 5.590,11.332 5.593,11.424 5.597,11.517 5.600,11.609 5.603,11.701 5.607,11.793 5.610,11.885 5.629,11.961 5.647,12.036 5.665,12.112 5.684,12.187 5.702,12.263 5.721,12.338 5.739,12.413 5.758,12.489 5.845,12.536 5.932,12.583 6.019,12.630 6.106,12.677 6.193,12.723 6.281,12.770 6.368,12.817 6.455,12.864 6.529,12.874 6.602,12.884 6.676,12.894 6.750,12.904 6.824,12.915 6.897,12.925 6.971,12.935 7.045,12.945 7.097,12.921 7.149,12.898 7.201,12.874 7.253,12.851 7.305,12.827 7.357,12.804 7.409,12.780 7.461,12.757 7.484,12.739 7.507,12.720 7.531,12.702 7.554,12.683 7.578,12.665 7.601,12.646 7.625,12.628 7.648,12.609 7.700,12.546 7.752,12.482 7.804,12.418 7.856,12.355 7.908,12.291 7.960,12.227 8.012,12.164 8.064,12.100 8.096,12.011 8.128,11.922 8.159,11.833 8.191,11.745 8.223,11.656 8.255,11.567 8.287,11.478 8.319,11.389 8.357,11.280 8.396,11.171 8.434,11.062 8.473,10.954 8.511,10.845 8.550,10.736 8.589,10.627 8.627,10.518 8.652,10.412 8.677,10.307 8.703,10.201 8.728,10.095 8.753,9.990 8.778,9.884 8.803,9.779 8.828,9.673 8.867,9.644 8.905,9.616 8.944,9.587 8.982,9.559 9.021,9.530 9.060,9.502 9.098,9.474 9.137,9.445 9.289,9.390 9.442,9.334 9.594,9.279 9.747,9.224 9.899,9.168 10.052,9.113 10.204,9.058 10.357,9.003 10.478,8.981 10.598,8.959 10.719,8.937 10.840,8.915 10.960,8.894 11.081,8.872 11.202,8.850 11.322,8.828 11.423,8.929 11.523,9.029 11.624,9.130 11.725,9.230 11.847,9.353 11.969,9.475 12.092,9.598 12.214,9.720 12.345,9.742 12.475,9.763 12.606,9.785 12.737,9.807 12.868,9.829 12.998,9.851 13.129,9.872 13.260,9.894 13.362,9.918 13.464,9.941 13.567,9.965 13.669,9.988 13.771,10.012 13.873,10.035 13.976,10.058 14.078,10.082 14.193,10.107 14.309,10.132 14.425,10.157 14.540,10.183 14.656,10.208 14.772,10.233 14.887,10.258 15.003,10.283 15.115,10.323 15.228,10.364 15.340,10.404 15.452,10.444 15.564,10.484 15.677,10.524 15.789,10.565 15.901,10.605 16.002,10.657 16.102,10.709 16.203,10.761 16.304,10.813 16.404,10.865 16.505,10.917 16.605,10.969 16.706,11.021 16.811,11.051 16.917,11.081 17.023,11.111 17.128,11.141 17.234,11.171 17.339,11.202 17.445,11.232 17.551,11.262 17.593,11.300 17.634,11.339 17.676,11.378 17.718,11.416 17.760,11.455 17.802,11.493 17.844,11.532 17.886,11.570 17.923,11.671 17.960,11.771 17.996,11.872 18.033,11.973 18.070,12.073 18.107,12.174 18.144,12.274 18.181,12.375 18.186,12.469 18.191,12.563 18.196,12.656 18.201,12.750 18.206,12.844 18.211,12.938 18.216,13.032 18.221,13.126 18.245,13.189 18.268,13.253 18.291,13.317 18.315,13.381 18.338,13.444 18.362,13.508 18.385,13.572 18.409,13.635 18.466,13.795 18.523,13.954 18.580,14.113 18.637,14.272 18.694,14.431 18.751,14.591 18.808,14.750 18.865,14.909 18.912,15.000 18.959,15.090 19.005,15.181 19.052,15.271 19.099,15.362 19.146,15.452 19.193,15.543 19.240,15.633 19.287,15.724 19.334,15.814 19.381,15.905 19.428,15.995 19.475,16.086 19.522,16.176 19.569,16.267 19.616,16.357 19.669,16.485 19.723,16.612 19.776,16.739 19.830,16.867 19.884,16.994 19.937,17.122 19.991,17.249 20.045,17.376 20.075,17.427 20.105,17.477 20.135,17.527 20.165,17.577 20.196,17.628 20.226,17.678 20.256,17.728 20.286,17.779 20.380,17.950 20.474,18.121 20.568,18.291 20.661,18.462 20.755,18.633 20.849,18.804 20.943,18.975 21.037,19.146 21.084,19.220 21.131,19.294 21.178,19.368 21.225,19.441 21.272,19.515 21.319,19.589 21.365,19.663 21.412,19.736 21.500,19.860 21.587,19.984 21.674,20.108 21.761,20.232 21.848,20.356 21.935,20.480 22.022,20.604 22.110,20.729 22.180,20.859 22.250,20.990 22.321,21.121 22.391,21.251 22.462,21.382 22.532,21.513 22.602,21.644 22.673,21.774 22.753,21.855 22.834,21.935 22.914,22.016 22.995,22.096 23.075,22.177 23.156,22.257 23.236,22.338 23.316,22.418 23.427,22.552 23.538,22.686 23.648,22.820 23.759,22.954 23.870,23.088 23.980,23.223 24.091,23.357 24.201,23.491 24.302,23.591 24.403,23.692 24.503,23.792 24.604,23.893 24.704,23.994 24.805,24.094 24.905,24.195 25.006,24.295 25.056,24.349 25.106,24.403 25.157,24.456 25.207,24.510 25.257,24.563 25.308,24.617 25.358,24.671 25.408,24.724 25.529,24.848 25.650,24.972 25.770,25.096 25.891,25.220 26.012,25.344 26.132,25.469 26.253,25.593 26.374,25.717 26.518,25.847 26.662,25.978 26.806,26.109 26.950,26.240 27.094,26.370 27.238,26.501 27.383,26.632 27.527,26.762 27.668,26.890 27.808,27.017 27.949,27.145 28.090,27.272 28.231,27.399 28.372,27.527 28.512,27.654 28.653,27.782 28.787,27.902 28.921,28.023 29.055,28.144 29.189,28.264 29.324,28.385 29.458,28.506 29.592,28.626 29.726,28.747 29.920,28.894 30.115,29.042 30.309,29.189 30.504,29.337 30.698,29.484 30.892,29.632 31.087,29.779 31.281,29.927 31.425,30.004 31.570,30.081 31.714,30.158 31.858,30.235 32.002,30.312 32.146,30.390 32.290,30.467 32.434,30.544 32.592,30.641 32.749,30.738 32.907,30.835 33.065,30.933 33.222,31.030 33.380,31.127 33.537,31.224 33.695,31.321 33.762,31.365 33.829,31.409 33.896,31.452 33.963,31.496 34.030,31.539 34.097,31.583 34.164,31.627 34.231,31.670 34.312,31.717 34.392,31.764 34.473,31.811 34.553,31.858 34.633,31.905 34.714,31.952 34.794,31.999 34.875,32.046 35.042,32.149 35.210,32.253 35.378,32.357 35.545,32.461 35.713,32.565 35.880,32.669 36.048,32.773 36.216,32.877 36.313,32.910 36.410,32.944 36.507,32.977 36.605,33.011 36.702,33.044 36.799,33.078 36.896,33.112 36.993,33.145 37.161,33.219 37.329,33.293 37.496,33.366 37.664,33.440 37.831,33.514 37.999,33.588 38.167,33.661 38.334,33.735 38.425,33.759 38.515,33.782 38.606,33.805 38.696,33.829 38.787,33.852 38.877,33.876 38.968,33.899 39.058,33.923 39.176,33.970 39.293,34.017 39.410,34.064 39.528,34.110 39.645,34.157 39.762,34.204 39.880,34.251 39.997,34.298 40.118,34.352 40.238,34.405 40.359,34.459 40.480,34.513 40.600,34.566 40.721,34.620 40.842,34.674 40.962,34.727 41.190,34.818 41.418,34.908 41.646,34.999 41.874,35.089 42.102,35.180 42.330,35.270 42.558,35.361 42.786,35.451 42.947,35.505 43.108,35.559 43.269,35.612 43.430,35.666 43.590,35.720 43.751,35.773 43.912,35.827 44.073,35.880 44.194,35.944 44.315,36.008 44.435,36.072 44.556,36.135 44.677,36.199 44.797,36.263 44.918,36.326 45.039,36.390 45.166,36.444 45.293,36.497 45.421,36.551 45.548,36.605 45.676,36.658 45.803,36.712 45.930,36.765 46.058,36.819 46.108,36.822 46.158,36.826 46.209,36.829 46.259,36.833 46.309,36.836 46.359,36.839 46.410,36.843 46.460,36.846 46.373,37.020 46.286,37.195 46.199,37.369 46.111,37.543 46.024,37.718 45.937,37.892 45.850,38.066 45.763,38.240 45.702,38.381 45.642,38.522 45.582,38.663 45.521,38.804 45.461,38.944 45.401,39.085 45.340,39.226 45.280,39.367 45.270,39.514 45.260,39.662 45.250,39.809 45.240,39.957 45.230,40.104 45.220,40.252 45.210,40.399 45.200,40.547 45.193,40.667 45.186,40.788 45.180,40.909 45.173,41.029 45.166,41.150 45.159,41.271 45.153,41.392 45.146,41.512 45.196,41.596 45.247,41.680 45.297,41.764 45.347,41.847 45.397,41.931 45.448,42.015 45.498,42.099 45.548,42.183 45.649,42.253 45.749,42.323 45.850,42.394 45.950,42.464 46.051,42.535 46.152,42.605 46.252,42.675 46.353,42.746 46.390,42.749 46.426,42.753 46.463,42.756 46.500,42.759 46.537,42.763 46.574,42.766 46.611,42.769 46.648,42.773 46.715,42.783 46.782,42.793 46.849,42.803 46.916,42.813 46.983,42.823 47.050,42.833 47.117,42.843 47.184,42.853 47.311,42.866 47.439,42.880 47.566,42.893 47.694,42.907 47.821,42.920 47.948,42.933 48.076,42.947 48.203,42.960 48.300,42.970 48.398,42.980 48.495,42.990 48.592,43.000 48.689,43.010 48.786,43.020 48.884,43.030 48.981,43.041 49.142,42.967 49.303,42.893 49.464,42.819 49.624,42.746 49.785,42.672 49.946,42.598 50.107,42.524 50.268,42.451 50.322,42.384 50.375,42.316 50.429,42.249 50.483,42.182 50.536,42.115 50.590,42.048 50.644,41.981 50.697,41.914 50.751,41.783 50.804,41.653 50.858,41.522 50.912,41.391 50.965,41.261 51.019,41.130 51.073,40.999 51.126,40.868 51.197,40.717 51.267,40.567 51.337,40.416 51.408,40.265 51.478,40.114 51.549,39.963 51.619,39.812 51.689,39.662 51.723,39.517 51.756,39.373 51.790,39.229 51.824,39.085 51.857,38.941 51.891,38.797 51.924,38.653 51.958,38.508 51.991,38.347 52.025,38.187 52.058,38.026 52.092,37.865 52.125,37.704 52.159,37.543 52.192,37.382 52.226,37.221 52.256,37.161 52.286,37.100 52.316,37.040 52.346,36.980 52.377,36.919 52.407,36.859 52.437,36.799 52.467,36.738 52.558,36.658 52.648,36.578 52.739,36.497 52.829,36.417 52.920,36.336 53.010,36.256 53.101,36.175 53.191,36.095 53.319,36.078 53.446,36.061 53.573,36.045 53.701,36.028 53.828,36.011 53.955,35.994 54.083,35.977 54.210,35.961 54.408,35.974 54.606,35.988 54.804,36.001 55.001,36.014 55.199,36.028 55.397,36.041 55.595,36.055 55.792,36.068 55.947,36.081 56.101,36.095 56.255,36.108 56.409,36.122 56.563,36.135 56.718,36.148 56.872,36.162 57.026,36.175 57.153,36.182 57.281,36.189 57.408,36.195 57.536,36.202 57.663,36.209 57.790,36.215 57.918,36.222 58.045,36.229 58.193,36.242 58.340,36.256 58.488,36.269 58.635,36.282 58.783,36.296 58.930,36.309 59.078,36.323 59.225,36.336 59.329,36.343 59.433,36.349 59.537,36.356 59.641,36.363 59.745,36.370 59.849,36.376 59.953,36.383 60.056,36.390 60.157,36.393 60.258,36.396 60.358,36.400 60.459,36.403 60.559,36.407 60.660,36.410 60.760,36.413 60.861,36.417 60.938,36.423 61.015,36.430 61.092,36.437 61.169,36.443 61.246,36.450 61.324,36.457 61.401,36.464 61.478,36.470 61.530,36.464 61.582,36.458 61.635,36.452 61.687,36.447 61.739,36.441 61.791,36.435 61.844,36.429 62.298,36.021" fill="none" stroke="black" stroke-width="1"/>
</svg>
