<?xml version="1.0" encoding="UTF-8"?>
<svg xmlns="http://www.w3.org/2000/svg" width="182.0" height="160.0" viewBox="0 0 182.0 160.0">
  <polyline points="55.003,35.422 54.993,35.319 54.984,35.216 54.974,35.113 54.964,35.010 54.954,34.907 54.944,34.804 54.935,34.700 54.925,34.597 54.920,34.465 54.915,34.332 54.910,34.200 54.905,34.067 54.900,33.935 54.895,33.802 54.890,33.669 54.885,33.537 85.909,64.396 116.604,94.926 146.970,125.128 177.006,155.000 177.009,154.840 177.011,154.681 177.013,154.521 177.016,154.362 177.018,154.202 177.020,154.043 177.023,153.883 177.025,153.723 177.008,153.623 176.990,153.522 176.973,153.421 176.956,153.321 176.939,153.220 176.922,153.119 176.905,153.019 176.887,152.918 176.782,152.928 176.676,152.938 176.571,152.948 176.465,152.957 176.359,152.967 176.254,152.977 176.148,152.987 176.043,152.997 175.913,153.080 175.783,153.164 175.652,153.247 175.522,153.331 175.392,153.414 175.262,153.498 175.132,153.581 175.002,153.664 174.943,153.711 174.884,153.758 174.825,153.804 174.766,153.851 174.707,153.898 174.648,153.944 174.589,153.991 174.531,154.038 174.285,153.792 174.040,153.547 173.794,153.301 173.549,153.056 173.347,153.061 173.146,153.065 172.945,153.070 172.743,153.075 172.542,153.080 172.341,153.085 172.139,153.090 171.938,153.095 171.592,153.080 171.246,153.065 170.900,153.051 170.553,153.036 170.207,153.021 169.861,153.007 169.515,152.992 169.169,152.977 168.945,152.967 168.722,152.957 168.499,152.948 168.275,152.938 168.052,152.928 167.828,152.918 167.605,152.908 167.382,152.899 167.158,152.675 166.935,152.452 166.711,152.228 166.488,152.005 166.292,151.995 166.095,151.985 165.899,151.975 165.702,151.966 165.506,151.956 165.310,151.946 165.113,151.936 164.917,151.926 164.720,151.917 164.524,151.907 164.328,151.897 164.131,151.887 163.935,151.877 163.738,151.867 163.542,151.858 163.346,151.848 39.090,30.893 38.830,30.841 38.570,30.790 38.309,30.738 38.049,30.687 37.789,30.635 37.529,30.583 37.268,30.532 37.114,30.510 36.959,30.488 36.804,30.466 36.650,30.444 36.495,30.421 36.340,30.399 36.186,30.377 36.031,30.355 35.778,30.277 35.525,30.198 35.272,30.119 35.020,30.041 34.767,29.962 34.514,29.884 34.261,29.805 34.008,29.727 33.807,29.668 33.606,29.609 33.404,29.550 33.203,29.491 33.002,29.432 32.800,29.373 32.599,29.314 32.398,29.255 32.263,29.223 32.128,29.191 31.993,29.160 31.858,29.128 31.723,29.096 31.588,29.064 31.453,29.032 31.318,29.000 31.099,28.968 30.881,28.936 30.662,28.904 30.444,28.872 30.225,28.840 30.007,28.808 29.788,28.777 29.570,28.745 29.493,28.644 29.417,28.543 29.341,28.443 29.265,28.342 29.189,28.241 29.113,28.141 29.037,28.040 28.961,27.939 28.924,27.827 28.887,27.714 28.850,27.601 28.813,27.488 28.777,27.375 28.740,27.262 28.703,27.149 28.666,27.036 28.644,26.935 28.622,26.835 28.600,26.734 28.578,26.633 28.556,26.533 28.534,26.432 28.511,26.331 28.489,26.231 28.396,25.985 28.303,25.740 28.209,25.494 28.116,25.249 28.023,25.003 27.930,24.758 27.836,24.512 27.743,24.267 27.684,24.156 27.625,24.046 27.566,23.935 27.507,23.825 27.448,23.714 27.390,23.604 27.331,23.493 27.272,23.383 27.200,23.238 27.129,23.093 27.058,22.948 26.987,22.804 26.916,22.659 26.845,22.514 26.773,22.369 26.702,22.224 26.621,22.087 26.540,21.949 26.459,21.812 26.378,21.674 26.297,21.537 26.216,21.399 26.135,21.262 26.054,21.124 25.941,20.948 25.828,20.771 25.715,20.594 25.602,20.417 25.489,20.241 25.376,20.064 25.263,19.887 25.151,19.710 25.040,19.546 24.930,19.381 24.819,19.217 24.709,19.052 24.598,18.888 24.488,18.723 24.377,18.559 24.267,18.394 24.095,18.193 23.923,17.992 23.751,17.791 23.579,17.589 23.408,17.388 23.236,17.187 23.064,16.985 22.892,16.784 22.720,16.597 22.548,16.411 22.376,16.224 22.205,16.038 22.033,15.851 21.861,15.664 21.689,15.478 21.517,15.291 21.387,15.124 21.257,14.957 21.127,14.791 20.997,14.624 20.867,14.457 20.736,14.290 20.606,14.123 20.476,13.956 20.322,13.821 20.167,13.686 20.012,13.551 19.858,13.416 19.703,13.281 19.548,13.146 19.394,13.011 19.239,12.876 19.067,12.718 18.895,12.561 18.723,12.404 18.552,12.247 18.380,12.090 18.208,11.933 18.036,11.776 17.864,11.619 17.700,11.516 17.535,11.412 17.371,11.309 17.206,11.206 17.042,11.103 16.877,11.000 16.713,10.897 16.548,10.794 16.327,10.649 16.106,10.504 15.885,10.359 15.664,10.214 15.444,10.070 15.223,9.925 15.002,9.780 14.781,9.635 14.655,9.586 14.530,9.537 14.405,9.488 14.280,9.439 14.155,9.390 14.029,9.340 13.904,9.291 13.779,9.242 13.534,9.146 13.288,9.051 13.043,8.955 12.797,8.859 12.552,8.764 12.306,8.668 12.061,8.572 11.815,8.476 11.655,8.462 11.496,8.447 11.336,8.432 11.177,8.417 11.017,8.403 10.858,8.388 10.698,8.373 10.538,8.358 10.450,8.344 10.362,8.329 10.273,8.314 10.185,8.300 10.097,8.285 10.008,8.270 9.920,8.255 9.831,8.241 9.773,8.216 9.714,8.191 9.655,8.167 9.596,8.142 9.537,8.118 9.478,8.093 9.419,8.069 9.360,8.044 9.304,7.956 9.247,7.867 9.191,7.779 9.134,7.691 9.078,7.602 9.021,7.514 8.965,7.426 8.908,7.337 8.857,7.207 8.805,7.077 8.754,6.947 8.702,6.817 8.651,6.687 8.599,6.556 8.547,6.426 8.496,6.296 8.403,6.188 8.309,6.080 8.216,5.972 8.123,5.864 8.029,5.756 7.936,5.648 7.843,5.540 7.750,5.432 7.649,5.378 7.548,5.324 7.448,5.270 7.347,5.216 7.246,5.162 7.146,5.108 7.045,5.054 6.944,5.000 6.800,5.010 6.655,5.020 6.510,5.029 6.365,5.039 6.220,5.049 6.075,5.059 5.930,5.069 5.786,5.079 5.727,5.150 5.668,5.221 5.609,5.292 5.550,5.363 5.491,5.435 5.432,5.506 5.373,5.577 5.314,5.648 5.290,5.759 5.265,5.869 5.241,5.980 5.216,6.090 5.191,6.200 5.167,6.311 5.142,6.421 5.118,6.532 5.103,6.701 5.088,6.871 5.074,7.040 5.059,7.209 5.044,7.379 5.029,7.548 5.015,7.718 5.000,7.887 5.012,8.000 5.025,8.113 5.037,8.226 5.049,8.339 5.061,8.452 5.074,8.565 5.086,8.678 5.098,8.791 5.113,8.921 5.128,9.051 5.142,9.181 5.157,9.311 5.172,9.441 5.187,9.571 5.201,9.701 5.216,9.831 5.245,9.974 5.275,10.116 5.304,10.259 5.334,10.401 5.363,10.543 5.393,10.686 5.422,10.828 5.452,10.971 5.484,11.052 5.516,11.133 5.547,11.214 5.579,11.295 5.611,11.376 5.643,11.457 5.675,11.538 5.707,11.619 5.805,11.756 5.903,11.894 6.002,12.031 6.100,12.169 6.198,12.306 6.296,12.444 6.394,12.581 6.493,12.718 6.559,12.765 6.625,12.812 6.691,12.858 6.758,12.905 6.824,12.952 6.890,12.998 6.957,13.045 7.023,13.092 7.126,13.087 7.229,13.082 7.332,13.077 7.435,13.072 7.538,13.067 7.642,13.062 7.745,13.057 7.848,13.052 7.934,12.996 8.020,12.939 8.106,12.883 8.191,12.827 8.277,12.770 8.363,12.714 8.449,12.657 8.535,12.601 8.702,12.564 8.869,12.527 9.036,12.490 9.203,12.453 9.370,12.417 9.537,12.380 9.704,12.343 9.871,12.306 9.952,12.313 10.033,12.321 10.114,12.328 10.195,12.336 10.276,12.343 10.357,12.350 10.438,12.358 10.519,12.365 10.713,12.402 10.907,12.439 11.101,12.475 11.295,12.512 11.489,12.549 11.682,12.586 11.876,12.623 12.070,12.660 12.154,12.674 12.237,12.689 12.321,12.704 12.404,12.719 12.488,12.733 12.571,12.748 12.655,12.763 12.738,12.777 12.824,12.819 12.910,12.861 12.996,12.903 13.082,12.944 13.168,12.986 13.254,13.028 13.340,13.070 13.426,13.111 13.511,13.163 13.597,13.214 13.683,13.266 13.769,13.318 13.855,13.369 13.941,13.421 14.027,13.472 14.113,13.524 14.253,13.595 14.393,13.666 14.533,13.737 14.673,13.809 14.813,13.880 14.953,13.951 15.092,14.022 15.232,14.093 15.348,14.191 15.463,14.290 15.579,14.388 15.694,14.486 15.809,14.584 15.925,14.682 16.040,14.781 16.155,14.879 16.261,14.975 16.367,15.070 16.472,15.166 16.578,15.262 16.683,15.358 16.789,15.453 16.894,15.549 17.000,15.645 17.182,15.861 17.363,16.077 17.545,16.293 17.727,16.509 17.908,16.725 18.090,16.941 18.272,17.157 18.453,17.373 18.493,17.420 18.532,17.466 18.571,17.513 18.610,17.560 18.650,17.606 18.689,17.653 18.728,17.700 18.768,17.746 18.846,17.852 18.925,17.957 19.003,18.063 19.082,18.169 19.160,18.274 19.239,18.380 19.318,18.485 19.396,18.591 19.453,18.677 19.509,18.763 19.565,18.849 19.622,18.935 19.678,19.020 19.735,19.106 19.791,19.192 19.848,19.278 19.926,19.396 20.005,19.514 20.083,19.632 20.162,19.750 20.241,19.867 20.319,19.985 20.398,20.103 20.476,20.221 20.557,20.344 20.638,20.466 20.719,20.589 20.800,20.712 20.881,20.835 20.962,20.957 21.043,21.080 21.124,21.203 21.215,21.355 21.306,21.507 21.397,21.660 21.488,21.812 21.579,21.964 21.669,22.116 21.760,22.268 21.851,22.421 21.925,22.563 21.998,22.705 22.072,22.848 22.146,22.990 22.219,23.133 22.293,23.275 22.367,23.417 22.440,23.560 22.484,23.670 22.529,23.781 22.573,23.891 22.617,24.002 22.661,24.112 22.705,24.223 22.750,24.333 22.794,24.444 22.860,24.564 22.926,24.684 22.993,24.804 23.059,24.925 23.125,25.045 23.191,25.165 23.258,25.286 23.324,25.406 23.383,25.529 23.442,25.651 23.501,25.774 23.560,25.897 23.619,26.020 23.678,26.142 23.736,26.265 23.795,26.388 23.864,26.530 23.933,26.673 24.002,26.815 24.070,26.957 24.139,27.100 24.208,27.242 24.277,27.385 24.345,27.527 24.446,27.711 24.547,27.895 24.647,28.079 24.748,28.264 24.849,28.448 24.949,28.632 25.050,28.816 25.151,29.000 25.254,29.191 25.357,29.383 25.460,29.574 25.563,29.766 25.666,29.957 25.769,30.149 25.872,30.340 25.975,30.532 26.061,30.694 26.147,30.856 26.233,31.018 26.319,31.180 26.405,31.342 26.491,31.504 26.577,31.666 26.663,31.828 26.734,31.990 26.805,32.152 26.876,32.314 26.948,32.476 27.019,32.638 27.090,32.800 27.161,32.962 27.232,33.124 27.262,33.164 27.291,33.203 27.321,33.242 27.350,33.282 27.380,33.321 27.409,33.360 27.439,33.399 27.468,33.439 27.598,33.485 27.728,33.532 27.858,33.579 27.989,33.625 28.119,33.672 28.249,33.718 28.379,33.765 28.509,33.812 28.678,33.817 28.848,33.822 29.017,33.827 29.187,33.831 29.356,33.836 29.525,33.841 29.695,33.846 29.864,33.851 29.933,33.866 30.002,33.881 30.070,33.895 30.139,33.910 30.208,33.925 30.277,33.939 30.345,33.954 30.414,33.969 30.512,34.008 30.610,34.047 30.709,34.087 30.807,34.126 30.905,34.165 31.003,34.205 31.101,34.244 31.200,34.283 31.379,34.367 31.558,34.450 31.737,34.534 31.917,34.617 32.096,34.700 32.275,34.784 32.454,34.867 32.633,34.951 32.670,34.968 32.707,34.985 32.744,35.002 32.781,35.020 32.818,35.037 32.854,35.054 32.891,35.071 32.928,35.088 32.982,35.123 33.036,35.157 33.090,35.191 33.144,35.226 33.198,35.260 33.252,35.295 33.306,35.329 33.360,35.363 33.463,35.437 33.566,35.511 33.669,35.584 33.772,35.658 33.876,35.732 33.979,35.805 34.082,35.879 34.185,35.953 34.286,36.007 34.386,36.061 34.487,36.115 34.588,36.169 34.688,36.223 34.789,36.277 34.890,36.331 34.990,36.385 35.059,36.439 35.128,36.493 35.196,36.547 35.265,36.601 35.334,36.655 35.403,36.709 35.471,36.763 35.540,36.817 35.557,36.925 35.574,37.033 35.592,37.141 35.609,37.249 35.626,37.357 35.643,37.465 35.660,37.573 35.678,37.681 35.611,37.813 35.545,37.946 35.479,38.079 35.412,38.211 35.346,38.344 35.280,38.476 35.214,38.609 35.147,38.741 35.025,38.896 34.902,39.051 34.779,39.205 34.656,39.360 34.534,39.515 34.411,39.669 34.288,39.824 34.165,39.979 34.126,40.084 34.087,40.190 34.047,40.295 34.008,40.401 33.969,40.507 33.930,40.612 33.890,40.718 33.851,40.823 33.807,40.931 33.763,41.039 33.718,41.147 33.674,41.255 33.630,41.363 33.586,41.471 33.542,41.579 33.498,41.687 33.500,41.761 33.502,41.835 33.505,41.908 33.507,41.982 33.510,42.056 33.512,42.129 33.515,42.203 33.517,42.277 33.542,42.397 33.566,42.517 33.591,42.637 33.615,42.758 33.640,42.878 33.664,42.998 33.689,43.119 33.714,43.239 33.787,43.376 33.861,43.514 33.934,43.651 34.008,43.789 34.082,43.926 34.155,44.064 34.229,44.201 34.303,44.339 34.374,44.412 34.445,44.486 34.516,44.560 34.587,44.633 34.659,44.707 34.730,44.781 34.801,44.854 34.872,44.928 34.985,45.021 35.098,45.115 35.211,45.208 35.324,45.301 35.437,45.394 35.550,45.488 35.663,45.581 35.776,45.674 35.832,45.706 35.889,45.738 35.945,45.770 36.002,45.802 36.058,45.834 36.114,45.866 36.171,45.898 36.227,45.930 36.404,45.959 36.581,45.989 36.758,46.018 36.934,46.047 37.111,46.077 37.288,46.106 37.465,46.136 37.641,46.165 37.730,46.141 37.818,46.116 37.907,46.092 37.995,46.067 38.083,46.042 38.172,46.018 38.260,45.993 38.349,45.969 38.474,45.868 38.599,45.767 38.724,45.667 38.849,45.566 38.975,45.465 39.100,45.365 39.225,45.264 39.350,45.164 39.468,44.989 39.586,44.815 39.704,44.641 39.822,44.466 39.939,44.292 40.057,44.118 40.175,43.943 40.293,43.769 40.359,43.671 40.425,43.573 40.492,43.474 40.558,43.376 40.624,43.278 40.691,43.180 40.757,43.082 40.823,42.983 40.892,42.883 40.961,42.782 41.029,42.682 41.098,42.581 41.167,42.480 41.236,42.380 41.304,42.279 41.373,42.178 41.452,42.056 41.530,41.933 41.609,41.810 41.687,41.687 41.766,41.565 41.844,41.442 41.923,41.319 42.002,41.196 42.038,41.130 42.075,41.064 42.112,40.997 42.149,40.931 42.186,40.865 42.223,40.799 42.259,40.732 42.296,40.666 42.372,40.543 42.448,40.420 42.524,40.298 42.601,40.175 42.677,40.052 42.753,39.929 42.829,39.807 42.905,39.684 42.996,39.566 43.087,39.448 43.178,39.330 43.268,39.213 43.359,39.095 43.450,38.977 43.541,38.859 43.632,38.741 43.664,38.707 43.696,38.673 43.727,38.638 43.759,38.604 43.791,38.569 43.823,38.535 43.855,38.501 43.887,38.466 43.998,38.341 44.108,38.216 44.218,38.091 44.329,37.966 44.439,37.840 44.550,37.715 44.660,37.590 44.771,37.465 44.903,37.335 45.036,37.204 45.169,37.074 45.301,36.944 45.434,36.814 45.566,36.684 45.699,36.554 45.831,36.424 45.898,36.357 45.964,36.291 46.030,36.225 46.097,36.159 46.163,36.092 46.229,36.026 46.295,35.960 46.362,35.893 46.425,35.839 46.489,35.785 46.553,35.731 46.617,35.677 46.681,35.623 46.745,35.569 46.808,35.515 46.872,35.461 47.022,35.437 47.172,35.412 47.322,35.388 47.471,35.363 47.621,35.339 47.771,35.314 47.921,35.290 48.070,35.265 48.127,35.321 48.183,35.378 48.240,35.434 48.296,35.491 48.382,35.493 48.468,35.496 48.554,35.498 48.640,35.501 48.726,35.503 48.812,35.506 48.898,35.508 48.984,35.510 49.074,35.513 49.165,35.515 49.256,35.518 49.347,35.520 49.438,35.523 49.529,35.525 49.619,35.528 49.710,35.530 49.867,35.525 50.025,35.520 50.182,35.515 50.339,35.510 50.496,35.505 50.653,35.501 50.810,35.496 50.967,35.491 51.085,35.496 51.203,35.501 51.321,35.505 51.439,35.510 51.556,35.515 51.674,35.520 51.792,35.525 51.910,35.530 52.074,35.545 52.239,35.559 52.403,35.574 52.568,35.589 52.732,35.604 52.897,35.618 53.061,35.633 53.226,35.648 53.358,35.653 53.491,35.658 53.624,35.663 53.756,35.667 53.889,35.672 54.021,35.677 54.154,35.682 54.286,35.687 54.348,35.682 54.409,35.677 54.471,35.672 54.532,35.667 54.593,35.663 54.655,35.658 54.716,35.653 55.003,35.422" fill="none" stroke="black" stroke-width="1"/>
</svg>
