<?xml version="1.0" encoding="UTF-8"?>
<svg xmlns="http://www.w3.org/2000/svg" width="184.2" height="160.0" viewBox="0 0 184.2 160.0">
  <polyline points="179.168,128.864 179.150,128.565 179.133,128.266 179.115,127.968 179.098,127.669 179.080,127.371 179.062,127.072 179.045,126.773 179.027,126.475 179.045,126.229 179.062,125.983 179.080,125.737 179.098,125.491 179.115,125.245 179.133,124.999 179.150,124.754 179.168,124.508 179.115,124.279 179.062,124.051 179.010,123.823 178.957,123.594 178.904,123.366 178.852,123.138 178.799,122.909 178.746,122.681 178.764,122.189 178.781,121.697 178.799,121.206 178.817,120.714 178.834,120.222 178.852,119.730 178.869,119.238 178.887,118.747 178.518,118.378 178.149,118.009 177.780,117.640 177.411,117.271 177.157,117.319 176.902,117.368 176.647,117.416 176.393,117.464 176.138,117.513 175.883,117.561 175.629,117.609 175.374,117.657 175.036,117.688 174.698,117.719 174.360,117.750 174.022,117.780 173.683,117.811 173.345,117.842 173.007,117.873 172.669,117.904 172.287,117.952 171.905,118.000 171.523,118.048 171.141,118.097 170.759,118.145 170.377,118.193 169.995,118.242 169.613,118.290 169.117,118.312 168.621,118.334 168.124,118.356 167.628,118.378 167.132,118.400 166.636,118.422 166.140,118.444 165.643,118.465 165.121,118.487 164.598,118.509 164.076,118.531 163.553,118.553 163.031,118.575 162.508,118.597 161.986,118.619 161.463,118.641 161.151,118.628 160.840,118.615 160.528,118.602 160.216,118.588 159.904,118.575 159.592,118.562 159.281,118.549 158.969,118.536 158.482,118.527 157.994,118.518 157.507,118.509 157.019,118.501 156.532,118.492 156.044,118.483 155.557,118.474 155.070,118.465 154.345,118.435 153.621,118.404 152.896,118.373 152.172,118.342 151.447,118.312 150.722,118.281 149.998,118.250 149.273,118.219 148.830,118.189 148.386,118.158 147.943,118.127 147.499,118.096 147.056,118.066 146.612,118.035 146.169,118.004 145.725,117.973 144.860,117.855 143.995,117.736 143.130,117.618 142.265,117.499 141.400,117.381 140.535,117.262 139.670,117.144 138.805,117.025 138.225,116.924 137.646,116.823 137.066,116.722 136.487,116.621 135.907,116.520 135.327,116.419 134.748,116.318 134.168,116.217 133.751,116.134 133.334,116.050 132.917,115.967 132.499,115.883 132.082,115.800 131.665,115.716 131.248,115.633 130.831,115.550 130.291,115.449 129.751,115.348 129.211,115.247 128.670,115.146 128.130,115.045 127.590,114.944 127.050,114.843 126.510,114.742 126.009,114.641 125.509,114.540 125.008,114.439 124.508,114.338 124.007,114.237 123.507,114.136 123.006,114.035 122.505,113.934 122.040,113.833 121.574,113.732 121.109,113.631 120.644,113.530 120.178,113.429 119.713,113.328 119.247,113.227 118.782,113.126 118.391,113.042 118.000,112.959 117.609,112.875 117.219,112.792 116.828,112.709 116.437,112.625 116.046,112.542 115.655,112.458 115.278,112.366 114.900,112.274 114.522,112.182 114.145,112.089 113.767,111.997 113.389,111.905 113.012,111.813 112.634,111.721 112.156,111.593 111.677,111.466 111.198,111.338 110.720,111.211 110.241,111.084 109.762,110.956 109.284,110.829 108.805,110.702 108.520,110.583 108.234,110.465 107.949,110.346 107.664,110.228 107.378,110.109 107.093,109.990 106.807,109.872 106.522,109.753 106.021,109.626 105.521,109.499 105.020,109.371 104.520,109.244 104.019,109.117 103.518,108.989 103.018,108.862 102.517,108.735 102.328,108.656 102.140,108.576 101.951,108.497 101.762,108.418 101.573,108.339 101.384,108.260 101.195,108.181 101.007,108.102 100.519,107.949 100.032,107.795 99.544,107.641 99.057,107.488 98.570,107.334 98.082,107.180 97.595,107.026 97.107,106.873 96.471,106.644 95.834,106.416 95.197,106.188 94.561,105.959 93.924,105.731 93.287,105.503 92.650,105.274 92.014,105.046 91.526,104.840 91.039,104.633 90.551,104.427 90.064,104.221 89.577,104.014 89.089,103.808 88.602,103.601 88.114,103.395 87.513,103.154 86.911,102.912 86.310,102.670 85.708,102.429 85.107,102.187 84.505,101.946 83.903,101.704 83.302,101.463 82.801,101.164 82.301,100.866 81.800,100.567 81.299,100.269 80.799,99.970 80.298,99.671 79.798,99.373 79.297,99.074 78.840,98.815 78.384,98.556 77.927,98.297 77.470,98.038 77.014,97.779 76.557,97.520 76.100,97.261 75.644,97.002 75.183,96.642 74.722,96.281 74.261,95.921 73.799,95.561 73.338,95.201 72.877,94.841 72.416,94.481 71.955,94.121 71.534,93.801 71.112,93.480 70.691,93.159 70.269,92.839 69.848,92.518 69.426,92.198 69.004,91.877 68.583,91.557 68.254,91.311 67.924,91.065 67.595,90.819 67.266,90.573 66.936,90.327 66.607,90.081 66.278,89.835 65.948,89.589 65.658,89.251 65.369,88.913 65.079,88.575 64.789,88.237 64.499,87.899 64.209,87.561 63.920,87.223 63.630,86.885 63.410,86.634 63.191,86.384 62.971,86.134 62.752,85.883 62.532,85.633 62.312,85.383 62.093,85.133 61.873,84.882 61.693,84.667 61.513,84.452 61.333,84.237 61.153,84.022 60.973,83.806 60.793,83.591 60.613,83.376 60.433,83.161 60.240,82.862 60.047,82.564 59.853,82.265 59.660,81.967 59.467,81.668 59.274,81.369 59.081,81.071 58.887,80.772 58.576,80.346 58.264,79.920 57.952,79.494 57.640,79.068 57.329,78.642 57.017,78.217 56.705,77.791 56.393,77.365 56.143,76.978 55.893,76.592 55.642,76.205 55.392,75.819 55.142,75.433 54.892,75.046 54.641,74.660 54.391,74.273 54.167,73.830 53.943,73.386 53.719,72.943 53.495,72.499 53.271,72.056 53.047,71.612 52.823,71.169 52.599,70.725 52.516,70.400 52.432,70.075 52.349,69.751 52.266,69.426 52.182,69.101 52.099,68.776 52.015,68.451 51.932,68.126 51.835,67.713 51.739,67.300 51.642,66.888 51.545,66.475 51.449,66.062 51.352,65.649 51.256,65.237 51.159,64.824 51.093,64.556 51.027,64.288 50.961,64.020 50.896,63.752 50.830,63.484 50.764,63.217 50.698,62.949 50.632,62.681 50.562,62.330 50.492,61.978 50.421,61.627 50.351,61.276 50.281,60.924 50.211,60.573 50.140,60.222 50.070,59.871 50.004,59.590 49.938,59.309 49.872,59.028 49.807,58.746 49.741,58.465 49.675,58.184 49.609,57.903 49.543,57.622 49.469,57.302 49.394,56.981 49.319,56.661 49.245,56.340 49.170,56.020 49.095,55.699 49.021,55.379 48.946,55.058 48.836,54.676 48.726,54.294 48.617,53.912 48.507,53.530 48.397,53.148 48.287,52.766 48.178,52.384 48.068,52.002 47.949,51.475 47.831,50.948 47.712,50.421 47.594,49.894 47.475,49.367 47.356,48.840 47.238,48.313 47.119,47.786 47.045,47.264 46.970,46.741 46.895,46.219 46.821,45.696 46.746,45.174 46.671,44.651 46.597,44.129 46.522,43.606 46.425,43.097 46.329,42.587 46.232,42.078 46.136,41.569 46.039,41.059 45.942,40.550 45.846,40.040 45.749,39.531 45.688,38.947 45.626,38.363 45.565,37.779 45.503,37.195 45.442,36.611 45.380,36.027 45.319,35.443 45.257,34.859 45.178,34.310 45.099,33.761 45.020,33.212 44.941,32.663 44.862,32.115 44.783,31.566 44.704,31.017 44.625,30.468 44.564,29.800 44.502,29.133 44.441,28.466 44.379,27.798 44.318,27.131 44.256,26.463 44.195,25.796 44.133,25.128 44.111,24.764 44.089,24.399 44.067,24.035 44.046,23.671 44.024,23.306 44.002,22.942 43.980,22.577 43.958,22.213 43.909,21.817 43.861,21.422 43.813,21.027 43.765,20.632 43.716,20.237 43.668,19.842 43.620,19.446 43.571,19.051 43.492,18.551 43.413,18.050 43.334,17.549 43.255,17.049 43.176,16.548 43.097,16.048 43.018,15.547 42.939,15.046 44.353,13.137 44.291,12.702 44.230,12.267 44.168,11.833 44.107,11.398 44.046,10.963 43.984,10.528 43.923,10.094 43.861,9.791 43.800,9.488 43.738,9.185 43.677,8.882 43.615,8.579 43.554,8.276 43.492,7.973 43.431,7.670 43.211,7.424 42.992,7.178 42.772,6.932 42.553,6.686 42.333,6.440 42.113,6.194 41.894,5.948 41.674,5.703 41.481,5.624 41.288,5.545 41.095,5.465 40.902,5.386 40.708,5.307 40.515,5.228 40.322,5.149 40.129,5.070 39.834,5.061 39.540,5.053 39.246,5.044 38.952,5.035 38.658,5.026 38.363,5.018 38.069,5.009 37.775,5.000 37.520,5.040 37.266,5.079 37.011,5.119 36.756,5.158 36.502,5.198 36.247,5.237 35.992,5.277 35.738,5.316 35.632,5.461 35.527,5.606 35.421,5.751 35.316,5.896 35.211,6.041 35.105,6.186 35.000,6.330 34.895,6.475 34.877,6.739 34.859,7.002 34.842,7.266 34.824,7.529 34.807,7.793 34.789,8.056 34.772,8.320 34.754,8.583 34.785,8.961 34.815,9.338 34.846,9.716 34.877,10.094 34.908,10.471 34.938,10.849 34.969,11.227 35.000,11.604 35.061,11.920 35.123,12.237 35.184,12.553 35.246,12.869 35.307,13.185 35.369,13.501 35.430,13.817 35.492,14.133 35.588,14.520 35.685,14.906 35.781,15.293 35.878,15.679 35.975,16.066 36.071,16.452 36.168,16.838 36.265,17.225 36.352,17.743 36.440,18.261 36.528,18.779 36.616,19.297 36.704,19.816 36.791,20.334 36.879,20.852 36.967,21.370 37.024,21.756 37.081,22.143 37.138,22.529 37.195,22.916 37.253,23.302 37.310,23.688 37.367,24.075 37.424,24.461 37.454,24.839 37.485,25.217 37.516,25.594 37.547,25.972 37.577,26.349 37.608,26.727 37.639,27.105 37.670,27.482 37.709,27.926 37.749,28.369 37.788,28.813 37.828,29.256 37.867,29.700 37.907,30.143 37.946,30.587 37.986,31.030 38.017,31.316 38.047,31.601 38.078,31.887 38.109,32.172 38.139,32.457 38.170,32.743 38.201,33.028 38.232,33.314 38.249,33.634 38.267,33.955 38.284,34.275 38.302,34.596 38.320,34.916 38.337,35.237 38.355,35.558 38.372,35.878 38.381,36.115 38.390,36.352 38.399,36.589 38.407,36.827 38.416,37.064 38.425,37.301 38.434,37.538 38.442,37.775 38.460,38.091 38.478,38.407 38.495,38.724 38.513,39.040 38.530,39.356 38.548,39.672 38.565,39.988 38.583,40.304 38.570,40.743 38.557,41.183 38.543,41.622 38.530,42.061 38.517,42.500 38.504,42.939 38.491,43.378 38.478,43.817 38.508,44.230 38.539,44.643 38.570,45.055 38.601,45.468 38.631,45.881 38.662,46.294 38.693,46.706 38.724,47.119 38.710,47.541 38.697,47.962 38.684,48.384 38.671,48.805 38.658,49.227 38.644,49.649 38.631,50.070 38.618,50.492 38.636,51.260 38.653,52.028 38.671,52.797 38.688,53.565 38.706,54.334 38.724,55.102 38.741,55.871 38.759,56.639 38.631,56.762 38.504,56.885 38.377,57.008 38.249,57.131 38.122,57.254 37.995,57.377 37.867,57.500 37.740,57.623 37.226,57.675 36.712,57.728 36.199,57.781 35.685,57.834 35.171,57.886 34.657,57.939 34.144,57.992 33.630,58.044 33.362,58.071 33.094,58.097 32.826,58.123 32.558,58.150 32.291,58.176 32.023,58.202 31.755,58.229 31.487,58.255 30.762,58.343 30.038,58.431 29.313,58.519 28.589,58.606 27.864,58.694 27.140,58.782 26.415,58.870 25.691,58.958 24.927,59.142 24.163,59.326 23.399,59.511 22.635,59.695 21.871,59.880 21.106,60.064 20.342,60.249 19.578,60.433 19.113,60.679 18.647,60.925 18.182,61.171 17.717,61.417 17.251,61.663 16.786,61.908 16.320,62.154 15.855,62.400 15.582,62.541 15.310,62.681 15.038,62.822 14.766,62.962 14.494,63.103 14.221,63.243 13.949,63.384 13.677,63.524 13.453,63.696 13.229,63.867 13.005,64.038 12.781,64.209 12.557,64.381 12.333,64.552 12.109,64.723 11.885,64.894 11.727,65.110 11.569,65.325 11.411,65.540 11.253,65.755 11.095,65.970 10.937,66.185 10.779,66.401 10.621,66.616 10.432,66.923 10.243,67.230 10.054,67.538 9.865,67.845 9.676,68.153 9.488,68.460 9.299,68.767 9.110,69.075 8.904,69.492 8.697,69.909 8.491,70.326 8.285,70.743 8.078,71.160 7.872,71.578 7.665,71.995 7.459,72.412 7.354,72.860 7.248,73.308 7.143,73.756 7.037,74.203 6.932,74.651 6.827,75.099 6.721,75.547 6.616,75.995 6.511,76.355 6.405,76.715 6.300,77.075 6.194,77.435 6.089,77.795 5.984,78.155 5.878,78.515 5.773,78.876 5.707,79.205 5.641,79.534 5.575,79.864 5.509,80.193 5.443,80.522 5.378,80.852 5.312,81.181 5.246,81.510 5.215,81.747 5.184,81.984 5.154,82.222 5.123,82.459 5.092,82.696 5.061,82.933 5.031,83.170 5.000,83.407 5.004,83.820 5.009,84.233 5.013,84.645 5.017,85.058 5.022,85.471 5.026,85.884 5.031,86.296 5.035,86.709 5.057,86.977 5.079,87.245 5.101,87.513 5.123,87.781 5.145,88.049 5.167,88.316 5.189,88.584 5.211,88.852 5.246,89.335 5.281,89.818 5.316,90.301 5.351,90.784 5.386,91.267 5.421,91.750 5.456,92.233 5.492,92.716 5.579,93.098 5.667,93.480 5.755,93.862 5.843,94.244 5.931,94.626 6.019,95.008 6.106,95.390 6.194,95.772 6.229,96.018 6.264,96.264 6.300,96.510 6.335,96.756 6.370,97.002 6.405,97.248 6.440,97.494 6.475,97.740 6.541,98.047 6.607,98.354 6.673,98.662 6.739,98.969 6.805,99.277 6.870,99.584 6.936,99.891 7.002,100.199 7.195,100.357 7.389,100.515 7.582,100.673 7.775,100.831 7.968,100.989 8.161,101.147 8.355,101.305 8.548,101.463 8.789,101.485 9.031,101.507 9.272,101.529 9.514,101.551 9.755,101.573 9.997,101.595 10.238,101.617 10.480,101.639 10.849,101.604 11.218,101.569 11.586,101.534 11.955,101.498 12.324,101.463 12.693,101.428 13.062,101.393 13.431,101.358 13.536,101.340 13.641,101.323 13.747,101.305 13.852,101.288 13.958,101.270 14.063,101.253 14.168,101.235 14.274,101.217 14.348,101.051 14.423,100.884 14.498,100.717 14.572,100.550 14.647,100.383 14.722,100.216 14.796,100.049 14.871,99.883 14.814,99.487 14.757,99.092 14.700,98.697 14.643,98.302 14.586,97.907 14.528,97.511 14.471,97.116 14.414,96.721 14.379,96.374 14.344,96.027 14.309,95.680 14.274,95.333 14.239,94.987 14.204,94.640 14.168,94.293 14.133,93.946 14.138,93.599 14.142,93.252 14.146,92.905 14.151,92.558 14.155,92.211 14.159,91.864 14.164,91.518 14.168,91.171 14.186,90.903 14.203,90.635 14.221,90.367 14.238,90.099 14.256,89.831 14.274,89.564 14.291,89.296 14.309,89.028 14.353,88.461 14.397,87.895 14.440,87.328 14.484,86.762 14.528,86.196 14.572,85.629 14.616,85.063 14.660,84.496 14.686,84.079 14.713,83.662 14.739,83.245 14.765,82.828 14.792,82.410 14.818,81.993 14.844,81.576 14.871,81.159 14.941,80.852 15.011,80.544 15.082,80.237 15.152,79.930 15.222,79.622 15.292,79.315 15.363,79.007 15.433,78.700 15.543,78.494 15.652,78.287 15.762,78.081 15.872,77.874 15.982,77.668 16.091,77.462 16.201,77.255 16.311,77.049 16.513,76.790 16.715,76.531 16.917,76.272 17.119,76.013 17.321,75.754 17.523,75.495 17.725,75.235 17.927,74.976 18.221,74.709 18.515,74.441 18.810,74.173 19.104,73.905 19.398,73.637 19.692,73.369 19.986,73.101 20.281,72.834 20.478,72.640 20.676,72.447 20.873,72.254 21.071,72.061 21.269,71.867 21.466,71.674 21.664,71.481 21.861,71.288 22.059,71.222 22.257,71.156 22.454,71.090 22.652,71.024 22.849,70.959 23.047,70.893 23.245,70.827 23.442,70.761 23.565,70.730 23.688,70.699 23.811,70.669 23.934,70.638 24.057,70.607 24.180,70.576 24.303,70.546 24.426,70.515 24.997,70.484 25.567,70.453 26.138,70.423 26.709,70.392 27.280,70.361 27.851,70.330 28.422,70.300 28.992,70.269 29.159,70.308 29.326,70.348 29.493,70.387 29.660,70.427 29.827,70.466 29.994,70.506 30.161,70.545 30.327,70.585 30.507,70.624 30.687,70.664 30.867,70.703 31.048,70.743 31.228,70.782 31.408,70.822 31.588,70.861 31.768,70.901 31.974,70.971 32.180,71.041 32.387,71.112 32.593,71.182 32.800,71.252 33.006,71.322 33.212,71.393 33.419,71.463 33.831,71.691 34.244,71.920 34.657,72.148 35.070,72.376 35.483,72.605 35.895,72.833 36.308,73.061 36.721,73.290 37.028,73.474 37.336,73.658 37.643,73.843 37.950,74.027 38.258,74.212 38.565,74.396 38.872,74.581 39.180,74.765 39.342,74.949 39.505,75.134 39.667,75.318 39.830,75.503 39.992,75.687 40.155,75.872 40.317,76.056 40.480,76.240 40.717,76.513 40.954,76.785 41.191,77.057 41.428,77.329 41.665,77.602 41.902,77.874 42.139,78.146 42.377,78.418 42.618,78.730 42.860,79.042 43.101,79.354 43.343,79.665 43.584,79.977 43.826,80.289 44.067,80.601 44.309,80.912 44.511,81.215 44.713,81.518 44.915,81.821 45.117,82.124 45.319,82.427 45.521,82.730 45.723,83.033 45.925,83.336 46.254,83.846 46.583,84.355 46.913,84.864 47.242,85.374 47.571,85.883 47.900,86.393 48.230,86.902 48.559,87.411 48.665,87.596 48.770,87.780 48.875,87.965 48.981,88.149 49.086,88.333 49.191,88.518 49.297,88.702 49.402,88.887 49.591,89.133 49.780,89.378 49.969,89.624 50.158,89.870 50.346,90.116 50.535,90.362 50.724,90.608 50.913,90.854 51.585,91.442 52.256,92.031 52.928,92.619 53.600,93.208 54.272,93.796 54.944,94.384 55.616,94.973 56.287,95.561 56.595,95.816 56.902,96.070 57.210,96.325 57.517,96.580 57.824,96.835 58.132,97.089 58.439,97.344 58.746,97.599 58.931,97.757 59.115,97.915 59.300,98.073 59.484,98.231 59.669,98.389 59.853,98.547 60.037,98.705 60.222,98.863 60.564,99.122 60.907,99.381 61.249,99.640 61.592,99.900 61.934,100.159 62.277,100.418 62.619,100.677 62.962,100.936 63.116,101.028 63.269,101.120 63.423,101.212 63.577,101.305 63.730,101.397 63.884,101.489 64.038,101.581 64.191,101.674 64.565,101.941 64.938,102.209 65.311,102.477 65.684,102.745 66.058,103.013 66.431,103.281 66.804,103.549 67.177,103.816 67.616,104.133 68.056,104.449 68.495,104.765 68.934,105.081 69.373,105.397 69.812,105.713 70.251,106.029 70.690,106.346 71.041,106.556 71.393,106.767 71.744,106.978 72.095,107.189 72.447,107.399 72.798,107.610 73.149,107.821 73.501,108.032 73.795,108.203 74.089,108.374 74.383,108.546 74.677,108.717 74.972,108.888 75.266,109.059 75.560,109.231 75.854,109.402 76.267,109.577 76.680,109.753 77.092,109.929 77.505,110.104 77.918,110.280 78.331,110.456 78.743,110.631 79.156,110.807 79.644,110.991 80.131,111.176 80.618,111.360 81.106,111.545 81.593,111.729 82.081,111.914 82.568,112.098 83.055,112.282 83.481,112.432 83.907,112.581 84.333,112.730 84.759,112.880 85.185,113.029 85.611,113.178 86.037,113.327 86.463,113.477 86.863,113.648 87.262,113.819 87.662,113.990 88.061,114.162 88.461,114.333 88.861,114.504 89.260,114.676 89.660,114.847 90.143,115.036 90.626,115.224 91.109,115.413 91.592,115.602 92.075,115.791 92.558,115.980 93.041,116.168 93.524,116.357 93.963,116.493 94.402,116.630 94.841,116.766 95.280,116.902 95.719,117.038 96.158,117.174 96.598,117.310 97.037,117.446 97.564,117.604 98.091,117.762 98.617,117.921 99.144,118.079 99.671,118.237 100.198,118.395 100.725,118.553 101.252,118.711 102.091,118.974 102.930,119.238 103.768,119.501 104.607,119.765 105.446,120.028 106.284,120.292 107.123,120.555 107.962,120.819 108.265,120.911 108.568,121.003 108.871,121.095 109.174,121.187 109.477,121.280 109.780,121.372 110.083,121.464 110.386,121.556 110.877,121.706 111.369,121.855 111.861,122.004 112.353,122.154 112.845,122.303 113.336,122.452 113.828,122.601 114.320,122.751 114.588,122.817 114.856,122.882 115.124,122.948 115.391,123.014 115.659,123.080 115.927,123.146 116.195,123.212 116.463,123.278 116.744,123.335 117.025,123.392 117.306,123.449 117.587,123.506 117.868,123.563 118.149,123.620 118.430,123.677 118.711,123.734 118.957,123.813 119.203,123.892 119.449,123.971 119.695,124.050 119.941,124.130 120.186,124.209 120.432,124.288 120.678,124.367 120.814,124.503 120.951,124.639 121.087,124.775 121.223,124.911 121.359,125.047 121.495,125.183 121.631,125.319 121.767,125.456 121.728,125.631 121.688,125.807 121.649,125.983 121.609,126.158 121.570,126.334 121.530,126.509 121.491,126.685 121.451,126.861 121.381,126.992 121.311,127.124 121.241,127.256 121.170,127.388 121.100,127.519 121.030,127.651 120.959,127.783 120.889,127.915 120.784,128.086 120.678,128.257 120.573,128.428 120.468,128.600 120.362,128.771 120.257,128.942 120.152,129.113 120.046,129.285 119.954,129.465 119.862,129.645 119.769,129.825 119.677,130.005 119.585,130.185 119.493,130.365 119.401,130.545 119.308,130.725 119.159,131.089 119.010,131.454 118.861,131.818 118.711,132.183 118.562,132.547 118.413,132.912 118.263,133.276 118.114,133.641 118.035,133.856 117.956,134.071 117.877,134.286 117.798,134.501 117.719,134.716 117.640,134.932 117.561,135.147 117.482,135.362 117.433,135.472 117.385,135.581 117.337,135.691 117.289,135.801 117.240,135.911 117.192,136.021 117.144,136.130 117.095,136.240 116.946,136.574 116.797,136.908 116.648,137.241 116.498,137.575 116.349,137.909 116.200,138.242 116.050,138.576 115.901,138.910 115.783,139.182 115.664,139.454 115.545,139.727 115.427,139.999 115.308,140.271 115.190,140.543 115.071,140.816 114.953,141.088 114.887,141.400 114.821,141.711 114.755,142.023 114.689,142.335 114.623,142.647 114.557,142.958 114.492,143.270 114.426,143.582 114.421,143.797 114.417,144.012 114.412,144.227 114.408,144.443 114.403,144.658 114.398,144.873 114.394,145.088 114.389,145.303 114.477,145.663 114.565,146.023 114.653,146.384 114.741,146.744 114.828,147.104 114.916,147.464 115.004,147.824 115.092,148.184 115.158,148.408 115.224,148.632 115.290,148.856 115.355,149.080 115.421,149.304 115.487,149.528 115.553,149.751 115.619,149.975 115.729,150.265 115.838,150.555 115.948,150.845 116.058,151.135 116.168,151.424 116.278,151.714 116.387,152.004 116.497,152.294 116.686,152.571 116.875,152.847 117.064,153.124 117.252,153.400 117.441,153.677 117.630,153.954 117.819,154.230 118.008,154.507 118.425,154.564 118.842,154.621 119.259,154.678 119.676,154.735 120.093,154.792 120.511,154.850 120.928,154.907 121.345,154.964 121.520,154.968 121.696,154.973 121.872,154.977 122.047,154.982 122.223,154.986 122.399,154.991 122.574,154.995 122.750,155.000 122.934,154.978 123.119,154.956 123.303,154.934 123.488,154.912 123.672,154.890 123.857,154.868 124.041,154.846 124.225,154.824 124.533,154.521 124.840,154.218 125.148,153.915 125.455,153.612 125.762,153.309 126.070,153.006 126.377,152.703 126.684,152.400 126.816,152.220 126.948,152.040 127.080,151.860 127.211,151.680 127.343,151.500 127.475,151.320 127.607,151.140 127.738,150.960 127.967,150.583 128.195,150.205 128.423,149.827 128.652,149.450 128.880,149.072 129.108,148.694 129.337,148.317 129.565,147.939 129.784,147.636 130.004,147.333 130.224,147.030 130.443,146.727 130.663,146.424 130.882,146.121 131.102,145.818 131.321,145.515 131.414,145.375 131.506,145.234 131.598,145.094 131.690,144.953 131.782,144.813 131.875,144.672 131.967,144.532 132.059,144.391 132.182,144.211 132.305,144.031 132.428,143.851 132.551,143.671 132.674,143.491 132.797,143.311 132.920,143.131 133.043,142.951 133.227,142.661 133.412,142.371 133.596,142.081 133.780,141.792 133.965,141.502 134.149,141.212 134.334,140.922 134.518,140.632 134.760,140.206 135.001,139.780 135.243,139.355 135.484,138.929 135.726,138.503 135.967,138.077 136.209,137.651 136.450,137.225 136.674,136.874 136.898,136.522 137.122,136.171 137.346,135.820 137.570,135.468 137.794,135.117 138.018,134.766 138.242,134.415 138.431,134.103 138.619,133.791 138.808,133.479 138.997,133.168 139.186,132.856 139.375,132.544 139.563,132.232 139.752,131.920 139.792,131.872 139.831,131.824 139.871,131.776 139.910,131.727 139.950,131.679 139.989,131.631 140.029,131.582 140.068,131.534 140.209,131.253 140.349,130.972 140.490,130.691 140.630,130.410 140.771,130.129 140.911,129.848 141.052,129.567 141.192,129.286 141.346,129.066 141.500,128.847 141.654,128.627 141.807,128.408 141.961,128.188 142.115,127.969 142.268,127.749 142.422,127.529 142.545,127.468 142.668,127.407 142.791,127.345 142.914,127.284 143.037,127.222 143.160,127.161 143.283,127.099 143.406,127.038 143.832,127.046 144.257,127.055 144.683,127.064 145.109,127.073 145.535,127.082 145.961,127.090 146.387,127.099 146.813,127.108 147.314,127.156 147.814,127.205 148.315,127.253 148.815,127.301 149.316,127.349 149.817,127.398 150.317,127.446 150.818,127.494 151.165,127.529 151.512,127.565 151.858,127.600 152.205,127.635 152.552,127.670 152.899,127.705 153.246,127.740 153.593,127.775 154.278,127.828 154.963,127.881 155.648,127.933 156.333,127.986 157.018,128.039 157.703,128.092 158.388,128.144 159.073,128.197 160.223,128.276 161.374,128.355 162.524,128.434 163.675,128.513 164.825,128.592 165.976,128.671 167.126,128.750 168.277,128.829 168.663,128.821 169.050,128.812 169.436,128.803 169.822,128.794 170.209,128.785 170.595,128.777 170.982,128.768 171.368,128.759 171.662,128.750 171.956,128.741 172.251,128.733 172.545,128.724 172.839,128.715 173.133,128.706 173.427,128.697 173.722,128.689 174.038,129.005 174.354,129.321 174.670,129.637 174.986,129.953 175.241,129.962 175.496,129.971 175.750,129.980 176.005,129.988 176.260,129.997 176.514,130.006 176.769,130.015 177.024,130.024 177.133,130.037 177.243,130.050 177.353,130.063 177.463,130.076 177.573,130.089 177.682,130.103 177.792,130.116 179.168,128.864" fill="none" stroke="black" stroke-width="1"/>
</svg>
