<?xml version="1.0" encoding="UTF-8"?>
<svg xmlns="http://www.w3.org/2000/svg" width="166.8" height="160.0" viewBox="0 0 166.8 160.0">
  <polyline points="161.787,131.732 161.735,131.264 161.683,130.797 161.631,130.329 161.580,129.862 161.528,129.394 161.476,128.927 161.424,128.460 161.372,127.992 161.389,127.594 161.406,127.196 161.424,126.798 161.441,126.399 161.458,126.001 161.475,125.603 161.493,125.205 161.510,124.807 161.475,124.270 161.441,123.733 161.406,123.196 161.371,122.660 161.337,122.123 161.302,121.586 161.267,121.050 161.233,120.513 161.250,119.994 161.267,119.474 161.285,118.955 161.302,118.435 161.319,117.916 161.336,117.397 161.354,116.877 161.371,116.358 161.406,115.873 161.440,115.388 161.475,114.903 161.510,114.419 161.544,113.934 161.579,113.449 161.614,112.964 161.648,112.480 161.614,112.116 161.579,111.753 161.544,111.389 161.510,111.025 161.475,110.662 161.440,110.298 161.406,109.935 161.371,109.571 160.886,109.588 160.402,109.606 159.917,109.623 159.432,109.640 158.947,109.658 158.462,109.675 157.978,109.692 157.493,109.709 156.593,109.761 155.692,109.813 154.792,109.865 153.892,109.917 152.992,109.969 152.091,110.021 151.191,110.073 150.291,110.125 149.598,110.090 148.906,110.056 148.213,110.021 147.521,109.986 146.828,109.952 146.136,109.917 145.443,109.882 144.751,109.848 143.885,109.796 143.019,109.744 142.154,109.692 141.288,109.640 140.422,109.588 139.557,109.536 138.691,109.484 137.825,109.432 136.631,109.415 135.436,109.398 134.242,109.380 133.047,109.363 131.852,109.346 130.658,109.328 129.463,109.311 128.269,109.294 127.645,109.259 127.022,109.224 126.399,109.190 125.776,109.155 125.152,109.121 124.529,109.086 123.906,109.051 123.282,109.017 122.503,108.895 121.724,108.774 120.945,108.653 120.166,108.532 119.387,108.411 118.608,108.289 117.829,108.168 117.050,108.047 116.426,107.943 115.803,107.839 115.180,107.735 114.557,107.631 113.933,107.528 113.310,107.424 112.687,107.320 112.064,107.216 111.458,107.112 110.852,107.008 110.246,106.904 109.640,106.800 109.034,106.697 108.428,106.593 107.822,106.489 107.216,106.385 106.610,106.229 106.004,106.073 105.398,105.918 104.792,105.762 104.186,105.606 103.580,105.450 102.974,105.294 102.368,105.138 101.676,104.965 100.983,104.792 100.291,104.619 99.598,104.446 98.906,104.273 98.213,104.100 97.521,103.927 96.828,103.753 96.153,103.528 95.478,103.303 94.803,103.078 94.127,102.853 93.452,102.628 92.777,102.403 92.102,102.178 91.427,101.953 90.942,101.762 90.457,101.572 89.972,101.381 89.487,101.191 89.003,101.001 88.518,100.810 88.033,100.620 87.548,100.429 86.960,100.170 86.371,99.910 85.782,99.650 85.194,99.390 84.605,99.131 84.017,98.871 83.428,98.611 82.839,98.352 82.285,98.040 81.731,97.728 81.177,97.417 80.623,97.105 80.069,96.794 79.515,96.482 78.961,96.170 78.407,95.859 78.009,95.651 77.611,95.443 77.213,95.235 76.814,95.028 76.416,94.820 76.018,94.612 75.620,94.404 75.222,94.197 74.512,93.764 73.802,93.331 73.092,92.898 72.382,92.465 71.672,92.032 70.963,91.600 70.253,91.167 69.543,90.734 69.300,90.474 69.058,90.215 68.816,89.955 68.573,89.695 68.331,89.436 68.089,89.176 67.846,88.916 67.604,88.656 67.050,88.154 66.496,87.652 65.942,87.150 65.388,86.648 64.834,86.146 64.280,85.644 63.726,85.142 63.172,84.640 62.877,84.224 62.583,83.809 62.289,83.393 61.994,82.978 61.700,82.562 61.406,82.147 61.111,81.731 60.817,81.316 60.661,81.091 60.505,80.866 60.350,80.641 60.194,80.415 60.038,80.190 59.882,79.965 59.726,79.740 59.571,79.515 59.242,79.048 58.913,78.580 58.584,78.113 58.255,77.645 57.926,77.178 57.597,76.710 57.268,76.243 56.939,75.776 56.662,75.273 56.385,74.771 56.108,74.269 55.831,73.767 55.554,73.265 55.277,72.763 55.000,72.261 54.723,71.759 54.463,71.101 54.204,70.443 53.944,69.785 53.684,69.127 53.424,68.469 53.165,67.812 52.905,67.154 52.645,66.496 52.455,66.080 52.265,65.665 52.074,65.249 51.884,64.834 51.693,64.418 51.503,64.003 51.312,63.587 51.122,63.172 51.070,62.791 51.018,62.410 50.966,62.029 50.914,61.648 50.862,61.267 50.810,60.886 50.758,60.505 50.706,60.125 50.602,59.657 50.499,59.190 50.395,58.722 50.291,58.255 50.187,57.787 50.083,57.320 49.979,56.852 49.875,56.385 49.754,55.814 49.633,55.242 49.512,54.671 49.391,54.100 49.269,53.528 49.148,52.957 49.027,52.386 48.906,51.814 48.854,51.451 48.802,51.087 48.750,50.724 48.698,50.360 48.646,49.996 48.594,49.633 48.542,49.269 48.490,48.906 48.386,48.352 48.283,47.798 48.179,47.244 48.075,46.690 47.971,46.136 47.867,45.582 47.763,45.028 47.659,44.474 47.365,44.335 47.071,44.197 46.776,44.058 46.482,43.920 46.188,43.781 45.893,43.643 45.599,43.504 45.305,43.366 44.993,43.192 44.681,43.019 44.370,42.846 44.058,42.673 43.747,42.500 43.435,42.327 43.123,42.154 42.812,41.981 42.361,41.704 41.911,41.427 41.461,41.150 41.011,40.873 40.561,40.596 40.111,40.319 39.661,40.042 39.210,39.765 39.003,39.505 38.795,39.245 38.587,38.985 38.379,38.726 38.172,38.466 37.964,38.206 37.756,37.947 37.548,37.687 37.064,37.271 36.579,36.856 36.094,36.440 35.609,36.025 35.125,35.609 34.640,35.194 34.155,34.778 33.670,34.363 33.428,34.103 33.186,33.843 32.943,33.584 32.701,33.324 32.458,33.064 32.216,32.805 31.974,32.545 31.731,32.285 31.420,31.870 31.108,31.454 30.796,31.039 30.485,30.623 30.173,30.208 29.861,29.792 29.550,29.377 29.238,28.961 29.030,28.667 28.823,28.373 28.615,28.078 28.407,27.784 28.199,27.490 27.992,27.195 27.784,26.901 27.576,26.607 27.368,26.191 27.161,25.776 26.953,25.360 26.745,24.945 26.537,24.529 26.330,24.114 26.122,23.698 25.914,23.283 25.793,23.006 25.672,22.729 25.551,22.452 25.429,22.175 25.308,21.897 25.187,21.620 25.066,21.343 24.945,21.066 24.737,20.738 24.529,20.409 24.321,20.080 24.114,19.751 23.906,19.422 23.698,19.093 23.490,18.764 23.283,18.435 22.988,18.002 22.694,17.569 22.400,17.136 22.105,16.704 21.811,16.271 21.517,15.838 21.222,15.405 20.928,14.972 20.720,14.678 20.512,14.384 20.305,14.089 20.097,13.795 19.889,13.501 19.681,13.206 19.474,12.912 19.266,12.618 19.110,12.220 18.954,11.821 18.798,11.423 18.643,11.025 18.487,10.627 18.331,10.229 18.175,9.830 18.019,9.432 17.864,9.138 17.708,8.843 17.552,8.549 17.396,8.255 17.240,7.961 17.084,7.666 16.929,7.372 16.773,7.078 16.323,6.818 15.873,6.558 15.422,6.298 14.972,6.039 14.522,5.779 14.072,5.519 13.622,5.260 13.172,5.000 12.860,5.035 12.548,5.069 12.237,5.104 11.925,5.139 11.614,5.173 11.302,5.208 10.990,5.242 10.679,5.277 10.315,5.485 9.952,5.693 9.588,5.900 9.224,6.108 8.861,6.316 8.497,6.524 8.134,6.731 7.770,6.939 7.441,7.320 7.112,7.701 6.783,8.082 6.454,8.463 6.125,8.843 5.796,9.224 5.467,9.605 5.139,9.986 5.121,10.367 5.104,10.748 5.087,11.129 5.069,11.510 5.052,11.891 5.035,12.271 5.017,12.652 5.000,13.033 5.139,13.328 5.277,13.622 5.416,13.916 5.554,14.211 5.693,14.505 5.831,14.799 5.970,15.093 6.108,15.388 6.316,15.769 6.524,16.150 6.731,16.530 6.939,16.911 7.147,17.292 7.355,17.673 7.562,18.054 7.770,18.435 8.012,18.539 8.255,18.643 8.497,18.747 8.740,18.850 8.982,18.954 9.224,19.058 9.467,19.162 9.709,19.266 10.090,19.439 10.471,19.612 10.852,19.785 11.233,19.958 11.614,20.132 11.994,20.305 12.375,20.478 12.756,20.651 12.860,21.032 12.964,21.413 13.068,21.794 13.172,22.175 13.276,22.555 13.379,22.936 13.483,23.317 13.587,23.698 13.864,24.217 14.141,24.737 14.418,25.256 14.695,25.776 14.972,26.295 15.249,26.814 15.526,27.334 15.803,27.853 16.011,28.165 16.219,28.476 16.427,28.788 16.634,29.100 16.842,29.411 17.050,29.723 17.258,30.035 17.465,30.346 17.690,30.744 17.916,31.143 18.141,31.541 18.366,31.939 18.591,32.337 18.816,32.735 19.041,33.134 19.266,33.532 19.508,33.913 19.751,34.294 19.993,34.674 20.235,35.055 20.478,35.436 20.720,35.817 20.963,36.198 21.205,36.579 21.465,36.925 21.724,37.271 21.984,37.618 22.244,37.964 22.503,38.310 22.763,38.656 23.023,39.003 23.283,39.349 23.542,39.730 23.802,40.111 24.062,40.492 24.321,40.873 24.581,41.253 24.841,41.634 25.100,42.015 25.360,42.396 25.706,42.777 26.053,43.158 26.399,43.539 26.745,43.920 27.091,44.301 27.438,44.681 27.784,45.062 28.130,45.443 28.373,45.859 28.615,46.274 28.857,46.690 29.100,47.105 29.342,47.521 29.584,47.936 29.827,48.352 30.069,48.767 30.589,49.235 31.108,49.702 31.627,50.170 32.147,50.637 32.666,51.105 33.186,51.572 33.705,52.039 34.224,52.507 34.519,52.767 34.813,53.026 35.107,53.286 35.402,53.546 35.696,53.805 35.990,54.065 36.285,54.325 36.579,54.584 36.700,54.740 36.821,54.896 36.942,55.052 37.064,55.208 37.185,55.364 37.306,55.519 37.427,55.675 37.548,55.831 37.583,56.298 37.618,56.766 37.652,57.233 37.687,57.701 37.722,58.168 37.756,58.636 37.791,59.103 37.825,59.571 37.912,60.107 37.999,60.644 38.085,61.181 38.172,61.717 38.258,62.254 38.345,62.791 38.431,63.328 38.518,63.864 38.605,64.314 38.691,64.764 38.778,65.215 38.864,65.665 38.951,66.115 39.037,66.565 39.124,67.015 39.210,67.465 39.384,67.898 39.557,68.331 39.730,68.764 39.903,69.197 40.076,69.629 40.249,70.062 40.422,70.495 40.596,70.928 40.786,71.499 40.976,72.071 41.167,72.642 41.357,73.213 41.548,73.785 41.738,74.356 41.929,74.927 42.119,75.499 42.258,75.914 42.396,76.330 42.535,76.745 42.673,77.161 42.812,77.576 42.950,77.992 43.089,78.407 43.227,78.823 43.504,79.394 43.781,79.965 44.058,80.537 44.335,81.108 44.612,81.679 44.889,82.251 45.166,82.822 45.443,83.393 45.703,83.895 45.963,84.397 46.222,84.900 46.482,85.402 46.742,85.904 47.001,86.406 47.261,86.908 47.521,87.410 47.728,87.722 47.936,88.033 48.144,88.345 48.352,88.656 48.560,88.968 48.767,89.280 48.975,89.591 49.183,89.903 49.425,90.232 49.668,90.561 49.910,90.890 50.152,91.219 50.395,91.548 50.637,91.877 50.879,92.206 51.122,92.535 51.347,92.863 51.572,93.192 51.797,93.521 52.022,93.850 52.247,94.179 52.472,94.508 52.697,94.837 52.922,95.166 53.182,95.512 53.442,95.859 53.701,96.205 53.961,96.551 54.221,96.897 54.481,97.244 54.740,97.590 55.000,97.936 55.208,98.282 55.415,98.629 55.623,98.975 55.831,99.321 56.039,99.668 56.246,100.014 56.454,100.360 56.662,100.706 57.026,101.070 57.389,101.433 57.753,101.797 58.116,102.161 58.480,102.524 58.843,102.888 59.207,103.251 59.571,103.615 59.778,103.857 59.986,104.100 60.194,104.342 60.402,104.584 60.609,104.827 60.817,105.069 61.025,105.312 61.233,105.554 61.527,105.814 61.821,106.073 62.116,106.333 62.410,106.593 62.704,106.852 62.999,107.112 63.293,107.372 63.587,107.631 64.003,107.839 64.418,108.047 64.834,108.255 65.249,108.463 65.665,108.670 66.080,108.878 66.496,109.086 66.911,109.294 67.171,109.484 67.431,109.674 67.690,109.865 67.950,110.055 68.210,110.246 68.469,110.436 68.729,110.627 68.989,110.817 69.422,111.025 69.855,111.233 70.287,111.440 70.720,111.648 71.153,111.856 71.586,112.064 72.019,112.271 72.451,112.479 72.902,112.756 73.352,113.033 73.802,113.310 74.252,113.587 74.702,113.864 75.152,114.141 75.602,114.418 76.053,114.695 76.589,114.955 77.126,115.215 77.663,115.474 78.199,115.734 78.736,115.994 79.273,116.253 79.809,116.513 80.346,116.773 80.554,116.946 80.762,117.119 80.969,117.292 81.177,117.465 81.385,117.638 81.593,117.812 81.800,117.985 82.008,118.158 82.389,118.279 82.770,118.400 83.151,118.521 83.532,118.643 83.913,118.764 84.294,118.885 84.674,119.006 85.055,119.127 85.298,119.179 85.540,119.231 85.782,119.283 86.025,119.335 86.267,119.387 86.510,119.439 86.752,119.491 86.994,119.543 87.323,119.664 87.652,119.785 87.981,119.906 88.310,120.028 88.639,120.149 88.968,120.270 89.297,120.391 89.626,120.512 90.093,120.668 90.561,120.824 91.028,120.980 91.496,121.136 91.963,121.292 92.431,121.447 92.898,121.603 93.366,121.759 93.868,122.053 94.370,122.348 94.872,122.642 95.374,122.936 95.876,123.231 96.378,123.525 96.880,123.819 97.382,124.114 97.677,124.408 97.971,124.702 98.265,124.997 98.559,125.291 98.854,125.585 99.148,125.879 99.442,126.174 99.737,126.468 99.996,126.832 100.256,127.195 100.516,127.559 100.776,127.922 101.035,128.286 101.295,128.650 101.555,129.013 101.814,129.377 101.832,129.810 101.849,130.242 101.866,130.675 101.883,131.108 101.901,131.541 101.918,131.974 101.935,132.406 101.953,132.839 101.918,133.255 101.883,133.670 101.849,134.086 101.814,134.501 101.779,134.917 101.745,135.332 101.710,135.748 101.675,136.163 101.537,136.614 101.398,137.064 101.260,137.514 101.121,137.964 100.983,138.414 100.844,138.864 100.706,139.314 100.567,139.764 100.446,140.093 100.325,140.422 100.204,140.751 100.083,141.080 99.961,141.409 99.840,141.738 99.719,142.067 99.598,142.396 99.407,142.864 99.217,143.331 99.026,143.798 98.836,144.266 98.646,144.733 98.455,145.201 98.265,145.668 98.074,146.136 98.005,146.638 97.936,147.140 97.867,147.642 97.797,148.144 97.728,148.646 97.659,149.148 97.590,149.650 97.520,150.152 97.728,150.550 97.936,150.949 98.144,151.347 98.351,151.745 98.559,152.143 98.767,152.541 98.975,152.940 99.182,153.338 99.425,153.494 99.667,153.650 99.910,153.805 100.152,153.961 100.394,154.117 100.637,154.273 100.879,154.429 101.121,154.584 101.537,154.636 101.952,154.688 102.368,154.740 102.783,154.792 103.199,154.844 103.615,154.896 104.030,154.948 104.446,155.000 104.861,154.896 105.277,154.792 105.692,154.688 106.108,154.584 106.523,154.481 106.939,154.377 107.354,154.273 107.770,154.169 108.272,153.702 108.774,153.234 109.276,152.767 109.778,152.299 110.280,151.832 110.782,151.364 111.284,150.897 111.786,150.429 112.167,149.997 112.548,149.564 112.929,149.131 113.310,148.698 113.691,148.265 114.072,147.832 114.452,147.400 114.833,146.967 115.076,146.690 115.318,146.413 115.560,146.136 115.803,145.859 116.045,145.582 116.288,145.305 116.530,145.028 116.772,144.751 117.067,144.491 117.361,144.231 117.655,143.972 117.950,143.712 118.244,143.452 118.538,143.193 118.833,142.933 119.127,142.673 119.387,142.344 119.646,142.015 119.906,141.686 120.166,141.357 120.425,141.028 120.685,140.699 120.945,140.371 121.205,140.042 121.430,139.816 121.655,139.591 121.880,139.366 122.105,139.141 122.330,138.916 122.555,138.691 122.780,138.466 123.005,138.241 123.196,137.964 123.386,137.687 123.576,137.410 123.767,137.133 123.957,136.856 124.148,136.579 124.338,136.302 124.529,136.025 124.771,135.765 125.013,135.506 125.256,135.246 125.498,134.986 125.741,134.726 125.983,134.467 126.225,134.207 126.468,133.947 126.779,133.670 127.091,133.393 127.403,133.116 127.714,132.839 128.026,132.562 128.337,132.285 128.649,132.008 128.961,131.731 129.324,131.541 129.688,131.350 130.051,131.160 130.415,130.970 130.779,130.779 131.142,130.589 131.506,130.398 131.869,130.208 132.337,130.104 132.804,130.000 133.272,129.896 133.739,129.792 134.207,129.688 134.674,129.585 135.142,129.481 135.609,129.377 136.232,129.359 136.855,129.342 137.479,129.325 138.102,129.308 138.725,129.290 139.349,129.273 139.972,129.256 140.595,129.238 141.028,129.290 141.461,129.342 141.894,129.394 142.326,129.446 142.759,129.498 143.192,129.550 143.625,129.602 144.058,129.654 144.456,129.671 144.854,129.689 145.252,129.706 145.650,129.723 146.049,129.740 146.447,129.758 146.845,129.775 147.243,129.792 147.780,129.896 148.317,130.000 148.853,130.104 149.390,130.208 149.927,130.312 150.464,130.416 151.000,130.519 151.537,130.623 151.918,131.004 152.299,131.385 152.680,131.766 153.060,132.147 153.580,132.182 154.099,132.216 154.619,132.251 155.138,132.286 155.657,132.320 156.177,132.355 156.696,132.390 157.216,132.424 157.596,132.528 157.977,132.632 158.358,132.736 158.739,132.840 159.120,132.944 159.501,133.047 159.882,133.151 161.787,131.732" fill="none" stroke="black" stroke-width="1"/>
</svg>
