<?xml version="1.0" encoding="UTF-8"?>
<svg xmlns="http://www.w3.org/2000/svg" width="189.4" height="160.0" viewBox="0 0 189.4 160.0">
  <polyline points="183.645,140.198 183.200,139.753 182.755,139.308 182.774,138.826 182.792,138.344 182.811,137.862 182.829,137.380 182.366,136.917 181.903,136.454 181.921,136.176 181.940,135.898 181.958,135.620 181.977,135.342 181.532,135.379 181.087,135.416 180.642,135.453 180.197,135.490 179.308,134.600 178.418,133.710 177.843,133.655 177.269,133.599 176.694,133.544 176.120,133.488 175.434,133.432 174.748,133.377 174.062,133.321 173.376,133.266 171.597,133.173 169.817,133.080 168.038,132.987 166.259,132.895 165.666,132.802 165.072,132.709 164.479,132.617 163.886,132.524 162.700,132.376 161.514,132.228 160.327,132.079 159.141,131.931 158.251,131.857 157.362,131.783 156.472,131.709 155.582,131.634 153.729,131.412 151.875,131.190 150.022,130.967 148.168,130.745 147.112,130.448 146.055,130.152 144.998,129.855 143.942,129.558 142.515,129.355 141.087,129.151 139.660,128.947 138.233,128.743 137.084,128.446 135.935,128.150 134.785,127.853 133.636,127.557 132.376,127.186 131.115,126.815 129.855,126.444 128.595,126.074 127.427,125.759 126.259,125.444 125.091,125.128 123.924,124.813 123.015,124.535 122.107,124.257 121.199,123.979 120.291,123.701 119.179,123.256 118.066,122.811 116.954,122.367 115.842,121.922 115.119,121.588 114.396,121.255 113.674,120.921 112.951,120.587 112.413,120.365 111.876,120.142 111.338,119.920 110.801,119.698 109.299,118.975 107.798,118.252 106.296,117.529 104.795,116.806 103.664,116.231 102.534,115.657 101.403,115.082 100.272,114.508 99.994,114.285 99.716,114.063 99.438,113.840 99.160,113.618 98.604,113.247 98.048,112.876 97.492,112.506 96.936,112.135 96.398,111.820 95.861,111.505 95.323,111.190 94.786,110.875 94.100,110.541 93.414,110.207 92.728,109.874 92.043,109.540 91.449,109.058 90.856,108.576 90.263,108.094 89.670,107.612 88.817,107.019 87.965,106.426 87.112,105.833 86.260,105.240 85.166,104.591 84.072,103.942 82.979,103.294 81.885,102.645 81.125,102.126 80.365,101.607 79.605,101.088 78.845,100.569 77.937,99.957 77.029,99.346 76.121,98.734 75.212,98.122 74.879,97.844 74.545,97.566 74.211,97.288 73.878,97.010 73.081,96.473 72.284,95.935 71.487,95.398 70.690,94.860 70.282,94.526 69.874,94.193 69.466,93.859 69.059,93.525 68.243,92.728 67.427,91.931 66.612,91.134 65.796,90.337 65.389,89.930 64.981,89.522 64.573,89.114 64.165,88.706 63.517,88.113 62.868,87.520 62.219,86.927 61.570,86.334 60.940,85.741 60.310,85.147 59.680,84.554 59.049,83.961 58.308,83.312 57.567,82.664 56.825,82.015 56.084,81.366 55.695,81.033 55.305,80.699 54.916,80.365 54.527,80.032 53.804,79.401 53.081,78.771 52.358,78.141 51.635,77.511 51.024,76.881 50.412,76.250 49.800,75.620 49.189,74.990 48.855,74.693 48.521,74.397 48.188,74.100 47.854,73.804 47.298,73.211 46.742,72.617 46.186,72.024 45.630,71.431 45.074,70.801 44.518,70.171 43.962,69.541 43.406,68.910 42.849,68.373 42.293,67.835 41.737,67.298 41.181,66.760 40.885,66.445 40.588,66.130 40.292,65.815 39.995,65.500 39.439,64.925 38.883,64.351 38.327,63.776 37.771,63.201 36.714,62.034 35.658,60.866 34.601,59.698 33.545,58.530 32.914,57.715 32.284,56.899 31.654,56.084 31.024,55.268 30.264,54.397 29.504,53.526 28.744,52.655 27.984,51.784 27.372,51.042 26.761,50.301 26.149,49.559 25.537,48.818 24.740,47.743 23.943,46.668 23.146,45.593 22.349,44.518 21.756,43.535 21.163,42.553 20.570,41.570 19.977,40.588 19.458,39.754 18.939,38.920 18.420,38.086 17.901,37.252 17.511,36.418 17.122,35.584 16.733,34.749 16.344,33.915 16.066,33.063 15.788,32.210 15.510,31.357 15.232,30.505 15.176,29.763 15.120,29.022 15.065,28.281 15.009,27.539 14.954,26.631 14.898,25.723 14.842,24.814 14.787,23.906 14.824,22.868 14.861,21.830 14.898,20.792 14.935,19.754 14.972,18.865 15.009,17.975 15.046,17.085 15.083,16.195 15.120,15.417 15.157,14.638 15.195,13.860 15.232,13.081 15.195,12.173 15.157,11.265 15.120,10.357 15.083,9.449 14.991,8.763 14.898,8.077 14.805,7.391 14.713,6.705 14.509,6.390 14.305,6.075 14.101,5.760 13.897,5.445 13.675,5.352 13.452,5.259 13.230,5.167 13.007,5.074 12.470,5.056 11.932,5.037 11.395,5.019 10.857,5.000 10.264,5.093 9.671,5.185 9.078,5.278 8.485,5.371 8.262,5.556 8.040,5.741 7.817,5.927 7.595,6.112 7.354,6.353 7.113,6.594 6.872,6.835 6.631,7.076 6.576,7.539 6.520,8.003 6.464,8.466 6.409,8.930 6.205,9.615 6.001,10.301 5.797,10.987 5.593,11.673 5.482,12.210 5.371,12.748 5.259,13.285 5.148,13.823 5.130,14.268 5.111,14.713 5.093,15.157 5.074,15.602 5.056,16.362 5.037,17.122 5.019,17.882 5.000,18.642 5.538,19.180 6.075,19.717 6.631,20.273 7.187,20.829 7.132,21.941 7.076,23.054 7.020,24.166 6.965,25.278 7.002,26.297 7.039,27.317 7.076,28.336 7.113,29.356 7.095,30.245 7.076,31.135 7.057,32.025 7.039,32.914 6.965,34.027 6.891,35.139 6.816,36.251 6.742,37.363 6.724,38.382 6.705,39.402 6.687,40.421 6.668,41.441 6.724,42.590 6.779,43.739 6.835,44.888 6.891,46.038 6.965,46.890 7.039,47.743 7.113,48.595 7.187,49.448 7.298,50.579 7.410,51.709 7.521,52.840 7.632,53.971 7.780,54.675 7.929,55.379 8.077,56.084 8.225,56.788 8.411,57.344 8.596,57.900 8.781,58.456 8.967,59.012 9.337,59.253 9.708,59.494 10.079,59.735 10.449,59.976 11.154,59.939 11.858,59.902 12.562,59.865 13.267,59.828 14.157,59.476 15.046,59.124 15.936,58.771 16.826,58.419 17.159,58.197 17.493,57.974 17.827,57.752 18.160,57.530 18.624,57.381 19.087,57.233 19.550,57.085 20.014,56.936 20.514,57.011 21.015,57.085 21.515,57.159 22.016,57.233 22.535,57.678 23.054,58.123 23.573,58.568 24.092,59.012 24.370,59.365 24.648,59.717 24.926,60.069 25.204,60.421 25.556,60.847 25.908,61.274 26.260,61.700 26.612,62.126 27.057,62.534 27.502,62.942 27.947,63.350 28.392,63.758 28.874,64.295 29.356,64.833 29.838,65.370 30.319,65.908 30.764,66.297 31.209,66.686 31.654,67.075 32.099,67.465 32.599,68.039 33.100,68.614 33.600,69.188 34.101,69.763 34.564,70.245 35.027,70.727 35.491,71.209 35.954,71.691 36.584,72.265 37.215,72.840 37.845,73.414 38.475,73.989 39.087,74.768 39.698,75.546 40.310,76.325 40.922,77.103 41.552,77.826 42.182,78.549 42.812,79.272 43.443,79.995 44.036,80.514 44.629,81.033 45.222,81.552 45.815,82.071 46.260,82.497 46.705,82.923 47.150,83.350 47.595,83.776 48.039,84.165 48.484,84.554 48.929,84.944 49.374,85.333 49.824,85.724 50.275,86.116 50.725,86.507 51.175,86.899 51.503,87.187 51.830,87.475 52.158,87.764 52.486,88.052 52.905,88.406 53.325,88.760 53.744,89.114 54.163,89.467 54.648,89.861 55.133,90.254 55.618,90.647 56.103,91.040 56.732,91.551 57.361,92.063 57.991,92.574 58.620,93.085 59.406,93.819 60.192,94.553 60.979,95.287 61.765,96.021 62.342,96.545 62.919,97.069 63.495,97.594 64.072,98.118 64.976,98.865 65.881,99.612 66.785,100.359 67.689,101.106 68.253,101.578 68.817,102.050 69.380,102.522 69.944,102.993 70.547,103.452 71.150,103.911 71.752,104.370 72.355,104.828 72.853,105.222 73.351,105.615 73.850,106.008 74.348,106.401 74.977,106.886 75.606,107.371 76.235,107.856 76.864,108.341 77.598,108.865 78.332,109.389 79.066,109.914 79.800,110.438 80.390,110.949 80.979,111.460 81.569,111.971 82.159,112.483 82.618,112.797 83.077,113.112 83.535,113.426 83.994,113.741 84.309,113.780 84.623,113.819 84.938,113.859 85.252,113.898 85.816,114.095 86.379,114.291 86.943,114.488 87.507,114.684 87.952,114.881 88.398,115.078 88.843,115.274 89.289,115.471 89.774,115.864 90.259,116.257 90.744,116.650 91.229,117.044 91.517,117.306 91.805,117.568 92.094,117.830 92.382,118.092 92.605,118.289 92.828,118.485 93.051,118.682 93.273,118.878 93.549,119.259 93.824,119.639 94.099,120.019 94.374,120.399 94.584,120.726 94.794,121.054 95.003,121.382 95.213,121.709 95.633,121.841 96.052,121.972 96.471,122.103 96.891,122.234 97.979,122.575 99.067,122.915 100.154,123.256 101.242,123.597 101.478,123.702 101.714,123.807 101.950,123.911 102.186,124.016 102.487,124.213 102.789,124.409 103.090,124.606 103.392,124.803 103.798,125.183 104.204,125.563 104.611,125.943 105.017,126.323 105.253,126.506 105.489,126.690 105.725,126.873 105.961,127.057 106.118,127.306 106.275,127.555 106.432,127.804 106.590,128.053 106.852,128.459 107.114,128.866 107.376,129.272 107.638,129.678 108.228,129.809 108.818,129.940 109.408,130.071 109.997,130.203 110.220,130.294 110.443,130.386 110.666,130.478 110.889,130.570 111.321,130.871 111.754,131.172 112.186,131.474 112.619,131.775 112.894,131.985 113.169,132.195 113.444,132.404 113.720,132.614 114.231,133.047 114.742,133.479 115.253,133.912 115.764,134.344 116.144,134.724 116.524,135.104 116.905,135.484 117.285,135.865 117.494,136.074 117.704,136.284 117.914,136.494 118.123,136.703 118.517,137.411 118.910,138.119 119.303,138.827 119.696,139.534 119.854,139.914 120.011,140.295 120.168,140.675 120.325,141.055 120.352,141.487 120.378,141.920 120.404,142.352 120.430,142.785 120.378,143.401 120.325,144.017 120.273,144.633 120.220,145.249 120.037,145.773 119.853,146.297 119.670,146.822 119.486,147.346 119.277,147.687 119.067,148.027 118.857,148.368 118.648,148.709 118.438,149.233 118.228,149.758 118.018,150.282 117.809,150.806 117.756,151.107 117.704,151.409 117.651,151.710 117.599,152.012 117.769,152.313 117.940,152.615 118.110,152.916 118.281,153.218 118.779,153.401 119.277,153.585 119.775,153.768 120.273,153.952 120.653,153.978 121.033,154.004 121.413,154.030 121.793,154.056 122.514,154.004 123.235,153.952 123.956,153.899 124.677,153.847 125.253,154.423 125.830,155.000 126.197,154.908 126.564,154.817 126.931,154.725 127.298,154.633 127.508,154.345 127.717,154.056 127.927,153.768 128.137,153.480 128.359,153.139 128.582,152.798 128.805,152.457 129.028,152.117 129.264,151.776 129.500,151.435 129.736,151.094 129.972,150.753 130.168,150.360 130.365,149.967 130.561,149.574 130.758,149.181 130.981,148.905 131.204,148.630 131.426,148.355 131.649,148.080 131.833,147.857 132.016,147.634 132.200,147.411 132.383,147.188 132.737,146.795 133.091,146.402 133.445,146.009 133.799,145.616 134.113,145.262 134.428,144.908 134.742,144.554 135.057,144.200 135.306,143.964 135.555,143.728 135.804,143.492 136.053,143.257 136.341,142.890 136.630,142.523 136.918,142.156 137.206,141.789 137.403,141.631 137.600,141.474 137.796,141.317 137.993,141.159 138.307,140.858 138.622,140.557 138.936,140.255 139.251,139.954 139.762,139.587 140.273,139.220 140.784,138.853 141.296,138.486 141.846,138.328 142.397,138.171 142.947,138.014 143.498,137.857 143.943,137.739 144.389,137.621 144.834,137.503 145.280,137.385 145.726,137.411 146.171,137.437 146.617,137.463 147.063,137.490 147.469,137.542 147.875,137.594 148.281,137.647 148.688,137.699 149.579,137.726 150.470,137.752 151.361,137.778 152.253,137.804 153.092,137.883 153.930,137.961 154.769,138.040 155.608,138.119 156.106,138.145 156.604,138.171 157.102,138.197 157.600,138.223 158.596,138.237 159.592,138.250 160.589,138.263 161.585,138.276 162.528,138.315 163.472,138.354 164.416,138.394 165.359,138.433 166.342,138.512 167.325,138.590 168.308,138.669 169.291,138.748 169.671,138.735 170.051,138.721 170.432,138.708 170.812,138.695 171.270,138.735 171.729,138.774 172.188,138.813 172.647,138.852 173.210,138.865 173.774,138.879 174.337,138.892 174.901,138.905 175.202,138.892 175.504,138.879 175.805,138.865 176.107,138.852 176.657,138.865 177.208,138.879 177.758,138.892 178.309,138.905 178.728,138.865 179.147,138.826 179.567,138.787 179.986,138.748 180.419,138.774 180.851,138.800 181.284,138.826 181.716,138.852 182.241,138.944 182.765,139.036 183.289,139.128 183.813,139.219 184.020,139.215 184.227,139.210 184.434,139.205 183.645,140.198" fill="none" stroke="black" stroke-width="1"/>
</svg>
