<?xml version="1.0" encoding="UTF-8"?>
<svg xmlns="http://www.w3.org/2000/svg" width="354.5" height="160.0" viewBox="0 0 354.5 160.0">
  <polyline points="332.420,134.904 332.827,134.988 333.233,135.073 333.640,135.158 334.047,135.243 334.453,135.327 334.860,135.412 335.267,135.497 335.673,135.582 336.266,135.751 336.860,135.920 337.453,136.090 338.046,136.259 338.639,136.429 339.232,136.598 339.825,136.768 340.418,136.937 340.859,137.090 341.299,137.242 341.740,137.395 342.180,137.547 342.621,137.700 343.062,137.852 343.502,138.005 343.943,138.157 344.400,138.327 344.858,138.496 345.315,138.666 345.773,138.835 346.230,139.005 346.688,139.174 347.145,139.343 347.603,139.513 347.806,139.716 348.010,139.920 348.213,140.123 348.416,140.326 348.620,140.530 348.823,140.733 349.026,140.936 349.230,141.140 349.179,140.547 349.128,139.954 349.077,139.360 349.026,138.767 348.976,138.174 348.925,137.581 348.874,136.988 348.823,136.395 348.840,135.954 348.857,135.514 348.874,135.073 348.891,134.633 348.908,134.192 348.925,133.751 348.942,133.311 348.959,132.870 348.993,132.277 349.027,131.684 349.060,131.091 349.094,130.498 349.128,129.905 349.162,129.312 349.196,128.719 349.230,128.126 349.264,127.583 349.298,127.041 349.331,126.499 349.365,125.957 349.399,125.414 349.433,124.872 349.467,124.330 349.501,123.788 349.484,123.296 349.467,122.805 349.450,122.313 349.433,121.822 349.416,121.330 349.399,120.839 349.382,120.348 349.365,119.856 349.314,119.128 349.264,118.399 349.213,117.670 349.162,116.942 349.111,116.213 349.060,115.484 349.009,114.756 348.959,114.027 348.942,113.553 348.925,113.078 348.908,112.604 348.891,112.129 348.874,111.655 348.857,111.180 348.840,110.706 348.823,110.231 348.789,109.960 348.755,109.689 348.721,109.418 348.687,109.147 348.654,108.876 348.620,108.604 348.586,108.333 348.552,108.062 348.111,108.266 347.671,108.469 347.230,108.672 346.790,108.876 346.349,109.079 345.908,109.282 345.468,109.486 345.027,109.689 344.332,109.808 343.638,109.926 342.943,110.045 342.248,110.163 341.553,110.282 340.859,110.401 340.164,110.519 339.469,110.638 338.944,110.773 338.418,110.909 337.893,111.045 337.368,111.180 336.843,111.316 336.317,111.451 335.792,111.587 335.267,111.722 334.335,111.824 333.403,111.926 332.471,112.027 331.539,112.129 330.607,112.231 329.675,112.332 328.743,112.434 327.811,112.536 327.251,112.587 326.692,112.637 326.133,112.688 325.574,112.739 325.015,112.790 324.455,112.841 323.896,112.892 323.337,112.942 322.507,113.027 321.676,113.112 320.846,113.197 320.016,113.281 319.185,113.366 318.355,113.451 317.525,113.535 316.694,113.620 315.644,113.688 314.593,113.756 313.543,113.824 312.492,113.891 311.441,113.959 310.391,114.027 309.340,114.095 308.289,114.162 307.815,114.196 307.341,114.230 306.866,114.264 306.392,114.298 305.917,114.332 305.443,114.366 304.968,114.400 304.494,114.433 303.782,113.722 303.070,113.010 302.359,112.298 301.647,111.587 300.715,111.604 299.783,111.620 298.851,111.637 297.919,111.654 296.987,111.671 296.055,111.688 295.123,111.705 294.191,111.722 293.293,111.705 292.395,111.688 291.497,111.671 290.598,111.654 289.700,111.637 288.802,111.620 287.904,111.604 287.006,111.587 286.210,111.485 285.413,111.383 284.617,111.282 283.820,111.180 283.024,111.078 282.227,110.977 281.431,110.875 280.635,110.773 279.635,110.688 278.635,110.604 277.635,110.519 276.635,110.434 275.636,110.350 274.636,110.265 273.636,110.180 272.636,110.095 271.874,110.028 271.111,109.960 270.349,109.892 269.586,109.824 268.824,109.756 268.061,109.689 267.298,109.621 266.536,109.553 265.723,109.434 264.909,109.316 264.096,109.197 263.282,109.079 262.469,108.960 261.656,108.841 260.842,108.723 260.029,108.604 259.300,108.469 258.572,108.333 257.843,108.197 257.114,108.062 256.386,107.926 255.657,107.791 254.928,107.655 254.200,107.520 252.980,107.350 251.759,107.181 250.539,107.011 249.319,106.842 248.099,106.672 246.879,106.503 245.659,106.333 244.439,106.164 243.575,105.927 242.711,105.689 241.846,105.452 240.982,105.215 240.118,104.978 239.254,104.741 238.390,104.503 237.525,104.266 236.864,104.164 236.204,104.063 235.543,103.961 234.882,103.859 234.221,103.758 233.560,103.656 232.899,103.554 232.238,103.453 231.577,103.249 230.917,103.046 230.256,102.843 229.595,102.639 228.934,102.436 228.273,102.233 227.612,102.029 226.951,101.826 226.307,101.623 225.664,101.419 225.020,101.216 224.376,101.013 223.732,100.809 223.088,100.606 222.444,100.403 221.800,100.199 221.020,100.013 220.241,99.826 219.461,99.640 218.682,99.454 217.902,99.267 217.123,99.081 216.344,98.894 215.564,98.708 214.785,98.488 214.005,98.267 213.226,98.047 212.446,97.827 211.667,97.607 210.887,97.386 210.108,97.166 209.328,96.946 209.057,96.878 208.786,96.810 208.515,96.742 208.244,96.674 207.972,96.607 207.701,96.539 207.430,96.471 207.159,96.403 206.481,96.217 205.803,96.031 205.126,95.844 204.448,95.658 203.770,95.471 203.092,95.285 202.414,95.099 201.737,94.912 201.194,94.658 200.652,94.404 200.110,94.150 199.568,93.895 199.025,93.641 198.483,93.387 197.941,93.133 197.399,92.879 196.788,92.709 196.178,92.540 195.568,92.370 194.958,92.201 194.348,92.031 193.738,91.862 193.128,91.693 192.518,91.523 192.095,91.404 191.671,91.286 191.247,91.167 190.824,91.049 190.400,90.930 189.976,90.811 189.553,90.693 189.129,90.574 188.502,90.354 187.875,90.134 187.248,89.913 186.621,89.693 185.994,89.473 185.367,89.252 184.740,89.032 184.113,88.812 183.690,88.693 183.266,88.575 182.842,88.456 182.419,88.337 181.995,88.219 181.571,88.100 181.148,87.981 180.724,87.863 180.097,87.676 179.470,87.490 178.843,87.304 178.216,87.117 177.589,86.931 176.962,86.744 176.335,86.558 175.708,86.372 175.115,86.202 174.522,86.033 173.929,85.863 173.336,85.694 172.743,85.524 172.150,85.355 171.557,85.185 170.964,85.016 170.371,84.779 169.777,84.542 169.184,84.304 168.591,84.067 167.998,83.830 167.405,83.593 166.812,83.355 166.219,83.118 165.626,82.881 165.033,82.644 164.440,82.406 163.847,82.169 163.253,81.932 159.814,84.542 159.220,84.305 158.627,84.067 158.373,83.966 158.119,83.864 157.865,83.762 157.611,83.661 157.356,83.559 157.102,83.457 156.848,83.356 156.594,83.254 156.103,83.102 155.611,82.949 155.120,82.797 154.628,82.644 154.137,82.492 153.645,82.339 153.154,82.186 152.663,82.034 152.256,81.915 151.849,81.797 151.443,81.678 151.036,81.560 150.629,81.441 150.222,81.322 149.816,81.204 149.409,81.085 148.782,80.780 148.155,80.475 147.528,80.170 146.901,79.865 146.274,79.560 145.647,79.255 145.020,78.950 144.393,78.645 143.648,78.340 142.902,78.035 142.156,77.730 141.411,77.425 140.665,77.120 139.920,76.815 139.174,76.510 138.428,76.205 138.073,76.052 137.717,75.900 137.361,75.747 137.005,75.595 136.649,75.442 136.293,75.290 135.937,75.137 135.582,74.985 134.853,74.629 134.124,74.273 133.396,73.917 132.667,73.561 131.938,73.205 131.210,72.850 130.481,72.494 129.752,72.138 129.278,71.901 128.803,71.663 128.329,71.426 127.854,71.189 127.380,70.952 126.906,70.714 126.431,70.477 125.957,70.240 125.550,70.003 125.143,69.765 124.737,69.528 124.330,69.291 123.923,69.054 123.516,68.817 123.110,68.579 122.703,68.342 122.195,68.037 121.686,67.732 121.178,67.427 120.670,67.122 120.161,66.817 119.653,66.512 119.145,66.207 118.636,65.902 118.179,65.631 117.721,65.360 117.264,65.089 116.806,64.817 116.349,64.546 115.891,64.275 115.433,64.004 114.976,63.733 114.857,63.665 114.739,63.597 114.620,63.530 114.501,63.462 114.383,63.394 114.264,63.326 114.146,63.258 114.027,63.191 113.620,62.903 113.214,62.615 112.807,62.326 112.400,62.038 111.994,61.750 111.587,61.462 111.180,61.174 110.773,60.886 110.435,60.564 110.096,60.242 109.757,59.920 109.418,59.598 109.079,59.276 108.740,58.954 108.401,58.632 108.062,58.310 107.723,58.124 107.384,57.938 107.045,57.751 106.707,57.565 106.368,57.378 106.029,57.192 105.690,57.006 105.351,56.819 105.063,56.599 104.775,56.379 104.487,56.158 104.199,55.938 103.911,55.718 103.622,55.497 103.334,55.277 103.046,55.057 102.758,54.786 102.470,54.515 102.182,54.243 101.894,53.972 101.606,53.701 101.318,53.430 101.030,53.159 100.742,52.888 100.284,52.549 99.827,52.210 99.369,51.871 98.912,51.532 98.454,51.193 97.997,50.854 97.539,50.515 97.082,50.177 96.472,49.804 95.861,49.431 95.251,49.058 94.641,48.685 94.031,48.313 93.421,47.940 92.811,47.567 92.201,47.194 91.964,47.008 91.727,46.821 91.490,46.635 91.252,46.449 91.015,46.262 90.778,46.076 90.541,45.889 90.303,45.703 90.032,45.347 89.761,44.991 89.490,44.635 89.219,44.280 88.948,43.924 88.677,43.568 88.405,43.212 88.134,42.856 87.948,42.534 87.762,42.212 87.575,41.890 87.389,41.568 87.202,41.246 87.016,40.924 86.830,40.602 86.643,40.280 86.389,39.992 86.135,39.704 85.881,39.416 85.626,39.128 85.372,38.840 85.118,38.552 84.864,38.264 84.610,37.976 84.288,37.417 83.966,36.857 83.644,36.298 83.322,35.739 83.000,35.180 82.678,34.621 82.356,34.061 82.034,33.502 81.865,33.146 81.695,32.791 81.526,32.435 81.356,32.079 81.187,31.723 81.017,31.367 80.848,31.011 80.678,30.655 80.373,30.266 80.068,29.876 79.763,29.486 79.458,29.096 79.153,28.707 78.848,28.317 78.543,27.927 78.238,27.537 77.882,27.165 77.527,26.792 77.171,26.419 76.815,26.046 76.459,25.673 76.103,25.301 75.747,24.928 75.391,24.555 75.171,24.369 74.951,24.182 74.731,23.996 74.510,23.809 74.290,23.623 74.070,23.437 73.849,23.250 73.629,23.064 73.002,22.589 72.375,22.115 71.748,21.640 71.121,21.166 70.494,20.691 69.867,20.217 69.240,19.743 68.613,19.268 68.393,19.099 68.173,18.929 67.952,18.760 67.732,18.590 67.512,18.421 67.291,18.251 67.071,18.082 66.851,17.912 66.529,17.709 66.207,17.506 65.885,17.302 65.563,17.099 65.241,16.896 64.919,16.692 64.597,16.489 64.275,16.286 64.021,16.150 63.767,16.015 63.513,15.879 63.258,15.743 63.004,15.608 62.750,15.472 62.496,15.337 62.242,15.201 61.869,15.032 61.496,14.862 61.123,14.693 60.751,14.523 60.378,14.354 60.005,14.184 59.632,14.015 59.259,13.846 58.836,13.659 58.412,13.473 57.988,13.286 57.565,13.100 57.141,12.914 56.718,12.727 56.294,12.541 55.870,12.354 55.294,12.253 54.718,12.151 54.142,12.049 53.566,11.948 52.990,11.846 52.413,11.744 51.837,11.643 51.261,11.541 23.301,5.000 23.301,5.000 23.301,5.000 23.301,5.000 22.776,5.017 22.250,5.034 21.725,5.051 21.200,5.068 20.675,5.085 20.149,5.102 19.624,5.119 19.099,5.136 18.675,5.186 18.251,5.237 17.828,5.288 17.404,5.339 16.980,5.390 16.557,5.441 16.133,5.491 15.710,5.542 15.320,5.644 14.930,5.746 14.540,5.847 14.151,5.949 13.761,6.051 13.371,6.152 12.981,6.254 12.592,6.356 12.202,6.559 11.812,6.762 11.422,6.966 11.033,7.169 10.643,7.372 10.253,7.576 9.863,7.779 9.474,7.982 9.219,8.169 8.965,8.355 8.711,8.542 8.457,8.728 8.203,8.914 7.949,9.101 7.694,9.287 7.440,9.474 7.220,9.728 7.000,9.982 6.779,10.236 6.559,10.490 6.339,10.745 6.118,10.999 5.898,11.253 5.678,11.507 5.627,11.761 5.576,12.015 5.525,12.270 5.474,12.524 5.424,12.778 5.373,13.032 5.322,13.286 5.271,13.541 5.254,13.846 5.237,14.151 5.220,14.456 5.203,14.761 5.186,15.066 5.169,15.371 5.153,15.676 5.136,15.981 5.119,16.353 5.102,16.726 5.085,17.099 5.068,17.472 5.051,17.845 5.034,18.217 5.017,18.590 5.000,18.963 5.017,19.234 5.034,19.505 5.051,19.776 5.068,20.048 5.085,20.319 5.102,20.590 5.119,20.861 5.136,21.132 5.203,21.369 5.271,21.607 5.339,21.844 5.407,22.081 5.474,22.318 5.542,22.555 5.610,22.793 5.678,23.030 5.847,23.250 6.017,23.471 6.186,23.691 6.356,23.911 6.525,24.131 6.695,24.352 6.864,24.572 7.033,24.792 7.237,24.928 7.440,25.063 7.643,25.199 7.847,25.335 8.050,25.470 8.254,25.606 8.457,25.741 8.660,25.877 8.762,25.894 8.864,25.911 8.965,25.928 9.067,25.945 9.169,25.962 9.270,25.978 9.372,25.995 9.474,26.012 9.694,25.978 9.914,25.945 10.134,25.911 10.355,25.877 10.575,25.843 10.795,25.809 11.016,25.775 11.236,25.741 11.388,25.623 11.541,25.504 11.693,25.385 11.846,25.267 11.998,25.148 12.151,25.030 12.303,24.911 12.456,24.792 12.727,24.487 12.998,24.182 13.269,23.877 13.541,23.572 13.812,23.267 14.083,22.962 14.354,22.657 14.625,22.352 14.964,22.081 15.303,21.810 15.642,21.539 15.981,21.268 16.320,20.996 16.658,20.725 16.997,20.454 17.336,20.183 17.641,20.014 17.946,19.844 18.251,19.675 18.556,19.505 18.861,19.336 19.166,19.166 19.471,18.997 19.776,18.827 19.946,18.760 20.115,18.692 20.285,18.624 20.454,18.556 20.624,18.489 20.793,18.421 20.963,18.353 21.132,18.285 21.471,18.251 21.810,18.217 22.149,18.184 22.488,18.150 22.827,18.116 23.166,18.082 23.504,18.048 23.843,18.014 24.114,18.048 24.386,18.082 24.657,18.116 24.928,18.150 25.199,18.184 25.470,18.217 25.741,18.251 26.012,18.285 26.148,18.319 26.283,18.353 26.419,18.387 26.555,18.421 26.690,18.455 26.826,18.489 26.961,18.522 27.097,18.556 27.419,18.675 27.741,18.794 28.063,18.912 28.385,19.031 28.707,19.149 29.029,19.268 29.351,19.387 29.673,19.505 30.045,19.743 30.418,19.980 30.791,20.217 31.164,20.454 31.537,20.691 31.909,20.929 32.282,21.166 32.655,21.403 32.706,21.437 32.757,21.471 32.807,21.505 32.858,21.539 32.909,21.573 32.960,21.607 33.011,21.640 33.062,21.674 33.299,21.979 33.536,22.284 33.773,22.589 34.011,22.894 34.248,23.199 34.485,23.504 34.722,23.809 34.960,24.114 35.197,24.386 35.434,24.657 35.671,24.928 35.909,25.199 36.146,25.470 36.383,25.741 36.620,26.012 36.857,26.283 36.993,26.470 37.129,26.656 37.264,26.843 37.400,27.029 37.535,27.215 37.671,27.402 37.806,27.588 37.942,27.775 38.094,28.249 38.247,28.724 38.399,29.198 38.552,29.673 38.705,30.147 38.857,30.621 39.010,31.096 39.162,31.570 39.348,31.774 39.535,31.977 39.721,32.180 39.908,32.384 40.094,32.587 40.280,32.791 40.467,32.994 40.653,33.197 40.806,33.434 40.958,33.672 41.111,33.909 41.263,34.146 41.416,34.383 41.568,34.621 41.721,34.858 41.873,35.095 41.839,35.400 41.806,35.705 41.772,36.010 41.738,36.315 41.704,36.620 41.670,36.925 41.636,37.230 41.602,37.535 41.653,37.789 41.704,38.044 41.755,38.298 41.806,38.552 41.856,38.806 41.907,39.060 41.958,39.315 42.009,39.569 42.297,40.196 42.585,40.823 42.873,41.450 43.161,42.077 43.449,42.704 43.737,43.331 44.025,43.958 44.313,44.585 44.483,44.822 44.652,45.059 44.822,45.296 44.991,45.533 45.161,45.771 45.330,46.008 45.500,46.245 45.669,46.482 45.889,46.787 46.110,47.092 46.330,47.397 46.550,47.702 46.771,48.008 46.991,48.313 47.211,48.618 47.431,48.923 47.669,49.278 47.906,49.634 48.143,49.990 48.380,50.346 48.618,50.702 48.855,51.058 49.092,51.414 49.329,51.769 49.617,52.159 49.905,52.549 50.194,52.939 50.482,53.328 50.770,53.718 51.058,54.108 51.346,54.498 51.634,54.887 51.786,55.142 51.939,55.396 52.091,55.650 52.244,55.904 52.396,56.158 52.549,56.412 52.701,56.667 52.854,56.921 53.074,57.192 53.295,57.463 53.515,57.734 53.735,58.005 53.955,58.276 54.176,58.548 54.396,58.819 54.616,59.090 55.091,59.632 55.565,60.174 56.040,60.717 56.514,61.259 56.989,61.801 57.463,62.343 57.938,62.886 58.412,63.428 58.598,63.563 58.785,63.699 58.971,63.835 59.158,63.970 59.344,64.106 59.530,64.241 59.717,64.377 59.903,64.512 60.141,64.733 60.378,64.953 60.615,65.173 60.852,65.394 61.089,65.614 61.327,65.834 61.564,66.054 61.801,66.275 62.208,66.648 62.615,67.020 63.021,67.393 63.428,67.766 63.835,68.139 64.241,68.512 64.648,68.884 65.055,69.257 65.444,69.528 65.834,69.799 66.224,70.070 66.614,70.342 67.003,70.613 67.393,70.884 67.783,71.155 68.173,71.426 68.529,71.833 68.884,72.240 69.240,72.646 69.596,73.053 69.952,73.460 70.308,73.866 70.664,74.273 71.019,74.680 71.375,74.968 71.731,75.256 72.087,75.544 72.443,75.832 72.799,76.120 73.155,76.408 73.510,76.696 73.866,76.984 74.087,77.154 74.307,77.323 74.527,77.493 74.747,77.662 74.968,77.831 75.188,78.001 75.408,78.170 75.629,78.340 76.018,78.577 76.408,78.814 76.798,79.052 77.188,79.289 77.577,79.526 77.967,79.763 78.357,80.001 78.747,80.238 79.018,80.424 79.289,80.611 79.560,80.797 79.831,80.983 80.102,81.170 80.373,81.356 80.645,81.543 80.916,81.729 81.288,82.000 81.661,82.271 82.034,82.542 82.407,82.813 82.780,83.085 83.152,83.356 83.525,83.627 83.898,83.898 84.237,84.050 84.576,84.203 84.915,84.355 85.254,84.508 85.593,84.661 85.931,84.813 86.270,84.966 86.609,85.118 86.897,85.254 87.185,85.389 87.474,85.525 87.762,85.660 88.050,85.796 88.338,85.931 88.626,86.067 88.914,86.203 89.236,86.372 89.558,86.541 89.880,86.711 90.202,86.880 90.524,87.050 90.846,87.219 91.168,87.389 91.490,87.558 91.778,87.711 92.066,87.863 92.354,88.016 92.642,88.168 92.930,88.321 93.218,88.473 93.506,88.626 93.794,88.778 94.150,88.982 94.506,89.185 94.862,89.388 95.218,89.592 95.573,89.795 95.929,89.998 96.285,90.202 96.641,90.405 97.183,90.676 97.726,90.947 98.268,91.218 98.810,91.490 99.352,91.761 99.895,92.032 100.437,92.303 100.979,92.574 101.352,92.760 101.725,92.947 102.097,93.133 102.470,93.320 102.843,93.506 103.216,93.692 103.589,93.879 103.961,94.065 104.436,94.269 104.910,94.472 105.385,94.675 105.859,94.879 106.334,95.082 106.808,95.285 107.283,95.489 107.757,95.692 108.096,95.828 108.435,95.963 108.774,96.099 109.113,96.234 109.452,96.370 109.791,96.505 110.130,96.641 110.468,96.777 111.011,96.997 111.553,97.217 112.095,97.437 112.637,97.658 113.180,97.878 113.722,98.098 114.264,98.319 114.807,98.539 115.196,98.691 115.586,98.844 115.976,98.996 116.365,99.149 116.755,99.301 117.145,99.454 117.535,99.606 117.924,99.759 118.348,99.894 118.772,100.030 119.195,100.166 119.619,100.301 120.043,100.437 120.466,100.572 120.890,100.708 121.314,100.843 121.873,101.047 122.432,101.250 122.991,101.453 123.550,101.657 124.110,101.860 124.669,102.063 125.228,102.267 125.787,102.470 125.923,102.504 126.058,102.538 126.194,102.572 126.329,102.606 126.465,102.640 126.601,102.674 126.736,102.707 126.872,102.741 127.126,102.860 127.380,102.979 127.634,103.097 127.888,103.216 128.143,103.334 128.397,103.453 128.651,103.572 128.905,103.690 129.719,103.911 130.532,104.131 131.345,104.351 132.159,104.571 132.972,104.792 133.785,105.012 134.599,105.232 135.412,105.453 135.632,105.503 135.853,105.554 136.073,105.605 136.293,105.656 136.514,105.707 136.734,105.758 136.954,105.808 137.175,105.859 137.700,106.096 138.225,106.334 138.750,106.571 139.276,106.808 139.801,107.045 140.326,107.283 140.852,107.520 141.377,107.757 141.750,107.859 142.123,107.960 142.495,108.062 142.868,108.164 143.241,108.265 143.614,108.367 143.987,108.469 144.359,108.570 145.003,108.740 145.647,108.909 146.291,109.079 146.935,109.248 147.579,109.418 148.223,109.587 148.867,109.757 149.511,109.926 149.731,109.977 149.951,110.028 150.172,110.079 150.392,110.129 150.612,110.180 150.833,110.231 151.053,110.282 151.273,110.333 151.680,110.553 152.086,110.773 152.493,110.994 152.900,111.214 153.307,111.434 153.713,111.654 154.120,111.875 154.527,112.095 154.916,112.146 155.306,112.197 155.696,112.247 156.086,112.298 156.475,112.349 156.865,112.400 157.255,112.451 157.645,112.502 158.085,112.586 158.526,112.671 158.966,112.756 159.407,112.840 159.848,112.925 160.288,113.010 160.729,113.095 161.169,113.179 161.745,113.400 162.322,113.620 162.898,113.840 163.474,114.061 164.050,114.281 164.626,114.501 165.202,114.721 165.778,114.942 166.050,114.976 166.321,115.009 166.592,115.043 166.863,115.077 167.134,115.111 167.405,115.145 167.676,115.179 167.947,115.213 168.439,115.331 168.930,115.450 169.422,115.568 169.913,115.687 170.405,115.806 170.896,115.924 171.387,116.043 171.879,116.161 172.184,116.212 172.489,116.263 172.794,116.314 173.099,116.365 173.404,116.416 173.709,116.466 174.014,116.517 174.319,116.568 174.759,116.771 175.200,116.975 175.641,117.178 176.081,117.381 176.522,117.585 176.962,117.788 177.403,117.991 177.844,118.195 178.284,118.296 178.725,118.398 179.165,118.500 179.606,118.601 180.046,118.703 180.487,118.805 180.928,118.907 181.368,119.008 181.826,118.923 182.283,118.839 182.741,118.754 183.198,118.669 183.656,118.585 184.113,118.500 184.571,118.415 185.028,118.330 185.333,118.313 185.638,118.296 185.943,118.279 186.249,118.262 186.554,118.246 186.859,118.229 187.164,118.212 187.469,118.195 187.926,118.212 188.384,118.229 188.841,118.246 189.299,118.262 189.756,118.279 190.214,118.296 190.671,118.313 191.129,118.330 191.535,118.398 191.942,118.466 192.349,118.534 192.756,118.602 193.162,118.669 193.569,118.737 193.976,118.805 194.382,118.873 194.704,119.110 195.026,119.347 195.348,119.584 195.670,119.822 195.992,120.059 196.314,120.296 196.636,120.533 196.958,120.771 197.229,121.076 197.500,121.381 197.771,121.686 198.043,121.991 198.314,122.296 198.585,122.601 198.856,122.906 199.127,123.211 199.229,123.363 199.330,123.516 199.432,123.668 199.534,123.821 199.635,123.973 199.737,124.126 199.839,124.278 199.940,124.431 200.161,124.532 200.381,124.634 200.601,124.736 200.822,124.837 201.042,124.939 201.262,125.041 201.482,125.142 201.703,125.244 201.872,125.583 202.042,125.922 202.211,126.261 202.381,126.600 202.550,126.939 202.719,127.278 202.889,127.617 203.058,127.955 203.075,128.159 203.092,128.362 203.109,128.565 203.126,128.769 203.143,128.972 203.160,129.176 203.177,129.379 203.194,129.582 203.177,129.904 203.160,130.226 203.143,130.548 203.126,130.870 203.109,131.192 203.092,131.514 203.075,131.836 203.058,132.158 202.957,132.497 202.855,132.836 202.753,133.175 202.652,133.514 202.550,133.852 202.448,134.191 202.347,134.530 202.245,134.869 202.228,135.123 202.211,135.378 202.194,135.632 202.177,135.886 202.160,136.140 202.143,136.394 202.126,136.648 202.109,136.903 201.940,137.275 201.770,137.648 201.601,138.021 201.431,138.394 201.262,138.767 201.093,139.139 200.923,139.512 200.754,139.885 200.737,139.970 200.720,140.054 200.703,140.139 200.686,140.224 200.669,140.309 200.652,140.393 200.635,140.478 200.618,140.563 200.770,140.919 200.923,141.275 201.075,141.630 201.228,141.986 201.380,142.342 201.533,142.698 201.685,143.054 201.838,143.410 201.923,143.562 202.007,143.715 202.092,143.867 202.177,144.020 202.262,144.172 202.346,144.325 202.431,144.477 202.516,144.630 202.855,145.070 203.194,145.511 203.533,145.951 203.871,146.392 204.210,146.833 204.549,147.273 204.888,147.714 205.227,148.154 205.447,148.358 205.668,148.561 205.888,148.764 206.108,148.968 206.329,149.171 206.549,149.374 206.769,149.578 206.989,149.781 207.532,150.069 208.074,150.357 208.616,150.645 209.158,150.933 209.701,151.222 210.243,151.510 210.785,151.798 211.327,152.086 211.632,152.120 211.937,152.153 212.242,152.187 212.547,152.221 212.852,152.255 213.158,152.289 213.463,152.323 213.768,152.357 214.276,152.407 214.784,152.458 215.293,152.509 215.801,152.560 216.309,152.611 216.818,152.662 217.326,152.712 217.834,152.763 218.529,152.831 219.224,152.899 219.919,152.967 220.614,153.034 221.308,153.102 222.003,153.170 222.698,153.238 223.393,153.305 223.816,153.729 224.240,154.153 224.663,154.576 225.087,155.000 225.477,154.627 225.867,154.254 226.256,153.882 226.646,153.509 227.036,153.136 227.426,152.763 227.815,152.390 228.205,152.018 228.375,151.611 228.544,151.204 228.713,150.798 228.883,150.391 229.052,149.984 229.222,149.577 229.391,149.171 229.561,148.764 229.815,148.357 230.069,147.951 230.323,147.544 230.577,147.137 230.832,146.731 231.086,146.324 231.340,145.917 231.594,145.511 231.764,145.290 231.933,145.070 232.103,144.850 232.272,144.629 232.441,144.409 232.611,144.189 232.780,143.969 232.950,143.748 233.238,143.358 233.526,142.969 233.814,142.579 234.102,142.189 234.390,141.799 234.678,141.410 234.966,141.020 235.254,140.630 235.509,140.376 235.763,140.122 236.017,139.868 236.271,139.614 236.525,139.359 236.779,139.105 237.034,138.851 237.288,138.597 237.728,138.139 238.169,137.682 238.610,137.224 239.050,136.767 239.491,136.309 239.931,135.852 240.372,135.394 240.812,134.937 240.999,134.784 241.185,134.632 241.372,134.479 241.558,134.327 241.744,134.174 241.931,134.022 242.117,133.869 242.304,133.717 242.541,133.513 242.778,133.310 243.015,133.106 243.253,132.903 243.490,132.700 243.727,132.496 243.964,132.293 244.202,132.090 244.591,131.903 244.981,131.717 245.371,131.531 245.761,131.344 246.150,131.158 246.540,130.971 246.930,130.785 247.320,130.599 247.743,130.531 248.167,130.463 248.590,130.395 249.014,130.327 249.438,130.260 249.861,130.192 250.285,130.124 250.709,130.056 251.336,129.972 251.963,129.887 252.590,129.802 253.217,129.717 253.844,129.633 254.471,129.548 255.097,129.463 255.724,129.378 256.301,129.345 256.877,129.311 257.453,129.277 258.029,129.243 258.605,129.209 259.181,129.175 259.757,129.141 260.334,129.108 261.011,129.091 261.689,129.074 262.367,129.057 263.045,129.040 263.723,129.023 264.401,129.006 265.078,128.989 265.756,128.972 266.417,128.938 267.078,128.904 267.739,128.870 268.400,128.836 269.061,128.803 269.721,128.769 270.382,128.735 271.043,128.701 271.399,129.057 271.755,129.413 272.111,129.769 272.467,130.124 273.449,130.192 274.432,130.260 275.415,130.328 276.398,130.396 277.381,130.463 278.364,130.531 279.346,130.599 280.329,130.667 280.567,130.904 280.804,131.141 281.041,131.378 281.278,131.616 281.685,132.022 282.092,132.429 282.498,132.836 282.905,133.242 283.752,133.225 284.600,133.209 285.447,133.192 286.294,133.175 287.141,133.158 287.989,133.141 288.836,133.124 289.683,133.107 289.954,133.378 290.225,133.649 290.497,133.920 290.768,134.191 291.022,134.157 291.276,134.124 291.530,134.090 291.784,134.056 292.039,134.022 292.293,133.988 292.547,133.954 292.801,133.920 293.309,133.954 293.818,133.988 294.326,134.022 294.835,134.056 295.343,134.090 295.851,134.124 296.360,134.157 296.868,134.191 297.156,134.225 297.444,134.259 297.732,134.293 298.020,134.327 298.308,134.360 298.596,134.394 298.885,134.428 299.173,134.462 299.427,134.547 299.681,134.632 299.935,134.716 300.189,134.801 300.444,134.886 300.698,134.970 300.952,135.055 332.420,134.904" fill="none" stroke="black" stroke-width="1"/>
</svg>
