<?xml version="1.0" encoding="UTF-8"?>
<svg xmlns="http://www.w3.org/2000/svg" width="162.8" height="160.0" viewBox="0 0 162.8 160.0">
  <polyline points="30.884,21.653 22.729,21.535 22.611,21.418 22.494,21.300 22.376,21.183 22.381,21.124 22.387,21.065 22.392,21.006 22.397,20.948 22.402,20.889 22.407,20.830 22.412,20.771 22.417,20.713 22.420,20.641 22.422,20.569 22.425,20.498 22.427,20.426 22.430,20.355 22.433,20.283 22.435,20.212 22.438,20.140 39.794,37.432 57.022,54.596 74.122,71.633 91.094,88.541 107.944,105.332 124.676,122.006 141.291,138.562 157.788,155.000 157.786,154.926 157.783,154.852 157.781,154.778 157.778,154.704 157.776,154.629 157.773,154.555 157.770,154.481 157.768,154.407 157.773,154.351 157.778,154.295 157.783,154.238 157.788,154.182 157.793,154.126 157.798,154.070 157.804,154.013 157.809,153.957 157.804,153.898 157.798,153.840 157.793,153.781 157.788,153.722 157.783,153.663 157.778,153.605 157.773,153.546 157.768,153.487 157.765,153.410 157.763,153.334 157.760,153.257 157.758,153.180 157.755,153.104 157.752,153.027 157.750,152.950 157.747,152.874 157.745,152.840 157.742,152.807 157.740,152.774 157.737,152.741 157.734,152.708 157.732,152.674 157.729,152.641 157.727,152.608 157.732,152.518 157.737,152.429 157.742,152.340 157.747,152.250 157.752,152.161 157.757,152.071 157.763,151.982 157.768,151.892 157.745,151.869 157.722,151.846 157.699,151.823 157.676,151.800 157.591,151.810 157.507,151.821 157.423,151.831 157.338,151.841 157.254,151.851 157.170,151.862 157.085,151.872 157.001,151.882 156.942,151.891 156.883,151.900 156.825,151.909 156.766,151.918 156.707,151.927 156.648,151.936 156.589,151.945 156.531,151.954 156.471,151.970 156.411,151.987 156.351,152.003 156.290,152.020 156.230,152.037 156.170,152.053 156.110,152.070 156.050,152.086 155.956,152.097 155.861,152.107 155.767,152.117 155.672,152.127 155.577,152.138 155.483,152.148 155.388,152.158 155.294,152.168 155.225,152.163 155.156,152.158 155.087,152.153 155.018,152.148 154.949,152.143 154.880,152.138 154.811,152.132 154.742,152.127 154.664,152.049 154.586,151.971 154.508,151.894 154.430,151.816 154.344,151.813 154.259,151.810 154.173,151.808 154.087,151.805 154.002,151.803 153.916,151.800 153.831,151.798 153.745,151.795 153.585,151.785 153.425,151.775 153.266,151.764 153.106,151.754 152.946,151.744 152.787,151.734 152.627,151.724 152.467,151.713 152.401,151.717 152.334,151.721 152.268,151.725 152.201,151.729 152.135,151.733 152.068,151.736 152.002,151.740 151.936,151.744 151.860,151.743 151.785,151.741 151.709,151.740 151.634,151.739 151.559,151.738 151.483,151.736 151.408,151.735 151.332,151.734 151.252,151.730 151.171,151.726 151.091,151.722 151.010,151.718 150.930,151.715 150.849,151.711 150.769,151.707 150.688,151.703 150.601,151.695 150.515,151.688 150.428,151.680 150.341,151.672 150.254,151.665 150.167,151.657 150.080,151.649 149.993,151.642 149.901,151.635 149.809,151.629 149.717,151.623 149.625,151.616 149.533,151.610 149.441,151.603 149.349,151.597 149.257,151.591 149.180,151.570 149.104,151.550 149.027,151.529 148.950,151.509 148.874,151.488 148.797,151.468 148.720,151.448 148.644,151.427 148.593,151.416 148.542,151.404 148.490,151.393 148.439,151.381 148.388,151.370 148.337,151.358 148.286,151.347 148.235,151.335 148.180,151.322 148.125,151.310 148.070,151.297 148.015,151.284 147.960,151.271 147.905,151.258 147.850,151.246 147.795,151.233 20.650,15.583 20.567,15.555 20.484,15.527 20.401,15.499 20.318,15.471 20.235,15.443 20.152,15.415 20.068,15.386 20.008,15.365 19.948,15.343 19.888,15.321 19.828,15.300 19.768,15.278 19.708,15.256 19.648,15.234 19.588,15.213 19.506,15.183 19.424,15.154 19.343,15.124 19.261,15.095 19.179,15.066 19.097,15.036 19.016,15.007 18.934,14.978 18.838,14.925 18.742,14.873 18.646,14.820 18.550,14.768 18.455,14.716 18.359,14.663 18.263,14.611 18.167,14.558 18.158,14.552 18.149,14.546 18.140,14.539 18.131,14.533 18.122,14.526 18.113,14.520 18.104,14.514 18.095,14.507 18.034,14.475 17.973,14.443 17.911,14.411 17.850,14.379 17.789,14.348 17.727,14.316 17.666,14.284 17.605,14.252 17.542,14.220 17.480,14.188 17.417,14.156 17.354,14.124 17.292,14.092 17.229,14.060 17.166,14.028 17.104,13.996 17.035,13.958 16.966,13.919 16.897,13.881 16.828,13.843 16.759,13.804 16.690,13.766 16.621,13.728 16.552,13.689 16.497,13.655 16.442,13.620 16.387,13.586 16.332,13.551 16.277,13.517 16.222,13.482 16.167,13.448 16.112,13.413 16.053,13.367 15.995,13.321 15.936,13.275 15.877,13.229 15.818,13.183 15.760,13.137 15.701,13.091 15.642,13.045 15.602,13.004 15.563,12.964 15.523,12.923 15.484,12.882 15.444,12.841 15.404,12.800 15.365,12.759 15.325,12.718 15.261,12.657 15.197,12.596 15.133,12.534 15.070,12.473 15.006,12.412 14.942,12.350 14.878,12.289 14.814,12.228 14.779,12.187 14.745,12.146 14.710,12.105 14.676,12.064 14.641,12.023 14.607,11.982 14.572,11.941 14.538,11.900 14.492,11.837 14.446,11.773 14.400,11.709 14.354,11.645 14.308,11.581 14.262,11.517 14.216,11.453 14.170,11.389 14.124,11.329 14.078,11.269 14.032,11.209 13.986,11.149 13.940,11.089 13.894,11.029 13.848,10.969 13.802,10.909 13.790,10.885 13.779,10.860 13.767,10.836 13.756,10.812 13.744,10.787 13.733,10.763 13.721,10.739 13.710,10.715 13.678,10.656 13.646,10.597 13.614,10.538 13.582,10.479 13.550,10.421 13.518,10.362 13.486,10.303 13.454,10.244 13.429,10.175 13.403,10.106 13.378,10.037 13.352,9.968 13.327,9.899 13.301,9.830 13.275,9.761 13.250,9.692 13.227,9.637 13.204,9.582 13.181,9.527 13.158,9.472 13.135,9.418 13.112,9.363 13.089,9.308 13.066,9.253 13.051,9.209 13.035,9.166 13.020,9.122 13.005,9.079 12.989,9.035 12.974,8.992 12.958,8.949 12.943,8.905 12.928,8.855 12.912,8.805 12.897,8.756 12.882,8.706 12.866,8.656 12.851,8.606 12.836,8.556 12.820,8.506 12.791,8.420 12.762,8.333 12.732,8.246 12.703,8.159 12.674,8.072 12.644,7.985 12.615,7.898 12.585,7.811 12.565,7.776 12.544,7.740 12.524,7.704 12.504,7.668 12.483,7.632 12.463,7.597 12.442,7.561 12.422,7.525 12.399,7.462 12.376,7.400 12.353,7.337 12.330,7.275 12.307,7.212 12.284,7.149 12.261,7.087 12.238,7.024 12.219,6.978 12.199,6.932 12.180,6.886 12.161,6.840 12.142,6.794 12.123,6.748 12.104,6.702 12.084,6.656 12.069,6.631 12.054,6.605 12.038,6.579 12.023,6.554 12.008,6.528 11.992,6.503 11.977,6.477 11.962,6.452 11.935,6.402 11.908,6.352 11.881,6.302 11.854,6.252 11.828,6.202 11.801,6.153 11.774,6.103 11.747,6.053 11.710,6.004 11.673,5.956 11.636,5.907 11.599,5.859 11.562,5.810 11.525,5.762 11.488,5.713 11.451,5.664 11.411,5.627 11.371,5.590 11.332,5.553 11.292,5.516 11.253,5.479 11.213,5.442 11.173,5.405 11.134,5.368 11.089,5.337 11.044,5.307 11.000,5.276 10.955,5.245 10.910,5.215 10.865,5.184 10.821,5.153 10.776,5.123 10.718,5.110 10.661,5.097 10.603,5.084 10.546,5.072 10.488,5.059 10.431,5.046 10.373,5.033 10.316,5.020 10.234,5.018 10.152,5.015 10.071,5.013 9.989,5.010 9.907,5.008 9.825,5.005 9.743,5.003 9.662,5.000 9.582,5.015 9.503,5.031 9.424,5.046 9.345,5.061 9.265,5.077 9.186,5.092 9.107,5.107 9.028,5.123 8.929,5.137 8.831,5.151 8.733,5.165 8.634,5.179 8.536,5.193 8.437,5.207 8.339,5.221 8.241,5.235 8.172,5.262 8.103,5.289 8.034,5.316 7.965,5.342 7.896,5.369 7.827,5.396 7.758,5.423 7.689,5.450 7.620,5.468 7.551,5.486 7.482,5.503 7.413,5.521 7.344,5.539 7.275,5.557 7.206,5.575 7.137,5.593 7.087,5.612 7.037,5.631 6.987,5.650 6.937,5.670 6.887,5.689 6.838,5.708 6.788,5.727 6.738,5.746 6.674,5.773 6.610,5.800 6.546,5.827 6.482,5.854 6.418,5.880 6.355,5.907 6.291,5.934 6.227,5.961 6.182,5.988 6.137,6.015 6.093,6.041 6.048,6.068 6.003,6.095 5.958,6.122 5.914,6.149 5.869,6.176 5.813,6.216 5.756,6.257 5.700,6.298 5.644,6.339 5.588,6.380 5.532,6.421 5.475,6.462 5.419,6.503 5.401,6.532 5.383,6.562 5.365,6.591 5.348,6.620 5.330,6.650 5.312,6.679 5.294,6.708 5.276,6.738 5.252,6.779 5.227,6.820 5.203,6.861 5.179,6.901 5.155,6.942 5.130,6.983 5.106,7.024 5.082,7.065 5.072,7.120 5.061,7.175 5.051,7.230 5.041,7.285 5.031,7.340 5.020,7.395 5.010,7.450 5.000,7.505 5.010,7.565 5.020,7.625 5.031,7.685 5.041,7.745 5.051,7.805 5.061,7.865 5.072,7.925 5.082,7.985 5.114,8.018 5.146,8.052 5.178,8.085 5.210,8.118 5.242,8.151 5.273,8.184 5.305,8.218 5.337,8.251 5.362,8.267 5.386,8.284 5.410,8.301 5.434,8.317 5.459,8.334 5.483,8.351 5.507,8.367 5.532,8.384 5.575,8.404 5.618,8.425 5.662,8.445 5.705,8.466 5.749,8.486 5.792,8.506 5.836,8.527 5.879,8.547 6.022,8.561 6.165,8.575 6.309,8.589 6.452,8.604 6.595,8.618 6.738,8.632 6.881,8.646 7.024,8.660 7.065,8.665 7.106,8.670 7.147,8.675 7.188,8.680 7.229,8.685 7.269,8.690 7.310,8.696 7.351,8.701 7.407,8.717 7.464,8.734 7.520,8.750 7.576,8.767 7.632,8.784 7.689,8.800 7.745,8.817 7.801,8.834 7.889,8.848 7.977,8.862 8.066,8.876 8.154,8.890 8.242,8.904 8.330,8.918 8.418,8.932 8.506,8.946 8.540,8.957 8.573,8.969 8.606,8.980 8.639,8.992 8.673,9.003 8.706,9.015 8.739,9.026 8.772,9.038 8.811,9.066 8.849,9.094 8.887,9.122 8.926,9.150 8.964,9.179 9.002,9.207 9.041,9.235 9.079,9.263 9.113,9.291 9.148,9.319 9.182,9.347 9.217,9.375 9.251,9.403 9.286,9.432 9.320,9.460 9.355,9.488 9.406,9.530 9.457,9.572 9.508,9.614 9.559,9.656 9.611,9.699 9.662,9.741 9.713,9.783 9.764,9.825 9.812,9.885 9.861,9.945 9.910,10.005 9.958,10.065 10.007,10.125 10.055,10.185 10.104,10.246 10.152,10.306 10.183,10.359 10.214,10.413 10.244,10.467 10.275,10.520 10.306,10.574 10.336,10.628 10.367,10.681 10.398,10.735 10.425,10.773 10.451,10.812 10.478,10.850 10.505,10.888 10.532,10.927 10.559,10.965 10.586,11.003 10.612,11.042 10.647,11.094 10.681,11.146 10.716,11.199 10.750,11.251 10.785,11.304 10.819,11.356 10.854,11.408 10.888,11.461 10.915,11.512 10.942,11.563 10.969,11.614 10.996,11.665 11.023,11.716 11.049,11.767 11.076,11.819 11.103,11.870 11.140,11.932 11.177,11.995 11.214,12.058 11.251,12.120 11.288,12.183 11.325,12.245 11.362,12.308 11.400,12.371 11.431,12.414 11.463,12.458 11.495,12.501 11.527,12.544 11.559,12.588 11.591,12.631 11.623,12.675 11.655,12.718 11.688,12.769 11.722,12.820 11.755,12.872 11.788,12.923 11.821,12.974 11.854,13.025 11.888,13.076 11.921,13.127 11.944,13.160 11.967,13.194 11.990,13.227 12.013,13.260 12.036,13.293 12.059,13.326 12.082,13.360 12.105,13.393 12.136,13.431 12.166,13.470 12.197,13.508 12.228,13.546 12.258,13.585 12.289,13.623 12.320,13.661 12.350,13.700 12.381,13.742 12.412,13.784 12.442,13.826 12.473,13.868 12.504,13.910 12.534,13.953 12.565,13.995 12.596,14.037 12.658,14.101 12.721,14.165 12.783,14.229 12.846,14.293 12.909,14.356 12.971,14.420 13.034,14.484 13.097,14.548 13.117,14.574 13.137,14.599 13.158,14.625 13.178,14.650 13.199,14.676 13.219,14.701 13.240,14.727 13.260,14.753 13.295,14.796 13.329,14.839 13.364,14.883 13.398,14.926 13.433,14.970 13.467,15.013 13.502,15.057 13.536,15.100 13.578,15.146 13.620,15.192 13.663,15.238 13.705,15.284 13.747,15.330 13.789,15.376 13.831,15.422 13.873,15.468 13.921,15.514 13.968,15.560 14.015,15.606 14.063,15.652 14.110,15.698 14.157,15.744 14.204,15.790 14.252,15.836 14.285,15.866 14.318,15.895 14.351,15.924 14.385,15.954 14.418,15.983 14.451,16.013 14.484,16.042 14.517,16.071 14.549,16.099 14.581,16.128 14.613,16.156 14.645,16.184 14.677,16.212 14.709,16.240 14.741,16.268 14.773,16.296 14.818,16.338 14.863,16.381 14.907,16.423 14.952,16.465 14.997,16.507 15.041,16.549 15.086,16.591 15.131,16.634 15.181,16.674 15.231,16.715 15.280,16.756 15.330,16.797 15.380,16.838 15.430,16.879 15.480,16.920 15.530,16.961 15.568,16.990 15.606,17.019 15.645,17.049 15.683,17.078 15.721,17.108 15.760,17.137 15.798,17.166 15.836,17.196 15.887,17.232 15.938,17.267 15.990,17.303 16.041,17.339 16.092,17.375 16.143,17.411 16.194,17.446 16.245,17.482 16.292,17.518 16.340,17.554 16.387,17.589 16.434,17.625 16.482,17.661 16.529,17.697 16.576,17.733 16.623,17.768 16.673,17.805 16.723,17.842 16.773,17.879 16.823,17.917 16.873,17.954 16.922,17.991 16.972,18.028 17.022,18.065 17.073,18.093 17.124,18.121 17.175,18.149 17.227,18.177 17.278,18.205 17.329,18.233 17.380,18.262 17.431,18.290 17.455,18.306 17.480,18.323 17.504,18.340 17.528,18.356 17.552,18.373 17.577,18.389 17.601,18.406 17.625,18.423 17.688,18.452 17.750,18.481 17.813,18.511 17.876,18.540 17.938,18.570 18.001,18.599 18.064,18.628 18.126,18.658 18.179,18.685 18.231,18.711 18.283,18.738 18.336,18.765 18.388,18.792 18.441,18.819 18.493,18.846 18.545,18.872 18.584,18.888 18.622,18.903 18.660,18.918 18.699,18.934 18.737,18.949 18.775,18.964 18.814,18.980 18.852,18.995 18.888,19.015 18.924,19.036 18.959,19.056 18.995,19.077 19.031,19.097 19.067,19.118 19.102,19.138 19.138,19.159 19.210,19.193 19.281,19.228 19.353,19.262 19.424,19.297 19.496,19.331 19.568,19.366 19.639,19.400 19.711,19.435 19.749,19.456 19.787,19.478 19.826,19.500 19.864,19.522 19.902,19.543 19.941,19.565 19.979,19.587 20.017,19.608 20.054,19.622 20.091,19.637 20.129,19.651 20.166,19.665 20.203,19.679 20.240,19.693 20.277,19.707 20.314,19.721 20.356,19.731 20.398,19.741 20.440,19.752 20.483,19.762 20.525,19.772 20.567,19.782 20.609,19.792 20.651,19.803 20.733,19.837 20.815,19.872 20.897,19.906 20.978,19.941 21.060,19.975 21.142,20.010 21.224,20.044 21.305,20.079 21.335,20.088 21.364,20.097 21.394,20.105 21.423,20.114 21.452,20.123 21.482,20.132 21.511,20.141 21.541,20.150 21.603,20.163 21.666,20.176 21.728,20.189 21.791,20.201 21.854,20.214 21.916,20.227 21.979,20.240 22.042,20.252 22.090,20.270 22.139,20.288 22.187,20.306 22.236,20.324 22.284,20.342 22.333,20.360 22.381,20.378 22.430,20.396 22.503,20.410 22.576,20.424 22.648,20.438 22.721,20.452 22.794,20.466 22.867,20.480 22.940,20.494 23.013,20.508 23.050,20.517 23.087,20.526 23.124,20.535 23.161,20.544 23.198,20.553 23.235,20.562 23.272,20.571 23.309,20.580 23.365,20.596 23.422,20.613 23.478,20.629 23.534,20.646 23.590,20.663 23.646,20.679 23.703,20.696 23.759,20.712 23.836,20.733 23.912,20.753 23.989,20.774 24.066,20.794 24.142,20.815 24.219,20.835 24.296,20.856 24.372,20.876 24.440,20.899 24.508,20.922 24.575,20.945 24.643,20.968 24.711,20.991 24.779,21.014 24.846,21.037 24.914,21.060 24.988,21.074 25.062,21.088 25.136,21.102 25.211,21.116 25.285,21.130 25.359,21.144 25.433,21.158 25.507,21.172 25.558,21.176 25.609,21.180 25.660,21.184 25.712,21.188 25.763,21.192 25.814,21.195 25.865,21.199 25.916,21.203 25.995,21.217 26.074,21.231 26.154,21.245 26.233,21.259 26.312,21.273 26.391,21.287 26.471,21.302 26.550,21.316 26.620,21.325 26.690,21.333 26.761,21.342 26.831,21.351 26.901,21.360 26.971,21.369 27.042,21.378 27.112,21.387 27.181,21.397 27.250,21.408 27.319,21.418 27.388,21.428 27.457,21.438 27.526,21.448 27.595,21.459 27.664,21.469 27.734,21.470 27.805,21.471 27.875,21.473 27.945,21.474 28.015,21.475 28.086,21.477 28.156,21.478 28.226,21.479 28.297,21.484 28.367,21.489 28.437,21.494 28.507,21.500 28.578,21.505 28.648,21.510 28.718,21.515 28.789,21.520 28.884,21.526 28.980,21.533 29.076,21.539 29.172,21.546 29.268,21.552 29.364,21.558 29.459,21.565 29.555,21.571 29.613,21.575 29.670,21.579 29.728,21.583 29.785,21.586 29.843,21.590 29.900,21.594 29.958,21.598 30.015,21.602 30.077,21.604 30.138,21.607 30.199,21.609 30.261,21.612 30.322,21.615 30.383,21.617 30.445,21.620 30.506,21.622 30.553,21.626 30.601,21.630 30.648,21.634 30.695,21.638 30.742,21.641 30.790,21.645 30.837,21.649 30.884,21.653" fill="none" stroke="black" stroke-width="1"/>
</svg>
