<?xml version="1.0" encoding="UTF-8"?>
<svg xmlns="http://www.w3.org/2000/svg" width="86.5" height="160.0" viewBox="0 0 86.5 160.0">
  <polyline points="78.527,146.692 78.796,146.882 79.066,147.073 79.335,147.263 79.604,147.454 79.979,147.651 80.354,147.848 80.728,148.045 81.103,148.243 81.201,148.321 81.300,148.400 81.399,148.479 81.497,148.558 81.490,148.124 81.484,147.690 81.477,147.257 81.470,146.823 81.444,146.547 81.417,146.271 81.391,145.995 81.365,145.719 81.378,145.384 81.391,145.049 81.404,144.713 81.417,144.378 80.977,143.938 80.537,143.498 80.556,143.162 80.576,142.827 80.596,142.492 80.616,142.157 80.570,141.572 80.524,140.987 80.478,140.402 80.432,139.817 80.438,139.475 80.445,139.134 80.452,138.792 80.459,138.450 80.466,138.161 80.473,137.872 80.480,137.583 80.486,137.294 80.394,137.110 80.302,136.925 80.210,136.741 80.118,136.557 79.790,136.597 79.461,136.636 79.133,136.676 78.804,136.715 78.410,136.722 78.015,136.729 77.621,136.736 77.227,136.743 77.010,136.526 76.793,136.309 76.550,136.263 76.307,136.217 76.063,136.171 75.820,136.125 75.387,135.947 74.953,135.770 74.519,135.592 74.085,135.415 73.684,135.139 73.283,134.863 72.883,134.587 72.482,134.311 72.068,134.186 71.654,134.061 71.240,133.936 70.826,133.811 70.359,133.857 69.892,133.904 69.426,133.950 68.959,133.996 68.519,133.936 68.078,133.877 67.638,133.818 67.198,133.759 66.541,133.555 65.883,133.352 65.226,133.148 64.569,132.944 64.313,132.846 64.056,132.747 63.800,132.648 63.544,132.550 62.814,132.425 62.085,132.300 61.355,132.175 60.626,132.050 59.949,131.873 59.272,131.695 58.595,131.518 57.918,131.341 57.471,131.163 57.024,130.986 56.577,130.808 56.130,130.631 55.565,130.381 55.000,130.131 54.435,129.882 53.870,129.632 53.436,129.435 53.002,129.237 52.568,129.040 52.135,128.843 51.609,128.626 51.083,128.409 50.557,128.193 50.032,127.976 48.776,127.384 47.521,126.793 46.266,126.201 45.011,125.610 44.643,125.367 44.275,125.123 43.907,124.880 43.538,124.637 43.072,124.361 42.605,124.085 42.139,123.809 41.672,123.533 40.844,123.080 40.016,122.626 39.188,122.173 38.360,121.719 37.926,121.489 37.492,121.259 37.058,121.029 36.625,120.799 36.217,120.556 35.810,120.313 35.402,120.070 34.995,119.826 34.364,119.347 33.733,118.867 33.102,118.387 32.471,117.907 32.175,117.690 31.880,117.474 31.584,117.257 31.288,117.040 30.887,116.738 30.486,116.435 30.086,116.133 29.685,115.831 29.350,115.515 29.014,115.200 28.679,114.884 28.344,114.569 27.818,114.076 27.292,113.583 26.767,113.090 26.241,112.597 25.886,112.275 25.531,111.953 25.176,111.631 24.821,111.309 24.217,110.757 23.612,110.205 23.008,109.653 22.403,109.101 22.120,108.772 21.838,108.444 21.555,108.115 21.272,107.786 20.957,107.386 20.642,106.985 20.326,106.584 20.011,106.183 19.695,105.723 19.380,105.263 19.064,104.803 18.749,104.343 18.381,103.830 18.013,103.317 17.645,102.805 17.277,102.292 16.797,101.405 16.317,100.518 15.837,99.631 15.358,98.743 15.088,98.112 14.819,97.481 14.549,96.851 14.280,96.220 14.089,95.622 13.899,95.024 13.708,94.426 13.518,93.827 13.393,93.492 13.268,93.157 13.143,92.822 13.018,92.487 12.926,92.027 12.834,91.567 12.742,91.107 12.650,90.647 12.611,90.285 12.571,89.924 12.532,89.562 12.492,89.201 12.420,88.662 12.348,88.123 12.275,87.584 12.203,87.045 12.170,86.631 12.137,86.217 12.104,85.803 12.072,85.389 12.058,84.935 12.045,84.482 12.032,84.029 12.019,83.575 12.012,82.977 12.006,82.379 11.999,81.781 11.993,81.183 11.966,80.407 11.940,79.632 11.914,78.856 11.888,78.081 11.907,77.404 11.927,76.727 11.947,76.050 11.966,75.373 11.999,75.045 12.032,74.716 12.065,74.387 12.098,74.059 12.111,73.480 12.124,72.902 12.137,72.324 12.150,71.745 12.229,71.200 12.308,70.654 12.387,70.109 12.466,69.564 12.735,68.926 13.005,68.289 13.274,67.651 13.544,67.014 13.695,66.586 13.846,66.159 13.997,65.732 14.148,65.305 14.300,64.884 14.451,64.464 14.602,64.043 14.753,63.622 14.990,63.143 15.226,62.663 15.463,62.183 15.699,61.703 15.995,61.125 16.291,60.547 16.587,59.968 16.882,59.390 17.178,58.858 17.474,58.325 17.770,57.793 18.065,57.261 18.262,56.919 18.460,56.577 18.657,56.235 18.854,55.894 18.933,55.743 19.012,55.591 19.091,55.440 19.169,55.289 19.465,54.862 19.761,54.435 20.057,54.008 20.352,53.580 20.747,53.127 21.141,52.673 21.535,52.220 21.930,51.767 22.291,51.372 22.653,50.978 23.014,50.584 23.375,50.189 23.704,49.795 24.033,49.401 24.361,49.006 24.690,48.612 25.045,48.119 25.400,47.626 25.755,47.133 26.109,46.640 26.629,46.075 27.148,45.510 27.667,44.945 28.186,44.380 28.449,44.104 28.712,43.828 28.975,43.551 29.238,43.275 29.731,42.783 30.224,42.290 30.716,41.797 31.209,41.304 31.807,40.699 32.405,40.095 33.003,39.490 33.602,38.885 34.147,38.346 34.692,37.808 35.238,37.269 35.783,36.730 36.289,36.059 36.796,35.389 37.302,34.719 37.808,34.048 38.090,33.608 38.373,33.168 38.655,32.727 38.938,32.287 39.345,31.571 39.753,30.854 40.160,30.138 40.568,29.422 40.837,28.962 41.107,28.502 41.376,28.042 41.646,27.581 41.994,26.878 42.342,26.175 42.691,25.472 43.039,24.769 43.322,24.098 43.604,23.428 43.887,22.758 44.169,22.087 44.275,21.713 44.380,21.338 44.485,20.963 44.590,20.589 44.643,20.076 44.695,19.564 44.748,19.051 44.800,18.538 44.859,18.006 44.919,17.474 44.978,16.941 45.037,16.409 45.083,15.883 45.129,15.358 45.175,14.832 45.221,14.306 45.155,13.780 45.089,13.254 45.024,12.729 44.958,12.203 44.853,11.749 44.748,11.296 44.643,10.843 44.537,10.389 44.327,9.850 44.117,9.311 43.906,8.772 43.696,8.233 43.479,7.892 43.262,7.550 43.046,7.208 42.829,6.866 42.566,6.623 42.303,6.380 42.040,6.137 41.777,5.894 41.383,5.716 40.989,5.539 40.594,5.361 40.200,5.184 39.707,5.138 39.214,5.092 38.721,5.046 38.228,5.000 37.873,5.118 37.518,5.237 37.164,5.355 36.809,5.473 36.566,5.624 36.322,5.775 36.079,5.927 35.836,6.078 35.632,6.334 35.429,6.590 35.225,6.847 35.021,7.103 34.877,7.399 34.732,7.695 34.587,7.990 34.443,8.286 34.390,8.588 34.338,8.891 34.285,9.193 34.232,9.495 34.193,9.962 34.154,10.428 34.114,10.895 34.075,11.362 34.186,11.579 34.298,11.795 34.410,12.012 34.522,12.229 34.673,12.492 34.824,12.755 34.975,13.018 35.126,13.281 35.337,13.353 35.547,13.425 35.757,13.498 35.967,13.570 36.211,13.524 36.454,13.478 36.697,13.432 36.940,13.386 37.157,13.287 37.374,13.189 37.591,13.090 37.808,12.992 37.965,12.972 38.123,12.952 38.281,12.932 38.439,12.913 38.682,13.090 38.925,13.268 39.168,13.445 39.411,13.622 39.477,13.747 39.543,13.872 39.608,13.997 39.674,14.122 39.740,14.372 39.806,14.621 39.871,14.871 39.937,15.121 39.930,15.318 39.924,15.515 39.917,15.712 39.911,15.910 39.904,16.074 39.897,16.238 39.891,16.402 39.884,16.567 39.832,16.981 39.779,17.395 39.727,17.809 39.674,18.223 39.569,18.841 39.464,19.458 39.359,20.076 39.253,20.694 39.142,21.069 39.030,21.443 38.918,21.818 38.806,22.192 38.668,22.521 38.530,22.850 38.392,23.178 38.254,23.507 38.057,23.875 37.860,24.243 37.663,24.611 37.466,24.979 37.216,25.380 36.966,25.781 36.717,26.182 36.467,26.583 36.316,26.878 36.165,27.174 36.013,27.470 35.862,27.765 35.718,27.976 35.573,28.186 35.428,28.396 35.284,28.607 35.054,28.883 34.824,29.159 34.594,29.435 34.364,29.711 34.101,30.007 33.838,30.302 33.575,30.598 33.312,30.894 33.115,31.104 32.918,31.314 32.721,31.525 32.524,31.735 32.280,32.004 32.037,32.274 31.794,32.543 31.551,32.813 30.966,33.424 30.381,34.035 29.796,34.646 29.211,35.258 28.975,35.415 28.738,35.573 28.502,35.731 28.265,35.889 27.844,36.151 27.424,36.414 27.003,36.677 26.583,36.940 26.109,37.223 25.636,37.505 25.163,37.788 24.690,38.070 24.322,38.340 23.954,38.609 23.586,38.879 23.218,39.148 22.961,39.306 22.705,39.464 22.449,39.621 22.192,39.779 22.008,39.917 21.824,40.055 21.640,40.193 21.456,40.331 21.259,40.574 21.062,40.818 20.865,41.061 20.668,41.304 20.300,41.935 19.932,42.566 19.564,43.197 19.196,43.828 18.959,44.222 18.722,44.616 18.486,45.010 18.249,45.405 18.039,45.733 17.829,46.062 17.618,46.391 17.408,46.719 16.961,47.311 16.514,47.902 16.067,48.494 15.620,49.085 15.114,49.795 14.608,50.505 14.102,51.214 13.596,51.924 13.458,52.194 13.320,52.463 13.182,52.733 13.044,53.002 12.854,53.298 12.663,53.594 12.472,53.889 12.282,54.185 12.085,54.586 11.887,54.987 11.690,55.388 11.493,55.789 11.224,56.249 10.954,56.709 10.685,57.169 10.415,57.629 10.251,58.003 10.087,58.378 9.922,58.753 9.758,59.127 9.568,59.515 9.377,59.903 9.186,60.290 8.996,60.678 8.516,61.730 8.036,62.781 7.557,63.833 7.077,64.884 6.939,65.522 6.801,66.159 6.663,66.797 6.525,67.434 6.341,68.091 6.157,68.749 5.973,69.406 5.789,70.063 5.723,70.746 5.657,71.430 5.591,72.113 5.526,72.797 5.453,73.507 5.381,74.217 5.309,74.926 5.237,75.636 5.204,76.326 5.171,77.016 5.138,77.706 5.105,78.396 5.092,78.876 5.079,79.356 5.066,79.836 5.053,80.315 5.039,80.703 5.026,81.091 5.013,81.479 5.000,81.866 5.368,82.234 5.736,82.602 5.782,83.417 5.828,84.232 5.874,85.047 5.920,85.862 5.953,86.460 5.986,87.058 6.019,87.656 6.052,88.254 6.130,89.010 6.209,89.766 6.288,90.522 6.367,91.277 6.518,91.954 6.669,92.631 6.820,93.308 6.972,93.985 7.096,94.471 7.221,94.958 7.346,95.444 7.471,95.930 7.806,96.864 8.141,97.797 8.477,98.730 8.812,99.663 9.062,100.117 9.311,100.570 9.561,101.024 9.811,101.477 10.054,101.891 10.297,102.305 10.540,102.719 10.783,103.133 11.158,103.764 11.533,104.395 11.907,105.026 12.282,105.657 12.722,106.485 13.162,107.313 13.603,108.141 14.043,108.969 14.299,109.429 14.556,109.889 14.812,110.349 15.068,110.810 15.318,111.086 15.568,111.362 15.818,111.638 16.067,111.914 16.264,112.032 16.462,112.150 16.659,112.269 16.856,112.387 17.592,112.525 18.328,112.663 19.064,112.801 19.800,112.939 19.938,113.077 20.076,113.215 20.214,113.353 20.352,113.491 20.530,113.872 20.707,114.253 20.885,114.634 21.062,115.016 21.082,115.252 21.101,115.489 21.121,115.725 21.141,115.962 21.154,116.231 21.167,116.501 21.180,116.770 21.193,117.040 21.331,117.296 21.469,117.552 21.608,117.809 21.746,118.065 22.252,118.538 22.758,119.011 23.264,119.485 23.770,119.958 23.960,120.122 24.151,120.286 24.341,120.451 24.532,120.615 24.782,120.779 25.032,120.944 25.281,121.108 25.531,121.272 26.011,121.640 26.491,122.008 26.970,122.376 27.450,122.744 28.022,123.106 28.594,123.467 29.165,123.829 29.737,124.190 30.125,124.492 30.513,124.795 30.900,125.097 31.288,125.399 31.610,125.662 31.932,125.925 32.254,126.188 32.576,126.451 33.056,126.727 33.536,127.003 34.015,127.279 34.495,127.555 34.765,127.759 35.034,127.963 35.304,128.166 35.573,128.370 35.961,128.574 36.349,128.777 36.736,128.981 37.124,129.185 37.374,129.303 37.624,129.422 37.873,129.540 38.123,129.658 38.491,129.829 38.859,130.000 39.227,130.171 39.595,130.342 39.943,130.486 40.292,130.631 40.640,130.775 40.988,130.920 41.278,131.038 41.567,131.157 41.856,131.275 42.145,131.393 42.480,131.485 42.815,131.577 43.151,131.669 43.486,131.761 43.913,131.886 44.340,132.011 44.767,132.136 45.194,132.261 45.655,132.431 46.115,132.602 46.575,132.773 47.035,132.944 47.718,133.220 48.402,133.496 49.085,133.772 49.769,134.048 50.025,134.127 50.281,134.206 50.538,134.285 50.794,134.364 51.267,134.462 51.740,134.561 52.213,134.659 52.687,134.758 53.094,134.863 53.502,134.968 53.909,135.073 54.316,135.179 54.750,135.231 55.184,135.284 55.618,135.336 56.051,135.389 56.452,135.442 56.853,135.494 57.254,135.547 57.655,135.599 57.990,135.810 58.325,136.020 58.661,136.230 58.996,136.441 59.088,136.618 59.180,136.795 59.272,136.973 59.364,137.150 59.390,137.380 59.416,137.610 59.443,137.840 59.469,138.070 59.423,138.360 59.377,138.649 59.331,138.938 59.285,139.227 59.199,139.398 59.114,139.569 59.029,139.740 58.943,139.911 58.621,140.311 58.299,140.712 57.977,141.113 57.655,141.514 57.478,141.738 57.300,141.961 57.123,142.185 56.945,142.408 56.689,142.638 56.433,142.868 56.176,143.098 55.920,143.328 55.611,143.604 55.302,143.880 54.993,144.156 54.684,144.432 54.303,144.748 53.922,145.063 53.541,145.379 53.160,145.694 52.792,145.931 52.424,146.167 52.056,146.404 51.688,146.640 51.444,146.910 51.201,147.179 50.958,147.449 50.715,147.718 50.544,147.928 50.373,148.139 50.202,148.349 50.031,148.559 49.854,148.842 49.677,149.125 49.499,149.407 49.322,149.690 49.236,150.032 49.151,150.373 49.065,150.715 48.980,151.057 48.967,151.359 48.954,151.661 48.941,151.964 48.927,152.266 48.980,152.641 49.033,153.015 49.085,153.390 49.138,153.764 49.315,153.955 49.493,154.146 49.670,154.336 49.847,154.527 50.170,154.579 50.492,154.632 50.814,154.685 51.136,154.737 51.550,154.803 51.964,154.869 52.378,154.934 52.792,155.000 53.232,154.987 53.672,154.974 54.113,154.960 54.553,154.947 55.013,154.940 55.473,154.934 55.933,154.927 56.393,154.920 57.004,154.887 57.616,154.854 58.227,154.821 58.838,154.788 59.094,154.749 59.351,154.710 59.607,154.670 59.863,154.631 60.113,154.434 60.363,154.236 60.612,154.039 60.862,153.842 61.145,153.579 61.427,153.316 61.710,153.053 61.993,152.791 62.387,152.429 62.781,152.068 63.176,151.706 63.570,151.345 64.004,150.924 64.437,150.503 64.871,150.083 65.305,149.662 65.463,149.505 65.620,149.347 65.778,149.189 65.936,149.031 66.113,148.860 66.291,148.690 66.468,148.519 66.646,148.348 67.152,147.973 67.658,147.599 68.164,147.224 68.670,146.849 68.965,146.547 69.261,146.245 69.557,145.942 69.853,145.640 70.024,145.482 70.194,145.325 70.365,145.167 70.536,145.009 70.766,144.904 70.996,144.799 71.226,144.694 71.456,144.589 71.765,144.490 72.074,144.391 72.383,144.293 72.692,144.194 72.823,144.175 72.955,144.155 73.086,144.135 73.218,144.116 73.415,144.135 73.612,144.155 73.809,144.175 74.006,144.194 74.269,144.273 74.532,144.352 74.795,144.431 75.058,144.510 75.439,144.648 75.820,144.786 76.201,144.924 76.582,145.062 76.845,145.226 77.108,145.390 77.371,145.555 77.634,145.719 77.851,145.850 78.068,145.982 78.285,146.113 78.501,146.245 78.580,146.284 78.659,146.324 78.738,146.363 78.527,146.692" fill="none" stroke="black" stroke-width="1"/>
</svg>
