<?xml version="1.0" encoding="UTF-8"?>
<svg xmlns="http://www.w3.org/2000/svg" width="153.0" height="160.0" viewBox="0 0 153.0 160.0">
  <polyline points="97.161,90.302 97.151,90.054 97.141,89.805 97.131,89.557 97.122,89.308 97.112,89.094 97.102,88.880 97.093,88.665 97.083,88.451 97.088,88.169 97.093,87.886 97.097,87.604 97.102,87.321 97.107,87.165 97.112,87.009 97.117,86.853 97.122,86.697 97.107,86.469 97.093,86.240 97.078,86.011 97.063,85.782 96.932,85.650 96.800,85.519 96.810,85.382 96.820,85.246 96.830,85.110 96.839,84.973 96.844,84.637 96.849,84.301 96.854,83.965 96.859,83.629 96.883,83.487 96.908,83.346 96.932,83.205 96.956,83.064 96.800,83.034 96.645,83.005 96.489,82.976 96.333,82.947 96.143,82.757 95.953,82.567 95.588,82.581 95.222,82.596 94.857,82.611 94.492,82.625 94.092,82.611 93.693,82.596 93.293,82.581 92.894,82.567 92.782,82.557 92.670,82.547 92.558,82.538 92.446,82.528 92.187,82.513 91.929,82.499 91.671,82.484 91.413,82.469 91.174,82.460 90.936,82.450 90.697,82.440 90.458,82.431 90.341,82.421 90.224,82.411 90.108,82.401 89.991,82.392 89.820,82.387 89.650,82.382 89.479,82.377 89.309,82.372 89.158,82.353 89.007,82.333 88.856,82.314 88.705,82.294 88.554,82.299 88.403,82.304 88.252,82.309 88.101,82.314 87.920,82.304 87.740,82.294 87.560,82.284 87.380,82.275 87.131,82.284 86.883,82.294 86.634,82.304 86.386,82.314 86.250,82.309 86.113,82.304 85.977,82.299 85.840,82.294 85.621,82.270 85.402,82.245 85.183,82.221 84.964,82.197 84.579,82.158 84.194,82.119 83.809,82.080 83.424,82.041 83.269,82.026 83.113,82.012 82.957,81.997 82.801,81.982 82.567,81.958 82.333,81.934 82.099,81.909 81.866,81.885 81.656,81.895 81.447,81.905 81.237,81.914 81.028,81.924 80.838,81.909 80.648,81.895 80.458,81.880 80.268,81.866 80.093,81.856 79.917,81.846 79.742,81.836 79.567,81.827 79.333,81.812 79.099,81.797 78.865,81.783 78.631,81.768 78.354,81.754 78.076,81.739 77.798,81.724 77.521,81.710 77.321,81.681 77.121,81.651 76.922,81.622 76.722,81.593 76.678,81.588 76.634,81.583 76.590,81.578 76.546,81.573 76.244,81.539 75.942,81.505 75.640,81.471 75.338,81.437 75.153,81.432 74.968,81.427 74.783,81.422 74.598,81.417 74.403,81.403 74.208,81.388 74.013,81.374 73.819,81.359 73.614,81.154 73.409,80.950 73.307,80.935 73.205,80.921 73.103,80.906 73.000,80.891 72.674,80.843 72.348,80.794 72.021,80.745 71.695,80.697 71.388,80.643 71.081,80.589 70.774,80.536 70.467,80.482 70.170,80.453 69.873,80.424 69.576,80.395 69.279,80.365 69.030,80.326 68.782,80.287 68.534,80.248 68.285,80.209 68.154,80.195 68.022,80.180 67.891,80.166 67.759,80.151 67.501,80.107 67.243,80.063 66.985,80.019 66.726,79.976 66.429,79.951 66.132,79.927 65.835,79.903 65.538,79.878 65.241,79.815 64.944,79.752 64.646,79.688 64.349,79.625 63.984,79.562 63.619,79.498 63.253,79.435 62.888,79.372 62.610,79.328 62.333,79.284 62.055,79.240 61.777,79.196 61.529,79.152 61.280,79.109 61.032,79.065 60.784,79.021 60.535,78.972 60.287,78.924 60.038,78.875 59.790,78.826 59.347,78.743 58.903,78.660 58.460,78.578 58.017,78.495 57.632,78.407 57.247,78.320 56.862,78.232 56.478,78.144 56.234,78.086 55.990,78.027 55.747,77.969 55.503,77.910 55.362,77.886 55.221,77.862 55.080,77.837 54.938,77.813 54.592,77.779 54.247,77.745 53.901,77.711 53.555,77.677 53.287,77.599 53.019,77.521 52.751,77.443 52.483,77.365 52.108,77.243 51.733,77.121 51.358,76.999 50.983,76.878 50.584,76.736 50.184,76.595 49.785,76.454 49.385,76.313 49.069,76.254 48.752,76.196 48.435,76.137 48.119,76.079 47.729,76.011 47.339,75.942 46.950,75.874 46.560,75.806 46.297,75.718 46.034,75.631 45.771,75.543 45.508,75.455 45.133,75.319 44.758,75.183 44.383,75.046 44.008,74.910 43.608,74.793 43.209,74.676 42.809,74.559 42.410,74.442 42.098,74.316 41.786,74.189 41.475,74.062 41.163,73.936 40.812,73.814 40.461,73.692 40.111,73.570 39.760,73.448 39.385,73.293 39.010,73.137 38.635,72.981 38.260,72.825 37.953,72.728 37.646,72.630 37.339,72.533 37.032,72.435 36.837,72.343 36.643,72.250 36.448,72.158 36.253,72.065 35.922,71.924 35.590,71.783 35.259,71.641 34.928,71.500 34.592,71.383 34.256,71.266 33.920,71.149 33.584,71.032 33.267,70.867 32.950,70.701 32.634,70.536 32.317,70.370 31.981,70.185 31.645,70.000 31.309,69.815 30.973,69.630 30.787,69.537 30.602,69.444 30.417,69.352 30.232,69.259 29.969,69.094 29.706,68.928 29.443,68.762 29.180,68.597 28.888,68.421 28.596,68.246 28.303,68.071 28.011,67.895 27.802,67.759 27.592,67.623 27.383,67.486 27.173,67.350 26.934,67.165 26.696,66.980 26.457,66.795 26.218,66.609 26.009,66.478 25.800,66.346 25.590,66.215 25.381,66.083 25.191,65.947 25.001,65.811 24.811,65.674 24.621,65.538 24.470,65.411 24.319,65.285 24.168,65.158 24.017,65.031 23.832,64.870 23.646,64.710 23.461,64.549 23.276,64.388 23.081,64.227 22.887,64.067 22.692,63.906 22.497,63.745 22.438,63.687 22.380,63.628 22.322,63.570 22.263,63.511 21.898,63.185 21.532,62.859 21.167,62.532 20.802,62.206 20.602,61.967 20.402,61.729 20.203,61.490 20.003,61.251 19.803,61.027 19.603,60.803 19.404,60.579 19.204,60.355 18.970,60.077 18.736,59.800 18.503,59.522 18.269,59.244 18.016,58.913 17.762,58.582 17.509,58.251 17.256,57.919 16.924,57.525 16.593,57.130 16.262,56.736 15.931,56.341 15.765,56.000 15.599,55.659 15.434,55.318 15.268,54.977 15.132,54.729 14.995,54.480 14.859,54.232 14.723,53.984 14.567,53.652 14.411,53.321 14.255,52.990 14.099,52.659 13.963,52.366 13.826,52.074 13.690,51.782 13.554,51.490 13.403,51.095 13.252,50.700 13.101,50.306 12.950,49.911 12.842,49.605 12.735,49.298 12.628,48.991 12.521,48.684 12.404,48.411 12.287,48.138 12.170,47.866 12.053,47.593 11.868,47.164 11.683,46.735 11.498,46.307 11.313,45.878 11.162,45.479 11.011,45.079 10.860,44.680 10.709,44.280 10.451,43.569 10.193,42.858 9.934,42.147 9.676,41.436 9.608,41.173 9.540,40.910 9.472,40.647 9.403,40.384 9.282,39.979 9.160,39.575 9.038,39.171 8.916,38.766 8.819,38.377 8.721,37.987 8.624,37.597 8.527,37.208 8.444,36.764 8.361,36.321 8.278,35.878 8.195,35.435 8.083,34.943 7.971,34.451 7.859,33.959 7.747,33.467 7.640,32.936 7.533,32.405 7.426,31.874 7.319,31.343 7.265,30.953 7.211,30.563 7.158,30.174 7.104,29.784 7.041,29.458 6.978,29.131 6.914,28.805 6.851,28.479 6.802,28.303 6.754,28.128 6.705,27.953 6.656,27.777 6.622,27.397 6.588,27.017 6.554,26.637 6.520,26.257 6.417,25.746 6.315,25.234 6.213,24.723 6.111,24.212 6.052,23.720 5.994,23.228 5.935,22.736 5.877,22.244 5.823,21.727 5.770,21.211 5.716,20.695 5.662,20.178 5.614,19.657 5.565,19.136 5.516,18.615 5.468,18.093 5.438,17.592 5.409,17.090 5.380,16.588 5.351,16.087 5.326,15.614 5.302,15.142 5.278,14.669 5.253,14.197 5.244,13.817 5.234,13.437 5.224,13.057 5.214,12.677 5.219,12.243 5.224,11.810 5.229,11.376 5.234,10.943 5.205,10.509 5.175,10.076 5.146,9.642 5.117,9.209 5.107,9.106 5.097,9.004 5.088,8.902 5.078,8.799 5.058,8.536 5.039,8.273 5.019,8.010 5.000,7.747 5.019,7.513 5.039,7.280 5.058,7.046 5.078,6.812 5.093,6.554 5.107,6.296 5.122,6.038 5.136,5.779 5.117,5.585 5.097,5.390 5.078,5.195 5.058,5.000 30.641,30.232 55.523,54.763 55.533,54.266 55.542,53.769 55.552,53.272 55.562,52.776 55.596,52.308 55.630,51.840 55.664,51.373 55.698,50.905 55.766,50.350 55.835,49.794 55.903,49.239 55.971,48.684 56.010,48.392 56.049,48.099 56.088,47.807 56.127,47.515 56.176,47.003 56.224,46.492 56.273,45.980 56.322,45.469 56.409,45.035 56.497,44.602 56.585,44.168 56.672,43.735 56.760,43.345 56.848,42.955 56.935,42.566 57.023,42.176 57.047,42.064 57.072,41.952 57.096,41.840 57.121,41.728 57.164,41.460 57.208,41.192 57.252,40.924 57.296,40.656 57.403,40.325 57.510,39.994 57.617,39.663 57.725,39.331 57.802,39.078 57.880,38.825 57.958,38.571 58.036,38.318 58.143,37.958 58.251,37.597 58.358,37.237 58.465,36.876 58.528,36.594 58.592,36.311 58.655,36.029 58.718,35.746 58.699,35.547 58.679,35.347 58.660,35.147 58.640,34.947 58.592,34.894 58.543,34.840 58.494,34.787 58.445,34.733 58.265,34.767 58.085,34.801 57.905,34.835 57.725,34.869 57.593,34.972 57.462,35.074 57.330,35.176 57.198,35.279 57.101,35.352 57.004,35.425 56.906,35.498 56.809,35.571 56.663,35.732 56.517,35.892 56.370,36.053 56.224,36.214 56.117,36.365 56.010,36.516 55.903,36.667 55.796,36.818 55.679,37.022 55.562,37.227 55.445,37.432 55.328,37.636 55.231,37.812 55.133,37.987 55.036,38.162 54.938,38.338 54.831,38.537 54.724,38.737 54.617,38.937 54.510,39.137 54.354,39.351 54.198,39.565 54.042,39.779 53.886,39.994 53.750,40.223 53.613,40.452 53.477,40.681 53.341,40.910 53.082,41.143 52.824,41.377 52.566,41.611 52.308,41.845 52.050,42.054 51.792,42.264 51.533,42.473 51.275,42.683 51.041,42.790 50.808,42.897 50.574,43.004 50.340,43.111 50.004,43.189 49.668,43.267 49.332,43.345 48.996,43.423 48.786,43.447 48.577,43.472 48.367,43.496 48.158,43.520 47.953,43.920 47.749,44.319 47.544,44.719 47.339,45.118 47.310,45.235 47.281,45.352 47.252,45.469 47.223,45.586 47.198,45.776 47.174,45.966 47.149,46.156 47.125,46.346 47.149,46.521 47.174,46.696 47.198,46.872 47.223,47.047 47.281,47.203 47.339,47.359 47.398,47.515 47.456,47.671 47.671,47.753 47.885,47.836 48.099,47.919 48.314,48.002 48.708,48.007 49.103,48.012 49.497,48.016 49.892,48.021 50.194,48.085 50.496,48.148 50.798,48.211 51.100,48.275 51.129,48.421 51.158,48.567 51.188,48.713 51.217,48.859 51.597,49.239 51.977,49.619 51.947,50.004 51.918,50.389 51.889,50.774 51.860,51.158 52.157,51.455 52.454,51.753 52.439,52.167 52.425,52.581 52.410,52.995 52.396,53.409 52.362,53.779 52.327,54.149 52.293,54.519 52.259,54.890 52.254,55.333 52.249,55.776 52.245,56.219 52.240,56.663 52.191,57.169 52.142,57.676 52.094,58.182 52.045,58.689 52.040,59.064 52.035,59.439 52.030,59.814 52.025,60.189 52.011,60.691 51.996,61.193 51.982,61.694 51.967,62.196 51.972,62.586 51.977,62.976 51.982,63.365 51.986,63.755 51.991,64.305 51.996,64.856 52.001,65.406 52.006,65.957 52.021,66.337 52.035,66.717 52.050,67.097 52.064,67.476 52.074,67.852 52.084,68.227 52.094,68.602 52.103,68.977 52.142,69.591 52.181,70.204 52.220,70.818 52.259,71.432 52.327,71.963 52.396,72.494 52.464,73.025 52.532,73.556 52.566,73.974 52.600,74.393 52.634,74.812 52.668,75.231 52.717,75.748 52.766,76.264 52.815,76.780 52.863,77.297 52.917,77.701 52.970,78.105 53.024,78.509 53.078,78.914 53.238,79.693 53.399,80.473 53.560,81.252 53.721,82.031 53.784,82.465 53.847,82.898 53.911,83.332 53.974,83.765 54.086,84.223 54.198,84.681 54.310,85.139 54.422,85.597 54.558,86.167 54.695,86.737 54.831,87.307 54.968,87.877 55.011,88.208 55.055,88.539 55.099,88.870 55.143,89.201 55.240,89.630 55.338,90.059 55.435,90.487 55.533,90.916 55.581,91.252 55.630,91.588 55.679,91.924 55.727,92.261 55.800,92.538 55.874,92.816 55.947,93.093 56.020,93.371 56.083,93.649 56.146,93.926 56.210,94.204 56.273,94.482 56.400,94.857 56.526,95.232 56.653,95.607 56.780,95.982 56.872,96.367 56.965,96.752 57.057,97.136 57.150,97.521 57.306,97.911 57.462,98.301 57.617,98.690 57.773,99.080 57.885,99.411 57.997,99.743 58.109,100.074 58.221,100.405 58.290,100.649 58.358,100.892 58.426,101.136 58.494,101.379 58.533,101.579 58.572,101.779 58.611,101.978 58.650,102.178 58.786,102.543 58.923,102.909 59.059,103.274 59.196,103.639 59.308,104.000 59.420,104.360 59.532,104.721 59.644,105.081 59.805,105.442 59.965,105.802 60.126,106.163 60.287,106.523 60.409,106.874 60.530,107.225 60.652,107.575 60.774,107.926 60.881,108.194 60.988,108.462 61.095,108.730 61.203,108.998 61.280,109.207 61.358,109.416 61.436,109.626 61.514,109.835 61.782,110.454 62.050,111.073 62.318,111.691 62.586,112.310 62.649,112.476 62.713,112.641 62.776,112.807 62.839,112.972 62.941,113.206 63.044,113.440 63.146,113.674 63.248,113.908 63.292,113.976 63.336,114.044 63.380,114.112 63.424,114.180 63.570,114.468 63.716,114.755 63.862,115.043 64.008,115.330 63.619,115.637 63.229,115.944 62.839,116.251 62.450,116.557 62.250,116.767 62.050,116.976 61.850,117.186 61.651,117.395 61.436,117.639 61.222,117.882 61.008,118.126 60.793,118.370 60.637,118.623 60.482,118.876 60.326,119.129 60.170,119.383 60.107,119.514 60.043,119.646 59.980,119.777 59.917,119.909 59.873,120.162 59.829,120.415 59.785,120.669 59.741,120.922 59.853,121.136 59.965,121.351 60.077,121.565 60.189,121.779 60.296,121.877 60.404,121.974 60.511,122.072 60.618,122.169 60.823,122.271 61.027,122.374 61.232,122.476 61.436,122.578 61.709,122.705 61.982,122.831 62.255,122.958 62.527,123.085 62.825,123.124 63.122,123.163 63.419,123.202 63.716,123.241 63.930,123.455 64.145,123.669 64.578,123.718 65.012,123.767 65.445,123.815 65.879,123.864 66.225,123.932 66.570,124.001 66.916,124.069 67.262,124.137 67.618,124.215 67.973,124.293 68.329,124.371 68.685,124.449 68.884,124.502 69.084,124.556 69.284,124.609 69.483,124.663 69.688,124.756 69.893,124.848 70.097,124.941 70.302,125.033 70.594,125.223 70.886,125.413 71.178,125.603 71.471,125.793 71.558,125.910 71.646,126.027 71.734,126.144 71.821,126.261 71.880,126.295 71.938,126.329 71.997,126.363 72.055,126.397 72.611,126.436 73.166,126.475 73.721,126.514 74.277,126.553 74.632,126.602 74.988,126.650 75.343,126.699 75.699,126.748 75.933,126.777 76.166,126.806 76.400,126.835 76.634,126.865 76.931,127.045 77.228,127.225 77.526,127.405 77.823,127.586 77.998,127.741 78.173,127.897 78.349,128.053 78.524,128.209 78.738,128.287 78.953,128.365 79.167,128.443 79.381,128.521 79.810,128.506 80.239,128.492 80.667,128.477 81.096,128.462 81.393,128.545 81.690,128.628 81.987,128.711 82.285,128.794 82.621,128.915 82.957,129.037 83.293,129.159 83.629,129.281 83.858,129.364 84.087,129.446 84.316,129.529 84.545,129.612 84.930,129.841 85.314,130.070 85.699,130.299 86.084,130.528 86.274,130.654 86.464,130.781 86.654,130.908 86.844,131.034 87.307,131.122 87.769,131.210 88.232,131.297 88.695,131.385 89.089,131.424 89.484,131.463 89.879,131.502 90.273,131.541 90.950,131.721 91.627,131.901 92.304,132.082 92.981,132.262 93.327,132.364 93.673,132.466 94.019,132.569 94.365,132.671 94.832,132.837 95.300,133.002 95.768,133.168 96.235,133.333 96.698,133.480 97.161,133.626 97.624,133.772 98.086,133.918 98.559,134.103 99.031,134.288 99.504,134.473 99.976,134.658 100.473,134.863 100.970,135.068 101.467,135.272 101.964,135.477 102.329,135.594 102.694,135.711 103.060,135.827 103.425,135.944 103.751,136.013 104.078,136.081 104.404,136.149 104.731,136.217 105.159,136.349 105.588,136.480 106.016,136.612 106.445,136.743 106.859,136.894 107.273,137.045 107.687,137.196 108.101,137.347 108.496,137.503 108.890,137.659 109.285,137.815 109.680,137.971 110.079,138.102 110.478,138.234 110.878,138.365 111.277,138.497 111.725,138.682 112.174,138.867 112.622,139.052 113.070,139.237 113.235,139.335 113.401,139.432 113.567,139.530 113.732,139.627 113.937,139.710 114.141,139.793 114.346,139.875 114.551,139.958 114.609,140.060 114.668,140.163 114.726,140.265 114.784,140.367 114.668,140.509 114.551,140.650 114.434,140.791 114.317,140.932 114.166,141.040 114.015,141.147 113.864,141.254 113.713,141.361 113.484,141.517 113.255,141.673 113.026,141.829 112.797,141.985 112.602,142.136 112.407,142.287 112.212,142.438 112.018,142.589 111.823,142.813 111.628,143.037 111.433,143.261 111.238,143.485 111.053,143.650 110.868,143.816 110.683,143.982 110.498,144.147 110.249,144.366 110.001,144.586 109.753,144.805 109.504,145.024 109.285,145.336 109.066,145.648 108.847,145.959 108.627,146.271 108.437,146.520 108.247,146.768 108.057,147.016 107.867,147.265 107.731,147.411 107.595,147.557 107.458,147.703 107.322,147.849 107.181,148.073 107.039,148.297 106.898,148.522 106.757,148.746 106.611,149.043 106.465,149.340 106.318,149.637 106.172,149.934 106.104,150.114 106.036,150.295 105.968,150.475 105.900,150.655 105.822,150.860 105.744,151.064 105.666,151.269 105.588,151.473 105.573,151.805 105.559,152.136 105.544,152.467 105.529,152.798 105.554,152.974 105.578,153.149 105.602,153.324 105.627,153.500 105.783,153.656 105.939,153.812 106.094,153.967 106.250,154.123 106.625,154.104 107.000,154.084 107.375,154.065 107.751,154.045 108.208,154.503 108.666,154.961 109.329,154.971 109.991,154.981 110.654,154.990 111.316,155.000 111.706,154.981 112.096,154.961 112.485,154.942 112.875,154.922 112.977,154.893 113.080,154.864 113.182,154.834 113.284,154.805 113.693,154.513 114.102,154.221 114.512,153.928 114.921,153.636 115.208,153.383 115.496,153.130 115.783,152.876 116.070,152.623 116.246,152.399 116.421,152.175 116.596,151.951 116.772,151.727 117.088,151.391 117.405,151.054 117.722,150.718 118.038,150.382 118.277,150.100 118.516,149.817 118.754,149.535 118.993,149.252 119.373,148.882 119.753,148.512 120.133,148.142 120.513,147.771 120.708,147.547 120.902,147.323 121.097,147.099 121.292,146.875 121.628,146.524 121.964,146.174 122.300,145.823 122.637,145.472 122.851,145.277 123.065,145.082 123.280,144.888 123.494,144.693 123.849,144.410 124.205,144.128 124.561,143.845 124.916,143.563 125.296,143.236 125.676,142.910 126.056,142.584 126.436,142.257 126.806,141.926 127.176,141.595 127.547,141.264 127.917,140.932 128.190,140.699 128.462,140.465 128.735,140.231 129.008,139.997 129.290,139.685 129.573,139.374 129.856,139.062 130.138,138.750 130.323,138.716 130.508,138.682 130.693,138.648 130.878,138.614 131.190,138.623 131.502,138.633 131.814,138.643 132.125,138.653 132.354,138.677 132.583,138.701 132.812,138.726 133.041,138.750 133.372,138.799 133.704,138.847 134.035,138.896 134.366,138.945 134.770,138.994 135.175,139.042 135.579,139.091 135.983,139.140 136.441,139.227 136.899,139.315 137.357,139.403 137.815,139.490 138.209,139.524 138.604,139.559 138.999,139.593 139.393,139.627 139.754,139.685 140.114,139.744 140.475,139.802 140.835,139.861 141.317,139.909 141.799,139.958 142.282,140.007 142.764,140.055 143.115,140.114 143.465,140.172 143.816,140.231 144.167,140.289 144.591,140.328 145.014,140.367 145.438,140.406 145.862,140.445 146.086,140.469 146.310,140.494 146.534,140.518 146.758,140.543 146.948,140.572 147.138,140.601 147.328,140.630 147.518,140.659 147.679,140.728 147.840,140.796 148.000,140.864 97.161,90.302" fill="none" stroke="black" stroke-width="1"/>
</svg>
