<?xml version="1.0" encoding="UTF-8"?>
<svg xmlns="http://www.w3.org/2000/svg" width="149.1" height="160.0" viewBox="0 0 149.1 160.0">
  <polyline points="143.916,136.257 143.922,135.942 143.928,135.627 143.934,135.312 143.940,134.997 143.947,134.682 143.953,134.367 143.959,134.052 143.965,133.738 143.978,133.479 143.990,133.221 144.003,132.963 144.015,132.705 144.028,132.446 144.041,132.188 144.053,131.930 144.066,131.672 144.047,131.319 144.028,130.966 144.009,130.614 143.990,130.261 143.971,129.908 143.952,129.555 143.933,129.203 143.915,128.850 143.902,128.560 143.889,128.271 143.877,127.981 143.864,127.691 143.852,127.401 143.839,127.112 143.827,126.822 143.814,126.532 143.801,126.211 143.789,125.890 143.776,125.569 143.764,125.247 143.751,124.926 143.738,124.605 143.726,124.284 143.713,123.963 143.430,123.679 143.146,123.396 142.863,123.112 142.580,122.829 142.599,122.665 142.617,122.501 142.636,122.338 142.655,122.174 142.674,122.010 142.693,121.846 142.712,121.683 142.731,121.519 142.737,121.279 142.743,121.040 142.749,120.801 142.756,120.561 142.762,120.322 142.768,120.083 142.774,119.843 142.780,119.604 142.761,119.245 142.743,118.886 142.724,118.527 142.705,118.168 142.686,117.809 142.667,117.450 142.648,117.091 142.629,116.732 142.421,116.524 142.213,116.316 142.006,116.109 141.798,115.901 141.779,115.642 141.760,115.384 141.741,115.126 141.722,114.868 141.703,114.610 141.684,114.351 141.665,114.093 141.647,113.835 141.653,113.425 141.659,113.016 141.665,112.607 141.671,112.197 141.677,111.788 141.684,111.379 141.690,110.969 141.696,110.560 141.702,110.365 141.708,110.169 141.715,109.974 141.721,109.779 141.727,109.584 141.733,109.388 141.739,109.193 141.746,108.998 141.670,108.922 141.594,108.847 141.519,108.771 141.443,108.695 141.462,108.456 141.481,108.217 141.500,107.977 141.519,107.738 141.538,107.499 141.557,107.259 141.575,107.020 141.594,106.781 141.109,106.793 140.624,106.806 140.139,106.818 139.654,106.831 139.170,106.844 138.685,106.856 138.200,106.869 137.715,106.881 137.261,106.888 136.808,106.894 136.354,106.900 135.901,106.906 135.447,106.912 134.994,106.918 134.540,106.925 134.087,106.931 133.514,106.906 132.940,106.880 132.367,106.855 131.794,106.830 131.221,106.805 130.648,106.780 130.075,106.754 129.502,106.729 128.758,106.723 128.015,106.717 127.272,106.711 126.529,106.704 125.786,106.698 125.042,106.692 124.299,106.686 123.556,106.680 122.926,106.692 122.296,106.705 121.667,106.717 121.037,106.730 120.407,106.742 119.777,106.755 119.147,106.768 118.517,106.780 117.711,106.843 116.905,106.906 116.099,106.969 115.293,107.032 114.486,107.095 113.680,107.158 112.874,107.221 112.068,107.284 111.551,106.768 111.035,106.251 110.518,105.735 110.002,105.218 108.906,105.231 107.810,105.243 106.714,105.256 105.618,105.269 104.522,105.281 103.427,105.294 102.331,105.306 101.235,105.319 100.504,105.294 99.774,105.268 99.043,105.243 98.312,105.218 97.582,105.193 96.851,105.168 96.121,105.142 95.390,105.117 94.999,104.727 94.609,104.336 94.218,103.946 93.828,103.555 93.513,103.454 93.198,103.354 92.883,103.253 92.568,103.152 92.253,103.051 91.938,102.951 91.624,102.850 91.309,102.749 91.088,102.308 90.868,101.867 90.647,101.426 90.427,100.985 90.206,100.545 89.986,100.104 89.766,99.663 89.545,99.222 89.318,98.831 89.092,98.441 88.865,98.050 88.638,97.660 88.411,97.269 88.185,96.879 87.958,96.488 87.731,96.098 87.637,95.909 87.542,95.720 87.448,95.531 87.353,95.342 87.259,95.153 87.164,94.964 87.070,94.775 86.975,94.586 86.818,94.246 86.660,93.906 86.503,93.566 86.346,93.226 86.188,92.886 86.031,92.546 85.873,92.206 85.716,91.866 85.552,91.582 85.388,91.299 85.224,91.015 85.061,90.732 84.897,90.448 84.733,90.165 84.569,89.882 84.406,89.598 84.242,89.290 84.078,88.981 83.914,88.672 83.751,88.364 83.587,88.055 83.423,87.746 83.259,87.438 83.096,87.129 82.963,86.928 82.831,86.726 82.699,86.525 82.567,86.323 82.434,86.121 82.302,85.920 82.170,85.718 82.038,85.517 81.912,85.322 81.786,85.126 81.660,84.931 81.534,84.736 81.408,84.541 81.282,84.345 81.156,84.150 81.030,83.955 80.809,83.602 80.589,83.249 80.368,82.897 80.148,82.544 79.928,82.191 79.707,81.839 79.487,81.486 79.266,81.133 79.147,80.894 79.027,80.655 78.907,80.415 78.788,80.176 78.668,79.937 78.548,79.697 78.429,79.458 78.309,79.218 78.139,78.948 77.969,78.677 77.799,78.406 77.629,78.135 77.459,77.864 77.289,77.594 77.119,77.323 76.948,77.052 76.678,76.693 76.407,76.334 76.136,75.975 75.865,75.616 75.594,75.257 75.324,74.898 75.053,74.539 74.782,74.180 74.580,73.840 74.379,73.500 74.177,73.160 73.976,72.819 73.774,72.479 73.573,72.139 73.371,71.799 73.169,71.459 72.981,71.138 72.792,70.817 72.603,70.495 72.414,70.174 72.225,69.853 72.036,69.532 71.847,69.210 71.658,68.889 71.469,68.568 71.280,68.247 71.091,67.926 70.902,67.604 70.713,67.283 70.524,66.962 70.335,66.641 70.146,66.320 69.926,65.954 68.348,66.950 68.128,66.585 67.908,66.220 67.687,65.854 67.467,65.489 67.246,65.124 67.026,64.758 66.837,64.418 66.648,64.078 66.459,63.738 66.270,63.398 66.081,63.058 65.892,62.718 65.703,62.378 65.514,62.038 65.401,61.886 65.287,61.735 65.174,61.584 65.061,61.433 64.947,61.282 64.834,61.131 64.721,60.979 64.607,60.828 64.261,60.293 63.914,59.758 63.568,59.222 63.222,58.687 62.875,58.151 62.529,57.616 62.182,57.081 61.836,56.545 61.590,56.149 61.345,55.752 61.099,55.355 60.853,54.958 60.608,54.561 60.362,54.165 60.117,53.768 59.871,53.371 59.726,53.176 59.581,52.981 59.436,52.785 59.291,52.590 59.147,52.395 59.002,52.200 58.857,52.004 58.712,51.809 58.479,51.450 58.246,51.091 58.013,50.732 57.780,50.373 57.547,50.014 57.314,49.655 57.081,49.296 56.848,48.937 56.558,48.528 56.268,48.118 55.979,47.709 55.689,47.299 55.399,46.890 55.109,46.481 54.820,46.071 54.530,45.662 54.310,45.334 54.089,45.007 53.869,44.679 53.648,44.352 53.428,44.024 53.207,43.697 52.987,43.369 52.766,43.042 52.577,42.765 52.389,42.488 52.200,42.210 52.011,41.933 51.822,41.656 51.633,41.379 51.444,41.102 51.255,40.825 51.066,40.560 50.877,40.296 50.688,40.031 50.499,39.767 50.310,39.502 50.121,39.238 49.932,38.973 49.743,38.709 49.535,38.463 49.328,38.217 49.120,37.972 48.912,37.726 48.704,37.480 48.496,37.235 48.288,36.989 48.080,36.744 47.810,36.391 47.539,36.038 47.268,35.685 46.997,35.333 46.726,34.980 46.456,34.627 46.185,34.275 45.914,33.922 45.706,33.569 45.498,33.216 45.290,32.864 45.082,32.511 44.875,32.158 44.667,31.806 44.459,31.453 44.251,31.100 43.936,30.748 43.621,30.395 43.306,30.042 42.991,29.689 42.677,29.337 42.362,28.984 42.047,28.631 41.732,28.279 41.480,27.983 41.228,27.687 40.976,27.391 40.724,27.094 40.472,26.798 40.220,26.502 39.968,26.206 39.716,25.910 39.382,25.476 39.049,25.041 38.715,24.607 38.381,24.172 38.047,23.737 37.713,23.303 37.380,22.868 37.046,22.434 36.888,22.207 36.731,21.980 36.573,21.754 36.416,21.527 36.259,21.300 36.101,21.073 35.944,20.847 35.786,20.620 35.616,20.399 35.446,20.179 35.276,19.958 35.106,19.738 34.936,19.518 34.766,19.297 34.596,19.077 34.426,18.856 34.186,18.535 33.947,18.214 33.708,17.893 33.468,17.571 33.229,17.250 32.990,16.929 32.750,16.608 32.511,16.287 32.253,15.984 31.995,15.682 31.736,15.380 31.478,15.077 31.220,14.775 30.962,14.473 30.703,14.170 30.445,13.868 30.074,13.459 29.702,13.049 29.330,12.640 28.959,12.230 28.587,11.821 28.216,11.412 27.844,11.002 27.472,10.593 27.189,10.335 26.906,10.076 26.622,9.818 26.339,9.560 26.055,9.302 25.772,9.044 25.488,8.785 25.205,8.527 24.922,8.388 24.638,8.250 24.355,8.111 24.071,7.973 23.788,7.834 23.504,7.696 23.221,7.557 22.938,7.419 22.472,7.223 22.005,7.028 21.539,6.833 21.073,6.638 20.607,6.442 20.141,6.247 19.675,6.052 19.209,5.857 18.686,5.749 18.163,5.642 17.641,5.535 17.118,5.428 16.595,5.321 16.072,5.214 15.550,5.107 15.027,5.000 14.687,5.013 14.347,5.025 14.007,5.038 13.666,5.050 13.326,5.063 12.986,5.076 12.646,5.088 12.306,5.101 11.985,5.139 11.664,5.176 11.342,5.214 11.021,5.252 10.700,5.290 10.379,5.328 10.058,5.365 9.736,5.403 9.384,5.485 9.031,5.567 8.678,5.649 8.326,5.731 7.973,5.812 7.620,5.894 7.267,5.976 6.915,6.058 6.757,6.153 6.600,6.247 6.442,6.342 6.285,6.436 6.127,6.530 5.970,6.625 5.812,6.719 5.655,6.814 5.573,7.034 5.491,7.255 5.409,7.475 5.328,7.696 5.246,7.916 5.164,8.137 5.082,8.357 5.000,8.577 5.025,8.823 5.050,9.069 5.076,9.314 5.101,9.560 5.126,9.806 5.151,10.051 5.176,10.297 5.202,10.543 5.277,10.832 5.353,11.122 5.428,11.412 5.504,11.701 5.579,11.991 5.655,12.281 5.731,12.571 5.806,12.860 5.938,13.068 6.071,13.276 6.203,13.484 6.335,13.692 6.468,13.900 6.600,14.107 6.732,14.315 6.864,14.523 7.211,14.769 7.557,15.014 7.904,15.260 8.250,15.506 8.596,15.751 8.943,15.997 9.289,16.242 9.636,16.488 9.831,16.620 10.026,16.753 10.221,16.885 10.417,17.017 10.612,17.149 10.807,17.282 11.002,17.414 11.198,17.546 11.324,17.565 11.449,17.584 11.575,17.603 11.701,17.622 11.827,17.641 11.953,17.660 12.079,17.678 12.205,17.697 12.558,17.729 12.911,17.760 13.263,17.792 13.616,17.823 13.969,17.855 14.322,17.886 14.674,17.918 15.027,17.949 15.178,17.937 15.329,17.924 15.480,17.912 15.632,17.899 15.783,17.886 15.934,17.874 16.085,17.861 16.236,17.849 16.652,17.867 17.068,17.886 17.483,17.905 17.899,17.924 18.315,17.943 18.730,17.962 19.146,17.981 19.562,18.000 19.744,18.063 19.927,18.126 20.110,18.189 20.292,18.252 20.475,18.315 20.658,18.378 20.840,18.441 21.023,18.504 21.243,18.655 21.464,18.806 21.684,18.957 21.905,19.108 22.125,19.259 22.346,19.410 22.566,19.562 22.786,19.713 22.925,19.814 23.064,19.914 23.202,20.015 23.341,20.116 23.479,20.217 23.618,20.317 23.756,20.418 23.895,20.519 24.103,20.727 24.311,20.935 24.518,21.142 24.726,21.350 24.934,21.558 25.142,21.766 25.350,21.974 25.558,22.182 25.759,22.453 25.961,22.723 26.162,22.994 26.364,23.265 26.565,23.536 26.767,23.807 26.969,24.078 27.170,24.348 27.340,24.625 27.510,24.903 27.680,25.180 27.850,25.457 28.020,25.734 28.190,26.011 28.360,26.288 28.531,26.565 28.713,26.975 28.896,27.384 29.078,27.794 29.261,28.203 29.444,28.612 29.626,29.022 29.809,29.431 29.992,29.840 30.099,30.029 30.206,30.218 30.313,30.407 30.420,30.596 30.527,30.785 30.634,30.974 30.741,31.163 30.848,31.352 31.025,31.743 31.201,32.133 31.377,32.524 31.554,32.914 31.730,33.305 31.906,33.695 32.083,34.086 32.259,34.476 32.391,34.747 32.524,35.018 32.656,35.289 32.788,35.559 32.920,35.830 33.053,36.101 33.185,36.372 33.317,36.643 33.449,36.920 33.582,37.197 33.714,37.474 33.846,37.751 33.979,38.028 34.111,38.305 34.243,38.583 34.375,38.860 34.659,39.414 34.942,39.968 35.226,40.522 35.509,41.077 35.792,41.631 36.076,42.185 36.359,42.739 36.643,43.294 36.731,43.451 36.819,43.609 36.907,43.766 36.995,43.924 37.084,44.081 37.172,44.238 37.260,44.396 37.348,44.553 37.638,44.982 37.928,45.410 38.217,45.838 38.507,46.266 38.797,46.695 39.086,47.123 39.376,47.551 39.666,47.980 39.842,48.238 40.019,48.496 40.195,48.754 40.371,49.013 40.548,49.271 40.724,49.529 40.900,49.787 41.077,50.045 41.234,50.310 41.392,50.575 41.549,50.839 41.707,51.104 41.864,51.368 42.021,51.633 42.179,51.897 42.336,52.162 42.488,52.458 42.639,52.754 42.790,53.050 42.941,53.346 43.092,53.642 43.243,53.938 43.395,54.234 43.546,54.530 43.728,54.864 43.911,55.197 44.094,55.531 44.276,55.865 44.459,56.199 44.642,56.533 44.824,56.867 45.007,57.200 45.202,57.534 45.397,57.868 45.593,58.202 45.788,58.536 45.983,58.869 46.178,59.203 46.374,59.537 46.569,59.871 46.808,60.287 47.048,60.702 47.287,61.118 47.526,61.534 47.766,61.949 48.005,62.365 48.244,62.781 48.484,63.196 48.691,63.492 48.899,63.788 49.107,64.084 49.315,64.380 49.523,64.676 49.731,64.972 49.938,65.268 50.146,65.565 50.297,65.848 50.449,66.131 50.600,66.415 50.751,66.698 50.902,66.982 51.053,67.265 51.204,67.548 51.356,67.832 51.500,68.128 51.645,68.424 51.790,68.720 51.935,69.016 52.080,69.312 52.225,69.608 52.370,69.904 52.514,70.200 52.735,70.584 52.955,70.968 53.176,71.353 53.396,71.737 53.617,72.121 53.837,72.505 54.058,72.889 54.278,73.274 54.410,73.589 54.543,73.903 54.675,74.218 54.807,74.533 54.939,74.848 55.072,75.163 55.204,75.478 55.336,75.793 55.512,76.221 55.689,76.650 55.865,77.078 56.042,77.506 56.218,77.934 56.394,78.363 56.571,78.791 56.747,79.219 56.911,79.578 57.074,79.937 57.238,80.296 57.402,80.655 57.566,81.014 57.729,81.373 57.893,81.732 58.057,82.091 58.177,82.305 58.296,82.520 58.416,82.734 58.536,82.948 58.655,83.162 58.775,83.376 58.895,83.590 59.014,83.804 59.191,84.189 59.367,84.573 59.543,84.957 59.720,85.341 59.896,85.725 60.072,86.110 60.249,86.494 60.425,86.878 60.501,87.042 60.576,87.206 60.652,87.369 60.727,87.533 60.803,87.697 60.879,87.861 60.954,88.024 61.030,88.188 61.187,88.516 61.345,88.843 61.502,89.171 61.660,89.498 61.817,89.826 61.975,90.153 62.132,90.481 62.289,90.808 62.415,91.192 62.541,91.577 62.667,91.961 62.793,92.345 62.919,92.729 63.045,93.113 63.171,93.498 63.297,93.882 63.417,94.134 63.537,94.386 63.656,94.638 63.776,94.889 63.896,95.141 64.015,95.393 64.135,95.645 64.255,95.897 64.450,96.307 64.645,96.716 64.840,97.125 65.036,97.535 65.231,97.944 65.426,98.354 65.621,98.763 65.817,99.172 66.018,99.519 66.220,99.865 66.421,100.212 66.623,100.558 66.824,100.904 67.026,101.251 67.227,101.597 67.429,101.944 67.637,102.347 67.845,102.750 68.052,103.153 68.260,103.556 68.468,103.959 68.676,104.362 68.884,104.765 69.092,105.168 69.205,105.389 69.318,105.609 69.432,105.830 69.545,106.050 69.658,106.271 69.772,106.491 69.885,106.711 69.999,106.932 70.194,107.316 70.389,107.700 70.584,108.084 70.780,108.469 70.975,108.853 71.170,109.237 71.365,109.621 71.561,110.005 71.668,110.245 71.775,110.484 71.882,110.723 71.989,110.963 72.096,111.202 72.203,111.441 72.310,111.681 72.417,111.920 72.575,112.273 72.732,112.626 72.890,112.978 73.047,113.331 73.204,113.684 73.362,114.036 73.519,114.389 73.677,114.742 73.803,115.069 73.929,115.397 74.055,115.724 74.181,116.052 74.307,116.379 74.433,116.707 74.559,117.034 74.685,117.362 74.785,117.582 74.886,117.803 74.987,118.023 75.088,118.244 75.188,118.464 75.289,118.684 75.390,118.905 75.491,119.125 75.629,119.314 75.768,119.503 75.906,119.692 76.045,119.881 76.184,120.070 76.322,120.259 76.461,120.448 76.599,120.637 76.876,120.807 77.153,120.977 77.431,121.147 77.708,121.317 77.985,121.487 78.262,121.657 78.539,121.827 78.816,121.997 79.169,122.079 79.522,122.161 79.874,122.243 80.227,122.325 80.580,122.407 80.932,122.489 81.285,122.571 81.638,122.652 81.833,122.709 82.028,122.766 82.224,122.823 82.419,122.879 82.614,122.936 82.809,122.993 83.005,123.049 83.200,123.106 83.584,123.219 83.968,123.333 84.352,123.446 84.737,123.560 85.121,123.673 85.505,123.786 85.889,123.900 86.273,124.013 86.557,124.082 86.840,124.152 87.124,124.221 87.407,124.290 87.691,124.359 87.974,124.429 88.257,124.498 88.541,124.567 88.824,124.674 89.108,124.781 89.391,124.888 89.675,124.996 89.958,125.103 90.241,125.210 90.525,125.317 90.808,125.424 91.022,125.481 91.237,125.537 91.451,125.594 91.665,125.651 91.879,125.707 92.093,125.764 92.307,125.821 92.521,125.877 92.899,126.003 93.277,126.129 93.655,126.255 94.033,126.381 94.411,126.507 94.789,126.633 95.167,126.759 95.545,126.885 95.677,127.011 95.809,127.137 95.941,127.263 96.074,127.389 96.206,127.515 96.338,127.641 96.470,127.767 96.603,127.893 96.659,128.107 96.716,128.321 96.773,128.535 96.829,128.749 96.886,128.964 96.943,129.178 97.000,129.392 97.056,129.606 96.918,129.864 96.779,130.122 96.641,130.381 96.502,130.639 96.363,130.897 96.225,131.155 96.086,131.414 95.948,131.672 95.784,131.943 95.620,132.214 95.457,132.484 95.293,132.755 95.129,133.026 94.965,133.297 94.801,133.568 94.638,133.838 94.480,134.053 94.323,134.267 94.165,134.481 94.008,134.695 93.850,134.909 93.693,135.123 93.536,135.337 93.378,135.552 93.221,135.879 93.063,136.207 92.906,136.534 92.748,136.862 92.591,137.189 92.433,137.517 92.276,137.844 92.118,138.172 91.936,138.417 91.753,138.663 91.570,138.909 91.388,139.154 91.205,139.400 91.022,139.646 90.840,139.891 90.657,140.137 90.500,140.382 90.342,140.628 90.185,140.874 90.027,141.119 89.870,141.365 89.712,141.611 89.555,141.856 89.398,142.102 89.272,142.360 89.146,142.618 89.020,142.877 88.894,143.135 88.768,143.393 88.642,143.651 88.516,143.909 88.390,144.168 88.333,144.432 88.276,144.697 88.220,144.961 88.163,145.226 88.106,145.490 88.050,145.755 87.993,146.019 87.936,146.284 88.018,146.700 88.100,147.115 88.182,147.531 88.264,147.947 88.346,148.362 88.427,148.778 88.509,149.194 88.591,149.609 88.768,149.849 88.944,150.088 89.120,150.327 89.297,150.567 89.473,150.806 89.649,151.045 89.826,151.285 90.002,151.524 90.147,151.719 90.292,151.915 90.437,152.110 90.582,152.305 90.726,152.500 90.871,152.696 91.016,152.891 91.161,153.086 91.325,153.262 91.488,153.439 91.652,153.615 91.816,153.792 91.980,153.968 92.143,154.144 92.307,154.321 92.471,154.497 92.754,154.554 93.038,154.610 93.321,154.667 93.605,154.724 93.888,154.780 94.172,154.837 94.455,154.894 94.738,154.951 95.129,154.957 95.519,154.963 95.910,154.969 96.300,154.975 96.691,154.981 97.081,154.988 97.472,154.994 97.862,155.000 98.177,154.981 98.492,154.962 98.807,154.943 99.122,154.924 99.437,154.906 99.752,154.887 100.067,154.868 100.382,154.849 100.539,154.836 100.697,154.824 100.854,154.811 101.012,154.798 101.169,154.786 101.326,154.773 101.484,154.761 101.641,154.748 101.881,154.528 102.120,154.307 102.359,154.087 102.599,153.866 102.838,153.646 103.077,153.426 103.317,153.205 103.556,152.985 103.663,152.676 103.770,152.367 103.877,152.059 103.984,151.750 104.091,151.442 104.198,151.133 104.306,150.824 104.413,150.516 104.557,150.138 104.702,149.760 104.847,149.382 104.992,149.004 105.137,148.626 105.282,148.248 105.427,147.870 105.571,147.493 105.760,147.121 105.949,146.749 106.138,146.378 106.327,146.006 106.516,145.635 106.705,145.263 106.894,144.891 107.083,144.520 107.297,144.217 107.511,143.915 107.726,143.613 107.940,143.310 108.154,143.008 108.368,142.706 108.582,142.404 108.796,142.101 109.036,141.793 109.275,141.484 109.514,141.175 109.754,140.867 109.993,140.558 110.232,140.249 110.472,139.941 110.711,139.632 110.919,139.355 111.127,139.078 111.334,138.801 111.542,138.524 111.750,138.247 111.958,137.969 112.166,137.692 112.374,137.415 112.789,137.006 113.205,136.596 113.621,136.187 114.036,135.778 114.452,135.368 114.868,134.959 115.283,134.549 115.699,134.140 115.831,134.027 115.964,133.913 116.096,133.800 116.228,133.687 116.361,133.573 116.493,133.460 116.625,133.347 116.757,133.233 117.116,132.988 117.475,132.742 117.834,132.496 118.193,132.251 118.552,132.005 118.911,131.759 119.270,131.514 119.629,131.268 119.806,131.174 119.982,131.079 120.158,130.985 120.335,130.890 120.511,130.796 120.687,130.701 120.864,130.607 121.040,130.512 121.361,130.443 121.683,130.374 122.004,130.304 122.325,130.235 122.646,130.166 122.967,130.097 123.289,130.027 123.610,129.958 123.862,129.983 124.114,130.008 124.366,130.034 124.618,130.059 124.870,130.084 125.121,130.109 125.373,130.135 125.625,130.160 125.896,130.223 126.167,130.286 126.438,130.349 126.709,130.412 126.979,130.474 127.250,130.537 127.521,130.600 127.792,130.663 128.258,130.833 128.724,131.003 129.190,131.174 129.656,131.344 130.122,131.514 130.588,131.684 131.054,131.854 131.521,132.024 132.157,132.213 132.793,132.402 133.429,132.591 134.065,132.780 134.701,132.969 135.337,133.157 135.973,133.346 136.610,133.535 137.032,133.680 137.454,133.825 137.876,133.970 138.298,134.115 138.720,134.260 139.142,134.405 139.563,134.549 139.985,134.694 140.156,134.745 140.326,134.795 140.496,134.845 140.666,134.896 140.836,134.946 141.006,134.997 141.176,135.047 141.346,135.097 141.491,135.173 141.636,135.248 141.781,135.324 141.925,135.400 142.070,135.475 142.215,135.551 142.360,135.626 142.505,135.702 142.681,135.771 142.858,135.840 143.034,135.910 143.210,135.979 143.387,136.048 143.563,136.118 143.739,136.187 143.916,136.257" fill="none" stroke="black" stroke-width="1"/>
</svg>
