<?xml version="1.0" encoding="UTF-8"?>
<svg xmlns="http://www.w3.org/2000/svg" width="130.8" height="160.0" viewBox="0 0 130.8 160.0">
  <polyline points="125.780,151.503 125.540,151.263 125.300,151.023 125.060,150.783 124.819,150.542 124.825,150.308 124.831,150.074 124.837,149.840 124.843,149.606 124.849,149.372 124.855,149.138 124.861,148.904 124.867,148.670 124.879,148.393 124.891,148.115 124.904,147.838 124.916,147.561 124.928,147.284 124.941,147.007 124.953,146.730 124.965,146.452 124.602,146.089 124.239,145.725 123.875,145.362 123.512,144.999 122.440,145.023 121.368,145.048 120.296,145.072 119.225,145.097 118.153,145.122 117.081,145.146 116.009,145.171 114.937,145.196 113.638,145.183 112.338,145.171 111.038,145.159 109.739,145.146 108.439,145.134 107.139,145.121 105.839,145.109 104.540,145.097 103.357,145.060 102.174,145.023 100.992,144.986 99.809,144.949 98.626,144.912 97.444,144.875 96.261,144.838 95.078,144.801 93.976,144.715 92.873,144.629 91.771,144.542 90.668,144.456 89.565,144.370 88.463,144.284 87.360,144.197 86.258,144.111 85.278,143.970 84.299,143.828 83.319,143.686 82.340,143.544 81.361,143.403 80.381,143.261 79.402,143.119 78.422,142.978 77.825,142.811 77.227,142.645 76.630,142.479 76.032,142.313 75.435,142.146 74.837,141.980 74.240,141.814 73.642,141.647 72.718,141.370 71.795,141.093 70.871,140.816 69.947,140.539 69.023,140.261 68.099,139.984 67.175,139.707 66.251,139.430 65.228,139.029 64.206,138.629 63.183,138.229 62.161,137.828 61.138,137.428 60.116,137.027 59.093,136.627 58.071,136.227 57.529,135.956 56.986,135.685 56.444,135.414 55.902,135.143 55.360,134.872 54.818,134.601 54.276,134.330 53.734,134.058 53.087,133.510 52.441,132.962 51.794,132.414 51.147,131.866 50.500,131.317 49.854,130.769 49.207,130.221 48.560,129.673 47.728,129.032 46.897,128.392 46.065,127.751 45.234,127.110 44.402,126.470 43.571,125.829 42.739,125.188 41.907,124.548 41.489,124.147 41.070,123.747 40.651,123.347 40.232,122.946 39.813,122.546 39.394,122.146 38.975,121.745 38.557,121.345 38.162,120.926 37.768,120.507 37.374,120.088 36.980,119.669 36.585,119.250 36.191,118.832 35.797,118.413 35.403,117.994 35.138,117.711 34.873,117.427 34.608,117.144 34.343,116.860 34.078,116.577 33.814,116.294 33.549,116.010 33.284,115.727 32.859,115.154 32.434,114.581 32.009,114.009 31.584,113.436 31.159,112.863 30.734,112.290 30.309,111.717 29.884,111.144 29.298,110.350 28.713,109.555 28.128,108.760 27.543,107.966 26.958,107.171 26.373,106.377 25.787,105.582 25.202,104.787 24.765,104.091 24.328,103.395 23.890,102.699 23.453,102.003 23.016,101.307 22.578,100.611 22.141,99.915 21.703,99.219 21.408,98.461 21.112,97.704 20.816,96.946 20.521,96.188 20.225,95.431 19.929,94.673 19.634,93.915 19.338,93.158 19.129,92.332 18.919,91.507 18.710,90.682 18.500,89.856 18.291,89.031 18.082,88.205 17.872,87.380 17.663,86.555 17.459,85.483 17.256,84.411 17.053,83.339 16.850,82.267 16.646,81.196 16.443,80.124 16.240,79.052 16.037,77.980 15.963,77.204 15.889,76.428 15.815,75.652 15.741,74.876 15.667,74.100 15.593,73.323 15.519,72.547 15.445,71.771 15.390,70.773 15.334,69.775 15.279,68.778 15.223,67.780 15.168,66.782 15.113,65.784 15.057,64.786 15.002,63.788 14.952,62.963 14.903,62.137 14.854,61.312 14.805,60.487 14.755,59.661 14.706,58.836 14.657,58.010 14.607,57.185 14.644,56.477 14.681,55.768 14.718,55.060 14.755,54.351 14.792,53.643 14.829,52.935 14.866,52.226 14.903,51.518 14.940,50.693 14.977,49.867 15.014,49.042 15.051,48.216 15.088,47.391 15.125,46.565 15.162,45.740 15.199,44.915 15.248,44.028 15.297,43.141 15.347,42.254 15.396,41.367 15.445,40.480 15.494,39.593 15.544,38.706 15.593,37.819 15.624,37.141 15.655,36.464 15.685,35.786 15.716,35.108 15.747,34.431 15.778,33.753 15.809,33.076 15.839,32.398 15.815,30.988 15.790,29.577 15.766,28.166 15.741,26.756 15.716,25.345 15.692,23.935 15.667,22.524 15.642,21.113 15.040,20.966 14.930,20.325 14.819,19.685 14.708,19.044 14.597,18.404 14.486,17.763 14.375,17.122 14.264,16.482 14.141,15.934 14.018,15.385 13.895,14.837 13.771,14.289 13.648,13.741 13.525,13.192 13.402,12.644 13.279,12.096 12.952,11.437 12.626,10.778 12.299,10.119 11.973,9.460 11.646,8.801 11.320,8.141 10.993,7.482 10.667,6.823 10.297,6.595 9.928,6.367 9.558,6.140 9.189,5.912 8.819,5.684 8.449,5.456 8.080,5.228 7.710,5.000 7.489,5.037 7.267,5.074 7.045,5.111 6.823,5.148 6.602,5.185 6.380,5.222 6.158,5.259 5.936,5.296 5.819,5.573 5.702,5.850 5.585,6.127 5.468,6.404 5.351,6.682 5.234,6.959 5.117,7.236 5.000,7.513 5.308,8.049 5.616,8.585 5.924,9.121 6.232,9.657 6.540,10.193 6.848,10.729 7.156,11.264 7.464,11.800 7.550,12.318 7.636,12.835 7.723,13.353 7.809,13.870 7.895,14.387 7.981,14.905 8.068,15.422 8.154,15.940 8.222,16.636 8.289,17.332 8.357,18.028 8.425,18.724 8.493,19.420 8.560,20.116 8.628,20.812 8.696,21.508 8.690,21.964 8.684,22.420 8.677,22.876 8.671,23.331 8.665,23.787 8.659,24.243 8.653,24.699 8.647,25.155 8.678,25.771 8.708,26.387 8.739,27.003 8.770,27.619 8.801,28.235 8.832,28.851 8.862,29.466 8.893,30.082 8.955,30.409 9.016,30.735 9.078,31.062 9.140,31.388 9.201,31.715 9.263,32.041 9.324,32.368 9.386,32.694 9.460,33.082 9.534,33.470 9.608,33.858 9.682,34.246 9.755,34.635 9.829,35.023 9.903,35.411 9.977,35.799 9.885,36.211 9.792,36.624 9.700,37.037 9.608,37.450 9.515,37.862 9.423,38.275 9.330,38.688 9.238,39.100 9.164,39.735 9.090,40.369 9.016,41.004 8.942,41.638 8.868,42.273 8.795,42.907 8.721,43.542 8.647,44.176 8.597,44.749 8.548,45.322 8.499,45.895 8.450,46.467 8.400,47.040 8.351,47.613 8.302,48.186 8.253,48.759 8.203,49.837 8.154,50.915 8.105,51.993 8.055,53.071 8.006,54.149 7.957,55.227 7.908,56.304 7.858,57.382 7.908,58.017 7.957,58.651 8.006,59.286 8.055,59.920 8.105,60.555 8.154,61.189 8.203,61.824 8.253,62.458 8.450,62.982 8.647,63.505 8.844,64.029 9.041,64.552 9.238,65.076 9.435,65.600 9.632,66.123 9.829,66.647 9.780,67.201 9.731,67.755 9.682,68.310 9.632,68.864 9.583,69.419 9.534,69.973 9.484,70.527 9.435,71.082 9.546,72.086 9.657,73.090 9.768,74.094 9.879,75.098 9.990,76.102 10.100,77.106 10.211,78.110 10.322,79.114 10.415,79.927 10.507,80.740 10.599,81.553 10.692,82.366 10.784,83.179 10.877,83.993 10.969,84.806 11.061,85.619 11.382,86.549 11.702,87.479 12.022,88.409 12.343,89.339 12.663,90.269 12.983,91.199 13.304,92.130 13.624,93.060 13.735,93.571 13.846,94.082 13.956,94.593 14.067,95.105 14.178,95.616 14.289,96.127 14.400,96.638 14.511,97.150 14.874,97.969 15.238,98.788 15.601,99.607 15.965,100.427 16.328,101.246 16.691,102.065 17.055,102.884 17.418,103.704 17.800,104.615 18.182,105.527 18.564,106.439 18.946,107.350 19.328,108.262 19.710,109.174 20.092,110.085 20.473,110.997 21.003,111.804 21.533,112.611 22.063,113.418 22.592,114.225 23.122,115.031 23.652,115.838 24.182,116.645 24.711,117.452 25.173,117.625 25.635,117.797 26.097,117.970 26.559,118.142 27.021,118.315 27.483,118.487 27.945,118.660 28.407,118.832 28.518,119.171 28.629,119.510 28.740,119.848 28.851,120.187 28.962,120.526 29.072,120.865 29.183,121.204 29.294,121.542 29.442,121.752 29.590,121.961 29.738,122.171 29.886,122.380 30.033,122.589 30.181,122.799 30.329,123.008 30.477,123.218 30.791,123.544 31.105,123.871 31.419,124.197 31.733,124.524 32.048,124.850 32.362,125.177 32.676,125.503 32.990,125.830 33.507,126.328 34.025,126.827 34.542,127.326 35.060,127.825 35.577,128.324 36.095,128.823 36.612,129.322 37.129,129.821 37.265,129.981 37.400,130.141 37.536,130.301 37.671,130.462 37.807,130.622 37.942,130.782 38.078,130.942 38.214,131.102 38.521,131.188 38.829,131.275 39.137,131.361 39.445,131.447 39.753,131.533 40.061,131.620 40.369,131.706 40.677,131.792 40.899,132.174 41.121,132.556 41.343,132.938 41.564,133.320 41.786,133.702 42.008,134.084 42.230,134.465 42.451,134.847 42.685,135.063 42.920,135.279 43.154,135.494 43.388,135.710 43.622,135.925 43.856,136.141 44.090,136.357 44.324,136.572 44.638,136.769 44.952,136.966 45.266,137.163 45.581,137.361 45.895,137.558 46.209,137.755 46.523,137.952 46.837,138.149 47.459,138.469 48.081,138.790 48.704,139.110 49.326,139.430 49.948,139.751 50.570,140.071 51.192,140.391 51.814,140.711 52.307,140.952 52.800,141.192 53.293,141.432 53.785,141.672 54.278,141.913 54.771,142.153 55.264,142.393 55.756,142.633 56.422,142.978 57.087,143.323 57.752,143.668 58.417,144.013 59.083,144.358 59.748,144.703 60.413,145.048 61.078,145.393 61.713,145.689 62.347,145.984 62.982,146.280 63.616,146.576 64.251,146.871 64.885,147.167 65.520,147.463 66.154,147.758 66.936,148.048 67.719,148.337 68.501,148.627 69.283,148.916 70.066,149.206 70.848,149.495 71.630,149.785 72.412,150.074 73.145,150.302 73.878,150.530 74.611,150.758 75.344,150.986 76.077,151.214 76.810,151.442 77.543,151.670 78.276,151.898 79.096,151.941 79.915,151.984 80.734,152.027 81.553,152.070 82.373,152.113 83.192,152.156 84.011,152.199 84.830,152.242 85.785,152.248 86.740,152.254 87.695,152.260 88.649,152.266 89.604,152.272 90.559,152.278 91.514,152.284 92.469,152.290 93.590,152.210 94.711,152.130 95.832,152.049 96.953,151.969 98.074,151.889 99.195,151.809 100.316,151.729 101.437,151.649 102.121,151.668 102.805,151.686 103.488,151.705 104.172,151.723 104.856,151.741 105.539,151.760 106.223,151.778 106.907,151.797 107.708,152.598 108.508,153.398 109.309,154.199 110.110,155.000 111.102,154.975 112.093,154.951 113.085,154.926 114.077,154.902 115.069,154.877 116.060,154.852 117.052,154.828 118.044,154.803 118.450,154.772 118.857,154.741 119.263,154.711 119.670,154.680 120.076,154.649 120.483,154.618 120.890,154.587 121.296,154.556 121.456,154.575 121.616,154.593 121.777,154.612 121.937,154.630 122.097,154.649 122.257,154.667 122.417,154.686 125.780,151.503" fill="none" stroke="black" stroke-width="1"/>
</svg>
