<?xml version="1.0" encoding="UTF-8"?>
<svg xmlns="http://www.w3.org/2000/svg" width="164.0" height="160.0" viewBox="0 0 164.0 160.0">
  <polyline points="47.545,23.409 24.132,23.267 23.991,23.125 23.849,22.983 23.707,22.841 23.705,22.770 23.703,22.699 23.702,22.628 23.700,22.557 23.698,22.486 23.697,22.415 23.695,22.344 23.693,22.273 23.690,22.197 23.687,22.122 23.684,22.046 23.681,21.970 23.678,21.894 23.674,21.819 23.671,21.743 23.668,21.667 23.671,21.568 23.674,21.469 23.678,21.369 23.681,21.270 23.684,21.171 23.687,21.071 23.690,20.972 23.693,20.872 23.697,20.790 23.700,20.708 23.703,20.626 23.706,20.544 23.709,20.462 23.712,20.380 23.716,20.298 23.719,20.216 41.058,37.496 58.277,54.655 75.377,71.695 92.356,88.614 109.211,105.405 125.937,122.066 142.534,138.598 159.001,155.000 159.002,154.888 159.004,154.776 159.006,154.664 159.007,154.552 159.009,154.440 159.011,154.328 159.012,154.216 159.014,154.104 159.012,154.040 159.011,153.975 159.009,153.910 159.007,153.846 159.006,153.781 159.004,153.716 159.002,153.652 159.001,153.587 158.998,153.535 158.994,153.483 158.991,153.431 158.988,153.379 158.985,153.327 158.982,153.275 158.979,153.223 158.975,153.171 158.903,153.169 158.830,153.167 158.758,153.166 158.685,153.164 158.613,153.163 158.540,153.161 158.468,153.159 158.395,153.158 158.311,153.156 158.228,153.155 158.144,153.153 158.061,153.152 157.977,153.150 157.894,153.148 157.810,153.147 157.726,153.145 157.646,153.148 157.565,153.152 157.485,153.155 157.405,153.158 157.324,153.161 157.244,153.164 157.163,153.167 157.083,153.170 156.927,153.174 156.771,153.177 156.614,153.180 156.458,153.183 156.302,153.186 156.146,153.189 155.990,153.193 155.834,153.196 155.698,153.191 155.562,153.186 155.427,153.182 155.291,153.177 155.156,153.172 155.020,153.167 154.884,153.163 154.749,153.158 154.589,153.150 154.430,153.142 154.271,153.134 154.111,153.126 153.952,153.118 153.793,153.111 153.634,153.103 153.474,153.095 153.304,153.092 153.134,153.088 152.963,153.085 152.793,153.082 152.623,153.079 152.452,153.076 152.282,153.073 152.112,153.070 152.020,153.065 151.929,153.060 151.837,153.055 151.746,153.051 151.654,153.046 151.563,153.041 151.471,153.036 151.380,153.032 151.225,153.033 151.071,153.035 150.916,153.036 150.762,153.038 150.607,153.040 150.452,153.041 150.298,153.043 150.143,153.044 149.964,153.041 149.784,153.038 149.604,153.035 149.424,153.032 149.244,153.029 149.065,153.025 148.885,153.022 148.705,153.019 148.585,152.899 148.465,152.779 148.345,152.660 148.226,152.540 148.074,152.532 147.923,152.524 147.771,152.516 147.620,152.508 147.469,152.500 147.317,152.492 147.166,152.484 147.014,152.477 146.909,152.478 146.803,152.480 146.697,152.481 146.592,152.483 146.486,152.484 146.380,152.486 146.275,152.488 146.169,152.489 146.054,152.491 145.939,152.492 145.824,152.494 145.708,152.496 145.593,152.497 145.478,152.499 145.363,152.500 145.248,152.502 145.144,152.398 145.040,152.294 144.936,152.190 144.832,152.085 144.716,151.970 144.601,151.855 144.486,151.740 144.371,151.625 144.234,151.631 144.097,151.638 143.959,151.644 143.822,151.650 143.685,151.656 143.548,151.663 143.410,151.669 143.273,151.675 143.141,151.677 143.008,151.679 142.876,151.680 142.743,151.682 142.611,151.683 142.478,151.685 142.346,151.686 142.213,151.688 142.079,151.693 141.945,151.697 141.811,151.702 141.677,151.707 141.543,151.712 141.409,151.716 141.275,151.721 141.141,151.726 140.991,151.729 140.841,151.732 140.691,151.735 140.542,151.738 140.392,151.742 140.242,151.745 140.092,151.748 139.942,151.751 139.818,151.748 139.693,151.745 139.569,151.742 139.444,151.738 139.319,151.735 139.195,151.732 139.070,151.729 138.946,151.726 138.827,151.608 138.709,151.489 138.591,151.371 138.472,151.253 138.379,151.256 138.286,151.259 138.193,151.262 138.100,151.265 138.007,151.268 137.914,151.272 137.821,151.275 137.728,151.278 137.573,151.280 137.419,151.281 137.264,151.283 137.110,151.284 136.955,151.286 136.801,151.287 136.646,151.289 136.492,151.291 136.368,151.289 136.245,151.287 136.122,151.286 135.999,151.284 135.876,151.283 135.753,151.281 135.630,151.280 135.507,151.278 135.403,151.174 135.299,151.070 135.195,150.966 135.091,150.862 134.988,150.852 134.886,150.843 134.783,150.833 134.681,150.824 134.578,150.814 134.476,150.805 134.373,150.795 134.271,150.786 134.211,150.780 134.151,150.773 134.091,150.767 134.031,150.761 133.971,150.754 133.911,150.748 133.851,150.742 133.791,150.735 133.716,150.723 133.640,150.710 133.564,150.698 133.489,150.685 133.413,150.672 133.337,150.660 133.262,150.647 133.186,150.634 133.126,150.582 133.066,150.530 133.006,150.478 132.946,150.426 132.886,150.374 132.826,150.322 132.766,150.270 132.706,150.218 132.686,150.157 132.665,150.095 132.645,150.034 132.624,149.972 132.604,149.911 132.583,149.849 132.563,149.788 132.542,149.726 132.516,149.646 132.489,149.565 132.462,149.485 132.435,149.404 132.408,149.324 132.381,149.243 132.355,149.163 132.328,149.083 132.310,149.007 132.293,148.931 132.276,148.855 132.258,148.780 132.241,148.704 132.224,148.628 132.206,148.553 132.189,148.477 132.178,148.412 132.167,148.348 132.156,148.283 132.145,148.218 132.134,148.154 132.123,148.089 132.112,148.024 132.101,147.960 132.079,147.878 132.057,147.796 132.034,147.714 132.012,147.632 131.990,147.550 131.968,147.468 131.946,147.386 131.924,147.304 131.907,147.240 131.889,147.177 131.872,147.114 131.855,147.051 131.837,146.988 131.820,146.925 131.803,146.862 131.785,146.799 131.773,146.729 131.760,146.660 131.747,146.591 131.735,146.521 131.722,146.452 131.710,146.382 131.697,146.313 131.684,146.244 131.639,146.075 131.593,145.906 131.547,145.737 131.501,145.569 131.456,145.400 131.410,145.231 131.364,145.062 131.318,144.894 131.303,144.842 131.287,144.790 131.271,144.737 131.255,144.685 131.240,144.633 131.224,144.581 131.208,144.529 131.192,144.477 131.164,144.375 131.135,144.272 131.107,144.170 131.079,144.067 131.050,143.965 131.022,143.862 130.994,143.760 130.965,143.657 130.945,143.581 130.924,143.506 130.904,143.430 130.883,143.354 130.863,143.279 130.842,143.203 130.822,143.127 130.801,143.052 130.782,142.960 130.763,142.869 130.744,142.777 130.725,142.686 130.707,142.594 130.688,142.503 130.669,142.411 130.650,142.320 130.626,142.235 130.602,142.149 130.579,142.064 130.555,141.979 130.531,141.894 130.508,141.809 130.484,141.724 130.460,141.638 130.445,141.534 130.429,141.430 130.413,141.326 130.397,141.222 130.382,141.118 130.366,141.014 130.350,140.910 130.334,140.806 130.319,140.717 130.303,140.629 130.287,140.541 130.271,140.452 130.255,140.364 130.240,140.276 130.224,140.187 130.208,140.099 130.205,140.083 130.202,140.068 130.199,140.052 130.196,140.036 130.192,140.020 130.189,140.004 130.186,139.989 130.183,139.973 130.129,139.954 130.076,139.935 130.022,139.916 129.968,139.897 129.915,139.878 129.861,139.859 129.808,139.840 129.754,139.821 129.653,139.817 129.552,139.812 129.451,139.807 129.350,139.803 129.249,139.798 129.148,139.793 129.047,139.788 128.946,139.784 128.836,139.787 128.726,139.790 128.615,139.793 128.505,139.796 128.394,139.799 128.284,139.803 128.174,139.806 128.063,139.809 127.920,139.814 127.776,139.818 127.633,139.823 127.489,139.828 127.346,139.833 127.202,139.837 127.059,139.842 126.915,139.847 126.775,139.856 126.634,139.866 126.494,139.875 126.354,139.885 126.213,139.894 126.073,139.904 125.932,139.913 125.792,139.922 125.686,139.929 125.581,139.935 125.475,139.941 125.369,139.948 125.264,139.954 125.158,139.960 125.052,139.967 124.947,139.973 124.794,139.984 124.641,139.995 124.488,140.006 124.335,140.017 124.182,140.028 124.029,140.039 123.876,140.050 123.723,140.061 123.666,140.066 123.609,140.071 123.553,140.075 123.496,140.080 123.439,140.085 123.382,140.090 123.325,140.094 123.269,140.099 123.204,140.094 123.139,140.090 123.075,140.085 123.010,140.080 122.945,140.075 122.881,140.071 122.816,140.066 122.751,140.061 9.004,6.490 8.946,6.454 8.888,6.418 8.829,6.382 8.771,6.345 8.713,6.309 8.654,6.273 8.596,6.236 8.517,6.148 8.438,6.060 8.359,5.972 8.280,5.883 8.202,5.795 8.123,5.707 8.044,5.618 7.965,5.530 7.907,5.479 7.848,5.429 7.790,5.379 7.732,5.328 7.673,5.278 7.615,5.227 7.557,5.177 7.498,5.126 7.394,5.110 7.290,5.095 7.186,5.079 7.082,5.063 6.978,5.047 6.874,5.032 6.770,5.016 6.665,5.000 6.549,5.024 6.432,5.047 6.315,5.071 6.199,5.095 6.082,5.118 5.965,5.142 5.849,5.166 5.732,5.189 5.673,5.241 5.615,5.293 5.557,5.345 5.498,5.397 5.440,5.449 5.382,5.502 5.323,5.554 5.265,5.606 5.237,5.716 5.208,5.826 5.180,5.937 5.151,6.047 5.123,6.158 5.095,6.268 5.066,6.378 5.038,6.489 5.033,6.560 5.028,6.631 5.024,6.702 5.019,6.773 5.014,6.844 5.009,6.915 5.005,6.986 5.000,7.057 5.006,7.135 5.013,7.214 5.019,7.293 5.025,7.372 5.032,7.451 5.038,7.530 5.044,7.609 5.050,7.687 5.065,7.760 5.079,7.833 5.093,7.905 5.107,7.978 5.121,8.050 5.136,8.123 5.150,8.195 5.164,8.268 5.188,8.356 5.211,8.445 5.235,8.533 5.259,8.621 5.282,8.709 5.306,8.798 5.330,8.886 5.353,8.974 5.390,9.082 5.426,9.189 5.462,9.296 5.498,9.403 5.535,9.511 5.571,9.618 5.607,9.725 5.643,9.832 5.675,9.891 5.707,9.949 5.738,10.007 5.770,10.066 5.801,10.124 5.833,10.183 5.864,10.241 5.896,10.299 5.938,10.365 5.981,10.432 6.024,10.498 6.066,10.564 6.109,10.630 6.151,10.697 6.194,10.763 6.236,10.829 6.287,10.908 6.337,10.987 6.388,11.066 6.438,11.145 6.489,11.223 6.539,11.302 6.590,11.381 6.640,11.460 6.688,11.499 6.735,11.539 6.782,11.578 6.829,11.618 6.877,11.657 6.924,11.697 6.971,11.736 7.019,11.775 7.110,11.796 7.202,11.816 7.293,11.837 7.385,11.857 7.476,11.878 7.568,11.898 7.659,11.919 7.751,11.939 7.833,11.936 7.915,11.933 7.997,11.930 8.079,11.927 8.161,11.924 8.243,11.921 8.325,11.917 8.407,11.914 8.517,11.900 8.627,11.886 8.738,11.872 8.848,11.857 8.959,11.843 9.069,11.829 9.179,11.815 9.290,11.801 9.429,11.780 9.567,11.760 9.706,11.739 9.845,11.719 9.984,11.698 10.123,11.678 10.261,11.657 10.400,11.637 10.572,11.608 10.744,11.580 10.916,11.551 11.088,11.523 11.260,11.495 11.432,11.466 11.604,11.438 11.775,11.410 11.824,11.458 11.873,11.507 11.922,11.556 11.971,11.605 12.028,11.632 12.085,11.659 12.141,11.686 12.198,11.712 12.255,11.739 12.312,11.766 12.368,11.793 12.425,11.820 12.473,11.864 12.520,11.908 12.567,11.952 12.615,11.996 12.662,12.040 12.709,12.085 12.756,12.129 12.804,12.173 12.821,12.247 12.838,12.321 12.856,12.395 12.873,12.469 12.891,12.544 12.908,12.618 12.925,12.692 12.943,12.766 12.968,12.823 12.993,12.879 13.018,12.936 13.043,12.993 13.069,13.050 13.094,13.107 13.119,13.163 13.144,13.220 13.178,13.310 13.211,13.400 13.244,13.490 13.277,13.580 13.310,13.670 13.343,13.760 13.376,13.849 13.409,13.939 13.444,14.023 13.479,14.106 13.513,14.190 13.548,14.274 13.583,14.357 13.618,14.441 13.652,14.524 13.687,14.608 13.704,14.682 13.722,14.756 13.739,14.830 13.756,14.905 13.774,14.979 13.791,15.053 13.808,15.127 13.826,15.201 13.849,15.278 13.873,15.356 13.897,15.433 13.920,15.510 13.944,15.587 13.968,15.665 13.991,15.742 14.015,15.819 14.037,15.901 14.059,15.983 14.081,16.065 14.103,16.147 14.125,16.229 14.147,16.311 14.170,16.393 14.192,16.475 14.217,16.546 14.242,16.617 14.267,16.688 14.293,16.759 14.318,16.830 14.343,16.901 14.368,16.972 14.394,17.043 14.428,17.133 14.463,17.223 14.498,17.313 14.532,17.403 14.567,17.493 14.602,17.583 14.636,17.672 14.671,17.762 14.722,17.887 14.772,18.012 14.823,18.136 14.873,18.261 14.923,18.385 14.974,18.510 15.024,18.634 15.075,18.759 15.108,18.827 15.141,18.895 15.174,18.963 15.207,19.030 15.240,19.098 15.274,19.166 15.307,19.234 15.340,19.302 15.382,19.347 15.425,19.393 15.468,19.439 15.510,19.485 15.553,19.530 15.595,19.576 15.638,19.622 15.680,19.668 15.731,19.702 15.781,19.737 15.832,19.772 15.882,19.806 15.933,19.841 15.983,19.876 16.034,19.910 16.084,19.945 16.138,19.961 16.191,19.977 16.245,19.992 16.299,20.008 16.352,20.024 16.406,20.040 16.460,20.056 16.513,20.071 16.570,20.085 16.627,20.100 16.684,20.114 16.740,20.128 16.797,20.142 16.854,20.156 16.911,20.171 16.967,20.185 17.037,20.204 17.106,20.223 17.176,20.242 17.245,20.261 17.314,20.279 17.384,20.298 17.453,20.317 17.523,20.336 17.584,20.344 17.646,20.352 17.707,20.360 17.769,20.368 17.830,20.376 17.892,20.384 17.953,20.391 18.015,20.399 18.106,20.404 18.198,20.409 18.289,20.414 18.381,20.418 18.472,20.423 18.564,20.428 18.655,20.432 18.746,20.437 18.813,20.439 18.879,20.440 18.945,20.442 19.011,20.443 19.078,20.445 19.144,20.447 19.210,20.448 19.276,20.450 19.355,20.461 19.434,20.472 19.513,20.483 19.592,20.494 19.671,20.505 19.750,20.516 19.828,20.527 19.907,20.538 20.043,20.552 20.179,20.567 20.314,20.581 20.450,20.595 20.585,20.609 20.721,20.623 20.857,20.637 20.992,20.652 21.022,20.656 21.052,20.661 21.082,20.666 21.112,20.671 21.142,20.675 21.172,20.680 21.202,20.685 21.232,20.690 21.284,20.693 21.336,20.696 21.388,20.699 21.440,20.702 21.492,20.705 21.544,20.708 21.596,20.712 21.648,20.715 21.753,20.719 21.857,20.724 21.961,20.729 22.065,20.734 22.169,20.738 22.273,20.743 22.377,20.748 22.481,20.753 22.544,20.816 22.607,20.879 22.670,20.942 22.734,21.005 22.842,21.016 22.951,21.027 23.060,21.038 23.169,21.049 23.278,21.060 23.386,21.071 23.495,21.082 23.604,21.093 23.689,21.101 23.774,21.109 23.860,21.117 23.945,21.125 24.030,21.133 24.115,21.141 24.200,21.148 24.285,21.156 24.423,21.172 24.560,21.188 24.697,21.204 24.834,21.219 24.972,21.235 25.109,21.251 25.246,21.267 25.383,21.283 25.459,21.297 25.535,21.311 25.610,21.325 25.686,21.339 25.762,21.353 25.837,21.368 25.913,21.382 25.989,21.396 26.047,21.401 26.105,21.406 26.164,21.410 26.222,21.415 26.281,21.420 26.339,21.424 26.397,21.429 26.456,21.434 26.624,21.469 26.793,21.503 26.962,21.538 27.131,21.573 27.299,21.607 27.468,21.642 27.637,21.677 27.806,21.711 27.861,21.748 27.916,21.784 27.971,21.820 28.026,21.857 28.082,21.893 28.137,21.929 28.192,21.965 28.247,22.002 28.255,22.073 28.263,22.144 28.271,22.215 28.279,22.286 28.287,22.357 28.295,22.428 28.302,22.498 28.310,22.569 28.285,22.609 28.260,22.648 28.235,22.688 28.209,22.727 28.184,22.767 28.159,22.806 28.134,22.845 28.109,22.885 28.041,22.986 27.973,23.087 27.905,23.188 27.837,23.289 27.769,23.390 27.702,23.491 27.634,23.591 27.566,23.692 27.523,23.759 27.481,23.825 27.438,23.891 27.396,23.957 27.353,24.024 27.310,24.090 27.268,24.156 27.225,24.222 27.156,24.325 27.087,24.427 27.017,24.530 26.948,24.632 26.878,24.735 26.809,24.837 26.740,24.940 26.670,25.042 26.621,25.128 26.572,25.213 26.523,25.298 26.475,25.383 26.426,25.468 26.377,25.553 26.328,25.639 26.279,25.724 26.244,25.781 26.210,25.837 26.175,25.894 26.140,25.951 26.106,26.008 26.071,26.064 26.036,26.121 26.001,26.178 25.951,26.247 25.900,26.317 25.850,26.386 25.800,26.456 25.749,26.525 25.699,26.594 25.648,26.664 25.598,26.733 25.593,26.741 25.588,26.749 25.583,26.757 25.579,26.765 25.574,26.773 25.569,26.780 25.565,26.788 25.560,26.796 25.585,26.891 25.610,26.985 25.636,27.080 25.661,27.175 25.686,27.269 25.711,27.364 25.736,27.459 25.762,27.553 25.760,27.599 25.759,27.645 25.757,27.690 25.755,27.736 25.754,27.782 25.752,27.828 25.751,27.873 25.749,27.919 25.730,27.965 25.711,28.011 25.692,28.056 25.673,28.102 25.654,28.148 25.636,28.194 25.617,28.239 25.598,28.285 25.568,28.321 25.538,28.358 25.508,28.394 25.478,28.430 25.448,28.466 25.418,28.503 25.388,28.539 25.358,28.575 25.345,28.602 25.333,28.629 25.320,28.656 25.307,28.683 25.295,28.709 25.282,28.736 25.270,28.763 25.257,28.790 25.249,28.858 25.241,28.925 25.233,28.993 25.225,29.061 25.218,29.129 25.210,29.197 25.202,29.264 25.194,29.332 25.192,29.406 25.191,29.481 25.189,29.555 25.188,29.629 25.186,29.703 25.184,29.777 25.183,29.851 25.181,29.925 25.186,29.977 25.191,30.029 25.195,30.081 25.200,30.133 25.205,30.186 25.210,30.238 25.214,30.290 25.219,30.342 25.238,30.403 25.257,30.465 25.276,30.526 25.295,30.588 25.314,30.649 25.333,30.711 25.352,30.772 25.371,30.834 25.397,30.853 25.424,30.872 25.451,30.891 25.478,30.909 25.505,30.928 25.531,30.947 25.558,30.966 25.585,30.985 25.662,30.991 25.740,30.998 25.817,31.004 25.894,31.010 25.971,31.017 26.049,31.023 26.126,31.029 26.203,31.036 26.314,31.032 26.424,31.029 26.534,31.026 26.645,31.023 26.755,31.020 26.866,31.017 26.976,31.014 27.086,31.010 27.170,31.006 27.254,31.001 27.337,30.996 27.421,30.991 27.504,30.987 27.588,30.982 27.672,30.977 27.755,30.972 27.821,30.965 27.888,30.957 27.954,30.949 28.020,30.941 28.086,30.933 28.153,30.925 28.219,30.917 28.285,30.909 28.325,30.889 28.364,30.868 28.403,30.848 28.443,30.827 28.482,30.807 28.522,30.786 28.561,30.766 28.601,30.745 28.653,30.679 28.705,30.613 28.757,30.547 28.809,30.480 28.861,30.414 28.913,30.348 28.965,30.282 29.017,30.215 29.058,30.163 29.099,30.111 29.140,30.059 29.181,30.007 29.222,29.955 29.263,29.903 29.304,29.851 29.345,29.799 29.391,29.738 29.436,29.676 29.482,29.615 29.528,29.553 29.574,29.492 29.619,29.430 29.665,29.369 29.711,29.307 29.758,29.245 29.806,29.184 29.853,29.122 29.900,29.061 29.947,28.999 29.995,28.938 30.042,28.876 30.089,28.815 30.146,28.747 30.203,28.679 30.260,28.611 30.317,28.544 30.373,28.476 30.430,28.408 30.487,28.340 30.544,28.272 30.608,28.201 30.673,28.130 30.738,28.059 30.802,27.988 30.867,27.918 30.932,27.847 30.996,27.776 31.061,27.705 31.097,27.651 31.133,27.597 31.170,27.544 31.206,27.490 31.242,27.436 31.279,27.383 31.315,27.329 31.351,27.276 31.394,27.213 31.436,27.149 31.479,27.086 31.521,27.023 31.564,26.960 31.607,26.897 31.649,26.834 31.692,26.771 31.736,26.708 31.780,26.645 31.824,26.582 31.868,26.519 31.913,26.455 31.957,26.392 32.001,26.329 32.045,26.266 32.091,26.203 32.137,26.140 32.182,26.077 32.228,26.014 32.274,25.951 32.319,25.888 32.365,25.825 32.411,25.762 32.461,25.702 32.512,25.642 32.562,25.582 32.613,25.522 32.663,25.462 32.714,25.402 32.764,25.342 32.815,25.282 32.862,25.233 32.909,25.184 32.957,25.135 33.004,25.087 33.051,25.038 33.099,24.989 33.146,24.940 33.193,24.891 33.252,24.829 33.310,24.768 33.368,24.706 33.427,24.645 33.485,24.583 33.543,24.522 33.602,24.460 33.660,24.399 33.737,24.325 33.815,24.251 33.892,24.177 33.969,24.102 34.046,24.028 34.124,23.954 34.201,23.880 34.278,23.806 34.340,23.752 34.401,23.699 34.463,23.645 34.524,23.591 34.586,23.538 34.647,23.484 34.709,23.431 34.770,23.377 34.818,23.342 34.865,23.307 34.912,23.273 34.960,23.238 35.007,23.203 35.054,23.169 35.102,23.134 35.149,23.099 35.229,23.061 35.310,23.024 35.390,22.986 35.471,22.948 35.551,22.910 35.632,22.872 35.712,22.834 35.792,22.797 35.852,22.785 35.912,22.774 35.972,22.763 36.032,22.752 36.092,22.741 36.152,22.730 36.212,22.719 36.272,22.708 36.313,22.713 36.354,22.718 36.395,22.722 36.436,22.727 36.477,22.732 36.518,22.737 36.559,22.741 36.600,22.746 36.641,22.748 36.682,22.749 36.723,22.751 36.764,22.752 36.805,22.754 36.846,22.755 36.887,22.757 36.928,22.759 36.996,22.762 37.064,22.765 37.131,22.768 37.199,22.771 37.267,22.774 37.335,22.778 37.403,22.781 37.470,22.784 37.532,22.785 37.593,22.787 37.655,22.789 37.717,22.790 37.778,22.792 37.840,22.793 37.901,22.795 37.963,22.797 38.030,22.806 38.098,22.815 38.166,22.825 38.234,22.834 38.302,22.844 38.369,22.853 38.437,22.863 38.505,22.872 38.584,22.880 38.663,22.888 38.742,22.896 38.821,22.904 38.899,22.912 38.978,22.920 39.057,22.927 39.136,22.935 39.213,22.943 39.291,22.951 39.368,22.959 39.445,22.967 39.522,22.975 39.600,22.983 39.677,22.991 39.754,22.998 39.854,23.008 39.953,23.017 40.052,23.027 40.152,23.036 40.251,23.046 40.350,23.055 40.450,23.065 40.549,23.074 40.623,23.077 40.697,23.080 40.771,23.084 40.846,23.087 40.920,23.090 40.994,23.093 41.068,23.096 41.142,23.099 41.264,23.104 41.385,23.109 41.506,23.114 41.628,23.118 41.749,23.123 41.871,23.128 41.992,23.132 42.114,23.137 42.188,23.142 42.262,23.147 42.336,23.151 42.410,23.156 42.484,23.161 42.558,23.166 42.633,23.170 42.707,23.175 42.778,23.183 42.849,23.191 42.920,23.199 42.991,23.207 43.061,23.214 43.132,23.222 43.203,23.230 43.274,23.238 43.355,23.244 43.435,23.251 43.516,23.257 43.596,23.263 43.677,23.270 43.757,23.276 43.837,23.282 43.918,23.289 43.992,23.301 44.066,23.314 44.140,23.326 44.214,23.339 44.289,23.352 44.363,23.364 44.437,23.377 44.511,23.390 44.594,23.397 44.678,23.405 44.762,23.413 44.845,23.421 44.929,23.429 45.012,23.437 45.096,23.445 45.180,23.453 45.265,23.462 45.350,23.472 45.435,23.481 45.520,23.490 45.605,23.500 45.691,23.509 45.776,23.519 45.861,23.528 45.943,23.544 46.025,23.560 46.107,23.576 46.189,23.591 46.271,23.607 46.353,23.623 46.435,23.639 46.517,23.654 46.564,23.667 46.612,23.680 46.659,23.692 46.706,23.705 46.754,23.718 46.801,23.730 46.848,23.743 46.896,23.755 46.913,23.764 46.955,23.785 47.013,23.814 47.072,23.844 47.110,23.859 46.168,23.868 46.163,23.860 46.778,22.917 46.778,20.561 45.129,20.561 44.658,19.148 44.658,18.912 43.244,19.148 42.067,18.677 40.653,18.677 38.297,17.028 38.297,16.556 36.884,16.556 36.648,15.143 47.545,23.409" fill="none" stroke="black" stroke-width="1"/>
</svg>
