<?xml version="1.0" encoding="UTF-8"?>
<svg xmlns="http://www.w3.org/2000/svg" width="171.9" height="160.0" viewBox="0 0 171.9 160.0">
  <polyline points="32.656,8.963 32.654,8.930 32.653,8.897 32.651,8.865 32.649,8.832 32.647,8.799 32.646,8.766 32.644,8.733 32.642,8.700 32.643,8.670 32.644,8.640 32.645,8.610 32.645,8.580 32.646,8.549 32.647,8.519 32.648,8.489 32.649,8.459 32.647,8.431 32.645,8.404 32.644,8.376 32.642,8.349 32.640,8.321 32.638,8.294 32.636,8.266 32.635,8.239 37.718,13.299 42.755,18.313 47.747,23.281 52.691,28.203 57.574,33.047 62.379,37.812 67.106,42.500 71.754,47.109 71.704,47.108 71.655,47.106 71.605,47.104 71.555,47.102 71.505,47.100 71.456,47.099 71.406,47.097 71.356,47.095 71.297,47.097 71.237,47.099 71.178,47.100 71.118,47.102 71.059,47.104 70.999,47.106 70.940,47.108 70.880,47.109 70.823,47.111 70.765,47.113 70.707,47.115 70.650,47.116 70.592,47.118 70.534,47.120 70.476,47.122 70.419,47.124 70.313,47.018 70.207,46.912 70.102,46.807 69.996,46.701 69.964,46.669 69.932,46.637 69.900,46.605 69.868,46.573 69.821,46.526 69.774,46.479 69.727,46.432 69.680,46.385 69.574,46.380 69.467,46.376 69.360,46.372 69.254,46.367 69.147,46.363 69.041,46.358 68.934,46.354 68.828,46.349 68.796,46.351 68.764,46.353 68.732,46.355 68.700,46.356 68.668,46.358 68.636,46.360 68.604,46.362 68.572,46.364 68.523,46.365 68.474,46.367 68.426,46.369 68.377,46.371 68.328,46.372 68.279,46.374 68.230,46.376 68.181,46.378 68.108,46.380 68.034,46.381 67.960,46.383 67.887,46.385 67.813,46.387 67.739,46.388 67.666,46.390 67.592,46.392 67.534,46.390 67.477,46.388 67.419,46.387 67.361,46.385 67.303,46.383 67.246,46.381 67.188,46.380 67.130,46.378 67.075,46.381 67.020,46.385 66.965,46.388 66.910,46.392 66.855,46.396 66.800,46.399 66.745,46.403 66.690,46.406 66.633,46.404 66.576,46.403 66.520,46.401 66.463,46.399 66.406,46.397 66.349,46.396 66.292,46.394 66.235,46.392 66.174,46.394 66.113,46.396 66.052,46.397 65.990,46.399 65.929,46.401 65.868,46.403 65.807,46.404 65.745,46.406 65.682,46.405 65.619,46.404 65.556,46.404 65.493,46.403 65.430,46.402 65.367,46.401 65.304,46.400 65.241,46.399 65.175,46.396 65.110,46.392 65.044,46.388 64.978,46.385 64.913,46.381 64.847,46.378 64.781,46.374 64.716,46.371 64.666,46.321 64.616,46.271 64.566,46.222 64.517,46.172 64.461,46.116 64.405,46.060 64.349,46.004 64.293,45.948 64.215,45.946 64.137,45.945 64.059,45.943 63.981,45.941 63.902,45.939 63.824,45.937 63.746,45.936 63.668,45.934 63.596,45.936 63.524,45.937 63.452,45.939 63.380,45.941 63.308,45.943 63.237,45.945 63.165,45.946 63.093,45.948 63.038,45.947 62.983,45.946 62.928,45.945 62.873,45.945 62.818,45.944 62.762,45.943 62.707,45.942 62.652,45.941 62.573,45.944 62.494,45.946 62.415,45.949 62.336,45.952 62.257,45.954 62.178,45.957 62.099,45.960 62.020,45.962 61.943,45.960 61.866,45.957 61.789,45.954 61.711,45.952 61.634,45.949 61.557,45.946 61.480,45.944 61.402,45.941 61.354,45.943 61.307,45.945 61.259,45.946 61.211,45.948 61.163,45.950 61.115,45.952 61.067,45.953 61.019,45.955 60.937,45.954 60.856,45.954 60.774,45.953 60.692,45.952 60.610,45.951 60.529,45.950 60.447,45.949 60.365,45.948 60.331,45.947 60.296,45.946 60.262,45.946 60.227,45.945 60.192,45.944 60.158,45.943 60.123,45.942 60.088,45.941 60.035,45.940 59.982,45.939 59.929,45.938 59.875,45.938 59.822,45.937 59.769,45.936 59.716,45.935 59.662,45.934 59.605,45.938 59.547,45.941 59.489,45.945 59.432,45.948 59.374,45.952 59.316,45.955 59.258,45.959 59.201,45.962 59.108,45.960 59.016,45.957 58.924,45.954 58.831,45.952 58.739,45.949 58.647,45.946 58.554,45.944 58.462,45.941 58.412,45.944 58.363,45.946 58.313,45.949 58.263,45.952 58.213,45.954 58.164,45.957 58.114,45.960 58.064,45.962 72.441,60.291 86.722,74.524 100.907,88.661 114.996,102.702 114.915,102.704 114.835,102.706 114.754,102.708 114.673,102.710 114.592,102.711 114.511,102.713 114.431,102.715 114.350,102.717 127.680,115.982 140.880,129.118 153.951,142.124 166.892,155.000 166.806,154.996 166.720,154.993 166.634,154.989 166.548,154.986 166.462,154.982 166.376,154.979 166.290,154.975 166.203,154.972 166.122,154.965 166.040,154.959 165.958,154.953 165.877,154.947 165.795,154.941 165.713,154.934 165.632,154.928 165.550,154.922 165.371,154.917 165.191,154.913 165.012,154.909 164.833,154.904 164.653,154.900 164.474,154.895 164.295,154.891 164.115,154.886 164.059,154.883 164.003,154.879 163.948,154.876 163.892,154.872 163.836,154.869 163.780,154.865 163.724,154.862 163.668,154.858 163.614,154.854 163.560,154.849 163.505,154.845 163.451,154.840 163.397,154.836 163.343,154.831 163.289,154.827 163.235,154.822 163.153,154.822 163.071,154.821 162.990,154.820 162.908,154.819 162.826,154.818 162.745,154.817 162.663,154.816 162.581,154.815 162.515,154.812 162.448,154.808 162.382,154.805 162.315,154.801 162.248,154.798 162.182,154.794 162.115,154.791 162.049,154.787 161.944,154.788 161.839,154.789 161.734,154.790 161.630,154.791 161.525,154.791 161.420,154.792 161.315,154.793 161.211,154.794 161.144,154.791 161.077,154.789 161.011,154.786 160.944,154.783 160.878,154.781 160.811,154.778 160.744,154.775 160.678,154.773 160.567,154.774 160.456,154.775 160.345,154.775 160.234,154.776 160.123,154.777 160.012,154.778 159.901,154.779 159.790,154.780 159.715,154.775 159.641,154.771 159.566,154.766 159.492,154.762 159.417,154.758 159.343,154.753 159.268,154.749 159.193,154.744 159.151,154.738 159.108,154.732 159.066,154.726 159.023,154.719 158.980,154.713 158.938,154.707 158.895,154.701 158.853,154.695 158.796,154.690 158.739,154.686 158.682,154.681 158.625,154.677 158.568,154.672 158.512,154.668 158.455,154.664 158.398,154.659 158.363,154.652 158.327,154.645 158.291,154.638 158.256,154.631 158.220,154.624 158.185,154.616 158.149,154.609 158.114,154.602 158.072,154.590 158.030,154.577 157.989,154.565 157.947,154.553 157.905,154.540 157.864,154.528 157.822,154.515 157.780,154.503 157.753,154.486 157.725,154.469 157.698,154.452 157.670,154.435 157.643,154.418 157.615,154.402 157.587,154.385 157.560,154.368 157.535,154.332 157.510,154.297 157.485,154.261 157.461,154.226 157.436,154.190 157.411,154.155 157.386,154.119 157.361,154.084 157.347,154.041 157.333,153.999 157.318,153.956 157.304,153.913 157.290,153.871 157.276,153.828 157.262,153.785 157.247,153.743 157.240,153.706 157.233,153.670 157.226,153.634 157.219,153.597 157.212,153.561 157.205,153.524 157.198,153.488 157.191,153.452 157.182,153.406 157.173,153.361 157.164,153.316 157.155,153.271 157.146,153.225 157.137,153.180 157.128,153.135 157.120,153.089 157.115,153.050 157.111,153.011 157.106,152.972 157.102,152.933 157.097,152.894 157.093,152.855 157.089,152.816 157.084,152.777 157.070,152.747 157.056,152.717 157.041,152.686 157.027,152.656 157.013,152.626 156.999,152.596 156.985,152.566 156.970,152.535 6.294,5.286 6.275,5.266 6.255,5.247 6.236,5.227 6.216,5.208 6.197,5.188 6.177,5.169 6.158,5.149 6.085,5.131 6.012,5.112 5.939,5.093 5.866,5.075 5.794,5.056 5.721,5.037 5.648,5.019 5.575,5.000 5.550,5.001 5.524,5.002 5.498,5.003 5.472,5.004 5.447,5.004 5.421,5.005 5.395,5.006 5.369,5.007 5.337,5.020 5.305,5.034 5.273,5.047 5.241,5.060 5.210,5.074 5.178,5.087 5.146,5.100 5.114,5.114 5.099,5.144 5.085,5.174 5.071,5.204 5.057,5.234 5.043,5.265 5.028,5.295 5.014,5.325 5.000,5.355 5.002,5.436 5.004,5.517 5.005,5.597 5.007,5.678 5.009,5.759 5.011,5.840 5.012,5.921 5.014,6.001 5.020,6.069 5.027,6.136 5.033,6.204 5.039,6.271 5.045,6.339 5.051,6.406 5.058,6.474 5.064,6.541 5.072,6.575 5.080,6.609 5.088,6.642 5.096,6.676 5.104,6.710 5.112,6.744 5.120,6.777 5.128,6.811 5.140,6.855 5.153,6.898 5.165,6.942 5.178,6.985 5.190,7.029 5.202,7.072 5.215,7.116 5.227,7.159 5.236,7.191 5.245,7.223 5.254,7.255 5.263,7.287 5.272,7.319 5.281,7.351 5.289,7.383 5.298,7.415 5.318,7.460 5.337,7.505 5.357,7.551 5.376,7.596 5.396,7.641 5.415,7.686 5.435,7.732 5.455,7.777 5.469,7.798 5.483,7.820 5.497,7.841 5.511,7.862 5.526,7.883 5.540,7.905 5.554,7.926 5.568,7.947 5.592,7.982 5.616,8.017 5.640,8.051 5.664,8.086 5.688,8.121 5.712,8.155 5.736,8.190 5.760,8.224 5.794,8.258 5.827,8.292 5.861,8.326 5.895,8.359 5.929,8.393 5.962,8.427 5.996,8.461 6.030,8.494 6.083,8.513 6.136,8.532 6.190,8.550 6.243,8.569 6.296,8.587 6.349,8.606 6.403,8.625 6.456,8.643 6.487,8.652 6.518,8.661 6.549,8.670 6.580,8.679 6.611,8.688 6.642,8.697 6.673,8.706 6.705,8.714 6.753,8.721 6.802,8.727 6.851,8.733 6.900,8.739 6.949,8.746 6.998,8.752 7.046,8.758 7.095,8.764 7.161,8.776 7.227,8.787 7.292,8.799 7.358,8.810 7.424,8.822 7.489,8.833 7.555,8.845 7.621,8.856 7.660,8.864 7.699,8.871 7.738,8.878 7.777,8.885 7.816,8.892 7.855,8.899 7.894,8.906 7.933,8.913 7.982,8.920 8.031,8.928 8.080,8.935 8.129,8.942 8.177,8.949 8.226,8.956 8.275,8.963 8.324,8.970 8.382,8.976 8.441,8.983 8.500,8.989 8.558,8.995 8.617,9.001 8.675,9.007 8.734,9.014 8.793,9.020 8.854,9.027 8.915,9.034 8.976,9.041 9.038,9.048 9.099,9.055 9.160,9.062 9.221,9.070 9.283,9.077 9.343,9.087 9.403,9.098 9.464,9.109 9.524,9.119 9.585,9.130 9.645,9.141 9.705,9.151 9.766,9.162 9.825,9.165 9.885,9.169 9.944,9.173 10.004,9.176 10.063,9.180 10.123,9.183 10.182,9.187 10.241,9.190 10.340,9.202 10.439,9.213 10.537,9.225 10.636,9.236 10.734,9.248 10.833,9.260 10.931,9.271 11.030,9.283 11.051,9.285 11.072,9.288 11.094,9.291 11.115,9.293 11.136,9.296 11.158,9.299 11.179,9.301 11.200,9.304 11.260,9.310 11.319,9.316 11.379,9.323 11.438,9.329 11.498,9.335 11.557,9.341 11.617,9.347 11.676,9.354 11.720,9.362 11.763,9.370 11.807,9.378 11.850,9.386 11.894,9.394 11.937,9.402 11.981,9.410 12.024,9.418 12.063,9.425 12.102,9.432 12.141,9.439 12.180,9.446 12.219,9.453 12.259,9.460 12.298,9.467 12.337,9.474 12.410,9.481 12.484,9.489 12.558,9.496 12.631,9.503 12.705,9.510 12.779,9.517 12.852,9.524 12.926,9.531 12.958,9.537 12.990,9.542 13.022,9.547 13.054,9.553 13.086,9.558 13.118,9.563 13.150,9.568 13.182,9.574 13.333,9.593 13.484,9.613 13.635,9.632 13.785,9.652 13.936,9.671 14.087,9.691 14.238,9.711 14.389,9.730 14.440,9.735 14.490,9.741 14.541,9.746 14.592,9.751 14.642,9.757 14.693,9.762 14.743,9.767 14.794,9.773 14.826,9.775 14.858,9.778 14.890,9.781 14.922,9.783 14.954,9.786 14.986,9.789 15.018,9.791 15.050,9.794 15.108,9.803 15.167,9.812 15.225,9.821 15.284,9.830 15.343,9.838 15.401,9.847 15.460,9.856 15.518,9.865 15.543,9.871 15.568,9.877 15.593,9.884 15.618,9.890 15.643,9.896 15.668,9.902 15.692,9.909 15.717,9.915 15.767,9.925 15.817,9.936 15.866,9.947 15.916,9.957 15.966,9.968 16.016,9.979 16.065,9.989 16.115,10.000 16.129,10.006 16.143,10.012 16.158,10.019 16.172,10.025 16.186,10.031 16.200,10.037 16.214,10.043 16.229,10.050 16.248,10.061 16.268,10.073 16.287,10.084 16.307,10.096 16.326,10.107 16.346,10.119 16.365,10.130 16.385,10.142 16.399,10.162 16.413,10.183 16.428,10.203 16.442,10.224 16.456,10.244 16.470,10.265 16.484,10.285 16.499,10.305 16.505,10.337 16.511,10.369 16.517,10.401 16.523,10.433 16.530,10.465 16.536,10.497 16.542,10.529 16.548,10.561 16.532,10.628 16.516,10.694 16.500,10.761 16.484,10.827 16.468,10.894 16.452,10.961 16.436,11.027 16.420,11.094 16.403,11.126 16.385,11.158 16.367,11.190 16.349,11.222 16.332,11.254 16.314,11.285 16.296,11.317 16.278,11.349 16.258,11.406 16.238,11.463 16.217,11.520 16.197,11.577 16.176,11.633 16.156,11.690 16.135,11.747 16.115,11.804 16.090,11.849 16.065,11.894 16.040,11.940 16.016,11.985 15.991,12.030 15.966,12.076 15.941,12.121 15.916,12.166 15.890,12.212 15.865,12.258 15.839,12.305 15.813,12.351 15.787,12.397 15.762,12.443 15.736,12.489 15.710,12.535 15.700,12.575 15.689,12.614 15.678,12.653 15.668,12.692 15.657,12.731 15.646,12.770 15.636,12.809 15.625,12.848 15.629,12.909 15.632,12.970 15.636,13.032 15.639,13.093 15.643,13.154 15.646,13.216 15.650,13.277 15.653,13.338 15.662,13.370 15.671,13.402 15.680,13.434 15.689,13.466 15.698,13.498 15.707,13.530 15.716,13.562 15.724,13.594 15.738,13.619 15.751,13.643 15.764,13.668 15.778,13.693 15.791,13.718 15.804,13.743 15.818,13.768 15.831,13.793 15.875,13.804 15.920,13.816 15.964,13.827 16.009,13.839 16.053,13.850 16.097,13.862 16.142,13.873 16.186,13.885 16.211,13.886 16.236,13.887 16.261,13.888 16.285,13.888 16.310,13.889 16.335,13.890 16.360,13.891 16.385,13.892 16.424,13.931 16.463,13.970 16.502,14.009 16.541,14.048 16.573,14.046 16.605,14.045 16.637,14.043 16.669,14.041 16.701,14.039 16.733,14.038 16.765,14.036 16.797,14.034 16.834,14.031 16.871,14.029 16.909,14.026 16.946,14.023 16.983,14.021 17.021,14.018 17.058,14.015 17.095,14.013 17.110,14.001 17.125,13.990 17.140,13.978 17.156,13.967 17.171,13.955 17.186,13.943 17.201,13.932 17.216,13.920 17.227,13.872 17.237,13.824 17.248,13.777 17.259,13.729 17.269,13.681 17.280,13.633 17.290,13.585 17.301,13.537 17.314,13.489 17.326,13.441 17.338,13.393 17.351,13.345 17.363,13.297 17.376,13.249 17.388,13.201 17.401,13.153 17.417,13.108 17.433,13.063 17.448,13.018 17.464,12.972 17.480,12.927 17.496,12.882 17.512,12.836 17.528,12.791 17.543,12.764 17.557,12.738 17.571,12.711 17.585,12.685 17.599,12.658 17.614,12.631 17.628,12.605 17.642,12.578 17.665,12.540 17.688,12.502 17.711,12.464 17.734,12.425 17.757,12.387 17.781,12.349 17.804,12.311 17.827,12.273 17.843,12.237 17.859,12.202 17.875,12.166 17.891,12.131 17.907,12.095 17.923,12.060 17.939,12.024 17.955,11.989 17.970,11.963 17.985,11.937 18.000,11.911 18.015,11.886 18.030,11.860 18.045,11.834 18.060,11.808 18.075,11.783 18.096,11.747 18.116,11.712 18.137,11.676 18.157,11.641 18.177,11.605 18.198,11.570 18.218,11.534 18.239,11.499 18.263,11.465 18.288,11.431 18.313,11.397 18.338,11.364 18.363,11.330 18.388,11.296 18.413,11.262 18.437,11.229 18.465,11.190 18.493,11.150 18.520,11.111 18.548,11.072 18.575,11.033 18.603,10.994 18.630,10.955 18.658,10.916 18.691,10.886 18.725,10.856 18.759,10.826 18.793,10.795 18.826,10.765 18.860,10.735 18.894,10.705 18.928,10.675 18.952,10.665 18.975,10.655 18.999,10.645 19.023,10.636 19.047,10.626 19.071,10.616 19.095,10.606 19.119,10.597 19.127,10.593 19.135,10.589 19.143,10.586 19.151,10.582 19.159,10.579 19.167,10.575 19.175,10.572 19.183,10.568 19.347,10.565 19.512,10.563 19.676,10.560 19.840,10.557 20.004,10.555 20.169,10.552 20.333,10.549 20.497,10.547 20.562,10.531 20.627,10.515 20.692,10.499 20.756,10.483 20.821,10.467 20.886,10.451 20.951,10.435 21.016,10.419 21.053,10.404 21.090,10.389 21.127,10.374 21.165,10.359 21.202,10.343 21.239,10.328 21.277,10.313 21.314,10.298 21.383,10.272 21.452,10.245 21.522,10.218 21.591,10.192 21.660,10.165 21.729,10.138 21.799,10.112 21.868,10.085 21.910,10.072 21.951,10.059 21.993,10.045 22.035,10.032 22.076,10.019 22.118,10.005 22.160,9.992 22.202,9.979 22.288,9.958 22.374,9.938 22.460,9.917 22.546,9.897 22.632,9.877 22.718,9.856 22.804,9.836 22.891,9.815 22.945,9.806 22.999,9.798 23.053,9.789 23.107,9.780 23.161,9.771 23.216,9.762 23.270,9.753 23.324,9.744 23.403,9.740 23.482,9.735 23.561,9.731 23.640,9.726 23.719,9.722 23.798,9.718 23.877,9.713 23.956,9.709 24.004,9.701 24.052,9.693 24.100,9.685 24.148,9.677 24.196,9.669 24.244,9.661 24.292,9.653 24.339,9.645 24.432,9.629 24.524,9.613 24.616,9.597 24.709,9.581 24.801,9.565 24.893,9.549 24.986,9.533 25.078,9.517 25.162,9.505 25.247,9.494 25.331,9.482 25.415,9.471 25.500,9.459 25.584,9.448 25.668,9.436 25.753,9.425 25.860,9.412 25.968,9.400 26.075,9.387 26.182,9.375 26.290,9.362 26.397,9.350 26.505,9.338 26.612,9.325 26.688,9.318 26.763,9.311 26.839,9.304 26.914,9.297 26.989,9.290 27.065,9.283 27.140,9.275 27.216,9.268 27.288,9.265 27.360,9.261 27.432,9.258 27.504,9.254 27.575,9.251 27.647,9.247 27.719,9.244 27.791,9.240 27.841,9.290 27.891,9.339 27.940,9.389 27.990,9.439 28.057,9.434 28.123,9.430 28.190,9.426 28.256,9.421 28.323,9.417 28.390,9.412 28.456,9.408 28.523,9.403 28.611,9.399 28.700,9.394 28.789,9.390 28.878,9.386 28.967,9.381 29.055,9.377 29.144,9.372 29.233,9.368 29.378,9.365 29.522,9.362 29.667,9.360 29.812,9.357 29.956,9.355 30.101,9.352 30.246,9.349 30.391,9.347 30.444,9.348 30.497,9.350 30.550,9.352 30.604,9.354 30.657,9.355 30.710,9.357 30.763,9.359 30.817,9.361 30.862,9.406 30.907,9.451 30.953,9.497 30.998,9.542 31.090,9.538 31.182,9.535 31.275,9.531 31.367,9.528 31.459,9.524 31.552,9.521 31.644,9.517 31.736,9.513 31.768,9.514 31.800,9.515 31.832,9.516 31.864,9.517 31.896,9.518 31.928,9.519 31.960,9.520 31.992,9.520 32.008,9.518 32.024,9.515 32.040,9.512 32.056,9.510 32.072,9.507 32.088,9.505 32.104,9.502 32.656,8.963" fill="none" stroke="black" stroke-width="1"/>
</svg>
