<?xml version="1.0" encoding="UTF-8"?>
<svg xmlns="http://www.w3.org/2000/svg" width="171.5" height="160.0" viewBox="0 0 171.5 160.0">
  <polyline points="104.236,35.543 104.412,35.531 104.589,35.520 104.765,35.508 104.942,35.497 105.118,35.485 105.295,35.474 105.471,35.462 105.648,35.451 105.829,35.444 106.010,35.437 106.191,35.430 106.372,35.423 106.553,35.417 106.734,35.410 106.915,35.403 107.096,35.396 107.192,35.394 107.288,35.391 107.385,35.389 107.481,35.387 107.577,35.385 107.673,35.382 107.770,35.380 107.866,35.378 107.873,35.206 107.880,35.034 107.887,34.862 107.893,34.690 107.900,34.518 107.907,34.346 107.914,34.175 107.921,34.003 107.770,33.851 107.618,33.700 107.467,33.549 107.316,33.398 107.304,33.260 107.293,33.123 107.282,32.985 107.270,32.848 107.259,32.710 107.247,32.573 107.236,32.435 107.224,32.298 107.213,32.059 107.201,31.821 107.190,31.583 107.178,31.344 107.167,31.106 107.155,30.868 107.144,30.629 107.132,30.391 107.142,30.249 107.151,30.107 107.160,29.965 107.169,29.823 107.178,29.681 107.187,29.539 107.196,29.397 107.206,29.255 107.006,29.264 106.807,29.273 106.607,29.282 106.408,29.291 106.209,29.300 106.009,29.310 105.810,29.319 105.611,29.328 105.326,29.330 105.042,29.332 104.758,29.335 104.474,29.337 104.190,29.339 103.906,29.342 103.622,29.344 103.337,29.346 103.239,29.341 103.140,29.337 103.042,29.332 102.943,29.328 102.845,29.323 102.746,29.319 102.648,29.314 102.549,29.309 102.350,29.321 102.150,29.332 101.951,29.344 101.752,29.355 101.552,29.367 101.353,29.378 101.153,29.390 100.954,29.401 100.720,29.406 100.487,29.410 100.253,29.415 100.019,29.419 99.785,29.424 99.552,29.429 99.318,29.433 99.084,29.438 98.871,29.435 98.658,29.433 98.445,29.431 98.232,29.429 98.019,29.426 97.805,29.424 97.592,29.422 97.379,29.420 97.198,29.424 97.017,29.429 96.836,29.433 96.655,29.438 96.474,29.442 96.293,29.447 96.112,29.452 95.931,29.456 95.702,29.227 95.473,28.998 95.243,28.769 95.014,28.540 94.760,28.542 94.505,28.544 94.251,28.546 93.997,28.549 93.742,28.551 93.488,28.553 93.234,28.555 92.979,28.558 92.672,28.553 92.365,28.549 92.058,28.544 91.751,28.539 91.444,28.535 91.137,28.530 90.830,28.526 90.523,28.521 90.312,28.526 90.101,28.530 89.890,28.535 89.679,28.539 89.469,28.544 89.258,28.549 89.047,28.553 88.836,28.558 88.616,28.544 88.396,28.530 88.176,28.517 87.956,28.503 87.736,28.489 87.516,28.475 87.296,28.462 87.076,28.448 86.925,28.297 86.774,28.145 86.622,27.994 86.471,27.843 85.978,27.854 85.486,27.866 84.993,27.877 84.500,27.889 84.008,27.900 83.515,27.912 83.022,27.923 82.530,27.934 82.236,27.932 81.943,27.930 81.650,27.928 81.356,27.925 81.063,27.923 80.770,27.921 80.476,27.918 80.183,27.916 79.899,27.912 79.615,27.907 79.330,27.902 79.046,27.898 78.762,27.893 78.478,27.889 78.194,27.884 77.910,27.880 77.644,27.884 77.378,27.889 77.112,27.893 76.846,27.898 76.580,27.902 76.315,27.907 76.049,27.912 75.783,27.916 75.338,27.898 74.894,27.880 74.449,27.861 74.005,27.843 73.560,27.825 73.116,27.806 72.671,27.788 72.226,27.770 72.087,27.765 71.947,27.760 71.807,27.756 71.667,27.751 71.527,27.747 71.388,27.742 71.248,27.737 71.108,27.733 70.847,27.472 70.586,27.210 70.324,26.949 70.063,26.688 69.859,26.663 69.655,26.637 69.451,26.612 69.247,26.587 69.043,26.562 68.839,26.537 68.635,26.511 68.432,26.486 68.214,26.468 67.996,26.450 67.778,26.431 67.561,26.413 67.343,26.395 67.125,26.376 66.908,26.358 66.690,26.340 66.532,26.330 66.374,26.321 66.216,26.312 66.057,26.303 65.899,26.294 65.741,26.285 65.583,26.275 65.425,26.266 65.260,26.264 65.095,26.262 64.930,26.259 64.765,26.257 64.600,26.255 64.435,26.253 64.270,26.250 64.105,26.248 63.954,26.255 63.802,26.262 63.651,26.269 63.500,26.276 63.349,26.282 63.197,26.289 63.046,26.296 62.895,26.303 62.549,26.308 62.203,26.312 61.857,26.317 61.511,26.321 61.165,26.326 60.819,26.331 60.473,26.335 60.127,26.340 59.712,26.383 59.297,26.427 58.882,26.470 58.468,26.514 58.053,26.557 57.638,26.601 57.223,26.644 56.808,26.688 56.517,26.674 56.226,26.660 55.935,26.647 55.644,26.633 55.353,26.619 55.062,26.605 54.771,26.592 54.480,26.578 54.201,26.599 53.921,26.619 53.641,26.640 53.362,26.661 53.082,26.681 52.803,26.702 52.523,26.722 52.244,26.743 51.946,26.738 51.648,26.734 51.350,26.729 51.052,26.725 50.754,26.720 50.456,26.716 50.158,26.711 49.860,26.706 49.601,26.713 49.342,26.720 49.083,26.727 48.824,26.734 48.566,26.741 48.307,26.748 48.048,26.754 47.789,26.761 47.521,26.780 47.252,26.798 46.984,26.816 46.716,26.835 46.448,26.853 46.180,26.871 45.912,26.890 45.644,26.908 45.277,26.913 44.910,26.917 44.544,26.922 44.177,26.926 43.810,26.931 43.444,26.936 43.077,26.940 42.710,26.945 42.438,26.954 42.165,26.963 41.892,26.972 41.620,26.981 41.347,26.991 41.074,27.000 40.802,27.009 40.529,27.018 40.197,27.036 39.864,27.055 39.532,27.073 39.200,27.091 38.867,27.110 38.535,27.128 38.203,27.146 37.871,27.165 70.824,59.852 103.246,92.008 135.136,123.632 166.494,154.725 166.244,154.730 165.995,154.734 165.745,154.739 165.495,154.743 165.245,154.748 164.995,154.752 164.746,154.757 164.496,154.762 164.271,154.773 164.047,154.785 163.822,154.796 163.598,154.807 163.373,154.819 163.148,154.830 162.924,154.842 162.699,154.853 162.532,154.862 162.365,154.872 162.197,154.881 162.030,154.890 161.863,154.899 161.696,154.908 161.528,154.917 161.361,154.927 161.159,154.936 160.958,154.945 160.756,154.954 160.554,154.963 160.353,154.972 160.151,154.982 159.949,154.991 159.748,155.000 26.857,29.351 26.679,29.300 26.500,29.250 26.321,29.199 26.142,29.149 25.964,29.099 25.785,29.048 25.606,28.998 25.427,28.929 25.249,28.860 25.070,28.792 24.891,28.723 24.712,28.654 24.534,28.585 24.355,28.517 24.176,28.448 24.048,28.370 23.920,28.292 23.791,28.214 23.663,28.136 23.535,28.058 23.406,27.980 23.278,27.902 23.150,27.824 23.003,27.737 22.856,27.650 22.710,27.563 22.563,27.476 22.416,27.389 22.270,27.302 22.123,27.215 21.976,27.128 21.894,27.075 21.811,27.022 21.729,26.970 21.646,26.917 21.564,26.864 21.481,26.812 21.399,26.759 21.316,26.706 21.181,26.598 21.046,26.491 20.911,26.383 20.775,26.275 20.640,26.168 20.505,26.060 20.370,25.952 20.235,25.844 20.083,25.691 19.932,25.537 19.781,25.384 19.630,25.230 19.478,25.077 19.327,24.923 19.176,24.770 19.025,24.616 18.908,24.511 18.791,24.405 18.674,24.300 18.557,24.195 18.440,24.089 18.323,23.984 18.207,23.878 18.090,23.773 17.996,23.656 17.902,23.539 17.808,23.422 17.714,23.305 17.620,23.189 17.526,23.072 17.432,22.955 17.338,22.838 17.276,22.739 17.214,22.641 17.152,22.542 17.091,22.444 17.029,22.345 16.967,22.247 16.905,22.148 16.843,22.050 16.763,21.928 16.683,21.807 16.602,21.685 16.522,21.564 16.442,21.442 16.362,21.321 16.282,21.199 16.201,21.078 16.119,20.963 16.036,20.849 15.954,20.734 15.871,20.620 15.789,20.505 15.706,20.390 15.624,20.276 15.541,20.161 15.475,20.012 15.409,19.863 15.342,19.714 15.276,19.565 15.209,19.417 15.143,19.268 15.076,19.119 15.010,18.970 14.962,18.846 14.914,18.722 14.865,18.598 14.817,18.475 14.769,18.351 14.721,18.227 14.673,18.103 14.625,17.980 14.577,17.844 14.529,17.709 14.480,17.574 14.432,17.439 14.384,17.304 14.336,17.168 14.288,17.033 14.240,16.898 14.215,16.806 14.189,16.715 14.164,16.623 14.139,16.531 14.114,16.440 14.089,16.348 14.063,16.256 14.038,16.165 14.011,16.011 13.983,15.858 13.956,15.704 13.928,15.551 13.901,15.397 13.873,15.243 13.846,15.090 13.818,14.936 13.807,14.863 13.795,14.790 13.784,14.716 13.772,14.643 13.761,14.570 13.749,14.496 13.738,14.423 13.726,14.350 13.720,14.221 13.713,14.093 13.706,13.965 13.699,13.836 13.692,13.708 13.685,13.580 13.678,13.451 13.671,13.323 13.752,13.160 13.832,12.998 13.912,12.835 13.992,12.672 14.073,12.510 14.153,12.347 14.233,12.184 14.313,12.021 14.361,11.884 14.409,11.746 14.458,11.609 14.506,11.472 14.554,11.334 14.602,11.197 14.650,11.059 14.698,10.922 14.703,10.676 14.707,10.431 14.712,10.186 14.716,9.941 14.721,9.696 14.726,9.450 14.730,9.205 14.735,8.960 14.723,8.889 14.712,8.818 14.700,8.747 14.689,8.676 14.677,8.605 14.666,8.534 14.655,8.463 14.643,8.392 14.611,8.252 14.579,8.112 14.547,7.972 14.515,7.832 14.483,7.693 14.451,7.553 14.419,7.413 14.386,7.273 14.322,7.145 14.258,7.017 14.194,6.888 14.130,6.760 14.066,6.632 14.001,6.503 13.937,6.375 13.873,6.247 13.768,6.141 13.662,6.036 13.557,5.930 13.451,5.825 13.346,5.720 13.241,5.614 13.135,5.509 13.030,5.403 12.890,5.364 12.750,5.325 12.610,5.286 12.471,5.247 12.331,5.209 12.191,5.170 12.051,5.131 11.912,5.092 11.701,5.080 11.490,5.069 11.279,5.057 11.068,5.046 10.857,5.034 10.647,5.023 10.436,5.011 10.225,5.000 10.042,5.018 9.858,5.037 9.675,5.055 9.492,5.073 9.308,5.092 9.125,5.110 8.942,5.128 8.758,5.147 8.589,5.190 8.419,5.234 8.250,5.277 8.080,5.321 7.910,5.364 7.741,5.408 7.571,5.451 7.402,5.495 7.333,5.561 7.264,5.628 7.195,5.694 7.127,5.761 7.058,5.827 6.989,5.894 6.920,5.960 6.852,6.027 6.776,6.114 6.700,6.201 6.625,6.288 6.549,6.375 6.474,6.462 6.398,6.549 6.322,6.636 6.247,6.723 6.160,6.838 6.072,6.952 5.985,7.067 5.898,7.182 5.811,7.296 5.724,7.411 5.637,7.525 5.550,7.640 5.502,7.755 5.454,7.869 5.406,7.984 5.357,8.098 5.309,8.213 5.261,8.327 5.213,8.442 5.165,8.557 5.144,8.712 5.124,8.868 5.103,9.024 5.082,9.180 5.062,9.336 5.041,9.492 5.021,9.647 5.000,9.803 5.034,9.975 5.069,10.147 5.103,10.319 5.137,10.491 5.172,10.663 5.206,10.834 5.241,11.006 5.275,11.178 5.344,11.295 5.412,11.412 5.481,11.529 5.550,11.646 5.619,11.763 5.687,11.879 5.756,11.996 5.825,12.113 5.935,12.177 6.045,12.242 6.155,12.306 6.265,12.370 6.375,12.434 6.485,12.498 6.595,12.562 6.705,12.626 6.824,12.649 6.943,12.672 7.062,12.695 7.182,12.718 7.301,12.741 7.420,12.764 7.539,12.787 7.658,12.810 7.743,12.824 7.828,12.837 7.913,12.851 7.997,12.865 8.082,12.879 8.167,12.892 8.252,12.906 8.337,12.920 8.364,12.950 8.392,12.979 8.419,13.009 8.447,13.039 8.474,13.069 8.502,13.099 8.529,13.128 8.557,13.158 8.584,13.234 8.612,13.309 8.639,13.385 8.667,13.461 8.694,13.536 8.722,13.612 8.749,13.688 8.777,13.763 8.884,13.871 8.992,13.979 9.100,14.086 9.207,14.194 9.201,14.366 9.194,14.538 9.187,14.710 9.180,14.881 9.173,15.053 9.166,15.225 9.159,15.397 9.152,15.569 9.168,15.718 9.184,15.867 9.200,16.016 9.217,16.165 9.233,16.314 9.249,16.463 9.265,16.612 9.281,16.761 9.317,16.884 9.354,17.008 9.391,17.132 9.427,17.256 9.464,17.379 9.501,17.503 9.537,17.627 9.574,17.751 9.599,17.867 9.624,17.984 9.650,18.101 9.675,18.218 9.700,18.335 9.725,18.452 9.750,18.569 9.776,18.686 9.819,18.830 9.863,18.974 9.906,19.119 9.950,19.263 9.993,19.407 10.037,19.552 10.080,19.696 10.124,19.840 10.170,19.987 10.216,20.134 10.261,20.280 10.307,20.427 10.353,20.574 10.399,20.720 10.445,20.867 10.491,21.014 10.555,21.181 10.619,21.348 10.683,21.516 10.747,21.683 10.811,21.850 10.876,22.018 10.940,22.185 11.004,22.352 11.066,22.469 11.128,22.586 11.190,22.703 11.251,22.820 11.313,22.936 11.375,23.053 11.437,23.170 11.499,23.287 11.547,23.402 11.595,23.516 11.643,23.631 11.691,23.745 11.740,23.860 11.788,23.975 11.836,24.089 11.884,24.204 11.946,24.371 12.008,24.538 12.070,24.706 12.131,24.873 12.193,25.040 12.255,25.207 12.317,25.375 12.379,25.542 12.429,25.663 12.480,25.785 12.530,25.906 12.581,26.028 12.631,26.149 12.681,26.271 12.732,26.392 12.782,26.514 12.865,26.633 12.947,26.752 13.030,26.871 13.112,26.990 13.195,27.109 13.277,27.229 13.360,27.348 13.442,27.467 13.545,27.600 13.648,27.733 13.752,27.866 13.855,27.999 13.958,28.132 14.061,28.264 14.164,28.397 14.267,28.530 14.366,28.643 14.464,28.755 14.563,28.867 14.661,28.979 14.760,29.092 14.858,29.204 14.957,29.316 15.056,29.429 15.168,29.552 15.280,29.676 15.392,29.800 15.505,29.924 15.617,30.047 15.729,30.171 15.842,30.295 15.954,30.419 16.075,30.531 16.197,30.643 16.318,30.755 16.440,30.868 16.561,30.980 16.683,31.092 16.804,31.205 16.925,31.317 17.088,31.443 17.251,31.569 17.414,31.695 17.576,31.821 17.739,31.947 17.902,32.073 18.064,32.199 18.227,32.325 18.381,32.435 18.534,32.545 18.688,32.655 18.841,32.765 18.995,32.875 19.148,32.985 19.302,33.095 19.455,33.205 19.586,33.333 19.717,33.462 19.847,33.590 19.978,33.718 20.109,33.847 20.239,33.975 20.370,34.103 20.500,34.232 20.587,34.312 20.675,34.392 20.762,34.472 20.849,34.553 20.936,34.633 21.023,34.713 21.110,34.793 21.197,34.873 21.371,34.986 21.545,35.098 21.720,35.210 21.894,35.323 22.068,35.435 22.242,35.547 22.416,35.659 22.590,35.772 22.730,35.838 22.870,35.905 23.010,35.971 23.150,36.038 23.289,36.104 23.429,36.171 23.569,36.237 23.709,36.303 23.858,36.365 24.007,36.427 24.156,36.489 24.304,36.551 24.453,36.613 24.602,36.675 24.751,36.737 24.900,36.798 25.063,36.856 25.226,36.913 25.388,36.970 25.551,37.028 25.714,37.085 25.877,37.142 26.039,37.199 26.202,37.257 26.358,37.273 26.514,37.289 26.669,37.305 26.825,37.321 26.981,37.337 27.137,37.353 27.293,37.369 27.449,37.385 27.618,37.413 27.788,37.440 27.957,37.468 28.127,37.495 28.296,37.523 28.466,37.550 28.636,37.578 28.805,37.605 28.901,37.646 28.998,37.688 29.094,37.729 29.190,37.770 29.286,37.811 29.383,37.853 29.479,37.894 29.575,37.935 29.692,37.988 29.809,38.040 29.926,38.093 30.043,38.146 30.160,38.199 30.276,38.251 30.393,38.304 30.510,38.357 30.625,38.414 30.739,38.471 30.854,38.529 30.968,38.586 31.083,38.643 31.198,38.700 31.312,38.758 31.427,38.815 31.578,38.861 31.729,38.907 31.881,38.953 32.032,38.998 32.183,39.044 32.334,39.090 32.486,39.136 32.637,39.182 32.799,39.193 32.962,39.205 33.125,39.216 33.288,39.228 33.450,39.239 33.613,39.251 33.776,39.262 33.938,39.273 34.058,39.285 34.177,39.296 34.296,39.308 34.415,39.319 34.534,39.331 34.653,39.342 34.773,39.354 34.892,39.365 35.100,39.384 35.309,39.402 35.517,39.420 35.726,39.439 35.934,39.457 36.143,39.475 36.351,39.494 36.560,39.512 36.771,39.533 36.982,39.553 37.193,39.574 37.403,39.594 37.614,39.615 37.825,39.636 38.036,39.656 38.247,39.677 38.370,39.693 38.494,39.709 38.618,39.725 38.742,39.741 38.865,39.757 38.989,39.773 39.113,39.789 39.237,39.805 39.436,39.835 39.635,39.865 39.835,39.895 40.034,39.924 40.233,39.954 40.433,39.984 40.632,40.014 40.832,40.043 41.091,40.066 41.349,40.089 41.608,40.112 41.867,40.135 42.126,40.158 42.385,40.181 42.644,40.204 42.903,40.227 42.961,40.259 43.018,40.291 43.075,40.323 43.132,40.355 43.190,40.387 43.247,40.419 43.304,40.451 43.362,40.483 43.586,40.506 43.811,40.529 44.035,40.552 44.260,40.575 44.484,40.598 44.709,40.621 44.934,40.644 45.158,40.667 45.367,40.664 45.575,40.662 45.784,40.659 45.992,40.657 46.201,40.655 46.409,40.652 46.618,40.650 46.826,40.648 47.172,40.655 47.519,40.661 47.865,40.668 48.211,40.675 48.557,40.682 48.903,40.689 49.249,40.696 49.595,40.703 49.663,40.721 49.732,40.739 49.801,40.758 49.870,40.776 49.938,40.794 50.007,40.813 50.076,40.831 50.145,40.849 50.477,40.884 50.809,40.918 51.142,40.953 51.474,40.987 51.806,41.021 52.138,41.056 52.471,41.090 52.803,41.124 52.989,41.310 53.174,41.496 53.360,41.681 53.545,41.867 53.795,41.876 54.045,41.885 54.295,41.894 54.545,41.904 54.794,41.913 55.044,41.922 55.294,41.931 55.544,41.940 55.622,41.970 55.700,42.000 55.777,42.030 55.855,42.059 55.933,42.089 56.011,42.119 56.089,42.149 56.167,42.178 56.298,42.204 56.428,42.229 56.559,42.254 56.690,42.279 56.820,42.304 56.951,42.330 57.081,42.355 57.212,42.380 57.517,42.408 57.822,42.435 58.126,42.463 58.431,42.490 58.736,42.518 59.041,42.545 59.346,42.573 59.650,42.600 59.751,42.646 59.852,42.692 59.953,42.738 60.054,42.783 60.154,42.829 60.255,42.875 60.356,42.921 60.457,42.967 60.507,42.994 60.558,43.022 60.608,43.049 60.659,43.077 60.709,43.104 60.759,43.132 60.810,43.159 60.860,43.187 60.899,43.237 60.938,43.288 60.977,43.338 61.016,43.388 61.055,43.439 61.094,43.489 61.133,43.540 61.172,43.590 61.211,43.732 61.250,43.874 61.289,44.016 61.328,44.158 61.367,44.301 61.406,44.443 61.445,44.585 61.483,44.727 61.486,44.878 61.488,45.029 61.491,45.180 61.493,45.332 61.495,45.483 61.498,45.634 61.500,45.785 61.502,45.937 61.468,46.113 61.434,46.290 61.399,46.466 61.365,46.643 61.330,46.819 61.296,46.995 61.262,47.172 61.227,47.348 61.175,47.465 61.122,47.582 61.069,47.699 61.016,47.816 60.964,47.933 60.911,48.050 60.858,48.166 60.806,48.283 60.728,48.414 60.650,48.545 60.572,48.675 60.494,48.806 60.416,48.936 60.338,49.067 60.260,49.198 60.182,49.328 60.116,49.480 60.049,49.631 59.983,49.782 59.916,49.933 59.850,50.085 59.784,50.236 59.717,50.387 59.651,50.538 59.600,50.651 59.550,50.763 59.499,50.875 59.449,50.987 59.399,51.100 59.348,51.212 59.298,51.324 59.247,51.437 59.176,51.563 59.105,51.689 59.034,51.815 58.963,51.941 58.892,52.067 58.821,52.193 58.750,52.319 58.679,52.445 58.580,52.713 58.482,52.981 58.383,53.249 58.285,53.517 58.186,53.785 58.088,54.054 57.989,54.322 57.891,54.590 57.856,54.739 57.822,54.888 57.788,55.037 57.753,55.186 57.719,55.335 57.684,55.484 57.650,55.633 57.616,55.781 57.586,55.878 57.556,55.974 57.526,56.070 57.497,56.166 57.467,56.263 57.437,56.359 57.407,56.455 57.377,56.551 57.407,56.668 57.437,56.785 57.467,56.902 57.497,57.019 57.526,57.136 57.556,57.253 57.586,57.370 57.616,57.486 57.684,57.585 57.753,57.684 57.822,57.782 57.891,57.881 57.959,57.979 58.028,58.078 58.097,58.176 58.166,58.275 58.225,58.357 58.285,58.440 58.344,58.522 58.404,58.605 58.464,58.687 58.523,58.770 58.583,58.852 58.642,58.935 58.718,59.022 58.794,59.109 58.869,59.196 58.945,59.283 59.020,59.370 59.096,59.457 59.172,59.544 59.247,59.631 59.403,59.657 59.559,59.682 59.715,59.707 59.871,59.732 60.026,59.757 60.182,59.783 60.338,59.808 60.494,59.833 60.666,59.826 60.838,59.819 61.010,59.812 61.181,59.806 61.353,59.799 61.525,59.792 61.697,59.785 61.869,59.778 62.004,59.776 62.139,59.773 62.274,59.771 62.410,59.769 62.545,59.766 62.680,59.764 62.815,59.762 62.951,59.759 63.063,59.704 63.175,59.649 63.287,59.594 63.400,59.539 63.512,59.484 63.624,59.429 63.737,59.374 63.849,59.319 63.911,59.184 63.973,59.049 64.034,58.914 64.096,58.778 64.158,58.643 64.220,58.508 64.282,58.373 64.344,58.238 64.417,58.054 64.490,57.871 64.564,57.688 64.637,57.504 64.710,57.321 64.784,57.138 64.857,56.954 64.930,56.771 64.988,56.588 65.045,56.404 65.102,56.221 65.160,56.038 65.217,55.854 65.274,55.671 65.332,55.488 65.389,55.304 65.437,55.132 65.485,54.961 65.533,54.789 65.581,54.617 65.629,54.445 65.678,54.273 65.726,54.101 65.774,53.929 65.843,53.725 65.911,53.521 65.980,53.317 66.049,53.114 66.118,52.910 66.186,52.706 66.255,52.502 66.324,52.298 66.415,52.096 66.507,51.894 66.599,51.693 66.690,51.491 66.782,51.289 66.874,51.088 66.965,50.886 67.057,50.684 67.153,50.487 67.250,50.290 67.346,50.093 67.442,49.896 67.538,49.699 67.635,49.502 67.731,49.305 67.827,49.108 67.967,48.847 68.107,48.585 68.246,48.324 68.386,48.063 68.526,47.802 68.666,47.540 68.806,47.279 68.945,47.018 69.023,46.876 69.101,46.734 69.179,46.592 69.257,46.450 69.335,46.307 69.413,46.165 69.491,46.023 69.569,45.881 69.658,45.712 69.747,45.542 69.837,45.372 69.926,45.203 70.016,45.033 70.105,44.864 70.194,44.694 70.284,44.525 70.373,44.376 70.462,44.227 70.552,44.078 70.641,43.929 70.731,43.780 70.820,43.631 70.909,43.482 70.999,43.333 71.088,43.170 71.177,43.008 71.267,42.845 71.356,42.682 71.446,42.519 71.535,42.357 71.624,42.194 71.714,42.031 71.798,41.859 71.883,41.688 71.968,41.516 72.053,41.344 72.138,41.172 72.222,41.000 72.307,40.828 72.392,40.656 72.493,40.487 72.594,40.317 72.694,40.148 72.795,39.978 72.896,39.808 72.997,39.639 73.098,39.469 73.199,39.300 73.318,39.146 73.437,38.993 73.556,38.839 73.675,38.686 73.794,38.532 73.914,38.378 74.033,38.225 74.152,38.071 74.342,37.996 74.532,37.920 74.723,37.845 74.913,37.769 75.103,37.693 75.293,37.618 75.483,37.542 75.674,37.466 75.820,37.485 75.967,37.503 76.114,37.521 76.260,37.540 76.407,37.558 76.554,37.576 76.700,37.595 76.847,37.613 77.131,37.592 77.415,37.572 77.699,37.551 77.983,37.531 78.268,37.510 78.552,37.489 78.836,37.469 79.120,37.448 79.395,37.407 79.670,37.366 79.945,37.324 80.220,37.283 80.495,37.242 80.770,37.201 81.045,37.159 81.320,37.118 81.460,37.109 81.600,37.100 81.739,37.091 81.879,37.081 82.019,37.072 82.159,37.063 82.299,37.054 82.438,37.045 82.759,37.024 83.080,37.003 83.401,36.983 83.722,36.962 84.043,36.942 84.363,36.921 84.684,36.900 85.005,36.880 85.204,36.871 85.404,36.861 85.603,36.852 85.802,36.843 86.002,36.834 86.201,36.825 86.401,36.816 86.600,36.806 86.941,36.800 87.283,36.793 87.624,36.786 87.966,36.779 88.307,36.772 88.649,36.765 88.990,36.758 89.332,36.751 89.579,36.738 89.827,36.724 90.074,36.710 90.322,36.696 90.569,36.683 90.817,36.669 91.064,36.655 91.312,36.641 91.625,36.623 91.939,36.605 92.253,36.586 92.567,36.568 92.881,36.550 93.195,36.531 93.509,36.513 93.823,36.495 94.100,36.479 94.378,36.463 94.655,36.447 94.932,36.431 95.210,36.415 95.487,36.398 95.764,36.382 96.041,36.366 96.293,36.343 96.546,36.321 96.798,36.298 97.050,36.275 97.302,36.252 97.554,36.229 97.806,36.206 98.058,36.183 98.287,36.169 98.516,36.156 98.746,36.142 98.975,36.128 99.204,36.114 99.433,36.101 99.662,36.087 99.891,36.073 100.150,36.050 100.409,36.027 100.668,36.004 100.927,35.981 101.186,35.959 101.445,35.936 101.704,35.913 101.963,35.890 102.153,35.869 102.343,35.849 102.534,35.828 102.724,35.807 102.914,35.787 103.104,35.766 103.294,35.745 103.485,35.725 103.540,35.741 103.595,35.757 103.650,35.773 103.705,35.789 103.760,35.805 103.815,35.821 103.870,35.837 104.236,35.543" fill="none" stroke="black" stroke-width="1"/>
</svg>
