<?xml version="1.0" encoding="UTF-8"?>
<svg xmlns="http://www.w3.org/2000/svg" width="561.6" height="160.0" viewBox="0 0 561.6 160.0">
  <polyline points="556.649,86.058 288.093,85.445 287.481,84.833 286.869,84.221 286.257,83.609 286.247,83.229 286.236,82.849 286.226,82.469 286.216,82.089 286.205,81.709 286.195,81.329 286.185,80.949 286.174,80.569 286.143,80.168 286.111,79.767 286.079,79.366 286.048,78.965 286.016,78.564 285.984,78.163 285.953,77.762 285.921,77.361 285.931,76.949 285.942,76.538 285.952,76.126 285.962,75.714 285.973,75.303 285.983,74.891 285.993,74.479 286.003,74.068 286.014,73.646 286.024,73.223 286.034,72.801 286.045,72.379 286.055,71.957 286.065,71.535 286.076,71.113 286.086,70.690 286.096,70.490 286.106,70.289 286.117,70.089 286.127,69.888 286.137,69.688 286.148,69.487 286.158,69.287 286.168,69.086 285.841,68.759 285.514,68.432 285.187,68.105 284.860,67.777 284.142,67.830 283.424,67.883 282.706,67.936 281.989,67.988 281.271,68.041 280.553,68.094 279.836,68.147 279.118,68.200 278.601,68.252 278.084,68.305 277.566,68.358 277.049,68.411 276.532,68.463 276.015,68.516 275.498,68.569 274.981,68.622 274.390,68.643 273.799,68.664 273.208,68.685 272.616,68.706 272.025,68.727 271.434,68.748 270.843,68.770 270.252,68.791 268.374,68.854 266.495,68.917 264.616,68.981 262.738,69.044 260.859,69.107 258.980,69.171 257.102,69.234 255.223,69.297 254.980,69.054 254.737,68.812 254.495,68.569 254.252,68.326 252.468,68.305 250.685,68.284 248.901,68.263 247.117,68.242 245.333,68.221 243.550,68.200 241.766,68.178 239.982,68.157 239.159,68.136 238.336,68.115 237.513,68.094 236.689,68.073 235.866,68.052 235.043,68.031 234.220,68.010 233.396,67.988 232.542,68.010 231.687,68.031 230.832,68.052 229.977,68.073 229.122,68.094 228.267,68.115 227.412,68.136 226.557,68.157 224.847,68.147 223.138,68.136 221.428,68.126 219.718,68.115 218.008,68.105 216.298,68.094 214.589,68.083 212.879,68.073 212.267,68.041 211.654,68.010 211.042,67.978 210.430,67.946 209.818,67.915 209.206,67.883 208.594,67.851 207.982,67.820 207.042,67.851 206.103,67.883 205.164,67.915 204.224,67.946 203.285,67.978 202.346,68.010 201.406,68.041 200.467,68.073 199.623,68.083 198.778,68.094 197.934,68.105 197.089,68.115 196.245,68.126 195.401,68.136 194.556,68.147 193.712,68.157 192.794,68.115 191.876,68.073 190.957,68.031 190.039,67.988 189.121,67.946 188.203,67.904 187.284,67.862 186.366,67.820 185.385,67.756 184.403,67.693 183.422,67.630 182.440,67.566 181.458,67.503 180.477,67.440 179.495,67.376 178.514,67.313 177.458,67.229 176.403,67.144 175.347,67.060 174.292,66.975 173.237,66.891 172.181,66.806 171.126,66.722 170.070,66.638 169.321,66.616 168.572,66.595 167.822,66.574 167.073,66.553 166.324,66.532 165.574,66.511 164.825,66.490 164.075,66.469 163.178,66.458 162.281,66.448 161.384,66.437 160.487,66.426 159.590,66.416 158.693,66.405 157.796,66.395 156.898,66.384 155.727,66.321 154.555,66.257 153.384,66.194 152.212,66.131 151.041,66.068 149.869,66.004 148.698,65.941 147.526,65.878 146.798,65.835 146.070,65.793 145.341,65.751 144.613,65.709 143.885,65.666 143.157,65.624 142.428,65.582 141.700,65.540 140.877,65.487 140.054,65.434 139.230,65.381 138.407,65.329 137.584,65.276 136.761,65.223 135.938,65.170 135.114,65.118 134.470,65.044 133.827,64.970 133.183,64.896 132.539,64.822 131.895,64.748 131.251,64.674 130.608,64.600 129.964,64.527 129.130,64.495 128.296,64.463 127.462,64.432 126.629,64.400 125.795,64.368 124.961,64.337 124.127,64.305 123.293,64.273 121.932,64.284 120.570,64.294 119.209,64.305 117.847,64.315 116.486,64.326 115.124,64.337 113.763,64.347 112.401,64.358 111.399,64.316 110.396,64.273 109.393,64.231 108.391,64.189 107.388,64.147 106.385,64.104 105.383,64.062 104.380,64.020 102.934,63.946 101.488,63.872 100.042,63.798 98.596,63.724 97.150,63.651 95.704,63.577 94.258,63.503 92.812,63.429 91.715,63.292 90.617,63.154 89.519,63.017 88.422,62.880 87.324,62.743 86.226,62.606 85.129,62.468 84.031,62.331 83.166,62.194 82.300,62.057 81.435,61.920 80.569,61.782 79.704,61.645 78.838,61.508 77.973,61.371 77.108,61.234 75.662,60.980 74.216,60.727 72.770,60.474 71.324,60.220 69.878,59.967 68.432,59.714 66.986,59.460 65.540,59.207 64.780,59.197 64.020,59.186 63.260,59.175 62.500,59.165 61.740,59.154 60.980,59.144 60.221,59.133 59.461,59.123 58.416,59.080 57.371,59.038 56.326,58.996 55.281,58.954 54.236,58.912 53.191,58.869 52.146,58.827 51.102,58.785 49.972,58.732 48.843,58.679 47.714,58.627 46.584,58.574 45.455,58.521 44.326,58.468 43.196,58.415 42.067,58.363 41.096,58.310 40.125,58.257 39.154,58.204 38.183,58.152 37.212,58.099 36.241,58.046 35.270,57.993 34.299,57.941 33.212,57.888 32.125,57.835 31.038,57.782 29.951,57.729 28.863,57.677 27.776,57.624 26.689,57.571 25.602,57.518 24.568,57.402 23.533,57.286 22.499,57.170 21.465,57.054 20.430,56.938 19.396,56.822 18.362,56.706 17.327,56.590 16.451,56.516 15.575,56.442 14.699,56.368 13.823,56.294 12.947,56.220 12.071,56.146 11.195,56.072 10.319,55.999 9.654,55.904 8.990,55.809 8.325,55.714 7.660,55.619 6.995,55.524 6.330,55.429 5.665,55.334 5.000,55.239 272.684,57.297 272.251,57.075 271.819,56.854 271.386,56.632 270.953,56.410 270.520,56.189 270.088,55.967 269.655,55.745 269.159,55.270 268.663,54.796 268.167,54.321 267.671,53.846 267.175,53.371 266.679,52.896 266.183,52.421 265.686,51.946 265.391,51.439 265.095,50.933 264.800,50.426 264.504,49.919 264.209,49.413 263.913,48.906 263.618,48.400 263.322,47.893 262.995,47.365 262.668,46.838 262.341,46.310 262.014,45.782 261.686,45.254 261.359,44.727 261.032,44.199 260.705,43.671 260.335,43.017 259.966,42.362 259.597,41.708 259.227,41.054 258.858,40.399 258.488,39.745 258.119,39.091 257.750,38.436 257.465,37.940 257.180,37.444 256.895,36.948 256.610,36.452 256.325,35.956 256.040,35.460 255.755,34.964 255.470,34.468 254.858,33.708 254.246,32.948 253.633,32.188 253.021,31.428 252.409,30.668 251.797,29.908 251.185,29.148 250.573,28.389 250.140,27.808 249.707,27.228 249.274,26.647 248.842,26.067 248.409,25.486 247.976,24.906 247.544,24.325 247.111,23.745 246.826,23.291 246.541,22.837 246.256,22.383 245.971,21.929 245.686,21.475 245.401,21.022 245.116,20.568 244.831,20.114 244.546,19.744 244.261,19.375 243.976,19.006 243.691,18.636 243.406,18.267 243.121,17.897 242.836,17.528 242.551,17.159 242.108,16.694 241.665,16.230 241.221,15.766 240.778,15.301 240.335,14.837 239.892,14.372 239.448,13.908 239.005,13.444 238.530,13.190 238.055,12.937 237.580,12.684 237.105,12.430 236.630,12.177 236.155,11.924 235.680,11.670 235.205,11.417 234.699,11.174 234.192,10.932 233.686,10.689 233.179,10.446 232.672,10.203 232.166,9.961 231.659,9.718 231.153,9.475 230.488,9.158 229.823,8.842 229.158,8.525 228.493,8.209 227.828,7.892 227.163,7.575 226.498,7.259 225.833,6.942 225.189,6.763 224.546,6.583 223.902,6.404 223.258,6.224 222.614,6.045 221.970,5.866 221.326,5.686 220.683,5.507 219.870,5.454 219.057,5.401 218.245,5.348 217.432,5.296 216.619,5.243 215.807,5.190 214.994,5.137 214.181,5.084 213.020,5.074 211.859,5.063 210.698,5.053 209.537,5.042 208.376,5.032 207.215,5.021 206.054,5.011 204.893,5.000 204.144,5.158 203.395,5.317 202.645,5.475 201.896,5.633 201.147,5.792 200.397,5.950 199.648,6.108 198.898,6.267 198.276,6.499 197.653,6.731 197.030,6.963 196.408,7.195 195.785,7.428 195.162,7.660 194.540,7.892 193.917,8.124 193.642,8.399 193.368,8.673 193.094,8.947 192.819,9.222 192.545,9.496 192.270,9.771 191.996,10.045 191.721,10.319 191.489,10.710 191.257,11.100 191.025,11.491 190.793,11.881 190.561,12.272 190.328,12.662 190.096,13.053 189.864,13.443 189.769,14.108 189.674,14.773 189.579,15.438 189.484,16.103 189.389,16.768 189.294,17.433 189.199,18.098 189.104,18.763 189.083,19.248 189.062,19.734 189.041,20.219 189.020,20.705 188.998,21.190 188.977,21.676 188.956,22.161 188.935,22.647 189.062,23.343 189.188,24.040 189.315,24.737 189.442,25.433 189.568,26.130 189.695,26.826 189.822,27.523 189.948,28.220 190.265,28.705 190.582,29.191 190.898,29.676 191.215,30.162 191.531,30.647 191.848,31.133 192.165,31.618 192.481,32.104 192.861,32.494 193.241,32.885 193.621,33.275 194.001,33.666 194.381,34.056 194.761,34.447 195.141,34.837 195.521,35.228 196.112,35.597 196.703,35.966 197.294,36.336 197.885,36.705 198.476,37.075 199.067,37.444 199.658,37.814 200.249,38.183 200.830,38.278 201.410,38.373 201.991,38.468 202.571,38.563 203.152,38.658 203.732,38.753 204.313,38.848 204.893,38.943 205.537,38.932 206.181,38.922 206.825,38.911 207.469,38.901 208.112,38.890 208.756,38.879 209.400,38.869 210.044,38.858 210.635,38.806 211.226,38.753 211.817,38.700 212.408,38.647 212.999,38.595 213.590,38.542 214.181,38.489 214.772,38.436 215.099,38.763 215.427,39.091 215.754,39.418 216.081,39.745 216.471,39.893 216.862,40.040 217.252,40.188 217.643,40.336 218.033,40.484 218.424,40.631 218.814,40.779 219.205,40.927 219.764,41.465 220.324,42.004 220.883,42.542 221.443,43.080 222.002,43.618 222.561,44.157 223.121,44.695 223.680,45.233 223.859,45.476 224.039,45.719 224.218,45.961 224.398,46.204 224.577,46.447 224.757,46.690 224.936,46.932 225.115,47.175 225.443,47.608 225.770,48.041 226.097,48.473 226.424,48.906 226.751,49.339 227.079,49.772 227.406,50.204 227.733,50.637 228.028,51.059 228.324,51.481 228.620,51.904 228.915,52.326 229.211,52.748 229.506,53.170 229.802,53.592 230.097,54.014 230.530,54.616 230.963,55.218 231.395,55.819 231.828,56.421 232.261,57.022 232.693,57.624 233.126,58.226 233.559,58.827 234.023,59.376 234.488,59.925 234.952,60.474 235.417,61.023 235.881,61.571 236.345,62.120 236.810,62.669 237.274,63.218 237.696,63.703 238.118,64.189 238.541,64.674 238.963,65.160 239.385,65.645 239.807,66.131 240.229,66.616 240.651,67.102 241.031,67.492 241.411,67.883 241.791,68.273 242.171,68.664 242.551,69.054 242.931,69.445 243.311,69.835 243.691,70.226 244.177,70.849 244.662,71.471 245.148,72.094 245.633,72.717 246.119,73.339 246.604,73.962 247.090,74.585 247.575,75.208 247.945,75.609 248.314,76.010 248.683,76.411 249.053,76.812 249.422,77.213 249.792,77.614 250.161,78.015 250.530,78.416 250.900,78.849 251.269,79.282 251.639,79.714 252.008,80.147 252.377,80.580 252.747,81.012 253.116,81.445 253.486,81.878 253.908,82.300 254.330,82.722 254.752,83.144 255.174,83.567 255.596,83.989 256.019,84.411 256.441,84.833 256.863,85.255 257.327,85.699 257.792,86.142 258.256,86.585 258.721,87.028 259.185,87.472 259.649,87.915 260.114,88.358 260.578,88.802 261.106,89.203 261.634,89.604 262.161,90.005 262.689,90.406 263.217,90.807 263.744,91.208 264.272,91.609 264.800,92.010 265.412,92.147 266.024,92.285 266.636,92.422 267.248,92.559 267.861,92.696 268.473,92.833 269.085,92.971 269.697,93.108 270.351,93.150 271.006,93.192 271.660,93.234 272.315,93.277 272.969,93.319 273.623,93.361 274.278,93.403 274.932,93.446 275.418,93.530 275.903,93.614 276.389,93.699 276.874,93.783 277.360,93.868 277.845,93.952 278.331,94.037 278.816,94.121 279.481,94.227 280.146,94.332 280.811,94.438 281.476,94.543 282.141,94.649 282.806,94.754 283.471,94.860 284.135,94.965 284.853,95.071 285.571,95.176 286.289,95.282 287.006,95.388 287.724,95.493 288.442,95.599 289.159,95.704 289.877,95.810 290.479,95.884 291.080,95.957 291.682,96.031 292.283,96.105 292.885,96.179 293.487,96.253 294.088,96.327 294.690,96.401 295.334,96.506 295.977,96.612 296.621,96.717 297.265,96.823 297.909,96.928 298.553,97.034 299.197,97.140 299.840,97.245 300.642,97.372 301.445,97.498 302.247,97.625 303.049,97.752 303.851,97.878 304.653,98.005 305.455,98.132 306.257,98.258 307.154,98.374 308.052,98.491 308.949,98.607 309.846,98.723 310.743,98.839 311.640,98.955 312.537,99.071 313.434,99.187 314.194,99.229 314.954,99.272 315.714,99.314 316.474,99.356 317.234,99.398 317.994,99.440 318.754,99.483 319.514,99.525 320.231,99.599 320.949,99.673 321.667,99.747 322.384,99.820 323.102,99.894 323.820,99.968 324.538,100.042 325.255,100.116 326.342,100.158 327.429,100.201 328.517,100.243 329.604,100.285 330.691,100.327 331.778,100.370 332.865,100.412 333.952,100.454 334.627,100.486 335.303,100.518 335.978,100.549 336.654,100.581 337.329,100.613 338.005,100.644 338.680,100.676 339.356,100.708 340.538,100.803 341.720,100.897 342.902,100.993 344.084,101.088 345.266,101.183 346.448,101.277 347.630,101.372 348.813,101.467 349.678,101.583 350.543,101.700 351.409,101.816 352.274,101.932 353.140,102.048 354.005,102.164 354.871,102.280 355.736,102.396 356.813,102.501 357.889,102.607 358.966,102.712 360.042,102.818 361.119,102.923 362.195,103.029 363.272,103.134 364.349,103.240 365.024,103.324 365.700,103.409 366.375,103.493 367.050,103.578 367.726,103.662 368.401,103.747 369.077,103.831 369.752,103.916 370.723,103.969 371.694,104.021 372.665,104.074 373.636,104.127 374.607,104.180 375.578,104.233 376.549,104.285 377.520,104.338 377.742,104.423 377.964,104.507 378.185,104.592 378.407,104.676 378.629,104.761 378.850,104.845 379.072,104.930 379.294,105.014 379.600,105.299 379.906,105.584 380.212,105.869 380.518,106.154 380.824,106.439 381.130,106.724 381.436,107.009 381.742,107.294 381.837,107.547 381.932,107.800 382.027,108.054 382.122,108.307 382.217,108.560 382.312,108.814 382.407,109.067 382.502,109.320 382.280,109.985 382.058,110.650 381.837,111.315 381.615,111.980 381.394,112.645 381.172,113.310 380.950,113.975 380.729,114.640 380.412,115.167 380.095,115.695 379.779,116.223 379.462,116.751 379.145,117.278 378.829,117.806 378.512,118.334 378.196,118.861 377.889,119.410 377.583,119.959 377.277,120.508 376.971,121.057 376.665,121.606 376.359,122.154 376.053,122.703 375.747,123.252 375.399,123.790 375.050,124.329 374.702,124.867 374.354,125.405 374.005,125.943 373.657,126.482 373.309,127.020 372.961,127.558 372.686,128.012 372.412,128.466 372.137,128.920 371.863,129.374 371.589,129.827 371.314,130.281 371.040,130.735 370.765,131.189 370.438,131.748 370.111,132.308 369.784,132.867 369.457,133.426 369.129,133.986 368.802,134.545 368.475,135.105 368.148,135.664 367.958,136.044 367.768,136.424 367.578,136.804 367.388,137.184 367.198,137.564 367.008,137.944 366.818,138.324 366.628,138.704 366.522,139.316 366.417,139.928 366.311,140.540 366.206,141.152 366.100,141.764 365.995,142.377 365.889,142.989 365.784,143.601 365.889,143.960 365.995,144.319 366.100,144.677 366.206,145.036 366.311,145.395 366.417,145.754 366.522,146.113 366.628,146.472 366.807,146.852 366.987,147.232 367.166,147.611 367.346,147.991 367.525,148.371 367.705,148.751 367.884,149.131 368.063,149.511 368.338,149.775 368.612,150.039 368.887,150.303 369.161,150.567 369.435,150.831 369.710,151.094 369.984,151.358 370.259,151.622 370.575,151.939 370.892,152.255 371.209,152.572 371.525,152.889 371.842,153.205 372.158,153.522 372.475,153.839 372.792,154.155 373.541,154.240 374.290,154.324 375.040,154.409 375.789,154.493 376.539,154.578 377.288,154.662 378.037,154.747 378.787,154.831 379.325,154.852 379.863,154.873 380.401,154.894 380.940,154.916 381.478,154.937 382.016,154.958 382.554,154.979 383.093,155.000 383.832,154.968 384.570,154.937 385.309,154.905 386.048,154.873 386.787,154.842 387.526,154.810 388.264,154.778 389.003,154.747 389.679,154.673 390.354,154.599 391.030,154.525 391.705,154.451 392.381,154.377 393.056,154.303 393.732,154.229 394.407,154.155 394.956,154.060 395.505,153.965 396.054,153.870 396.602,153.775 397.151,153.680 397.700,153.585 398.249,153.491 398.798,153.396 399.188,153.068 399.579,152.741 399.969,152.414 400.360,152.087 400.750,151.760 401.141,151.432 401.531,151.105 401.922,150.778 402.207,150.155 402.492,149.533 402.777,148.910 403.062,148.287 403.347,147.665 403.632,147.042 403.917,146.419 404.201,145.796 404.624,145.110 405.046,144.424 405.468,143.738 405.890,143.052 406.312,142.366 406.735,141.680 407.157,140.994 407.579,140.308 407.969,139.717 408.360,139.126 408.750,138.535 409.141,137.944 409.531,137.353 409.922,136.762 410.312,136.171 410.703,135.580 411.136,134.894 411.568,134.208 412.001,133.522 412.434,132.836 412.867,132.150 413.299,131.464 413.732,130.778 414.165,130.092 414.513,129.596 414.861,129.099 415.210,128.603 415.558,128.107 415.906,127.611 416.255,127.115 416.603,126.619 416.951,126.123 417.289,125.648 417.627,125.173 417.964,124.698 418.302,124.223 418.640,123.748 418.978,123.273 419.315,122.799 419.653,122.324 420.075,121.754 420.497,121.184 420.920,120.614 421.342,120.044 421.764,119.474 422.186,118.904 422.608,118.334 423.030,117.764 423.305,117.374 423.579,116.983 423.854,116.593 424.128,116.202 424.403,115.812 424.677,115.421 424.951,115.031 425.226,114.640 425.500,114.249 425.775,113.859 426.049,113.468 426.323,113.078 426.598,112.687 426.872,112.297 427.147,111.906 427.421,111.516 427.748,111.062 428.075,110.608 428.403,110.154 428.730,109.701 429.057,109.247 429.384,108.793 429.711,108.339 430.039,107.885 430.345,107.463 430.651,107.041 430.957,106.619 431.263,106.197 431.569,105.774 431.875,105.352 432.181,104.930 432.487,104.508 432.825,104.054 433.163,103.600 433.500,103.146 433.838,102.692 434.176,102.239 434.514,101.785 434.851,101.331 435.189,100.877 435.516,100.392 435.843,99.906 436.171,99.421 436.498,98.935 436.825,98.450 437.152,97.964 437.479,97.479 437.807,96.993 438.039,96.698 438.271,96.402 438.503,96.107 438.735,95.811 438.968,95.516 439.200,95.220 439.432,94.924 439.664,94.629 440.107,94.291 440.551,93.953 440.994,93.616 441.437,93.278 441.881,92.940 442.324,92.602 442.767,92.265 443.210,91.927 443.875,91.811 444.540,91.695 445.205,91.579 445.870,91.463 446.535,91.347 447.200,91.230 447.865,91.114 448.530,90.998 449.754,90.956 450.978,90.914 452.203,90.872 453.427,90.829 454.651,90.787 455.876,90.745 457.100,90.703 458.324,90.660 459.506,90.565 460.688,90.470 461.871,90.375 463.053,90.280 464.235,90.185 465.417,90.090 466.599,89.995 467.781,89.900 468.900,89.816 470.018,89.732 471.137,89.647 472.256,89.563 473.375,89.478 474.494,89.394 475.612,89.309 476.731,89.225 477.691,89.172 478.652,89.119 479.612,89.067 480.573,89.014 481.533,88.961 482.494,88.908 483.454,88.856 484.415,88.803 485.248,88.750 486.082,88.697 486.916,88.645 487.750,88.592 488.584,88.539 489.417,88.486 490.251,88.433 491.085,88.381 492.035,88.328 492.985,88.275 493.935,88.222 494.885,88.170 495.834,88.117 496.784,88.064 497.734,88.011 498.684,87.959 499.634,87.927 500.584,87.895 501.534,87.864 502.484,87.832 503.434,87.800 504.383,87.769 505.333,87.737 506.283,87.705 506.895,87.695 507.508,87.684 508.120,87.674 508.732,87.663 509.344,87.652 509.956,87.642 510.568,87.631 511.180,87.621 511.719,87.589 512.257,87.557 512.795,87.526 513.334,87.494 513.872,87.462 514.410,87.431 514.948,87.399 515.487,87.367 516.542,87.294 517.598,87.220 518.653,87.146 519.708,87.072 520.764,86.998 521.819,86.924 522.875,86.850 523.930,86.776 524.553,86.755 525.176,86.734 525.798,86.713 526.421,86.692 527.044,86.671 527.666,86.650 528.289,86.629 528.912,86.608 530.516,86.523 532.120,86.439 533.725,86.354 535.329,86.270 536.933,86.185 538.537,86.101 540.142,86.016 541.746,85.932 542.073,85.943 542.400,85.953 542.727,85.964 543.055,85.974 543.382,85.985 543.709,85.995 544.036,86.006 544.363,86.017 545.092,86.080 545.820,86.143 546.548,86.207 547.276,86.270 548.005,86.333 548.733,86.397 549.461,86.460 550.189,86.523 550.538,86.513 550.886,86.502 551.234,86.491 551.583,86.481 551.931,86.470 552.279,86.460 552.627,86.449 552.976,86.439 553.271,86.555 553.567,86.671 553.862,86.787 554.158,86.903 554.453,87.019 554.749,87.135 555.044,87.251 556.649,86.058" fill="none" stroke="black" stroke-width="1"/>
</svg>
