<?xml version="1.0" encoding="UTF-8"?>
<svg xmlns="http://www.w3.org/2000/svg" width="367.8" height="160.0" viewBox="0 0 367.8 160.0">
  <polyline points="362.823,118.441 362.567,118.186 362.312,117.931 362.057,117.675 361.802,117.420 361.827,117.200 361.852,116.980 361.877,116.760 361.902,116.539 361.927,116.319 361.952,116.099 361.977,115.879 362.002,115.658 362.017,115.193 362.032,114.727 362.047,114.262 362.062,113.796 362.077,113.331 362.092,112.865 362.107,112.400 362.122,111.934 362.082,111.559 362.042,111.184 362.002,110.808 361.962,110.433 361.922,110.057 361.882,109.682 361.842,109.307 361.802,108.931 361.766,108.561 361.731,108.190 361.696,107.820 361.661,107.450 361.626,107.079 361.591,106.709 361.556,106.338 361.521,105.968 361.536,105.457 361.551,104.947 361.566,104.436 361.581,103.926 361.596,103.415 361.611,102.905 361.626,102.394 361.641,101.884 361.621,101.493 361.601,101.103 361.581,100.712 361.561,100.322 361.541,99.932 361.521,99.541 361.501,99.151 361.481,98.760 361.466,98.360 361.451,97.959 361.436,97.559 361.420,97.159 361.405,96.758 361.390,96.358 361.375,95.957 361.360,95.557 361.375,95.292 361.390,95.026 361.405,94.761 361.420,94.496 361.436,94.230 361.451,93.965 361.466,93.700 361.481,93.435 361.506,93.054 361.531,92.674 361.556,92.293 361.581,91.913 361.606,91.533 361.631,91.152 361.656,90.772 361.681,90.391 361.125,89.836 360.569,89.280 360.014,88.725 359.458,88.169 358.402,88.194 357.346,88.219 356.290,88.244 355.234,88.269 354.178,88.294 353.122,88.319 352.065,88.344 351.009,88.369 349.593,88.384 348.176,88.399 346.760,88.414 345.343,88.429 343.927,88.444 342.510,88.459 341.094,88.474 339.677,88.489 338.711,88.469 337.745,88.449 336.779,88.429 335.813,88.409 334.847,88.389 333.881,88.369 332.915,88.349 331.949,88.329 329.887,88.294 327.824,88.259 325.762,88.224 323.700,88.189 321.638,88.154 319.576,88.119 317.513,88.084 315.451,88.049 315.011,88.019 314.570,87.989 314.130,87.959 313.689,87.929 313.249,87.899 312.808,87.869 312.368,87.839 311.927,87.808 309.850,87.748 307.773,87.688 305.696,87.628 303.619,87.568 301.541,87.508 299.464,87.448 297.387,87.388 295.310,87.328 294.354,87.268 293.398,87.208 292.442,87.148 291.486,87.088 290.530,87.028 289.574,86.968 288.618,86.907 287.662,86.847 286.746,86.822 285.830,86.797 284.914,86.772 283.998,86.747 283.082,86.722 282.166,86.697 281.250,86.672 280.334,86.647 279.102,86.687 277.871,86.727 276.640,86.767 275.408,86.807 274.177,86.847 272.946,86.888 271.714,86.928 270.483,86.968 269.247,86.958 268.011,86.948 266.774,86.938 265.538,86.928 264.302,86.918 263.065,86.908 261.829,86.898 260.593,86.888 259.516,86.818 258.440,86.748 257.364,86.678 256.288,86.607 255.212,86.537 254.136,86.467 253.060,86.397 251.983,86.327 251.398,86.262 250.812,86.197 250.227,86.132 249.641,86.067 249.055,86.002 248.470,85.937 247.884,85.872 247.298,85.807 246.553,85.697 245.807,85.586 245.061,85.476 244.315,85.366 243.569,85.256 242.824,85.146 242.078,85.036 241.332,84.926 240.301,84.751 239.270,84.575 238.239,84.400 237.208,84.225 236.177,84.050 235.145,83.875 234.114,83.699 233.083,83.524 232.297,83.389 231.512,83.254 230.726,83.119 229.940,82.984 229.154,82.848 228.368,82.713 227.582,82.578 226.796,82.443 225.350,82.173 223.903,81.902 222.457,81.632 221.010,81.362 219.564,81.092 218.117,80.821 216.671,80.551 215.224,80.281 214.729,80.141 214.233,80.000 213.738,79.860 213.242,79.720 212.746,79.580 212.251,79.440 211.755,79.300 211.260,79.160 210.529,79.079 209.798,78.999 209.068,78.919 208.337,78.839 207.606,78.759 206.875,78.679 206.144,78.599 205.414,78.519 204.638,78.449 203.862,78.379 203.086,78.309 202.310,78.239 201.535,78.169 200.759,78.098 199.983,78.028 199.207,77.958 198.576,77.863 197.946,77.768 197.315,77.673 196.684,77.578 196.054,77.483 195.423,77.388 194.792,77.293 194.162,77.197 193.311,77.052 192.460,76.907 191.609,76.762 190.758,76.617 189.907,76.472 189.056,76.327 188.205,76.181 187.354,76.036 186.513,75.916 185.673,75.796 184.832,75.676 183.991,75.556 183.150,75.436 182.309,75.315 181.468,75.195 180.627,75.075 179.886,74.940 179.146,74.805 178.405,74.670 177.664,74.535 176.923,74.399 176.182,74.264 175.442,74.129 174.701,73.994 173.845,73.814 172.989,73.634 172.133,73.453 171.277,73.273 170.421,73.093 169.565,72.913 168.709,72.733 167.854,72.553 167.093,72.407 166.332,72.262 165.571,72.117 164.810,71.972 164.049,71.827 163.289,71.682 162.528,71.536 161.767,71.391 161.051,71.261 160.335,71.131 159.620,71.001 158.904,70.871 158.188,70.741 157.472,70.610 156.757,70.480 156.041,70.350 155.340,70.235 154.639,70.120 153.939,70.005 153.238,69.890 152.537,69.775 151.836,69.659 151.136,69.544 150.435,69.429 149.664,69.299 148.893,69.169 148.122,69.039 147.352,68.909 146.581,68.778 145.810,68.648 145.039,68.518 144.268,68.388 143.743,68.273 143.217,68.158 142.692,68.043 142.166,67.928 141.640,67.812 141.115,67.697 140.589,67.582 140.064,67.467 139.288,67.412 138.512,67.357 137.736,67.302 136.960,67.247 136.185,67.192 135.409,67.137 134.633,67.082 133.857,67.027 133.211,66.952 132.566,66.877 131.920,66.801 131.274,66.726 130.629,66.651 129.983,66.576 129.337,66.501 128.692,66.426 127.961,66.286 127.230,66.146 126.499,66.006 125.769,65.865 125.038,65.725 124.307,65.585 123.576,65.445 122.845,65.305 122.095,65.195 121.344,65.085 120.593,64.974 119.842,64.864 119.091,64.754 118.341,64.644 117.590,64.534 116.839,64.424 116.308,64.324 115.778,64.224 115.247,64.124 114.717,64.023 114.186,63.923 113.656,63.823 113.125,63.723 112.594,63.623 110.643,64.689 109.892,64.554 109.141,64.419 108.391,64.283 107.640,64.148 106.889,64.013 106.138,63.878 105.387,63.743 104.566,63.533 103.746,63.322 102.925,63.112 102.104,62.902 101.283,62.692 100.462,62.481 99.641,62.271 98.820,62.061 97.784,61.846 96.748,61.631 95.712,61.415 94.676,61.200 93.640,60.985 92.604,60.770 91.568,60.554 90.531,60.339 89.991,60.219 89.450,60.099 88.910,59.979 88.369,59.859 87.829,59.739 87.288,59.618 86.747,59.498 86.207,59.378 85.676,59.298 85.146,59.218 84.615,59.138 84.085,59.058 83.554,58.978 83.023,58.898 82.493,58.818 81.962,58.737 81.272,58.587 80.581,58.437 79.890,58.287 79.199,58.137 78.509,57.987 77.818,57.837 77.127,57.686 76.436,57.536 75.686,57.371 74.935,57.206 74.184,57.041 73.433,56.875 72.682,56.710 71.932,56.545 71.181,56.380 70.430,56.215 69.829,56.045 69.229,55.874 68.628,55.704 68.027,55.534 67.427,55.364 66.826,55.194 66.226,55.023 65.625,54.853 65.184,54.778 64.744,54.703 64.303,54.628 63.863,54.553 63.423,54.478 62.982,54.403 62.542,54.328 62.101,54.253 61.385,54.062 60.670,53.872 59.954,53.682 59.238,53.492 58.522,53.302 57.807,53.111 57.091,52.921 56.375,52.731 55.930,52.586 55.484,52.441 55.039,52.296 54.593,52.150 54.148,52.005 53.702,51.860 53.257,51.715 52.811,51.570 52.186,51.395 51.560,51.219 50.934,51.044 50.309,50.869 49.683,50.694 49.057,50.519 48.431,50.343 47.806,50.168 47.375,49.958 46.945,49.748 46.514,49.538 46.084,49.327 45.654,49.117 45.223,48.907 44.793,48.697 44.362,48.487 43.912,48.261 43.461,48.036 43.011,47.811 42.560,47.586 42.110,47.360 41.659,47.135 41.209,46.910 40.758,46.685 40.388,46.414 40.018,46.144 39.647,45.874 39.277,45.603 38.906,45.333 38.536,45.063 38.166,44.793 37.795,44.522 37.450,44.177 37.104,43.832 36.759,43.486 36.414,43.141 36.068,42.795 35.723,42.450 35.378,42.105 35.032,41.759 34.867,41.504 34.702,41.249 34.537,40.994 34.371,40.738 34.206,40.483 34.041,40.228 33.876,39.972 33.711,39.717 33.460,39.257 33.210,38.796 32.960,38.336 32.710,37.875 32.459,37.415 32.209,36.954 31.959,36.494 31.709,36.033 31.594,35.678 31.478,35.322 31.363,34.967 31.248,34.612 31.133,34.256 31.018,33.901 30.903,33.546 30.788,33.190 30.668,32.680 30.547,32.169 30.427,31.659 30.307,31.148 30.187,30.637 30.067,30.127 29.947,29.616 29.827,29.106 29.561,28.200 29.296,27.294 29.031,26.388 28.765,25.482 28.500,24.576 28.235,23.670 27.970,22.764 27.704,21.858 27.599,21.578 27.494,21.297 27.389,21.017 27.284,20.737 27.179,20.457 27.074,20.176 26.969,19.896 26.863,19.616 26.753,19.225 26.643,18.835 26.533,18.444 26.423,18.054 26.313,17.664 26.203,17.273 26.093,16.883 25.982,16.492 25.892,16.112 25.802,15.732 25.712,15.351 25.622,14.971 25.532,14.590 25.442,14.210 25.352,13.829 25.262,13.449 25.152,13.069 25.041,12.688 24.931,12.308 24.821,11.927 24.711,11.547 24.601,11.167 24.491,10.786 24.381,10.406 24.206,10.085 24.030,9.765 23.855,9.445 23.680,9.124 23.505,8.804 23.330,8.484 23.154,8.163 22.979,7.843 22.634,7.578 22.288,7.313 21.943,7.047 21.598,6.782 21.252,6.517 20.907,6.251 20.562,5.986 20.216,5.721 19.756,5.631 19.295,5.541 18.835,5.451 18.374,5.360 17.914,5.270 17.453,5.180 16.993,5.090 16.532,5.000 15.972,5.010 15.411,5.020 14.851,5.030 14.290,5.040 13.729,5.050 13.169,5.060 12.608,5.070 12.048,5.080 11.692,5.205 11.337,5.330 10.981,5.455 10.626,5.580 10.271,5.705 9.915,5.831 9.560,5.956 9.204,6.081 8.894,6.391 8.584,6.702 8.273,7.012 7.963,7.322 7.653,7.633 7.343,7.943 7.032,8.253 6.722,8.564 6.547,8.779 6.371,8.994 6.196,9.209 6.021,9.424 5.846,9.640 5.671,9.855 5.496,10.070 5.320,10.285 5.280,10.711 5.240,11.136 5.200,11.562 5.160,11.987 5.120,12.413 5.080,12.838 5.040,13.264 5.000,13.689 5.045,14.054 5.090,14.420 5.135,14.785 5.180,15.151 5.225,15.516 5.270,15.881 5.315,16.247 5.360,16.612 5.526,17.003 5.691,17.393 5.856,17.783 6.021,18.174 6.186,18.564 6.351,18.955 6.517,19.345 6.682,19.735 6.792,20.006 6.902,20.276 7.012,20.546 7.122,20.817 7.232,21.087 7.342,21.357 7.453,21.628 7.563,21.898 7.648,22.153 7.733,22.408 7.818,22.664 7.903,22.919 7.988,23.174 8.073,23.429 8.158,23.685 8.243,23.940 8.329,24.235 8.414,24.531 8.499,24.826 8.584,25.121 8.669,25.417 8.754,25.712 8.839,26.007 8.924,26.303 8.979,26.503 9.034,26.703 9.089,26.903 9.144,27.103 9.199,27.304 9.255,27.504 9.310,27.704 9.365,27.904 9.475,28.295 9.585,28.685 9.695,29.075 9.805,29.466 9.915,29.856 10.025,30.247 10.135,30.637 10.246,31.028 10.286,31.268 10.326,31.508 10.366,31.748 10.406,31.989 10.446,32.229 10.486,32.469 10.526,32.709 10.566,32.950 10.686,33.395 10.806,33.841 10.926,34.286 11.046,34.732 11.167,35.177 11.287,35.622 11.407,36.068 11.527,36.513 11.632,36.914 11.737,37.314 11.842,37.715 11.947,38.115 12.053,38.516 12.158,38.916 12.263,39.316 12.368,39.717 12.588,40.232 12.808,40.748 13.029,41.264 13.249,41.779 13.469,42.295 13.689,42.810 13.910,43.326 14.130,43.841 14.290,44.207 14.450,44.572 14.610,44.937 14.771,45.303 14.931,45.668 15.091,46.034 15.251,46.399 15.411,46.764 15.596,47.145 15.782,47.525 15.967,47.906 16.152,48.286 16.337,48.666 16.522,49.047 16.708,49.427 16.893,49.808 17.118,50.243 17.343,50.679 17.569,51.114 17.794,51.549 18.019,51.985 18.244,52.420 18.469,52.856 18.695,53.291 18.890,53.707 19.085,54.122 19.280,54.538 19.476,54.953 19.671,55.369 19.866,55.784 20.061,56.199 20.256,56.615 20.482,56.825 20.707,57.035 20.932,57.246 21.157,57.456 21.383,57.666 21.608,57.876 21.833,58.086 22.058,58.297 22.424,58.342 22.789,58.387 23.154,58.432 23.520,58.477 23.885,58.522 24.251,58.567 24.616,58.612 24.981,58.657 25.377,58.637 25.772,58.617 26.168,58.597 26.563,58.577 26.959,58.557 27.354,58.537 27.749,58.517 28.145,58.497 28.330,58.567 28.515,58.637 28.700,58.707 28.886,58.777 29.071,58.847 29.256,58.917 29.441,58.987 29.626,59.057 29.732,59.173 29.837,59.288 29.942,59.403 30.047,59.518 30.152,59.633 30.257,59.748 30.362,59.863 30.467,59.978 30.623,60.174 30.778,60.369 30.933,60.564 31.088,60.759 31.243,60.954 31.398,61.150 31.553,61.345 31.709,61.540 31.814,61.615 31.919,61.690 32.024,61.765 32.129,61.840 32.234,61.916 32.339,61.991 32.444,62.066 32.550,62.141 32.895,62.406 33.240,62.671 33.586,62.937 33.931,63.202 34.276,63.467 34.622,63.732 34.967,63.998 35.313,64.263 35.568,64.388 35.823,64.513 36.078,64.638 36.334,64.764 36.589,64.889 36.844,65.014 37.099,65.139 37.355,65.264 37.615,65.359 37.875,65.454 38.136,65.549 38.396,65.645 38.656,65.740 38.916,65.835 39.177,65.930 39.437,66.025 39.822,66.135 40.208,66.245 40.593,66.355 40.979,66.465 41.364,66.576 41.749,66.686 42.135,66.796 42.520,66.906 42.906,67.001 43.291,67.096 43.676,67.191 44.062,67.286 44.447,67.381 44.833,67.477 45.218,67.572 45.604,67.667 46.044,67.752 46.484,67.837 46.925,67.922 47.365,68.007 47.806,68.092 48.246,68.177 48.687,68.262 49.127,68.347 49.603,68.478 50.078,68.608 50.554,68.738 51.029,68.868 51.505,68.998 51.980,69.128 52.456,69.258 52.931,69.389 53.287,69.464 53.642,69.539 53.998,69.614 54.353,69.689 54.708,69.764 55.064,69.839 55.419,69.914 55.774,69.989 56.190,70.114 56.605,70.239 57.021,70.365 57.436,70.490 57.852,70.615 58.267,70.740 58.683,70.865 59.098,70.990 59.583,71.155 60.069,71.321 60.555,71.486 61.040,71.651 61.526,71.816 62.011,71.981 62.497,72.146 62.982,72.312 63.393,72.417 63.803,72.522 64.213,72.627 64.624,72.732 65.034,72.837 65.445,72.942 65.855,73.047 66.266,73.153 66.716,73.253 67.167,73.353 67.617,73.453 68.068,73.553 68.518,73.653 68.969,73.753 69.419,73.853 69.869,73.953 70.290,74.034 70.710,74.114 71.131,74.194 71.551,74.274 71.972,74.354 72.392,74.434 72.813,74.514 73.233,74.594 73.613,74.694 73.994,74.794 74.374,74.894 74.755,74.995 75.135,75.095 75.516,75.195 75.896,75.295 76.276,75.395 76.712,75.465 77.147,75.535 77.583,75.605 78.018,75.675 78.454,75.745 78.889,75.815 79.325,75.885 79.760,75.956 80.606,76.156 81.452,76.356 82.298,76.556 83.144,76.756 83.990,76.957 84.835,77.157 85.681,77.357 86.527,77.557 87.018,77.687 87.508,77.818 87.999,77.948 88.489,78.078 88.980,78.208 89.470,78.338 89.961,78.468 90.451,78.598 90.887,78.764 91.322,78.929 91.758,79.094 92.193,79.259 92.629,79.424 93.064,79.589 93.500,79.755 93.935,79.920 94.471,80.055 95.006,80.190 95.542,80.325 96.077,80.460 96.613,80.595 97.149,80.731 97.684,80.866 98.220,81.001 98.715,81.131 99.211,81.261 99.706,81.391 100.202,81.521 100.697,81.652 101.193,81.782 101.688,81.912 102.184,82.042 102.695,82.222 103.205,82.402 103.716,82.583 104.226,82.763 104.737,82.943 105.247,83.123 105.758,83.303 106.268,83.484 106.849,83.649 107.430,83.814 108.010,83.979 108.591,84.144 109.171,84.309 109.752,84.475 110.333,84.640 110.913,84.805 111.414,84.940 111.914,85.075 112.415,85.210 112.915,85.346 113.416,85.481 113.917,85.616 114.417,85.751 114.918,85.886 115.438,86.031 115.959,86.176 116.479,86.322 117.000,86.467 117.520,86.612 118.041,86.757 118.562,86.902 119.082,87.047 119.473,87.147 119.863,87.248 120.253,87.348 120.644,87.448 121.034,87.548 121.425,87.648 121.815,87.748 122.205,87.848 122.841,87.988 123.477,88.128 124.112,88.269 124.748,88.409 125.384,88.549 126.020,88.689 126.655,88.829 127.291,88.969 127.816,89.100 128.342,89.230 128.868,89.360 129.393,89.490 129.919,89.620 130.444,89.750 130.970,89.880 131.495,90.011 131.911,90.106 132.326,90.201 132.742,90.296 133.157,90.391 133.573,90.486 133.988,90.581 134.403,90.676 134.819,90.771 135.995,90.997 137.171,91.222 138.348,91.447 139.524,91.672 140.700,91.898 141.876,92.123 143.053,92.348 144.229,92.573 144.544,92.623 144.860,92.673 145.175,92.723 145.490,92.773 145.806,92.823 146.121,92.874 146.436,92.924 146.752,92.974 147.272,93.114 147.793,93.254 148.313,93.394 148.834,93.534 149.354,93.674 149.875,93.815 150.396,93.955 150.916,94.095 151.957,94.300 152.998,94.505 154.039,94.711 155.081,94.916 156.122,95.121 157.163,95.326 158.204,95.531 159.245,95.737 159.741,95.867 160.236,95.997 160.732,96.127 161.227,96.257 161.723,96.387 162.218,96.517 162.714,96.648 163.209,96.778 163.585,96.883 163.960,96.988 164.335,97.093 164.711,97.198 165.086,97.303 165.462,97.408 165.837,97.514 166.212,97.619 166.603,97.684 166.993,97.749 167.384,97.814 167.774,97.879 168.165,97.944 168.555,98.009 168.945,98.074 169.336,98.139 169.881,98.219 170.427,98.299 170.973,98.379 171.518,98.460 172.064,98.540 172.609,98.620 173.155,98.700 173.700,98.780 173.961,98.865 174.221,98.950 174.481,99.035 174.742,99.120 175.002,99.205 175.262,99.290 175.522,99.375 175.783,99.461 176.103,99.551 176.423,99.641 176.744,99.731 177.064,99.821 177.384,99.911 177.705,100.001 178.025,100.091 178.345,100.181 178.866,100.312 179.387,100.442 179.907,100.572 180.428,100.702 180.948,100.832 181.469,100.962 181.989,101.092 182.510,101.222 182.940,101.323 183.371,101.423 183.801,101.523 184.232,101.623 184.662,101.723 185.093,101.823 185.523,101.923 185.954,102.023 186.474,102.088 186.995,102.153 187.515,102.219 188.036,102.284 188.556,102.349 189.077,102.414 189.597,102.479 190.118,102.544 190.478,102.659 190.839,102.774 191.199,102.889 191.560,103.004 191.920,103.119 192.280,103.235 192.641,103.350 193.001,103.465 193.412,103.545 193.822,103.625 194.232,103.705 194.643,103.785 195.053,103.865 195.464,103.945 195.874,104.025 196.285,104.105 196.795,104.196 197.306,104.286 197.816,104.376 198.327,104.466 198.837,104.556 199.348,104.646 199.858,104.736 200.369,104.826 200.789,104.881 201.210,104.936 201.630,104.991 202.051,105.047 202.471,105.102 202.892,105.157 203.312,105.212 203.733,105.267 204.153,105.287 204.573,105.307 204.994,105.327 205.414,105.347 205.835,105.367 206.255,105.387 206.676,105.407 207.096,105.427 207.296,105.487 207.497,105.547 207.697,105.607 207.897,105.667 208.097,105.727 208.297,105.787 208.498,105.847 208.698,105.907 208.908,106.053 209.118,106.198 209.329,106.343 209.539,106.488 209.749,106.633 209.959,106.778 210.169,106.924 210.380,107.069 210.365,107.244 210.350,107.419 210.335,107.594 210.320,107.769 210.305,107.945 210.289,108.120 210.274,108.295 210.259,108.470 210.004,108.816 209.749,109.161 209.494,109.506 209.238,109.852 208.983,110.197 208.728,110.542 208.473,110.888 208.217,111.233 208.072,111.348 207.927,111.463 207.782,111.578 207.637,111.694 207.491,111.809 207.346,111.924 207.201,112.039 207.056,112.154 206.841,112.324 206.626,112.494 206.410,112.665 206.195,112.835 205.980,113.005 205.765,113.175 205.549,113.345 205.334,113.515 205.079,113.696 204.824,113.876 204.568,114.056 204.313,114.236 204.058,114.416 203.803,114.597 203.547,114.777 203.292,114.957 202.997,115.242 202.701,115.528 202.406,115.813 202.111,116.098 201.815,116.384 201.520,116.669 201.225,116.954 200.929,117.239 200.744,117.430 200.559,117.620 200.374,117.810 200.189,118.000 200.003,118.190 199.818,118.381 199.633,118.571 199.448,118.761 199.273,118.956 199.098,119.151 198.922,119.347 198.747,119.542 198.572,119.737 198.397,119.932 198.222,120.128 198.046,120.323 197.931,120.498 197.816,120.673 197.701,120.848 197.586,121.023 197.471,121.199 197.356,121.374 197.240,121.549 197.125,121.724 196.990,121.919 196.855,122.115 196.720,122.310 196.585,122.505 196.450,122.700 196.315,122.895 196.179,123.091 196.044,123.286 195.954,123.441 195.864,123.596 195.774,123.751 195.684,123.907 195.594,124.062 195.504,124.217 195.414,124.372 195.324,124.527 194.963,125.288 194.603,126.049 194.243,126.810 193.882,127.570 193.522,128.331 193.162,129.092 192.801,129.853 192.441,130.614 192.331,130.924 192.221,131.234 192.110,131.545 192.000,131.855 191.890,132.165 191.780,132.476 191.670,132.786 191.560,133.096 191.425,133.427 191.289,133.757 191.154,134.087 191.019,134.418 190.884,134.748 190.749,135.079 190.614,135.409 190.479,135.739 190.368,136.050 190.258,136.360 190.148,136.670 190.038,136.981 189.928,137.291 189.818,137.601 189.708,137.912 189.598,138.222 189.573,138.642 189.548,139.063 189.523,139.483 189.498,139.904 189.473,140.324 189.447,140.745 189.422,141.165 189.397,141.585 189.453,142.011 189.508,142.436 189.563,142.862 189.618,143.287 189.673,143.713 189.728,144.138 189.783,144.564 189.838,144.989 189.938,145.410 190.038,145.830 190.138,146.250 190.239,146.671 190.339,147.091 190.439,147.512 190.539,147.932 190.639,148.353 190.739,148.788 190.840,149.224 190.940,149.659 191.040,150.095 191.140,150.530 191.240,150.965 191.340,151.401 191.440,151.836 191.566,152.107 191.691,152.377 191.816,152.647 191.941,152.918 192.066,153.188 192.191,153.458 192.317,153.728 192.442,153.999 192.647,154.109 192.852,154.219 193.057,154.329 193.263,154.439 193.468,154.549 193.673,154.660 193.878,154.770 194.084,154.880 194.814,154.895 195.545,154.910 196.276,154.925 197.007,154.940 197.737,154.955 198.468,154.970 199.199,154.985 199.930,155.000 200.060,154.985 200.190,154.970 200.320,154.955 200.450,154.940 200.580,154.925 200.711,154.910 200.841,154.895 200.971,154.880 201.286,154.885 201.602,154.890 201.917,154.895 202.232,154.900 202.548,154.905 202.863,154.910 203.178,154.915 203.494,154.920 203.869,154.890 204.244,154.860 204.620,154.830 204.995,154.800 205.371,154.770 205.746,154.740 206.121,154.710 206.497,154.680 206.912,154.214 207.328,153.749 207.743,153.283 208.159,152.818 208.574,152.352 208.989,151.887 209.405,151.421 209.820,150.956 210.146,150.530 210.471,150.105 210.796,149.679 211.122,149.254 211.447,148.828 211.772,148.403 212.098,147.978 212.423,147.552 212.809,147.137 213.194,146.721 213.579,146.306 213.965,145.890 214.350,145.475 214.736,145.059 215.121,144.644 215.506,144.229 215.842,143.858 216.177,143.488 216.512,143.117 216.848,142.747 217.183,142.377 217.519,142.006 217.854,141.636 218.189,141.265 218.575,140.775 218.960,140.284 219.346,139.794 219.731,139.303 220.116,138.813 220.502,138.322 220.887,137.832 221.273,137.341 221.613,136.936 221.953,136.530 222.294,136.125 222.634,135.719 222.974,135.314 223.315,134.909 223.655,134.503 223.995,134.098 224.846,133.332 225.697,132.566 226.548,131.800 227.399,131.034 228.250,130.269 229.101,129.503 229.952,128.737 230.803,127.971 231.133,127.651 231.463,127.330 231.794,127.010 232.124,126.690 232.455,126.369 232.785,126.049 233.115,125.729 233.446,125.408 233.761,125.138 234.076,124.868 234.392,124.598 234.707,124.327 235.022,124.057 235.338,123.787 235.653,123.516 235.968,123.246 236.153,123.096 236.339,122.946 236.524,122.796 236.709,122.645 236.894,122.495 237.079,122.345 237.265,122.195 237.450,122.045 237.775,121.860 238.101,121.674 238.426,121.489 238.751,121.304 239.077,121.119 239.402,120.934 239.727,120.748 240.053,120.563 240.363,120.378 240.673,120.193 240.984,120.008 241.294,119.822 241.604,119.637 241.915,119.452 242.225,119.267 242.535,119.082 243.126,118.861 243.717,118.641 244.307,118.421 244.898,118.201 245.488,117.981 246.079,117.760 246.670,117.540 247.260,117.320 247.616,117.235 247.971,117.150 248.326,117.064 248.682,116.979 249.037,116.894 249.393,116.809 249.748,116.724 250.103,116.639 250.854,116.564 251.605,116.489 252.356,116.414 253.107,116.339 253.857,116.264 254.608,116.189 255.359,116.114 256.110,116.039 256.956,116.013 257.802,115.988 258.648,115.963 259.493,115.938 260.339,115.913 261.185,115.888 262.031,115.863 262.877,115.838 263.423,115.833 263.968,115.828 264.514,115.823 265.059,115.818 265.605,115.813 266.151,115.808 266.696,115.803 267.242,115.798 267.722,115.808 268.203,115.818 268.683,115.828 269.164,115.838 269.644,115.849 270.125,115.859 270.605,115.869 271.086,115.879 271.666,115.884 272.247,115.889 272.828,115.894 273.408,115.899 273.989,115.904 274.570,115.909 275.150,115.914 275.731,115.919 276.236,115.924 276.742,115.929 277.247,115.934 277.753,115.939 278.258,115.945 278.764,115.950 279.270,115.955 279.775,115.960 280.176,115.975 280.576,115.990 280.976,116.005 281.377,116.020 281.777,116.035 282.178,116.050 282.578,116.065 282.979,116.080 283.629,116.110 284.280,116.140 284.931,116.170 285.581,116.200 286.232,116.230 286.883,116.260 287.533,116.290 288.184,116.320 288.705,116.335 289.225,116.350 289.746,116.365 290.266,116.381 290.787,116.396 291.307,116.411 291.828,116.426 292.349,116.441 293.209,116.411 294.070,116.381 294.931,116.350 295.792,116.320 296.653,116.290 297.514,116.260 298.375,116.230 299.236,116.200 300.157,116.190 301.078,116.180 301.999,116.170 302.920,116.160 303.841,116.150 304.762,116.140 305.683,116.129 306.604,116.119 307.114,116.124 307.625,116.129 308.135,116.134 308.646,116.140 309.156,116.145 309.667,116.150 310.178,116.155 310.688,116.160 311.214,116.200 311.739,116.240 312.265,116.280 312.790,116.320 313.316,116.360 313.842,116.400 314.367,116.440 314.893,116.480 315.573,116.470 316.254,116.460 316.935,116.450 317.616,116.440 318.296,116.430 318.977,116.419 319.658,116.409 320.338,116.399 321.064,116.384 321.790,116.369 322.516,116.354 323.242,116.339 323.967,116.324 324.693,116.309 325.419,116.294 326.145,116.279 326.930,116.274 327.716,116.269 328.502,116.264 329.288,116.259 330.074,116.254 330.860,116.249 331.646,116.244 332.431,116.239 333.467,116.234 334.504,116.228 335.540,116.223 336.576,116.218 337.612,116.213 338.648,116.208 339.684,116.203 340.720,116.198 341.571,116.208 342.422,116.218 343.273,116.228 344.124,116.239 344.975,116.249 345.826,116.259 346.677,116.269 347.528,116.279 348.278,116.309 349.029,116.339 349.780,116.369 350.531,116.399 351.282,116.429 352.032,116.459 352.783,116.489 353.534,116.519 354.019,116.575 354.505,116.630 354.990,116.685 355.476,116.740 355.962,116.795 356.447,116.850 356.933,116.905 357.418,116.960 357.834,117.045 358.249,117.130 358.664,117.215 359.080,117.300 359.495,117.386 359.911,117.471 360.326,117.556 360.742,117.641 361.002,117.741 361.262,117.841 361.522,117.941 361.783,118.042 362.043,118.142 362.303,118.242 362.564,118.342 362.823,118.441" fill="none" stroke="black" stroke-width="1"/>
</svg>
