<?xml version="1.0" encoding="UTF-8" standalone="no"?>
<!-- Created with Inkscape (http://www.inkscape.org/) -->

<svg
   width="210mm"
   height="297mm"
   viewBox="0 0 210 297"
   version="1.1"
   id="svg1"
   xml:space="preserve"
   inkscape:version="1.4.2 (ebf0e94, 2025-05-08)"
   sodipodi:docname="Nb.58.svg"
   xmlns:inkscape="http://www.inkscape.org/namespaces/inkscape"
   xmlns:sodipodi="http://sodipodi.sourceforge.net/DTD/sodipodi-0.dtd"
   xmlns="http://www.w3.org/2000/svg"
   xmlns:svg="http://www.w3.org/2000/svg"><sodipodi:namedview
     id="namedview1"
     pagecolor="#ffffff"
     bordercolor="#000000"
     borderopacity="0.25"
     inkscape:showpageshadow="2"
     inkscape:pageopacity="0.0"
     inkscape:pagecheckerboard="0"
     inkscape:deskcolor="#d1d1d1"
     inkscape:document-units="mm"
     showguides="true"
     inkscape:zoom="4.58"
     inkscape:cx="396.72489"
     inkscape:cy="578.60262"
     inkscape:window-width="3840"
     inkscape:window-height="2054"
     inkscape:window-x="-11"
     inkscape:window-y="-11"
     inkscape:window-maximized="1"
     inkscape:current-layer="svg1"><sodipodi:guide
       position="79.047341,193.70602"
       orientation="0,-1"
       id="guide1"
       inkscape:locked="false" /></sodipodi:namedview><defs
     id="defs1" /><path
     style="fill:none;stroke:#000000;stroke-width:0.264999"
     d="m 133.90921,158.92331 -15.48217,0.46215 -0.98208,-1.55977 -1.21316,-1.03985 -1.67531,-0.51992 -2.07969,-0.23108 -9.99409,-3.92831 -6.99008,-4.04385 -5.430314,-4.56377 -4.679312,-4.50601 -2.657385,-3.29285 -1.733079,-5.37254 -0.577694,-4.91039 -0.05777,-7.16339 0.635463,-2.94624 -0.231079,-2.02192 -0.462153,-1.502 v -0.69323 l 3.523927,-3.98608 0.346615,-1.67531 -0.404384,-1.44424 -1.444234,-0.80877 -2.888464,0.0578 -0.866539,0.80877 0.462155,0.98208 0.635461,0.5777 0.693232,0.63546 v 0.63546 l -0.288846,0.69323 c 0,0 -0.80877,0.57769 -1.039847,0.69323 -0.231079,0.11554 -1.848617,1.84862 -1.848617,1.84862 l -0.17331,0.80877 0.115541,0.751 1.039847,0.80877 0.288845,0.57769 -0.693232,5.19924 v 6.87454 l 1.039847,6.87455 1.906387,5.257 3.986082,4.91039 3.755004,3.69724 4.968158,3.98608 4.274926,3.17731 5.257009,2.07969 4.39046,1.44424 5.19924,1.90638 c 0,0 0.86654,0.57769 0.57769,0.751 -0.28885,0.17331 -0.28885,0.751 -0.28885,0.751 l -0.57769,0.92431 c 0,0 -0.0578,-0.0578 -0.1733,0.40439 -0.11554,0.46215 -0.11554,0.63546 -0.11554,0.92431 0,0.28884 -0.0578,0.40438 0.0578,0.63546 0.11554,0.23108 0.63546,0.51992 0.63546,0.51992 l 3.52392,0.23108 1.03985,-1.32869 0.751,-1.21316 4.39047,-0.28885 8.78093,0.34662 h 2.65739"
     id="path1" /></svg>
