<?xml version="1.0" encoding="UTF-8"?>
<svg xmlns="http://www.w3.org/2000/svg" width="69.1" height="160.0" viewBox="0 0 69.1 160.0">
  <polyline points="19.476,152.877 20.376,152.909 21.277,152.941 22.162,152.925 23.046,152.909 24.044,153.906 25.234,153.874 26.424,153.842 27.550,154.968 28.499,154.984 29.448,155.000 29.995,154.984 30.541,154.968 29.609,153.778 28.676,152.587 28.032,151.590 27.389,150.593 26.697,149.194 26.006,147.794 25.250,146.524 24.494,145.253 23.674,143.355 22.853,141.457 22.242,139.945 21.631,138.433 21.261,136.986 20.891,135.538 20.473,133.463 20.055,131.389 19.974,129.925 19.894,128.461 19.797,127.319 19.701,126.177 19.669,124.344 19.637,122.510 18.961,120.435 18.285,118.360 17.867,116.639 17.449,114.918 17.256,113.181 17.063,111.444 16.902,109.836 16.741,108.228 16.597,106.314 16.452,104.400 16.500,103.434 16.548,102.469 16.516,101.038 16.484,99.606 14.457,97.580 14.522,95.714 14.586,93.848 14.731,92.722 14.876,91.597 15.149,89.892 15.422,88.187 15.809,86.064 16.195,83.941 16.500,82.397 16.806,80.852 17.320,79.324 17.835,77.796 18.253,76.719 18.671,75.641 19.170,74.226 19.669,72.810 20.553,71.363 21.438,69.915 22.258,68.966 23.079,68.017 24.044,66.908 25.009,65.798 26.215,64.801 27.421,63.803 29.094,62.452 30.767,61.101 31.796,60.361 32.825,59.621 33.967,58.833 35.109,58.045 36.734,57.177 38.358,56.308 39.742,55.424 41.125,54.539 42.315,53.879 43.505,53.220 44.760,52.464 46.014,51.708 47.012,51.081 48.009,50.454 49.199,49.682 50.389,48.909 51.612,47.735 52.834,46.561 53.767,45.644 54.700,44.728 56.244,42.910 57.788,41.093 58.174,40.530 58.560,39.967 59.219,38.825 59.879,37.683 60.184,36.718 60.490,35.753 60.683,34.675 60.876,33.597 60.892,31.925 60.908,30.252 60.683,29.110 60.458,27.968 64.109,22.950 63.610,22.081 62.870,21.004 62.131,19.926 61.326,18.864 60.522,17.803 59.798,17.095 59.075,16.388 58.833,16.114 58.592,15.841 57.386,14.650 56.179,13.460 54.796,12.270 53.413,11.080 52.593,10.179 51.772,9.278 50.486,8.474 49.199,7.670 47.944,7.107 46.690,6.544 45.242,6.142 43.795,5.740 41.672,5.402 39.549,5.064 38.101,5.032 36.653,5.000 35.318,5.129 33.983,5.257 32.295,5.531 30.606,5.804 29.110,6.062 27.614,6.319 26.488,6.608 25.362,6.898 23.545,7.541 21.727,8.185 20.280,8.908 18.832,9.632 18.173,10.034 17.513,10.436 16.194,11.273 14.876,12.109 14.232,12.946 13.589,13.782 13.010,15.069 12.431,16.355 12.463,17.240 12.495,18.125 12.753,18.607 13.010,19.090 13.348,19.411 13.685,19.733 14.200,20.023 14.715,20.312 14.940,20.666 15.165,21.020 15.197,21.261 15.229,21.502 15.165,22.049 15.101,22.596 14.956,23.384 14.811,24.172 14.377,24.703 13.943,25.234 13.203,26.022 12.463,26.810 12.366,26.971 12.270,27.132 11.739,28.097 11.208,29.062 11.128,30.268 11.048,31.474 11.064,32.906 11.080,34.337 10.839,35.463 10.597,36.589 10.485,37.522 10.372,38.455 10.227,39.050 10.083,39.645 9.906,40.337 9.729,41.028 9.455,42.379 9.182,43.730 9.021,45.162 8.860,46.593 8.780,48.186 8.699,49.778 8.667,51.451 8.635,53.124 8.522,54.957 8.410,56.791 8.169,58.335 7.927,59.879 7.783,61.230 7.638,62.581 7.445,63.546 7.252,64.511 7.075,65.669 6.898,66.827 6.721,68.532 6.544,70.237 6.190,71.379 5.836,72.521 5.692,74.612 5.547,76.703 5.579,78.665 5.611,80.627 5.499,82.734 5.386,84.841 5.338,85.903 5.290,86.964 5.306,87.962 5.322,88.959 5.290,89.731 5.257,90.503 5.129,92.385 5.000,94.267 5.129,95.939 5.257,97.612 5.483,100.089 5.708,102.566 6.110,104.416 6.512,106.265 6.785,107.954 7.059,109.643 7.380,111.267 7.702,112.892 8.040,114.259 8.378,115.626 8.699,116.961 9.021,118.296 9.455,120.532 9.890,122.768 10.404,124.730 10.919,126.692 11.562,129.507 12.206,132.321 12.350,133.174 12.495,134.026 12.913,135.329 13.332,136.632 13.573,137.420 13.814,138.208 13.991,138.836 14.168,139.463 14.457,140.412 14.747,141.361 15.069,142.406 15.390,143.452 15.760,144.771 16.130,146.089 16.581,147.183 17.031,148.277 17.481,149.467 17.932,150.657 18.302,151.365 18.671,152.073 19.074,152.475 19.476,152.877" fill="none" stroke="black" stroke-width="1"/>
</svg>
