<?xml version="1.0" encoding="UTF-8"?>
<svg xmlns="http://www.w3.org/2000/svg" width="128.4" height="160.0" viewBox="0 0 128.4 160.0">
  <polyline points="5.105,146.726 5.079,147.278 5.053,147.830 5.026,148.381 5.000,148.933 5.013,149.471 5.026,150.010 5.039,150.548 5.053,151.086 5.066,151.835 5.079,152.584 5.092,153.332 5.105,154.081 5.565,154.540 6.024,155.000 6.642,154.961 7.259,154.921 7.876,154.882 8.493,154.842 9.386,154.803 10.279,154.764 11.172,154.724 12.065,154.685 13.037,154.672 14.009,154.658 14.981,154.645 15.953,154.632 16.695,154.613 17.437,154.593 18.179,154.573 18.921,154.554 19.157,154.547 19.393,154.541 19.630,154.535 19.866,154.528 20.024,153.963 20.181,153.399 20.339,152.834 20.496,152.269 20.746,151.330 20.995,150.391 21.245,149.452 21.494,148.513 21.987,147.299 22.479,146.084 22.972,144.869 23.464,143.654 23.990,142.479 24.515,141.304 25.040,140.128 25.566,138.953 26.268,137.548 26.971,136.143 27.673,134.737 28.376,133.332 28.750,132.741 29.124,132.150 29.499,131.559 29.873,130.968 30.366,129.878 30.858,128.788 31.350,127.698 31.843,126.608 32.375,125.525 32.907,124.441 33.439,123.358 33.970,122.275 34.870,120.797 35.770,119.320 36.669,117.842 37.569,116.365 38.094,115.321 38.619,114.277 39.145,113.233 39.670,112.189 40.300,111.164 40.931,110.140 41.561,109.116 42.191,108.091 43.052,106.870 43.912,105.649 44.772,104.427 45.632,103.206 46.184,102.398 46.735,101.591 47.287,100.783 47.838,99.976 48.390,99.135 48.942,98.295 49.493,97.454 50.045,96.614 50.846,95.694 51.647,94.775 52.448,93.856 53.249,92.936 54.280,91.945 55.311,90.953 56.342,89.962 57.373,88.970 58.154,88.399 58.935,87.828 59.717,87.257 60.498,86.685 61.463,86.140 62.429,85.595 63.394,85.050 64.359,84.505 65.318,84.019 66.276,83.534 67.235,83.048 68.194,82.562 69.382,81.807 70.571,81.052 71.759,80.296 72.948,79.541 73.782,78.957 74.616,78.372 75.450,77.788 76.283,77.204 77.052,76.534 77.820,75.864 78.588,75.194 79.356,74.525 80.138,73.999 80.919,73.474 81.701,72.949 82.482,72.423 83.414,71.655 84.347,70.887 85.279,70.119 86.212,69.350 86.960,68.759 87.709,68.169 88.457,67.578 89.206,66.987 89.869,66.409 90.532,65.831 91.195,65.253 91.859,64.675 92.588,63.973 93.316,63.270 94.045,62.567 94.774,61.865 95.470,61.195 96.166,60.525 96.862,59.856 97.558,59.186 98.261,58.464 98.963,57.741 99.666,57.019 100.369,56.297 101.143,55.496 101.918,54.695 102.693,53.893 103.468,53.092 104.092,52.409 104.715,51.727 105.339,51.044 105.963,50.361 106.574,49.527 107.184,48.693 107.795,47.859 108.406,47.025 108.839,46.559 109.272,46.093 109.706,45.626 110.139,45.160 110.717,44.510 111.295,43.860 111.873,43.210 112.451,42.560 112.884,42.028 113.317,41.496 113.751,40.964 114.184,40.433 114.611,39.842 115.038,39.251 115.464,38.660 115.891,38.069 116.574,36.992 117.257,35.915 117.940,34.838 118.623,33.761 119.096,32.829 119.568,31.896 120.041,30.964 120.514,30.032 121.039,28.777 121.565,27.523 122.090,26.269 122.615,25.015 122.733,24.628 122.851,24.240 122.970,23.853 123.088,23.465 123.154,22.796 123.219,22.126 123.285,21.456 123.351,20.786 123.370,20.412 123.390,20.038 123.409,19.663 123.429,19.289 123.330,18.396 123.232,17.503 123.133,16.610 123.035,15.717 122.759,15.001 122.483,14.286 122.208,13.570 121.932,12.854 120.645,12.932 120.278,12.092 119.910,11.251 119.542,10.411 119.135,9.623 118.728,8.835 118.321,8.047 117.914,7.259 117.290,6.812 116.666,6.366 116.042,5.919 115.418,5.473 114.506,5.355 113.593,5.236 112.680,5.118 111.768,5.000 110.829,5.066 109.890,5.131 108.951,5.197 108.012,5.263 107.001,5.492 105.989,5.722 104.978,5.952 103.967,6.182 103.297,6.550 102.627,6.917 101.958,7.285 101.288,7.653 100.710,8.060 100.132,8.467 99.554,8.874 98.977,9.281 98.458,9.715 97.939,10.148 97.420,10.581 96.902,11.015 96.442,11.520 95.982,12.026 95.523,12.532 95.063,13.037 94.873,13.589 94.682,14.140 94.492,14.692 94.301,15.243 94.459,15.815 94.617,16.386 94.774,16.957 94.932,17.528 95.267,17.949 95.601,18.369 95.936,18.789 96.271,19.209 96.777,19.511 97.282,19.814 97.788,20.116 98.294,20.418 98.681,20.536 99.068,20.654 99.456,20.772 99.843,20.890 100.342,20.871 100.841,20.851 101.340,20.832 101.839,20.812 102.555,20.720 103.271,20.628 103.987,20.536 104.702,20.444 105.109,20.412 105.517,20.379 105.924,20.346 106.331,20.313 106.383,20.681 106.436,21.048 106.488,21.416 106.541,21.784 106.331,22.388 106.121,22.992 105.911,23.596 105.700,24.200 105.254,24.877 104.807,25.553 104.361,26.229 103.914,26.906 103.330,27.746 102.746,28.587 102.161,29.427 101.577,30.267 101.065,30.918 100.552,31.568 100.040,32.218 99.528,32.868 99.068,33.413 98.609,33.958 98.149,34.503 97.690,35.048 96.895,35.882 96.101,36.716 95.306,37.549 94.511,38.383 93.829,39.145 93.146,39.907 92.463,40.668 91.780,41.430 91.123,42.192 90.467,42.954 89.810,43.715 89.153,44.477 88.746,44.917 88.339,45.357 87.932,45.797 87.525,46.237 86.744,46.946 85.962,47.655 85.181,48.364 84.399,49.073 83.920,49.572 83.441,50.071 82.961,50.570 82.482,51.069 81.845,51.818 81.208,52.567 80.571,53.315 79.934,54.064 79.265,54.806 78.595,55.548 77.925,56.290 77.255,57.032 76.704,57.590 76.152,58.148 75.601,58.706 75.049,59.264 74.366,59.914 73.683,60.564 73.000,61.214 72.317,61.864 71.615,62.501 70.912,63.138 70.210,63.775 69.507,64.412 68.837,64.964 68.168,65.515 67.498,66.067 66.828,66.618 66.211,67.071 65.594,67.525 64.976,67.978 64.359,68.431 63.847,68.825 63.335,69.219 62.823,69.613 62.310,70.007 61.470,70.578 60.629,71.149 59.789,71.720 58.949,72.292 58.522,72.574 58.095,72.856 57.668,73.139 57.241,73.421 56.539,73.710 55.836,73.999 55.134,74.288 54.431,74.577 52.783,75.450 51.135,76.323 49.487,77.197 47.838,78.070 47.116,78.576 46.394,79.081 45.672,79.587 44.949,80.092 44.155,80.756 43.360,81.419 42.566,82.082 41.771,82.745 41.246,83.297 40.721,83.848 40.195,84.400 39.670,84.951 39.053,85.529 38.435,86.107 37.818,86.685 37.201,87.263 36.709,87.782 36.216,88.300 35.724,88.819 35.231,89.338 34.745,89.922 34.259,90.507 33.773,91.091 33.288,91.675 32.920,92.247 32.552,92.818 32.184,93.389 31.817,93.960 31.725,94.157 31.633,94.354 31.541,94.551 31.449,94.748 30.871,95.497 30.293,96.245 29.715,96.994 29.138,97.743 28.566,98.517 27.995,99.292 27.424,100.067 26.853,100.842 26.386,101.617 25.920,102.391 25.454,103.166 24.988,103.941 24.541,104.762 24.095,105.583 23.648,106.403 23.202,107.224 22.814,107.861 22.427,108.498 22.039,109.135 21.652,109.772 21.343,110.356 21.035,110.941 20.726,111.525 20.418,112.110 20.221,112.582 20.024,113.055 19.827,113.528 19.630,114.001 19.328,114.631 19.026,115.261 18.724,115.892 18.421,116.522 17.929,117.592 17.437,118.663 16.944,119.733 16.452,120.803 15.788,122.241 15.125,123.679 14.462,125.117 13.799,126.555 13.648,126.897 13.497,127.238 13.346,127.580 13.195,127.921 13.004,128.335 12.814,128.749 12.623,129.162 12.433,129.576 12.157,130.121 11.881,130.666 11.606,131.211 11.330,131.756 11.159,132.189 10.988,132.623 10.818,133.056 10.647,133.489 10.391,134.172 10.135,134.855 9.879,135.538 9.623,136.221 9.084,137.245 8.546,138.270 8.007,139.294 7.469,140.318 7.311,140.876 7.154,141.435 6.996,141.993 6.839,142.551 6.543,143.253 6.248,143.956 5.952,144.659 5.657,145.361 5.519,145.703 5.381,146.044 5.243,146.386 5.105,146.726" fill="none" stroke="black" stroke-width="1"/>
</svg>
