<?xml version="1.0" encoding="UTF-8"?>
<svg xmlns="http://www.w3.org/2000/svg" width="60.0" height="160.0" viewBox="0 0 60.0 160.0">
  <polyline points="49.312,148.452 49.490,148.354 49.668,148.255 49.846,148.157 50.024,148.059 50.202,147.961 50.380,147.863 50.557,147.765 50.735,147.666 51.030,147.636 51.324,147.605 51.619,147.574 51.913,147.544 52.208,147.513 52.502,147.482 52.797,147.452 53.091,147.421 53.269,147.470 53.447,147.519 53.625,147.568 53.803,147.617 53.981,147.666 54.159,147.715 54.337,147.765 54.515,147.814 54.570,147.832 54.625,147.850 54.680,147.869 54.736,147.887 54.791,147.906 54.846,147.924 54.901,147.942 54.956,147.961 54.950,147.765 54.944,147.568 54.938,147.372 54.932,147.176 54.926,146.979 54.920,146.783 54.914,146.587 54.907,146.390 54.895,146.212 54.883,146.034 54.871,145.857 54.858,145.679 54.846,145.501 54.834,145.323 54.821,145.145 54.809,144.967 54.828,144.734 54.846,144.501 54.864,144.267 54.883,144.034 54.901,143.801 54.920,143.568 54.938,143.335 54.956,143.102 54.944,142.912 54.932,142.721 54.920,142.531 54.907,142.341 54.895,142.151 54.883,141.961 54.871,141.770 54.858,141.580 54.564,141.586 54.269,141.593 53.975,141.599 53.680,141.605 53.386,141.611 53.091,141.617 52.797,141.623 52.502,141.629 52.239,141.617 51.975,141.605 51.711,141.593 51.447,141.580 51.183,141.568 50.919,141.556 50.656,141.543 50.392,141.531 50.275,141.427 50.159,141.323 50.042,141.218 49.926,141.114 49.809,141.010 49.692,140.905 49.576,140.801 49.459,140.697 49.140,140.347 48.821,139.997 48.502,139.648 48.183,139.298 47.864,138.948 47.545,138.599 47.226,138.249 46.907,137.899 46.416,137.586 45.925,137.273 45.435,136.960 44.944,136.648 44.453,136.335 43.962,136.022 43.471,135.709 42.980,135.396 42.655,135.193 42.330,134.991 42.005,134.789 41.680,134.586 41.355,134.384 41.029,134.181 40.704,133.979 40.379,133.776 40.085,133.592 39.790,133.408 39.496,133.224 39.201,133.040 38.907,132.856 38.612,132.672 38.318,132.488 38.023,132.304 37.698,132.126 37.373,131.948 37.048,131.770 36.723,131.592 36.397,131.414 36.072,131.236 35.747,131.058 35.422,130.880 34.999,130.660 34.575,130.439 34.152,130.218 33.729,129.997 33.305,129.776 32.882,129.555 32.459,129.334 32.035,129.113 31.716,128.868 31.397,128.623 31.078,128.377 30.759,128.132 30.440,127.886 30.121,127.641 29.802,127.396 29.483,127.150 29.225,126.966 28.968,126.782 28.710,126.598 28.452,126.414 28.195,126.230 27.937,126.046 27.679,125.862 27.421,125.678 27.072,125.395 26.722,125.113 26.372,124.831 26.023,124.549 25.673,124.267 25.323,123.984 24.974,123.702 24.624,123.420 24.427,123.242 24.231,123.064 24.035,122.886 23.839,122.708 23.642,122.530 23.446,122.352 23.250,122.174 23.053,121.997 22.728,121.727 22.403,121.457 22.078,121.187 21.753,120.917 21.427,120.647 21.102,120.377 20.777,120.107 20.452,119.837 20.268,119.641 20.084,119.444 19.900,119.248 19.716,119.052 19.532,118.855 19.348,118.659 19.163,118.463 18.979,118.266 18.722,117.941 18.464,117.616 18.206,117.291 17.949,116.966 17.691,116.640 17.433,116.315 17.176,115.990 16.918,115.665 16.715,115.389 16.513,115.113 16.311,114.837 16.108,114.561 15.906,114.285 15.703,114.008 15.501,113.732 15.298,113.456 15.169,113.242 15.041,113.027 14.912,112.812 14.783,112.597 14.654,112.383 14.525,112.168 14.396,111.953 14.268,111.738 14.163,111.518 14.059,111.297 13.955,111.076 13.850,110.855 13.746,110.634 13.642,110.413 13.537,110.192 13.433,109.971 13.290,109.722 13.147,109.472 13.004,109.222 12.861,108.972 12.718,108.723 12.575,108.473 12.431,108.223 12.288,107.973 12.180,107.674 12.071,107.374 11.963,107.075 11.855,106.776 11.746,106.476 11.638,106.177 11.529,105.878 11.421,105.578 11.343,105.296 11.265,105.014 11.186,104.732 11.108,104.450 11.030,104.168 10.952,103.887 10.874,103.605 10.796,103.323 10.701,102.936 10.605,102.550 10.510,102.164 10.414,101.778 10.319,101.392 10.223,101.006 10.128,100.620 10.032,100.234 10.011,99.848 9.989,99.461 9.967,99.075 9.946,98.689 9.924,98.303 9.902,97.917 9.881,97.531 9.859,97.145 9.868,96.655 9.876,96.164 9.885,95.674 9.894,95.184 9.902,94.694 9.911,94.203 9.920,93.713 9.928,93.223 10.050,92.473 10.171,91.722 10.293,90.971 10.414,90.221 10.536,89.470 10.657,88.720 10.779,87.969 10.900,87.219 11.056,86.720 11.212,86.221 11.369,85.722 11.525,85.223 11.681,84.724 11.837,84.225 11.993,83.727 12.150,83.228 12.340,82.737 12.531,82.247 12.722,81.757 12.913,81.267 13.104,80.777 13.295,80.286 13.486,79.796 13.677,79.306 13.885,78.989 14.093,78.672 14.301,78.356 14.510,78.039 14.718,77.722 14.926,77.406 15.134,77.089 15.343,76.772 15.503,76.469 15.664,76.165 15.824,75.861 15.985,75.558 16.145,75.254 16.306,74.950 16.466,74.647 16.627,74.343 16.857,73.970 17.086,73.597 17.316,73.224 17.546,72.851 17.776,72.477 18.006,72.104 18.236,71.731 18.466,71.358 18.705,71.063 18.943,70.768 19.182,70.473 19.420,70.178 19.659,69.883 19.898,69.588 20.136,69.293 20.375,68.998 20.761,68.642 21.147,68.287 21.533,67.931 21.919,67.575 22.305,67.219 22.692,66.864 23.078,66.508 23.464,66.152 23.780,65.883 24.097,65.614 24.414,65.345 24.731,65.076 25.047,64.807 25.364,64.538 25.681,64.269 25.997,64.000 26.336,63.758 26.674,63.515 27.012,63.272 27.351,63.029 27.689,62.786 28.028,62.543 28.366,62.300 28.704,62.057 29.073,61.823 29.442,61.588 29.811,61.354 30.179,61.120 30.548,60.886 30.917,60.651 31.286,60.417 31.654,60.183 32.062,59.866 32.470,59.549 32.878,59.233 33.286,58.916 33.693,58.599 34.101,58.283 34.509,57.966 34.917,57.649 35.260,57.359 35.602,57.068 35.945,56.777 36.288,56.487 36.630,56.196 36.973,55.905 37.316,55.615 37.659,55.324 38.110,55.046 38.561,54.769 39.012,54.491 39.463,54.213 39.914,53.936 40.366,53.658 40.817,53.380 41.268,53.103 41.416,52.947 41.563,52.790 41.711,52.634 41.858,52.478 42.006,52.322 42.153,52.166 42.301,52.009 42.448,51.853 42.691,51.632 42.934,51.411 43.177,51.190 43.420,50.968 43.663,50.747 43.906,50.526 44.149,50.305 44.392,50.083 44.500,49.944 44.608,49.806 44.717,49.667 44.825,49.528 44.934,49.389 45.042,49.250 45.151,49.112 45.259,48.973 45.437,48.708 45.615,48.443 45.793,48.179 45.971,47.914 46.149,47.650 46.326,47.385 46.504,47.120 46.682,46.856 46.843,46.517 47.003,46.179 47.164,45.840 47.324,45.502 47.485,45.164 47.645,44.825 47.806,44.487 47.966,44.149 48.114,43.667 48.261,43.185 48.409,42.704 48.556,42.222 48.704,41.741 48.851,41.259 48.999,40.778 49.146,40.296 49.151,39.880 49.155,39.463 49.159,39.047 49.164,38.630 49.168,38.214 49.172,37.797 49.177,37.381 49.181,36.964 49.046,36.583 48.912,36.201 48.777,35.819 48.643,35.437 48.509,35.056 48.374,34.674 48.240,34.292 48.105,33.910 47.866,33.620 47.628,33.329 47.389,33.038 47.151,32.748 46.912,32.457 46.673,32.166 46.435,31.876 46.196,31.585 45.832,31.299 45.467,31.012 45.103,30.726 44.739,30.440 44.374,30.153 44.010,29.867 43.645,29.581 43.281,29.294 42.964,29.190 42.648,29.086 42.331,28.982 42.014,28.878 41.697,28.774 41.381,28.670 41.064,28.565 40.747,28.461 40.504,28.357 40.261,28.253 40.019,28.149 39.776,28.045 39.533,27.941 39.290,27.837 39.047,27.733 38.804,27.628 38.752,27.559 38.700,27.490 38.648,27.420 38.596,27.351 38.544,27.281 38.491,27.212 38.439,27.143 38.387,27.073 38.561,26.774 38.734,26.474 38.908,26.175 39.081,25.876 39.255,25.576 39.429,25.277 39.602,24.978 39.776,24.678 39.936,24.440 40.097,24.201 40.257,23.963 40.418,23.724 40.578,23.485 40.739,23.247 40.899,23.008 41.060,22.770 41.255,22.409 41.450,22.049 41.645,21.689 41.841,21.329 42.036,20.969 42.231,20.609 42.426,20.249 42.621,19.889 42.808,19.494 42.995,19.099 43.181,18.705 43.368,18.310 43.554,17.915 43.741,17.520 43.927,17.125 44.114,16.731 44.261,16.414 44.409,16.097 44.556,15.781 44.704,15.464 44.851,15.147 44.999,14.831 45.146,14.514 45.294,14.197 45.446,13.768 45.598,13.338 45.749,12.909 45.901,12.479 46.053,12.050 46.205,11.620 46.357,11.191 46.509,10.761 46.556,10.349 46.604,9.937 46.652,9.525 46.699,9.113 46.747,8.701 46.795,8.288 46.843,7.876 46.890,7.464 46.825,7.230 46.760,6.996 46.695,6.761 46.630,6.527 46.565,6.293 46.500,6.059 46.435,5.824 46.370,5.590 46.244,5.534 46.118,5.477 45.992,5.421 45.867,5.364 45.741,5.308 45.615,5.252 45.489,5.195 45.363,5.139 45.190,5.121 45.016,5.104 44.843,5.087 44.669,5.069 44.496,5.052 44.322,5.035 44.149,5.017 43.975,5.000 43.906,5.143 43.836,5.286 43.767,5.429 43.697,5.573 43.628,5.716 43.559,5.859 43.489,6.002 43.420,6.145 43.372,6.419 43.324,6.692 43.277,6.965 43.229,7.239 43.181,7.512 43.133,7.785 43.086,8.058 43.038,8.332 42.916,8.701 42.795,9.069 42.674,9.438 42.552,9.807 42.431,10.176 42.309,10.544 42.188,10.913 42.066,11.282 41.953,11.633 41.841,11.985 41.728,12.336 41.615,12.687 41.502,13.039 41.389,13.390 41.277,13.742 41.164,14.093 40.977,14.479 40.791,14.865 40.604,15.251 40.418,15.637 40.231,16.024 40.045,16.410 39.858,16.796 39.671,17.182 39.498,17.507 39.324,17.833 39.151,18.158 38.977,18.483 38.804,18.809 38.630,19.134 38.457,19.459 38.283,19.785 38.036,20.136 37.789,20.488 37.541,20.839 37.294,21.190 37.047,21.542 36.800,21.893 36.552,22.245 36.305,22.596 36.079,22.882 35.854,23.169 35.628,23.455 35.403,23.741 35.177,24.028 34.951,24.314 34.726,24.600 34.500,24.887 34.253,25.130 34.006,25.373 33.758,25.615 33.511,25.858 33.264,26.101 33.017,26.344 32.769,26.587 32.522,26.830 32.431,27.073 32.340,27.316 32.249,27.559 32.158,27.802 32.066,28.045 31.975,28.288 31.884,28.531 31.793,28.774 31.897,28.921 32.001,29.069 32.106,29.216 32.210,29.364 32.314,29.511 32.418,29.659 32.522,29.806 32.626,29.954 32.886,30.040 33.147,30.127 33.407,30.214 33.667,30.301 33.928,30.388 34.188,30.474 34.448,30.561 34.708,30.648 35.051,30.709 35.394,30.769 35.737,30.830 36.079,30.891 36.422,30.952 36.765,31.012 37.108,31.073 37.450,31.134 37.624,31.199 37.797,31.264 37.971,31.329 38.144,31.394 38.318,31.459 38.491,31.524 38.665,31.589 38.839,31.654 39.034,31.754 39.229,31.854 39.424,31.954 39.619,32.053 39.815,32.153 40.010,32.253 40.205,32.353 40.400,32.453 40.661,32.656 40.921,32.860 41.181,33.064 41.441,33.268 41.702,33.472 41.962,33.676 42.222,33.880 42.483,34.084 42.617,34.292 42.752,34.500 42.886,34.708 43.021,34.917 43.155,35.125 43.290,35.333 43.424,35.541 43.559,35.750 43.645,36.014 43.732,36.279 43.819,36.544 43.906,36.808 43.992,37.073 44.079,37.337 44.166,37.602 44.253,37.867 44.279,38.153 44.305,38.439 44.331,38.726 44.357,39.012 44.383,39.298 44.409,39.585 44.435,39.871 44.461,40.157 44.357,40.470 44.253,40.782 44.149,41.094 44.044,41.407 43.940,41.719 43.836,42.031 43.732,42.344 43.628,42.656 43.519,42.869 43.411,43.081 43.303,43.294 43.194,43.506 43.086,43.719 42.977,43.932 42.869,44.144 42.760,44.357 42.504,44.695 42.248,45.034 41.992,45.372 41.736,45.710 41.481,46.049 41.225,46.387 40.969,46.725 40.713,47.064 40.461,47.289 40.209,47.515 39.958,47.741 39.706,47.966 39.455,48.192 39.203,48.417 38.951,48.643 38.700,48.869 38.400,49.094 38.101,49.320 37.802,49.545 37.502,49.771 37.203,49.997 36.904,50.222 36.604,50.448 36.305,50.673 36.045,50.877 35.784,51.081 35.524,51.285 35.264,51.489 35.003,51.693 34.743,51.897 34.483,52.101 34.223,52.304 33.819,52.569 33.416,52.834 33.012,53.098 32.609,53.363 32.205,53.628 31.802,53.892 31.398,54.157 30.995,54.422 30.648,54.647 30.301,54.873 29.954,55.098 29.607,55.324 29.260,55.550 28.913,55.775 28.565,56.001 28.218,56.226 27.915,56.456 27.611,56.686 27.307,56.916 27.004,57.146 26.700,57.376 26.396,57.606 26.093,57.836 25.789,58.066 25.494,58.257 25.199,58.447 24.904,58.638 24.609,58.829 24.314,59.020 24.019,59.211 23.724,59.402 23.429,59.593 23.316,59.784 23.203,59.975 23.091,60.165 22.978,60.356 22.865,60.547 22.752,60.738 22.639,60.929 22.527,61.120 22.422,61.237 22.318,61.354 22.214,61.471 22.110,61.588 22.006,61.706 21.902,61.823 21.798,61.940 21.694,62.057 21.577,62.100 21.459,62.144 21.342,62.187 21.225,62.230 21.108,62.274 20.991,62.317 20.874,62.361 20.757,62.404 20.596,62.473 20.436,62.543 20.275,62.612 20.115,62.682 19.954,62.751 19.794,62.820 19.633,62.890 19.472,62.959 19.360,63.059 19.247,63.159 19.134,63.259 19.021,63.358 18.908,63.458 18.796,63.558 18.683,63.658 18.570,63.758 18.527,63.931 18.483,64.105 18.440,64.278 18.397,64.452 18.353,64.625 18.310,64.799 18.266,64.972 18.223,65.146 18.093,65.267 17.963,65.389 17.833,65.510 17.702,65.632 17.572,65.753 17.442,65.875 17.312,65.996 17.182,66.118 16.965,66.191 16.748,66.265 16.531,66.339 16.314,66.413 16.097,66.486 15.880,66.560 15.663,66.634 15.447,66.708 15.421,66.833 15.394,66.959 15.368,67.085 15.342,67.211 15.316,67.337 15.290,67.462 15.264,67.588 15.238,67.714 15.126,67.909 15.013,68.104 14.900,68.300 14.787,68.495 14.674,68.690 14.562,68.885 14.449,69.081 14.336,69.276 14.280,69.297 14.223,69.319 14.167,69.341 14.110,69.363 14.054,69.384 13.998,69.406 13.941,69.428 13.885,69.449 13.724,69.692 13.564,69.935 13.403,70.178 13.243,70.421 13.082,70.664 12.922,70.907 12.761,71.150 12.601,71.393 12.444,71.671 12.288,71.948 12.132,72.226 11.976,72.503 11.820,72.781 11.664,73.059 11.507,73.336 11.351,73.614 11.186,73.935 11.022,74.256 10.857,74.577 10.692,74.898 10.527,75.219 10.362,75.540 10.197,75.861 10.032,76.182 9.872,76.577 9.711,76.972 9.551,77.367 9.390,77.761 9.230,78.156 9.069,78.551 8.909,78.946 8.748,79.341 8.622,79.709 8.497,80.078 8.371,80.447 8.245,80.816 8.119,81.184 7.993,81.553 7.868,81.922 7.742,82.291 7.555,82.776 7.369,83.262 7.182,83.748 6.996,84.234 6.809,84.720 6.623,85.206 6.436,85.692 6.249,86.178 6.154,86.594 6.059,87.011 5.963,87.427 5.868,87.844 5.772,88.260 5.677,88.677 5.581,89.093 5.486,89.509 5.438,89.896 5.390,90.282 5.343,90.668 5.295,91.054 5.247,91.440 5.200,91.826 5.152,92.212 5.104,92.598 5.091,92.941 5.078,93.284 5.065,93.627 5.052,93.969 5.039,94.312 5.026,94.655 5.013,94.997 5.000,95.340 5.017,95.592 5.035,95.843 5.052,96.095 5.069,96.347 5.087,96.598 5.104,96.850 5.121,97.101 5.139,97.353 5.169,97.700 5.200,98.047 5.230,98.394 5.260,98.741 5.291,99.088 5.321,99.435 5.351,99.783 5.382,100.130 5.416,100.455 5.451,100.780 5.486,101.106 5.521,101.431 5.555,101.756 5.590,102.082 5.625,102.407 5.659,102.733 5.711,103.093 5.764,103.453 5.816,103.813 5.868,104.173 5.920,104.533 5.972,104.893 6.024,105.253 6.076,105.613 6.167,105.978 6.258,106.342 6.349,106.706 6.440,107.071 6.531,107.435 6.623,107.800 6.714,108.164 6.805,108.528 6.913,108.793 7.022,109.058 7.130,109.322 7.239,109.587 7.347,109.852 7.455,110.116 7.564,110.381 7.672,110.646 7.833,111.019 7.993,111.392 8.154,111.765 8.314,112.138 8.475,112.511 8.635,112.884 8.796,113.257 8.957,113.630 9.186,113.995 9.416,114.359 9.646,114.724 9.876,115.088 10.106,115.452 10.336,115.817 10.566,116.181 10.796,116.546 11.017,116.884 11.238,117.222 11.460,117.561 11.681,117.899 11.902,118.238 12.123,118.576 12.345,118.914 12.566,119.253 12.818,119.500 13.069,119.747 13.321,119.995 13.572,120.242 13.824,120.489 14.076,120.736 14.327,120.984 14.579,121.231 14.909,121.626 15.238,122.020 15.568,122.415 15.898,122.810 16.227,123.205 16.557,123.600 16.887,123.994 17.217,124.389 17.460,124.593 17.702,124.797 17.945,125.001 18.188,125.205 18.431,125.409 18.674,125.613 18.917,125.816 19.160,126.020 19.416,126.194 19.672,126.367 19.928,126.541 20.184,126.714 20.440,126.888 20.696,127.062 20.952,127.235 21.208,127.409 21.524,127.621 21.841,127.834 22.158,128.046 22.475,128.259 22.791,128.471 23.108,128.684 23.425,128.897 23.741,129.109 23.997,129.287 24.253,129.465 24.509,129.643 24.765,129.821 25.021,129.999 25.277,130.176 25.533,130.354 25.789,130.532 25.993,130.680 26.197,130.827 26.401,130.975 26.605,131.122 26.808,131.270 27.012,131.417 27.216,131.565 27.420,131.712 27.819,131.942 28.218,132.172 28.618,132.402 29.017,132.632 29.416,132.862 29.815,133.092 30.214,133.322 30.613,133.552 30.999,133.760 31.385,133.968 31.771,134.176 32.158,134.385 32.544,134.593 32.930,134.801 33.316,135.009 33.702,135.217 34.006,135.378 34.309,135.539 34.613,135.699 34.917,135.860 35.220,136.020 35.524,136.181 35.828,136.341 36.131,136.502 36.405,136.653 36.678,136.805 36.951,136.957 37.225,137.109 37.498,137.261 37.771,137.413 38.045,137.564 38.318,137.716 38.483,137.894 38.648,138.072 38.812,138.250 38.977,138.428 39.142,138.606 39.307,138.784 39.472,138.961 39.637,139.139 39.767,139.395 39.897,139.651 40.027,139.907 40.157,140.163 40.287,140.419 40.418,140.675 40.548,140.931 40.678,141.187 40.691,141.400 40.704,141.612 40.717,141.825 40.730,142.037 40.743,142.250 40.756,142.462 40.769,142.675 40.782,142.888 40.717,143.096 40.652,143.304 40.587,143.512 40.522,143.720 40.457,143.929 40.392,144.137 40.326,144.345 40.261,144.553 40.136,144.718 40.010,144.883 39.884,145.048 39.758,145.213 39.632,145.378 39.507,145.543 39.381,145.707 39.255,145.872 39.086,146.024 38.917,146.176 38.747,146.328 38.578,146.480 38.409,146.631 38.240,146.783 38.071,146.935 37.901,147.087 37.559,147.248 37.216,147.408 36.873,147.569 36.531,147.729 36.188,147.890 35.845,148.050 35.502,148.211 35.160,148.371 35.042,148.523 34.925,148.675 34.808,148.827 34.691,148.978 34.574,149.130 34.457,149.282 34.340,149.434 34.223,149.586 34.218,149.733 34.214,149.881 34.210,150.028 34.205,150.176 34.201,150.323 34.197,150.471 34.192,150.618 34.188,150.766 34.305,150.905 34.422,151.043 34.539,151.182 34.656,151.321 34.774,151.460 34.891,151.599 35.008,151.738 35.125,151.876 35.043,152.054 34.960,152.232 34.878,152.410 34.795,152.588 34.713,152.766 34.630,152.944 34.548,153.122 34.466,153.299 34.531,153.469 34.596,153.638 34.661,153.807 34.726,153.976 34.791,154.145 34.856,154.315 34.921,154.484 34.986,154.653 35.147,154.696 35.307,154.740 35.468,154.783 35.628,154.826 35.789,154.870 35.949,154.913 36.110,154.957 36.270,155.000 36.561,154.987 36.852,154.974 37.142,154.961 37.433,154.948 37.724,154.935 38.014,154.922 38.305,154.909 38.596,154.896 38.778,154.748 38.960,154.601 39.142,154.453 39.324,154.306 39.507,154.158 39.689,154.011 39.871,153.863 40.053,153.716 40.340,153.525 40.626,153.334 40.912,153.143 41.199,152.952 41.485,152.761 41.771,152.571 42.058,152.380 42.344,152.189 42.591,152.037 42.838,151.885 43.086,151.733 43.333,151.581 43.580,151.430 43.828,151.278 44.075,151.126 44.322,150.974 44.613,150.822 44.903,150.670 45.194,150.519 45.485,150.367 45.775,150.215 46.066,150.063 46.357,149.911 46.647,149.759 46.847,149.668 47.047,149.577 47.246,149.486 47.446,149.395 47.645,149.304 47.845,149.213 48.044,149.122 48.244,149.031 48.377,148.958 48.511,148.886 48.644,148.814 48.778,148.741 48.911,148.669 49.045,148.596 49.178,148.524 49.312,148.452" fill="none" stroke="black" stroke-width="1"/>
</svg>
