<?xml version="1.0" encoding="UTF-8"?>
<svg xmlns="http://www.w3.org/2000/svg" width="95.2" height="160.0" viewBox="0 0 95.2 160.0">
  <polyline points="5.270,154.797 5.616,154.814 5.962,154.831 6.308,154.848 6.654,154.865 7.102,154.890 7.549,154.916 7.996,154.941 8.444,154.966 8.899,154.975 9.355,154.983 9.811,154.992 10.267,155.000 10.714,154.975 11.161,154.949 11.609,154.924 12.056,154.899 12.115,154.477 12.174,154.055 12.233,153.633 12.292,153.211 12.368,152.282 12.444,151.354 12.520,150.425 12.596,149.497 12.630,148.619 12.664,147.741 12.697,146.864 12.731,145.986 12.849,145.049 12.967,144.112 13.086,143.175 13.204,142.238 13.415,141.453 13.626,140.668 13.837,139.884 14.048,139.099 14.267,137.790 14.487,136.482 14.706,135.174 14.926,133.866 15.111,133.250 15.297,132.633 15.483,132.017 15.668,131.401 15.998,130.380 16.327,129.359 16.656,128.337 16.985,127.316 17.137,126.776 17.289,126.236 17.441,125.695 17.593,125.155 17.812,124.387 18.032,123.619 18.251,122.851 18.471,122.083 18.673,121.416 18.876,120.750 19.078,120.083 19.281,119.416 19.593,118.580 19.905,117.745 20.218,116.909 20.530,116.074 20.817,115.432 21.104,114.791 21.391,114.149 21.678,113.508 21.982,112.892 22.286,112.275 22.589,111.659 22.893,111.043 23.222,110.284 23.552,109.524 23.881,108.764 24.210,108.005 24.446,107.439 24.683,106.874 24.919,106.308 25.155,105.743 25.484,104.966 25.814,104.190 26.143,103.413 26.472,102.637 26.767,101.995 27.063,101.354 27.358,100.712 27.654,100.071 27.839,99.700 28.025,99.328 28.211,98.957 28.396,98.585 28.666,98.071 28.936,97.556 29.207,97.041 29.477,96.526 29.755,95.952 30.034,95.378 30.312,94.804 30.591,94.230 30.751,93.884 30.911,93.538 31.072,93.192 31.232,92.846 31.511,92.314 31.789,91.783 32.068,91.251 32.346,90.719 32.735,89.985 33.123,89.251 33.511,88.516 33.899,87.782 34.127,87.351 34.355,86.921 34.583,86.491 34.811,86.060 35.123,85.503 35.435,84.946 35.748,84.389 36.060,83.832 36.347,83.385 36.634,82.937 36.921,82.490 37.208,82.043 37.427,81.646 37.647,81.249 37.866,80.852 38.086,80.456 38.280,80.127 38.474,79.797 38.668,79.468 38.862,79.139 39.174,78.658 39.487,78.177 39.799,77.696 40.111,77.215 40.305,76.894 40.500,76.573 40.694,76.253 40.888,75.932 41.285,75.358 41.681,74.784 42.078,74.210 42.475,73.636 42.770,73.222 43.065,72.809 43.361,72.395 43.656,71.982 43.943,71.534 44.230,71.087 44.517,70.640 44.804,70.192 45.142,69.635 45.479,69.078 45.817,68.521 46.155,67.964 46.349,67.652 46.543,67.340 46.737,67.027 46.931,66.715 47.142,66.285 47.353,65.854 47.564,65.424 47.775,64.993 47.935,64.622 48.096,64.251 48.256,63.879 48.417,63.508 48.644,63.153 48.872,62.799 49.100,62.444 49.328,62.090 49.674,61.499 50.020,60.908 50.366,60.317 50.712,59.727 50.974,59.406 51.236,59.085 51.497,58.764 51.759,58.444 52.046,58.106 52.333,57.768 52.620,57.431 52.907,57.093 53.177,56.713 53.447,56.334 53.717,55.954 53.987,55.574 54.223,55.219 54.460,54.865 54.696,54.510 54.932,54.156 55.118,53.844 55.304,53.531 55.489,53.219 55.675,52.907 55.937,52.493 56.198,52.080 56.460,51.666 56.722,51.253 56.966,50.898 57.211,50.544 57.456,50.189 57.701,49.835 57.962,49.531 58.224,49.227 58.486,48.923 58.747,48.619 59.060,48.231 59.372,47.843 59.684,47.454 59.997,47.066 60.292,46.720 60.587,46.374 60.883,46.028 61.178,45.682 61.499,45.344 61.820,45.007 62.140,44.669 62.461,44.332 62.773,43.960 63.086,43.589 63.398,43.217 63.710,42.846 64.107,42.281 64.504,41.715 64.900,41.150 65.297,40.584 65.660,40.145 66.023,39.706 66.386,39.267 66.749,38.829 67.154,38.297 67.559,37.765 67.964,37.233 68.369,36.702 68.631,36.465 68.893,36.229 69.154,35.993 69.416,35.756 69.762,35.368 70.108,34.980 70.454,34.592 70.800,34.203 71.062,33.967 71.323,33.731 71.585,33.494 71.847,33.258 72.437,33.148 73.028,33.038 73.619,32.929 74.210,32.819 74.775,32.853 75.341,32.887 75.906,32.920 76.472,32.954 77.088,32.946 77.704,32.937 78.320,32.929 78.936,32.920 79.510,32.903 80.084,32.887 80.658,32.870 81.232,32.853 81.907,32.726 82.583,32.600 83.258,32.473 83.933,32.346 84.524,32.068 85.115,31.789 85.706,31.511 86.296,31.232 86.668,30.852 87.039,30.473 87.410,30.093 87.782,29.713 88.060,29.274 88.339,28.835 88.617,28.396 88.896,27.957 89.166,27.206 89.436,26.455 89.706,25.704 89.976,24.953 90.027,24.252 90.078,23.552 90.128,22.851 90.179,22.151 90.162,21.712 90.145,21.273 90.128,20.834 90.111,20.395 90.061,19.846 90.010,19.298 89.959,18.749 89.909,18.201 89.774,17.694 89.639,17.188 89.504,16.681 89.369,16.175 89.090,15.668 88.812,15.162 88.533,14.656 88.255,14.149 87.731,13.828 87.208,13.508 86.685,13.187 86.161,12.866 85.495,12.782 84.828,12.698 84.161,12.613 83.494,12.529 83.030,12.723 82.566,12.917 82.102,13.111 81.637,13.305 81.325,13.381 81.013,13.457 80.700,13.533 80.388,13.609 79.705,13.533 79.021,13.457 78.337,13.381 77.654,13.305 77.223,13.179 76.793,13.052 76.362,12.925 75.932,12.799 75.518,12.529 75.105,12.259 74.691,11.989 74.277,11.718 73.974,11.491 73.670,11.263 73.366,11.035 73.062,10.807 72.589,10.419 72.117,10.030 71.644,9.642 71.171,9.254 70.834,8.899 70.496,8.545 70.159,8.190 69.821,7.836 69.635,7.659 69.450,7.481 69.264,7.304 69.078,7.127 68.555,6.756 68.032,6.384 67.508,6.013 66.985,5.641 66.318,5.481 65.652,5.321 64.985,5.160 64.318,5.000 63.820,5.059 63.322,5.118 62.824,5.177 62.326,5.236 62.039,5.397 61.752,5.557 61.465,5.717 61.178,5.878 60.824,6.215 60.469,6.553 60.115,6.891 59.760,7.228 59.549,7.659 59.338,8.089 59.127,8.520 58.916,8.950 58.857,9.279 58.798,9.608 58.739,9.938 58.680,10.267 58.638,10.891 58.596,11.516 58.553,12.140 58.511,12.765 58.579,13.170 58.646,13.575 58.714,13.980 58.781,14.386 58.967,14.808 59.153,15.230 59.338,15.652 59.524,16.074 59.794,16.453 60.064,16.833 60.334,17.213 60.604,17.593 60.815,17.686 61.026,17.779 61.237,17.871 61.448,17.964 62.005,18.099 62.562,18.234 63.119,18.369 63.677,18.504 63.879,18.606 64.082,18.707 64.284,18.808 64.487,18.910 64.672,19.095 64.858,19.281 65.044,19.467 65.230,19.652 65.314,19.880 65.398,20.108 65.483,20.336 65.567,20.564 65.787,20.935 66.006,21.307 66.225,21.678 66.445,22.049 66.555,22.210 66.664,22.370 66.774,22.530 66.884,22.691 67.086,22.809 67.289,22.927 67.492,23.045 67.694,23.163 67.871,23.349 68.049,23.535 68.226,23.720 68.403,23.906 68.412,23.999 68.420,24.092 68.428,24.185 68.437,24.278 68.336,24.742 68.234,25.206 68.133,25.670 68.032,26.134 67.888,26.295 67.745,26.455 67.601,26.615 67.458,26.776 67.213,27.147 66.968,27.519 66.723,27.890 66.479,28.261 66.217,28.599 65.955,28.937 65.694,29.274 65.432,29.612 65.103,29.975 64.774,30.338 64.445,30.701 64.115,31.063 63.584,31.612 63.052,32.161 62.520,32.709 61.989,33.258 61.828,33.511 61.668,33.764 61.507,34.018 61.347,34.271 61.212,34.482 61.077,34.693 60.942,34.904 60.807,35.115 60.486,35.554 60.165,35.993 59.845,36.431 59.524,36.870 59.229,37.132 58.933,37.394 58.638,37.655 58.342,37.917 57.752,38.516 57.161,39.115 56.570,39.715 55.979,40.314 55.549,40.972 55.118,41.631 54.688,42.289 54.257,42.947 53.911,43.395 53.565,43.842 53.219,44.289 52.873,44.737 52.611,45.108 52.350,45.479 52.088,45.851 51.826,46.222 51.514,46.577 51.202,46.931 50.890,47.286 50.577,47.640 50.214,48.189 49.851,48.737 49.489,49.286 49.126,49.835 48.839,50.290 48.552,50.746 48.265,51.202 47.978,51.658 47.539,52.223 47.100,52.789 46.661,53.354 46.222,53.920 45.927,54.375 45.631,54.831 45.336,55.287 45.041,55.743 44.770,56.182 44.500,56.621 44.230,57.059 43.960,57.498 43.623,57.971 43.285,58.444 42.947,58.916 42.610,59.389 42.238,59.921 41.867,60.452 41.496,60.984 41.124,61.516 40.879,61.913 40.635,62.309 40.390,62.706 40.145,63.103 39.909,63.525 39.673,63.947 39.436,64.369 39.200,64.791 38.837,65.322 38.474,65.854 38.111,66.386 37.748,66.918 37.318,67.551 36.887,68.184 36.457,68.817 36.026,69.450 35.579,70.091 35.132,70.733 34.684,71.374 34.237,72.016 33.891,72.665 33.545,73.315 33.199,73.965 32.853,74.615 32.532,75.206 32.211,75.797 31.891,76.388 31.570,76.978 31.013,77.983 30.456,78.987 29.899,79.992 29.342,80.996 28.996,81.502 28.650,82.009 28.304,82.515 27.957,83.022 27.544,83.646 27.130,84.271 26.717,84.895 26.303,85.520 25.940,86.170 25.577,86.820 25.214,87.470 24.851,88.120 24.556,88.651 24.261,89.183 23.965,89.715 23.670,90.246 23.450,90.677 23.231,91.107 23.011,91.538 22.792,91.968 22.539,92.525 22.286,93.082 22.032,93.639 21.779,94.196 21.450,94.889 21.121,95.581 20.792,96.273 20.463,96.965 20.209,97.598 19.956,98.231 19.703,98.864 19.450,99.497 19.239,100.020 19.028,100.544 18.817,101.067 18.606,101.590 18.074,102.687 17.542,103.785 17.010,104.882 16.479,105.979 16.394,106.215 16.310,106.452 16.226,106.688 16.141,106.924 15.905,107.363 15.668,107.802 15.432,108.241 15.196,108.680 14.858,109.414 14.521,110.149 14.183,110.883 13.845,111.617 13.643,112.284 13.440,112.951 13.238,113.617 13.035,114.284 12.773,114.926 12.512,115.567 12.250,116.209 11.989,116.850 11.794,117.500 11.600,118.150 11.406,118.800 11.212,119.450 11.060,120.024 10.908,120.598 10.756,121.172 10.604,121.745 10.486,122.210 10.368,122.674 10.250,123.138 10.132,123.602 10.005,124.041 9.878,124.480 9.752,124.919 9.625,125.358 9.389,126.261 9.153,127.164 8.916,128.067 8.680,128.970 8.486,129.629 8.292,130.287 8.098,130.945 7.903,131.604 7.785,132.287 7.667,132.971 7.549,133.655 7.431,134.338 7.363,134.625 7.296,134.912 7.228,135.199 7.161,135.486 7.000,136.237 6.840,136.989 6.680,137.740 6.519,138.491 6.384,139.428 6.249,140.365 6.114,141.301 5.979,142.238 5.869,142.922 5.760,143.606 5.650,144.289 5.540,144.973 5.464,145.842 5.388,146.712 5.312,147.581 5.236,148.450 5.186,149.278 5.135,150.105 5.084,150.932 5.034,151.759 5.025,152.071 5.017,152.384 5.008,152.696 5.000,153.008 5.068,153.455 5.135,153.903 5.203,154.350 5.270,154.797" fill="none" stroke="black" stroke-width="1"/>
</svg>
