<?xml version="1.0" encoding="UTF-8"?>
<svg xmlns="http://www.w3.org/2000/svg" width="109.8" height="160.0" viewBox="0 0 109.8 160.0">
  <polyline points="6.917,154.919 7.449,154.926 7.982,154.933 8.514,154.940 9.047,154.947 9.726,154.960 10.405,154.973 11.084,154.987 11.763,155.000 12.634,154.940 13.506,154.880 14.378,154.820 15.250,154.760 16.056,154.800 16.861,154.840 17.666,154.880 18.472,154.920 19.191,154.874 19.909,154.827 20.628,154.780 21.347,154.734 22.026,154.720 22.705,154.707 23.384,154.694 24.063,154.680 24.555,154.687 25.048,154.694 25.540,154.701 26.033,154.707 26.412,154.701 26.792,154.694 27.171,154.687 27.551,154.680 28.016,154.254 28.482,153.829 28.948,153.403 29.414,152.977 29.847,152.531 30.279,152.085 30.712,151.639 31.145,151.193 31.691,150.680 32.236,150.168 32.782,149.655 33.328,149.143 34.107,148.344 34.885,147.545 35.664,146.747 36.443,145.948 37.002,145.475 37.561,145.003 38.120,144.530 38.679,144.058 39.698,143.219 40.716,142.380 41.734,141.542 42.753,140.703 43.485,140.204 44.217,139.705 44.949,139.205 45.681,138.706 46.001,138.486 46.320,138.267 46.640,138.047 46.959,137.827 48.164,137.122 49.369,136.416 50.574,135.711 51.778,135.005 52.484,134.566 53.189,134.127 53.895,133.687 54.600,133.248 55.759,132.523 56.917,131.797 58.075,131.072 59.233,130.346 59.592,130.107 59.952,129.867 60.311,129.627 60.671,129.388 61.449,129.068 62.228,128.749 63.007,128.429 63.786,128.110 64.591,127.584 65.396,127.058 66.202,126.532 67.007,126.006 67.919,125.374 68.831,124.742 69.743,124.109 70.655,123.477 71.493,122.805 72.332,122.133 73.171,121.460 74.009,120.788 74.748,120.096 75.487,119.404 76.226,118.711 76.965,118.019 77.577,117.400 78.189,116.781 78.802,116.162 79.414,115.543 80.000,114.858 80.585,114.172 81.171,113.487 81.757,112.801 82.436,111.922 83.115,111.044 83.794,110.165 84.473,109.287 84.932,108.514 85.391,107.742 85.850,106.970 86.310,106.198 86.802,105.306 87.295,104.414 87.787,103.523 88.280,102.631 88.313,102.531 88.346,102.431 88.380,102.331 88.413,102.231 88.712,101.559 89.012,100.887 89.311,100.214 89.611,99.542 89.890,98.684 90.170,97.825 90.450,96.966 90.729,96.108 91.168,95.222 91.608,94.337 92.047,93.452 92.486,92.567 92.852,91.795 93.218,91.023 93.585,90.250 93.951,89.478 94.250,88.886 94.550,88.294 94.849,87.701 95.149,87.109 95.535,86.383 95.921,85.658 96.307,84.932 96.693,84.207 97.079,83.115 97.465,82.024 97.851,80.932 98.237,79.841 98.344,79.182 98.450,78.523 98.557,77.864 98.663,77.205 98.763,76.386 98.863,75.567 98.963,74.749 99.062,73.930 99.209,73.311 99.355,72.692 99.502,72.073 99.648,71.454 99.788,70.722 99.928,69.990 100.068,69.258 100.207,68.525 100.347,67.727 100.487,66.928 100.627,66.129 100.766,65.330 101.013,64.385 101.259,63.440 101.505,62.495 101.752,61.550 101.978,60.718 102.204,59.886 102.430,59.054 102.657,58.222 102.790,57.210 102.923,56.198 103.056,55.187 103.189,54.175 103.289,53.416 103.389,52.657 103.489,51.899 103.589,51.140 103.622,50.288 103.655,49.436 103.688,48.584 103.722,47.732 103.788,47.046 103.855,46.361 103.921,45.675 103.988,44.990 104.041,44.251 104.094,43.512 104.148,42.773 104.201,42.035 104.248,41.223 104.294,40.410 104.341,39.598 104.387,38.786 104.394,37.855 104.401,36.923 104.408,35.991 104.415,35.059 104.474,34.327 104.534,33.595 104.594,32.863 104.654,32.130 104.694,31.405 104.734,30.679 104.774,29.954 104.814,29.228 104.774,28.376 104.734,27.524 104.694,26.673 104.654,25.821 104.621,25.295 104.588,24.769 104.554,24.243 104.521,23.717 104.454,22.965 104.388,22.213 104.321,21.461 104.255,20.709 104.028,19.923 103.802,19.138 103.576,18.353 103.349,17.567 103.117,16.768 102.884,15.970 102.651,15.171 102.418,14.372 102.178,13.773 101.938,13.174 101.699,12.575 101.459,11.976 101.119,11.363 100.780,10.751 100.440,10.138 100.101,9.526 99.641,9.080 99.182,8.634 98.723,8.188 98.264,7.742 97.738,7.409 97.212,7.077 96.686,6.744 96.160,6.411 95.368,6.105 94.576,5.799 93.784,5.493 92.992,5.186 92.360,5.180 91.728,5.173 91.095,5.166 90.463,5.160 90.050,5.166 89.638,5.173 89.225,5.180 88.812,5.186 88.273,5.140 87.734,5.093 87.195,5.047 86.656,5.000 85.937,5.067 85.218,5.133 84.499,5.200 83.780,5.266 83.401,5.379 83.021,5.493 82.642,5.606 82.263,5.719 81.963,5.899 81.664,6.078 81.364,6.258 81.065,6.438 80.852,6.691 80.639,6.944 80.426,7.196 80.213,7.449 80.026,7.829 79.840,8.208 79.654,8.588 79.467,8.967 79.367,9.473 79.267,9.979 79.168,10.485 79.068,10.990 79.041,11.430 79.014,11.869 78.988,12.308 78.961,12.748 79.108,13.054 79.254,13.360 79.400,13.666 79.547,13.972 80.239,14.704 80.931,15.437 81.623,16.169 82.316,16.901 82.475,17.007 82.635,17.114 82.795,17.220 82.955,17.327 83.347,17.540 83.740,17.753 84.133,17.966 84.525,18.179 84.978,18.585 85.431,18.991 85.883,19.397 86.336,19.803 86.615,20.102 86.895,20.402 87.175,20.701 87.454,21.001 87.714,21.447 87.973,21.893 88.233,22.339 88.492,22.785 88.679,23.237 88.865,23.690 89.052,24.143 89.238,24.595 89.318,25.081 89.398,25.567 89.477,26.053 89.557,26.539 89.604,27.071 89.651,27.604 89.697,28.136 89.744,28.669 89.784,29.168 89.824,29.667 89.864,30.166 89.903,30.666 90.443,31.205 90.982,31.744 90.948,32.243 90.915,32.742 90.882,33.241 90.849,33.741 90.782,34.273 90.715,34.806 90.649,35.338 90.582,35.870 90.516,36.363 90.449,36.856 90.383,37.348 90.316,37.841 90.223,38.267 90.130,38.693 90.037,39.119 89.943,39.545 89.830,40.616 89.717,41.688 89.604,42.759 89.491,43.831 89.411,44.490 89.331,45.149 89.251,45.808 89.171,46.467 89.065,47.425 88.958,48.384 88.852,49.342 88.745,50.301 88.739,50.773 88.732,51.246 88.725,51.718 88.718,52.191 88.665,52.783 88.612,53.376 88.558,53.968 88.505,54.560 88.365,55.246 88.226,55.932 88.086,56.617 87.946,57.303 87.733,58.215 87.520,59.126 87.307,60.038 87.094,60.950 86.974,61.569 86.854,62.188 86.735,62.807 86.615,63.426 86.468,64.132 86.322,64.837 86.175,65.543 86.029,66.248 85.710,67.307 85.390,68.365 85.071,69.423 84.751,70.482 84.598,70.888 84.445,71.294 84.292,71.700 84.139,72.106 83.932,72.625 83.726,73.144 83.520,73.663 83.313,74.182 82.761,75.254 82.208,76.326 81.656,77.397 81.104,78.469 80.777,79.367 80.451,80.266 80.125,81.164 79.799,82.063 79.446,82.922 79.093,83.780 78.741,84.639 78.388,85.497 78.122,85.990 77.855,86.483 77.589,86.975 77.323,87.468 76.997,88.067 76.671,88.666 76.345,89.265 76.018,89.864 75.599,90.663 75.180,91.461 74.760,92.260 74.341,93.059 73.942,93.824 73.542,94.590 73.143,95.355 72.744,96.120 72.398,96.773 72.051,97.425 71.705,98.077 71.359,98.730 70.913,99.408 70.467,100.087 70.021,100.766 69.575,101.445 69.223,102.078 68.870,102.710 68.517,103.342 68.164,103.975 67.878,104.427 67.592,104.880 67.306,105.332 67.019,105.785 66.427,106.397 65.835,107.010 65.242,107.622 64.650,108.234 64.131,108.660 63.612,109.086 63.092,109.512 62.573,109.938 61.748,110.477 60.923,111.017 60.097,111.556 59.272,112.095 58.293,112.527 57.315,112.960 56.337,113.393 55.358,113.825 54.173,114.185 52.989,114.544 51.804,114.904 50.619,115.263 50.060,115.489 49.501,115.716 48.942,115.942 48.383,116.168 47.817,116.454 47.251,116.741 46.685,117.027 46.120,117.313 45.594,117.499 45.068,117.686 44.542,117.872 44.016,118.059 43.344,118.351 42.672,118.644 42.000,118.937 41.327,119.230 40.376,119.703 39.424,120.175 38.472,120.648 37.520,121.120 36.875,121.540 36.229,121.959 35.583,122.378 34.938,122.798 34.465,123.177 33.992,123.556 33.520,123.936 33.047,124.315 32.601,124.668 32.155,125.021 31.709,125.374 31.264,125.726 30.744,126.106 30.225,126.485 29.706,126.864 29.187,127.244 28.381,127.923 27.576,128.602 26.771,129.281 25.965,129.959 25.852,130.079 25.739,130.199 25.626,130.319 25.513,130.439 24.029,131.956 23.623,132.396 23.217,132.835 22.811,133.274 22.499,133.600 22.186,133.926 21.873,134.253 21.560,134.579 21.114,135.051 20.668,135.524 20.222,135.996 19.776,136.469 19.290,136.908 18.805,137.348 18.319,137.787 17.833,138.226 17.314,138.739 16.794,139.251 16.275,139.764 15.756,140.276 15.397,140.689 15.037,141.102 14.678,141.514 14.318,141.927 13.753,142.612 13.187,143.298 12.621,143.984 12.055,144.669 11.549,145.255 11.044,145.841 10.538,146.426 10.032,147.012 9.686,147.498 9.340,147.984 8.994,148.470 8.647,148.956 8.301,149.375 7.955,149.794 7.609,150.214 7.263,150.633 7.043,151.046 6.824,151.458 6.604,151.871 6.384,152.284 6.145,152.750 5.905,153.215 5.666,153.681 5.426,154.147 5.319,154.340 5.213,154.533 5.106,154.726 5.000,154.919 5.339,154.906 5.679,154.893 6.018,154.879 6.358,154.866 6.498,154.879 6.637,154.893 6.777,154.906 6.917,154.919" fill="none" stroke="black" stroke-width="1"/>
</svg>
