<?xml version="1.0" encoding="UTF-8"?>
<svg xmlns="http://www.w3.org/2000/svg" width="182.6" height="160.0" viewBox="0 0 182.6 160.0">
  <polyline points="144.909,151.509 144.909,151.509 144.909,151.509 144.909,151.509 144.909,151.509 145.470,151.517 146.031,151.525 146.592,151.532 147.153,151.540 147.714,151.548 148.275,151.556 148.836,151.564 149.397,151.572 150.222,151.579 151.047,151.587 151.872,151.595 152.697,151.603 153.522,151.611 154.347,151.619 155.172,151.626 155.997,151.634 156.838,152.476 157.679,153.317 158.521,154.159 159.362,155.000 160.179,154.984 160.996,154.967 161.812,154.951 162.629,154.934 163.446,154.918 164.262,154.901 165.079,154.885 165.896,154.868 166.622,154.861 167.348,154.853 168.074,154.845 168.800,154.837 169.526,154.829 170.252,154.821 170.977,154.814 171.703,154.806 172.248,154.798 172.792,154.790 173.337,154.782 173.881,154.774 174.426,154.767 174.970,154.759 175.515,154.751 176.059,154.743 176.249,154.644 176.439,154.545 176.628,154.446 176.818,154.347 177.008,154.248 177.198,154.149 177.387,154.050 177.577,153.952 177.544,153.688 177.511,153.424 177.478,153.160 177.445,152.896 177.412,152.632 177.379,152.368 177.346,152.104 177.313,151.840 176.785,151.518 176.257,151.196 175.729,150.875 175.201,150.553 174.673,150.231 174.145,149.909 173.617,149.588 173.089,149.266 172.602,148.985 172.116,148.705 171.629,148.424 171.142,148.144 170.656,147.863 170.169,147.583 169.682,147.303 169.195,147.022 168.643,146.676 168.090,146.329 167.537,145.983 166.985,145.636 166.432,145.290 165.879,144.943 165.326,144.597 164.774,144.250 164.106,143.813 163.437,143.376 162.769,142.939 162.101,142.501 161.433,142.064 160.765,141.627 160.096,141.190 159.428,140.753 158.628,140.274 157.828,139.796 157.028,139.317 156.227,138.839 155.427,138.360 154.627,137.882 153.827,137.403 153.027,136.925 152.449,136.521 151.872,136.116 151.294,135.712 150.717,135.308 150.139,134.904 149.562,134.500 148.984,134.095 148.407,133.691 147.574,133.056 146.741,132.421 145.907,131.785 145.074,131.150 144.241,130.515 143.408,129.880 142.575,129.245 141.741,128.609 140.900,127.982 140.059,127.356 139.217,126.729 138.376,126.102 137.534,125.475 136.693,124.848 135.851,124.221 135.010,123.594 134.268,123.016 133.525,122.439 132.783,121.861 132.040,121.284 131.298,120.707 130.555,120.129 129.813,119.552 129.070,118.974 128.485,118.471 127.899,117.968 127.313,117.465 126.728,116.961 126.142,116.458 125.556,115.955 124.970,115.452 124.385,114.948 123.436,114.214 122.487,113.480 121.539,112.746 120.590,112.012 119.641,111.277 118.693,110.543 117.744,109.809 116.795,109.075 116.391,108.695 115.987,108.316 115.583,107.936 115.178,107.557 114.774,107.178 114.370,106.798 113.966,106.419 113.562,106.039 113.124,105.676 112.687,105.313 112.250,104.950 111.813,104.587 111.376,104.224 110.938,103.861 110.501,103.498 110.064,103.135 109.363,102.558 108.661,101.980 107.960,101.403 107.259,100.826 106.558,100.248 105.857,99.671 105.155,99.093 104.454,98.516 103.539,97.782 102.623,97.047 101.707,96.313 100.792,95.579 99.876,94.845 98.960,94.111 98.045,93.376 97.129,92.642 96.485,92.032 95.842,91.421 95.198,90.811 94.555,90.200 93.912,89.590 93.268,88.979 92.625,88.369 95.347,84.392 94.110,83.188 92.872,81.983 91.635,80.779 90.398,79.574 89.160,78.370 87.923,77.166 86.685,75.961 85.448,74.757 84.862,74.212 84.277,73.668 83.691,73.123 83.105,72.579 82.519,72.034 81.934,71.490 81.348,70.946 80.762,70.401 80.127,69.815 79.492,69.230 78.857,68.644 78.221,68.058 77.586,67.473 76.951,66.887 76.316,66.301 75.681,65.715 75.128,65.154 74.575,64.594 74.023,64.033 73.470,63.472 72.917,62.911 72.364,62.350 71.812,61.789 71.259,61.228 70.805,60.700 70.352,60.172 69.898,59.644 69.444,59.116 68.990,58.588 68.537,58.060 68.083,57.532 67.629,57.004 67.143,56.509 66.656,56.014 66.169,55.519 65.682,55.024 65.196,54.529 64.709,54.034 64.222,53.539 63.736,53.044 63.348,52.673 62.960,52.302 62.572,51.931 62.185,51.559 61.797,51.188 61.409,50.817 61.022,50.446 60.634,50.075 60.139,49.505 59.644,48.936 59.149,48.367 58.654,47.798 58.159,47.229 57.664,46.659 57.169,46.090 56.674,45.521 55.998,44.919 55.321,44.317 54.645,43.714 53.968,43.112 53.292,42.510 52.615,41.908 51.939,41.306 51.263,40.703 50.504,39.969 49.745,39.235 48.986,38.501 48.227,37.767 47.468,37.032 46.709,36.298 45.950,35.564 45.191,34.830 44.729,34.351 44.267,33.873 43.805,33.394 43.343,32.916 42.881,32.437 42.419,31.959 41.957,31.481 41.495,31.002 40.959,30.408 40.423,29.814 39.887,29.220 39.350,28.626 38.814,28.032 38.278,27.438 37.742,26.844 37.206,26.250 36.760,25.698 36.315,25.145 35.869,24.592 35.424,24.040 34.978,23.487 34.533,22.934 34.087,22.381 33.642,21.829 33.213,21.243 32.784,20.657 32.355,20.072 31.926,19.486 31.497,18.900 31.068,18.314 30.639,17.729 30.210,17.143 29.814,16.673 29.418,16.203 29.022,15.732 28.626,15.262 28.230,14.792 27.834,14.322 27.438,13.852 27.042,13.381 26.646,12.903 26.250,12.424 25.854,11.946 25.458,11.468 25.062,10.989 24.667,10.511 24.271,10.032 23.875,9.554 23.512,9.149 23.149,8.745 22.786,8.341 22.423,7.937 22.060,7.533 21.697,7.128 21.334,6.724 20.971,6.320 20.319,6.155 19.667,5.990 19.016,5.825 18.364,5.660 17.712,5.495 17.061,5.330 16.409,5.165 15.757,5.000 15.287,5.058 14.817,5.115 14.347,5.173 13.876,5.231 13.406,5.289 12.936,5.346 12.466,5.404 11.995,5.462 11.624,5.693 11.253,5.924 10.882,6.155 10.511,6.386 10.139,6.617 9.768,6.848 9.397,7.079 9.026,7.310 8.786,7.656 8.547,8.003 8.308,8.349 8.069,8.696 7.830,9.042 7.590,9.389 7.351,9.735 7.112,10.082 6.963,10.412 6.815,10.742 6.666,11.072 6.518,11.402 6.369,11.731 6.221,12.061 6.072,12.391 5.924,12.721 5.808,13.076 5.693,13.431 5.577,13.786 5.462,14.140 5.346,14.495 5.231,14.850 5.115,15.204 5.000,15.559 5.099,16.079 5.198,16.599 5.297,17.118 5.396,17.638 5.495,18.158 5.594,18.677 5.693,19.197 5.792,19.717 6.147,19.948 6.501,20.179 6.856,20.410 7.211,20.641 7.566,20.872 7.920,21.103 8.275,21.334 8.630,21.565 9.075,21.631 9.521,21.697 9.966,21.763 10.412,21.829 10.857,21.895 11.303,21.961 11.748,22.027 12.193,22.093 12.408,22.126 12.622,22.159 12.837,22.192 13.051,22.225 13.266,22.258 13.480,22.291 13.695,22.324 13.909,22.357 14.124,22.555 14.338,22.753 14.553,22.951 14.767,23.149 14.982,23.347 15.196,23.545 15.411,23.743 15.625,23.941 15.906,24.518 16.186,25.096 16.467,25.673 16.747,26.250 17.028,26.828 17.308,27.405 17.589,27.983 17.869,28.560 17.985,28.734 18.100,28.907 18.216,29.080 18.331,29.253 18.446,29.426 18.562,29.600 18.677,29.773 18.793,29.946 19.148,30.449 19.502,30.953 19.857,31.456 20.212,31.959 20.567,32.462 20.921,32.965 21.276,33.469 21.631,33.972 21.895,34.318 22.159,34.665 22.423,35.011 22.687,35.358 22.951,35.704 23.215,36.051 23.479,36.397 23.743,36.744 24.040,37.024 24.337,37.305 24.633,37.585 24.930,37.866 25.227,38.146 25.524,38.427 25.821,38.707 26.118,38.987 26.556,39.458 26.993,39.928 27.430,40.398 27.867,40.868 28.304,41.339 28.742,41.809 29.179,42.279 29.616,42.749 30.326,43.492 31.035,44.234 31.744,44.977 32.454,45.719 33.163,46.461 33.873,47.204 34.582,47.946 35.292,48.689 35.861,49.349 36.430,50.009 36.999,50.669 37.569,51.329 38.138,51.988 38.707,52.648 39.276,53.308 39.845,53.968 40.365,54.529 40.885,55.090 41.404,55.651 41.924,56.212 42.444,56.773 42.964,57.334 43.483,57.895 44.003,58.456 44.490,58.976 44.976,59.495 45.463,60.015 45.950,60.535 46.437,61.055 46.923,61.574 47.410,62.094 47.897,62.614 48.359,63.084 48.821,63.554 49.283,64.024 49.745,64.495 50.207,64.965 50.669,65.435 51.130,65.905 51.592,66.375 52.310,67.134 53.028,67.893 53.746,68.652 54.463,69.411 55.181,70.170 55.899,70.929 56.616,71.688 57.334,72.447 57.920,73.049 58.505,73.651 59.091,74.254 59.677,74.856 60.263,75.458 60.848,76.060 61.434,76.662 62.020,77.265 62.589,77.842 63.158,78.420 63.727,78.997 64.297,79.574 64.866,80.152 65.435,80.729 66.004,81.307 66.573,81.884 67.283,82.569 67.992,83.254 68.702,83.938 69.411,84.623 70.121,85.308 70.830,85.992 71.539,86.677 72.249,87.362 73.173,88.278 74.097,89.193 75.021,90.109 75.945,91.025 76.869,91.940 77.792,92.856 78.716,93.772 79.640,94.687 80.317,95.265 80.993,95.842 81.670,96.420 82.346,96.997 83.023,97.575 83.699,98.152 84.375,98.729 85.052,99.307 85.605,99.818 86.157,100.330 86.710,100.841 87.263,101.353 87.815,101.864 88.368,102.376 88.921,102.887 89.474,103.399 89.977,103.869 90.480,104.339 90.983,104.809 91.486,105.279 91.990,105.750 92.493,106.220 92.996,106.690 93.499,107.160 93.986,107.664 94.473,108.167 94.959,108.670 95.446,109.173 95.933,109.676 96.420,110.180 96.906,110.683 97.393,111.186 97.946,111.656 98.498,112.126 99.051,112.597 99.604,113.067 100.157,113.537 100.709,114.007 101.262,114.478 101.815,114.948 102.425,115.492 103.036,116.037 103.646,116.581 104.256,117.126 104.867,117.670 105.477,118.215 106.088,118.759 106.698,119.303 107.276,119.782 107.853,120.260 108.431,120.739 109.008,121.217 109.586,121.696 110.163,122.174 110.740,122.653 111.318,123.131 112.159,123.948 113.001,124.765 113.842,125.581 114.684,126.398 115.525,127.215 116.367,128.031 117.208,128.848 118.049,129.665 118.478,130.028 118.907,130.391 119.336,130.754 119.765,131.117 120.194,131.479 120.623,131.842 121.052,132.205 121.481,132.568 121.993,132.997 122.504,133.426 123.016,133.855 123.527,134.284 124.038,134.713 124.550,135.142 125.061,135.571 125.573,136.000 126.060,136.413 126.546,136.825 127.033,137.238 127.520,137.650 128.006,138.063 128.493,138.475 128.980,138.887 129.467,139.300 129.838,139.572 130.209,139.844 130.580,140.117 130.951,140.389 131.323,140.661 131.694,140.933 132.065,141.206 132.436,141.478 132.849,141.849 133.261,142.220 133.674,142.591 134.086,142.963 134.499,143.334 134.911,143.705 135.324,144.076 135.736,144.448 136.124,144.720 136.512,144.992 136.899,145.264 137.287,145.536 137.675,145.809 138.062,146.081 138.450,146.353 138.838,146.625 139.399,147.079 139.960,147.533 140.521,147.987 141.082,148.440 141.643,148.894 142.204,149.348 142.765,149.801 143.326,150.255 143.524,150.412 143.722,150.569 143.919,150.725 144.117,150.882 144.315,151.039 144.513,151.196 144.711,151.352 144.909,151.509" fill="none" stroke="black" stroke-width="1"/>
</svg>
