<?xml version="1.0" encoding="UTF-8"?>
<svg xmlns="http://www.w3.org/2000/svg" width="196.1" height="160.0" viewBox="0 0 196.1 160.0">
  <polyline points="174.408,149.929 174.707,150.038 175.006,150.148 175.304,150.258 175.603,150.367 175.902,150.477 176.200,150.587 176.499,150.697 176.798,150.806 177.346,150.916 177.895,151.026 178.444,151.135 178.992,151.245 179.541,151.355 180.089,151.465 180.638,151.574 181.187,151.684 181.565,151.800 181.942,151.916 182.320,152.031 182.698,152.147 183.076,152.263 183.454,152.379 183.832,152.495 184.210,152.611 184.576,152.708 184.942,152.806 185.307,152.903 185.673,153.001 186.039,153.098 186.404,153.196 186.770,153.293 187.136,153.391 187.508,153.543 187.880,153.696 188.251,153.848 188.623,154.000 188.995,154.153 189.367,154.305 189.739,154.458 190.111,154.610 190.220,154.659 190.330,154.707 190.440,154.756 190.549,154.805 190.659,154.854 190.769,154.902 190.879,154.951 190.988,155.000 191.001,154.488 191.013,153.976 191.025,153.464 191.037,152.952 191.049,152.440 191.062,151.928 191.074,151.416 191.086,150.904 191.068,150.398 191.050,149.892 191.031,149.386 191.013,148.880 190.995,148.374 190.977,147.868 190.958,147.362 190.940,146.856 190.934,146.192 190.928,145.527 190.922,144.863 190.916,144.199 190.910,143.534 190.904,142.870 190.898,142.205 190.892,141.541 190.873,141.084 190.855,140.627 190.837,140.169 190.819,139.712 190.800,139.255 190.782,138.798 190.764,138.341 190.745,137.884 190.770,137.737 190.794,137.591 190.818,137.445 190.843,137.298 190.867,137.152 190.892,137.006 190.916,136.860 190.940,136.713 190.532,136.555 190.123,136.396 189.715,136.238 189.307,136.079 188.898,135.921 188.490,135.762 188.081,135.604 187.673,135.445 187.149,135.299 186.625,135.153 186.100,135.006 185.576,134.860 185.052,134.714 184.528,134.568 184.004,134.421 183.479,134.275 182.790,134.001 182.102,133.726 181.413,133.452 180.724,133.178 180.035,132.904 179.346,132.629 178.658,132.355 177.969,132.081 177.579,131.971 177.189,131.861 176.799,131.751 176.408,131.642 176.018,131.532 175.628,131.422 175.238,131.313 174.848,131.203 174.397,131.002 173.946,130.801 173.495,130.599 173.044,130.398 172.593,130.197 172.142,129.996 171.690,129.795 171.239,129.594 170.929,129.417 170.618,129.240 170.307,129.063 169.996,128.887 169.685,128.710 169.374,128.533 169.063,128.356 168.752,128.179 168.326,127.954 167.899,127.728 167.472,127.503 167.046,127.277 166.619,127.052 166.192,126.826 165.766,126.601 165.339,126.375 164.912,126.168 164.485,125.961 164.059,125.753 163.632,125.546 163.205,125.339 162.779,125.132 162.352,124.924 161.925,124.717 161.395,124.388 160.865,124.059 160.334,123.730 159.804,123.401 159.274,123.071 158.743,122.742 158.213,122.413 157.683,122.084 156.842,121.688 156.000,121.291 155.159,120.895 154.318,120.499 153.477,120.103 152.636,119.707 151.794,119.310 150.953,118.914 150.210,118.481 149.466,118.049 148.722,117.616 147.979,117.183 147.235,116.750 146.491,116.317 145.748,115.885 145.004,115.452 144.443,115.123 143.882,114.794 143.322,114.464 142.761,114.135 142.200,113.806 141.639,113.477 141.078,113.148 140.518,112.819 139.945,112.422 139.372,112.026 138.799,111.630 138.226,111.234 137.653,110.838 137.080,110.441 136.507,110.045 135.934,109.649 135.355,109.289 134.776,108.930 134.197,108.570 133.617,108.210 133.038,107.851 132.459,107.491 131.880,107.131 131.301,106.772 130.905,106.546 130.509,106.321 130.113,106.095 129.716,105.870 129.320,105.644 128.924,105.419 128.528,105.193 128.131,104.967 127.656,104.724 127.181,104.480 126.705,104.236 126.230,103.992 125.754,103.748 125.279,103.505 124.803,103.261 124.328,103.017 123.986,102.907 123.645,102.797 123.304,102.688 122.962,102.578 122.621,102.468 122.280,102.359 121.938,102.249 121.597,102.139 121.390,101.956 121.182,101.773 120.975,101.591 120.768,101.408 120.561,101.225 120.353,101.042 120.146,100.859 119.939,100.676 119.793,100.469 119.646,100.262 119.500,100.054 119.354,99.847 119.208,99.640 119.061,99.433 118.915,99.225 118.769,99.018 118.403,98.805 118.037,98.592 117.671,98.378 117.306,98.165 116.940,97.951 116.574,97.738 116.208,97.525 115.843,97.311 115.355,96.964 114.867,96.617 114.380,96.269 113.892,95.922 113.405,95.574 112.917,95.227 112.429,94.879 111.942,94.532 111.503,94.191 111.064,93.849 110.625,93.508 110.186,93.166 109.747,92.825 109.308,92.484 108.869,92.142 108.431,91.801 107.925,91.484 107.419,91.167 106.913,90.850 106.407,90.533 105.901,90.216 105.395,89.899 104.889,89.582 104.383,89.265 103.469,88.497 102.554,87.729 101.640,86.961 100.726,86.193 99.811,85.425 98.897,84.657 97.983,83.889 97.068,83.121 96.782,82.926 96.495,82.731 96.209,82.536 95.922,82.341 95.636,82.146 95.349,81.951 95.063,81.756 94.776,81.560 94.441,81.304 94.106,81.048 93.771,80.792 93.435,80.536 93.100,80.280 92.765,80.024 92.430,79.768 92.094,79.512 91.668,79.232 91.241,78.952 90.814,78.671 90.388,78.391 89.961,78.110 89.534,77.830 89.108,77.550 88.681,77.269 88.327,76.940 87.974,76.611 87.620,76.282 87.267,75.953 86.913,75.623 86.560,75.294 86.206,74.965 85.852,74.636 85.536,74.307 85.219,73.978 84.902,73.648 84.585,73.319 84.268,72.990 83.951,72.661 83.634,72.332 83.317,72.003 82.994,71.716 82.671,71.430 82.348,71.143 82.024,70.857 81.701,70.570 81.378,70.284 81.055,69.997 80.731,69.711 80.360,69.412 79.988,69.113 79.616,68.815 79.244,68.516 78.872,68.217 78.500,67.919 78.129,67.620 77.757,67.321 77.367,66.968 76.977,66.614 76.586,66.261 76.196,65.907 75.806,65.553 75.416,65.200 75.026,64.846 74.636,64.493 74.374,64.255 74.112,64.017 73.850,63.780 73.587,63.542 73.325,63.304 73.063,63.066 72.801,62.829 72.539,62.591 72.100,62.201 71.661,61.811 71.222,61.421 70.783,61.031 70.345,60.640 69.906,60.250 69.467,59.860 69.028,59.470 68.534,59.025 68.040,58.580 67.547,58.135 67.053,57.690 66.559,57.245 66.066,56.800 65.572,56.355 65.078,55.910 64.700,55.593 64.322,55.276 63.944,54.959 63.566,54.642 63.188,54.325 62.810,54.008 62.433,53.691 62.055,53.375 61.439,52.881 60.823,52.387 60.208,51.893 59.592,51.400 58.976,50.906 58.361,50.412 57.745,49.918 57.129,49.425 56.654,48.986 56.178,48.547 55.703,48.108 55.228,47.669 54.752,47.230 54.277,46.791 53.801,46.352 53.326,45.914 52.844,45.450 52.363,44.987 51.881,44.524 51.400,44.060 50.918,43.597 50.436,43.134 49.955,42.671 49.473,42.207 49.150,41.921 48.827,41.634 48.504,41.348 48.181,41.061 47.858,40.775 47.535,40.488 47.212,40.202 46.889,39.915 46.487,39.550 46.084,39.184 45.682,38.818 45.280,38.453 44.877,38.087 44.475,37.721 44.073,37.355 43.670,36.990 43.372,36.679 43.073,36.368 42.774,36.057 42.476,35.746 42.177,35.435 41.878,35.124 41.580,34.813 41.281,34.503 40.964,34.112 40.647,33.722 40.330,33.332 40.013,32.942 39.696,32.552 39.379,32.162 39.062,31.772 38.745,31.382 38.410,30.931 38.075,30.480 37.739,30.028 37.404,29.577 37.069,29.126 36.734,28.675 36.398,28.224 36.063,27.773 35.752,27.334 35.441,26.895 35.130,26.456 34.820,26.018 34.509,25.579 34.198,25.140 33.887,24.701 33.576,24.262 33.405,23.994 33.235,23.726 33.064,23.457 32.893,23.189 32.723,22.921 32.552,22.653 32.381,22.385 32.211,22.116 31.906,21.708 31.601,21.300 31.296,20.891 30.992,20.483 30.687,20.074 30.382,19.666 30.077,19.258 29.772,18.849 29.492,18.422 29.212,17.996 28.931,17.569 28.651,17.142 28.370,16.716 28.090,16.289 27.810,15.862 27.529,15.436 27.157,14.954 26.786,14.473 26.414,13.991 26.042,13.509 25.670,13.028 25.298,12.546 24.926,12.065 24.555,11.583 24.329,11.327 24.104,11.071 23.878,10.815 23.652,10.559 23.427,10.303 23.201,10.047 22.976,9.791 22.750,9.535 22.305,9.115 21.860,8.694 21.415,8.273 20.970,7.853 20.525,7.432 20.080,7.012 19.635,6.591 19.191,6.170 18.855,6.024 18.520,5.878 18.185,5.731 17.849,5.585 17.514,5.439 17.179,5.293 16.844,5.146 16.508,5.000 15.960,5.018 15.411,5.037 14.863,5.055 14.314,5.073 13.765,5.091 13.217,5.110 12.668,5.128 12.120,5.146 11.833,5.165 11.547,5.183 11.260,5.201 10.974,5.219 10.687,5.238 10.401,5.256 10.114,5.274 9.828,5.293 9.645,5.384 9.462,5.475 9.279,5.567 9.096,5.658 8.913,5.750 8.730,5.841 8.548,5.933 8.365,6.024 8.139,6.183 7.914,6.341 7.688,6.500 7.463,6.658 7.237,6.816 7.012,6.975 6.786,7.133 6.560,7.292 6.365,7.725 6.170,8.158 5.975,8.590 5.780,9.023 5.585,9.456 5.390,9.889 5.195,10.321 5.000,10.754 5.049,11.022 5.098,11.291 5.146,11.559 5.195,11.827 5.244,12.095 5.293,12.363 5.341,12.632 5.390,12.900 5.603,13.400 5.817,13.900 6.030,14.399 6.243,14.899 6.457,15.399 6.670,15.899 6.884,16.399 7.097,16.899 7.237,17.014 7.377,17.130 7.517,17.246 7.658,17.362 7.798,17.478 7.938,17.593 8.078,17.709 8.218,17.825 8.481,18.045 8.743,18.264 9.005,18.483 9.267,18.703 9.529,18.922 9.791,19.142 10.053,19.361 10.315,19.581 10.754,19.843 11.193,20.105 11.632,20.367 12.071,20.629 12.510,20.891 12.949,21.153 13.387,21.415 13.826,21.678 14.009,21.757 14.192,21.836 14.375,21.915 14.558,21.994 14.741,22.074 14.924,22.153 15.106,22.232 15.289,22.311 15.777,22.494 16.265,22.677 16.752,22.860 17.240,23.043 17.728,23.226 18.215,23.409 18.703,23.592 19.190,23.774 19.276,23.957 19.361,24.140 19.446,24.323 19.532,24.506 19.617,24.689 19.702,24.872 19.788,25.054 19.873,25.237 19.904,25.432 19.934,25.627 19.965,25.822 19.995,26.018 20.026,26.213 20.056,26.408 20.087,26.603 20.117,26.798 20.154,27.103 20.190,27.407 20.227,27.712 20.263,28.017 20.300,28.322 20.336,28.626 20.373,28.931 20.410,29.236 20.391,29.419 20.373,29.602 20.355,29.785 20.336,29.967 20.318,30.150 20.300,30.333 20.282,30.516 20.263,30.699 20.623,31.138 20.983,31.577 21.342,32.016 21.702,32.454 22.061,32.893 22.421,33.332 22.781,33.771 23.140,34.210 23.177,34.234 23.214,34.259 23.250,34.283 23.287,34.308 23.323,34.332 23.360,34.356 23.396,34.381 23.433,34.405 23.695,34.722 23.957,35.039 24.219,35.356 24.481,35.673 24.744,35.990 25.006,36.307 25.268,36.624 25.530,36.941 25.896,37.380 26.261,37.819 26.627,38.257 26.993,38.696 27.359,39.135 27.724,39.574 28.090,40.013 28.456,40.452 28.882,40.903 29.309,41.354 29.736,41.805 30.162,42.256 30.589,42.707 31.016,43.158 31.443,43.609 31.869,44.060 32.205,44.426 32.540,44.792 32.875,45.158 33.210,45.523 33.546,45.889 33.881,46.255 34.216,46.621 34.551,46.986 34.838,47.328 35.124,47.669 35.411,48.010 35.697,48.352 35.984,48.693 36.270,49.034 36.557,49.376 36.843,49.717 37.227,50.205 37.611,50.692 37.995,51.180 38.379,51.668 38.763,52.155 39.147,52.643 39.531,53.131 39.915,53.618 40.391,54.155 40.866,54.691 41.342,55.228 41.817,55.764 42.293,56.300 42.768,56.837 43.244,57.373 43.719,57.910 44.359,58.531 44.999,59.153 45.639,59.775 46.279,60.397 46.919,61.018 47.559,61.640 48.199,62.262 48.839,62.884 49.138,63.219 49.437,63.554 49.735,63.889 50.034,64.225 50.333,64.560 50.631,64.895 50.930,65.230 51.229,65.566 51.613,65.992 51.997,66.419 52.381,66.846 52.765,67.272 53.149,67.699 53.533,68.126 53.917,68.553 54.301,68.979 54.795,69.467 55.288,69.955 55.782,70.442 56.276,70.930 56.770,71.417 57.263,71.905 57.757,72.393 58.251,72.880 58.879,73.484 59.507,74.087 60.134,74.691 60.762,75.294 61.390,75.898 62.018,76.501 62.646,77.105 63.274,77.708 63.847,78.251 64.420,78.793 64.993,79.336 65.566,79.878 66.139,80.421 66.712,80.963 67.285,81.506 67.858,82.048 68.242,82.396 68.626,82.743 69.010,83.090 69.394,83.438 69.778,83.785 70.162,84.133 70.546,84.480 70.930,84.828 71.247,85.169 71.564,85.510 71.881,85.852 72.198,86.193 72.515,86.534 72.832,86.876 73.149,87.217 73.465,87.559 73.947,88.089 74.429,88.619 74.910,89.149 75.392,89.680 75.873,90.210 76.355,90.740 76.836,91.271 77.318,91.801 77.751,92.167 78.183,92.533 78.616,92.898 79.049,93.264 79.482,93.630 79.915,93.995 80.347,94.361 80.780,94.727 81.219,95.056 81.658,95.385 82.097,95.714 82.536,96.044 82.975,96.373 83.413,96.702 83.852,97.031 84.291,97.360 84.773,97.683 85.254,98.006 85.736,98.329 86.217,98.652 86.699,98.976 87.181,99.299 87.662,99.622 88.144,99.945 88.680,100.420 89.216,100.896 89.753,101.371 90.289,101.847 90.826,102.322 91.362,102.797 91.899,103.273 92.435,103.748 92.904,104.126 93.374,104.504 93.843,104.882 94.312,105.260 94.782,105.638 95.251,106.016 95.720,106.394 96.190,106.772 96.543,107.040 96.897,107.308 97.250,107.576 97.604,107.845 97.958,108.113 98.311,108.381 98.665,108.649 99.018,108.917 99.384,109.167 99.750,109.417 100.115,109.667 100.481,109.917 100.847,110.167 101.213,110.417 101.578,110.667 101.944,110.917 102.596,111.472 103.248,112.026 103.901,112.581 104.553,113.136 105.205,113.690 105.857,114.245 106.510,114.800 107.162,115.354 107.509,115.623 107.857,115.891 108.204,116.159 108.552,116.427 108.899,116.695 109.247,116.964 109.594,117.232 109.941,117.500 110.569,118.024 111.197,118.548 111.825,119.073 112.453,119.597 113.081,120.121 113.708,120.645 114.336,121.170 114.964,121.694 115.635,122.151 116.305,122.608 116.976,123.065 117.646,123.522 118.317,123.980 118.987,124.437 119.658,124.894 120.328,125.351 120.767,125.735 121.206,126.119 121.645,126.503 122.084,126.887 122.523,127.271 122.962,127.655 123.400,128.039 123.839,128.423 124.309,128.862 124.778,129.301 125.247,129.740 125.717,130.179 126.186,130.618 126.656,131.057 127.125,131.495 127.594,131.934 127.972,132.343 128.350,132.751 128.728,133.160 129.106,133.568 129.484,133.976 129.862,134.385 130.240,134.793 130.618,135.202 130.953,135.452 131.288,135.701 131.623,135.951 131.959,136.201 132.294,136.451 132.629,136.701 132.964,136.951 133.300,137.201 133.525,137.317 133.751,137.433 133.976,137.548 134.202,137.664 134.427,137.780 134.653,137.896 134.878,138.012 135.104,138.127 135.726,138.243 136.347,138.359 136.969,138.475 137.591,138.591 138.213,138.707 138.834,138.822 139.456,138.938 140.078,139.054 140.681,139.243 141.285,139.432 141.888,139.621 142.492,139.810 143.095,139.999 143.699,140.188 144.302,140.377 144.906,140.566 145.527,140.791 146.149,141.017 146.771,141.242 147.393,141.468 148.014,141.693 148.636,141.919 149.258,142.144 149.880,142.370 150.434,142.535 150.989,142.699 151.544,142.864 152.098,143.028 152.653,143.193 153.208,143.357 153.763,143.522 154.317,143.687 154.848,143.863 155.378,144.040 155.908,144.217 156.439,144.394 156.969,144.570 157.499,144.747 158.029,144.924 158.560,145.101 158.932,145.186 159.303,145.272 159.675,145.357 160.047,145.442 160.419,145.527 160.791,145.613 161.163,145.698 161.534,145.783 162.211,145.960 162.888,146.137 163.564,146.314 164.241,146.490 164.917,146.667 165.594,146.844 166.271,147.021 166.947,147.198 167.404,147.356 167.862,147.515 168.319,147.673 168.776,147.832 169.233,147.990 169.690,148.148 170.147,148.307 170.605,148.465 170.928,148.618 171.251,148.770 171.574,148.923 171.897,149.075 172.220,149.227 172.543,149.380 172.866,149.532 173.189,149.685 173.342,149.715 173.494,149.746 173.646,149.776 173.799,149.806 173.951,149.837 174.103,149.867 174.256,149.898 174.408,149.929" fill="none" stroke="black" stroke-width="1"/>
</svg>
