<?xml version="1.0" encoding="UTF-8"?>
<svg xmlns="http://www.w3.org/2000/svg" width="120.9" height="160.0" viewBox="0 0 120.9 160.0">
  <polyline points="5.174,135.779 5.165,136.139 5.156,136.499 5.148,136.859 5.139,137.220 5.130,137.580 5.122,137.940 5.113,138.301 5.104,138.661 5.091,139.169 5.078,139.677 5.065,140.185 5.052,140.692 5.039,141.200 5.026,141.708 5.013,142.216 5.000,142.724 5.030,143.032 5.061,143.340 5.091,143.648 5.122,143.957 5.152,144.265 5.182,144.573 5.213,144.881 5.243,145.189 5.221,145.754 5.200,146.318 5.178,146.882 5.156,147.447 5.135,148.011 5.113,148.575 5.091,149.140 5.069,149.704 5.065,150.060 5.061,150.416 5.056,150.772 5.052,151.128 5.048,151.484 5.043,151.839 5.039,152.195 5.035,152.551 5.048,152.790 5.061,153.029 5.074,153.268 5.087,153.506 5.100,153.745 5.113,153.984 5.126,154.223 5.139,154.461 5.443,154.457 5.747,154.453 6.050,154.448 6.354,154.444 6.658,154.440 6.962,154.436 7.266,154.431 7.570,154.427 7.713,154.570 7.856,154.714 7.999,154.857 8.143,155.000 9.024,153.940 9.332,153.454 9.640,152.968 9.948,152.482 10.257,151.996 10.565,151.510 10.873,151.023 11.181,150.537 11.494,150.034 11.806,149.530 12.119,149.027 12.431,148.523 12.744,148.020 13.056,147.516 13.369,147.013 13.682,146.509 14.202,145.845 14.723,145.181 15.244,144.517 15.765,143.852 16.286,143.188 16.807,142.524 17.328,141.860 17.849,141.196 18.365,140.553 18.882,139.911 19.398,139.269 19.915,138.626 20.431,137.984 20.948,137.341 21.465,136.699 21.981,136.056 22.476,135.514 22.971,134.971 23.466,134.429 23.960,133.886 24.455,133.343 24.950,132.801 25.445,132.258 25.940,131.716 26.617,130.969 27.294,130.222 27.971,129.476 28.649,128.729 29.326,127.983 30.003,127.236 30.680,126.489 31.357,125.743 31.839,125.192 32.321,124.640 32.803,124.089 33.284,123.538 33.766,122.986 34.248,122.435 34.730,121.884 35.212,121.333 35.490,120.990 35.767,120.647 36.045,120.304 36.323,119.961 36.601,119.618 36.879,119.275 37.156,118.932 37.434,118.589 37.803,118.155 38.172,117.721 38.541,117.287 38.910,116.853 39.279,116.419 39.648,115.985 40.017,115.551 40.386,115.117 40.911,114.643 41.436,114.170 41.962,113.697 42.487,113.224 43.012,112.751 43.537,112.278 44.063,111.805 44.588,111.331 45.018,111.028 45.447,110.724 45.877,110.420 46.307,110.116 46.737,109.812 47.166,109.508 47.596,109.204 48.026,108.901 48.395,108.649 48.764,108.397 49.133,108.145 49.502,107.894 49.871,107.642 50.240,107.390 50.608,107.138 50.977,106.887 51.607,106.544 52.236,106.201 52.866,105.858 53.495,105.515 54.125,105.172 54.754,104.829 55.383,104.486 56.013,104.143 57.137,103.596 58.261,103.049 59.386,102.502 60.510,101.955 61.634,101.408 62.758,100.862 63.883,100.315 65.007,99.768 65.384,99.551 65.762,99.334 66.140,99.117 66.517,98.900 66.895,98.682 67.273,98.465 67.650,98.248 68.028,98.031 68.757,97.602 69.486,97.172 70.216,96.742 70.945,96.312 71.674,95.883 72.403,95.453 73.133,95.023 73.862,94.593 74.057,94.450 74.253,94.307 74.448,94.164 74.643,94.021 74.839,93.877 75.034,93.734 75.229,93.591 75.425,93.448 75.759,93.122 76.093,92.797 76.427,92.471 76.762,92.145 77.096,91.820 77.430,91.494 77.764,91.169 78.098,90.843 78.450,90.531 78.802,90.218 79.153,89.906 79.505,89.593 79.856,89.281 80.208,88.968 80.560,88.655 80.911,88.343 80.933,88.321 80.955,88.299 80.977,88.278 80.998,88.256 81.020,88.234 81.042,88.212 81.063,88.191 81.085,88.169 81.333,87.822 81.580,87.474 81.827,87.127 82.075,86.780 82.322,86.433 82.570,86.085 82.817,85.738 83.065,85.391 83.590,84.540 84.115,83.689 84.640,82.839 85.165,81.988 85.691,81.137 86.216,80.286 86.741,79.435 87.266,78.585 87.596,78.051 87.926,77.517 88.256,76.983 88.586,76.449 88.916,75.915 89.246,75.381 89.576,74.847 89.906,74.313 90.244,73.818 90.583,73.324 90.921,72.829 91.260,72.334 91.598,71.839 91.937,71.344 92.276,70.849 92.614,70.354 92.966,69.860 93.317,69.365 93.669,68.870 94.021,68.375 94.372,67.880 94.724,67.385 95.075,66.891 95.427,66.396 95.740,65.901 96.052,65.406 96.365,64.911 96.677,64.416 96.990,63.921 97.302,63.427 97.615,62.932 97.927,62.437 98.309,61.825 98.691,61.213 99.073,60.601 99.455,59.989 99.837,59.377 100.219,58.765 100.601,58.153 100.983,57.541 101.226,57.037 101.469,56.533 101.713,56.030 101.956,55.526 102.199,55.023 102.442,54.519 102.685,54.016 102.928,53.512 103.067,53.156 103.206,52.800 103.345,52.444 103.484,52.089 103.623,51.733 103.761,51.377 103.900,51.021 104.039,50.665 104.400,49.866 104.760,49.067 105.120,48.269 105.480,47.470 105.841,46.671 106.201,45.873 106.561,45.074 106.922,44.275 107.390,43.485 107.859,42.695 108.328,41.905 108.797,41.115 109.266,40.325 109.734,39.535 110.203,38.745 110.672,37.955 111.128,36.605 111.584,35.255 112.039,33.905 112.495,32.555 112.951,31.205 113.407,29.855 113.862,28.505 114.318,27.155 114.470,26.404 114.622,25.653 114.774,24.902 114.926,24.151 115.078,23.400 115.230,22.649 115.382,21.898 115.534,21.148 115.581,20.557 115.629,19.967 115.677,19.376 115.725,18.786 115.772,18.196 115.820,17.605 115.868,17.015 115.916,16.425 115.542,15.609 115.169,14.793 114.795,13.977 114.422,13.161 114.049,12.345 113.675,11.529 113.302,10.712 112.929,9.896 112.595,9.571 112.260,9.245 111.926,8.920 111.592,8.594 111.258,8.269 110.923,7.943 110.589,7.617 110.255,7.292 109.777,7.075 109.300,6.858 108.822,6.641 108.345,6.424 107.868,6.207 107.390,5.990 106.913,5.773 106.435,5.556 105.684,5.486 104.933,5.417 104.182,5.347 103.431,5.278 102.680,5.208 101.929,5.139 101.178,5.069 100.427,5.000 99.494,5.056 98.561,5.113 97.628,5.169 96.694,5.226 95.761,5.282 94.828,5.339 93.895,5.395 92.961,5.451 92.193,5.673 91.425,5.894 90.656,6.116 89.888,6.337 89.120,6.558 88.351,6.780 87.583,7.001 86.815,7.222 86.428,7.444 86.042,7.665 85.656,7.887 85.269,8.108 84.883,8.329 84.497,8.551 84.110,8.772 83.724,8.994 83.551,9.323 83.377,9.653 83.203,9.983 83.030,10.313 82.856,10.643 82.682,10.973 82.509,11.303 82.335,11.633 82.391,12.106 82.448,12.579 82.504,13.052 82.561,13.525 82.617,13.998 82.674,14.472 82.730,14.945 82.787,15.418 83.212,15.618 83.637,15.817 84.063,16.017 84.488,16.217 84.914,16.416 85.339,16.616 85.764,16.816 86.190,17.015 86.650,17.341 87.110,17.666 87.570,17.992 88.030,18.317 88.490,18.643 88.950,18.969 89.411,19.294 89.871,19.620 90.392,19.997 90.912,20.375 91.433,20.753 91.954,21.130 92.475,21.508 92.996,21.886 93.517,22.263 94.038,22.641 94.298,23.019 94.559,23.396 94.819,23.774 95.080,24.151 95.340,24.529 95.601,24.907 95.861,25.284 96.121,25.662 96.239,26.161 96.356,26.660 96.473,27.160 96.590,27.659 96.707,28.158 96.825,28.657 96.942,29.156 97.059,29.656 96.998,30.337 96.938,31.019 96.877,31.700 96.816,32.382 96.755,33.063 96.695,33.745 96.634,34.426 96.573,35.108 96.295,35.672 96.017,36.236 95.740,36.800 95.462,37.365 95.184,37.929 94.906,38.493 94.628,39.058 94.351,39.622 94.008,40.165 93.665,40.707 93.322,41.250 92.979,41.792 92.636,42.335 92.293,42.878 91.950,43.420 91.607,43.963 91.386,44.327 91.164,44.692 90.943,45.057 90.722,45.421 90.500,45.786 90.279,46.150 90.057,46.515 89.836,46.880 89.576,47.218 89.315,47.557 89.055,47.895 88.794,48.234 88.534,48.573 88.273,48.911 88.013,49.250 87.752,49.588 87.427,50.075 87.101,50.561 86.776,51.047 86.450,51.533 86.125,52.019 85.799,52.505 85.474,52.992 85.148,53.478 84.970,53.786 84.792,54.094 84.614,54.402 84.436,54.710 84.258,55.019 84.080,55.327 83.902,55.635 83.724,55.943 83.525,56.282 83.325,56.620 83.125,56.959 82.926,57.298 82.726,57.636 82.526,57.975 82.327,58.313 82.127,58.652 81.862,59.069 81.597,59.485 81.333,59.902 81.068,60.319 80.803,60.735 80.538,61.152 80.274,61.569 80.009,61.986 79.657,62.546 79.306,63.106 78.954,63.665 78.602,64.225 78.251,64.785 77.899,65.345 77.548,65.905 77.196,66.465 76.849,66.891 76.501,67.316 76.154,67.741 75.807,68.167 75.460,68.592 75.112,69.018 74.765,69.443 74.418,69.868 74.088,70.407 73.758,70.945 73.428,71.483 73.098,72.021 72.768,72.560 72.438,73.098 72.109,73.636 71.779,74.174 71.470,74.613 71.162,75.051 70.854,75.490 70.546,75.928 70.238,76.367 69.929,76.805 69.621,77.243 69.313,77.682 69.131,78.146 68.948,78.611 68.766,79.075 68.584,79.540 68.402,80.004 68.219,80.469 68.037,80.933 67.855,81.398 67.672,81.853 67.490,82.309 67.308,82.765 67.125,83.221 66.943,83.676 66.761,84.132 66.578,84.588 66.396,85.044 66.088,85.400 65.780,85.756 65.472,86.112 65.163,86.468 64.855,86.823 64.547,87.179 64.239,87.535 63.931,87.891 63.596,87.978 63.262,88.065 62.928,88.152 62.594,88.239 62.259,88.325 61.925,88.412 61.591,88.499 61.257,88.586 60.714,88.603 60.171,88.621 59.629,88.638 59.086,88.656 58.544,88.673 58.001,88.691 57.459,88.708 56.916,88.725 56.430,88.882 55.944,89.038 55.457,89.194 54.971,89.351 54.485,89.507 53.999,89.663 53.513,89.819 53.027,89.976 52.458,90.210 51.889,90.444 51.321,90.679 50.752,90.913 50.183,91.148 49.615,91.382 49.046,91.616 48.477,91.851 47.700,92.307 46.923,92.762 46.146,93.218 45.369,93.674 44.592,94.130 43.815,94.586 43.038,95.041 42.261,95.497 41.888,95.818 41.515,96.140 41.142,96.461 40.768,96.782 40.395,97.103 40.022,97.424 39.648,97.746 39.275,98.067 38.932,98.371 38.589,98.675 38.246,98.978 37.903,99.282 37.560,99.586 37.218,99.890 36.875,100.194 36.532,100.498 35.959,100.888 35.386,101.279 34.813,101.670 34.240,102.060 33.667,102.451 33.094,102.842 32.521,103.232 31.948,103.623 31.457,104.005 30.967,104.387 30.476,104.769 29.986,105.151 29.495,105.533 29.005,105.915 28.514,106.297 28.024,106.679 27.685,107.048 27.347,107.417 27.008,107.786 26.669,108.155 26.331,108.524 25.992,108.893 25.654,109.262 25.315,109.631 25.089,109.852 24.864,110.073 24.638,110.295 24.412,110.516 24.187,110.738 23.961,110.959 23.735,111.180 23.509,111.402 22.984,111.979 22.459,112.556 21.934,113.134 21.408,113.711 20.883,114.288 20.358,114.866 19.833,115.443 19.308,116.020 18.969,116.385 18.630,116.750 18.292,117.114 17.953,117.479 17.615,117.843 17.276,118.208 16.937,118.573 16.599,118.937 16.356,119.219 16.113,119.502 15.870,119.784 15.627,120.066 15.383,120.348 15.140,120.630 14.897,120.912 14.654,121.194 14.320,121.602 13.986,122.010 13.651,122.419 13.317,122.827 12.983,123.235 12.649,123.643 12.315,124.051 11.980,124.459 11.742,124.784 11.503,125.110 11.264,125.435 11.025,125.761 10.787,126.086 10.548,126.412 10.309,126.738 10.070,127.063 9.862,127.276 9.654,127.488 9.445,127.701 9.237,127.914 9.029,128.127 8.820,128.339 8.612,128.552 8.404,128.765 8.200,129.042 7.995,129.320 7.791,129.598 7.587,129.876 7.383,130.154 7.179,130.432 6.975,130.709 6.771,130.987 6.628,131.300 6.485,131.612 6.342,131.925 6.198,132.237 6.055,132.550 5.912,132.862 5.769,133.175 5.625,133.487 5.569,133.774 5.513,134.060 5.456,134.347 5.400,134.633 5.343,134.920 5.287,135.206 5.230,135.493 5.174,135.779" fill="none" stroke="black" stroke-width="1"/>
</svg>
