<?xml version="1.0" encoding="UTF-8"?>
<svg xmlns="http://www.w3.org/2000/svg" width="95.1" height="160.0" viewBox="0 0 95.1 160.0">
  <polyline points="5.926,154.078 6.098,154.081 6.270,154.084 6.442,154.087 6.614,154.090 6.786,154.094 6.958,154.097 7.130,154.100 7.302,154.104 7.597,154.094 7.893,154.084 8.188,154.075 8.484,154.065 8.779,154.055 9.074,154.046 9.370,154.036 9.665,154.026 9.909,154.270 10.152,154.513 10.396,154.757 10.639,155.000 10.905,154.997 11.171,154.993 11.438,154.990 11.704,154.987 11.970,154.983 12.236,154.980 12.502,154.977 12.769,154.974 13.119,154.971 13.470,154.967 13.820,154.964 14.171,154.961 14.522,154.957 14.872,154.954 15.223,154.951 15.573,154.947 15.924,154.938 16.275,154.928 16.625,154.918 16.976,154.909 17.326,154.899 17.677,154.889 18.027,154.879 18.378,154.870 18.596,154.873 18.813,154.876 19.031,154.880 19.248,154.883 19.466,154.886 19.683,154.890 19.900,154.893 20.118,154.896 20.267,154.663 20.417,154.429 20.566,154.195 20.715,153.961 20.865,153.728 21.014,153.494 21.163,153.260 21.313,153.026 21.530,152.591 21.748,152.156 21.965,151.721 22.183,151.286 22.400,150.852 22.618,150.417 22.835,149.982 23.053,149.547 23.277,149.138 23.501,148.728 23.724,148.319 23.948,147.910 24.172,147.501 24.396,147.092 24.620,146.683 24.844,146.274 25.026,145.969 25.208,145.664 25.390,145.359 25.572,145.054 25.753,144.749 25.935,144.444 26.117,144.138 26.299,143.833 26.497,143.528 26.695,143.223 26.893,142.918 27.091,142.613 27.289,142.308 27.487,142.002 27.685,141.697 27.883,141.392 28.110,141.113 28.337,140.834 28.565,140.555 28.792,140.275 29.019,139.996 29.246,139.717 29.473,139.438 29.701,139.159 29.957,138.844 30.214,138.529 30.470,138.214 30.726,137.899 30.983,137.584 31.239,137.270 31.496,136.955 31.752,136.640 31.950,136.393 32.148,136.146 32.346,135.900 32.544,135.653 32.742,135.406 32.940,135.160 33.138,134.913 33.336,134.666 33.489,134.468 33.642,134.270 33.794,134.072 33.947,133.874 34.099,133.676 34.252,133.478 34.404,133.280 34.557,133.082 34.661,132.913 34.765,132.744 34.869,132.576 34.973,132.407 35.076,132.238 35.180,132.069 35.284,131.900 35.388,131.732 35.602,131.397 35.817,131.063 36.031,130.729 36.245,130.394 36.459,130.060 36.674,129.725 36.888,129.391 37.102,129.057 37.310,128.722 37.518,128.388 37.725,128.054 37.933,127.719 38.141,127.385 38.349,127.051 38.556,126.716 38.764,126.382 38.943,126.304 39.121,126.226 39.300,126.148 39.478,126.070 39.657,125.992 39.835,125.914 40.014,125.836 40.192,125.759 40.683,125.707 41.173,125.655 41.663,125.603 42.153,125.551 42.643,125.499 43.133,125.447 43.624,125.395 44.114,125.343 44.289,125.297 44.464,125.252 44.640,125.207 44.815,125.161 44.990,125.116 45.166,125.070 45.341,125.025 45.516,124.979 45.753,124.840 45.990,124.700 46.227,124.561 46.464,124.421 46.701,124.281 46.938,124.142 47.175,124.002 47.412,123.863 47.743,123.648 48.074,123.434 48.405,123.220 48.736,123.006 49.067,122.792 49.399,122.577 49.730,122.363 50.061,122.149 50.411,121.857 50.762,121.564 51.113,121.272 51.463,120.980 51.814,120.688 52.164,120.396 52.515,120.104 52.866,119.812 53.200,119.513 53.534,119.214 53.869,118.916 54.203,118.617 54.537,118.318 54.872,118.020 55.206,117.721 55.540,117.422 55.823,117.117 56.105,116.812 56.388,116.507 56.670,116.202 56.952,115.897 57.235,115.592 57.517,115.286 57.800,114.981 58.085,114.660 58.371,114.338 58.657,114.017 58.942,113.696 59.228,113.374 59.514,113.053 59.799,112.732 60.085,112.410 60.238,112.215 60.390,112.021 60.543,111.826 60.695,111.631 60.848,111.436 61.001,111.242 61.153,111.047 61.306,110.852 61.514,110.618 61.721,110.385 61.929,110.151 62.137,109.917 62.345,109.683 62.552,109.450 62.760,109.216 62.968,108.982 63.163,108.635 63.357,108.287 63.552,107.940 63.747,107.593 63.942,107.245 64.136,106.898 64.331,106.551 64.526,106.203 64.701,105.824 64.877,105.444 65.052,105.064 65.227,104.684 65.403,104.304 65.578,103.925 65.753,103.545 65.928,103.165 66.146,102.717 66.363,102.269 66.581,101.821 66.798,101.373 67.016,100.925 67.233,100.477 67.451,100.029 67.668,99.581 67.844,99.240 68.019,98.899 68.194,98.559 68.370,98.218 68.545,97.877 68.720,97.536 68.895,97.195 69.071,96.854 69.246,96.458 69.421,96.062 69.597,95.666 69.772,95.270 69.947,94.874 70.123,94.478 70.298,94.082 70.473,93.686 70.678,93.290 70.882,92.894 71.087,92.498 71.291,92.102 71.496,91.706 71.700,91.310 71.905,90.914 72.109,90.518 72.304,90.161 72.499,89.804 72.694,89.447 72.888,89.089 73.083,88.732 73.278,88.375 73.473,88.018 73.667,87.661 73.849,87.291 74.031,86.921 74.213,86.551 74.395,86.181 74.576,85.811 74.758,85.441 74.940,85.071 75.122,84.701 75.255,84.337 75.388,83.973 75.521,83.610 75.654,83.246 75.787,82.883 75.920,82.519 76.053,82.156 76.186,81.792 76.300,81.438 76.414,81.084 76.527,80.731 76.641,80.377 76.754,80.023 76.868,79.669 76.982,79.315 77.095,78.961 77.215,78.491 77.336,78.020 77.456,77.549 77.576,77.079 77.696,76.608 77.816,76.137 77.936,75.666 78.056,75.196 78.189,74.745 78.322,74.293 78.455,73.842 78.589,73.391 78.722,72.940 78.855,72.488 78.988,72.037 79.121,71.586 79.209,71.265 79.296,70.943 79.384,70.622 79.472,70.301 79.559,69.979 79.647,69.658 79.734,69.336 79.822,69.015 79.942,68.638 80.062,68.262 80.182,67.885 80.303,67.509 80.423,67.132 80.543,66.756 80.663,66.379 80.783,66.003 80.932,65.412 81.082,64.821 81.231,64.230 81.380,63.639 81.530,63.049 81.679,62.458 81.828,61.867 81.978,61.276 82.104,60.874 82.231,60.471 82.357,60.069 82.484,59.666 82.611,59.263 82.737,58.861 82.864,58.458 82.990,58.056 83.088,57.699 83.185,57.342 83.283,56.985 83.380,56.628 83.477,56.270 83.575,55.913 83.672,55.556 83.769,55.199 83.886,54.680 84.003,54.160 84.120,53.641 84.237,53.122 84.354,52.602 84.471,52.083 84.588,51.564 84.704,51.044 84.792,50.638 84.880,50.233 84.967,49.827 85.055,49.421 85.143,49.015 85.230,48.609 85.318,48.204 85.406,47.798 85.500,47.412 85.594,47.025 85.688,46.639 85.782,46.253 85.876,45.866 85.970,45.480 86.065,45.094 86.159,44.708 86.305,44.211 86.451,43.714 86.597,43.218 86.743,42.721 86.889,42.224 87.035,41.728 87.181,41.231 87.327,40.734 87.431,40.332 87.535,39.929 87.639,39.527 87.743,39.124 87.847,38.722 87.951,38.319 88.054,37.917 88.158,37.514 88.204,37.245 88.249,36.975 88.295,36.706 88.340,36.436 88.386,36.167 88.431,35.897 88.476,35.628 88.522,35.358 88.561,35.105 88.600,34.852 88.639,34.599 88.678,34.346 88.717,34.092 88.756,33.839 88.795,33.586 88.833,33.333 88.911,32.609 88.989,31.885 89.067,31.161 89.145,30.437 89.223,29.713 89.301,28.989 89.379,28.265 89.457,27.542 89.476,27.311 89.496,27.081 89.515,26.850 89.535,26.620 89.554,26.389 89.573,26.159 89.593,25.928 89.612,25.698 89.632,25.386 89.651,25.075 89.671,24.763 89.690,24.451 89.709,24.140 89.729,23.828 89.748,23.516 89.768,23.205 89.791,22.870 89.813,22.536 89.836,22.202 89.859,21.867 89.882,21.533 89.905,21.199 89.928,20.864 89.951,20.530 89.963,20.124 89.976,19.718 89.989,19.313 90.002,18.907 90.015,18.501 90.028,18.095 90.041,17.689 90.053,17.284 90.057,16.832 90.060,16.381 90.063,15.930 90.067,15.479 90.070,15.028 90.073,14.576 90.076,14.125 90.079,13.674 90.027,13.479 89.975,13.284 89.923,13.090 89.871,12.895 89.819,12.700 89.767,12.505 89.716,12.310 89.664,12.116 89.534,11.833 89.404,11.551 89.274,11.268 89.144,10.986 89.014,10.704 88.885,10.421 88.755,10.139 88.625,9.856 88.359,9.480 88.093,9.103 87.826,8.727 87.560,8.350 87.294,7.974 87.028,7.597 86.762,7.220 86.495,6.844 86.119,6.665 85.742,6.487 85.366,6.308 84.989,6.130 84.613,5.951 84.236,5.773 83.859,5.594 83.483,5.416 83.178,5.364 82.873,5.312 82.568,5.260 82.262,5.208 81.957,5.156 81.652,5.104 81.347,5.052 81.042,5.000 80.896,5.006 80.750,5.013 80.604,5.019 80.458,5.026 80.311,5.032 80.165,5.039 80.019,5.045 79.873,5.052 79.542,5.127 79.211,5.201 78.880,5.276 78.549,5.351 78.218,5.425 77.887,5.500 77.555,5.575 77.224,5.649 76.913,5.831 76.601,6.013 76.289,6.195 75.978,6.376 75.666,6.558 75.355,6.740 75.043,6.922 74.731,7.103 74.582,7.318 74.433,7.532 74.283,7.746 74.134,7.960 73.985,8.175 73.835,8.389 73.686,8.603 73.537,8.817 73.485,9.126 73.433,9.434 73.381,9.743 73.329,10.051 73.277,10.359 73.225,10.668 73.173,10.976 73.121,11.285 73.147,11.567 73.173,11.849 73.199,12.132 73.225,12.414 73.251,12.697 73.277,12.979 73.303,13.261 73.329,13.544 73.430,13.729 73.530,13.914 73.631,14.099 73.732,14.284 73.832,14.469 73.933,14.654 74.034,14.839 74.134,15.024 74.355,15.300 74.576,15.576 74.796,15.852 75.017,16.128 75.238,16.404 75.459,16.680 75.679,16.956 75.900,17.232 76.037,17.368 76.173,17.504 76.309,17.641 76.446,17.777 76.582,17.913 76.718,18.050 76.855,18.186 76.991,18.322 77.153,18.407 77.316,18.491 77.478,18.576 77.640,18.660 77.803,18.744 77.965,18.829 78.127,18.913 78.289,18.998 78.374,19.066 78.458,19.134 78.543,19.202 78.627,19.270 78.712,19.339 78.796,19.407 78.880,19.475 78.965,19.543 79.059,19.624 79.153,19.705 79.247,19.787 79.341,19.868 79.435,19.949 79.530,20.030 79.624,20.111 79.718,20.192 79.676,20.481 79.634,20.770 79.591,21.059 79.549,21.348 79.507,21.637 79.465,21.926 79.423,22.215 79.380,22.504 79.263,22.987 79.147,23.471 79.030,23.955 78.913,24.438 78.796,24.922 78.679,25.406 78.562,25.889 78.445,26.373 78.416,26.516 78.387,26.659 78.358,26.802 78.329,26.944 78.299,27.087 78.270,27.230 78.241,27.373 78.212,27.516 78.169,27.727 78.127,27.938 78.085,28.149 78.043,28.360 78.001,28.571 77.958,28.782 77.916,28.993 77.874,29.204 77.799,29.490 77.725,29.775 77.650,30.061 77.575,30.347 77.501,30.632 77.426,30.918 77.351,31.204 77.277,31.489 77.241,31.671 77.205,31.853 77.170,32.035 77.134,32.216 77.098,32.398 77.062,32.580 77.027,32.762 76.991,32.944 76.959,33.080 76.926,33.216 76.894,33.353 76.861,33.489 76.829,33.625 76.796,33.762 76.764,33.898 76.731,34.034 76.670,34.346 76.608,34.658 76.546,34.969 76.485,35.281 76.423,35.592 76.361,35.904 76.300,36.216 76.238,36.527 76.160,36.940 76.082,37.352 76.004,37.764 75.926,38.176 75.848,38.589 75.770,39.001 75.693,39.413 75.615,39.826 75.559,40.157 75.504,40.488 75.449,40.819 75.394,41.150 75.339,41.481 75.284,41.812 75.228,42.143 75.173,42.474 75.124,42.802 75.076,43.130 75.027,43.458 74.978,43.786 74.930,44.114 74.881,44.442 74.832,44.769 74.784,45.097 74.722,45.425 74.660,45.753 74.599,46.081 74.537,46.409 74.475,46.737 74.414,47.065 74.352,47.392 74.290,47.720 74.225,48.003 74.160,48.285 74.095,48.568 74.031,48.850 73.966,49.132 73.901,49.415 73.836,49.697 73.771,49.980 73.709,50.223 73.648,50.467 73.586,50.710 73.524,50.953 73.462,51.197 73.401,51.440 73.339,51.684 73.277,51.927 73.066,52.476 72.855,53.025 72.644,53.573 72.433,54.122 72.222,54.670 72.011,55.219 71.800,55.768 71.589,56.316 71.447,56.741 71.304,57.167 71.161,57.592 71.018,58.017 70.875,58.442 70.732,58.868 70.589,59.293 70.447,59.718 70.336,60.085 70.226,60.452 70.116,60.819 70.005,61.186 69.895,61.552 69.784,61.919 69.674,62.286 69.564,62.653 69.457,63.003 69.349,63.354 69.242,63.705 69.135,64.055 69.028,64.406 68.921,64.756 68.814,65.107 68.707,65.457 68.596,65.756 68.486,66.055 68.376,66.353 68.265,66.652 68.155,66.951 68.044,67.249 67.934,67.548 67.824,67.847 67.671,68.194 67.518,68.541 67.366,68.889 67.213,69.236 67.061,69.583 66.908,69.931 66.756,70.278 66.603,70.625 66.512,70.875 66.421,71.125 66.330,71.375 66.239,71.625 66.149,71.875 66.058,72.125 65.967,72.375 65.876,72.625 65.727,73.073 65.577,73.521 65.428,73.969 65.279,74.417 65.129,74.865 64.980,75.313 64.831,75.761 64.681,76.209 64.493,76.650 64.305,77.092 64.116,77.533 63.928,77.975 63.740,78.416 63.552,78.858 63.363,79.299 63.175,79.741 63.010,80.117 62.844,80.494 62.678,80.870 62.513,81.247 62.347,81.624 62.182,82.000 62.016,82.377 61.851,82.753 61.662,83.133 61.474,83.513 61.286,83.893 61.098,84.272 60.909,84.652 60.721,85.032 60.533,85.412 60.345,85.792 60.169,86.139 59.994,86.486 59.819,86.834 59.643,87.181 59.468,87.528 59.293,87.876 59.117,88.223 58.942,88.570 58.832,88.801 58.721,89.031 58.611,89.262 58.501,89.492 58.390,89.723 58.280,89.953 58.170,90.184 58.059,90.414 57.848,90.836 57.637,91.258 57.426,91.680 57.215,92.102 57.004,92.524 56.793,92.946 56.582,93.368 56.371,93.790 56.228,94.108 56.085,94.426 55.943,94.745 55.800,95.063 55.657,95.381 55.514,95.699 55.371,96.017 55.228,96.335 55.099,96.566 54.969,96.796 54.839,97.027 54.709,97.257 54.579,97.488 54.449,97.718 54.319,97.949 54.190,98.179 54.011,98.471 53.833,98.763 53.654,99.055 53.475,99.348 53.297,99.640 53.118,99.932 52.940,100.224 52.761,100.516 52.485,100.834 52.209,101.152 51.934,101.471 51.658,101.789 51.382,102.107 51.106,102.425 50.830,102.743 50.554,103.061 50.356,103.318 50.158,103.574 49.960,103.831 49.762,104.087 49.564,104.343 49.366,104.600 49.168,104.856 48.970,105.113 48.733,105.470 48.496,105.827 48.259,106.184 48.022,106.541 47.785,106.898 47.548,107.255 47.311,107.612 47.074,107.969 47.067,107.992 47.061,108.015 47.054,108.038 47.048,108.061 47.041,108.084 47.035,108.107 47.028,108.129 47.021,108.152 46.833,108.409 46.645,108.665 46.457,108.922 46.268,109.178 46.080,109.435 45.892,109.691 45.704,109.947 45.515,110.204 45.353,110.363 45.191,110.522 45.028,110.681 44.866,110.840 44.704,110.999 44.541,111.158 44.379,111.317 44.217,111.476 43.928,111.648 43.639,111.820 43.350,111.993 43.061,112.165 42.772,112.337 42.483,112.509 42.194,112.681 41.906,112.853 41.500,112.973 41.094,113.093 40.688,113.213 40.282,113.333 39.877,113.453 39.471,113.573 39.065,113.694 38.659,113.814 38.413,113.898 38.166,113.982 37.919,114.067 37.673,114.151 37.426,114.236 37.179,114.320 36.932,114.404 36.686,114.489 36.423,114.622 36.160,114.755 35.897,114.888 35.634,115.021 35.371,115.154 35.108,115.287 34.845,115.421 34.582,115.554 34.417,115.664 34.251,115.774 34.086,115.885 33.920,115.995 33.755,116.106 33.589,116.216 33.423,116.326 33.258,116.437 32.985,116.670 32.713,116.904 32.440,117.138 32.167,117.372 31.894,117.605 31.622,117.839 31.349,118.073 31.076,118.306 30.788,118.530 30.499,118.754 30.210,118.978 29.921,119.202 29.632,119.426 29.343,119.650 29.054,119.874 28.765,120.098 28.492,120.355 28.220,120.611 27.947,120.868 27.674,121.124 27.402,121.381 27.129,121.637 26.856,121.893 26.584,122.150 26.396,122.377 26.207,122.604 26.019,122.832 25.831,123.059 25.642,123.286 25.454,123.513 25.266,123.741 25.078,123.968 24.867,124.228 24.656,124.487 24.445,124.747 24.234,125.007 24.023,125.266 23.812,125.526 23.601,125.786 23.390,126.045 23.325,126.211 23.260,126.377 23.195,126.542 23.130,126.708 23.065,126.873 23.000,127.039 22.935,127.204 22.870,127.370 22.552,127.695 22.234,128.019 21.916,128.344 21.598,128.668 21.280,128.993 20.961,129.318 20.643,129.642 20.325,129.967 20.176,130.214 20.027,130.460 19.877,130.707 19.728,130.954 19.579,131.200 19.429,131.447 19.280,131.694 19.131,131.940 18.978,132.187 18.825,132.434 18.673,132.681 18.520,132.927 18.368,133.174 18.215,133.421 18.063,133.667 17.910,133.914 17.738,134.148 17.566,134.382 17.394,134.615 17.222,134.849 17.050,135.083 16.878,135.316 16.706,135.550 16.534,135.784 16.358,136.001 16.183,136.219 16.008,136.436 15.832,136.654 15.657,136.871 15.482,137.089 15.307,137.306 15.131,137.524 14.972,137.715 14.813,137.907 14.654,138.098 14.495,138.290 14.336,138.482 14.177,138.673 14.018,138.865 13.859,139.056 13.674,139.351 13.489,139.647 13.304,139.942 13.119,140.238 12.934,140.533 12.749,140.829 12.564,141.124 12.378,141.419 12.213,141.731 12.047,142.043 11.882,142.354 11.716,142.666 11.551,142.977 11.385,143.289 11.220,143.601 11.054,143.912 10.924,144.123 10.794,144.334 10.664,144.545 10.535,144.756 10.405,144.967 10.275,145.178 10.145,145.389 10.015,145.601 9.817,145.886 9.619,146.172 9.421,146.458 9.223,146.743 9.025,147.029 8.827,147.315 8.629,147.600 8.431,147.886 8.269,148.165 8.106,148.444 7.944,148.723 7.782,149.003 7.620,149.282 7.457,149.561 7.295,149.840 7.133,150.119 6.935,150.502 6.737,150.885 6.539,151.268 6.341,151.651 6.143,152.034 5.945,152.418 5.747,152.801 5.548,153.184 5.523,153.249 5.497,153.313 5.471,153.378 5.445,153.443 5.419,153.508 5.393,153.573 5.367,153.638 5.341,153.703 5.292,153.872 5.243,154.041 5.195,154.209 5.146,154.378 5.097,154.547 5.049,154.716 5.000,154.885 5.926,154.078" fill="none" stroke="black" stroke-width="1"/>
</svg>
