<?xml version="1.0" encoding="UTF-8"?>
<svg xmlns="http://www.w3.org/2000/svg" width="178.2" height="160.0" viewBox="0 0 178.2 160.0">
  <polyline points="172.811,155.000 172.820,154.356 172.829,153.712 172.837,153.068 172.846,152.424 172.854,151.780 172.863,151.136 172.872,150.492 172.880,149.848 172.862,148.891 172.843,147.934 172.825,146.977 172.807,146.021 172.788,145.064 172.770,144.107 172.751,143.150 172.733,142.193 172.761,141.669 172.788,141.145 172.816,140.620 172.844,140.096 172.871,139.571 172.899,139.047 172.927,138.522 172.954,137.998 172.982,137.363 173.010,136.728 173.037,136.094 173.065,135.459 173.093,134.824 173.120,134.189 173.148,133.554 173.176,132.920 173.111,132.110 173.047,131.300 172.982,130.491 172.918,129.681 172.854,128.871 172.789,128.062 172.725,127.252 172.660,126.443 172.697,125.431 172.734,124.419 172.771,123.407 172.807,122.395 172.844,121.382 172.881,120.370 172.918,119.358 172.954,118.346 172.946,118.015 172.937,117.684 172.929,117.353 172.920,117.022 172.911,116.690 172.903,116.359 172.894,116.028 172.886,115.697 172.150,115.623 171.414,115.550 170.678,115.476 169.942,115.402 169.206,115.329 168.470,115.255 167.734,115.182 166.998,115.108 165.783,115.034 164.569,114.961 163.354,114.887 162.140,114.814 160.925,114.740 159.711,114.666 158.497,114.593 157.282,114.519 156.123,114.372 154.964,114.225 153.804,114.078 152.645,113.930 151.486,113.783 150.327,113.636 149.168,113.489 148.008,113.342 146.748,113.176 145.487,113.010 144.227,112.845 142.967,112.679 141.706,112.514 140.446,112.348 139.185,112.182 137.925,112.017 136.876,111.796 135.827,111.575 134.778,111.354 133.730,111.134 132.681,110.913 131.632,110.692 130.583,110.471 129.534,110.250 128.955,109.901 128.375,109.551 127.795,109.202 127.216,108.852 126.636,108.502 126.057,108.153 125.477,107.803 124.897,107.454 124.207,106.736 123.517,106.018 122.827,105.301 122.137,104.583 121.447,103.865 120.757,103.148 120.067,102.430 119.377,101.713 118.770,101.161 118.163,100.609 117.556,100.057 116.948,99.505 116.341,98.953 115.734,98.401 115.127,97.849 114.520,97.297 113.765,96.579 113.011,95.861 112.256,95.144 111.502,94.426 110.748,93.708 109.993,92.991 109.239,92.273 108.484,91.556 107.886,90.994 107.288,90.433 106.690,89.872 106.092,89.311 105.494,88.750 104.896,88.188 104.298,87.627 103.700,87.066 102.937,86.321 102.173,85.575 101.409,84.830 100.646,84.085 99.882,83.340 99.118,82.595 98.355,81.849 97.591,81.104 96.864,80.331 96.138,79.559 95.411,78.786 94.684,78.013 93.957,77.240 93.230,76.467 92.504,75.694 91.777,74.922 90.949,74.020 90.121,73.118 89.293,72.217 88.465,71.315 87.637,70.414 86.809,69.512 85.981,68.610 85.153,67.709 84.334,66.853 83.515,65.997 82.696,65.142 81.877,64.286 81.058,63.431 80.240,62.575 79.421,61.719 78.602,60.864 78.124,60.257 77.645,59.649 77.167,59.042 76.688,58.435 76.210,57.828 75.732,57.220 75.253,56.613 74.775,56.006 74.149,55.233 73.523,54.460 72.897,53.687 72.272,52.915 71.646,52.142 71.021,51.369 70.395,50.596 69.769,49.823 69.273,49.281 68.776,48.738 68.279,48.195 67.782,47.652 67.285,47.109 66.789,46.566 66.292,46.024 65.795,45.481 64.912,44.680 64.028,43.880 63.145,43.080 62.262,42.279 61.379,41.479 60.496,40.678 59.612,39.878 58.729,39.078 58.269,38.535 57.809,37.992 57.349,37.449 56.889,36.906 56.429,36.363 55.969,35.821 55.509,35.278 55.049,34.735 54.479,34.045 53.908,33.355 53.338,32.665 52.767,31.975 52.197,31.285 51.627,30.595 51.056,29.905 50.486,29.215 50.127,28.783 49.768,28.350 49.409,27.918 49.051,27.485 48.692,27.053 48.333,26.620 47.974,26.188 47.615,25.756 46.760,24.937 45.904,24.118 45.048,23.299 44.193,22.480 43.337,21.662 42.482,20.843 41.626,20.024 40.770,19.205 39.611,18.055 38.452,16.905 37.293,15.755 36.133,14.605 34.974,13.455 33.815,12.305 32.656,11.155 31.497,10.005 30.733,9.554 29.969,9.103 29.206,8.652 28.442,8.202 27.678,7.751 26.915,7.300 26.151,6.849 25.388,6.398 24.366,6.224 23.345,6.049 22.324,5.874 21.303,5.699 20.282,5.524 19.260,5.350 18.239,5.175 17.218,5.000 16.583,5.166 15.948,5.331 15.313,5.497 14.679,5.662 14.044,5.828 13.409,5.994 12.774,6.159 12.139,6.325 11.523,6.886 10.907,7.447 10.290,8.008 9.674,8.570 9.057,9.131 8.441,9.692 7.824,10.253 7.208,10.815 6.932,11.661 6.656,12.507 6.380,13.354 6.104,14.200 5.828,15.047 5.552,15.893 5.276,16.739 5.000,17.586 5.184,18.313 5.368,19.039 5.552,19.766 5.736,20.493 5.920,21.220 6.104,21.947 6.288,22.674 6.472,23.400 6.822,23.925 7.171,24.449 7.521,24.974 7.870,25.498 8.220,26.022 8.570,26.547 8.919,27.071 9.269,27.596 9.775,28.120 10.281,28.644 10.787,29.169 11.293,29.693 11.799,30.218 12.305,30.742 12.811,31.267 13.317,31.791 13.970,31.819 14.623,31.846 15.277,31.874 15.930,31.901 16.583,31.929 17.236,31.957 17.889,31.984 18.543,32.012 19.039,31.782 19.536,31.552 20.033,31.322 20.530,31.092 21.027,30.862 21.524,30.632 22.020,30.402 22.517,30.172 22.747,30.043 22.977,29.914 23.207,29.785 23.437,29.657 23.667,29.528 23.897,29.399 24.127,29.270 24.357,29.141 24.771,29.693 25.185,30.245 25.599,30.797 26.013,31.349 26.427,31.901 26.841,32.453 27.255,33.005 27.669,33.557 27.945,34.036 28.221,34.514 28.497,34.993 28.773,35.471 29.049,35.949 29.325,36.428 29.601,36.906 29.877,37.385 30.365,38.213 30.853,39.041 31.340,39.869 31.828,40.697 32.315,41.525 32.803,42.353 33.291,43.181 33.778,44.009 34.358,44.800 34.937,45.591 35.517,46.382 36.097,47.174 36.676,47.965 37.256,48.756 37.835,49.547 38.415,50.339 38.967,51.157 39.519,51.976 40.071,52.795 40.623,53.614 41.175,54.433 41.727,55.251 42.279,56.070 42.831,56.889 43.549,57.846 44.266,58.803 44.984,59.760 45.702,60.716 46.419,61.673 47.137,62.630 47.855,63.587 48.572,64.544 49.262,65.473 49.952,66.402 50.642,67.331 51.332,68.261 52.022,69.190 52.712,70.119 53.402,71.048 54.092,71.977 54.847,73.026 55.601,74.075 56.355,75.124 57.110,76.173 57.864,77.222 58.619,78.270 59.373,79.319 60.128,80.368 60.919,81.408 61.710,82.447 62.501,83.487 63.292,84.527 64.084,85.566 64.875,86.606 65.666,87.645 66.457,88.685 67.212,89.715 67.966,90.746 68.721,91.776 69.475,92.807 70.229,93.837 70.984,94.868 71.738,95.898 72.493,96.928 72.989,97.655 73.486,98.382 73.983,99.109 74.480,99.836 74.977,100.562 75.474,101.289 75.970,102.016 76.467,102.743 77.074,103.599 77.682,104.454 78.289,105.310 78.896,106.165 79.503,107.021 80.110,107.877 80.718,108.732 81.325,109.588 81.877,110.259 82.429,110.931 82.981,111.603 83.533,112.274 84.085,112.946 84.637,113.618 85.189,114.289 85.741,114.961 86.072,115.402 86.403,115.844 86.735,116.286 87.066,116.727 87.397,117.169 87.728,117.610 88.059,118.052 88.391,118.494 88.841,118.990 89.292,119.487 89.743,119.984 90.194,120.481 90.645,120.978 91.095,121.474 91.546,121.971 91.997,122.468 92.531,123.140 93.064,123.811 93.598,124.483 94.132,125.155 94.665,125.826 95.199,126.498 95.732,127.169 96.266,127.841 96.855,128.476 97.444,129.111 98.032,129.745 98.621,130.380 99.210,131.015 99.799,131.650 100.388,132.285 100.976,132.920 101.446,133.242 101.915,133.564 102.384,133.886 102.853,134.208 103.322,134.530 103.792,134.852 104.261,135.174 104.730,135.496 105.209,135.716 105.687,135.937 106.165,136.158 106.644,136.379 107.122,136.600 107.601,136.820 108.079,137.041 108.557,137.262 109.459,137.639 110.361,138.016 111.262,138.394 112.164,138.771 113.066,139.148 113.967,139.525 114.869,139.902 115.770,140.280 117.104,140.657 118.438,141.034 119.772,141.411 121.106,141.789 122.441,142.166 123.775,142.543 125.109,142.920 126.443,143.297 127.593,143.647 128.743,143.997 129.893,144.346 131.043,144.696 132.193,145.045 133.343,145.395 134.493,145.745 135.643,146.094 136.554,146.324 137.464,146.554 138.375,146.784 139.286,147.014 140.197,147.244 141.108,147.474 142.019,147.704 142.929,147.934 144.254,148.284 145.579,148.633 146.904,148.983 148.229,149.333 149.553,149.682 150.878,150.032 152.203,150.382 153.528,150.731 154.614,151.035 155.699,151.338 156.785,151.642 157.870,151.946 158.956,152.249 160.042,152.553 161.127,152.856 162.213,153.160 163.087,153.280 163.961,153.399 164.835,153.519 165.709,153.638 166.583,153.758 167.457,153.878 168.331,153.997 169.205,154.117 169.656,154.227 170.107,154.338 170.557,154.448 171.008,154.558 171.459,154.669 171.910,154.779 172.361,154.890 172.811,155.000" fill="none" stroke="black" stroke-width="1"/>
</svg>
