<?xml version="1.0" encoding="UTF-8"?>
<svg xmlns="http://www.w3.org/2000/svg" width="162.0" height="160.0" viewBox="0 0 162.0 160.0">
  <polyline points="151.790,124.215 151.992,124.367 152.194,124.518 152.396,124.670 152.598,124.821 152.800,124.973 153.002,125.124 153.204,125.276 153.406,125.427 153.716,125.629 154.025,125.831 154.334,126.033 154.644,126.235 154.953,126.437 155.262,126.639 155.572,126.841 155.881,127.043 156.001,127.163 156.121,127.283 156.241,127.403 156.361,127.523 156.481,127.643 156.601,127.763 156.721,127.883 156.841,128.003 156.866,127.542 156.891,127.081 156.916,126.620 156.942,126.159 156.967,125.699 156.992,125.238 157.017,124.777 157.042,124.316 157.036,123.893 157.030,123.470 157.024,123.047 157.018,122.624 157.013,122.201 157.007,121.778 157.001,121.355 156.995,120.932 156.572,120.509 156.149,120.086 155.726,119.663 155.303,119.240 155.271,118.754 155.240,118.268 155.208,117.782 155.176,117.296 155.145,116.810 155.113,116.324 155.082,115.838 155.050,115.352 155.044,114.878 155.038,114.405 155.032,113.931 155.026,113.458 155.020,112.984 155.014,112.511 155.008,112.037 155.002,111.564 154.984,111.166 154.965,110.768 154.946,110.371 154.927,109.973 154.908,109.575 154.889,109.177 154.870,108.780 154.851,108.382 154.882,107.763 154.914,107.145 154.946,106.526 154.977,105.907 155.009,105.289 155.040,104.670 155.072,104.051 155.103,103.433 155.122,102.271 155.141,101.109 155.160,99.948 155.179,98.786 155.198,97.625 155.217,96.463 155.236,95.301 155.255,94.140 155.229,93.767 155.204,93.395 155.179,93.022 155.154,92.650 155.129,92.277 155.103,91.905 155.078,91.533 155.053,91.160 155.047,90.598 155.041,90.036 155.035,89.474 155.029,88.913 155.023,88.351 155.017,87.789 155.011,87.227 155.005,86.665 154.999,86.173 154.993,85.680 154.987,85.188 154.981,84.696 154.975,84.203 154.969,83.711 154.963,83.218 154.957,82.726 154.963,82.366 154.969,82.006 154.975,81.646 154.981,81.286 154.987,80.927 154.993,80.567 154.999,80.207 155.005,79.847 154.999,79.557 154.993,79.266 154.987,78.976 154.981,78.686 154.975,78.395 154.969,78.105 154.963,77.814 154.957,77.524 154.376,76.943 153.796,76.362 153.215,75.782 152.634,75.201 152.116,75.276 151.599,75.352 151.081,75.428 150.563,75.504 150.046,75.580 149.528,75.655 149.010,75.731 148.493,75.807 148.070,75.895 147.647,75.984 147.224,76.072 146.801,76.160 146.378,76.249 145.955,76.337 145.532,76.425 145.109,76.514 144.724,76.627 144.339,76.741 143.954,76.855 143.569,76.968 143.183,77.082 142.798,77.196 142.413,77.309 142.028,77.423 141.548,77.562 141.069,77.701 140.589,77.840 140.109,77.978 139.629,78.117 139.149,78.256 138.670,78.395 138.190,78.534 137.622,78.667 137.053,78.799 136.485,78.932 135.917,79.064 135.349,79.197 134.781,79.329 134.213,79.462 133.644,79.595 133.057,79.708 132.470,79.822 131.883,79.936 131.296,80.049 130.709,80.163 130.122,80.276 129.535,80.390 128.948,80.504 128.158,80.598 127.369,80.693 126.580,80.788 125.791,80.882 125.002,80.977 124.213,81.072 123.424,81.167 122.635,81.261 121.972,81.280 121.309,81.299 120.646,81.318 119.983,81.337 119.320,81.356 118.657,81.375 117.995,81.394 117.332,81.413 116.864,81.394 116.397,81.375 115.930,81.356 115.463,81.337 114.996,81.318 114.529,81.299 114.061,81.280 113.594,81.261 113.026,81.249 112.458,81.236 111.890,81.223 111.322,81.211 110.753,81.198 110.185,81.185 109.617,81.173 109.049,81.160 108.670,81.084 108.291,81.009 107.913,80.933 107.534,80.857 107.155,80.781 106.776,80.706 106.397,80.630 106.019,80.554 105.577,80.428 105.135,80.302 104.693,80.175 104.251,80.049 103.809,79.923 103.367,79.797 102.925,79.670 102.483,79.544 101.941,79.430 101.398,79.317 100.855,79.203 100.312,79.090 99.769,78.976 99.226,78.862 98.683,78.749 98.140,78.635 97.471,78.332 96.802,78.029 96.133,77.726 95.463,77.423 94.794,77.120 94.125,76.817 93.456,76.514 92.787,76.211 92.383,76.009 91.979,75.807 91.575,75.605 91.171,75.403 90.767,75.201 90.363,74.999 89.958,74.797 89.554,74.595 89.068,74.367 88.582,74.140 88.096,73.913 87.610,73.686 87.124,73.458 86.638,73.231 86.152,73.004 85.666,72.777 84.959,72.423 84.252,72.069 83.544,71.716 82.837,71.362 82.130,71.009 81.423,70.655 80.716,70.302 80.009,69.948 79.630,69.708 79.252,69.469 78.873,69.229 78.494,68.989 78.115,68.749 77.736,68.509 77.358,68.269 76.979,68.029 76.442,67.720 75.906,67.410 75.369,67.101 74.832,66.792 74.296,66.482 73.759,66.173 73.223,65.864 72.686,65.554 72.364,65.308 72.042,65.062 71.720,64.816 71.398,64.570 71.076,64.323 70.754,64.077 70.432,63.831 69.469,64.216 69.001,63.837 68.534,63.459 68.067,63.080 67.600,62.701 67.133,62.322 66.666,61.943 66.198,61.565 65.731,61.186 65.334,60.864 64.936,60.542 64.538,60.220 64.140,59.898 63.743,59.576 63.345,59.254 62.947,58.932 62.549,58.610 62.227,58.288 61.906,57.966 61.584,57.644 61.262,57.322 60.940,57.000 60.618,56.678 60.296,56.356 59.974,56.034 59.538,55.643 59.103,55.252 58.667,54.860 58.231,54.469 57.796,54.077 57.360,53.686 56.925,53.295 56.489,52.903 56.243,52.657 55.997,52.411 55.750,52.165 55.504,51.918 55.258,51.672 55.012,51.426 54.766,51.180 54.519,50.934 54.071,50.492 53.623,50.050 53.175,49.608 52.726,49.166 52.278,48.724 51.830,48.282 51.382,47.840 50.934,47.398 50.719,47.171 50.504,46.944 50.290,46.716 50.075,46.489 49.860,46.262 49.646,46.035 49.431,45.807 49.216,45.580 48.894,45.151 48.572,44.721 48.250,44.292 47.929,43.863 47.607,43.434 47.285,43.004 46.963,42.575 46.641,42.146 46.262,41.552 45.883,40.959 45.504,40.366 45.126,39.772 44.747,39.179 44.368,38.585 43.989,37.992 43.610,37.398 43.377,37.070 43.143,36.742 42.910,36.414 42.676,36.085 42.443,35.757 42.209,35.429 41.975,35.100 41.742,34.772 41.458,34.324 41.174,33.876 40.890,33.428 40.605,32.979 40.321,32.531 40.037,32.083 39.753,31.635 39.469,31.186 39.267,30.934 39.065,30.681 38.863,30.429 38.661,30.176 38.459,29.924 38.257,29.671 38.055,29.419 37.853,29.166 37.695,28.933 37.537,28.699 37.379,28.465 37.222,28.232 37.064,27.998 36.906,27.765 36.748,27.531 36.590,27.298 36.369,26.982 36.148,26.666 35.927,26.351 35.707,26.035 35.486,25.719 35.265,25.404 35.044,25.088 34.823,24.772 34.627,24.469 34.431,24.166 34.236,23.863 34.040,23.560 33.844,23.257 33.648,22.954 33.453,22.651 33.257,22.348 33.023,22.014 32.790,21.679 32.556,21.344 32.323,21.010 32.089,20.675 31.856,20.341 31.622,20.006 31.388,19.671 31.167,19.286 30.946,18.901 30.726,18.516 30.505,18.131 30.284,17.746 30.063,17.361 29.842,16.976 29.621,16.591 29.425,16.332 29.229,16.073 29.034,15.814 28.838,15.555 28.642,15.297 28.447,15.038 28.251,14.779 28.055,14.520 27.771,14.110 27.487,13.699 27.203,13.289 26.919,12.879 26.635,12.468 26.351,12.058 26.067,11.648 25.782,11.237 25.492,10.947 25.202,10.656 24.911,10.366 24.621,10.076 24.330,9.785 24.040,9.495 23.750,9.204 23.459,8.914 23.175,8.706 22.891,8.497 22.607,8.289 22.323,8.081 22.039,7.872 21.755,7.664 21.471,7.456 21.187,7.247 20.833,7.165 20.480,7.083 20.126,7.001 19.772,6.919 19.419,6.837 19.065,6.755 18.712,6.673 18.358,6.591 17.961,6.193 17.563,5.795 17.165,5.398 16.767,5.000 16.395,5.069 16.023,5.139 15.650,5.208 15.278,5.278 14.905,5.347 14.533,5.417 14.160,5.486 13.788,5.556 13.478,5.701 13.169,5.846 12.860,5.991 12.550,6.136 12.241,6.282 11.932,6.427 11.622,6.572 11.313,6.717 11.023,6.900 10.732,7.083 10.442,7.266 10.151,7.449 9.861,7.633 9.571,7.816 9.280,7.999 8.990,8.182 8.680,8.592 8.371,9.002 8.062,9.413 7.752,9.823 7.443,10.233 7.134,10.644 6.824,11.054 6.515,11.465 6.408,11.660 6.300,11.856 6.193,12.052 6.086,12.247 5.979,12.443 5.871,12.639 5.764,12.834 5.657,13.030 5.600,13.238 5.543,13.447 5.486,13.655 5.429,13.863 5.372,14.072 5.316,14.280 5.259,14.488 5.202,14.697 5.177,14.981 5.152,15.265 5.126,15.549 5.101,15.833 5.076,16.117 5.051,16.401 5.025,16.685 5.000,16.969 5.019,17.203 5.038,17.437 5.057,17.670 5.076,17.904 5.095,18.137 5.114,18.371 5.133,18.605 5.152,18.838 5.284,19.097 5.417,19.356 5.549,19.615 5.682,19.873 5.814,20.132 5.947,20.391 6.080,20.650 6.212,20.909 6.471,21.130 6.730,21.351 6.989,21.572 7.247,21.793 7.506,22.014 7.765,22.235 8.024,22.455 8.283,22.676 8.624,22.853 8.965,23.030 9.305,23.207 9.646,23.384 9.987,23.560 10.328,23.737 10.669,23.914 11.010,24.091 11.206,24.229 11.401,24.368 11.597,24.507 11.793,24.646 11.989,24.785 12.184,24.924 12.380,25.063 12.576,25.202 12.733,25.290 12.891,25.378 13.049,25.467 13.207,25.555 13.365,25.644 13.523,25.732 13.680,25.820 13.838,25.909 14.040,26.111 14.242,26.313 14.444,26.515 14.646,26.717 14.848,26.919 15.050,27.121 15.252,27.323 15.454,27.525 15.625,27.790 15.795,28.055 15.966,28.320 16.136,28.585 16.307,28.851 16.477,29.116 16.648,29.381 16.818,29.646 16.900,29.924 16.982,30.202 17.064,30.479 17.146,30.757 17.228,31.035 17.310,31.313 17.392,31.590 17.475,31.868 17.531,32.196 17.588,32.525 17.645,32.853 17.702,33.181 17.759,33.510 17.815,33.838 17.872,34.166 17.929,34.494 17.973,34.886 18.017,35.277 18.062,35.669 18.106,36.060 18.150,36.451 18.194,36.843 18.238,37.234 18.283,37.626 18.333,37.859 18.384,38.093 18.434,38.326 18.485,38.560 18.535,38.794 18.586,39.027 18.636,39.261 18.687,39.494 18.737,39.772 18.788,40.050 18.838,40.328 18.889,40.605 18.939,40.883 18.990,41.161 19.040,41.439 19.091,41.717 19.185,42.026 19.280,42.335 19.375,42.645 19.469,42.954 19.564,43.263 19.659,43.573 19.754,43.882 19.848,44.191 19.949,44.633 20.050,45.075 20.151,45.517 20.252,45.959 20.353,46.401 20.454,46.843 20.555,47.285 20.656,47.726 20.719,47.941 20.783,48.156 20.846,48.370 20.909,48.585 20.972,48.800 21.035,49.014 21.098,49.229 21.161,49.444 21.250,49.759 21.338,50.075 21.427,50.391 21.515,50.706 21.603,51.022 21.692,51.338 21.780,51.653 21.868,51.969 22.001,52.411 22.134,52.853 22.266,53.295 22.399,53.736 22.531,54.178 22.664,54.620 22.796,55.062 22.929,55.504 23.024,55.864 23.118,56.224 23.213,56.584 23.308,56.944 23.402,57.303 23.497,57.663 23.592,58.023 23.687,58.383 23.807,58.686 23.926,58.989 24.046,59.292 24.166,59.595 24.286,59.898 24.406,60.201 24.526,60.504 24.646,60.807 24.785,61.161 24.924,61.514 25.063,61.868 25.202,62.221 25.341,62.575 25.479,62.928 25.618,63.282 25.757,63.635 26.111,64.393 26.464,65.150 26.818,65.908 27.171,66.666 27.525,67.423 27.878,68.181 28.232,68.938 28.585,69.696 28.718,69.955 28.851,70.213 28.983,70.472 29.116,70.731 29.248,70.990 29.381,71.249 29.513,71.508 29.646,71.766 29.810,72.082 29.974,72.398 30.138,72.713 30.303,73.029 30.467,73.345 30.631,73.660 30.795,73.976 30.959,74.292 31.142,74.639 31.325,74.986 31.508,75.333 31.691,75.681 31.875,76.028 32.058,76.375 32.241,76.722 32.424,77.069 32.657,77.524 32.891,77.978 33.125,78.433 33.358,78.888 33.592,79.342 33.825,79.797 34.059,80.251 34.292,80.706 34.438,80.965 34.583,81.223 34.728,81.482 34.873,81.741 35.018,82.000 35.164,82.259 35.309,82.518 35.454,82.776 35.700,83.244 35.946,83.711 36.193,84.178 36.439,84.645 36.685,85.112 36.931,85.579 37.177,86.047 37.424,86.514 37.556,86.716 37.689,86.918 37.821,87.120 37.954,87.322 38.087,87.524 38.219,87.726 38.352,87.928 38.484,88.130 38.712,88.565 38.939,89.001 39.166,89.437 39.393,89.872 39.621,90.308 39.848,90.743 40.075,91.179 40.302,91.615 40.429,91.974 40.555,92.334 40.681,92.694 40.807,93.054 40.934,93.414 41.060,93.774 41.186,94.133 41.313,94.493 41.496,94.771 41.679,95.049 41.862,95.327 42.045,95.604 42.228,95.882 42.411,96.160 42.594,96.438 42.777,96.716 42.941,97.000 43.105,97.284 43.270,97.568 43.434,97.852 43.598,98.136 43.762,98.420 43.926,98.704 44.090,98.988 44.254,99.241 44.419,99.493 44.583,99.746 44.747,99.998 44.911,100.251 45.075,100.503 45.239,100.756 45.403,101.008 45.656,101.368 45.908,101.728 46.161,102.088 46.413,102.448 46.666,102.808 46.918,103.167 47.171,103.527 47.424,103.887 47.745,104.272 48.067,104.657 48.389,105.042 48.711,105.427 49.033,105.813 49.355,106.198 49.677,106.583 49.999,106.968 50.340,107.258 50.681,107.549 51.022,107.839 51.363,108.129 51.704,108.420 52.045,108.710 52.386,109.001 52.726,109.291 53.042,109.556 53.358,109.821 53.673,110.086 53.989,110.352 54.305,110.617 54.620,110.882 54.936,111.147 55.252,111.412 55.675,111.665 56.098,111.917 56.521,112.170 56.944,112.422 57.367,112.675 57.789,112.927 58.212,113.180 58.635,113.432 58.970,113.578 59.305,113.723 59.639,113.868 59.974,114.013 60.308,114.158 60.643,114.304 60.978,114.449 61.312,114.594 61.653,114.701 61.994,114.809 62.335,114.916 62.676,115.023 63.017,115.131 63.358,115.238 63.698,115.345 64.039,115.453 64.532,115.509 65.024,115.566 65.517,115.623 66.009,115.680 66.501,115.737 66.994,115.794 67.486,115.850 67.979,115.907 68.433,115.876 68.888,115.844 69.342,115.813 69.797,115.781 70.251,115.750 70.706,115.718 71.160,115.687 71.615,115.655 72.063,115.567 72.511,115.478 72.960,115.390 73.408,115.301 73.856,115.213 74.304,115.125 74.753,115.036 75.201,114.948 75.718,114.796 76.236,114.645 76.754,114.493 77.271,114.342 77.789,114.190 78.307,114.039 78.824,113.887 79.342,113.736 79.992,113.527 80.643,113.319 81.293,113.111 81.943,112.903 82.593,112.694 83.244,112.486 83.894,112.278 84.544,112.069 84.879,111.930 85.213,111.791 85.548,111.653 85.882,111.514 86.217,111.375 86.552,111.236 86.886,111.097 87.221,110.958 87.549,110.876 87.877,110.794 88.206,110.712 88.534,110.630 88.862,110.548 89.190,110.466 89.519,110.384 89.847,110.302 90.163,110.296 90.478,110.290 90.794,110.284 91.110,110.278 91.425,110.272 91.741,110.266 92.057,110.260 92.372,110.254 92.461,110.329 92.549,110.405 92.637,110.481 92.726,110.557 92.814,110.632 92.902,110.708 92.991,110.784 93.079,110.860 93.269,111.201 93.458,111.541 93.647,111.882 93.837,112.223 94.026,112.564 94.216,112.905 94.405,113.246 94.594,113.587 94.607,113.783 94.620,113.978 94.632,114.174 94.645,114.370 94.658,114.565 94.670,114.761 94.683,114.957 94.696,115.152 94.683,115.437 94.670,115.721 94.658,116.005 94.645,116.289 94.632,116.573 94.620,116.857 94.607,117.141 94.594,117.425 94.556,117.690 94.519,117.955 94.481,118.221 94.443,118.486 94.405,118.751 94.367,119.016 94.329,119.281 94.291,119.546 94.184,119.875 94.077,120.203 93.969,120.531 93.862,120.859 93.755,121.188 93.647,121.516 93.540,121.844 93.433,122.173 93.294,122.627 93.155,123.082 93.016,123.536 92.877,123.991 92.738,124.445 92.600,124.900 92.461,125.354 92.322,125.809 92.158,126.194 91.993,126.579 91.829,126.964 91.665,127.349 91.501,127.734 91.337,128.119 91.173,128.504 91.009,128.890 90.851,129.281 90.693,129.672 90.535,130.064 90.377,130.455 90.220,130.847 90.062,131.238 89.904,131.629 89.746,132.021 89.582,132.412 89.418,132.804 89.254,133.195 89.089,133.586 88.925,133.978 88.761,134.369 88.597,134.761 88.433,135.152 88.149,136.004 87.865,136.857 87.581,137.709 87.297,138.561 87.012,139.413 86.728,140.266 86.444,141.118 86.160,141.970 86.059,142.267 85.958,142.564 85.857,142.860 85.756,143.157 85.655,143.454 85.554,143.750 85.453,144.047 85.352,144.344 85.220,144.659 85.087,144.975 84.954,145.291 84.822,145.606 84.689,145.922 84.557,146.238 84.424,146.553 84.292,146.869 84.254,147.084 84.216,147.298 84.178,147.513 84.140,147.728 84.102,147.942 84.064,148.157 84.026,148.372 83.989,148.586 84.064,148.889 84.140,149.192 84.216,149.495 84.292,149.798 84.367,150.101 84.443,150.404 84.519,150.707 84.595,151.010 84.797,151.200 84.999,151.389 85.201,151.579 85.403,151.768 85.605,151.957 85.807,152.147 86.009,152.336 86.211,152.526 86.444,152.627 86.678,152.728 86.911,152.829 87.145,152.930 87.379,153.031 87.612,153.132 87.846,153.233 88.079,153.334 88.389,153.378 88.698,153.422 89.007,153.466 89.317,153.510 89.626,153.555 89.935,153.599 90.245,153.643 90.554,153.687 90.889,153.712 91.223,153.738 91.558,153.763 91.892,153.788 92.227,153.813 92.562,153.838 92.896,153.864 93.231,153.889 93.509,154.167 93.786,154.444 94.064,154.722 94.342,155.000 94.658,154.842 94.973,154.684 95.289,154.527 95.604,154.369 95.920,154.211 96.236,154.053 96.551,153.895 96.867,153.737 97.126,153.491 97.385,153.245 97.644,152.999 97.902,152.753 98.161,152.506 98.420,152.260 98.679,152.014 98.938,151.768 99.171,151.540 99.405,151.313 99.638,151.086 99.872,150.859 100.106,150.631 100.339,150.404 100.573,150.177 100.806,149.950 101.015,149.703 101.223,149.457 101.431,149.211 101.640,148.965 101.848,148.719 102.056,148.472 102.265,148.226 102.473,147.980 102.650,147.797 102.827,147.614 103.003,147.431 103.180,147.248 103.357,147.065 103.534,146.881 103.710,146.698 103.887,146.515 104.108,146.256 104.329,145.998 104.550,145.739 104.771,145.480 104.992,145.221 105.213,144.962 105.434,144.703 105.655,144.445 105.825,144.230 105.996,144.015 106.166,143.801 106.337,143.586 106.507,143.371 106.677,143.157 106.848,142.942 107.018,142.727 107.220,142.500 107.422,142.273 107.624,142.046 107.826,141.818 108.028,141.591 108.230,141.364 108.433,141.137 108.635,140.909 108.862,140.613 109.089,140.316 109.316,140.019 109.544,139.722 109.771,139.426 109.998,139.129 110.225,138.832 110.453,138.536 110.724,138.245 110.996,137.955 111.267,137.664 111.539,137.374 111.810,137.084 112.081,136.793 112.353,136.503 112.624,136.212 112.751,136.099 112.877,135.985 113.003,135.872 113.129,135.758 113.256,135.644 113.382,135.531 113.508,135.417 113.634,135.303 113.792,135.158 113.950,135.013 114.108,134.868 114.266,134.723 114.424,134.577 114.581,134.432 114.739,134.287 114.897,134.142 115.181,133.845 115.465,133.548 115.749,133.252 116.033,132.955 116.317,132.658 116.602,132.362 116.886,132.065 117.170,131.768 117.353,131.591 117.536,131.415 117.719,131.238 117.902,131.061 118.085,130.884 118.268,130.708 118.451,130.531 118.634,130.354 119.013,130.032 119.392,129.710 119.771,129.388 120.149,129.066 120.528,128.744 120.907,128.422 121.286,128.100 121.665,127.778 121.772,127.690 121.879,127.602 121.987,127.513 122.094,127.425 122.201,127.336 122.309,127.248 122.416,127.160 122.523,127.071 122.706,126.913 122.889,126.756 123.072,126.598 123.255,126.440 123.439,126.282 123.622,126.124 123.805,125.966 123.988,125.809 124.297,125.581 124.606,125.354 124.916,125.127 125.225,124.900 125.534,124.672 125.844,124.445 126.153,124.218 126.462,123.990 126.627,123.877 126.791,123.763 126.955,123.650 127.119,123.536 127.283,123.422 127.447,123.309 127.611,123.195 127.776,123.081 128.009,122.936 128.243,122.791 128.476,122.646 128.710,122.501 128.944,122.355 129.177,122.210 129.411,122.065 129.644,121.920 130.004,121.730 130.364,121.541 130.724,121.352 131.084,121.162 131.443,120.973 131.803,120.783 132.163,120.594 132.523,120.405 132.643,120.360 132.763,120.316 132.883,120.272 133.003,120.228 133.123,120.184 133.243,120.139 133.363,120.095 133.483,120.051 133.748,120.001 134.013,119.950 134.278,119.900 134.543,119.849 134.808,119.798 135.073,119.748 135.339,119.697 135.604,119.647 135.863,119.615 136.121,119.584 136.380,119.552 136.639,119.521 136.898,119.489 137.157,119.458 137.416,119.426 137.674,119.395 137.857,119.389 138.041,119.383 138.224,119.377 138.407,119.371 138.590,119.365 138.773,119.359 138.956,119.353 139.139,119.347 139.392,119.372 139.644,119.397 139.897,119.422 140.149,119.448 140.402,119.473 140.654,119.498 140.907,119.523 141.159,119.548 141.418,119.580 141.677,119.612 141.936,119.643 142.195,119.675 142.453,119.706 142.712,119.738 142.971,119.769 143.230,119.801 143.400,119.851 143.571,119.902 143.741,119.952 143.912,120.003 144.082,120.053 144.253,120.104 144.423,120.154 144.593,120.205 144.745,120.255 144.896,120.306 145.048,120.357 145.200,120.407 145.351,120.458 145.503,120.508 145.654,120.559 145.806,120.609 146.058,120.679 146.311,120.748 146.563,120.817 146.816,120.887 147.068,120.956 147.321,121.026 147.573,121.095 147.826,121.164 148.129,121.322 148.432,121.480 148.735,121.638 149.038,121.796 149.341,121.954 149.644,122.111 149.947,122.269 150.250,122.427 150.439,122.528 150.629,122.629 150.818,122.730 151.007,122.831 151.197,122.932 151.386,123.033 151.576,123.134 151.765,123.235 151.828,123.298 151.891,123.361 151.954,123.425 152.017,123.488 152.081,123.551 152.144,123.614 152.207,123.677 151.790,124.215" fill="none" stroke="black" stroke-width="1"/>
</svg>
