<?xml version="1.0" encoding="UTF-8"?>
<svg xmlns="http://www.w3.org/2000/svg" width="103.9" height="160.0" viewBox="0 0 103.9 160.0">
  <polyline points="5.000,151.628 5.027,151.991 5.054,152.353 5.082,152.716 5.109,153.078 5.082,153.396 5.054,153.713 5.027,154.030 5.000,154.347 5.698,154.411 6.396,154.474 7.094,154.538 7.792,154.601 8.426,154.583 9.061,154.565 9.695,154.547 10.330,154.529 11.164,154.474 11.998,154.420 12.832,154.366 13.666,154.311 14.155,154.284 14.645,154.257 15.134,154.230 15.624,154.202 16.168,154.221 16.711,154.239 17.255,154.257 17.799,154.275 18.352,154.302 18.905,154.329 19.458,154.356 20.011,154.384 20.319,154.692 20.627,155.000 20.818,154.411 21.008,153.822 21.198,153.232 21.389,152.643 21.851,151.646 22.313,150.649 22.776,149.652 23.238,148.655 23.773,147.821 24.307,146.987 24.842,146.153 25.377,145.319 25.930,144.576 26.483,143.832 27.036,143.089 27.589,142.346 28.178,141.512 28.767,140.678 29.356,139.844 29.946,139.010 30.535,138.367 31.124,137.723 31.713,137.079 32.302,136.436 32.774,136.019 33.245,135.602 33.716,135.185 34.188,134.768 34.967,134.269 35.747,133.771 36.526,133.272 37.306,132.774 37.959,132.311 38.611,131.849 39.264,131.387 39.917,130.925 40.424,130.625 40.932,130.326 41.439,130.027 41.947,129.728 42.745,129.365 43.542,129.003 44.340,128.640 45.138,128.278 46.035,127.897 46.933,127.516 47.830,127.136 48.727,126.755 49.534,126.265 50.341,125.776 51.148,125.286 51.954,124.797 52.598,124.389 53.242,123.981 53.885,123.573 54.529,123.165 55.027,122.776 55.526,122.386 56.024,121.996 56.523,121.606 56.949,121.226 57.375,120.845 57.801,120.464 58.227,120.083 58.753,119.530 59.278,118.978 59.804,118.425 60.330,117.872 60.937,117.228 61.545,116.584 62.152,115.941 62.759,115.297 63.330,114.672 63.901,114.046 64.472,113.421 65.044,112.795 65.370,112.315 65.696,111.835 66.023,111.354 66.349,110.874 66.666,110.312 66.983,109.750 67.301,109.188 67.618,108.626 67.881,108.209 68.144,107.792 68.406,107.375 68.669,106.958 68.978,106.496 69.286,106.033 69.594,105.571 69.902,105.109 70.219,104.619 70.537,104.130 70.854,103.640 71.171,103.151 71.434,102.670 71.697,102.190 71.960,101.710 72.223,101.229 72.495,100.785 72.767,100.341 73.038,99.897 73.310,99.452 73.637,98.872 73.963,98.292 74.289,97.712 74.616,97.132 75.005,96.470 75.395,95.809 75.785,95.147 76.175,94.485 76.420,93.977 76.664,93.470 76.909,92.962 77.154,92.455 77.408,92.038 77.661,91.621 77.915,91.204 78.169,90.787 78.523,90.161 78.876,89.536 79.230,88.910 79.583,88.285 79.828,87.814 80.073,87.342 80.317,86.871 80.562,86.400 80.925,85.584 81.287,84.768 81.650,83.952 82.012,83.136 82.166,82.683 82.321,82.230 82.475,81.777 82.629,81.323 82.837,80.906 83.046,80.489 83.254,80.072 83.463,79.656 83.707,79.184 83.952,78.713 84.197,78.241 84.442,77.770 84.705,77.099 84.967,76.429 85.230,75.758 85.493,75.087 85.584,74.797 85.674,74.507 85.765,74.217 85.856,73.927 86.091,73.374 86.327,72.821 86.563,72.268 86.798,71.715 87.134,70.727 87.469,69.739 87.805,68.751 88.140,67.763 88.339,67.264 88.539,66.766 88.738,66.267 88.938,65.769 89.173,65.116 89.409,64.463 89.645,63.811 89.880,63.158 90.171,62.206 90.461,61.254 90.751,60.303 91.041,59.351 91.258,58.735 91.476,58.118 91.693,57.502 91.911,56.885 92.192,56.024 92.473,55.163 92.754,54.302 93.035,53.441 93.325,52.498 93.615,51.555 93.905,50.613 94.195,49.670 94.376,48.809 94.558,47.948 94.739,47.087 94.920,46.225 95.120,45.410 95.319,44.594 95.519,43.778 95.718,42.962 95.854,42.391 95.990,41.820 96.126,41.249 96.262,40.678 96.461,39.708 96.661,38.738 96.860,37.768 97.060,36.798 97.187,36.336 97.313,35.874 97.440,35.411 97.567,34.949 97.712,34.306 97.857,33.662 98.002,33.018 98.147,32.375 98.229,31.686 98.311,30.997 98.392,30.308 98.474,29.619 98.528,28.831 98.583,28.042 98.637,27.253 98.691,26.465 98.755,25.595 98.818,24.724 98.882,23.854 98.945,22.984 98.936,22.041 98.927,21.099 98.918,20.156 98.908,19.213 98.655,18.316 98.401,17.418 98.147,16.521 97.893,15.624 97.467,14.980 97.041,14.336 97.232,13.077 96.806,12.433 96.434,12.079 96.062,11.726 95.691,11.372 95.319,11.019 94.839,10.629 94.358,10.239 93.878,9.850 93.397,9.460 92.772,8.925 92.147,8.390 91.521,7.855 90.896,7.321 90.334,6.985 89.772,6.650 89.210,6.314 88.648,5.979 88.086,5.770 87.524,5.562 86.962,5.354 86.400,5.145 85.466,5.109 84.532,5.073 83.599,5.036 82.665,5.000 81.686,5.027 80.707,5.054 79.728,5.082 78.749,5.109 78.151,5.199 77.553,5.290 76.954,5.381 76.356,5.471 75.939,5.589 75.522,5.707 75.105,5.825 74.688,5.943 74.353,6.151 74.017,6.360 73.682,6.568 73.347,6.777 73.084,7.175 72.821,7.574 72.558,7.973 72.295,8.372 72.250,8.780 72.205,9.188 72.159,9.596 72.114,10.004 72.486,10.801 72.857,11.599 73.229,12.397 73.600,13.194 73.963,13.493 74.326,13.793 74.688,14.092 75.051,14.391 75.241,14.491 75.432,14.590 75.622,14.690 75.812,14.790 76.184,15.034 76.556,15.279 76.927,15.524 77.299,15.769 77.680,16.004 78.060,16.240 78.441,16.476 78.822,16.711 79.420,17.056 80.018,17.400 80.616,17.745 81.215,18.089 81.695,18.334 82.176,18.579 82.656,18.823 83.136,19.068 83.435,19.259 83.735,19.449 84.034,19.639 84.333,19.830 84.841,20.437 85.348,21.044 85.856,21.652 86.363,22.259 86.436,22.395 86.508,22.531 86.581,22.667 86.653,22.803 86.717,23.256 86.780,23.709 86.844,24.162 86.907,24.616 86.962,25.096 87.016,25.577 87.070,26.057 87.125,26.537 86.989,27.290 86.853,28.042 86.717,28.794 86.581,29.547 86.527,30.136 86.472,30.725 86.418,31.314 86.363,31.904 86.291,32.502 86.218,33.100 86.146,33.698 86.073,34.297 85.946,34.786 85.819,35.276 85.693,35.765 85.566,36.255 85.430,36.735 85.294,37.215 85.158,37.696 85.022,38.176 84.895,38.892 84.768,39.608 84.641,40.325 84.514,41.041 84.288,42.011 84.061,42.980 83.834,43.950 83.608,44.920 83.472,45.319 83.336,45.718 83.200,46.117 83.064,46.516 82.883,47.096 82.701,47.676 82.520,48.256 82.339,48.836 82.230,49.126 82.121,49.416 82.012,49.706 81.904,49.996 81.722,50.450 81.541,50.903 81.360,51.356 81.179,51.809 81.034,52.217 80.888,52.625 80.743,53.033 80.598,53.441 80.381,53.903 80.163,54.366 79.946,54.828 79.728,55.290 79.502,55.879 79.275,56.469 79.048,57.058 78.822,57.647 78.704,57.928 78.586,58.209 78.468,58.490 78.350,58.771 78.006,59.632 77.662,60.493 77.317,61.354 76.973,62.215 76.701,62.904 76.429,63.593 76.157,64.282 75.885,64.971 75.731,65.461 75.577,65.950 75.423,66.440 75.268,66.929 75.078,67.428 74.888,67.926 74.697,68.425 74.507,68.923 74.299,69.304 74.090,69.685 73.882,70.065 73.673,70.446 73.392,71.053 73.111,71.661 72.830,72.268 72.549,72.875 72.313,73.338 72.078,73.800 71.842,74.262 71.606,74.725 71.316,75.323 71.026,75.921 70.736,76.519 70.446,77.118 70.256,77.525 70.065,77.933 69.875,78.341 69.685,78.749 69.141,79.755 68.597,80.762 68.053,81.768 67.509,82.774 67.337,83.100 67.165,83.426 66.993,83.753 66.820,84.079 66.630,84.478 66.440,84.877 66.249,85.276 66.059,85.674 65.796,86.101 65.533,86.527 65.270,86.953 65.007,87.379 64.717,87.823 64.427,88.267 64.137,88.711 63.847,89.155 63.512,89.754 63.176,90.352 62.841,90.950 62.506,91.548 62.161,92.101 61.817,92.654 61.472,93.207 61.128,93.760 60.792,94.286 60.457,94.812 60.122,95.337 59.786,95.863 59.478,96.389 59.170,96.915 58.862,97.440 58.553,97.966 58.136,98.673 57.719,99.380 57.303,100.087 56.886,100.794 56.514,101.320 56.142,101.846 55.771,102.371 55.399,102.897 54.973,103.396 54.547,103.894 54.121,104.393 53.695,104.891 53.405,105.272 53.115,105.653 52.825,106.033 52.535,106.414 52.199,106.831 51.864,107.248 51.528,107.665 51.193,108.082 50.676,108.535 50.160,108.988 49.643,109.442 49.126,109.895 48.610,110.357 48.093,110.820 47.576,111.282 47.060,111.744 46.516,112.070 45.972,112.397 45.428,112.723 44.884,113.049 44.440,113.385 43.996,113.720 43.552,114.056 43.107,114.391 42.482,114.663 41.857,114.935 41.231,115.207 40.606,115.479 39.853,115.832 39.101,116.186 38.349,116.539 37.596,116.893 37.170,117.074 36.744,117.255 36.318,117.437 35.892,117.618 35.493,117.835 35.094,118.053 34.696,118.271 34.297,118.488 33.744,118.805 33.191,119.123 32.638,119.440 32.085,119.757 31.632,119.984 31.179,120.210 30.725,120.437 30.272,120.664 29.882,120.908 29.492,121.153 29.103,121.398 28.713,121.643 28.187,121.987 27.661,122.332 27.136,122.676 26.610,123.020 26.039,123.428 25.468,123.836 24.897,124.244 24.326,124.652 23.918,125.042 23.510,125.432 23.102,125.821 22.694,126.211 22.449,126.465 22.205,126.719 21.960,126.973 21.715,127.226 21.362,127.698 21.008,128.169 20.655,128.640 20.301,129.112 19.721,129.846 19.141,130.580 18.561,131.314 17.981,132.049 17.718,132.375 17.455,132.701 17.192,133.028 16.929,133.354 16.458,133.780 15.986,134.206 15.515,134.632 15.044,135.058 14.663,135.475 14.282,135.892 13.901,136.309 13.521,136.726 13.185,137.089 12.850,137.451 12.515,137.814 12.179,138.176 11.808,138.738 11.436,139.300 11.064,139.862 10.693,140.424 10.375,140.896 10.058,141.367 9.741,141.838 9.424,142.310 9.197,142.763 8.970,143.216 8.744,143.669 8.517,144.123 8.191,144.966 7.864,145.809 7.538,146.652 7.212,147.495 6.931,148.039 6.650,148.582 6.369,149.126 6.088,149.670 5.943,149.987 5.798,150.305 5.653,150.622 5.508,150.939 5.381,151.111 5.254,151.284 5.127,151.456 5.000,151.628" fill="none" stroke="black" stroke-width="1"/>
</svg>
