<?xml version="1.0" encoding="UTF-8"?>
<svg xmlns="http://www.w3.org/2000/svg" width="125.7" height="160.0" viewBox="0 0 125.7 160.0">
  <polyline points="5.214,148.970 5.214,148.970 5.214,148.970 5.161,149.493 5.107,150.015 5.054,150.538 5.000,151.061 5.469,151.195 5.938,151.329 6.407,151.463 6.876,151.597 7.506,151.570 8.136,151.543 8.765,151.516 9.395,151.489 10.306,152.400 11.218,153.312 12.062,154.156 12.906,155.000 13.362,154.987 13.817,154.973 14.273,154.960 14.728,154.946 18.936,150.618 19.633,149.801 20.330,148.984 21.026,148.166 21.844,147.362 22.661,146.558 23.479,145.754 24.296,144.950 25.663,143.530 27.030,142.109 28.397,140.689 29.763,139.269 31.237,137.808 32.711,136.347 34.185,134.887 35.659,133.426 37.227,132.006 38.795,130.585 40.363,129.165 41.931,127.745 43.458,126.472 44.986,125.199 46.513,123.926 48.041,122.653 49.770,121.433 51.498,120.214 53.227,118.994 54.955,117.775 56.992,116.770 59.029,115.765 61.066,114.760 63.103,113.755 64.818,113.071 66.533,112.388 68.248,111.705 69.963,111.021 71.732,110.056 73.501,109.092 75.270,108.127 77.039,107.162 78.030,106.385 79.022,105.608 80.014,104.830 81.005,104.053 81.782,102.740 82.560,101.427 83.337,100.114 84.114,98.800 84.771,97.474 85.427,96.147 86.084,94.821 86.740,93.494 87.518,92.275 88.295,91.055 89.072,89.836 89.849,88.616 90.760,87.236 91.672,85.856 92.583,84.476 93.494,83.096 94.365,81.662 95.236,80.228 96.107,78.794 96.978,77.360 97.809,76.034 98.640,74.707 99.470,73.380 100.301,72.054 100.944,71.116 101.588,70.178 102.231,69.240 102.874,68.302 103.450,67.377 104.026,66.453 104.603,65.528 105.179,64.603 106.264,62.486 107.350,60.369 108.435,58.252 109.520,56.135 109.909,55.371 110.298,54.607 110.686,53.843 111.075,53.079 111.638,52.021 112.200,50.962 112.763,49.904 113.326,48.845 113.755,47.572 114.184,46.299 114.612,45.026 115.041,43.753 115.497,42.467 115.952,41.180 116.408,39.894 116.864,38.607 117.359,37.174 117.855,35.740 118.351,34.306 118.847,32.872 119.128,31.586 119.410,30.299 119.691,29.013 119.973,27.726 120.160,26.185 120.348,24.644 120.535,23.103 120.723,21.562 120.428,19.579 120.133,17.596 119.839,15.613 119.544,13.630 118.807,12.236 118.070,10.842 117.333,9.449 116.596,8.055 115.524,7.586 114.452,7.117 113.380,6.648 112.308,6.179 110.070,5.884 107.832,5.590 105.594,5.295 103.356,5.000 102.003,5.027 100.650,5.054 99.296,5.080 97.943,5.107 96.777,5.482 95.611,5.858 94.445,6.233 93.280,6.608 92.744,6.849 92.208,7.090 91.672,7.332 91.136,7.573 90.492,8.203 89.849,8.832 89.206,9.462 88.563,10.092 88.469,10.253 88.375,10.414 88.281,10.574 88.188,10.735 88.911,11.084 89.635,11.432 90.358,11.780 91.082,12.129 91.873,12.745 92.663,13.362 93.454,13.978 94.244,14.594 94.955,15.372 95.665,16.149 96.375,16.926 97.085,17.703 97.661,18.373 98.238,19.043 98.814,19.713 99.390,20.383 100.516,21.495 101.641,22.608 102.767,23.720 103.892,24.832 104.549,25.663 105.206,26.494 105.862,27.325 106.519,28.155 106.787,28.986 107.055,29.817 107.323,30.648 107.591,31.479 107.001,33.663 106.412,35.847 105.822,38.031 105.232,40.215 104.763,40.926 104.294,41.636 103.825,42.346 103.356,43.056 102.847,43.994 102.338,44.932 101.829,45.870 101.320,46.808 100.918,47.639 100.516,48.470 100.114,49.301 99.712,50.131 99.323,50.748 98.934,51.364 98.546,51.981 98.157,52.597 97.702,53.388 97.246,54.178 96.790,54.969 96.335,55.759 95.611,56.738 94.888,57.716 94.164,58.694 93.440,59.672 92.824,60.932 92.208,62.191 91.591,63.451 90.975,64.711 90.506,65.689 90.037,66.667 89.568,67.645 89.099,68.623 88.308,69.990 87.518,71.357 86.727,72.724 85.936,74.091 84.958,75.538 83.980,76.985 83.002,78.432 82.024,79.880 81.394,80.978 80.764,82.077 80.134,83.176 79.504,84.275 78.848,85.146 78.191,86.017 77.535,86.888 76.878,87.759 75.525,89.648 74.171,91.538 72.818,93.427 71.464,95.316 70.888,95.933 70.312,96.549 69.736,97.166 69.159,97.782 68.382,98.291 67.605,98.800 66.828,99.310 66.051,99.819 64.804,99.752 63.558,99.685 62.312,99.618 61.066,99.551 60.155,99.564 59.243,99.578 58.332,99.591 57.421,99.605 56.108,99.899 54.795,100.194 53.481,100.489 52.168,100.784 51.177,101.561 50.185,102.338 49.193,103.115 48.202,103.893 46.728,104.951 45.254,106.010 43.780,107.068 42.306,108.127 40.725,109.534 39.143,110.941 37.562,112.348 35.981,113.755 34.976,114.559 33.971,115.363 32.966,116.167 31.961,116.971 31.505,117.359 31.050,117.748 30.594,118.137 30.139,118.525 29.160,119.410 28.182,120.294 27.204,121.179 26.226,122.063 25.140,123.081 24.055,124.100 22.969,125.118 21.884,126.137 20.852,127.088 19.820,128.039 18.789,128.991 17.757,129.942 16.846,130.961 15.934,131.979 15.023,132.997 14.112,134.016 13.335,135.074 12.558,136.133 11.780,137.192 11.003,138.250 10.360,139.161 9.717,140.073 9.074,140.984 8.430,141.895 7.841,142.645 7.251,143.396 6.662,144.146 6.072,144.897 5.884,145.379 5.697,145.861 5.509,146.344 5.322,146.826 5.295,147.362 5.268,147.898 5.241,148.434 5.214,148.970" fill="none" stroke="black" stroke-width="1"/>
</svg>
