<?xml version="1.0" encoding="UTF-8" standalone="no"?>
<!-- Created with Inkscape (http://www.inkscape.org/) -->

<svg
   width="210mm"
   height="297mm"
   viewBox="0 0 210 297"
   version="1.1"
   id="svg1"
   xml:space="preserve"
   inkscape:version="1.4.2 (ebf0e94, 2025-05-08)"
   sodipodi:docname="WW.13n.svg"
   xmlns:inkscape="http://www.inkscape.org/namespaces/inkscape"
   xmlns:sodipodi="http://sodipodi.sourceforge.net/DTD/sodipodi-0.dtd"
   xmlns="http://www.w3.org/2000/svg"
   xmlns:svg="http://www.w3.org/2000/svg"><sodipodi:namedview
     id="namedview1"
     pagecolor="#ffffff"
     bordercolor="#000000"
     borderopacity="0.25"
     inkscape:showpageshadow="2"
     inkscape:pageopacity="0.0"
     inkscape:pagecheckerboard="0"
     inkscape:deskcolor="#d1d1d1"
     inkscape:document-units="mm"
     showguides="true"
     inkscape:zoom="4.58"
     inkscape:cx="396.72489"
     inkscape:cy="561.35371"
     inkscape:window-width="3840"
     inkscape:window-height="2054"
     inkscape:window-x="-11"
     inkscape:window-y="-11"
     inkscape:window-maximized="1"
     inkscape:current-layer="layer1"><sodipodi:guide
       position="79.047341,193.70602"
       orientation="0,-1"
       id="guide1"
       inkscape:locked="false" /></sodipodi:namedview><defs
     id="defs1" /><g
     inkscape:label="Ebene 1"
     inkscape:groupmode="layer"
     id="layer1"><path
       style="fill:none;stroke:#000000;stroke-width:0.264999"
       d="m 112.99672,128.82551 h -4.33269 l -5.95024,-0.63546 -3.870541,-0.92431 -4.043851,-1.90639 -3.408387,-3.17731 -2.772926,-2.8307 -1.270926,-2.36854 0.288849,-0.23107 -1.502003,-0.23108 -2.195232,-1.79085 -1.906386,-2.59961 -0.751002,-1.50201 -0.346614,-1.79085 -0.808771,-0.23107 -0.866539,-2.48408 -1.386465,-2.02193 c 0,0 -0.05777,-0.1733 -0.577691,-0.23107 -0.519925,-0.0578 -1.213154,-0.0578 -1.213154,-0.0578 l -0.751001,0.69323 -0.751002,0.751 -0.173307,1.38646 c 0,0 0.462153,0.34662 0.69323,0.34662 0.231079,0 1.213156,0.28885 1.444233,0.28885 0.231076,0 0.80877,0.34661 0.80877,0.34661 l 0.231077,1.44423 0.231076,1.27093 0.577694,2.94623 1.559772,2.02192 1.675307,1.44424 2.54185,0.98208 0.924308,0.51992 c 0,0 0,0.63546 0,0.86654 0,0.23107 0.751001,2.83069 0.751001,2.83069 l 1.67531,2.8307 1.790848,2.02192 3.004003,2.13747 3.119541,1.502 3.408388,1.84862 1.155386,0.23107 -0.231077,1.21316 c 0,0 -1.155388,1.502 -1.270926,1.79084 -0.115538,0.28885 -1.155385,3.06178 -1.155385,3.06178 l -0.231077,1.27092 0.519923,0.40439 0.924308,0.28884 1.906389,0.51993 1.44423,-1.90639 3.87054,-3.63947 2.59962,-2.13746 1.27092,-0.92431 1.79085,-0.11554 1.79085,0.0578"
       id="path1" /></g></svg>
