<?xml version="1.0" encoding="UTF-8" standalone="no"?>
<!-- Created with Inkscape (http://www.inkscape.org/) -->

<svg
   width="210mm"
   height="297mm"
   viewBox="0 0 210 297"
   version="1.1"
   id="svg1"
   xml:space="preserve"
   inkscape:version="1.4.2 (ebf0e94, 2025-05-08)"
   sodipodi:docname="WW.10n.svg"
   xmlns:inkscape="http://www.inkscape.org/namespaces/inkscape"
   xmlns:sodipodi="http://sodipodi.sourceforge.net/DTD/sodipodi-0.dtd"
   xmlns="http://www.w3.org/2000/svg"
   xmlns:svg="http://www.w3.org/2000/svg"><sodipodi:namedview
     id="namedview1"
     pagecolor="#ffffff"
     bordercolor="#000000"
     borderopacity="0.25"
     inkscape:showpageshadow="2"
     inkscape:pageopacity="0.0"
     inkscape:pagecheckerboard="0"
     inkscape:deskcolor="#d1d1d1"
     inkscape:document-units="mm"
     showguides="true"
     inkscape:zoom="4.58"
     inkscape:cx="396.72489"
     inkscape:cy="561.13537"
     inkscape:window-width="3840"
     inkscape:window-height="2054"
     inkscape:window-x="-11"
     inkscape:window-y="-11"
     inkscape:window-maximized="1"
     inkscape:current-layer="svg1"><sodipodi:guide
       position="79.047341,193.70602"
       orientation="0,-1"
       id="guide1"
       inkscape:locked="false" /></sodipodi:namedview><defs
     id="defs1" /><path
     style="fill:none;stroke:#000000;stroke-width:0.264999"
     d="m 118.13819,126.86135 -6.41239,0.80877 -5.02593,0.17331 -5.31477,-0.17331 -3.928315,-0.57769 -3.004002,-1.15539 -3.235079,-2.13746 -3.581696,-3.004 -2.946234,-3.23508 -2.946233,-4.3327 -1.733079,-3.63946 -1.617541,-2.94624 c 0,0 -0.866539,-1.502 -1.270923,-1.502 -0.404387,0 -2.368542,-0.80877 -2.368542,-0.80877 l -2.888464,-0.63546 -0.982078,0.17331 c 0,0 -0.346615,0.28884 -0.404384,0.51992 -0.05777,0.23108 -0.288848,1.03985 -0.288848,1.03985 l 0.462155,0.80877 1.097616,0.23108 1.733079,0.11553 1.848618,0.63546 1.328692,0.63547 1.617541,2.07969 1.444231,3.35062 2.541849,3.40839 2.657388,4.04385 3.11954,3.35062 3.581697,2.65738 3.466158,2.0797 1.964155,0.86654 0.751002,1.27092 20.681397,0.28885"
     id="path1" /></svg>
