<?xml version="1.0" encoding="UTF-8" standalone="no"?>
<!-- Created with Inkscape (http://www.inkscape.org/) -->

<svg
   width="210mm"
   height="297mm"
   viewBox="0 0 210 297"
   version="1.1"
   id="svg1"
   xml:space="preserve"
   inkscape:version="1.4.2 (ebf0e94, 2025-05-08)"
   sodipodi:docname="WW.24n.svg"
   xmlns:inkscape="http://www.inkscape.org/namespaces/inkscape"
   xmlns:sodipodi="http://sodipodi.sourceforge.net/DTD/sodipodi-0.dtd"
   xmlns="http://www.w3.org/2000/svg"
   xmlns:svg="http://www.w3.org/2000/svg"><sodipodi:namedview
     id="namedview1"
     pagecolor="#ffffff"
     bordercolor="#000000"
     borderopacity="0.25"
     inkscape:showpageshadow="2"
     inkscape:pageopacity="0.0"
     inkscape:pagecheckerboard="0"
     inkscape:deskcolor="#d1d1d1"
     inkscape:document-units="mm"
     showguides="true"
     inkscape:zoom="4.58"
     inkscape:cx="396.72489"
     inkscape:cy="561.13537"
     inkscape:window-width="3840"
     inkscape:window-height="2054"
     inkscape:window-x="-11"
     inkscape:window-y="-11"
     inkscape:window-maximized="1"
     inkscape:current-layer="layer1"><sodipodi:guide
       position="79.047341,193.70602"
       orientation="0,-1"
       id="guide1"
       inkscape:locked="false" /></sodipodi:namedview><defs
     id="defs1" /><g
     inkscape:label="Ebene 1"
     inkscape:groupmode="layer"
     id="layer1"><path
       style="fill:none;stroke:#000000;stroke-width:0.264999"
       d="m 110.51264,136.62436 -4.27492,0.51992 -4.67932,0.28885 -5.719156,-1.21315 -4.448233,-1.61754 -4.621543,-2.77293 -4.043849,-3.81277 -1.906387,-2.48408 -0.462155,-1.84862 -0.519925,-2.48408 -1.328693,-0.751 -1.906386,-2.19523 -1.502002,-2.77293 -0.462153,-3.29285 -0.635463,-3.17731 v -0.63546 l -0.462153,-0.28885 -0.404387,-0.23107 -0.288846,-2.36854 -0.231076,-0.86654 -0.751001,-0.46216 c 0,0 -0.808771,-0.40438 -1.039847,-0.28884 -0.231077,0.11553 -0.751001,0.69323 -0.751001,0.69323 l 0.05777,2.71516 v 2.02192 l 0.635463,4.91039 1.964155,5.54585 2.946233,6.5857 3.408389,4.73708 3.697235,3.52393 4.79485,2.77292 4.448234,1.38647 4.910391,1.27092 -0.115541,1.67531 -0.63546,1.27092 -1.039847,2.65739 v 1.73308 l 0.173307,0.63546 h 4.737077 l 0.69324,-2.88846 0.46215,-1.67531 0.98208,-1.67531 1.73308,-0.28885 h 2.253 l 2.42631,0.69323 2.13746,1.55977"
       id="path1" /></g></svg>
