<?xml version="1.0" encoding="UTF-8" standalone="no"?>
<!-- Created with Inkscape (http://www.inkscape.org/) -->

<svg
   width="210mm"
   height="297mm"
   viewBox="0 0 210 297"
   version="1.1"
   id="svg1"
   xml:space="preserve"
   inkscape:version="1.4.2 (ebf0e94, 2025-05-08)"
   sodipodi:docname="WW.2.svg"
   xmlns:inkscape="http://www.inkscape.org/namespaces/inkscape"
   xmlns:sodipodi="http://sodipodi.sourceforge.net/DTD/sodipodi-0.dtd"
   xmlns="http://www.w3.org/2000/svg"
   xmlns:svg="http://www.w3.org/2000/svg"><sodipodi:namedview
     id="namedview1"
     pagecolor="#ffffff"
     bordercolor="#000000"
     borderopacity="0.25"
     inkscape:showpageshadow="2"
     inkscape:pageopacity="0.0"
     inkscape:pagecheckerboard="0"
     inkscape:deskcolor="#d1d1d1"
     inkscape:document-units="mm"
     showguides="true"
     inkscape:zoom="4.58"
     inkscape:cx="396.72489"
     inkscape:cy="561.13537"
     inkscape:window-width="3840"
     inkscape:window-height="2054"
     inkscape:window-x="-11"
     inkscape:window-y="-11"
     inkscape:window-maximized="1"
     inkscape:current-layer="svg1"><sodipodi:guide
       position="79.047341,193.70602"
       orientation="0,-1"
       id="guide1"
       inkscape:locked="false" /></sodipodi:namedview><defs
     id="defs1" /><path
     style="fill:none;stroke:#000000;stroke-width:0.264999"
     d="m 115.4808,132.06059 h -4.67931 l -8.02993,-0.0578 -2.253,0.51992 -1.097619,0.5777 c 0,0 -0.577692,0.23107 -0.808771,0.23107 -0.231076,0 -1.039847,-0.51992 -1.039847,-0.51992 l -0.519922,-2.0797 -1.097616,-2.54184 -1.61754,-2.8307 -2.137463,-3.40839 -3.581697,-3.81277 -5.257006,-4.62154 -5.257003,-4.10162 -4.679313,-2.65739 -3.061774,-1.73308 -1.386461,-0.57769 h -0.346615 l -0.404387,0.34662 0.115539,1.03984 1.097616,0.5777 3.870544,2.4263 3.581694,2.48408 3.639465,2.65739 3.639466,3.40839 2.946233,3.52393 2.657387,3.755 2.54185,4.3327 2.137463,4.15938 1.270923,3.46616 14.442324,-0.28885 5.43031,-0.751"
     id="path1" /></svg>
